<svg width="31" height="36" viewBox="0 0 31 36" fill="none"
  xmlns="http://www.w3.org/2000/svg">
  <path fill-rule="evenodd" clip-rule="evenodd" d="M25.4695 21.713L9.02568 12.1402V3.74106L5.48111 5.79498V14.1941L21.9615 23.7303V32.1294L25.4695 30.1121V21.713Z" fill="#3855E2"/>
  <path d="M23.0577 5.64829L24.3732 6.41853V11.1499L23.0577 10.3797V5.64829ZM21.9615 3.74106V11.0032L25.4695 13.0571V5.79498L21.9615 3.74106Z" fill="#3855E2"/>
  <path d="M6.57736 24.7572L7.89287 25.5275V30.2588L6.57736 29.4886V24.7572ZM5.48111 22.85V30.1121L8.98912 32.1661V24.8673L5.48111 22.85Z" fill="#3855E2"/>
  <path d="M28.5393 8.83929L29.8548 9.60953V14.3409L28.5393 13.5707V8.83929ZM27.4431 6.93204V14.1942L30.9511 16.2481V8.98598L27.4431 6.93204Z" fill="#3855E2"/>
  <path fill-rule="evenodd" clip-rule="evenodd" d="M16.4805 4.65803L15.4939 4.07119L14.5072 4.65803V8.98597L30.9876 18.5221V26.9212L27.443 28.9752V20.576L10.9992 11.0032V2.6041L15.4939 0L19.9885 2.6041V9.86623L16.4805 7.84895V4.65803Z" fill="#3855E2"/>
  <path fill-rule="evenodd" clip-rule="evenodd" d="M16.4804 31.2492L15.4937 31.7993L14.5071 31.2492V28.0582L10.9991 26.041V33.3031L15.4937 35.9072L19.9884 33.3031V24.8673L3.50802 15.3312V6.93204L0 8.98598V17.3851L16.4804 26.9213V31.2492Z" fill="#3855E2"/>
  <path d="M1.09625 21.5663L2.41176 22.3365V27.0679L1.09625 26.2977V21.5663ZM0 19.6591V26.9212L3.50802 28.9751V21.713L0 19.6591Z" fill="#3855E2"/>
</svg>
