<svg width="310" height="477" viewBox="0 0 310 477" fill="none" xmlns="http://www.w3.org/2000/svg">
<path fill-rule="evenodd" clip-rule="evenodd" d="M102.415 54.0564L115.623 61.8483V104.217L162.585 131.002V34.5766L102.415 0L42.2449 34.5766V146.098L262.38 273.204V384.726L309.831 357.454V245.932L89.207 119.314V61.8483L102.415 54.0564ZM235.96 288.302L15.8255 161.196V49.6749L-31.6261 76.9464V188.468L188.998 315.087V426.608L235.96 399.824V288.302ZM203.675 74.9987L221.286 85.2257V148.048L203.675 137.821V74.9987ZM189 49.6749V146.1L235.962 173.372V76.9464L189 49.6749ZM0.660378 338.949L-16.9504 328.722V391.545L0.660378 401.771V338.949ZM-31.6261 399.823V303.399L15.336 330.183V427.095L-31.6261 399.823ZM277.056 117.367L294.667 127.594V190.416L277.056 180.19V117.367ZM262.38 92.0431V188.468L309.342 215.74V119.315L262.38 92.0431ZM115.624 414.92L102.416 422.226L89.2081 414.92V372.552L42.246 345.768V442.192L102.416 476.769L162.586 442.192V330.184L-58.0379 203.565V92.0431L-105 119.315V230.837L115.624 357.456V414.92ZM-72.7136 296.581L-90.3243 286.354V349.176L-72.7136 359.403V296.581ZM-105 357.455V261.03L-58.0379 288.302V384.727L-105 357.455Z" fill="#121719"/>
</svg>
