<svg 
 xmlns="http://www.w3.org/2000/svg"
 xmlns:xlink="http://www.w3.org/1999/xlink"
 width="18px" height="13px">
<defs>
<filter id="Filter_0">
    <feFlood flood-color="rgb(255, 255, 255)" flood-opacity="1" result="floodOut" />
    <feComposite operator="atop" in="floodOut" in2="SourceGraphic" result="compOut" />
    <feBlend mode="normal" in="compOut" in2="SourceGraphic" />
</filter>

</defs>
<g filter="url(#Filter_0)">
<path fill-rule="evenodd"  fill="rgb(158, 230, 255)"
 d="M17.841,12.070 L12.382,6.499 L17.841,0.928 C17.940,1.140 18.000,1.374 18.000,1.624 L18.000,11.374 C18.000,11.624 17.940,11.859 17.841,12.070 ZM7.881,7.293 L0.904,0.162 C1.110,0.061 1.338,-0.001 1.582,-0.001 L16.418,-0.001 C16.661,-0.001 16.889,0.061 17.096,0.162 L10.118,7.293 C9.501,7.926 8.498,7.926 7.881,7.293 ZM0.158,12.070 C0.060,11.859 -0.000,11.624 -0.000,11.374 L-0.000,1.624 C-0.000,1.374 0.060,1.140 0.158,0.928 L5.617,6.499 L0.158,12.070 ZM7.136,8.059 C8.164,9.115 9.836,9.115 10.864,8.059 L11.637,7.265 L17.096,12.836 C16.889,12.938 16.661,12.999 16.418,12.999 L1.582,12.999 C1.338,12.999 1.110,12.938 0.904,12.836 L6.363,7.265 L7.136,8.059 Z"/>
</g>
</svg>