<svg 
 xmlns="http://www.w3.org/2000/svg"
 xmlns:xlink="http://www.w3.org/1999/xlink"
 width="15px" height="15px">
<defs>
<filter id="Filter_0">
    <feFlood flood-color="rgb(255, 255, 255)" flood-opacity="1" result="floodOut" />
    <feComposite operator="atop" in="floodOut" in2="SourceGraphic" result="compOut" />
    <feBlend mode="normal" in="compOut" in2="SourceGraphic" />
</filter>

</defs>
<g filter="url(#Filter_0)">
<path fill-rule="evenodd"  fill="rgb(0, 0, 0)"
 d="M14.373,8.585 C14.430,8.231 14.459,7.869 14.459,7.499 C14.459,3.655 11.343,0.540 7.499,0.540 C7.131,0.540 6.767,0.570 6.413,0.626 C5.773,0.229 5.016,-0.001 4.205,-0.001 C1.883,-0.001 -0.000,1.882 -0.000,4.205 C-0.000,5.015 0.230,5.771 0.626,6.414 C0.571,6.768 0.541,7.129 0.541,7.499 C0.541,11.343 3.656,14.457 7.499,14.457 C7.868,14.457 8.232,14.429 8.586,14.373 C9.227,14.769 9.983,14.999 10.794,14.999 C13.117,14.999 15.000,13.116 15.000,10.793 C15.000,9.983 14.770,9.227 14.373,8.585 ZM10.804,10.664 C10.509,11.088 10.077,11.419 9.512,11.657 C8.945,11.896 8.276,12.015 7.503,12.015 C6.577,12.015 5.810,11.853 5.205,11.525 C4.776,11.291 4.427,10.976 4.158,10.584 C3.889,10.192 3.753,9.808 3.753,9.433 C3.753,9.212 3.837,9.020 4.001,8.863 C4.167,8.706 4.381,8.626 4.633,8.626 C4.839,8.626 5.016,8.688 5.161,8.812 C5.304,8.935 5.424,9.114 5.523,9.350 C5.641,9.624 5.769,9.853 5.905,10.036 C6.040,10.216 6.231,10.366 6.477,10.484 C6.721,10.602 7.046,10.661 7.452,10.661 C8.008,10.661 8.458,10.541 8.802,10.304 C9.147,10.064 9.313,9.773 9.313,9.421 C9.313,9.140 9.224,8.917 9.040,8.743 C8.855,8.567 8.616,8.433 8.319,8.339 C8.021,8.245 7.621,8.145 7.119,8.039 C6.446,7.892 5.883,7.721 5.427,7.525 C4.970,7.327 4.606,7.058 4.337,6.717 C4.067,6.373 3.932,5.946 3.932,5.440 C3.932,4.958 4.074,4.526 4.359,4.150 C4.643,3.773 5.055,3.485 5.592,3.284 C6.127,3.083 6.756,2.983 7.478,2.983 C8.054,2.983 8.553,3.050 8.976,3.183 C9.397,3.316 9.748,3.493 10.029,3.714 C10.308,3.936 10.513,4.168 10.643,4.413 C10.773,4.659 10.838,4.898 10.838,5.132 C10.838,5.350 10.754,5.547 10.590,5.720 C10.426,5.893 10.216,5.981 9.970,5.980 C9.749,5.980 9.576,5.929 9.455,5.821 C9.338,5.716 9.215,5.550 9.082,5.318 C8.914,4.994 8.712,4.743 8.478,4.562 C8.250,4.386 7.873,4.293 7.349,4.295 C6.864,4.295 6.477,4.394 6.184,4.588 C5.890,4.784 5.749,5.012 5.748,5.280 C5.749,5.447 5.797,5.589 5.894,5.710 C5.992,5.832 6.129,5.937 6.305,6.027 C6.482,6.117 6.661,6.187 6.841,6.238 C7.023,6.289 7.325,6.364 7.746,6.463 C8.273,6.576 8.751,6.704 9.180,6.842 C9.609,6.980 9.975,7.148 10.277,7.348 C10.582,7.547 10.820,7.801 10.990,8.108 C11.161,8.415 11.246,8.790 11.246,9.231 C11.247,9.763 11.099,10.241 10.804,10.664 Z"/>
</g>
</svg>