<?xml version="1.0"?>
<svg xmlns="http://www.w3.org/2000/svg" xmlns:xlink="http://www.w3.org/1999/xlink" version="1.1" id="Capa_1" x="0px" y="0px" viewBox="0 0 511.999 511.999" style="enable-background:new 0 0 511.999 511.999;" xml:space="preserve" width="512px" height="512px"><g><g>
	<g>
		<g>
			<path d="M492.595,158.146c-12.467-30.183-30.469-57.465-53.513-81.098c-21.745-22.245-47.056-40.164-75.223-53.259     C329.986,8.003,293.697,0,256,0c-36.732,0-72.186,7.614-105.374,22.63c-28.195,12.74-53.645,30.355-75.644,52.354     c-23.933,23.934-42.631,51.911-55.568,83.142C6.533,189.06,0,221.989,0,256c0,31.299,5.586,61.863,16.597,90.832     c11.484,30.35,28.461,57.915,50.458,81.928c21.379,23.374,46.607,42.378,74.961,56.473     c35.437,17.761,73.786,26.767,113.983,26.767s78.546-9.007,113.962-26.757c28.239-14.038,53.518-33.092,75.148-56.651     c21.889-23.986,38.809-51.493,50.288-81.75c11.016-28.979,16.601-59.543,16.601-90.843     C512,221.989,505.469,189.06,492.595,158.146z M496.78,248.454h-41.036c-0.778-21.109-4.825-41.651-12.065-61.244l37.78-16.191     C490.826,195.715,495.968,221.695,496.78,248.454z M475.685,157.075l-37.746,16.177c-8.505-18.727-19.745-35.838-33.503-51.009     l29.089-29.089C451.016,112.234,465.159,133.675,475.685,157.075z M422.984,82.354l-29.074,29.073     c-16.885-16.176-36.726-29.386-58.166-38.713L362.93,40.09C385.046,51.046,405.195,65.234,422.984,82.354z M263.546,15.216     c29.55,0.895,58.113,7.073,85.144,18.388L320.9,66.953c-18.544-6.379-37.783-9.964-57.354-10.699V15.216z M248.455,15.217v41.036     c-19.189,0.715-38.057,4.163-56.264,10.28l-23.441-35.16C194.179,21.467,220.908,16.054,248.455,15.217z M154.635,37.409     l23.087,34.63c-21.06,8.987-40.719,21.747-57.616,37.396L91.083,80.411C109.919,62.697,131.256,48.258,154.635,37.409z      M80.411,91.082l29.028,29.029c-14.713,15.89-26.582,33.716-35.383,53.139l-37.734-16.172     C47.297,132.71,62.09,110.566,80.411,91.082z M30.541,171.02l37.781,16.192c-7.242,19.603-11.287,40.141-12.065,61.244H15.221     C16.034,221.699,21.174,195.721,30.541,171.02z M15.222,263.546h41.03c0.687,18.55,3.909,36.737,9.608,54.248L28.043,334.06     C20.264,311.375,15.962,287.723,15.222,263.546z M73.899,413.751c-17.042-19.62-30.635-41.619-40.52-65.557l37.71-16.221     c8.869,21.499,21.599,41.561,37.3,58.784L73.899,413.751z M84.277,424.967l34.893-23.262     c15.259,14.345,32.46,26.062,51.286,34.925l-26.987,32.386C121.515,457.428,101.663,442.644,84.277,424.967z M248.455,496.79     c-31.848-0.957-62.383-7.997-91.025-20.953l27.525-33.03c20.232,7.794,41.537,12.129,63.5,12.937V496.79z M185.53,426.783     c-22.604-9.271-42.858-22.766-60.203-40.111c-18.939-18.94-33.799-42.212-42.971-67.304c-7.407-20.25-11.163-41.57-11.163-63.368     c0-24.289,4.634-47.831,13.788-70.007c9.217-22.623,22.794-43.037,40.345-60.666c18.766-18.767,41.744-33.518,66.444-42.658     c20.622-7.614,42.232-11.474,64.229-11.474c22.156,0,43.917,3.938,64.692,11.709c25.485,9.48,48.933,24.837,67.845,44.445     c16.54,16.929,29.489,36.664,38.495,58.678c9.141,22.142,13.775,45.685,13.775,69.974c0,21.798-3.755,43.118-11.158,63.359     c-8.078,22.003-20.047,41.977-35.595,59.392c-18.472,20.869-41.841,37.478-67.632,48.052     c-22.203,9.291-45.897,14.002-70.421,14.002C231.475,440.806,207.783,436.095,185.53,426.783z M263.546,496.789v-41.044     c21.978-0.809,43.293-5.146,63.502-12.936l27.525,33.029C325.942,488.79,295.401,495.833,263.546,496.789z M368.531,469.015     l-26.998-32.399c21.784-10.297,41.718-24.642,58.415-42.026l29.058,29.058C411.177,441.974,390.892,457.201,368.531,469.015z      M439.187,412.485l-29.169-29.168c12.844-15.468,23.204-32.681,30.897-51.343l37.702,16.217     C468.927,371.611,455.694,393.183,439.187,412.485z M483.958,334.06l-37.816-16.265c5.699-17.511,8.921-35.699,9.608-54.249     h41.03C496.039,287.722,491.738,311.373,483.958,334.06z" data-original="#000000" class="active-path" data-old_color="#000000" fill="#FF8D00"/>
			<path d="M119.282,256c0-75.387,61.331-136.718,136.718-136.718c30.549,0,59.44,9.853,83.548,28.494l9.232-11.938     C322.004,115.134,289.922,104.19,256,104.19c-83.708,0-151.81,68.101-151.81,151.81c0,54.02,29.082,104.404,75.898,131.491     l7.558-13.062C145.478,350.031,119.282,304.651,119.282,256z" data-original="#000000" class="active-path" data-old_color="#000000" fill="#FF8D00"/>
			<path d="M407.81,256.001c0-39.316-14.976-76.604-42.168-104.992l-10.898,10.438c24.488,25.567,37.975,59.147,37.975,94.553     c0,75.387-61.332,136.718-136.719,136.718c-15.639,0-30.971-2.618-45.574-7.78l-5.03,14.229     c16.222,5.735,33.248,8.643,50.604,8.643C339.708,407.811,407.81,339.71,407.81,256.001z" data-original="#000000" class="active-path" data-old_color="#000000" fill="#FF8D00"/>
			<path d="M231.487,312.102c0-5.98-1.67-11.576-4.569-16.349l31.464-31.464l29.992,26.993c-4.889,5.564-7.862,12.85-7.862,20.82     c0,17.418,14.171,31.589,31.589,31.589s31.589-14.171,31.589-31.589c0-17.418-14.171-31.589-31.589-31.589     c-3.878,0-7.594,0.706-11.03,1.991l0.048-0.054l-32.052-28.848l26.684-26.684c4.773,2.899,10.369,4.569,16.349,4.569     c17.418,0,31.589-14.171,31.589-31.589c0-17.418-14.171-31.589-31.589-31.589s-31.589,14.171-31.589,31.589     c0,5.98,1.67,11.577,4.569,16.349l-27.246,27.247l-30.698-27.628c2.759-4.689,4.349-10.144,4.349-15.968     c0-17.418-14.171-31.589-31.589-31.589s-31.589,14.171-31.589,31.589c0,17.418,14.171,31.589,31.589,31.589     c6.132,0,11.858-1.762,16.708-4.798l30.545,27.49l-30.903,30.903c-4.773-2.899-10.37-4.569-16.349-4.569     c-17.418,0-31.589,14.171-31.589,31.589s14.171,31.589,31.589,31.589S231.487,329.521,231.487,312.102z M312.104,295.605     c9.097,0,16.498,7.401,16.498,16.498c0,9.097-7.401,16.498-16.498,16.498s-16.498-7.401-16.498-16.498     C295.606,303.005,303.007,295.605,312.104,295.605z M312.103,183.4c9.097,0,16.498,7.401,16.498,16.498     s-7.401,16.498-16.498,16.498c-9.097,0-16.498-7.401-16.498-16.498S303.006,183.4,312.103,183.4z M199.898,216.395     c-9.097,0-16.498-7.401-16.498-16.498s7.401-16.498,16.498-16.498s16.498,7.401,16.498,16.498S208.995,216.395,199.898,216.395z      M199.898,328.601c-9.097,0-16.498-7.401-16.498-16.498s7.401-16.498,16.498-16.498s16.498,7.401,16.498,16.498     S208.995,328.601,199.898,328.601z" data-original="#000000" class="active-path" data-old_color="#000000" fill="#FF8D00"/>
			<rect x="143.801" y="248.453" width="16.029" height="15.091" data-original="#000000" class="active-path" data-old_color="#000000" fill="#FF8D00"/>
			<rect x="352.181" y="248.453" width="16.029" height="15.091" data-original="#000000" class="active-path" data-old_color="#000000" fill="#FF8D00"/>
			<rect x="247.991" y="352.644" width="16.03" height="15.091" data-original="#000000" class="active-path" data-old_color="#000000" fill="#FF8D00"/>
			<rect x="247.991" y="144.263" width="16.03" height="15.091" data-original="#000000" class="active-path" data-old_color="#000000" fill="#FF8D00"/>
		</g>
	</g>
</g></g> </svg>
