<?xml version="1.0"?>
<svg xmlns="http://www.w3.org/2000/svg" id="Layer_3" enable-background="new 0 0 64 64" height="512px" viewBox="0 0 64 64" width="512px"><g><g><path d="m62 27h-60c-.553 0-1 .447-1 1v34c0 .553.447 1 1 1h60c.553 0 1-.447 1-1v-34c0-.553-.447-1-1-1zm-1 34h-58v-32h58z" data-original="#000000" class="active-path" data-old_color="#000000" fill="#FF8D00"/><path d="m6 59h52c.553 0 1-.447 1-1v-26c0-.553-.447-1-1-1h-52c-.553 0-1 .447-1 1v26c0 .553.447 1 1 1zm19-2v-24h14v24zm32 0h-16v-24h16zm-50-24h16v24h-16z" data-original="#000000" class="active-path" data-old_color="#000000" fill="#FF8D00"/><path d="m20 37h-8c-.553 0-1 .447-1 1v4h2v-3h6v3.594c-2.583 2.731-4 6.288-4 10.063v.343h2v-.343c0-3.381 1.316-6.56 3.707-8.95.188-.187.293-.441.293-.707v-5c0-.553-.447-1-1-1z" data-original="#000000" class="active-path" data-old_color="#000000" fill="#FF8D00"/><path d="m36 37h-8c-.553 0-1 .447-1 1v4h2v-3h6v3.594c-2.583 2.731-4 6.288-4 10.063v.343h2v-.343c0-3.381 1.316-6.56 3.707-8.95.188-.187.293-.441.293-.707v-5c0-.553-.447-1-1-1z" data-original="#000000" class="active-path" data-old_color="#000000" fill="#FF8D00"/><path d="m45 42v-3h6v3.594c-2.583 2.731-4 6.288-4 10.063v.343h2v-.343c0-3.381 1.316-6.56 3.707-8.95.188-.187.293-.441.293-.707v-5c0-.553-.447-1-1-1h-8c-.553 0-1 .447-1 1v4z" data-original="#000000" class="active-path" data-old_color="#000000" fill="#FF8D00"/><path d="m20.445 10.832 5.414 3.609-1.829 7.316c-.102.406.061.833.407 1.068.347.237.803.23 1.144-.013l6.419-4.583 6.419 4.585c.174.124.377.186.581.186.196 0 .393-.058.562-.174.347-.235.509-.662.407-1.068l-1.829-7.316 5.414-3.609c.345-.229.513-.648.421-1.054-.092-.404-.424-.71-.834-.769l-6.516-.931-3.758-6.575c-.355-.623-1.381-.623-1.736 0l-3.758 6.575-6.515.931c-.41.059-.742.364-.834.769-.091.405.077.824.421 1.053zm7.697-.842c.306-.044.573-.227.727-.494l3.131-5.48 3.132 5.48c.153.268.421.45.727.494l4.409.63-3.822 2.548c-.352.234-.518.665-.415 1.074l1.341 5.365-4.79-3.421c-.175-.124-.378-.186-.582-.186s-.407.062-.581.187l-4.79 3.421 1.341-5.365c.103-.409-.063-.84-.415-1.074l-3.822-2.548z" data-original="#000000" class="active-path" data-old_color="#000000" fill="#FF8D00"/><path d="m4.914 18.436-.9 5.4c-.064.385.102.771.424.99.321.221.741.232 1.077.031l4.485-2.691 4.485 2.691c.16.096.337.143.515.143.197 0 .394-.058.562-.174.322-.219.488-.605.424-.99l-.9-5.4 3.514-2.636c.315-.236.463-.637.376-1.021-.088-.384-.393-.682-.779-.759l-4.521-.904-2.781-5.562c-.34-.678-1.449-.678-1.789 0l-2.781 5.562-4.521.904c-.387.077-.691.375-.779.759-.087.384.06.784.375 1.021zm2.282-3.456c.303-.061.561-.257.698-.533l2.106-4.211 2.105 4.211c.138.276.396.473.698.533l2.807.562-2.21 1.658c-.299.224-.448.596-.387.964l.644 3.864-3.143-1.886c-.158-.094-.336-.142-.514-.142s-.356.048-.515.143l-3.143 1.886.644-3.864c.062-.368-.088-.74-.387-.964l-2.21-1.658z" data-original="#000000" class="active-path" data-old_color="#000000" fill="#FF8D00"/><path d="m48.914 18.436-.9 5.4c-.064.385.102.771.424.99.321.221.741.232 1.077.031l4.485-2.691 4.485 2.691c.16.096.337.143.515.143.197 0 .394-.058.562-.174.322-.219.488-.605.424-.99l-.9-5.4 3.514-2.636c.315-.236.463-.637.376-1.021-.088-.384-.393-.682-.779-.759l-4.521-.904-2.781-5.562c-.34-.678-1.449-.678-1.789 0l-2.781 5.562-4.521.904c-.387.077-.691.375-.779.759-.087.385.061.785.376 1.021zm2.282-3.456c.303-.061.561-.257.698-.533l2.106-4.211 2.105 4.211c.138.276.396.473.698.533l2.807.562-2.21 1.658c-.299.224-.448.596-.387.964l.644 3.864-3.143-1.886c-.158-.094-.336-.142-.514-.142s-.356.048-.515.143l-3.143 1.886.644-3.864c.062-.368-.088-.74-.387-.964l-2.21-1.658z" data-original="#000000" class="active-path" data-old_color="#000000" fill="#FF8D00"/></g></g> </svg>
