<svg width="50" height="42" viewBox="0 0 50 42" fill="none" xmlns="http://www.w3.org/2000/svg">
<path fill-rule="evenodd" clip-rule="evenodd" d="M5.58508 21.2626C5.58508 32.5706 14.8728 41.7376 26.3298 41.7376C37.7867 41.7376 47.0744 32.5706 47.0744 21.2626C47.0744 9.95457 37.7867 0.787598 26.3298 0.787598C14.8728 0.787598 5.58508 9.95457 5.58508 21.2626ZM43.351 21.2626C43.351 30.541 35.7304 38.0626 26.3298 38.0626C16.9292 38.0626 9.30849 30.541 9.30849 21.2626C9.30849 11.9842 16.9292 4.4626 26.3298 4.4626C35.7304 4.4626 43.351 11.9842 43.351 21.2626Z" fill="#D8E7FF"/>
<path d="M26.0638 13.65H27.1277C27.1277 13.65 27.3099 16.9906 27.5822 18.6107C27.8544 20.2309 28.4626 20.0348 28.3564 20.9615C28.3299 21.1923 31.3111 23.8665 33.3229 26.7838C33.7162 27.3543 32.6314 27.5489 32.6314 27.5489L27.1277 22.575H26.0638C26.0638 22.575 24.7831 21.7346 24.7831 20.8549C24.7831 20.6477 25 20.2372 25.7262 18.6107C26.0345 17.9203 26.0638 13.65 26.0638 13.65Z" fill="#D8E7FF"/>
<path fill-rule="evenodd" clip-rule="evenodd" d="M26.1042 1.07792C14.8782 1.07792 5.74573 10.0938 5.74573 21.176C5.74573 32.2535 14.8782 41.2651 26.1042 41.2651C37.3298 41.2651 46.4627 32.2535 46.4627 21.176C46.4627 10.0938 37.3298 1.07792 26.1042 1.07792ZM26.1043 41.9476C14.4968 41.9476 5.05426 32.6294 5.05426 21.176C5.05426 9.71732 14.4968 0.394897 26.1043 0.394897C37.7112 0.394897 47.1537 9.71732 47.1537 21.176C47.1537 32.6294 37.7112 41.9476 26.1043 41.9476Z" fill="#4C71DD"/>
<path fill-rule="evenodd" clip-rule="evenodd" d="M25.1644 37.5023C25.1686 37.5023 25.1729 37.5023 25.1772 37.5023C25.4883 37.5181 25.7889 37.5354 26.117 37.5265C26.2282 37.5265 26.3442 37.5265 26.4601 37.5223C26.6506 37.5175 26.8405 37.5112 27.0266 37.5023C27.0702 37.5007 27.1139 37.5055 27.1543 37.5202C31.1479 37.2718 34.9133 35.605 37.7702 32.8172L37.808 32.7799C37.816 32.771 37.8601 32.728 37.8692 32.7201C37.8857 32.707 37.9022 32.6917 37.9155 32.6755C40.758 29.8315 42.4442 26.1093 42.6899 22.1644C42.6793 22.1303 42.674 22.0957 42.6761 22.0605C42.691 21.7665 42.6958 21.4699 42.6958 21.1759C42.6958 20.842 42.6857 20.539 42.6708 20.2356C42.6686 20.192 42.675 20.149 42.6889 20.1091C42.0405 9.62324 33.658 4.84522 26.1139 4.84522C18.5601 4.84522 10.167 9.63689 9.54258 20.1532C9.55428 20.1878 9.56013 20.224 9.558 20.2613C9.54258 20.5548 9.53832 20.8477 9.53832 21.1454C9.53832 21.452 9.54258 21.7528 9.56332 22.0542C9.56704 22.1014 9.56013 22.1476 9.5447 22.1912C10.0569 30.4489 16.699 37.0072 25.0617 37.5207C25.0947 37.5086 25.1293 37.5023 25.1644 37.5023ZM27.0436 38.2095C27.0037 38.2095 26.9649 38.2032 26.9282 38.1895C26.7798 38.1964 26.6293 38.2006 26.483 38.2042C26.0771 38.2216 25.6633 38.2074 25.2612 38.1895C25.2224 38.2037 25.1793 38.2084 25.141 38.209C16.3325 37.7286 9.32715 30.8122 8.84736 22.1214C8.8447 22.0762 8.85162 22.0285 8.86598 21.9833C8.85055 21.7061 8.84683 21.4279 8.84683 21.1454C8.84683 20.8745 8.85055 20.6068 8.86226 20.339C8.85215 20.3091 8.84683 20.2771 8.84683 20.244C9.45587 9.18119 18.2245 4.16272 26.1138 4.16272C33.9841 4.16272 42.7303 9.15599 43.3819 20.1154C43.3926 20.1484 43.3979 20.1826 43.3979 20.2188C43.3979 20.2676 43.3873 20.3138 43.3686 20.3563C43.3803 20.6194 43.3873 20.8824 43.3873 21.1454C43.3873 21.442 43.3835 21.7171 43.3718 21.988C43.3835 22.0227 43.3889 22.06 43.3867 22.0967C43.1553 26.2468 41.3936 30.167 38.4261 33.1348C38.4069 33.159 38.3601 33.2052 38.3128 33.244L38.2968 33.2619C38.2952 33.264 38.258 33.3007 38.2564 33.3023C35.2484 36.2376 31.2729 37.9806 27.0623 38.209C27.0564 38.209 27.05 38.2095 27.0436 38.2095Z" fill="#4C71DD"/>
<path fill-rule="evenodd" clip-rule="evenodd" d="M27.492 22.3231C27.5814 22.3231 27.6702 22.3577 27.7362 22.4228L32.5405 27.1646C32.6208 27.2444 32.6708 27.2659 32.7761 27.2659C32.8782 27.2659 32.9335 27.2423 33.0117 27.1651C33.0809 27.0964 33.1176 27.0166 33.1176 26.9331C33.1176 26.8496 33.0809 26.7688 33.0117 26.7L28.2069 21.9582C28.1027 21.8553 28.0761 21.6994 28.1399 21.5686C28.2527 21.3387 28.3096 21.0925 28.3096 20.8363C28.3096 20.1181 27.8511 19.476 27.1681 19.2387C27.0298 19.1904 26.9378 19.0612 26.9378 18.9163V14.0606C26.9378 13.8364 26.8218 13.7236 26.5947 13.7236C26.374 13.7236 26.2569 13.8396 26.2569 14.0606V18.9163C26.2569 19.0618 26.1639 19.1909 26.0256 19.2387C25.3436 19.4744 24.8851 20.1165 24.8851 20.8363C24.8851 21.7671 25.6522 22.5236 26.5947 22.5236C26.8575 22.5236 27.1085 22.468 27.3415 22.3567C27.3894 22.3341 27.441 22.3231 27.492 22.3231ZM32.7761 27.9484C32.4852 27.9484 32.2612 27.8555 32.0511 27.6471L27.4112 23.0675C27.1511 23.1594 26.8772 23.2066 26.5947 23.2066C25.2708 23.2066 24.1937 22.1435 24.1937 20.8363C24.1937 19.9107 24.7357 19.0759 25.5655 18.6885V14.0606C25.5655 13.4605 25.9883 13.0405 26.5947 13.0405C27.2038 13.0405 27.6288 13.4605 27.6288 14.0606V18.689C28.4591 19.078 29.0011 19.9128 29.0011 20.8363C29.0011 21.1129 28.9538 21.3812 28.8602 21.6374L33.5006 26.2175C33.6995 26.4144 33.8091 26.6685 33.8091 26.9331C33.8091 27.1977 33.6995 27.4512 33.5006 27.6476C33.2931 27.8529 33.0628 27.9484 32.7761 27.9484Z" fill="#4C71DD"/>
<path fill-rule="evenodd" clip-rule="evenodd" d="M26.1106 7.51804C25.3463 7.51174 24.8192 6.98411 24.8192 6.23494V4.41266C24.8192 4.22419 24.9739 4.07141 25.1649 4.07141C25.3559 4.07141 25.5106 4.22419 25.5106 4.41266V6.23494C25.5106 6.60821 25.7335 6.83291 26.1074 6.83606C26.4787 6.82871 26.6979 6.60979 26.6979 6.23494V4.41266C26.6979 4.22419 26.8527 4.07141 27.0436 4.07141C27.2346 4.07141 27.3894 4.22419 27.3894 4.41266V6.23494C27.3894 6.97624 26.8633 7.50386 26.1106 7.51804Z" fill="#4C71DD"/>
<path fill-rule="evenodd" clip-rule="evenodd" d="M36.8084 11.8997C36.4904 11.8997 36.1717 11.7722 35.9047 11.5165C35.3717 10.982 35.3744 10.2428 35.9047 9.71258L37.2159 8.41898C37.351 8.28563 37.5701 8.28563 37.7047 8.41898C37.8398 8.55233 37.8398 8.76863 37.7047 8.90198L36.3951 10.194C36.1329 10.456 36.1308 10.7705 36.392 11.0319C36.6531 11.2823 36.9712 11.2792 37.2372 11.0188L38.5467 9.73096C38.6824 9.59708 38.901 9.59866 39.0356 9.73148C39.1707 9.86536 39.1701 10.0811 39.035 10.214L37.7255 11.5018C37.4563 11.7669 37.1324 11.8997 36.8084 11.8997Z" fill="#4C71DD"/>
<path fill-rule="evenodd" clip-rule="evenodd" d="M43.1096 22.4396H41.2628C40.5112 22.4396 39.9767 21.9204 39.9628 21.1775C39.9767 20.4252 40.5112 19.9081 41.2628 19.9081H43.1155C43.3064 19.9081 43.4612 20.0609 43.4612 20.2493C43.4612 20.4383 43.3064 20.5911 43.1155 20.5911H41.2628C40.883 20.5911 40.6612 20.8048 40.6543 21.1775C40.6612 21.5361 40.8889 21.7566 41.2628 21.7566H43.1096C43.3006 21.7566 43.4554 21.9094 43.4554 22.0984C43.4554 22.2869 43.3006 22.4396 43.1096 22.4396Z" fill="#4C71DD"/>
<path fill-rule="evenodd" clip-rule="evenodd" d="M37.4814 34.0342C37.3925 34.0342 37.3042 34.0012 37.2367 33.9345L35.9276 32.6419C35.3883 32.1164 35.3824 31.3762 35.9149 30.8433C36.1782 30.5871 36.5244 30.438 36.834 30.4511C37.1638 30.4537 37.4867 30.5965 37.7431 30.8538L39.0505 32.1437C39.1856 32.2765 39.1856 32.4934 39.0505 32.6267C38.9154 32.7595 38.6968 32.7595 38.5617 32.6267L37.2526 31.3347C37.1218 31.204 36.9755 31.1347 36.8282 31.1336C36.6601 31.1221 36.534 31.1982 36.4037 31.3258C36.1446 31.5851 36.1478 31.8975 36.4149 32.1574L37.7255 33.4515C37.8606 33.5848 37.8606 33.8011 37.7255 33.9345C37.6579 34.0012 37.5696 34.0342 37.4814 34.0342Z" fill="#4C71DD"/>
<path fill-rule="evenodd" clip-rule="evenodd" d="M27.0691 38.3024C26.8782 38.3024 26.7234 38.1497 26.7234 37.9612V36.1326C26.7234 35.7635 26.5 35.5409 26.1261 35.5367C25.7601 35.5409 25.5367 35.7635 25.5367 36.1326V37.9612C25.5367 38.1497 25.3819 38.3024 25.191 38.3024C25 38.3024 24.8452 38.1497 24.8452 37.9612V36.1326C24.8452 35.3882 25.3718 34.8626 26.1261 34.8542C26.8878 34.8621 27.4149 35.3882 27.4149 36.1326V37.9612C27.4149 38.1497 27.2601 38.3024 27.0691 38.3024Z" fill="#4C71DD"/>
<path fill-rule="evenodd" clip-rule="evenodd" d="M14.7692 34.0547C14.6804 34.0547 14.5921 34.0216 14.5245 33.955C14.3894 33.8216 14.3894 33.6053 14.5245 33.472L15.833 32.1794C16.1006 31.9164 16.1038 31.6045 15.8426 31.3441C15.5814 31.09 15.2644 31.0927 14.9963 31.3557L13.6873 32.6425C13.5522 32.7753 13.333 32.7742 13.1984 32.6414C13.0639 32.5075 13.0644 32.2918 13.1995 32.1584L14.5085 30.8716C15.0468 30.343 15.7968 30.3388 16.332 30.8617C16.8649 31.393 16.8601 32.1322 16.3218 32.6624L15.0139 33.955C14.9463 34.0216 14.8575 34.0547 14.7692 34.0547Z" fill="#4C71DD"/>
<path fill-rule="evenodd" clip-rule="evenodd" d="M10.9708 22.4648H9.11918C8.92822 22.4648 8.77344 22.3121 8.77344 22.1236C8.77344 21.9346 8.92822 21.7818 9.11918 21.7818H10.9708C11.3458 21.7818 11.5713 21.5618 11.575 21.1933C11.5713 20.8295 11.3511 20.6174 10.9708 20.6174H9.11918C8.92822 20.6174 8.77344 20.4641 8.77344 20.2756C8.77344 20.0871 8.92822 19.9343 9.11918 19.9343H10.9708C11.7261 19.9343 12.2591 20.452 12.2665 21.1933C12.2591 21.9446 11.7261 22.4648 10.9708 22.4648Z" fill="#4C71DD"/>
<path fill-rule="evenodd" clip-rule="evenodd" d="M15.4021 11.9196C15.0792 11.9196 14.7569 11.7868 14.4883 11.5222L13.1777 10.2296C13.0431 10.0963 13.0431 9.87998 13.1777 9.74663C13.3122 9.6138 13.5314 9.6138 13.6665 9.74663L14.9766 11.0392C15.2415 11.3001 15.5585 11.3012 15.8245 11.0423C15.8335 11.0339 15.8431 11.0255 15.8527 11.0177C16.0846 10.7609 16.0734 10.4633 15.8191 10.2149L14.508 8.92238C14.3729 8.78903 14.3729 8.57325 14.508 8.4399C14.6425 8.3055 14.8617 8.30603 14.9968 8.43938L16.3069 9.73088C16.8409 10.2527 16.8468 10.9904 16.3207 11.5232C16.3058 11.5385 16.2899 11.5521 16.2729 11.5637C16.0128 11.801 15.7074 11.9196 15.4021 11.9196Z" fill="#4C71DD"/>
<path fill-rule="evenodd" clip-rule="evenodd" d="M23.8586 8.61445L26.3733 11.1846L27.1983 7.91485L23.8586 8.61445ZM26.0891 10.1385L24.908 8.9314L26.4765 8.60282L26.0891 10.1385Z" fill="#4C71DD"/>
<path fill-rule="evenodd" clip-rule="evenodd" d="M5.79974 1.8811L7.77673 4.88247L9.21075 1.83077L5.79974 1.8811ZM7.69712 3.80212L6.76859 2.39247L8.37064 2.36883L7.69712 3.80212Z" fill="#4C71DD"/>
<path fill-rule="evenodd" clip-rule="evenodd" d="M0.05434 25.8525L1.21212 30.4046L3.91201 27.3272L0.05434 25.8525ZM1.47682 29.2992L0.817584 26.7073L3.0141 27.547L1.47682 29.2992Z" fill="#4C71DD"/>
<path fill-rule="evenodd" clip-rule="evenodd" d="M45.7722 32.0422L46.6555 35.5149L49.0156 33.0938L45.7722 32.0422ZM46.9354 34.4688L46.5205 32.8378L48.0438 33.3317L46.9354 34.4688Z" fill="#4C71DD"/>
<path fill-rule="evenodd" clip-rule="evenodd" d="M47.3413 9.85773L46.9022 12.9124L49.4355 11.703L47.3413 9.85773ZM47.5672 12.0117L47.7267 10.9022L48.4873 11.5724L47.5672 12.0117Z" fill="#4C71DD"/>
<path fill-rule="evenodd" clip-rule="evenodd" d="M33.4757 28.2272L34.9951 30.9273L36.277 28.4625L33.4757 28.2272ZM34.9746 29.8148L34.4228 28.8341L35.4402 28.9196L34.9746 29.8148Z" fill="#4C71DD"/>
</svg>
