<svg width="49" height="40" viewBox="0 0 49 40" fill="none" xmlns="http://www.w3.org/2000/svg">
<rect x="5.08508" y="4.10254" width="39.8298" height="2.5641" fill="#D8E7FF"/>
<path fill-rule="evenodd" clip-rule="evenodd" d="M8.40066 26.5877H41.6616V7.30256H8.40066V26.5877ZM41.9935 27.2544H8.06875C7.88492 27.2544 7.73633 27.1051 7.73633 26.921V6.96922C7.73633 6.78461 7.88492 6.63538 8.06875 6.63538H41.9935C42.1774 6.63538 42.3259 6.78461 42.3259 6.96922V26.921C42.3259 27.1051 42.1774 27.2544 41.9935 27.2544Z" fill="#4C71DD"/>
<path fill-rule="evenodd" clip-rule="evenodd" d="M5.49514 6.63532H44.5636V4.43122H5.49514V6.63532ZM44.8955 7.3025H5.16273C4.97941 7.3025 4.83081 7.15327 4.83081 6.96917V4.09737C4.83081 3.91327 4.97941 3.76404 5.16273 3.76404H44.8955C45.0788 3.76404 45.2274 3.91327 45.2274 4.09737V6.96917C45.2274 7.15327 45.0788 7.3025 44.8955 7.3025Z" fill="#4C71DD"/>
<rect x="31.6383" y="11.7948" width="2.55319" height="11.7949" fill="#D8E7FF"/>
<rect x="27.5531" y="13.3333" width="2.55319" height="10.2564" fill="#D8E7FF"/>
<rect x="23.9786" y="14.8717" width="2.04255" height="8.71795" fill="#D8E7FF"/>
<rect x="19.8936" y="16.923" width="2.04255" height="6.66667" fill="#D8E7FF"/>
<rect x="16.3191" y="18.9742" width="2.04255" height="4.61539" fill="#D8E7FF"/>
<path fill-rule="evenodd" clip-rule="evenodd" d="M31.9686 23.5276H33.6869V12.0451H31.9686V23.5276ZM34.0189 24.1948H31.6367C31.4534 24.1948 31.3048 24.0456 31.3048 23.861V11.7118C31.3048 11.5276 31.4534 11.3784 31.6367 11.3784H34.0189C34.2022 11.3784 34.3513 11.5276 34.3513 11.7118V23.861C34.3513 24.0456 34.2022 24.1948 34.0189 24.1948Z" fill="#4C71DD"/>
<path fill-rule="evenodd" clip-rule="evenodd" d="M28.0705 23.5276H29.7877V13.5491H28.0705V23.5276ZM30.1197 24.1948H27.738C27.5547 24.1948 27.4061 24.0455 27.4061 23.8609V13.2158C27.4061 13.0312 27.5547 12.882 27.738 12.882H30.1197C30.3035 12.882 30.4521 13.0312 30.4521 13.2158V23.8609C30.4521 24.0455 30.3035 24.1948 30.1197 24.1948Z" fill="#4C71DD"/>
<path fill-rule="evenodd" clip-rule="evenodd" d="M24.1731 23.5276H25.8904V15.0153H24.1731V23.5276ZM26.2228 24.1948H23.8407C23.6574 24.1948 23.5088 24.0456 23.5088 23.861V14.682C23.5088 14.4979 23.6574 14.3481 23.8407 14.3481H26.2228C26.4062 14.3481 26.5547 14.4979 26.5547 14.682V23.861C26.5547 24.0456 26.4062 24.1948 26.2228 24.1948Z" fill="#4C71DD"/>
<path fill-rule="evenodd" clip-rule="evenodd" d="M20.2739 23.5277H21.9917V17.0554H20.2739V23.5277ZM22.3242 24.1949H19.942C19.7582 24.1949 19.6096 24.0456 19.6096 23.861V16.7215C19.6096 16.5374 19.7582 16.3882 19.942 16.3882H22.3242C22.5075 16.3882 22.6561 16.5374 22.6561 16.7215V23.861C22.6561 24.0456 22.5075 24.1949 22.3242 24.1949Z" fill="#4C71DD"/>
<path fill-rule="evenodd" clip-rule="evenodd" d="M16.3752 23.5277H18.093V19.1795H16.3752V23.5277ZM18.425 24.1949H16.0433C15.86 24.1949 15.7114 24.0456 15.7114 23.861V18.8462C15.7114 18.662 15.86 18.5128 16.0433 18.5128H18.425C18.6083 18.5128 18.7569 18.662 18.7569 18.8462V23.861C18.7569 24.0456 18.6083 24.1949 18.425 24.1949Z" fill="#4C71DD"/>
<path fill-rule="evenodd" clip-rule="evenodd" d="M35.6382 25.6753H14.4242C14.2409 25.6753 14.0923 25.5261 14.0923 25.342C14.0923 25.1579 14.2409 25.0087 14.4242 25.0087H35.6382C35.8215 25.0087 35.9701 25.1579 35.9701 25.342C35.9701 25.5261 35.8215 25.6753 35.6382 25.6753Z" fill="#4C71DD"/>
<path fill-rule="evenodd" clip-rule="evenodd" d="M16.049 17.0599C15.9126 17.0599 15.785 16.9753 15.7364 16.8389C15.6741 16.6661 15.764 16.4748 15.9366 16.4128C16.0255 16.3799 24.8998 13.1358 28.7919 8.58506C28.9119 8.44558 29.1208 8.42968 29.2602 8.54968C29.3991 8.66968 29.4149 8.87994 29.2954 9.01994C25.2884 13.7046 16.532 16.9061 16.1608 17.0399C16.124 17.0533 16.0862 17.0599 16.049 17.0599Z" fill="#4C71DD"/>
<path fill-rule="evenodd" clip-rule="evenodd" d="M24.0747 3.76404H25.9891V2.06763C25.9891 1.53635 25.5581 1.10404 25.0286 1.10404C24.5021 1.10404 24.0747 1.53635 24.0747 2.06763V3.76404ZM26.321 4.43122H23.7423C23.559 4.43122 23.4104 4.28199 23.4104 4.09738V2.06763C23.4104 1.16866 24.1365 0.437378 25.0286 0.437378C25.9243 0.437378 26.653 1.16866 26.653 2.06763V4.09738C26.653 4.28199 26.5044 4.43122 26.321 4.43122Z" fill="#4C71DD"/>
<path d="M24.8715 31.2361C25.6139 31.2361 26.353 31.4493 26.4442 31.2361C26.4743 31.1659 26.4442 30.9985 26.4442 30.8581C26.4442 30.2917 25.2211 29.7435 24.234 29.7435C23.247 29.7435 23.1382 30.0234 22.655 30.568C22.5001 30.7425 22.3967 31.7261 22.655 31.7948C23.1561 31.9281 24.2201 31.2361 24.8715 31.2361Z" fill="#D8E7FF"/>
<path d="M14.0972 31.2361C14.8396 31.2361 15.5787 31.4493 15.6699 31.2361C15.7 31.1659 15.6699 30.9985 15.6699 30.8581C15.6699 30.2917 14.4468 29.7435 13.4597 29.7435C12.4727 29.7435 12.3639 30.0234 11.8807 30.568C11.7258 30.7425 11.6224 31.7261 11.8807 31.7948C12.3818 31.9281 13.4458 31.2361 14.0972 31.2361Z" fill="#D8E7FF"/>
<path d="M36.5652 31.2361C37.3076 31.2361 38.0467 31.4493 38.1379 31.2361C38.168 31.1659 38.1379 30.9985 38.1379 30.8581C38.1379 30.2917 36.9148 29.7435 35.9278 29.7435C34.9407 29.7435 34.832 30.0234 34.3487 30.568C34.1938 30.7425 34.0904 31.7261 34.3487 31.7948C34.8498 31.9281 35.9138 31.2361 36.5652 31.2361Z" fill="#D8E7FF"/>
<path fill-rule="evenodd" clip-rule="evenodd" d="M11.6539 31.5604C12.4245 31.7086 13.1777 31.4004 13.6342 30.7861C13.6883 30.7138 13.769 30.6661 13.8584 30.6548C13.9472 30.642 14.0381 30.6697 14.1081 30.7261C14.4768 31.0235 14.9542 31.1763 15.4061 31.1748C15.0793 30.5035 14.3935 30.041 13.601 30.041C12.6645 30.041 11.8756 30.6881 11.6539 31.5604ZM11.5998 32.2276C11.6861 33.2579 12.5506 34.0697 13.601 34.0697C14.7086 34.0697 15.6088 33.1671 15.6088 32.0579C15.6088 31.981 15.6052 31.9061 15.5966 31.8312C15.0083 31.8845 14.444 31.7384 13.9569 31.4343C13.36 32.0661 12.4883 32.3748 11.5998 32.2276ZM13.6011 34.7363C12.1274 34.7363 10.9284 33.5348 10.9284 32.0579C10.9284 30.5779 12.1274 29.3738 13.6011 29.3738C15.0748 29.3738 16.2732 30.5779 16.2732 32.0579C16.2732 33.5348 15.0748 34.7363 13.6011 34.7363ZM22.5822 31.5599C23.3497 31.7102 24.1161 31.3922 24.567 30.7861C24.6211 30.7138 24.7018 30.6661 24.7917 30.6548C24.877 30.642 24.9709 30.6697 25.0409 30.7261C25.4126 31.0266 25.8426 31.1748 26.3338 31.1748C26.0075 30.5035 25.3207 30.041 24.5282 30.041C23.5917 30.041 22.8028 30.6876 22.5822 31.5599ZM22.527 32.2276C22.6133 33.2579 23.4783 34.0697 24.5282 34.0697C25.6357 34.0697 26.5365 33.1671 26.5365 32.0579C26.5365 31.9815 26.5324 31.9061 26.5237 31.8317C25.9452 31.883 25.3743 31.7379 24.8892 31.4338C24.2907 32.0604 23.4063 32.3753 22.527 32.2276ZM24.5282 34.7363C23.0545 34.7363 21.856 33.5348 21.856 32.0579C21.856 30.5779 23.0545 29.3738 24.5282 29.3738C25.7511 29.3738 26.7847 30.203 27.1007 31.3312C27.1084 31.3502 27.1145 31.3697 27.1181 31.3902C27.1196 31.3974 27.1212 31.404 27.1222 31.4117C27.1733 31.6184 27.2008 31.8348 27.2008 32.0579C27.2008 33.5348 26.0019 34.7363 24.5282 34.7363ZM34.3891 31.5604C35.1484 31.7071 35.9113 31.402 36.3694 30.7861C36.423 30.7138 36.5037 30.6661 36.593 30.6548C36.6819 30.642 36.7733 30.6697 36.8427 30.7261C37.2114 31.0235 37.6914 31.1763 38.1408 31.1748C37.8145 30.5035 37.1282 30.041 36.3357 30.041C35.3992 30.041 34.6102 30.6881 34.3891 31.5604ZM34.3344 32.2281C34.4207 33.2584 35.2858 34.0697 36.3356 34.0697C37.4432 34.0697 38.344 33.1671 38.344 32.0579C38.344 31.981 38.3399 31.9061 38.3312 31.8312C37.743 31.8845 37.1792 31.7384 36.6916 31.4343C36.0941 32.0671 35.2122 32.3743 34.3344 32.2281ZM36.3356 34.7363C34.8619 34.7363 33.6634 33.5348 33.6634 32.0579C33.6634 30.5779 34.8619 29.3738 36.3356 29.3738C37.8093 29.3738 39.0083 30.5779 39.0083 32.0579C39.0083 33.5348 37.8093 34.7363 36.3356 34.7363ZM17.9573 39.8779C17.774 39.8779 17.6254 39.7286 17.6254 39.544V38.0076C17.6254 36.8102 16.6557 35.8363 15.4638 35.8363H11.8633C10.6715 35.8363 9.7023 36.8102 9.7023 38.0076V39.544C9.7023 39.7286 9.55371 39.8779 9.37039 39.8779C9.18656 39.8779 9.03796 39.7286 9.03796 39.544V38.0076C9.03796 36.4425 10.3059 35.1692 11.8633 35.1692H15.4638C17.0218 35.1692 18.2892 36.4425 18.2892 38.0076V39.544C18.2892 39.7286 18.1406 39.8779 17.9573 39.8779ZM28.8845 39.8779C28.7012 39.8779 28.5526 39.7286 28.5526 39.544V38.0076C28.5526 36.8102 27.5834 35.8363 26.3915 35.8363H22.7921C21.5997 35.8363 20.6295 36.8102 20.6295 38.0076V39.544C20.6295 39.7286 20.4809 39.8779 20.2976 39.8779C20.1143 39.8779 19.9657 39.7286 19.9657 39.544V38.0076C19.9657 36.4425 21.2336 35.1692 22.7921 35.1692H26.3915C27.949 35.1692 29.2169 36.4425 29.2169 38.0076V39.544C29.2169 39.7286 29.0683 39.8779 28.8845 39.8779ZM40.692 39.8779C40.5086 39.8779 40.36 39.7286 40.36 39.544V38.0076C40.36 36.8102 39.3908 35.8363 38.199 35.8363H34.5995C33.4072 35.8363 32.437 36.8102 32.437 38.0076V39.544C32.437 39.7286 32.2884 39.8779 32.1051 39.8779C31.9217 39.8779 31.7731 39.7286 31.7731 39.544V38.0076C31.7731 36.4425 33.0411 35.1692 34.5995 35.1692H38.199C39.7565 35.1692 41.0244 36.4425 41.0244 38.0076V39.544C41.0244 39.7286 40.8758 39.8779 40.692 39.8779Z" fill="#4C71DD"/>
<path fill-rule="evenodd" clip-rule="evenodd" d="M2.45739 28.4151L4.87082 30.925L5.66375 27.7308L2.45739 28.4151ZM4.59827 29.9032L3.46475 28.7244L4.97069 28.4029L4.59827 29.9032Z" fill="#4C71DD"/>
<path fill-rule="evenodd" clip-rule="evenodd" d="M0.5324 9.84533L1.42182 13.7235L4.19984 11.0354L0.5324 9.84533ZM1.71773 12.7256L1.23286 10.6114L3.2322 11.2602L1.71773 12.7256Z" fill="#4C71DD"/>
<path fill-rule="evenodd" clip-rule="evenodd" d="M44.8656 22.3572L46.7562 25.2819L48.1439 22.2975L44.8656 22.3572ZM46.6836 24.2266L45.7957 22.853L47.3354 22.8249L46.6836 24.2266Z" fill="#4C71DD"/>
<path fill-rule="evenodd" clip-rule="evenodd" d="M41.8175 30.6562L43.2684 33.2866L44.5106 30.8754L41.8175 30.6562ZM43.2537 32.1999L42.7267 31.2445L43.7048 31.3242L43.2537 32.1999Z" fill="#4C71DD"/>
</svg>
