<svg width="28" height="51" viewBox="0 0 28 51" fill="none" xmlns="http://www.w3.org/2000/svg">
<path fill-rule="evenodd" clip-rule="evenodd" d="M8.73554 24.3871H21.9643V15.0339C21.9643 10.614 20.2652 6.17741 17.1795 2.54085L16.1978 1.53225C16.167 1.50591 16.1168 1.46236 16.0641 1.42204C15.6283 1.05591 14.9423 1.06774 14.5341 1.41075C14.473 1.45967 14.4197 1.50322 14.3715 1.54784L13.5223 2.54247C10.3909 6.22956 8.73554 10.5828 8.73554 15.1296V24.3871ZM22.3827 25.0865H8.31767C8.08624 25.0865 7.89917 24.9301 7.89917 24.7371V15.1296C7.89917 10.4371 9.60917 5.94408 12.8421 2.13655L13.7235 1.10806C13.8173 1.01935 13.8842 0.962896 13.9504 0.910746C14.655 0.317197 15.9188 0.309133 16.6427 0.918272C16.698 0.960208 16.7642 1.01666 16.8278 1.07365L17.8442 2.11773C21.0462 5.89032 22.8006 10.471 22.8006 15.0339V24.7371C22.8006 24.9301 22.6135 25.0865 22.3827 25.0865Z" fill="#4C71DD"/>
<path d="M4.9583 23.7963L8.23208 21.2018V26.6253L4.79236 26.5495L4.9583 23.7963Z" fill="#D8E7FF"/>
<path d="M25.6488 23.5623L22.375 20.9678V26.3913L25.8148 26.3155L25.6488 23.5623Z" fill="#D8E7FF"/>
<path fill-rule="evenodd" clip-rule="evenodd" d="M22.8005 26.3479H25.4819V23.9011L22.8005 21.6608V26.3479ZM25.8997 27.0474H22.3827C22.1512 27.0474 21.9642 26.8909 21.9642 26.6974V20.8183C21.9642 20.6769 22.0664 20.5495 22.2226 20.4952C22.3769 20.4415 22.5582 20.471 22.6777 20.571L26.1948 23.5092C26.2732 23.5748 26.3182 23.6635 26.3182 23.7565V26.6974C26.3182 26.8909 26.1312 27.0474 25.8997 27.0474Z" fill="#4C71DD"/>
<path fill-rule="evenodd" clip-rule="evenodd" d="M11.0948 31.249H19.5991C19.5445 30.8054 19.3876 30.3592 19.1363 29.942L18.6014 29.006H12.0989L11.5673 29.9361C11.305 30.3006 11.1455 30.7522 11.0948 31.249ZM20.0511 31.9485C20.0478 31.949 20.0433 31.9485 20.0382 31.9485H10.6596C10.4288 31.9485 10.2417 31.792 10.2417 31.5985C10.2417 30.8275 10.4461 30.1382 10.8331 29.6038L11.458 28.506C11.5274 28.3845 11.674 28.3065 11.8347 28.3065H18.865C19.0257 28.3065 19.1729 28.3845 19.2423 28.506L19.8871 29.6345C20.2413 30.2243 20.4381 30.8721 20.4554 31.5081C20.4638 31.5372 20.4689 31.5678 20.4689 31.5985C20.4689 31.792 20.2818 31.9485 20.0511 31.9485Z" fill="#4C71DD"/>
<path fill-rule="evenodd" clip-rule="evenodd" d="M5.22297 26.3479H7.89919V21.6619L5.22297 23.9011V26.3479ZM8.31764 27.0474H4.80506C4.57428 27.0474 4.38721 26.8909 4.38721 26.6974V23.7565C4.38721 23.6635 4.43156 23.5748 4.50935 23.5092L8.02192 20.571C8.14214 20.471 8.32085 20.4415 8.47771 20.4952C8.63328 20.5495 8.73549 20.6769 8.73549 20.8183V26.6974C8.73549 26.8909 8.54842 27.0474 8.31764 27.0474Z" fill="#4C71DD"/>
<path d="M15.3035 18.8173C17.0787 18.8173 18.5178 17.4934 18.5178 15.8603C18.5178 14.2272 17.0787 12.9033 15.3035 12.9033C13.5283 12.9033 12.0892 14.2272 12.0892 15.8603C12.0892 17.4934 13.5283 18.8173 15.3035 18.8173Z" stroke="#D8E7FF" stroke-width="2"/>
<path fill-rule="evenodd" clip-rule="evenodd" d="M15.3499 14.17C14.8099 14.17 14.2911 14.3555 13.8881 14.6915C13.485 15.0275 13.2619 15.4614 13.2613 15.9125C13.2606 16.3646 13.4837 16.8012 13.8887 17.1404C14.6929 17.8114 16.0056 17.8119 16.8099 17.1399C17.2155 16.8012 17.4373 16.3646 17.4366 15.9125C17.436 15.4614 17.2142 15.0275 16.8105 14.692C16.4081 14.3555 15.8893 14.17 15.3499 14.17ZM15.3499 18.3598C14.5868 18.3598 13.8584 18.1023 13.2979 17.6345C12.7347 17.163 12.4249 16.5506 12.4255 15.9114C12.4268 15.2732 12.7367 14.6641 13.2979 14.1963C13.8584 13.7291 14.5868 13.4716 15.3499 13.4716C16.1129 13.4716 16.8413 13.7291 17.4012 14.1969C17.9618 14.6641 18.2717 15.2732 18.2729 15.9114C18.2736 16.5506 17.9644 17.163 17.4012 17.634C16.8413 18.1023 16.1129 18.3598 15.3499 18.3598ZM15.3511 12.7856C14.3669 12.7856 13.4309 13.1157 12.7154 13.7146C11.2401 14.949 11.2401 16.8851 12.7154 18.1222C13.4309 18.7184 14.3669 19.048 15.3511 19.048C16.3347 19.048 17.2707 18.7184 17.9856 18.1216C19.4603 16.8851 19.4603 14.949 17.9849 13.7141C17.2707 13.1157 16.3347 12.7856 15.3511 12.7856ZM15.3512 19.7469C14.1439 19.7469 12.9983 19.3447 12.1247 18.6162C10.3182 17.1017 10.3182 14.7313 12.124 13.2205C12.9977 12.4888 14.1439 12.0867 15.3512 12.0867C16.5585 12.0867 17.704 12.4894 18.5764 13.2205C20.3815 14.7313 20.3815 17.1017 18.5764 18.6157C17.7034 19.3447 16.5585 19.7469 15.3512 19.7469Z" fill="#4C71DD"/>
<path fill-rule="evenodd" clip-rule="evenodd" d="M8.73554 25.0867V27.9716C8.73554 28.1695 8.90076 28.3066 9.13669 28.3066H21.5631C21.8029 28.3066 21.9643 28.1722 21.9643 27.9716V25.0867H8.73554ZM21.5631 29.006H9.13667C8.44303 29.006 7.89917 28.5512 7.89917 27.9716V24.7372C7.89917 24.5437 8.08624 24.3872 8.31767 24.3872H22.3827C22.6135 24.3872 22.8006 24.5437 22.8006 24.7372V27.9716C22.8006 28.5614 22.2683 29.006 21.5631 29.006Z" fill="#4C71DD"/>
<path d="M15.3036 0.537653C17.0855 0.500941 21.0893 8.06454 21.0893 8.06454H9.51788C9.51788 8.06454 13.9467 0.56561 15.3036 0.537653Z" fill="#D8E7FF"/>
<path fill-rule="evenodd" clip-rule="evenodd" d="M10.3118 7.7221H20.3866C19.6364 5.9807 18.5821 4.27855 17.1737 2.53392L16.2036 1.43984C15.6816 1.00758 15.0104 1.01295 14.5874 1.36295C14.5534 1.3936 14.5071 1.43177 14.4595 1.47048L14.4357 1.48984L13.5216 2.5436C12.1864 4.08984 11.134 5.78876 10.3118 7.7221ZM20.9735 8.42156H9.72611C9.59176 8.42156 9.46576 8.36726 9.38733 8.2764C9.3089 8.18554 9.28768 8.06779 9.33011 7.96188C10.2044 5.76672 11.3538 3.8608 12.844 2.13392L13.78 1.05597C13.7935 1.04091 13.8083 1.02586 13.8243 1.01295L13.8745 0.971557C13.9137 0.939299 13.9516 0.908654 13.9876 0.876396C14.7468 0.245751 15.9843 0.27317 16.7603 0.916181L16.9403 1.06833L17.8602 2.135C19.4416 4.09414 20.5878 5.99736 21.3702 7.96188C21.4126 8.06779 21.3914 8.18554 21.313 8.2764C21.2345 8.36726 21.1079 8.42156 20.9735 8.42156Z" fill="#4C71DD"/>
<path fill-rule="evenodd" clip-rule="evenodd" d="M12.3735 40.8775C12.1453 40.8775 11.9589 40.7238 11.9556 40.5324L11.8496 33.0856C11.847 32.8926 12.0315 32.7345 12.2629 32.7318C12.2642 32.7318 12.2655 32.7318 12.2674 32.7318C12.4963 32.7318 12.6827 32.8856 12.6859 33.077L12.792 40.5237C12.7946 40.7168 12.6101 40.8748 12.3786 40.8775C12.3767 40.8775 12.3754 40.8775 12.3735 40.8775Z" fill="#4C71DD"/>
<path fill-rule="evenodd" clip-rule="evenodd" d="M5.34695 42.957C5.31288 42.957 5.27752 42.9538 5.24281 42.9463C5.01909 42.8979 4.88474 42.7076 4.94195 42.5205L8.16524 32.0393C8.22309 31.8533 8.44616 31.7398 8.67438 31.7877C8.89809 31.8361 9.03245 32.0264 8.97524 32.2135L5.75195 42.6947C5.70245 42.8522 5.53338 42.957 5.34695 42.957Z" fill="#4C71DD"/>
<path fill-rule="evenodd" clip-rule="evenodd" d="M7.65476 42.2482C7.62077 42.2502 7.58528 42.2497 7.55014 42.2456C7.32372 42.2197 7.17686 42.0742 7.22134 41.9201L9.7307 33.2876C9.77589 33.1343 9.99077 33.0299 10.2217 33.0551C10.4481 33.0811 10.5949 33.2266 10.5505 33.3807L8.0411 42.0132C8.00233 42.143 7.84073 42.2373 7.65476 42.2482Z" fill="#D8E7FF"/>
<path fill-rule="evenodd" clip-rule="evenodd" d="M22.6361 42.5536C22.6701 42.5556 22.7056 42.5551 22.7407 42.5511C22.9671 42.5251 23.114 42.3796 23.0695 42.2255L20.5601 33.593C20.5149 33.4397 20.3001 33.3353 20.0692 33.3606C19.8427 33.3865 19.6959 33.532 19.7404 33.6861L22.2497 42.3186C22.2885 42.4484 22.4501 42.5428 22.6361 42.5536Z" fill="#D8E7FF"/>
<path fill-rule="evenodd" clip-rule="evenodd" d="M25.4626 42.9571C25.2762 42.9571 25.1065 42.8523 25.0576 42.6947L21.8389 32.2136C21.7816 32.0265 21.916 31.8361 22.1397 31.7877C22.3666 31.7394 22.591 31.8533 22.6489 32.0394L25.8676 42.5205C25.9242 42.7076 25.7905 42.898 25.5668 42.9463C25.5314 42.9539 25.4961 42.9571 25.4626 42.9571Z" fill="#4C71DD"/>
<path fill-rule="evenodd" clip-rule="evenodd" d="M15.2007 40.8775C14.9718 40.8775 14.7854 40.7238 14.7822 40.5324L14.6716 33.0856C14.669 32.8931 14.8535 32.7345 15.0843 32.7318C15.0862 32.7318 15.0875 32.7318 15.0895 32.7318C15.3177 32.7318 15.5047 32.8856 15.5073 33.077L15.6185 40.5237C15.6211 40.7162 15.4366 40.8748 15.2058 40.8775C15.2039 40.8775 15.2026 40.8775 15.2007 40.8775Z" fill="#4C71DD"/>
<path fill-rule="evenodd" clip-rule="evenodd" d="M18.0228 40.8775C17.7946 40.8775 17.6082 40.7238 17.605 40.5324L17.4983 33.0856C17.4957 32.8926 17.6802 32.7345 17.9116 32.7318C17.9135 32.7318 17.9148 32.7318 17.9161 32.7318C18.145 32.7318 18.3314 32.8856 18.3346 33.077L18.4413 40.5237C18.4439 40.7168 18.2594 40.8748 18.028 40.8775C18.026 40.8775 18.0248 40.8775 18.0228 40.8775Z" fill="#4C71DD"/>
<path fill-rule="evenodd" clip-rule="evenodd" d="M0.370953 47.4159L5.10747 48.3777L3.75849 44.532L0.370953 47.4159ZM4.25896 47.6479L1.57788 47.1034L3.49537 45.471L4.25896 47.6479Z" fill="#4C71DD"/>
<path fill-rule="evenodd" clip-rule="evenodd" d="M7.99437 45.4075L10.9774 47.9989L11.9537 44.7048L7.99437 45.4075ZM10.6833 47.0177L9.21084 45.7386L11.1652 45.3917L10.6833 47.0177Z" fill="#4C71DD"/>
<path fill-rule="evenodd" clip-rule="evenodd" d="M1.58446 9.92359L4.56753 12.515L5.54382 9.22088L1.58446 9.92359ZM4.27335 11.5338L2.80093 10.2547L4.75525 9.90784L4.27335 11.5338Z" fill="#4C71DD"/>
<path fill-rule="evenodd" clip-rule="evenodd" d="M22.8549 47.1022L25.2124 50.1423L26.8913 47.0756L22.8549 47.1022ZM25.1234 49.1365L23.9585 47.6343L25.9531 47.6212L25.1234 49.1365Z" fill="#4C71DD"/>
<path fill-rule="evenodd" clip-rule="evenodd" d="M17.8213 43.6331L19.6297 46.359L21.1214 43.8933L17.8213 43.6331ZM19.5994 45.3257L18.8915 44.2586L20.1833 44.3604L19.5994 45.3257Z" fill="#4C71DD"/>
<path fill-rule="evenodd" clip-rule="evenodd" d="M24.7711 14.5834L25.9962 17.5293L27.9699 15.3259L24.7711 14.5834ZM26.1648 16.5057L25.6843 15.3503L26.9389 15.6415L26.1648 16.5057Z" fill="#4C71DD"/>
</svg>
