<svg width="51" height="48" viewBox="0 0 51 48" fill="none" xmlns="http://www.w3.org/2000/svg">
<path d="M24.6924 28.0919C26.4767 28.0919 27.9232 26.6407 27.9232 24.8505C27.9232 23.0603 26.4767 21.6091 24.6924 21.6091C22.9081 21.6091 21.4617 23.0603 21.4617 24.8505C21.4617 26.6407 22.9081 28.0919 24.6924 28.0919Z" fill="#D8E7FF"/>
<path fill-rule="evenodd" clip-rule="evenodd" d="M38.6924 25.1207C38.6924 33.0272 32.4244 39.4367 24.6924 39.4367C16.9604 39.4367 10.6924 33.0272 10.6924 25.1207C10.6924 17.2141 16.9604 10.8046 24.6924 10.8046C32.4244 10.8046 38.6924 17.2141 38.6924 25.1207ZM35.4616 25.1207C35.4616 30.9387 30.7606 35.6551 24.9616 35.6551C19.1626 35.6551 14.4616 30.9387 14.4616 25.1207C14.4616 19.3026 19.1626 14.5862 24.9616 14.5862C30.7606 14.5862 35.4616 19.3026 35.4616 25.1207Z" fill="#D8E7FF"/>
<path fill-rule="evenodd" clip-rule="evenodd" d="M24.7608 43.1497C14.7772 43.1497 6.65503 35.0031 6.65503 24.9899C6.65503 14.973 14.7772 6.82361 24.7608 6.82361C29.1907 6.82361 33.4602 8.4524 36.7825 11.4096C36.9273 11.5382 36.9403 11.7608 36.8121 11.9056C36.6834 12.0503 36.4621 12.0633 36.3178 11.9353C33.1236 9.09203 29.0195 7.52645 24.7608 7.52645C15.1633 7.52645 7.35557 15.3603 7.35557 24.9899C7.35557 34.6157 15.1633 42.4469 24.7608 42.4469C34.3551 42.4469 42.1606 34.6157 42.1606 24.9899C42.1606 20.7864 40.6556 16.7347 37.9186 13.5603C37.854 13.5408 37.7943 13.5036 37.7474 13.4484C37.6236 13.2993 37.6424 13.0784 37.7905 12.9536L37.833 12.9174C37.979 12.7958 38.1938 12.8115 38.3209 12.9541C41.2485 16.2776 42.8612 20.5519 42.8612 24.9899C42.8612 35.0031 34.7412 43.1497 24.7608 43.1497Z" fill="#4C71DD"/>
<path d="M43.2869 1.18469L44.326 5.18726L48.5821 6.53567C48.5821 6.53567 45.0363 9.74214 44.6867 10.1205C43.9585 10.9086 40.3077 9.53611 40.3077 9.53611L39.4524 5.18726L43.2869 1.18469Z" fill="#D8E7FF"/>
<path fill-rule="evenodd" clip-rule="evenodd" d="M40.4295 9.28867L43.4088 10.0131C43.5859 10.0639 43.7518 10.0877 43.9165 10.0877C44.3775 10.0877 44.819 9.89913 45.1593 9.55716L48.2382 6.46867L44.4475 5.52002C44.3215 5.48815 44.2235 5.39037 44.1922 5.26395L43.2467 1.45965L40.1678 4.54815C39.695 5.02193 39.5281 5.65724 39.7085 6.29039L40.4295 9.28867ZM43.9165 10.79C43.6872 10.79 43.4562 10.757 43.23 10.6922L40.0563 9.92074C39.9292 9.88994 39.8291 9.79 39.7989 9.66197L39.0316 6.46921C38.7866 5.61024 39.0252 4.70103 39.6724 4.05114L43.1891 0.524517C43.2785 0.435379 43.4077 0.399184 43.5299 0.434839C43.6516 0.468333 43.7458 0.565034 43.776 0.687666L44.8206 4.88957L49.0077 5.93708C49.1305 5.96787 49.2263 6.06241 49.2602 6.18397C49.2936 6.30606 49.2597 6.43679 49.1708 6.52647L45.6547 10.0536C45.1819 10.528 44.5643 10.79 43.9165 10.79Z" fill="#4C71DD"/>
<path fill-rule="evenodd" clip-rule="evenodd" d="M24.7608 39.8532C16.588 39.8532 9.93909 33.1857 9.93909 24.9899C9.93909 16.7903 16.588 10.1195 24.7608 10.1195C28.3055 10.1195 31.7328 11.3939 34.4116 13.7077C34.5581 13.8336 34.5748 14.0562 34.4482 14.2026C34.3228 14.35 34.1004 14.3673 33.955 14.2393C31.4032 12.0357 28.1375 10.8223 24.7608 10.8223C16.9741 10.8223 10.6391 17.1776 10.6391 24.9899C10.6391 32.7984 16.9741 39.1509 24.7608 39.1509C32.5448 39.1509 38.8771 32.7984 38.8771 24.9899C38.8771 21.6275 37.686 18.3704 35.523 15.8179C35.3981 15.6704 35.4159 15.4489 35.5629 15.323C35.7099 15.1977 35.9301 15.215 36.0561 15.363C38.3268 18.042 39.5776 21.4611 39.5776 24.9899C39.5776 33.1857 32.9309 39.8532 24.7608 39.8532Z" fill="#4C71DD"/>
<path fill-rule="evenodd" clip-rule="evenodd" d="M24.7607 36.2467C18.5738 36.2467 13.5403 31.1966 13.5403 24.9899C13.5403 18.7827 18.5738 13.7321 24.7607 13.7321C27.3831 13.7321 29.9321 14.6585 31.939 16.3403C32.0871 16.4651 32.107 16.6866 31.9831 16.8351C31.8593 16.9837 31.638 17.0037 31.4899 16.8794C29.6091 15.3025 27.2194 14.4349 24.7607 14.4349C18.9599 14.4349 14.2408 19.1695 14.2408 24.9899C14.2408 30.8093 18.9599 35.5438 24.7607 35.5438C30.5616 35.5438 35.2812 30.8093 35.2812 24.9899C35.2812 22.5211 34.4143 20.1187 32.8387 18.2268C32.7144 18.0782 32.7348 17.8567 32.8829 17.7319C33.031 17.6082 33.2517 17.6277 33.3761 17.7762C35.0561 19.7951 35.9817 22.3568 35.9817 24.9899C35.9817 31.1966 30.9477 36.2467 24.7607 36.2467Z" fill="#4C71DD"/>
<path fill-rule="evenodd" clip-rule="evenodd" d="M24.7608 32.5482C20.6033 32.5482 17.2207 29.1577 17.2207 24.9899C17.2207 20.8182 20.6033 17.424 24.7608 17.424C26.4472 17.424 28.1014 17.9993 29.4185 19.0441C29.5703 19.1646 29.5956 19.385 29.4761 19.5373C29.3565 19.6897 29.1352 19.7156 28.9845 19.5946C27.7907 18.6481 26.2905 18.1268 24.7608 18.1268C20.9894 18.1268 17.9212 21.2056 17.9212 24.9899C17.9212 28.7704 20.9894 31.8454 24.7608 31.8454C28.5295 31.8454 31.5949 28.7704 31.5949 24.9899C31.5949 23.4097 31.0753 21.9235 30.0905 20.6934C29.9699 20.5416 29.9941 20.3207 30.1443 20.1997C30.2951 20.0781 30.5159 20.103 30.6365 20.2531C31.722 21.6102 32.2955 23.2476 32.2955 24.9899C32.2955 29.1577 28.9155 32.5482 24.7608 32.5482Z" fill="#4C71DD"/>
<path fill-rule="evenodd" clip-rule="evenodd" d="M44.8206 4.88902L45.652 5.09593L47.2453 3.49685C47.5452 3.19486 47.5452 2.75673 47.2453 2.45474C46.954 2.16248 46.4995 2.16248 46.2082 2.45474L44.6144 4.05491L44.8206 4.88902ZM45.7597 5.83604C45.7317 5.83604 45.7037 5.83226 45.6757 5.82524L44.4475 5.52001C44.3215 5.48868 44.2229 5.39035 44.1922 5.2634L43.8869 4.03114C43.8579 3.91174 43.8923 3.78533 43.979 3.69835L45.7129 1.95827C46.268 1.4013 47.185 1.40076 47.7407 1.95881C48.3174 2.53794 48.3174 3.41257 47.7407 3.99332L46.0074 5.73286C45.9406 5.79931 45.8512 5.83604 45.7597 5.83604ZM39.6471 9.03204C31.2439 17.4812 27.3185 21.9489 25.8339 23.9262C27.9049 22.3601 32.6433 18.1349 40.6933 10.0768L40.0558 9.92072C39.9287 9.88939 39.8291 9.78944 39.7989 9.66195L39.6471 9.03204ZM24.5034 25.2276C24.4199 25.1368 24.3898 25.0088 24.4253 24.89C24.7446 23.8068 28.8967 18.8253 39.5932 8.09204C39.6826 8.00237 39.814 7.96941 39.9357 8.00237C40.0574 8.03694 40.1511 8.13526 40.1812 8.25843L40.4295 9.28919L41.4633 9.5431C41.5866 9.57389 41.6835 9.66789 41.7175 9.78999C41.7519 9.91208 41.7175 10.0434 41.6281 10.133C32.6891 19.1019 26.0956 25.0682 24.8324 25.334C24.8087 25.3383 24.7845 25.341 24.7608 25.341C24.6639 25.341 24.5702 25.3005 24.5034 25.2276Z" fill="#4C71DD"/>
<path fill-rule="evenodd" clip-rule="evenodd" d="M24.7608 22.2034C23.2294 22.2034 21.9845 23.453 21.9845 24.99C21.9845 26.5226 23.2294 27.7689 24.7608 27.7689C26.2922 27.7689 27.5371 26.5226 27.5371 24.99C27.5371 24.5372 27.4316 24.1007 27.2286 23.7102C25.3795 25.219 24.9853 25.3017 24.8324 25.3341C24.7123 25.3579 24.5879 25.319 24.5045 25.2287C24.421 25.1391 24.3903 25.0121 24.4242 24.8938C24.4959 24.641 24.7462 24.1213 26.0493 22.52C25.6546 22.312 25.2158 22.2034 24.7608 22.2034ZM24.7608 28.4717C22.8433 28.4717 21.2839 26.9099 21.2839 24.99C21.2839 23.0657 22.8433 21.5006 24.7608 21.5006C25.4899 21.5006 26.1872 21.7243 26.7773 22.1467C26.8565 22.204 26.9082 22.291 26.9211 22.3871C26.9335 22.4844 26.9049 22.5822 26.843 22.6567C26.4209 23.1683 26.0999 23.5756 25.856 23.8992C26.1769 23.6572 26.5824 23.3369 27.0934 22.9128C27.1688 22.8506 27.2652 22.822 27.3621 22.8355C27.4585 22.8479 27.5452 22.9003 27.6012 22.9798C28.0174 23.5659 28.2376 24.2606 28.2376 24.99C28.2376 26.9099 26.6782 28.4717 24.7608 28.4717Z" fill="#4C71DD"/>
<path d="M32.6872 43.1356L33.7342 46.7381L30.0769 45.8233L32.6872 43.1356Z" stroke="#4C71DD"/>
<path fill-rule="evenodd" clip-rule="evenodd" d="M13.4138 5.59803L17.7738 6.68867L16.4635 2.64392L13.4138 5.59803ZM16.2666 5.28082L15.4019 5.06452L16.0067 4.47864L16.2666 5.28082Z" fill="#4C71DD"/>
<path d="M4.63327 28.9118L3.61841 32.5236L1.00008 29.8033L4.63327 28.9118Z" stroke="#4C71DD"/>
<path d="M46.335 19.6965L46.968 23.3949L49.8554 20.9642L46.335 19.6965Z" stroke="#4C71DD"/>
</svg>
