<svg width="25" height="14" fill="none" xmlns="http://www.w3.org/2000/svg"><path d="M4.458 13V.747H.784v2.452h1.222V13h2.452zm6.63.316c.662 0 1.283-.095 1.864-.286a5 5 0 001.525-.795 3.794 3.794 0 001.03-1.209c.25-.467.376-.977.376-1.53 0-.318-.043-.629-.129-.93a3.554 3.554 0 00-.948-1.59 3.75 3.75 0 00-.76-.573 3.18 3.18 0 00.474-.538c.14-.2.257-.412.354-.637.097-.225.173-.455.227-.692.054-.236.08-.471.08-.705a2.92 2.92 0 00-.32-1.346 3.551 3.551 0 00-.88-1.102 4.28 4.28 0 00-1.303-.748 4.568 4.568 0 00-1.59-.273c-.557 0-1.084.091-1.58.273a4.225 4.225 0 00-1.299.748c-.37.316-.662.684-.876 1.102a2.92 2.92 0 00-.32 1.346 3.475 3.475 0 00.303 1.393c.1.222.22.433.36.632.139.2.297.376.473.53-.284.16-.54.352-.769.577a3.82 3.82 0 00-.585.74 3.438 3.438 0 00-.5 1.794c0 .552.125 1.062.376 1.53.25.466.594.87 1.03 1.208a5 5 0 001.525.795c.581.19 1.202.286 1.863.286zm.018-7.81c-.234 0-.453-.037-.658-.111a1.767 1.767 0 01-.534-.299 1.42 1.42 0 01-.359-.444 1.192 1.192 0 01-.132-.556c0-.2.044-.386.132-.56.088-.173.208-.326.359-.457a1.67 1.67 0 01.534-.307c.205-.074.424-.111.658-.111.228 0 .444.037.65.11.204.075.383.177.533.308.151.131.271.284.36.458.088.173.132.36.132.56 0 .199-.044.384-.133.555a1.42 1.42 0 01-.359.444c-.15.125-.329.225-.534.299a1.897 1.897 0 01-.649.111zm-.017 5.794a2.9 2.9 0 01-.914-.141 2.481 2.481 0 01-.748-.39 1.845 1.845 0 01-.504-.589 1.563 1.563 0 01-.184-.752c0-.273.061-.528.184-.765.122-.236.29-.442.504-.619a2.48 2.48 0 01.748-.419 2.68 2.68 0 01.914-.154c.325 0 .63.052.918.154.288.103.539.242.752.419.214.177.382.383.505.62.122.236.183.49.183.764s-.061.524-.183.752c-.123.228-.291.425-.505.59a2.472 2.472 0 01-.752.389 2.939 2.939 0 01-.918.14zm10.835-.992V7.976h2.418V5.65h-2.418v-2.52H19.59v2.52h-2.427v2.325h2.427v2.332h2.333z" fill="#696969"/></svg>
