<svg xmlns="http://www.w3.org/2000/svg" viewBox="0 0 33.01 30.16"><path d="M3.76 9.26c-1.52 3.12-1.79 5.37-2.45 9.29L.02 26.46a.94.94 0 0 0 1.5.9 2.66 2.66 0 0 1 2-.35c.83.1 1.8.37 2.75.58l5.38 1.24 5.73 1.32a.94.94 0 0 0 1.12-.7l.16-.73 4-16.24a1.38 1.38 0 0 0-1-1.68l-3.21-.8-1.37-.34-1.23-.23-3.33-.59a26.84 26.84 0 0 0-5.13-.14 39.9 39.9 0 0 0-4.62.94A41.24 41.24 0 0 0 7.22 11a32.3 32.3 0 0 0 4.86.94l3.14.5 1.19.18 1.33.28 3.11.66-1-1.68-3 16.45-.15.73 1.11-.71-5.75-1.25-5.4-1.17c-.95-.19-1.87-.45-2.94-.57a4.22 4.22 0 0 0-3.21.75l1.13.65 1.2-7.93c.6-3.96 1.38-6.13.92-9.57z" fill="#fff"/><path d="M18.03 28.94c2.33-.45 3.45-1.38 5.54-2.84l2-1.25a11.88 11.88 0 0 1 1.47-.76l1.64-.78h.06a.93.93 0 0 0 .51-.64c.54-2.44 1.14-5 1.55-7.06l.51-2.45.16-1 .58-2.61c.08-.39.18-.81.26-1.26l.22-1.41.46-3.05a1.27 1.27 0 0 0-1.06-1.43 1.24 1.24 0 0 0-.81.16l-.09.05c-1.63.95-3.27 1.81-4.5 2.71l-1.66 1.12c-.47.33-.82.64-1.07.84a11 11 0 0 0-3.58 5.36 16.33 16.33 0 0 0 5.56-2.92c.24-.19.56-.49 1-.82l1.51-1.17c1.11-.92 2.6-1.84 4.08-2.87l-2-1.22-.19 2.94c0 .48-.05.94-.08 1.38s-.1.86-.15 1.24l-.31 2.6-.15.94-.46 2.45c-.36 2-.91 4.61-1.41 7.06l.44-.51-1.74.87a12.4 12.4 0 0 0-1.55.84l-2.09 1.35c-2.07 1.54-3.46 2.07-4.65 4.14z" fill="#fff"/><path d="M3.55 10.23c1.78-.36 2.44-1.15 3.74-2.42l4.69-4.67a12 12 0 0 1 1.26-1.18.61.61 0 0 1 .12 0h.05-.12l.42-.09c.17-.05.16 0 .24 0h.2c.4.06.69.15 1 .23l.42.08 1.51.42 1.59.43c.59.16 1.28.25 2 .38 2.79.52 5.63.94 6.62 1a7.27 7.27 0 0 0 4.48-.92 7.12 7.12 0 0 0-4.12-2.19c-1-.12-4-.25-6.56-.41-.66-.05-1.3-.05-1.9-.13L17.55.53 16 .32l-.42-.07c-.18 0-.64-.15-1.18-.22a3.84 3.84 0 0 0-1.07 0l-.42.1h-.19l-.14.07a2.54 2.54 0 0 0-.28.16 10 10 0 0 0-1.55 1.46l-4.56 4.8c-1.26 1.4-2.28 1.82-2.64 3.61zM5.91 14.52a3.64 3.64 0 0 0-.55-.22c-.14-.06-.31.07-.42.19a.83.83 0 0 0-.19.39 1.27 1.27 0 0 0 0 .44 1.8 1.8 0 0 0 .24.82 1.82 1.82 0 0 0 1 .8h.06a.75.75 0 0 0 .67-.1c.21-.14.39-.28.55-.41a2.85 2.85 0 0 0 .34-.42 1.34 1.34 0 0 0 .24-.42 3.28 3.28 0 0 0 .22-.32 2.86 2.86 0 0 0 .33-1 .6.6 0 0 0-.24-.65l-.65-.47-.67-.43a.89.89 0 0 0-1.1.14l-.56.57a2 2 0 0 0-.36.43c-.14.3.25.73 1 1.45 1 .24 1.58.34 1.76.06a2.66 2.66 0 0 0 .17-.54l-1.66.71h.8l-.9-1.12c0 .07.15.16.15.24v.14a.27.27 0 0 1 0 .17 1.08 1.08 0 0 1-.07.18 1.26 1.26 0 0 0-.16.2h.59c0-.07 0 0-.08 0a.31.31 0 0 1-.1-.14c0-.06.11-.13.06-.08a.12.12 0 0 1-.14-.11 2.39 2.39 0 0 0-.33-.5zM5.22 21.44a2.87 2.87 0 0 0-.6-.14.57.57 0 0 0-.42.19 1.22 1.22 0 0 0-.32.82v.18a.78.78 0 0 0 .31.7l.07.05.63.46a.88.88 0 0 0 1.14-.08 2.46 2.46 0 0 0 .78-1.56 2.64 2.64 0 0 0-.09-.95.25.25 0 0 0 0-.35l-.33-.15a4 4 0 0 0-.55-.19h-.11a2.08 2.08 0 0 0-.52 0 1.8 1.8 0 0 0-.47.15 2.43 2.43 0 0 0-.44.26 3.76 3.76 0 0 0-1.16 1.48 1.12 1.12 0 0 0 .31 1.32l.27.22a2.28 2.28 0 0 0 2.46.3l.12-.07.18-.14a.43.43 0 0 0 0-.07l.18-.23a1.73 1.73 0 0 0 .17-.33 1.19 1.19 0 0 0 0-.86 1.17 1.17 0 0 0-.56-.58.73.73 0 0 0-.78.06.55.55 0 0 1-.17.31h-.07a.28.28 0 0 1-.15 0h.09v.07s-.09-.35 0-.18v-.2a1.77 1.77 0 0 1 0-.21l.77 1.25a2.18 2.18 0 0 1-.05-.61s-.08-.14-.1-.14a.55.55 0 0 1-.12-.26.12.12 0 0 1 0-.07.24.24 0 0 1-.07.17l-.51-.36a.5.5 0 0 1 .09.21c.07.15 0 .34-.1.51h.87l-.68-.39.26.49v-.08c0-.12.13-.22.13-.27s0-.06-.09-.19a1.84 1.84 0 0 0-.37-.54zM11.36 18.23c-1-.07-1 .09-1 .31s-.22.77-.27 1v.1a.88.88 0 0 0 .66 1.07.9.9 0 0 0 .49 0 1.69 1.69 0 0 0 .81-.45 1.28 1.28 0 0 0 .4-.24 2.25 2.25 0 0 0 .65-.9.9.9 0 0 0-.3-1.08l-.35-.25a2.06 2.06 0 0 0-1.49-.35 1.72 1.72 0 0 0-.83.34c-.57.44-.32 1.46.7 1.71a2.3 2.3 0 0 1 .36 0h.21s.1.07.1.09a.38.38 0 0 1 0-.19l-.69-.61a.14.14 0 0 1-.09 0s-.06 0 0 0 .07.09.08.09a.16.16 0 0 1 0 .11l1 1.05a5.93 5.93 0 0 1 0-1.05c.04-.28.48-.3-.44-.75zM15.96 14.74c-1-.14-1 .07-1.18.37a9.33 9.33 0 0 0-.27 1.07.87.87 0 0 0 .69 1h.2a2.27 2.27 0 0 0 1.44-.46 2 2 0 0 0 .38-.28l.12-.14a2.19 2.19 0 0 0 .71-1.21.88.88 0 0 0-.36-.94l-.2-.13a1.84 1.84 0 0 0-1.08-.39h-.35l-.28.07a2.57 2.57 0 0 0-.49.21 2.5 2.5 0 0 0-.6.46 1.53 1.53 0 0 0-.28.35c-.28.49.13 1.08 1.05 1.55 1-.06 1.56.15 1.63.07v-.05l-.06-.08a1.09 1.09 0 0 1-.25-.27c-.07-.14-.12-.15-.16-.25a.74.74 0 0 1 0-.14s0 .11-.08.12l-.77-.72c.13 0 .14.23.15.22a.65.65 0 0 1-.38.4l.7.83a5.77 5.77 0 0 1 0-.68c.07-.28.52-.28-.28-.98zM15.22 24.44l.1-.32c0-.09.06-.16 0-.25a.78.78 0 0 0-.39-.33.88.88 0 0 0-.76.17 1.52 1.52 0 0 0-.46.5l-.06.11v.61a2.43 2.43 0 0 0 .14.92.81.81 0 0 0 .88.73.79.79 0 0 0 .26-.08H15c.45-.21.48-.28.48-.28a1.85 1.85 0 0 0 .88-1 2.06 2.06 0 0 0 .07-1.19 2 2 0 0 0-.56-.95 1.41 1.41 0 0 0-1.79-.11l-.17.13-.09.07c-.16.16.09.66.58 1.55.78.65 1.23 1 1.42.86l.08-.06-1.39-.71h-.09a.38.38 0 0 1-.18 0 .42.42 0 0 1 .14.06.15.15 0 0 1 .06.06l1.09.35s-.18-.33-.23-.27v-.21h-.21c.07 0 .07.06.06 0a.38.38 0 0 1-.06-.18v-.08c0-.03 0 0 0 0z" fill="#fff"/><path d="M12.33 6.18c-.46.9-.35.85-.27.93a4.85 4.85 0 0 0 .41.28h.06a.92.92 0 0 0 1.11-.16 2.15 2.15 0 0 0 .25-.31l.2-.11a1.19 1.19 0 0 0 .22-.26l.12-.17a2 2 0 0 0 .08-.29 1.55 1.55 0 0 0 0-.31v-.14l-.12-.29v-.08l-.09-.15a1.71 1.71 0 0 0-.53-.51 1.57 1.57 0 0 0-1-.27.91.91 0 0 0-.48.24.93.93 0 0 0-.31.58.78.78 0 0 0 .14.72.7.7 0 0 0 .66.2.5.5 0 0 1 .15-.05.2.2 0 0 1 .06.15v-.06c0-.06 0-.11 0 0h-.33a.34.34 0 0 1-.17-.09l-.23-.13v.12l1.07-.11a2.8 2.8 0 0 1-.55-.06c0-.08.17-.41-.45.33zM19.6 4.78a4.48 4.48 0 0 0-.12-.57c0-.14-.06-.22-.18-.27a.88.88 0 0 0-.64.05 1.93 1.93 0 0 0-.89.64 2.07 2.07 0 0 0-.45 1 .94.94 0 0 0 .82 1h.55a3 3 0 0 0 .44.11.22.22 0 0 0 .17-.05l.8-.81a6.52 6.52 0 0 0 .59-.77 1.18 1.18 0 0 0-.34-1.64 1.13 1.13 0 0 0-.85-.18l-.88.15a1.27 1.27 0 0 0-.34.08c-.22.12-.14.67.07 1.67.59.84.94 1.28 1.18 1.2a1.09 1.09 0 0 0 .28-.19l-2.07-1.67a5.28 5.28 0 0 0 .26.93l1-.86a2.51 2.51 0 0 0-.42.17l-.37.07 1 1a.17.17 0 0 1-.07-.21.44.44 0 0 1 .08-.19c.07 0 .1.07.09 0a1.92 1.92 0 0 0 .29-.66z" fill="#fff"/><path d="M12.88 6.24l-.24-.53c-.06-.12 0-.11-.12-.14a.66.66 0 0 0-.24 0 .86.86 0 0 0-.46.27 1.83 1.83 0 0 0-.22.42 1.33 1.33 0 0 0 0 .71.7.7 0 0 0 .29.46l.1.07.69.47.11.06a.79.79 0 0 0 .86 0 2.36 2.36 0 0 0 .48-.39l.1-.12.1-.09a1.16 1.16 0 0 0 .25-.25 3 3 0 0 0 .27-.45 3.52 3.52 0 0 0 .15-.62.54.54 0 0 0-.13-.43l-.5-.54a1.61 1.61 0 0 0-.78-.51 1.58 1.58 0 0 0-.62-.08h-.41a1.67 1.67 0 0 0-.53.32 1 1 0 0 0-.25 1 1 1 0 0 0 .4.59.64.64 0 0 0 .71.05.53.53 0 0 1 .13-.13.17.17 0 0 1 .1 0c.06 0 .1 0 0 0v.36a.83.83 0 0 1-.06.21c0 .08-.12.33-.21.49h.11l-.17-1a.3.3 0 0 1-.14 0v.05h.9a5.15 5.15 0 0 1-.82-.27v.44c0 .13 0 0 .07 0h.05a.1.1 0 0 1-.08 0s-.07 0 0-.06 0 0 0-.07zM24.41 13.44c-1-.26-1-.11-1.06.07s-.15.3-.23.5a.94.94 0 0 0 .47 1.23h.06a1.38 1.38 0 0 0 .94 0 1.39 1.39 0 0 0 .61-.44 1.25 1.25 0 0 0 .26-.48 1.85 1.85 0 0 0 .35-.77 1.74 1.74 0 0 0 0-.87 2 2 0 0 0-.51-.85 1.31 1.31 0 0 0-1.85 0 1 1 0 0 0-.21.29l-.28.5a1.55 1.55 0 0 0-.14.29c0 .21.46.46 1.38.9 1 .09 1.56.12 1.64-.07a1.27 1.27 0 0 0 0-.32l-1.8.07a.59.59 0 0 1-.35.13h.07a.8.8 0 0 1 .24.14.57.57 0 0 1 .14.17v-.16l.48.82a4.22 4.22 0 0 1 .11-.56c.09-.08.49-.02-.32-.59zM28.36 10.16c-1-.12-1 0-1.06.27a6.83 6.83 0 0 0-.23.69.93.93 0 0 0 1.39 1.07 3.36 3.36 0 0 0 .65-.49 1.51 1.51 0 0 0 .29-.35l.17-.17v-.16a1.71 1.71 0 0 0 .17-.47 1.72 1.72 0 0 0-1.09-2 1.28 1.28 0 0 0-1.59.63l-.23.48a2.34 2.34 0 0 0-.2.45c0 .24.48.48 1.42.89 1 0 1.58 0 1.65-.25a2.42 2.42 0 0 0 0-.49l-1.54.1a.35.35 0 0 1-.1.08.46.46 0 0 1-.17.06s.05-.07.07 0v.08l-.24-.18c-.1-.05 0 0 0 0s.09.08-.27.4l1.12.88a7.22 7.22 0 0 1 .07-.73c.18-.29.58-.29-.28-.79zM22.49 21.77c0-.26 0-.45-.13-.59a.61.61 0 0 0-.24-.15.66.66 0 0 0-.2-.06 1 1 0 0 0-.76.38 1.46 1.46 0 0 0-.34.56v.53a1.29 1.29 0 0 0 0 .25 2 2 0 0 0 .17.52 3 3 0 0 0 .21.32 2.67 2.67 0 0 0 .43.39.85.85 0 0 0 1.2-.13 5.32 5.32 0 0 0 .4-.6 3.75 3.75 0 0 0 .49-.55 4.31 4.31 0 0 0 .58-1.18 1.3 1.3 0 0 0-.84-1.64 1.27 1.27 0 0 0-1 .07l-.42.2a2.61 2.61 0 0 0-.8.54c-.38.43-.08 1.11.77 1.68a3.55 3.55 0 0 1 1.52.46.35.35 0 0 1 0-.09l-2.22-1.37a2.56 2.56 0 0 1 .23.56 3.39 3.39 0 0 1 0 .41 2.35 2.35 0 0 1-.17.36l1.15-.17h-.13v.06c-.09.17 0-.37-.13-.12.06 0 0 0 0 0s.08.08 0 0 0 0-.05-.06.2-.34.28-.58zM26.61 18.68c.08-.24.14-.42.17-.56s.05-.11 0-.18a.73.73 0 0 0-.27-.17.9.9 0 0 0-.58 0 1.31 1.31 0 0 0-.36.23 2.17 2.17 0 0 0-.64 1.6v.17a.85.85 0 0 0 .55.65 1.26 1.26 0 0 0 1 0 .56.56 0 0 0 .21-.11 1.5 1.5 0 0 0 .32-.16 2.58 2.58 0 0 0 .48-.42 2.66 2.66 0 0 0 .61-1.07 1.26 1.26 0 0 0-.9-1.53 1.22 1.22 0 0 0-.42 0h-.39a1.81 1.81 0 0 0-.77.18c-.48.26-.4 1 .34 1.71a3.71 3.71 0 0 1 .58.34l.16.15v-.06l-1.37-.86h-.19.08a1.62 1.62 0 0 0 .18.1 1.61 1.61 0 0 1 .47.32.27.27 0 0 1 .11.12v.06a.17.17 0 0 1 0-.13l.71.38s-.11-.07-.12-.19v-.21c0-.03-.16-.3-.21-.27s0 .05 0 .07v.07z" fill="#fff"/></svg>
