<svg xmlns="http://www.w3.org/2000/svg" viewBox="0 0 42.27 57.77"><path fill="#fff" d="M3.1 34.31a55.02 55.02 0 0 0-1.47 3.67 36.5 36.5 0 0 0-.9 3.64 30.72 30.72 0 0 0-.52 3.92 45.82 45.82 0 0 0-.21 4.6v1.7a9.5 9.5 0 0 0 .36 2.49 5.07 5.07 0 0 0 .68 1.44l.12.18.09.1.06.07.24.25a3.38 3.38 0 0 0 .27.26l.42.29a5.55 5.55 0 0 0 3.67.81 7.12 7.12 0 0 0 1.89-.49 8.42 8.42 0 0 0 .93-.49 7.43 7.43 0 0 0 .74-.53 11.89 11.89 0 0 0 2.59-3c1.39-2.21 2.27-4.61 3.73-6.37l.57-.62.28-.31s.05 0 0 0l.09-.07.18-.14a7.43 7.43 0 0 1 .71-.54l.65-.39a10.45 10.45 0 0 1 3-1 11.52 11.52 0 0 1 3-.11h.63l.71.14c.47.09.93.17 1.35.27l2.09.7 1.61.7c.45.19.79.38 1 .5l.35.18 1.36.75a17.39 17.39 0 0 0 1.73.86 7.89 7.89 0 0 0 2.65.66 4.25 4.25 0 0 0 1.77-.28 3.54 3.54 0 0 0 .87-.48l.2-.15.08-.08.06-.07.26-.27a5.62 5.62 0 0 0 1.08-3.86v-.47a2.44 2.44 0 0 0 0-.3v-.21c0-.28-.08-.57-.13-.86a18.37 18.37 0 0 0-.45-1.9 16.79 16.79 0 0 0-1.64-3.59 21 21 0 0 0-12.26-9.08 15.84 15.84 0 0 0-1.69-.4l-.42-.08h-.5l-.75-.06-1.42-.13-.67-.06h-.71l-2.47.09-1.66.12a23.53 23.53 0 0 0-8.2 3c-.55.33-1.1.64-1.62 1l-1.52 1.14-.76.59-.73.66-1.51 1.39 1.84-.78.89-.38.89-.32 1.71-.64 1.71-.55a48.82 48.82 0 0 1 7.81-2l1.56-.25 2-.11h1.25l1.43.09h.75l.62.11a10 10 0 0 1 1.46.3 18.39 18.39 0 0 1 10.88 7.55 15.42 15.42 0 0 1 1.51 3c.13.53.32 1 .42 1.54l.16.85v.21a.94.94 0 0 1 0 .14v.36a6 6 0 0 1-.06 1.36 4 4 0 0 1-.33.92l-.26.28-.06.07.07-.06-.09.07a1.73 1.73 0 0 1-.38.24 2.25 2.25 0 0 1-.92.17 9 9 0 0 1-3.51-1.14l-1.42-.72-.37-.19a11.85 11.85 0 0 0-1.08-.51l-1.72-.74c-.7-.25-1.53-.5-2.42-.78a36.7 36.7 0 0 0-1.35-.25l-.71-.14h-.84a13.68 13.68 0 0 0-3.41.15 12.14 12.14 0 0 0-3.55 1.21l-.87.54a9 9 0 0 0-.74.57l-.18.15-.09.07-.09.08-.33.37-.67.75c-1.68 2.08-2.55 4.56-3.81 6.56a10.68 10.68 0 0 1-2.14 2.59 8.48 8.48 0 0 1-.7.5 5 5 0 0 1-.65.34 5.15 5.15 0 0 1-1.43.39 4.07 4.07 0 0 1-2.55-.49 3.13 3.13 0 0 1-1.37-1.82 12.42 12.42 0 0 1-.31-3.73 40.82 40.82 0 0 1 .22-4.48c.18-1.35.22-2.62.45-3.81s.31-2.38.47-3.61.39-2.44.45-3.81z"/><path fill="#fff" d="M14.16 28.66c-.22-2-1-2.92-1.74-4.75-.07-.24-.25-.64-.34-1a4.12 4.12 0 0 1-.11-.81 4.49 4.49 0 0 1 1.75-4 9.13 9.13 0 0 1 3.66-.9c.57-.07 1-.12 1.38-.19l.53-.09.55-.11.29-.06h.4l.72-.27a4.85 4.85 0 0 0 .94-.45l.54-.31.48-.37.5-.39c.16-.14.3-.3.46-.46l.46-.47.47-.72a11.88 11.88 0 0 0 2.21-4.75l.21-1a4 4 0 0 0 .15-.91c.06-.6.09-1.09.1-1.42A8 8 0 0 0 26.01 0a11.84 11.84 0 0 0-1.37 5.07v1.11a3.79 3.79 0 0 1-.07.84l-.14 1a9.57 9.57 0 0 1-1.36 3.83l-.27.45-.32.39c-.1.13-.2.27-.31.39l-.34.33-.33.32-.31.23a2.49 2.49 0 0 1-.66.42l-.69.34-.41.14L19 15l-.47.09c-.29.06-.74.13-1.28.2s-1.24.17-2 .33c-.38.09-.77.2-1.19.33l-.66.3-.32.15-.25.17-.49.35-.08.06-.06.06-.13.13-.25.26a3.8 3.8 0 0 0-.42.57 3 3 0 0 0-.34.6 6.1 6.1 0 0 0-.59 2.47 7.6 7.6 0 0 0 .19 2 11.13 11.13 0 0 0 .44 1.3 12 12 0 0 0 .6 1.41 6.49 6.49 0 0 0 .63 1.14 4.48 4.48 0 0 0 1.83 1.74zm-9.52 8.17a1.36 1.36 0 0 0-.09 1.8c.15.31.64 1.23 1.09 2.08l.6 1.12a2.18 2.18 0 0 1 .17.36l.06.13.39 1.78a19.07 19.07 0 0 0 .6 2.21 1.19 1.19 0 0 0 .83.62l1.85.55.06-.46c.14-1-.82-1.33-1.18-1a.35.35 0 0 1-.13.38h.1l1.25-.23a1.14 1.14 0 0 0 .13-1.05A18.12 18.12 0 0 0 9.15 43l-1-1.58-.05-.11a2.12 2.12 0 0 0-.21-.35l-.68-1.08a56.12 56.12 0 0 1-1.25-2c-.38-.57-.18-1.04-1.32-1.05z"/><path fill="#fff" d="M4.15 45.7c1 .51 1.15.25 1.6-.07s2.79-2.17 2.79-2.17a33.32 33.32 0 0 0 3.19-1.67c.42-.36.33-1 .07-2-1-.51-1.55-.75-2-.44a33 33 0 0 0-2.41 2.68l-2.6 2.43c-.45.43-.9.17-.64 1.24zM29 33.95c-.51 0-.75 0-.87.18a.74.74 0 0 0-.1.51 2 2 0 0 0 .27.94 1.45 1.45 0 0 0 .75.63 1.49 1.49 0 0 0 .77 0l.52-.06.14-.51a3.81 3.81 0 0 0 .15-.77l.06-.25a1.89 1.89 0 0 0 .08-.63 2.91 2.91 0 0 0-.13-.81 4.6 4.6 0 0 0-.34-.67l-.86-1.41-1.48 1.67a1.08 1.08 0 0 0-.2.24c-.12.22.25.64 1 1.36 1 .38 1.49.55 1.65.35a1.6 1.6 0 0 0 .14-.28l-2.27.19.08-.05a.37.37 0 0 1 .21 0 .8.8 0 0 1 .27.16v.2l.67-.26a.24.24 0 0 1 0 .1v.08c0-.06 0 0 .06-.07a.46.46 0 0 1 .17-.13c-.06 0-.15-.17-.15-.23s.08-.13.05-.18-.16-.12-.64-.3zm3.97.7a1.7 1.7 0 0 0-.88.17.25.25 0 0 0-.12.15 2.68 2.68 0 0 0 0 .33v.48a3.29 3.29 0 0 0 .15.6 3.38 3.38 0 0 0 .52.93l.29.53.68-.23a1.76 1.76 0 0 0 .8-.52l.13-.18a1.77 1.77 0 0 0 .33-.44 2 2 0 0 0 .19-1.37 2.82 2.82 0 0 0-.18-.45l-.06-.11-.13-.14v-.08a.35.35 0 0 0-.05-.08l-.24-.2a2.64 2.64 0 0 0-.49-.28 2 2 0 0 0-1.16-.15c-.79.15-1.07 1.2-.31 1.94a1.41 1.41 0 0 1 .6.31l.08.07a.93.93 0 0 1 .07.15v-.28h.15l-.07-.07a.51.51 0 0 1-.23 0h.06a.31.31 0 0 1 .14.16l.87.11s-.25-.14-.34-.32a1.17 1.17 0 0 1-.19-.41.16.16 0 0 1 0-.12.31.31 0 0 0 .07-.17c-.1.03-.22-.1-.68-.33zm-3.05 4.66a1.68 1.68 0 0 0-.87.17.61.61 0 0 0-.13.44 1.84 1.84 0 0 0 .05.56v.35l.15.26a1.44 1.44 0 0 0 .19.22 1.69 1.69 0 0 0 .93.49 1.52 1.52 0 0 0 .66-.06l.48-.07.14-.56v-.16a1.92 1.92 0 0 0 .42-1.12 1.69 1.69 0 0 0-.09-.71l-.06-.19-.14-.19v-.07l-.12-.12a2.15 2.15 0 0 0-.5-.37 1.73 1.73 0 0 0-.32-.14 1.67 1.67 0 0 0-.5-.1 1.08 1.08 0 0 0-1 .69 1 1 0 0 0 0 .7.87.87 0 0 0 .51.5.94.94 0 0 1 .35 0v.06a.57.57 0 0 1 .07.27.16.16 0 0 1 0-.12c0-.07.08 0 .12 0h.06l-.34.13h-.08a.8.8 0 0 1-.15 0h-.12.07l.08.13a.63.63 0 0 1 .06.19v.11l.74-.25v-.05c0-.05.14-.27.06-.19s0 .06-.05 0 0 .06 0 .05v-.05a.37.37 0 0 1-.07-.18c-.08-.16.35-.21-.6-.62zm4.38 1.13a4.48 4.48 0 0 0-.51-.29.71.71 0 0 0-.16-.07.63.63 0 0 0-.2.13 1 1 0 0 0-.23.46 2.38 2.38 0 0 0 0 .37 1.56 1.56 0 0 0 .49 1 1.39 1.39 0 0 0 .31.23 2.21 2.21 0 0 0 .41.14 1.45 1.45 0 0 0 .69-.1l.63-.17v-1.16l.52-1 .75-1.39h-2.61a1.68 1.68 0 0 0-.46 0c-.2.08-.17.64-.06 1.65.45.91.72 1.4.94 1.36a2.27 2.27 0 0 0 .39-.23l-1.86-1.4.53 1a4.34 4.34 0 0 1 .07.44l.71-.42a.11.11 0 0 1 0-.07.44.44 0 0 1 .08-.11c.09-.07 0 0 0 0h-.1a.19.19 0 0 1-.1.05h-.06l-.06-.09zm-18.49-3.42v-.31a.34.34 0 0 1 .2-.14.33.33 0 0 1 .3 0c.14 0 .21.3 0 .57l-1.56-.3v.09c.1.33.71 1.93.71 1.93a12.37 12.37 0 0 0 .11 2.15c.14.28.71.27 1.74.17.84-.6 1.29-1 1.2-1.26a11.89 11.89 0 0 0-1.3-1.71s-.87-1.5-1-1.81a.32.32 0 0 1 0-.09L16 35.23l-.82.88a.83.83 0 0 0-.21 1 .48.48 0 0 0 .36.25.47.47 0 0 0 .31 0 1.91 1.91 0 0 0 .17-.34zm4.91-1.92c-.92.47-.79.6-.75.88s.43 1.8.43 1.8a10.65 10.65 0 0 0-.19 1.94c.09.28.66.31 1.68.3.92-.46 1.41-.74 1.37-1a10.16 10.16 0 0 0-1-1.65s-.64-1.43-.74-1.72.23-.55-.8-.55z"/></svg>
