<svg fill="#ff4800" xmlns="http://www.w3.org/2000/svg" viewBox="0 0 512 512">
  <path d="M509.27 298.3l-32.65-116.62a83.97 83.97 0 0 0-42.76-52.12 83.97 83.97 0 0 0-67.32-3.74 83.31 83.31 0 0 0-39.34 30.55s-.05.04-.14.04H185.45c-.08 0-.13-.03-.13-.03a83.26 83.26 0 0 0-39.34-30.57 84 84 0 0 0-67.33 3.75 83.98 83.98 0 0 0-42.75 52.11L3.24 298.3c-10.79 38.5 6.06 75.72 40.05 88.47a75.45 75.45 0 0 0 26.51 4.73c29.17 0 58-16.03 70.3-41.86l15.68-32.8a52.16 52.16 0 0 0 41.74 20.97 52.16 52.16 0 0 0 49.56-36.1h18.3a52.15 52.15 0 0 0 49.55 36.1c16.7 0 32.1-8.04 41.75-20.98l15.71 32.8a73.18 73.18 0 0 0 38.77 36.47 73.2 73.2 0 0 0 53.23.67 73.19 73.19 0 0 0 39.66-35.5 73.21 73.21 0 0 0 5.22-52.97zm-24.01 43.44a52.18 52.18 0 0 1-28.27 25.3 52.19 52.19 0 0 1-37.94-.47 52.18 52.18 0 0 1-27.65-26.02l-21.9-45.74a13.76 13.76 0 0 0-25.37 1.3 31.03 31.03 0 0 1-29.2 20.63 31 31 0 0 1-30.39-24.97 13.8 13.8 0 0 0-13.5-11.12h-29.62a13.8 13.8 0 0 0-13.5 11.12 31.01 31.01 0 0 1-30.4 24.97 31.03 31.03 0 0 1-29.2-20.61 13.69 13.69 0 0 0-12.21-9.12 13.74 13.74 0 0 0-13.16 7.82l-21.86 45.74c-11.38 23.9-44.28 36.27-70.4 26.48-23.88-8.97-35.05-34.9-27.16-63.07L56.2 187.35a62.02 62.02 0 0 1 32-39 62.35 62.35 0 0 1 28.3-6.86 62.8 62.8 0 0 1 22.09 4.05c12 4.5 22.18 12.4 29.43 22.86a21.22 21.22 0 0 0 17.44 9.08h141.6c6.97 0 13.5-3.4 17.44-9.08a62.35 62.35 0 0 1 29.44-22.86 62.03 62.03 0 0 1 50.39 2.8 62.02 62.02 0 0 1 32 39.01l32.66 116.62a52.18 52.18 0 0 1-3.72 37.77z"/>
  <circle cx="396.96" cy="187.21" r="13.31"/>
  <circle cx="396.96" cy="250.06" r="13.31"/>
  <circle cx="365.54" cy="218.64" r="13.31"/>
  <circle cx="428.39" cy="218.64" r="13.31"/>
  <path d="M147.18 208.1h-18.66v-18.65a10.53 10.53 0 1 0-21.07 0v18.65H88.8a10.53 10.53 0 1 0 0 21.07h18.65v18.66a10.53 10.53 0 1 0 21.07 0v-18.66h18.66a10.53 10.53 0 1 0 0-21.07zM232.03 208.1h-11.52a10.53 10.53 0 1 0 0 21.07h11.52a10.53 10.53 0 1 0 0-21.07zM292 208.1h-11.53a10.53 10.53 0 1 0 0 21.07h11.52a10.53 10.53 0 1 0 0-21.07zM197.52 264.54a21.23 21.23 0 0 0-21.21 21.2c0 11.7 9.51 21.22 21.21 21.22 11.7 0 21.21-9.51 21.21-21.21 0-11.7-9.51-21.21-21.21-21.21zm0 26.62a5.42 5.42 0 1 1 .01-10.83 5.42 5.42 0 0 1-.01 10.83zM314.93 264.54a21.23 21.23 0 0 0-21.21 21.2c0 11.7 9.51 21.22 21.2 21.22s21.22-9.51 21.22-21.21c0-11.7-9.52-21.21-21.21-21.21zm0 26.62a5.42 5.42 0 1 1 .01-10.83 5.42 5.42 0 0 1-.01 10.83z"/>
</svg>
