<svg width="24" height="24" viewBox="0 0 24 24" fill="none" xmlns="http://www.w3.org/2000/svg"><path d="M16.8503 0H7.14973C3.20735 0 0 3.20735 0 7.14973V16.8503C0 20.7926 3.20735 24 7.14973 24H16.8503C20.7927 24 24 20.7926 24 16.8503V7.14973C24 3.20735 20.7926 0 16.8503 0ZM21.5856 16.8503C21.5856 19.4655 19.4655 21.5856 16.8503 21.5856H7.14973C4.5345 21.5856 2.4144 19.4655 2.4144 16.8503V7.14973C2.4144 4.53446 4.5345 2.4144 7.14973 2.4144H16.8503C19.4655 2.4144 21.5856 4.53446 21.5856 7.14973V16.8503ZM12 5.79275C15.4227 5.79275 18.2073 8.57727 18.2073 12C18.2073 15.4226 15.4227 18.2072 12 18.2072C8.57731 18.2072 5.79275 15.4226 5.79275 12C5.79275 8.57731 8.57731 5.79275 12 5.79275ZM12 15.7929C14.0947 15.7929 15.7929 14.0947 15.7929 12C15.7929 9.90525 14.0948 8.20714 12 8.20714C9.90529 8.20714 8.20715 9.90525 8.20715 12C8.20715 14.0948 9.90525 15.7929 12 15.7929ZM18.2193 7.32674C17.3978 7.32674 16.7319 6.66081 16.7319 5.83935C16.7319 5.01789 17.3978 4.35196 18.2193 4.35196C19.0407 4.35196 19.7067 5.01789 19.7067 5.83935C19.7067 6.66081 19.0407 7.32674 18.2193 7.32674Z" fill="#777777"/></svg>
