<svg xmlns="http://www.w3.org/2000/svg" viewBox="0 0 150.13 167.65"><path fill="#fff" d="M72.46 57.09c0-2 1.55-2.6 2.67-3.5-3.41-2.19-7-2.27-10.13 1.07a8.07 8.07 0 0 1 1.38.78 2.28 2.28 0 0 1 .73 1c.09.28-.11.66-.19 1a4.47 4.47 0 0 1-.9-.27 10.42 10.42 0 0 0-9.89-.47 11.06 11.06 0 0 0-5.82 6.72 7.37 7.37 0 0 0-.15 4.78 3.27 3.27 0 0 0 4.18 1.94c.3-.1.55-.48.73-.78a6.19 6.19 0 0 1 5.94-2.84c.91.17 1.18.74.71 1.6a4.18 4.18 0 0 0-4.62 1.32 18.43 18.43 0 0 0-2.13 3.09c-.74 1.28.11 3 1.86 3.6 2.55.88 5.15 1.63 7.73 2.41a9.54 9.54 0 0 0 4.27.62 9.32 9.32 0 0 0 4-2 4.79 4.79 0 0 1 1.51-.63.77.77 0 0 1 .65.32c.08.13 0 .48-.18.64a10.11 10.11 0 0 1-4.13 2.89 8.36 8.36 0 0 1-5.69.14c-2.66-.81-5.34-1.56-8-2.47-1.85-.63-3.44-1.7-3.92-3.78a6 6 0 0 1 .07-1.73 3.23 3.23 0 0 1 .15-.6c-.8-.21-1.56-.37-2.29-.6a4.24 4.24 0 0 1-2.82-3.82 11.15 11.15 0 0 1 2.13-8.09 12.8 12.8 0 0 1 8.44-5.48 15.79 15.79 0 0 1 3.82.06.94.94 0 0 0 .93-.29c2.62-2.7 5.67-4.24 9.52-3 1.09.36 2.06 1.06 3.11 1.52a2.24 2.24 0 0 0 1.36.18 8 8 0 0 1 5.82.9 14.82 14.82 0 0 1 4.33 3.23A8.22 8.22 0 0 1 89.76 62a1.51 1.51 0 0 0 1.17 1.54 4.84 4.84 0 0 1 2.88 3.09 14.67 14.67 0 0 1 .68 6.7 3.4 3.4 0 0 1-2.18 2.76c-1.1.5-2.25.86-3.44 1.31a18.09 18.09 0 0 1 .66 1.78 3.41 3.41 0 0 1-.28 2.86 3.48 3.48 0 0 0-.13 3.56c.84 1.82.22 3.35-.86 4.79a9.24 9.24 0 0 1-2.25 2 8.93 8.93 0 0 0-3.12 3.56c-.67 1.45-1.56 2.8-2.32 4.22-.29.55-.71.8-1.24.57a.82.82 0 0 1-.29-1.26c.71-1.24 1.4-2.5 2.18-3.7.67-1 1.46-2 2.2-3 0-.07.1-.16.17-.18 1.58-.46 2-2 3.08-3.06a3.21 3.21 0 0 0 .53-4.07 3.16 3.16 0 0 1 .25-3.65c1.25-1.6.48-3.12-.53-4.23-.39-.42-1.26-.34-1.86-.6-2.64-1.16-5.47-2.12-6.89-4.94a6.85 6.85 0 0 1-.78-4.81 3.94 3.94 0 0 1 4.3-2.75 1.37 1.37 0 0 1 1 1.44c-.14.72-.72.74-1.26.71a1.74 1.74 0 0 0-2.07 2.07 5.72 5.72 0 0 0 3.43 4.91 25.09 25.09 0 0 0 2.32 1.16 7.51 7.51 0 0 0 6.64-.5 1.83 1.83 0 0 0 .79-1.15 11.19 11.19 0 0 0 0-5.63 3.36 3.36 0 0 0-2.45-2.57 2.7 2.7 0 0 1-2-3.09 5.3 5.3 0 0 0-2-5 14.83 14.83 0 0 0-5-3 5.86 5.86 0 0 0-4.73.3 7.31 7.31 0 0 0-3.21 2.36c-.02.34-.31.39-.69.59z"/><path fill="#fff" d="M75.54 86.59a8.18 8.18 0 0 1 .36 1.45 3 3 0 0 0 1.18 2.27c1.29 1.13 2.32 2.42 2 4.26s-.83 3.46-2.49 4.46c-.28.16-.75 0-1.14 0 .06-.39 0-.89.21-1.13a7.06 7.06 0 0 0 1.9-3.29 2.44 2.44 0 0 0-.49-2.23c-.42-.5-.9-.95-1.33-1.45-1-1.13-1.6-2.38-1-3.91a21.49 21.49 0 0 1-2.67.71 5.61 5.61 0 0 1-4.25-1.59 6.57 6.57 0 0 1-2.25-3.24c-.13-.46-.32-1 .27-1.14.22-.06.7.34.88.65 1.08 1.91 2.33 3.7 4.74 3.83a8.66 8.66 0 0 0 3.06-.79c1.52-.51 3-1.26 4.65-1.06.48.05.83.25.72.7a1 1 0 0 1-.74.59 7.52 7.52 0 0 0-3.21.71 2.56 2.56 0 0 0-.4.2zM66.83 60.5c.68-1.84 2.6-1.72 4.06-.6a2.43 2.43 0 0 1-.3 4.26 8.6 8.6 0 0 1-8.29 0 12.48 12.48 0 0 0-4.88-1.34 7.39 7.39 0 0 0-1.57.31 7.18 7.18 0 0 1-.81.06c.08-.33.08-.89.25-1a5.55 5.55 0 0 1 2.59-.61 34.66 34.66 0 0 1 5.52 1.57c2.26.81 4.46 1.13 6.6-.23.86-.55.84-1.25 0-1.83-.59-.42-1.2-.75-1.94-.23-.49.39-.9.15-1.23-.36zm-1.81 12.03a3.11 3.11 0 0 1 2-2.06 2.07 2.07 0 0 1 2.1.32 9.28 9.28 0 0 0 5.37 1.72 3.24 3.24 0 0 1 1 .39c-.35.14-.73.43-1.05.38a11.48 11.48 0 0 1-5.75-2c-.93-.75-2.56.07-2.91 1.07-.15.42.12 1 .23 1.5 0 .23.17.43.2.67-1.76-1.87-5.28-2.3-6.94-.78l.51.41c-.32 0-.6.16-.66.09a1.29 1.29 0 0 1-.38-.74.8.8 0 0 1 .5-.55 11.23 11.23 0 0 1 2.68-.73 18.42 18.42 0 0 1 3.1.31zM80.1 60.34l.7.59-.08.19a4.67 4.67 0 0 1-1-.47.71.71 0 0 1 0-.68 1.85 1.85 0 0 1 1-.38 3.55 3.55 0 0 1 1.43.5 6.31 6.31 0 0 1 2.47 3.1 3.53 3.53 0 0 1-.44 3c.3.18.57.33.82.5a2.45 2.45 0 0 1 .35 3.86c-.14.13-.42.12-.64.17v-.61a.56.56 0 0 1 .07-.16c1-1.68.9-2-.71-3-.61-.38-.77-.86-.35-1.43 1.39-1.92-1.42-5.27-3.09-5.33a2.28 2.28 0 0 0-.53.15zm-2.01 17.67a8.75 8.75 0 0 1 .06-1.08 1.75 1.75 0 0 1 .29-.51c.12.17.33.32.35.51a2.9 2.9 0 0 1-1.68 3.17c-.9.44-1.86.73-2.76 1.16s-1.52.9-2.3 1.32a2 2 0 0 1-.66.1c.08-.21.11-.53.26-.61 1.46-.77 2.92-1.54 4.42-2.22a3 3 0 0 0 2.02-1.84z"/><path fill="#fff" d="M88.13 118.2c-4.42-1.8-3.6-5.25-2.6-7.92a117.28 117.28 0 0 1 7.51-16.68c5.85-10.35 11.91-20.59 13.91-32.5 1.75-10.46-2.32-20.16-11.14-24.7a28.7 28.7 0 0 0-20-2.06 47.27 47.27 0 0 0-26.63 16.67c-6.15 7.61-7.39 16-4.4 25.07 3.74 11.36 8.3 22.35 15.57 32 .82 1.1.38 3.14.53 4.74-1.55-.29-3.64-.06-4.54-1a42.34 42.34 0 0 1-6.83-8.7c-5.14-9.26-10-18.64-12.26-29.2-2.61-12.25 1.33-22.25 9.78-30.75 9.81-9.86 21.72-15.82 35.72-15.88 15-.06 26.17 7.13 31 23.41 2.28 7.72.47 14.82-2.82 21.57-5 10.2-10.54 20.13-15.71 30.24-2 4-3.72 8.16-5.56 12.25-.54 1.18-1.04 2.32-1.53 3.44zm-15.67 49.44c-3.77-.88-7.49-1.57-11.1-2.66a7.23 7.23 0 0 1-5.26-7.37c.06-1 1.1-2.69 1.86-2.79 1-.12 2.91.91 3 1.67.55 3.46 2.81 4.31 5.66 4.22 6.33-.19 12.67-.39 19-.94 2.7-.24 3.82-2.58 4.3-5.13.31-1.63.74-3.22 3-2.86s1.87 2.16 1.85 3.58a10.16 10.16 0 0 1-7.72 9.54c-4.7 1.22-9.6 1.83-14.59 2.74zm1.56-15.25c-4.46-.67-9-1-13.34-2.17-1.75-.45-3.25-2.44-4.49-4-.41-.52 0-2.31.65-2.88s2.57-.65 2.87-.22c3 4.38 7.7 3.2 11.74 3.5a19.59 19.59 0 0 0 13.33-3.68 3.64 3.64 0 0 1 2-1 26.86 26.86 0 0 1 4.08.9 10.57 10.57 0 0 1-1.72 2.87 26.62 26.62 0 0 1-15.12 6.68zm-5.81-21.3c-2.55-.39-5.4-.66-8.16-1.31a4.11 4.11 0 0 1-3.51-4.51c.06-.72.65-1.84 1.19-2 .91-.22 2.63-.11 2.88.4 1.64 3.41 4.88 2.74 7.25 2.37 6.76-1.07 13.42-2.79 20.12-4.26.65-.14 1.41-.59 1.9-.38a4.79 4.79 0 0 1 2.56 1.84c.23.49-.74 2.18-1.44 2.38a621.66 621.66 0 0 1-19 4.9 38 38 0 0 1-3.79.57z"/><path fill="#fff" d="M65.78 142.64a35.9 35.9 0 0 1-5.84-1.82 3.46 3.46 0 0 1-1.21-3.09 3.2 3.2 0 0 1 2.79-1.5c6.19 1.6 11.57-.73 17-3a15 15 0 0 1 5-.91c.74 0 2.14.74 2.16 1.18a4.07 4.07 0 0 1-1 3c-5.2 4.01-11.38 5.34-18.9 6.14zM23.49 96.41a17.74 17.74 0 0 1-2 1c-5.19 1.76-10.4 3.45-15.57 5.27-.72.25-1.17 1.16-1.86 1.59a8.62 8.62 0 0 1-2 .66 6.82 6.82 0 0 1 0-2.3 2.68 2.68 0 0 1 1.48-1.24c5.5-2.23 11-4.47 16.57-6.52.94-.34 2.2.2 3.31.34zm103.53-13.35l-2-1.64c.83-.44 1.78-1.39 2.48-1.24a427.15 427.15 0 0 1 16.58 4.15c.49.13.81.9 1.21 1.37-.68.36-1.47 1.15-2 1-3.73-.91-7.4-2-11.09-3-1.56-.44-3.11-.9-4.66-1.36zm2.91-43.83c1.32-1.14 2-2.09 2.82-2.38 4.78-1.58 9.6-3.1 14.46-4.4.82-.22 1.94.72 2.92 1.13a15.55 15.55 0 0 1-2.57 1.31c-5.19 1.61-10.4 3.15-15.61 4.69-.27.08-.61-.09-2.02-.35zM19.36 53.11c-6.29-3-13.41.06-19.36-3v-1a6.2 6.2 0 0 1 2-.58c4.72.26 9.44.59 14.15.94 2.87.22 3.47.91 3.21 3.64zm-2.29 88.46c4.57-3.51 9.12-7 13.76-10.46.43-.32 1.49.2 2.27.34-.31.66-.43 1.58-.94 2a512.24 512.24 0 0 1-11.78 8.38 14.34 14.34 0 0 1-2.55 1.14c-.25-.49-.5-.96-.76-1.4zm101.26-26.43c3.75 3.41 7.46 6.75 11.09 10.19.37.35.19 1.29.27 2-.59 0-1.43.13-1.72-.19-3.1-3.41-6.12-6.89-9.11-10.39a4.24 4.24 0 0 1-.53-1.61zm-72.99-94.8c-3.14-1-6.51-11.39-4.71-15.93l4.71 15.93zm50.29-7.59C93.9 9.48 96.79 1.61 100.47 0z"/></svg>
