<svg id="Layer_1" xmlns="http://www.w3.org/2000/svg" viewBox="0 0 26 26"><style>.st0{fill:#63b4a6}</style><path class="st0" d="M13.1 0C5.9 0 .1 5.8.1 12.9.1 20 5.9 25.8 13 25.8s13-5.7 13-12.9C26 5.8 20.2 0 13.1 0zm0 24.1c-6.2 0-11.2-5-11.2-11.2s5-11.2 11.2-11.2 11.2 5 11.2 11.2-5 11.2-11.2 11.2z"/><path class="st0" d="M2.8 12.7h3.1c0-1.1.3-2.2.8-3.1L4 8c-.8 1.4-1.2 3-1.2 4.7zm3.9 3.6c-.5-.9-.8-2-.8-3.1H2.8c0 1.7.5 3.3 1.2 4.7l2.7-1.6zm9.7 3c-.9.5-2 .8-3.1.8v3.1c1.7 0 3.3-.5 4.7-1.2l-1.6-2.7zM13.3 2.6v3.1c1.1 0 2.2.3 3.1.8L18 3.9c-1.4-.8-3-1.3-4.7-1.3zM9.7 6.5c.9-.5 2-.8 3.1-.8V2.6c-1.7 0-3.3.5-4.7 1.2l1.6 2.7zm3.1 16.7v-3.1c-1.1 0-2.2-.3-3.1-.8L8.1 22c1.4.8 3 1.2 4.7 1.2zM9.2 19c-.9-.6-1.7-1.4-2.3-2.3l-2.7 1.6c.9 1.4 2 2.6 3.4 3.4L9.2 19zm10-2.2c-.6.9-1.4 1.7-2.3 2.3l1.6 2.7c1.4-.9 2.6-2 3.4-3.4l-2.7-1.6zM7 9.1c.6-.9 1.4-1.7 2.3-2.3L7.7 4.1c-1.4.9-2.6 2-3.4 3.4L7 9.1zm12.5.5c.5.9.8 2 .8 3.1h3.1c0-1.7-.5-3.3-1.2-4.7l-2.7 1.6zm-2.6-2.8c.9.6 1.7 1.4 2.3 2.3l2.7-1.6c-.9-1.4-2-2.6-3.4-3.4l-1.6 2.7zm6.5 6.4h-3.1c0 1.1-.3 2.2-.8 3.1l2.7 1.6c.7-1.4 1.2-3 1.2-4.7zm-4.6-.3c0-.4-.4-.8-.8-.8-.3 0-.6.1-.7.4l-2.3-.2c-.7 0-1.2-.6-1.2-1.2l-.2-2.3c.2-.2.4-.4.4-.7 0-.4-.4-.8-.8-.8-.5 0-.9.4-.9.8 0 .3.1.5.4.7l-.2 2.3c0 .7-.6 1.2-1.2 1.2l-2.3.2c-.2-.2-.4-.4-.7-.4-.4 0-.8.4-.8.8 0 .5.4.9.8.9.3 0 .5-.1.7-.4l2.3.2c.7 0 1.2.6 1.2 1.2l.2 2.3c-.2.2-.4.4-.4.7 0 .4.4.8.8.8.5 0 .9-.4.9-.8 0-.3-.1-.5-.4-.7l.2-2.3c0-.7.6-1.2 1.2-1.2l2.3-.2c.2.2.4.4.7.4.4 0 .8-.4.8-.9zm-5.7.8c-.4 0-.8-.4-.8-.8s.4-.8.8-.8.8.4.8.8c0 .5-.4.8-.8.8z"/></svg>
