<svg xmlns="http://www.w3.org/2000/svg" width="73" height="73" viewBox="0 0 73 73">
  <metadata><?xpacket begin="﻿" id="W5M0MpCehiHzreSzNTczkc9d"?>
<x:xmpmeta xmlns:x="adobe:ns:meta/" x:xmptk="Adobe XMP Core 5.6-c138 79.159824, 2016/09/14-01:09:01        ">
   <rdf:RDF xmlns:rdf="http://www.w3.org/1999/02/22-rdf-syntax-ns#">
      <rdf:Description rdf:about=""/>
   </rdf:RDF>
</x:xmpmeta>
<?xpacket end="w"?></metadata>
<defs>
    <style>
      .cls-1 {
        fill: #ff4800;
        fill-rule: evenodd;
      }
    </style>
  </defs>
  <path class="cls-1" d="M73.015,36.5A36.515,36.515,0,1,1,36.5-.015,36.518,36.518,0,0,1,73.015,36.5h0ZM34.218,4.55A2.282,2.282,0,1,0,36.5,2.267,2.281,2.281,0,0,0,34.218,4.55h0ZM6.831,36.5A2.282,2.282,0,1,0,4.55,38.782,2.281,2.281,0,0,0,6.831,36.5h0ZM38.782,68.45A2.282,2.282,0,1,0,36.5,70.733a2.281,2.281,0,0,0,2.282-2.282h0Zm25.1-31.95A27.386,27.386,0,1,0,36.5,63.886,27.416,27.416,0,0,0,63.886,36.5h0Zm6.847,0a2.282,2.282,0,1,0-2.282,2.282A2.281,2.281,0,0,0,70.733,36.5h0Zm0,0"/>
  <path class="cls-1" d="M24.26,30.979v-7.4l28.891,12.84L24.261,49.256v-7.4a6.208,6.208,0,0,0,0-10.872h0Z"/>
</svg>
