<svg xmlns="http://www.w3.org/2000/svg" viewBox="0 0 79.94 96.68"><path fill="#fff" d="M17.6 58.25c-5.89 10-11.09 20.17-17.34 30-1.23 1.94 2.2 2.62 3.25 1.21 6.93-9.26 13.46-20.09 17.37-31 .68-1.91-2.67-1.22-3.28-.18z"/><path fill="#fff" d="M3.29 90.24c7.87-3.64 21.5-8.23 22.85 5.15.23 2.3 4.14 1.23 4-.88-.45-5.66-3.89-10.16-9.52-11.5-6.78-1.62-13.19 1.77-18.76 5.24-1.78 1.1-.17 2.75 1.46 2zm34.75-26.53c-5.79 8.62-7 19.58-7.48 29.71-.08 2 3.75 1.32 3.9-.45.86-10.11 2.16-19.47 6.89-28.6 1.14-2.21-2.37-2.06-3.31-.66zm5.13 1.17a84.58 84.58 0 0 1 8.13 14.27c2.13 4.76 4.85 10.05 5.59 15.23.33 2.35 4.16 1.26 4-.87a10.24 10.24 0 0 1 1.67-5.31c1.55-2.71 2.33-3.37 5.62-3.25 3.64.13 5.63 1.41 8.52 3.5a2.31 2.31 0 0 0 3.25-1.51c.27-4.53-4.69-8.74-7.28-12A450.13 450.13 0 0 0 59.34 58.4c-1.33-1.55-4.58.66-3.19 2.43 3.4 4.3 6.89 8.52 10.29 12.82 1.6 2 3.18 4 4.76 6.08 1.34 1.73 4.91 5 4.78 7.22l3.24-1.51c-4.1-3-9.94-6.69-15.07-3.89-4.21 2.31-7.62 8.16-7.26 12.88l4-.87c-.79-5.54-3.55-11-5.84-16.1a63.9 63.9 0 0 0-8.67-14.41c-1-1.17-4.14.57-3.21 1.88zM28.76 2.36c-6.21 2.3-12.59 5.91-16.46 11.43-3.73 5.29-3.66 12.78-3 19 1.55 13.58 10.87 24 24.62 25.88 12.07 1.66 27.72-3.38 34.77-13.81 8.34-12.33.61-27.32-9.15-35.91-11-9.68-27.88-12.37-40.37-3.63-1.85 1.3-.09 3.53 1.79 2.57 14.29-7.26 28-4.34 39 7.14 4.86 5 8 11.29 8 18.41 0 9.19-6.07 14.89-13.91 18.53-13 6-30.73 4.29-37.88-9.66-3.2-6.23-4.09-14.71-2.84-21.57 1.47-8 9.54-12.9 16.51-15.84 2.22-.94 1-3.3-1.17-2.51z"/><path fill="#fff" d="M28.87 9.56c-18 1.9-14.42 29.26-2.32 36.57 1 .62 3.71-1 2.55-2.16-4.07-3.93-7.08-8.38-8.19-14-1.3-6.64-.21-15.86 7.7-17.45 1.66-.33 2.54-3.18.26-2.94z"/><path fill="#fff" d="M26.62 15.6c-7.93 6.94-3.46 17.24 3.12 23.3 1.47 1.36 4.76-.8 3.18-2.42-4.87-5-10-12.84-3.72-19 1.65-1.61-1.15-3.15-2.58-1.89zm25.55 51.74c2.43 3.49 5.1 6.83 7.73 10.18 1.25 1.6 4.56-.64 3.18-2.43-2.49-3.26-4.95-6.59-7.64-9.69-1-1.19-4.25.54-3.27 1.94zm-26.68-5.37a59.35 59.35 0 0 0-6.75 15.36c-.68 2.35 3.3 1.94 3.92 0a84.43 84.43 0 0 1 6.32-14.58c1.22-2.26-2.48-2.4-3.49-.79z"/></svg>
