<svg width="27" height="23" viewBox="0 0 27 23" fill="none" xmlns="http://www.w3.org/2000/svg"><path d="M10.5999 21.5C9.82238 21.5 9.9545 21.2064 9.68634 20.4661L7.3999 12.9412L24.9999 2.5" fill="#636363"/><path d="M10.6 21.5C11.2 21.5 11.4651 21.2256 11.8 20.9L15 17.7884L11.0084 15.3814" fill="#777777"/><path d="M11.0079 15.382L20.6799 22.5278C21.7836 23.1368 22.5802 22.8215 22.8551 21.5031L26.7921 2.95048C27.1952 1.33444 26.1761 0.601484 25.1203 1.08084L2.00226 9.99504C0.424238 10.628 0.433438 11.5084 1.71462 11.9006L7.64722 13.7523L21.3818 5.0873C22.0302 4.69412 22.6253 4.90551 22.1369 5.33898" fill="#777777"/></svg>
