<svg 
 xmlns="http://www.w3.org/2000/svg"
 xmlns:xlink="http://www.w3.org/1999/xlink"
 width="17px" height="17px">
<path fill-rule="evenodd"  fill="rgb(255, 255, 255)"
 d="M15.500,10.000 C14.672,10.000 14.000,9.328 14.000,8.500 C14.000,7.671 14.672,7.000 15.500,7.000 C16.328,7.000 17.000,7.671 17.000,8.500 C17.000,9.328 16.328,10.000 15.500,10.000 ZM12.389,4.611 C11.803,4.025 11.803,3.076 12.389,2.490 C12.975,1.904 13.925,1.904 14.510,2.490 C15.096,3.076 15.096,4.025 14.510,4.611 C13.925,5.197 12.975,5.197 12.389,4.611 ZM8.500,17.000 C7.672,17.000 7.000,16.329 7.000,15.500 C7.000,14.672 7.672,14.000 8.500,14.000 C9.328,14.000 10.000,14.672 10.000,15.500 C10.000,16.329 9.328,17.000 8.500,17.000 ZM8.500,10.000 C7.672,10.000 7.000,9.328 7.000,8.500 C7.000,7.671 7.672,7.000 8.500,7.000 C9.328,7.000 10.000,7.671 10.000,8.500 C10.000,9.328 9.328,10.000 8.500,10.000 ZM8.500,3.000 C7.672,3.000 7.000,2.328 7.000,1.500 C7.000,0.672 7.672,0.000 8.500,0.000 C9.328,0.000 10.000,0.672 10.000,1.500 C10.000,2.328 9.328,3.000 8.500,3.000 ZM2.490,14.510 C1.904,13.924 1.904,12.975 2.490,12.389 C3.075,11.803 4.025,11.803 4.611,12.389 C5.197,12.975 5.197,13.924 4.611,14.510 C4.025,15.096 3.075,15.096 2.490,14.510 ZM2.462,4.567 C1.872,3.977 1.872,3.020 2.462,2.431 C3.052,1.840 4.008,1.840 4.598,2.431 C5.188,3.020 5.188,3.977 4.598,4.567 C4.008,5.157 3.052,5.157 2.462,4.567 ZM3.000,8.500 C3.000,9.328 2.328,10.000 1.500,10.000 C0.672,10.000 0.000,9.328 0.000,8.500 C0.000,7.671 0.672,7.000 1.500,7.000 C2.328,7.000 3.000,7.671 3.000,8.500 ZM14.570,12.402 C15.160,12.992 15.160,13.948 14.570,14.538 C13.980,15.128 13.023,15.128 12.433,14.538 C11.843,13.948 11.843,12.992 12.433,12.402 C13.023,11.812 13.980,11.812 14.570,12.402 Z"/>
</svg>