<svg 
 xmlns="http://www.w3.org/2000/svg"
 xmlns:xlink="http://www.w3.org/1999/xlink"
 width="15px" height="15px">
<path fill-rule="evenodd"  fill="rgb(124, 126, 136)"
 d="M14.389,13.475 L12.975,14.889 L10.899,12.813 C9.784,13.562 8.444,14.000 7.000,14.000 C3.134,14.000 -0.000,10.866 -0.000,7.000 C-0.000,3.134 3.134,0.000 7.000,0.000 C10.866,0.000 14.000,3.134 14.000,7.000 C14.000,8.699 13.370,10.236 12.363,11.449 L14.389,13.475 ZM7.000,2.000 C4.239,2.000 2.000,4.238 2.000,7.000 C2.000,9.761 4.239,12.000 7.000,12.000 C9.761,12.000 12.000,9.761 12.000,7.000 C12.000,4.238 9.761,2.000 7.000,2.000 Z"/>
</svg>