<svg 
 xmlns="http://www.w3.org/2000/svg"
 xmlns:xlink="http://www.w3.org/1999/xlink"
 width="18px" height="16px">
<path fill-rule="evenodd"  opacity="0.4" fill="rgb(0, 0, 0)"
 d="M18.012,2.544 C17.368,2.833 16.676,3.027 15.949,3.113 C16.691,2.667 17.261,1.960 17.529,1.117 C16.834,1.531 16.066,1.831 15.247,1.993 C14.592,1.291 13.659,0.854 12.625,0.854 C10.641,0.854 9.033,2.469 9.033,4.462 C9.033,4.744 9.065,5.021 9.126,5.284 C6.141,5.134 3.494,3.697 1.722,1.514 C1.413,2.047 1.236,2.667 1.236,3.328 C1.236,4.580 1.870,5.684 2.834,6.331 C2.245,6.313 1.691,6.151 1.207,5.880 C1.207,5.895 1.207,5.910 1.207,5.926 C1.207,7.674 2.445,9.133 4.088,9.463 C3.787,9.546 3.469,9.590 3.142,9.590 C2.910,9.590 2.685,9.568 2.466,9.525 C2.923,10.959 4.250,12.002 5.821,12.031 C4.592,12.999 3.043,13.576 1.360,13.576 C1.070,13.576 0.784,13.559 0.503,13.526 C2.093,14.549 3.981,15.147 6.010,15.147 C12.617,15.147 16.230,9.648 16.230,4.880 C16.230,4.724 16.227,4.568 16.220,4.413 C16.922,3.904 17.531,3.269 18.012,2.544 Z"/>
</svg>