<svg width="60" height="56" viewBox="0 0 60 56" fill="none" xmlns="http://www.w3.org/2000/svg">
<path d="M41.1141 10.5715L42.4515 14.4762L37.875 13.46L41.1141 10.5715Z" stroke="#4C71DD"/>
<path d="M58.7104 40.115L57.8137 43.3194L55.0833 40.8013L58.7104 40.115Z" stroke="#4C71DD"/>
<path d="M48.9574 1.67658L47.3907 4.66975L45.25 1.7339L48.9574 1.67658Z" stroke="#4C71DD"/>
<path d="M18.5748 48.7284L17.2744 50.9713L15.75 48.522L18.5748 48.7284Z" stroke="#4C71DD"/>
<path d="M18.5748 6.35714L17.2744 8.60009L15.75 6.15074L18.5748 6.35714Z" stroke="#4C71DD"/>
<path d="M3.39443 19.1151L1.16325 20.3977L1.04975 17.5029L3.39443 19.1151Z" stroke="#4C71DD"/>
<path fill-rule="evenodd" clip-rule="evenodd" d="M11.5375 25.975C11.5375 33.3911 17.428 39.4125 24.7062 39.4125C31.9845 39.4125 37.875 33.3911 37.875 25.975C37.875 18.5589 31.9845 12.5375 24.7062 12.5375C17.428 12.5375 11.5375 18.5589 11.5375 25.975ZM35.725 25.975C35.725 32.2141 30.7864 37.2625 24.7062 37.2625C18.6261 37.2625 13.6875 32.2141 13.6875 25.975C13.6875 19.7358 18.6261 14.6875 24.7062 14.6875C30.7864 14.6875 35.725 19.7358 35.725 25.975Z" fill="#D8E7FF"/>
<path fill-rule="evenodd" clip-rule="evenodd" d="M24.7826 13.104C21.3598 13.104 18.1428 14.4365 15.723 16.8568C13.3021 19.2767 11.9691 22.4936 11.9691 25.9164C11.9691 29.3381 13.3021 32.5556 15.723 34.9754C18.1428 37.3953 21.3598 38.7283 24.7826 38.7283C28.2048 38.7283 31.4218 37.3953 33.8411 34.9754C38.8366 29.9799 38.8366 21.8518 33.8411 16.8568C31.4218 14.4365 28.2043 13.104 24.7826 13.104ZM24.7826 39.427C21.1738 39.427 17.7806 38.0215 15.2285 35.4699C12.6759 32.9179 11.2698 29.5246 11.2698 25.9164C11.2698 22.3076 12.6759 18.9144 15.2285 16.3623C17.7806 13.8103 21.1738 12.4053 24.7826 12.4053C28.3908 12.4053 31.7841 13.8103 34.3356 16.3623C39.6031 21.6304 39.6031 30.2014 34.3356 35.4699C31.7841 38.0215 28.3908 39.427 24.7826 39.427Z" fill="#4C71DD"/>
<path fill-rule="evenodd" clip-rule="evenodd" d="M24.7804 15.1707C21.9107 15.1707 19.2125 16.2893 17.1834 18.3205C15.1538 20.3506 14.0353 23.0489 14.0353 25.9186C14.0353 28.7872 15.1538 31.4844 17.1829 33.5119C19.2125 35.5431 21.9107 36.6616 24.7804 36.6616C27.6507 36.6616 30.3484 35.5431 32.378 33.5119C34.4092 31.4844 35.5272 28.7872 35.5272 25.9186C35.5272 23.0489 34.4092 20.3506 32.378 18.321C30.3484 16.2893 27.6507 15.1707 24.7804 15.1707ZM24.7805 37.3604C21.7237 37.3604 18.8497 36.1693 16.6889 34.0058C14.5277 31.8472 13.3371 28.9743 13.3371 25.9186C13.3371 22.8624 14.5277 19.9884 16.6889 17.8265C18.8497 15.6631 21.7237 14.4725 24.7805 14.4725C27.8372 14.4725 30.7112 15.6631 32.8725 17.8271C35.0349 19.9884 36.226 22.8624 36.226 25.9186C36.226 28.9743 35.0349 31.8472 32.872 34.0064C30.7112 36.1693 27.8372 37.3604 24.7805 37.3604Z" fill="#4C71DD"/>
<path fill-rule="evenodd" clip-rule="evenodd" d="M38.076 39.5587C37.9868 39.5587 37.897 39.5248 37.8288 39.4566L33.8411 35.4699C33.7045 35.3334 33.7045 35.112 33.8411 34.9754C33.9776 34.8389 34.199 34.8389 34.3356 34.9754L38.3233 38.9621C38.4598 39.0986 38.4598 39.3201 38.3233 39.4566C38.255 39.5248 38.1653 39.5587 38.076 39.5587Z" fill="#4C71DD"/>
<path d="M36.7372 40.8074L39.4875 38.0865L53.4232 52.1083C53.4232 52.1083 53.501 53.5615 52.6937 54.1959C52.0169 54.7277 50.4551 54.4405 50.4551 54.4405L36.7372 40.8074Z" fill="#D8E7FF"/>
<path fill-rule="evenodd" clip-rule="evenodd" d="M37.1085 40.6729L50.159 53.7239C50.8056 54.3716 51.9435 54.3711 52.5901 53.7245C53.2609 53.0542 53.2604 51.9631 52.5901 51.2917L39.538 38.2461L37.1085 40.6729ZM51.3744 54.9247C50.7272 54.9247 50.1198 54.6742 49.6646 54.2179L36.3674 40.9201C36.3018 40.8546 36.2652 40.7653 36.2652 40.6729C36.2652 40.5799 36.3023 40.4912 36.3679 40.4256L39.2914 37.5049C39.4268 37.3683 39.6488 37.3683 39.7853 37.5049L53.0847 50.7978C54.0275 51.7416 54.0275 53.2762 53.0847 54.2184C52.6289 54.6742 52.0215 54.9247 51.3744 54.9247Z" fill="#4C71DD"/>
<path fill-rule="evenodd" clip-rule="evenodd" d="M17.9203 29.9428C17.7273 29.9428 17.5709 29.7864 17.5709 29.5929V26.613C17.5709 26.4195 17.7273 26.2631 17.9203 26.2631C18.1132 26.2631 18.2696 26.4195 18.2696 26.613V29.5929C18.2696 29.7864 18.1132 29.9428 17.9203 29.9428Z" fill="#4C71DD"/>
<path fill-rule="evenodd" clip-rule="evenodd" d="M21.3501 29.9428C21.1566 29.9428 21.0002 29.7864 21.0002 29.5929V23.0983C21.0002 22.9053 21.1566 22.7489 21.3501 22.7489C21.5431 22.7489 21.6995 22.9053 21.6995 23.0983V29.5929C21.6995 29.7864 21.5431 29.9428 21.3501 29.9428Z" fill="#4C71DD"/>
<path fill-rule="evenodd" clip-rule="evenodd" d="M24.7826 29.9429C24.5891 29.9429 24.4327 29.7864 24.4327 29.5929V25.1387C24.4327 24.9457 24.5891 24.7893 24.7826 24.7893C24.9756 24.7893 25.132 24.9457 25.132 25.1387V29.5929C25.132 29.7864 24.9756 29.9429 24.7826 29.9429Z" fill="#4C71DD"/>
<path fill-rule="evenodd" clip-rule="evenodd" d="M28.2118 29.9428C28.0188 29.9428 27.8624 29.7864 27.8624 29.5929V26.5308C27.8624 26.3378 28.0188 26.1814 28.2118 26.1814C28.4053 26.1814 28.5617 26.3378 28.5617 26.5308V29.5929C28.5617 29.7864 28.4053 29.9428 28.2118 29.9428Z" fill="#4C71DD"/>
<path fill-rule="evenodd" clip-rule="evenodd" d="M31.6411 29.9428C31.4481 29.9428 31.2917 29.7864 31.2917 29.5929V22.2393C31.2917 22.0458 31.4481 21.8894 31.6411 21.8894C31.8346 21.8894 31.991 22.0458 31.991 22.2393V29.5929C31.991 29.7864 31.8346 29.9428 31.6411 29.9428Z" fill="#4C71DD"/>
</svg>
