<svg width="65" height="43" viewBox="0 0 65 43" fill="none" xmlns="http://www.w3.org/2000/svg">
<rect x="8.56989" y="37.4517" width="24.086" height="2.08064" rx="1.04032" fill="#D8E7FF"/>
<path fill-rule="evenodd" clip-rule="evenodd" d="M36.5909 42.9203H4.15733C2.60688 42.9203 1.34546 41.649 1.34546 40.0864V21.0402C1.34546 19.4804 2.60688 18.2119 4.15733 18.2119H31.7172C31.9643 18.2119 32.1646 18.4137 32.1646 18.6627C32.1646 18.9117 31.9643 19.1135 31.7172 19.1135H4.15733C3.1003 19.1135 2.24077 19.9777 2.24077 21.0402V40.0864C2.24077 41.1517 3.1003 42.0187 4.15733 42.0187H36.5909C36.8379 42.0187 37.0382 42.2205 37.0382 42.4695C37.0382 42.7184 36.8379 42.9203 36.5909 42.9203" fill="#4C71DD"/>
<rect x="31.9677" y="0.693604" width="23.3979" height="41.6129" rx="4" fill="#D8E7FF"/>
<rect x="34.0322" y="6.93542" width="19.2688" height="27.7419" fill="white"/>
<path fill-rule="evenodd" clip-rule="evenodd" d="M34.0798 1.40723C33.0235 1.40723 32.1647 2.27139 32.1647 3.33391V40.0864C32.1647 41.1517 33.0235 42.0186 34.0798 42.0186H52.9771C54.0327 42.0186 54.8922 41.1517 54.8922 40.0864V3.33391C54.8922 2.27139 54.0327 1.40723 52.9771 1.40723H34.0798ZM52.977 42.9203H34.0798C32.53 42.9203 31.2693 41.649 31.2693 40.0864V3.33391C31.2693 1.77412 32.53 0.505615 34.0798 0.505615H52.977C54.5261 0.505615 55.7868 1.77412 55.7868 3.33391V40.0864C55.7868 41.649 54.5261 42.9203 52.977 42.9203V42.9203Z" fill="#4C71DD"/>
<path fill-rule="evenodd" clip-rule="evenodd" d="M43.5277 37.3941C42.8932 37.3941 42.3777 37.917 42.3777 38.5592C42.3777 39.1994 42.8932 39.7196 43.5277 39.7196C44.1629 39.7196 44.679 39.1994 44.679 38.5592C44.679 37.917 44.1629 37.3941 43.5277 37.3941ZM43.5276 40.6212C42.3997 40.6212 41.4824 39.696 41.4824 38.5592C41.4824 37.4197 42.3997 36.4932 43.5276 36.4932C44.6562 36.4932 45.5735 37.4197 45.5735 38.5592C45.5735 39.696 44.6562 40.6212 43.5276 40.6212V40.6212Z" fill="#4C71DD"/>
<path fill-rule="evenodd" clip-rule="evenodd" d="M34.2896 34.067H52.767V7.07276H34.2896V34.067ZM53.2143 34.968H33.8422C33.5945 34.968 33.3942 34.7661 33.3942 34.5179V6.62195C33.3942 6.37297 33.5945 6.17114 33.8422 6.17114H53.2143C53.4613 6.17114 53.6616 6.37297 53.6616 6.62195V34.5179C53.6616 34.7661 53.4613 34.968 53.2143 34.968V34.968Z" fill="#4C71DD"/>
<path fill-rule="evenodd" clip-rule="evenodd" d="M44.6632 4.45947H40.1604C39.9134 4.45947 39.7131 4.25765 39.7131 4.00867C39.7131 3.75968 39.9134 3.55786 40.1604 3.55786H44.6632C44.9109 3.55786 45.1112 3.75968 45.1112 4.00867C45.1112 4.25765 44.9109 4.45947 44.6632 4.45947ZM46.8977 4.45947H45.5963C45.3486 4.45947 45.1483 4.25765 45.1483 4.00867C45.1483 3.75968 45.3486 3.55786 45.5963 3.55786H46.8977C47.1454 3.55786 47.3457 3.75968 47.3457 4.00867C47.3457 4.25765 47.1454 4.45947 46.8977 4.45947V4.45947Z" fill="#4C71DD"/>
<path fill-rule="evenodd" clip-rule="evenodd" d="M7.86395 39.8769H31.2694V21.2559H7.86395V39.8769ZM31.7173 40.7779H7.41588C7.16882 40.7779 6.96857 40.576 6.96857 40.3271V20.8051C6.96857 20.5561 7.16882 20.3542 7.41588 20.3542H31.7173C31.9644 20.3542 32.1646 20.5561 32.1646 20.8051V40.3271C32.1646 40.576 31.9644 40.7779 31.7173 40.7779V40.7779Z" fill="#4C71DD"/>
<path fill-rule="evenodd" clip-rule="evenodd" d="M4.82477 28.9292C4.57703 28.9292 4.37677 28.7274 4.37677 28.4791V27.1704C4.37677 26.9214 4.57703 26.7196 4.82477 26.7196C5.07182 26.7196 5.27208 26.9214 5.27208 27.1704V28.4791C5.27208 28.7274 5.07182 28.9292 4.82477 28.9292ZM4.82477 34.4138C4.57703 34.4138 4.37677 34.212 4.37677 33.963V29.4196C4.37677 29.1706 4.57703 28.9688 4.82477 28.9688C5.07182 28.9688 5.27208 29.1706 5.27208 29.4196V33.963C5.27208 34.212 5.07182 34.4138 4.82477 34.4138V34.4138Z" fill="#4C71DD"/>
<path fill-rule="evenodd" clip-rule="evenodd" d="M37.9886 12.0199H36.1415C35.8945 12.0199 35.6942 11.8181 35.6942 11.5691C35.6942 11.3201 35.8945 11.1183 36.1415 11.1183H37.9886C38.2356 11.1183 38.4359 11.3201 38.4359 11.5691C38.4359 11.8181 38.2356 12.0199 37.9886 12.0199ZM50.9186 12.0199H40.3277C40.0806 12.0199 39.8804 11.8181 39.8804 11.5691C39.8804 11.3201 40.0806 11.1183 40.3277 11.1183H50.9186C51.1657 11.1183 51.366 11.3201 51.366 11.5691C51.366 11.8181 51.1657 12.0199 50.9186 12.0199V12.0199Z" fill="#4C71DD"/>
<path fill-rule="evenodd" clip-rule="evenodd" d="M39.1592 10.8429C38.76 10.8429 38.4359 11.1689 38.4359 11.569C38.4359 11.972 38.76 12.3 39.1592 12.3C39.5569 12.3 39.8804 11.972 39.8804 11.569C39.8804 11.1689 39.5569 10.8429 39.1592 10.8429ZM39.1591 13.2017C38.2665 13.2017 37.5412 12.4693 37.5412 11.569C37.5412 10.6716 38.2665 9.94128 39.1591 9.94128C40.0503 9.94128 40.7756 10.6716 40.7756 11.569C40.7756 12.4693 40.0503 13.2017 39.1591 13.2017V13.2017Z" fill="#4C71DD"/>
<path fill-rule="evenodd" clip-rule="evenodd" d="M42.3585 16.8033H36.1415C35.8945 16.8033 35.6942 16.6015 35.6942 16.3525C35.6942 16.1036 35.8945 15.9017 36.1415 15.9017H42.3585C42.6055 15.9017 42.8058 16.1036 42.8058 16.3525C42.8058 16.6015 42.6055 16.8033 42.3585 16.8033ZM50.9186 16.8033H44.6982C44.4512 16.8033 44.2509 16.6015 44.2509 16.3525C44.2509 16.1036 44.4512 15.9017 44.6982 15.9017H50.9186C51.1657 15.9017 51.3659 16.1036 51.3659 16.3525C51.3659 16.6015 51.1657 16.8033 50.9186 16.8033V16.8033Z" fill="#4C71DD"/>
<path fill-rule="evenodd" clip-rule="evenodd" d="M43.5277 15.6271C43.1299 15.6271 42.8058 15.9524 42.8058 16.3525C42.8058 16.7562 43.1299 17.0842 43.5277 17.0842C43.9268 17.0842 44.2509 16.7562 44.2509 16.3525C44.2509 15.9524 43.9268 15.6271 43.5277 15.6271ZM43.5276 17.9858C42.6364 17.9858 41.9104 17.2534 41.9104 16.3525C41.9104 15.4551 42.6364 14.7255 43.5276 14.7255C44.4202 14.7255 45.1455 15.4551 45.1455 16.3525C45.1455 17.2534 44.4202 17.9858 43.5276 17.9858V17.9858Z" fill="#4C71DD"/>
<path fill-rule="evenodd" clip-rule="evenodd" d="M43.5277 19.778C40.2045 19.778 37.5013 22.5015 37.5013 25.8493C37.5013 29.1998 40.2045 31.9261 43.5277 31.9261C46.8522 31.9261 49.5574 29.1998 49.5574 25.8493C49.5574 22.5015 46.8522 19.778 43.5277 19.778ZM43.5276 32.8278C39.711 32.8278 36.606 29.6971 36.606 25.8493C36.606 22.0042 39.711 18.8763 43.5276 18.8763C47.3456 18.8763 50.452 22.0042 50.452 25.8493C50.452 29.6971 47.3456 32.8278 43.5276 32.8278V32.8278Z" fill="#4C71DD"/>
<path fill-rule="evenodd" clip-rule="evenodd" d="M43.5277 19.778C41.9738 19.778 40.6622 22.5584 40.6622 25.8493C40.6622 29.1429 41.9738 31.9261 43.5277 31.9261C45.0837 31.9261 46.3981 29.1429 46.3981 25.8493C46.3981 22.5584 45.0837 19.778 43.5277 19.778ZM43.5276 32.8278C41.4184 32.8278 39.7668 29.7623 39.7668 25.8493C39.7668 21.9391 41.4184 18.8763 43.5276 18.8763C45.639 18.8763 47.2933 21.9391 47.2933 25.8493C47.2933 29.7623 45.639 32.8278 43.5276 32.8278V32.8278Z" fill="#4C71DD"/>
<path fill-rule="evenodd" clip-rule="evenodd" d="M50.0047 26.2994H37.054C36.8062 26.2994 36.606 26.0975 36.606 25.8492C36.606 25.6003 36.8062 25.3984 37.054 25.3984H50.0047C50.2517 25.3984 50.452 25.6003 50.452 25.8492C50.452 26.0975 50.2517 26.2994 50.0047 26.2994" fill="#4C71DD"/>
<path fill-rule="evenodd" clip-rule="evenodd" d="M43.5276 32.8278C43.2799 32.8278 43.0797 32.626 43.0797 32.377V19.3202C43.0797 19.0719 43.2799 18.8701 43.5276 18.8701C43.7747 18.8701 43.975 19.0719 43.975 19.3202V32.377C43.975 32.626 43.7747 32.8278 43.5276 32.8278" fill="#4C71DD"/>
<path fill-rule="evenodd" clip-rule="evenodd" d="M43.5498 23.3642C41.7481 23.3642 39.9396 23.0597 38.1366 22.4508C37.9019 22.3717 37.7753 22.1165 37.8544 21.88C37.9322 21.6442 38.1861 21.5173 38.4201 21.5963C41.8383 22.7497 45.275 22.7497 48.634 21.597C48.8707 21.5159 49.1226 21.6428 49.2017 21.8779C49.2815 22.1137 49.1563 22.3697 48.923 22.4501C47.1475 23.0597 45.3521 23.3642 43.5498 23.3642" fill="#4C71DD"/>
<path fill-rule="evenodd" clip-rule="evenodd" d="M38.2782 29.9862C38.0904 29.9862 37.9169 29.8669 37.8543 29.6783C37.7752 29.4418 37.9025 29.1866 38.1365 29.1075C41.7439 27.8952 45.3726 27.8959 48.9222 29.1082C49.1562 29.188 49.2807 29.4446 49.2016 29.6797C49.1224 29.9162 48.8685 30.0424 48.6345 29.9626C45.2742 28.8141 41.8368 28.8148 38.42 29.9633C38.3732 29.9786 38.325 29.9862 38.2782 29.9862" fill="#4C71DD"/>
<path d="M23.5002 1.98404L24.8343 5.85213L20.2689 4.84542L23.5002 1.98404Z" stroke="#4C71DD"/>
<path d="M63.8011 32.6801L62.9066 35.8544L60.1828 33.36L63.8011 32.6801Z" stroke="#4C71DD"/>
<path d="M63.8813 1.66262L62.3184 4.6277L60.1829 1.71941L63.8813 1.66262Z" stroke="#4C71DD"/>
<path d="M21.0223 13.8445L19.725 16.0664L18.2043 13.6401L21.0223 13.8445Z" stroke="#4C71DD"/>
<path d="M3.38859 12.6939L1.1628 13.9644L1.04958 11.0968L3.38859 12.6939Z" stroke="#4C71DD"/>
</svg>
