<svg width="64" height="58" viewBox="0 0 64 58" fill="none" xmlns="http://www.w3.org/2000/svg">
<rect x="35.3929" y="30.1011" width="13.5" height="10.2472" fill="#D8E7FF"/>
<rect x="8.39288" y="10.8877" width="46.9286" height="7.68539" fill="#D8E7FF"/>
<path fill-rule="evenodd" clip-rule="evenodd" d="M8.53231 49.1743H54.5397V11.0273H8.53231V49.1743ZM54.9306 49.9551H8.14087C7.92499 49.9551 7.75 49.7804 7.75 49.5644V10.6373C7.75 10.4218 7.92499 10.2472 8.14087 10.2472H54.9306C55.1464 10.2472 55.3214 10.4218 55.3214 10.6373V49.5644C55.3214 49.7804 55.1464 49.9551 54.9306 49.9551Z" fill="#4C71DD"/>
<path fill-rule="evenodd" clip-rule="evenodd" d="M54.9306 19.2134H8.14087C7.92499 19.2134 7.75 19.0702 7.75 18.893C7.75 18.7163 7.92499 18.573 8.14087 18.573H54.9306C55.1464 18.573 55.3214 18.7163 55.3214 18.893C55.3214 19.0702 55.1464 19.2134 54.9306 19.2134Z" fill="#4C71DD"/>
<path fill-rule="evenodd" clip-rule="evenodd" d="M12.57 13.5368C12.0869 13.5368 11.6942 13.9295 11.6942 14.4134C11.6942 14.8934 12.0869 15.2834 12.57 15.2834C13.0548 15.2834 13.4486 14.8934 13.4486 14.4134C13.4486 13.9295 13.0548 13.5368 12.57 13.5368ZM12.57 16.0112C11.6853 16.0112 10.9643 15.2946 10.9643 14.4134C10.9643 13.529 11.6853 12.809 12.57 12.809C13.4571 12.809 14.1786 13.529 14.1786 14.4134C14.1786 15.2946 13.4571 16.0112 12.57 16.0112Z" fill="#4C71DD"/>
<path fill-rule="evenodd" clip-rule="evenodd" d="M18.3563 13.5368C17.8647 13.5368 17.4802 13.9217 17.4802 14.4134C17.4802 14.8934 17.8731 15.2834 18.3563 15.2834C18.8407 15.2834 19.2341 14.8934 19.2341 14.4134C19.2341 13.9295 18.8407 13.5368 18.3563 13.5368ZM18.3563 16.0112C17.4706 16.0112 16.75 15.2946 16.75 14.4134C16.75 13.529 17.4706 12.809 18.3563 12.809C19.2431 12.809 19.9643 13.529 19.9643 14.4134C19.9643 15.2946 19.2431 16.0112 18.3563 16.0112Z" fill="#4C71DD"/>
<path fill-rule="evenodd" clip-rule="evenodd" d="M54.9273 14.7303H28.7155C28.4979 14.7303 28.3214 14.587 28.3214 14.4103C28.3214 14.2331 28.4979 14.0898 28.7155 14.0898H54.9273C55.145 14.0898 55.3214 14.2331 55.3214 14.4103C55.3214 14.587 55.145 14.7303 54.9273 14.7303Z" fill="#4C71DD"/>
<path fill-rule="evenodd" clip-rule="evenodd" d="M14.3251 24.1995H49.3893V22.5533H14.3251V24.1995ZM49.7836 24.9775H13.9307C13.7123 24.9775 13.5357 24.8035 13.5357 24.5888V22.164C13.5357 21.9493 13.7123 21.7753 13.9307 21.7753H49.7836C50.002 21.7753 50.1786 21.9493 50.1786 22.164V24.5888C50.1786 24.8035 50.002 24.9775 49.7836 24.9775Z" fill="#4C71DD"/>
<path fill-rule="evenodd" clip-rule="evenodd" d="M35.7613 30.0674C35.543 30.0674 35.3661 30.2372 35.3661 30.4466V39.9974C35.3661 40.206 35.5469 40.382 35.7613 40.382H48.5267C48.7393 40.382 48.9197 40.206 48.9197 39.9974V30.4466C48.9197 30.2372 48.7432 30.0674 48.5267 30.0674H35.7613ZM48.5713 40.9888H35.717C35.1838 40.9888 34.75 40.5657 34.75 40.0458V30.3985C34.75 29.8816 35.1838 29.4607 35.717 29.4607H48.5713C49.1032 29.4607 49.5357 29.8816 49.5357 30.3985V40.0458C49.5357 40.5657 49.1032 40.9888 48.5713 40.9888Z" fill="#4C71DD"/>
<path fill-rule="evenodd" clip-rule="evenodd" d="M32.4679 30.1011H13.8898C13.694 30.1011 13.5357 29.9579 13.5357 29.7807C13.5357 29.6039 13.694 29.4607 13.8898 29.4607H32.4679C32.6631 29.4607 32.8214 29.6039 32.8214 29.7807C32.8214 29.9579 32.6631 30.1011 32.4679 30.1011Z" fill="#4C71DD"/>
<path fill-rule="evenodd" clip-rule="evenodd" d="M20.8538 32.6629H13.2891C13.07 32.6629 12.8929 32.5197 12.8929 32.3424C12.8929 32.1657 13.07 32.0225 13.2891 32.0225H20.8538C21.0729 32.0225 21.25 32.1657 21.25 32.3424C21.25 32.5197 21.0729 32.6629 20.8538 32.6629Z" fill="#4C71DD"/>
<path fill-rule="evenodd" clip-rule="evenodd" d="M29.8566 35.2247H13.2869C13.069 35.2247 12.8929 35.0814 12.8929 34.9047C12.8929 34.7275 13.069 34.5842 13.2869 34.5842H29.8566C30.0739 34.5842 30.25 34.7275 30.25 34.9047C30.25 35.0814 30.0739 35.2247 29.8566 35.2247Z" fill="#4C71DD"/>
<path fill-rule="evenodd" clip-rule="evenodd" d="M26.0014 37.7866H13.9278C13.711 37.7866 13.5357 37.6433 13.5357 37.4666C13.5357 37.2894 13.711 37.1461 13.9278 37.1461H26.0014C26.2176 37.1461 26.3928 37.2894 26.3928 37.4666C26.3928 37.6433 26.2176 37.7866 26.0014 37.7866Z" fill="#4C71DD"/>
<path fill-rule="evenodd" clip-rule="evenodd" d="M29.8547 40.3483H13.2888C13.0699 40.3483 12.8929 40.2051 12.8929 40.0284C12.8929 39.8511 13.0699 39.7079 13.2888 39.7079H29.8547C30.073 39.7079 30.25 39.8511 30.25 40.0284C30.25 40.2051 30.073 40.3483 29.8547 40.3483Z" fill="#4C71DD"/>
<path fill-rule="evenodd" clip-rule="evenodd" d="M25.3666 42.9101H13.9197C13.7073 42.9101 13.5357 42.7668 13.5357 42.5896C13.5357 42.4129 13.7073 42.2697 13.9197 42.2697H25.3666C25.5784 42.2697 25.75 42.4129 25.75 42.5896C25.75 42.7668 25.5784 42.9101 25.3666 42.9101Z" fill="#4C71DD"/>
<path d="M38.09 3.11302L39.3363 6.68496L35.0715 5.75533L38.09 3.11302Z" stroke="#4C71DD"/>
<path d="M62.88 44.2679L62.0444 47.1993L59.5 44.8958L62.88 44.2679Z" stroke="#4C71DD"/>
<path d="M48.8121 1.53533L47.352 4.2734L45.3571 1.58777L48.8121 1.53533Z" stroke="#4C71DD"/>
<path d="M14.561 54.4138L13.3492 56.4656L11.9286 54.225L14.561 54.4138Z" stroke="#4C71DD"/>
<path d="M3.23136 17.486L1.15214 18.6593L1.04637 16.0112L3.23136 17.486Z" stroke="#4C71DD"/>
</svg>
