<svg width="46" height="51" viewBox="0 0 46 51" fill="none" xmlns="http://www.w3.org/2000/svg">
<path d="M23.2875 31.2326C25.0341 31.2326 26.45 29.6708 26.45 27.7442C26.45 25.8177 25.0341 24.2559 23.2875 24.2559C21.5409 24.2559 20.125 25.8177 20.125 27.7442C20.125 29.6708 21.5409 31.2326 23.2875 31.2326Z" stroke="#D8E7FF" stroke-width="5"/>
<path d="M23.2875 42.8605C31.703 42.8605 38.525 35.9625 38.525 27.4535C38.525 18.9444 31.703 12.0465 23.2875 12.0465C14.8721 12.0465 8.05005 18.9444 8.05005 27.4535C8.05005 35.9625 14.8721 42.8605 23.2875 42.8605Z" stroke="#D8E7FF" stroke-width="8"/>
<path fill-rule="evenodd" clip-rule="evenodd" d="M23.1168 9.90645C13.4297 9.90645 5.54936 17.8751 5.54936 27.6704C5.54936 37.4652 13.4297 45.4338 23.1168 45.4338C32.8044 45.4338 40.6859 37.4652 40.6859 27.6704C40.6859 17.8751 32.8044 9.90645 23.1168 9.90645ZM23.1168 46.1902C13.0181 46.1902 4.80188 37.882 4.80188 27.6704C4.80188 17.4588 13.0181 9.15063 23.1168 9.15063C33.2172 9.15063 41.434 17.4588 41.434 27.6704C41.434 37.882 33.2172 46.1902 23.1168 46.1902Z" fill="#4C71DD"/>
<path fill-rule="evenodd" clip-rule="evenodd" d="M23.1167 15.5546C16.5117 15.5546 11.1377 20.9895 11.1377 27.6703C11.1377 34.3511 16.5117 39.786 23.1167 39.786C29.7217 39.786 35.0957 34.3511 35.0957 27.6703C35.0957 20.9895 29.7217 15.5546 23.1167 15.5546ZM23.1167 40.5424C16.0994 40.5424 10.3896 34.768 10.3896 27.6703C10.3896 20.5726 16.0994 14.7982 23.1167 14.7982C30.134 14.7982 35.8437 20.5726 35.8437 27.6703C35.8437 34.768 30.134 40.5424 23.1167 40.5424Z" fill="#4C71DD"/>
<path fill-rule="evenodd" clip-rule="evenodd" d="M23.1168 23.2646C20.7161 23.2646 18.7634 25.2407 18.7634 27.6704C18.7634 30.0989 20.7161 32.0739 23.1168 32.0739C25.5174 32.0739 27.4701 30.0989 27.4701 27.6704C27.4701 25.2407 25.5174 23.2646 23.1168 23.2646ZM23.1168 32.8303C20.3045 32.8303 18.0154 30.5157 18.0154 27.6704C18.0154 24.8245 20.3045 22.5082 23.1168 22.5082C25.9297 22.5082 28.2182 24.8245 28.2182 27.6704C28.2182 30.5157 25.9297 32.8303 23.1168 32.8303Z" fill="#4C71DD"/>
<path fill-rule="evenodd" clip-rule="evenodd" d="M23.1196 15.5546C22.9132 15.5546 22.7458 15.3855 22.7458 15.1767V5.47092C22.7458 5.2622 22.9132 5.09302 23.1196 5.09302C23.326 5.09302 23.4933 5.2622 23.4933 5.47092V15.1767C23.4933 15.3855 23.326 15.5546 23.1196 15.5546Z" fill="#4C71DD"/>
<path fill-rule="evenodd" clip-rule="evenodd" d="M45.4033 28.0483H35.4702C35.2632 28.0483 35.0958 27.8791 35.0958 27.6704C35.0958 27.4617 35.2632 27.2925 35.4702 27.2925H45.4033C45.6097 27.2925 45.777 27.4617 45.777 27.6704C45.777 27.8791 45.6097 28.0483 45.4033 28.0483Z" fill="#4C71DD"/>
<path fill-rule="evenodd" clip-rule="evenodd" d="M23.1168 50.7524C22.9104 50.7524 22.743 50.5832 22.743 50.3745V40.1076C22.743 39.8983 22.9104 39.7291 23.1168 39.7291C23.3238 39.7291 23.4911 39.8983 23.4911 40.1076V50.3745C23.4911 50.5832 23.3238 50.7524 23.1168 50.7524Z" fill="#4C71DD"/>
<path fill-rule="evenodd" clip-rule="evenodd" d="M10.764 28.0483H0.662446C0.456021 28.0483 0.288696 27.8791 0.288696 27.6704C0.288696 27.4617 0.456021 27.2925 0.662446 27.2925H10.764C10.9705 27.2925 11.1378 27.4617 11.1378 27.6704C11.1378 27.8791 10.9705 28.0483 10.764 28.0483Z" fill="#4C71DD"/>
<path fill-rule="evenodd" clip-rule="evenodd" d="M23.1167 26.2215C22.3272 26.2215 21.685 26.8715 21.685 27.6703C21.685 28.4692 22.3272 29.1186 23.1167 29.1186C23.9091 29.1186 24.5531 28.4692 24.5531 27.6703C24.5531 26.8715 23.9091 26.2215 23.1167 26.2215ZM23.1167 29.875C21.915 29.875 20.9369 28.886 20.9369 27.6703C20.9369 26.4546 21.915 25.4651 23.1167 25.4651C24.3213 25.4651 25.3011 26.4546 25.3011 27.6703C25.3011 28.886 24.3213 29.875 23.1167 29.875Z" fill="#4C71DD"/>
<path d="M17.075 1.50042L18.1897 4.74301L14.3751 3.89909L17.075 1.50042Z" stroke="#4C71DD"/>
<path d="M42.6983 42.3489L41.9509 45.01L39.6751 42.9189L42.6983 42.3489Z" stroke="#4C71DD"/>
<path d="M44.4903 15.1844L43.1843 17.67L41.4 15.232L44.4903 15.1844Z" stroke="#4C71DD"/>
<path d="M6.95464 43.4197L5.87073 45.2823L4.60008 43.2483L6.95464 43.4197Z" stroke="#4C71DD"/>
<path d="M5.44587 10.4784L3.58612 11.5434L3.49152 9.13955L5.44587 10.4784Z" stroke="#4C71DD"/>
</svg>
