<?xml version="1.0" encoding="utf-8"?>
<!-- Generator: Adobe Illustrator 24.1.3, SVG Export Plug-In . SVG Version: 6.00 Build 0)  -->
<svg version="1.1" id="Слой_1" xmlns="http://www.w3.org/2000/svg" xmlns:xlink="http://www.w3.org/1999/xlink" x="0px" y="0px"
	 viewBox="0 0 100 39" style="enable-background:new 0 0 100 39;" xml:space="preserve">
<style type="text/css">
	.st0{fill:#8E9395;}
</style>
<desc>Created with sketchtool.</desc>
<g id="Icons">
	<g id="Artboard" transform="translate(-576.000000, -338.000000)">
		<g id="Group-26" transform="translate(576.000000, 338.000000)">
			<path id="Combined-Shape" class="st0" d="M23.9,11.6h-0.8l-3.9,5.3l-3.7-5.3h-4.2l5.7,8.2l-5.6,7.7h1.1l-5.2,7.3
				C2.9,31.3,0,25.8,0,19.6v-0.3C0,8.7,8.7,0,19.4,0c3.9,0,7.5,1.1,10.5,3.1L23.9,11.6z M15,27.6h0.8l3.9-5.3l3.7,5.3h4l-5.6-8.2
				l5.6-7.7h-1.1l5.2-7.3c4.4,3.5,7.2,9,7.2,15.1v0.3c0,10.7-8.7,19.4-19.4,19.4C15.6,39,12,37.9,9,36L15,27.6z M6.2,26.4h4.4v-12
				c0-1.6-1.3-2.9-2.9-2.9H4v1.8h1c0.7,0,1.2,0.6,1.2,1.2V26.4z M28.7,12.7c-0.9,0.7-1,2.2-1,2.7c0,0.1,0,1.1,0,2.9l3.4-2.5
				c0-0.4,0-0.8,0-1.2c0-0.5,0.3-0.9,1.1-0.9c0.3,0,1.1,0,1.1,0.9c0,0.1,0,0.7,0,1.2c0,0.3,0,0.5,0,0.8c-0.1,0.2-0.8,0.8-1.7,1.6
				c-0.8,0.6-1.7,1.4-2.4,2.1c-0.8,0.8-1.4,1.7-1.4,2s0,0.6,0,1.4c0,0.5,0,1.4,0,2.7h8.7v-2h-5.2c0-0.7,0-1.1,0-1.3
				c0-0.8,1.5-2.2,2.6-3c1-0.8,1.7-1.2,2.3-2.1s0.5-1.5,0.5-2.8s-0.3-1.9-0.8-2.5c-0.5-0.5-1.7-1-3.8-1S29.6,12,28.7,12.7z M51.5,21
				c0,1.8-0.4,3.2-1.3,4.1s-1.8,1.4-3.5,1.4c-0.8,0-1.7-0.1-2.5-0.3c-0.8-0.2-0.6-0.2-1.4-0.6l0.5-2.4c0.4,0.4,0.8,0.5,1.4,0.7
				s1.2,0.2,1.7,0.2c0.8,0,1.3-0.2,1.7-0.7c0.4-0.4,0.6-1,0.6-1.7v-0.9l0,0c-0.3,0.5-0.7,0.8-1.2,1s-0.9,0.3-1.3,0.3
				c-0.7,0-1.3-0.1-1.8-0.4c-0.5-0.2-1-0.6-1.4-1s-0.7-1-0.9-1.6s-0.3-1.3-0.3-2c0-0.6,0.1-1.2,0.3-1.8s0.5-1.1,0.8-1.6
				s0.8-0.8,1.3-1.1s1.1-0.4,1.7-0.4c0.4,0,0.7,0,1.1,0.1c0.3,0.1,0.6,0.2,0.9,0.4c0.3,0.1,0.5,0.3,0.7,0.5s0.3,0.3,0.4,0.5l0,0
				v-1.3h2.5V21z M44.9,17.2c0,0.4,0,0.7,0.1,1s0.2,0.6,0.4,0.8c0.2,0.2,0.4,0.4,0.6,0.6c0.2,0.1,0.5,0.2,0.8,0.2s0.5-0.1,0.8-0.2
				c0.2-0.1,0.4-0.3,0.6-0.6c0.2-0.2,0.3-0.5,0.4-0.8c0.1-0.3,0.1-0.6,0.1-1s0-0.7-0.1-1c-0.1-0.3-0.2-0.6-0.4-0.8s-0.4-0.4-0.6-0.6
				c-0.2-0.1-0.5-0.2-0.8-0.2s-0.5,0.1-0.8,0.2c-0.2,0.1-0.4,0.3-0.6,0.6c-0.2,0.2-0.3,0.5-0.4,0.8C44.9,16.5,44.9,16.9,44.9,17.2z
				 M100,21c0,1.8-0.4,3.2-1.3,4.1s-1.8,1.4-3.5,1.4c-0.8,0-1.7-0.1-2.5-0.3s-0.6-0.2-1.4-0.6l0.5-2.4c0.4,0.4,0.8,0.5,1.4,0.7
				S94.4,24,95,24c0.8,0,1.3-0.2,1.7-0.7s0.6-1,0.6-1.7v-0.9l0,0c-0.3,0.5-0.7,0.8-1.2,1s-1,0.3-1.4,0.3c-0.7,0-1.3-0.1-1.8-0.4
				c-0.5-0.2-1-0.6-1.4-1s-0.7-1-0.9-1.6c-0.2-0.6-0.3-1.3-0.3-2c0-0.6,0.1-1.2,0.3-1.8s0.5-1.1,0.8-1.6s0.8-0.8,1.3-1.1
				s1.1-0.4,1.7-0.4c0.4,0,0.7,0,1.1,0.1c0.3,0.1,0.6,0.2,0.9,0.4s0.5,0.3,0.7,0.5s0.3,0.3,0.4,0.5l0,0v-1.3h2.5
				C100,12.3,100,21,100,21z M93.4,17.2c0,0.4,0,0.7,0.1,1s0.2,0.6,0.4,0.8c0.2,0.2,0.4,0.4,0.6,0.6c0.2,0.1,0.5,0.2,0.8,0.2
				s0.5-0.1,0.8-0.2c0.2-0.1,0.4-0.3,0.6-0.6c0.2-0.2,0.3-0.5,0.4-0.8s0.1-0.6,0.1-1s0-0.7-0.1-1c-0.1-0.3-0.2-0.6-0.4-0.8
				c-0.2-0.2-0.4-0.4-0.6-0.6c-0.2-0.1-0.5-0.2-0.8-0.2s-0.5,0.1-0.8,0.2c-0.2,0.1-0.4,0.3-0.6,0.6c-0.2,0.2-0.3,0.5-0.4,0.8
				C93.4,16.5,93.4,16.9,93.4,17.2z M58,20.9L58,20.9c-0.3,0.5-0.7,0.9-1.2,1.1s-1,0.3-1.6,0.3c-0.4,0-0.8-0.1-1.2-0.2
				s-0.7-0.3-1-0.6c-0.3-0.3-0.5-0.6-0.7-1S52,19.7,52,19.2c0-0.6,0.1-1,0.3-1.4s0.4-0.7,0.8-1c0.3-0.3,0.7-0.5,1.1-0.6
				c0.4-0.1,0.8-0.2,1.3-0.3c0.4-0.1,0.9-0.1,1.3-0.2c0.4,0,0.5-0.1,0.9-0.1c0-0.5,0-0.9-0.4-1.2C57,14.1,56.6,14,56.1,14
				c-0.4,0-0.6,0-1.1,0.1s-1.1,0.4-1.7,0.6L52.5,13c0.8-0.4,0.9-0.6,1.8-0.7c0.9-0.2,1.5-0.2,2.2-0.2c0.8,0,1.5,0.1,2,0.3
				s0.9,0.5,1.2,1c0.3,0.4,0.5,1,0.6,1.6s0.2,1.4,0.2,2.2v5H58V20.9z M57,17.6c-0.2,0-0.4,0-0.7,0s-0.5,0.1-0.8,0.2
				c-0.2,0.1-0.5,0.3-0.6,0.5c-0.2,0.2-0.3,0.5-0.3,0.9s0.1,0.7,0.4,0.9s0.5,0.3,0.7,0.3s0.4,0,0.7-0.1c0.2-0.1,0.4-0.2,0.6-0.4
				c0.2-0.2,0.3-0.4,0.4-0.6c0.1-0.3,0.1-0.6,0.1-0.9v-0.7L57,17.6L57,17.6z M61.3,12.3h2.8v1.3l0,0c0.1-0.2,0.2-0.4,0.4-0.6
				c0.2-0.2,0.4-0.4,0.6-0.5s0.5-0.3,0.8-0.4c0.3-0.1,0.6-0.1,1-0.1c0.7,0,1.2,0.1,1.7,0.4c0.5,0.3,0.9,0.7,1.1,1.3
				c0.3-0.6,0.7-1.1,1.2-1.4c0.5-0.3,1.1-0.4,1.7-0.4s1.2,0.1,1.6,0.3s0.8,0.5,1,0.9s0.4,0.8,0.5,1.4c0.1,0.5,0.2,1.1,0.2,1.7V22H73
				v-5.8c0-0.5-0.1-0.9-0.3-1.2s-0.5-0.5-1-0.5c-0.3,0-0.6,0.1-0.8,0.2c-0.2,0.1-0.4,0.3-0.5,0.5s-0.2,0.4-0.3,0.7S70,16.5,70,16.8
				V22h-2.9v-5c0-0.2,0-0.4,0-0.7c0-0.3-0.1-0.5-0.1-0.7c-0.1-0.2-0.2-0.4-0.4-0.6c-0.2-0.2-0.4-0.2-0.8-0.2s-0.7,0.1-0.9,0.2
				c-0.2,0.1-0.4,0.3-0.5,0.6s-0.2,0.5-0.2,0.8c0,0.3-0.1,0.6-0.1,0.9v4.9h-2.9v-9.9H61.3z M77,12.3h2.9v9.9H77V12.3z M76.7,9.8
				c0-0.5,0.2-0.9,0.5-1.2s0.7-0.5,1.2-0.5s0.9,0.2,1.2,0.5c0.3,0.3,0.5,0.7,0.5,1.2s-0.2,0.9-0.5,1.2s-0.7,0.5-1.2,0.5
				s-0.9-0.2-1.2-0.5C76.9,10.6,76.7,10.2,76.7,9.8z M80.8,12.3h2.8v1.3l0,0c0.1-0.2,0.2-0.4,0.4-0.6c0.2-0.2,0.4-0.4,0.6-0.5
				s0.5-0.3,0.8-0.4c0.3-0.1,0.6-0.1,1-0.1c0.7,0,1.3,0.1,1.8,0.4c0.5,0.2,0.8,0.6,1.1,1s0.4,0.9,0.5,1.5s0.1,1.2,0.1,1.8v5.4H87
				v-4.8c0-0.3,0-0.6,0-0.9s-0.1-0.6-0.2-0.8s-0.2-0.5-0.4-0.6s-0.5-0.2-0.9-0.2s-0.7,0.1-0.9,0.2c-0.2,0.1-0.4,0.3-0.5,0.6
				c-0.1,0.2-0.2,0.5-0.2,0.8s-0.1,0.6-0.1,0.9v4.9h-2.9L80.8,12.3L80.8,12.3z"/>
		</g>
	</g>
</g>
</svg>
