<?xml version="1.0" encoding="utf-8"?>
<!-- Generator: Adobe Illustrator 24.1.3, SVG Export Plug-In . SVG Version: 6.00 Build 0)  -->
<svg version="1.1" id="Слой_1" xmlns="http://www.w3.org/2000/svg" xmlns:xlink="http://www.w3.org/1999/xlink" x="0px" y="0px"
	 viewBox="0 0 100 39" style="enable-background:new 0 0 100 39;" xml:space="preserve">
<style type="text/css">
	.st0{fill:#009344;}
	.st1{fill:#FFFFFF;}
	.st2{fill:#939597;}
</style>
<desc>Created with sketchtool.</desc>
<path class="st0" d="M78.4,8.1c-0.5,0-0.9,0.2-1.2,0.5c-0.3,0.3-0.5,0.7-0.5,1.2s0.2,0.9,0.5,1.2s0.7,0.5,1.2,0.5s0.9-0.2,1.2-0.5
	c0.3-0.3,0.5-0.7,0.5-1.2s-0.2-0.9-0.5-1.2C79.3,8.2,78.9,8.1,78.4,8.1z"/>
<rect x="77" y="12.3" class="st1" width="2.9" height="9.9"/>
<path class="st1" d="M89.2,13.4c-0.3-0.4-0.6-0.7-1.1-1C87.6,12.2,87,12,86.3,12c-0.4,0-0.7,0-1,0.1s-0.6,0.2-0.8,0.4
	c-0.2,0.1-0.4,0.3-0.6,0.5s-0.3,0.4-0.4,0.6l0,0v-1.3h-2.8v9.9h2.9v-4.9c0-0.3,0-0.6,0.1-0.9c0-0.3,0.1-0.6,0.2-0.8s0.3-0.4,0.5-0.6
	s0.5-0.2,0.9-0.2s0.7,0.1,0.9,0.2c0.2,0.2,0.4,0.4,0.4,0.6c0.1,0.3,0.2,0.5,0.2,0.8s0,0.6,0,0.9v4.8h2.9v-5.4c0-0.7,0-1.3-0.1-1.8
	C89.7,14.3,89.5,13.8,89.2,13.4z"/>
<path class="st1" d="M97.5,12.3v1.3l0,0c-0.1-0.2-0.3-0.3-0.4-0.5c-0.2-0.2-0.4-0.3-0.7-0.5c-0.3-0.1-0.5-0.3-0.9-0.4
	s-0.7-0.1-1.1-0.1c-0.6,0-1.2,0.1-1.7,0.4c-0.5,0.3-0.9,0.7-1.3,1.1c-0.3,0.5-0.6,1-0.8,1.6c-0.2,0.6-0.3,1.2-0.3,1.8
	c0,0.7,0.1,1.4,0.3,2s0.5,1.1,0.9,1.6s0.8,0.8,1.4,1S94,22,94.7,22c0.4,0,0.9-0.1,1.3-0.3s0.9-0.5,1.2-1l0,0v0.9
	c0,0.7-0.2,1.2-0.6,1.7C96.3,23.7,95.8,24,95,24c-0.6,0-1.2,0-1.7-0.2s-0.9-0.3-1.4-0.7l-0.5,2.4c0.8,0.4,0.6,0.4,1.4,0.6
	s1.7,0.3,2.5,0.3c1.7,0,2.7-0.4,3.5-1.4c0.8-0.9,1.3-2.3,1.3-4.1v-8.7h-2.6V12.3z M97.1,18.2c-0.1,0.3-0.2,0.6-0.4,0.8
	c-0.2,0.2-0.4,0.4-0.6,0.6c-0.2,0.1-0.5,0.2-0.8,0.2s-0.5-0.1-0.8-0.2c-0.2-0.1-0.4-0.3-0.6-0.6c-0.2-0.2-0.3-0.5-0.4-0.8
	s-0.1-0.6-0.1-1s0-0.7,0.1-1s0.2-0.6,0.4-0.8c0.2-0.2,0.4-0.4,0.6-0.6c0.2-0.1,0.5-0.2,0.8-0.2s0.5,0.1,0.8,0.2s0.4,0.3,0.6,0.6
	c0.2,0.2,0.3,0.5,0.4,0.8c0.1,0.3,0.1,0.6,0.1,1C97.3,17.6,97.2,17.9,97.1,18.2z"/>
<path class="st1" d="M75.3,13.3c-0.2-0.4-0.6-0.7-1-0.9s-1-0.3-1.6-0.3c-0.7,0-1.3,0.1-1.7,0.4c-0.5,0.3-0.9,0.7-1.2,1.4
	c-0.3-0.6-0.6-1.1-1.1-1.3c-0.5-0.3-1.1-0.4-1.7-0.4c-0.3,0-0.7,0-1,0.1s-0.6,0.2-0.8,0.4s-0.4,0.3-0.6,0.5s-0.3,0.4-0.4,0.6l0,0
	v-1.3h-2.8v9.9h2.9v-4.9c0-0.3,0-0.6,0.1-0.9c0-0.3,0.1-0.6,0.2-0.8s0.3-0.4,0.5-0.6S65.6,15,66,15c0.3,0,0.6,0.1,0.8,0.2
	c0.2,0.2,0.3,0.4,0.4,0.6c0.1,0.2,0.1,0.5,0.1,0.7c0,0.3,0,0.5,0,0.7v5.2h2.9V17c0-0.3,0-0.6,0.1-0.9s0.2-0.5,0.3-0.7
	c0.1-0.2,0.3-0.4,0.5-0.5s0.5-0.2,0.8-0.2c0.5,0,0.8,0.2,1,0.5s0.3,0.7,0.3,1.2v5.8H76v-5.8c0-0.6-0.1-1.2-0.2-1.7
	C75.7,14.2,75.5,13.7,75.3,13.3z"/>
<path class="st2" d="M31.5,4.3l-5.2,7.3h1.1l-5.6,7.7l5.6,8.2h-4l-3.7-5.3l-3.9,5.3H15L9,36c3,1.9,6.5,3,10.3,3
	c10.7,0,19.4-8.7,19.4-19.4v-0.3C38.7,13.3,35.9,7.8,31.5,4.3z M36.6,15.1c0,1.3,0.1,1.9-0.5,2.8s-1.3,1.3-2.3,2.1
	c-1,0.8-2.6,2.2-2.6,3c0,0.2,0,0.6,0,1.3h5.2v2h-8.7c0-1.3,0-2.2,0-2.7c0-0.8,0-1.1,0-1.4s0.6-1.2,1.4-2c0.7-0.7,1.7-1.5,2.4-2.1
	c0.9-0.7,1.6-1.4,1.7-1.6c0-0.3,0-0.5,0-0.8c0-0.5,0-1.1,0-1.2c0-0.9-0.7-0.9-1.1-0.9c-0.7,0-1.1,0.4-1.1,0.9c0,0.4,0,0.8,0,1.2
	l-3.4,2.5c0-1.9,0-2.8,0-2.9c0-0.4,0-2,1-2.7c0.9-0.7,1.3-1,3.3-1c2.1,0,3.3,0.4,3.8,1C36.3,13.2,36.6,13.8,36.6,15.1z"/>
<path class="st1" d="M59.6,13.4c-0.3-0.4-0.7-0.8-1.2-1s-1.2-0.3-2-0.3c-0.7,0-1.3,0-2.2,0.2s-1,0.3-1.8,0.7l0.7,1.8
	c0.6-0.2,1.2-0.5,1.7-0.6s0.7-0.1,1.1-0.1c0.5,0,0.9,0.1,1.2,0.4s0.4,0.7,0.4,1.2c-0.4,0-0.4,0.1-0.9,0.1S55.8,16,55.4,16
	c-0.4,0.1-0.9,0.2-1.3,0.3S53.3,16.7,53,17s-0.6,0.6-0.8,1S52,18.8,52,19.4c0,0.5,0.1,0.9,0.3,1.3s0.4,0.7,0.7,1s0.6,0.4,1,0.6
	c0.4,0.1,0.8,0.2,1.2,0.2c0.6,0,1.1-0.1,1.6-0.3s0.9-0.6,1.2-1.1l0,0v1.2h2.5v-5c0-0.8-0.1-1.5-0.2-2.2S60,13.8,59.6,13.4z
	 M57.6,18.3c0,0.3,0,0.6-0.1,0.9s-0.2,0.5-0.4,0.6c-0.2,0.2-0.4,0.3-0.6,0.4c-0.2,0.1-0.4,0.1-0.7,0.1s-0.5-0.1-0.7-0.3
	s-0.4-0.5-0.4-0.9s0.1-0.7,0.3-0.9c0.2-0.2,0.4-0.4,0.6-0.5c0.2-0.1,0.5-0.2,0.8-0.2s0.5,0,0.7,0h0.6L57.6,18.3L57.6,18.3z"/>
<path class="st0" d="M11.5,27.6l5.6-7.7l-5.7-8.2h4.2l3.7,5.3l3.9-5.3H24l6-8.5c-3-2-6.6-3.1-10.5-3.1C8.7,0,0,8.7,0,19.4v0.3
	c0,6.2,2.9,11.7,7.4,15.2l5.2-7.3C12.6,27.6,11.5,27.6,11.5,27.6z M10.6,26.4H6.2V14.6c0-0.7-0.6-1.2-1.2-1.2H4v-1.8h3.7
	c1.6,0,2.9,1.3,2.9,2.9V26.4z"/>
<path class="st1" d="M49,13.6L49,13.6c-0.1-0.2-0.3-0.3-0.5-0.5s-0.4-0.3-0.7-0.5c-0.3-0.1-0.5-0.3-0.9-0.4
	c-0.3-0.1-0.7-0.1-1.1-0.1c-0.6,0-1.2,0.1-1.7,0.4c-0.5,0.3-0.9,0.7-1.3,1.1c-0.3,0.5-0.6,1-0.8,1.6s-0.3,1.2-0.3,1.8
	c0,0.7,0.1,1.4,0.3,2s0.5,1.1,0.9,1.6s0.8,0.8,1.4,1c0.5,0.2,1.1,0.4,1.8,0.4c0.4,0,0.9-0.1,1.3-0.3c0.5-0.2,0.9-0.5,1.2-1l0,0v0.9
	c0,0.7-0.2,1.2-0.6,1.7c-0.4,0.4-0.8,0.7-1.7,0.7c-0.6,0-1.2,0-1.7-0.2s-0.9-0.3-1.4-0.7l-0.5,2.4c0.8,0.4,0.6,0.4,1.4,0.6
	c0.8,0.2,1.7,0.3,2.5,0.3c1.7,0,2.7-0.4,3.5-1.4c0.8-0.9,1.3-2.3,1.3-4.1v-8.7H49V13.6z M48.6,18.2c-0.1,0.3-0.2,0.6-0.4,0.8
	c-0.2,0.2-0.4,0.4-0.6,0.6c-0.2,0.1-0.5,0.2-0.8,0.2s-0.5-0.1-0.8-0.2c-0.2-0.1-0.4-0.3-0.6-0.6c-0.2-0.2-0.3-0.5-0.4-0.8
	c-0.1-0.3-0.1-0.6-0.1-1s0-0.7,0.1-1c0.1-0.3,0.2-0.6,0.4-0.8s0.4-0.4,0.6-0.6s0.5-0.2,0.8-0.2s0.5,0.1,0.8,0.2s0.4,0.3,0.6,0.6
	c0.2,0.2,0.3,0.5,0.4,0.8c0.1,0.3,0.1,0.6,0.1,1C48.7,17.6,48.7,17.9,48.6,18.2z"/>
</svg>
