<?xml version="1.0" encoding="utf-8"?>
<!-- Generator: Adobe Illustrator 16.0.0, SVG Export Plug-In . SVG Version: 6.00 Build 0)  -->
<!DOCTYPE svg PUBLIC "-//W3C//DTD SVG 1.1//EN" "http://www.w3.org/Graphics/SVG/1.1/DTD/svg11.dtd">
<svg version="1.1" id="Слой_1" xmlns="http://www.w3.org/2000/svg" xmlns:xlink="http://www.w3.org/1999/xlink" x="0px" y="0px"
	 width="100px" height="31px" viewBox="0 0 100 31" enable-background="new 0 0 100 31" xml:space="preserve">
<title>838F5450-7968-4371-AABB-AEC32AABB54C</title>
<desc>Created with sketchtool.</desc>
<path fill="#5B5F63" d="M49.4,15.9l0.5,1L60,17v-3.7h-3.5c1.5-1.2,2.4-2.2,2.7-3.1c0.2-0.6,0.899-3-1.4-4.7
	C56.3,4.3,54,3.6,50.9,3.3l-0.5,3.5c2.9,0.2,4.4,1,4.4,2.7c0,0.7-0.8,2.1-1.6,3C52.6,13.3,51.3,14.4,49.4,15.9z"/>
<polygon fill="#909396" points="88.4,26.5 84.5,19.3 83,19.3 83,29.4 84.3,29.4 84.3,21.7 88.4,29.4 89.9,29.4 89.9,19.3 88.4,19.3 
	"/>
<path fill="#5B5F63" d="M87.9,7.5l-1.4-4.1c-1.4,0.5-2.6,1.2-3.5,1.9C82.2,6.1,81.5,7,81,8c-0.3-0.9-0.9-1.8-1.9-2.7
	c-1-0.9-2.1-1.5-3.399-1.9L74,7.6c1.5,0.4,2.7,1,3.4,1.9C77.8,10,78.7,11,78.7,13c0,1.3,0,2.6,0,3.9H83c0-1.9,0-3.2,0-3.9
	c0-0.4,0-2.1,1.2-3.5C85.1,8.6,86.3,7.9,87.9,7.5z"/>
<path fill="#5B5F63" d="M88.7,15.9l0.5,1L99.3,17v-3.7h-3.5c1.5-1.2,2.4-2.2,2.7-3.1c0.2-0.6,0.9-3-1.4-4.7
	c-1.5-1.2-3.8-1.9-6.899-2.2l-0.5,3.5C92.5,7,94,7.9,94,9.6c0,0.7-0.8,2.1-1.6,3C91.8,13.3,90.6,14.4,88.7,15.9z"/>
<path fill="#909396" d="M94.4,24.4v1h3C97.5,27.6,96.6,28.8,94.8,28.8c-2.2,0-2.399-2.1-2.399-4.2c0-2.899,0.899-4.1,2.399-4.1
	c1.3,0,2,0.6,2,1.7h1.5c-0.2-1.8-1.3-2.8-3.5-2.8c-1,0-4,0.3-4,5.199c0,0.9-0.1,5.2,3.9,5.2c1.1,0,2-0.3,2.6-1v0.8h1.4V24.4H94.4z"
	/>
<path fill="#5B5F63" d="M69.4,16.8c1.899-0.5,2.699-1,3.199-1.2c1.801-1,1.9-2.4,1.9-2.9c0-1.3-0.7-1.9-1-2.1
	c-0.6-0.4-1.1-0.6-1.5-0.7c0.4-0.3,0.8-0.5,1-0.7c0.9-0.7,1-1.7,1-2.1c0-2-2.2-2.6-2.5-2.7C70.6,4,68,3.8,63.7,3.7V17
	C66.4,17.1,68.4,17.1,69.4,16.8z M67.8,6.1c1.3,0.2,1.9,0.7,1.9,1.2c0,0.4-0.2,1-0.7,1.3c-0.5,0.4-0.9,0.6-1.2,0.6V6.1z M67.8,11.1
	c1.601,0.2,2.4,0.8,2.3,1.7c-0.1,0.9-0.8,1.5-2.3,1.7V11.1z"/>
<path fill="#909396" d="M52.6,25.3h3c0.101,2.2-0.8,3.4-2.6,3.4c-2.2,0-2.4-2.101-2.4-4.2c0-2.9,0.9-4.1,2.4-4.1
	c1.3,0,2,0.6,2,1.699h1.5c-0.2-1.8-1.3-2.8-3.5-2.8c-1,0-4,0.3-4,5.2c0,0.9-0.1,5.2,3.9,5.2c1.1,0,2-0.3,2.6-1v0.8h1.4v-5.2h-4.5v1
	H52.6z"/>
<polygon fill="#909396" points="71.7,24.2 69,19.3 67.6,19.3 67.6,29.4 69.1,29.4 69.1,22.1 71.7,26.8 74.2,22.1 74.2,29.4 
	75.7,29.4 75.7,19.3 74.3,19.3 "/>
<path fill="#909396" d="M57.7,29.4h1.5l1.1-2.9h3.8l1.2,2.9h1.5l-4.6-10.9L57.7,29.4z M63.8,25.6h-3.1l1.6-4.1L63.8,25.6z"/>
<polygon fill="#909396" points="76.7,20.4 78.5,20.4 78.5,28.5 76.7,28.5 76.7,29.4 81.7,29.4 81.7,28.5 79.9,28.5 79.9,20.4 
	81.7,20.4 81.7,19.3 76.7,19.3 "/>
<path fill="#909396" d="M35,6c1,1.1,1.6,2.1,1.7,3.3c0.2,1.5,0,3.8-0.8,6.8V16v0.1c0,0.101,0,0.101,0,0.2c0.4,0.2,0.7,0.5,0.7,1
	c0,0.601-0.5,1.101-1.1,1.101c-0.1,0-0.1,0-0.2,0c0,0.1-0.1,0.3-0.1,0.5V19v-0.1c-0.2,0.6-0.4,1.3-0.7,2
	c1.6-0.801,2.7-1.4,3.3-1.801c1.3-0.8,2.4-1.3,2.6-1.8c0.2-0.399,0.3-1.8,0.3-3.7c0-1.4,0.2-3.5-0.1-4.1c-0.1-0.3-1.8-2.1-3.5-3.8
	c-1.6-1.7-2.9-3.4-4-3.4c-0.6,0-1.3,0.3-2.2,0.8C33.1,4.2,34.4,5.3,35,6z M38.5,8.9c0.3-0.2,1,0.4,1.2,0.8c0.2,0.4,0.5,1.1,0.1,1.3
	c-0.4,0.2-0.9-0.3-1.1-0.7C38.5,9.9,38.2,9.1,38.5,8.9z"/>
<path fill="#909396" d="M36.3,9.2c-0.6-2.4-2-3.5-3-4.2c-1.3-1-2.7-2.4-5.9-3.1c-1.2-0.3-3.7-0.7-7.9-1.1c-0.5,0-1.2,0-2,0.3
	C20.1,2.4,22,3.4,23.2,4c2,1.1,3.8,2.1,4.6,3.1c0.8,1.2,1.1,3.1,1.3,4.8c0.2,1.4,0.3,2.7,0.3,3.8l0,0l0,0c0,0.1,0,0.1,0,0.2V16
	c0.2-0.2,0.4-0.4,0.5-0.4c0.5,0,0.6,1,0.5,2s-0.5,1.5-0.9,1.5c-0.2,0-0.4-0.199-0.5-0.6l-0.1,0.9l0.1-0.9c0,0,0,0,0-0.1
	C28.9,18.8,28.9,19,28.8,19.1c-0.3,0.801-1.1,2-2,3.301c-0.4,0.6-1.2,1.699-2.3,3.1c3.3,0.8,5.7,0.5,7.2-0.9c0.6-0.5,1.7-2,2.3-4
	c0.5-1.699,1.4-4.399,1.8-6.2C36.6,11.1,36.6,10.4,36.3,9.2z M35.1,12.8c-0.1,1-0.5,1.5-0.9,1.5c-0.4,0-0.6-0.8-0.6-1.7
	s0.6-1.8,1-1.8S35.2,11.8,35.1,12.8z"/>
<path fill="#909396" d="M28.6,17c0.2-1.8-0.3-7.4-1.1-8.7C26.7,7,26.2,6.5,25,5.8c-2-1.2-5.5-3.1-8.4-4.5C15,0.5,13.9,0,12.4,0
	c-0.3,0-0.6,0.1-0.7,0.6c-0.1,0.2,0.2,1,0.8,3.2c0.1,0.4,0.7,3.4,0.5,4.6c-0.1,0.7-0.4,2.2-1.1,3.5c-0.3,0.6-1.8,2.8-3.7,5.6
	c-0.7,1-2.7,3.4-3.1,4.7C5,22.7,4.5,25.1,6.2,26.3c0.8,0.601,5.5,2.7,8.4,4c0.4,0.2,3.6,1.601,6.5-1c0.4-0.399,1.5-1.899,2.7-3.5
	c1.3-1.8,2.9-4,3.6-5.1C28.3,19.2,28.6,17.5,28.6,17z M9.6,25.2c-0.9,0-1.8-0.3-1.8-1.601c0-1.3,1.1-2,2-2c0.9,0,2.1,0.101,2.1,1.7
	C12,24.7,10.5,25.2,9.6,25.2z M18.6,9.4c-0.8,0.4-1.2,0-2-0.5c-0.8-0.5-1.7-1.7-1.3-2c0.4-0.3,1-0.3,1.9,0.3
	C18.1,7.7,19.4,9,18.6,9.4z M22.5,22.2c-0.9,0-2-0.2-2-1.5s1.2-2.101,2-2.101s2.1,0.101,2.2,1.5C24.7,21.4,23.4,22.2,22.5,22.2z
	 M25.7,8.7c-0.7,0.4-1.2,0.1-2.1-0.4c-0.8-0.4-1.8-1.6-1.4-2c0.4-0.4,1-0.4,1.9,0.2C25.1,7.1,26.4,8.3,25.7,8.7z"/>
<path fill="#909396" d="M43,5.5c-0.5-0.4-0.4-0.8-2.7-0.9c-0.9-0.1-2.2-0.1-4-0.2c0.5,0.5,0.9,0.9,1.2,1.3l0.1,0.1
	c0.3-0.1,0.8-0.2,1.2-0.2c0.7,0,1.2,0.4,1,0.6c-0.3,0.3-0.8,0.4-1.4,0.4l0.7,0.7c1.4,1.5,2,2.1,2,2.5c0,0.9,0,3.3-0.1,5.2
	c-0.1,1.3-0.2,2.4-0.4,2.7c-0.3,0.399-2.4,1.7-6.3,3.8c1.2,0,2.1,0.1,2.6,0.1c1.3,0,2.2,0.101,2.9-0.3c0.7-0.399,1.5-1.3,2.3-2.2
	c0.6-0.6,1.3-1.3,1.6-1.699c0.5-0.801,0.7-2.101,0.7-2.3C44.2,12.5,43.5,5.9,43,5.5z M43.2,15.3C43.1,16,42.9,16.4,42.5,16.4
	S42,15.8,42.1,15c0.1-0.7,0.2-1.2,0.6-1.2C43.2,13.8,43.3,14.6,43.2,15.3z"/>
<path fill="#909396" d="M10.6,12.4c0.9-1.6,1.3-2.8,1.6-4.2c0.1-0.6-0.1-1.9-0.5-3.5c-0.3-1-0.6-2.5-1-3.3C10.5,0.6,10,0.6,9.6,0.6
	c-0.5,0-1.4,1-3.8,4.1c-1.1,1.5-3.1,3.6-4.4,5.9c-0.6,1-1.2,2.5-1.4,3.6c-0.1,0.5-0.1,1.4,0.1,2.7c0.2,0.899,0.5,2.199,0.7,3
	C1.1,21.1,1.5,22.1,2.3,22c0.6-0.1,1.1-0.2,1.6-0.9c0.8-1,1.6-2.1,2.7-3.5C8.3,15.7,10.3,13,10.6,12.4z M7.6,4.7
	c0.5-0.9,1.1-1.3,1.6-1.1C9.7,3.8,9.5,5.2,9,6S8.2,7.4,7.4,7.4C6.6,7.4,7.1,5.7,7.6,4.7z M4.9,17.7C4.4,18.5,4.2,19,3.3,19
	c-0.9,0-0.3-1.7,0.2-2.6C4,15.5,4.6,15.1,5.1,15.3C5.6,15.5,5.4,16.9,4.9,17.7z"/>
</svg>
