<?xml version="1.0" encoding="utf-8"?>
<!-- Generator: Adobe Illustrator 16.0.0, SVG Export Plug-In . SVG Version: 6.00 Build 0)  -->
<!DOCTYPE svg PUBLIC "-//W3C//DTD SVG 1.1//EN" "http://www.w3.org/Graphics/SVG/1.1/DTD/svg11.dtd">
<svg version="1.1" id="Слой_1" xmlns="http://www.w3.org/2000/svg" xmlns:xlink="http://www.w3.org/1999/xlink" x="0px" y="0px"
	 width="101px" height="28px" viewBox="0 0 101 28" enable-background="new 0 0 101 28" xml:space="preserve">
<title>5D3A6571-D873-49E6-B87D-321049FAEB8B</title>
<desc>Created with sketchtool.</desc>
<g>
	<g>
		<path fill="#5B6063" d="M33.7,25.7c-0.2-0.3-1.7-2.4-3.7-5.3c-1.4-1.9-2.9-4.2-4.5-6.5c-4-5.7-7.9-11.4-8-11.5
			c-0.2,0.3-6.7,9.6-6.7,9.6s-6.5,0-10.3,1.2c1.9,0.2,3.6,0.4,5,0.7C7.6,14.3,9,14.7,9,14.7l-3.3,4.7l-2,2.6h9.9l1.6-5.7
			c3.5,1,6.7,2.4,9.4,3.8C29.2,22.4,32.5,24.7,33.7,25.7 M19.5,13.8c0,0-1.2-0.5-3.2-0.9l1-3.4L19.5,13.8z"/>
	</g>
	<rect x="34.1" y="21.4" fill="#8F9295" width="66.7" height="0.5"/>
	<rect x="34.1" y="15.8" fill="#8F9295" width="66.7" height="0.5"/>
	<polygon fill="#8F9295" points="24.7,7.9 24.7,11.5 27,14.8 27,7.9 	"/>
	<polygon fill="#8F9295" points="35.6,7.9 35.6,12.9 35.6,12.9 31.3,7.9 27.8,7.9 27.8,14.8 30.1,14.8 30.1,9.7 30.1,9.7 34.4,14.8 
		37.9,14.8 37.9,7.9 	"/>
	<g>
		<path fill="#8F9295" d="M43.6,10.5c-2.4,0-2.7,0-2.7-0.6c0-0.4,0.4-0.5,0.9-0.5h2.5c1,0,1.1,0.2,1.1,0.7h2.3V9.8
			c0-1.2-0.3-2-2.9-2h-3.2c-2.9,0-3,1-3,2.2c0,1.7,0.4,2.1,3.8,2.1c2.9,0,3.2,0,3.2,0.6c0,0.5-0.5,0.6-1,0.6h-2.8
			c-0.7,0-1-0.1-1-0.8h-2.3V13c0,1.5,0.8,1.9,2.9,1.9h2.7c3,0,3.7-0.301,3.7-2.2C48,10.7,47.2,10.5,43.6,10.5"/>
		<polygon fill="#8F9295" points="59.3,7.9 57.8,12.9 57.7,12.9 55.9,7.9 53.7,7.9 51.9,12.9 51.9,12.9 50.3,7.9 48.1,7.9 
			50.5,14.8 53.1,14.8 54.8,10.2 54.8,10.2 56.5,14.8 59.2,14.8 61.5,7.9 		"/>
		<path fill="#8F9295" d="M68.5,7.8h-3.6c-2,0-3.301,0.5-3.301,2.5v2.1c0,2,1.2,2.5,3.301,2.5h3.6c2,0,3.3-0.5,3.3-2.5v-2.1
			C71.8,8.3,70.5,7.8,68.5,7.8 M69.4,11.7c0,1-0.2,1.4-1.301,1.4H65.2c-1.101,0-1.3-0.4-1.3-1.4v-0.8c0-0.9,0.199-1.4,1.399-1.4H68
			c1.2,0,1.4,0.5,1.4,1.4V11.7z"/>
		<path fill="#8F9295" d="M81.6,10.3V9.9c0-1.2-0.5-2.1-2.199-2.1H72.6v6.9H74.9V13h3.6c0.7,0,0.9,0.2,0.9,1v0.8h2.3v-1.2
			c0-1.1-0.601-1.4-1.2-1.5l0,0C81.4,11.8,81.6,11.3,81.6,10.3 M79.4,10.5c0,0.5-0.2,0.7-0.801,0.7H74.9V9.6h3.5
			c0.699,0,1,0.1,1,0.7V10.5L79.4,10.5z"/>
		<polygon fill="#8F9295" points="82.2,7.9 82.2,9.6 85.4,9.6 85.4,14.8 87.7,14.8 87.7,9.6 90.9,9.6 90.9,7.9 		"/>
		<polygon fill="#8F9295" points="98.6,7.9 98.6,10.3 93.8,10.3 93.8,7.9 91.5,7.9 91.5,14.8 93.8,14.8 93.8,12.2 98.6,12.2 
			98.6,14.8 100.8,14.8 100.8,7.9 		"/>
		<polygon fill="#8F9295" points="34.7,19.9 34.7,19.1 36.5,19.1 36.5,18.6 34.7,18.6 34.7,17.9 37.3,17.9 37.3,17.4 34.1,17.4 
			34.1,20.4 37.4,20.4 37.4,19.9 		"/>
		<polygon fill="#8F9295" points="40,18.9 41.6,17.4 40.8,17.4 39.7,18.5 38.5,17.4 37.8,17.4 39.3,18.9 37.7,20.4 38.5,20.4 
			39.7,19.2 40.9,20.4 41.6,20.4 		"/>
		<path fill="#8F9295" d="M45.4,17.6c-0.2-0.199-0.5-0.3-0.8-0.3h-2.5V20.4h0.6V19.3h1.8c0.4,0,0.7-0.1,0.9-0.3
			c0.2-0.2,0.3-0.4,0.3-0.7S45.6,17.8,45.4,17.6 M44.6,18.8h-1.8V17.9h1.7c0.4,0,0.6,0.199,0.6,0.399C45.1,18.6,44.9,18.8,44.6,18.8
			"/>
		<polygon fill="#8F9295" points="46.9,19.9 46.9,19.1 48.7,19.1 48.7,18.6 46.9,18.6 46.9,17.9 49.5,17.9 49.5,17.4 46.3,17.4 
			46.3,20.4 49.6,20.4 49.6,19.9 		"/>
		<path fill="#8F9295" d="M53.1,19.3C53.6,19.2,53.9,18.9,53.9,18.4c0-0.301-0.101-0.5-0.301-0.7c-0.199-0.2-0.5-0.3-0.8-0.3h-2.5
			v3.1h0.6v-1.1h1.5l0.8,1.1h0.7L53.1,19.3z M50.9,18.8V17.9h1.7C53,17.9,53.2,18.1,53.2,18.3c0,0.3-0.2,0.4-0.5,0.4L50.9,18.8
			L50.9,18.8z"/>
		<rect x="54.7" y="17.4" fill="#8F9295" width="0.6" height="3.1"/>
		<polygon fill="#8F9295" points="56.9,19.9 56.9,19.1 58.7,19.1 58.7,18.6 56.9,18.6 56.9,17.9 59.5,17.9 59.5,17.4 56.3,17.4 
			56.3,20.4 59.6,20.4 59.6,19.9 		"/>
		<polygon fill="#8F9295" points="63.3,17.4 63.3,19.9 61.2,17.4 60.3,17.4 60.3,20.4 60.9,20.4 60.9,17.9 63,20.4 63.9,20.4 
			63.9,17.4 		"/>
		<path fill="#8F9295" d="M66.7,20c-0.4,0-0.8-0.1-1.101-0.3c-0.3-0.2-0.399-0.5-0.399-0.8c0-0.301,0.1-0.601,0.399-0.801
			c0.301-0.199,0.601-0.3,1-0.3c0.5,0,0.9,0.2,1.2,0.5l0.601-0.2c-0.5-0.6-1.101-0.8-1.801-0.8c-0.5,0-1,0.101-1.399,0.4
			C64.8,18,64.6,18.4,64.6,18.9S64.8,19.8,65.2,20.1c0.399,0.301,0.899,0.5,1.5,0.5c0.7,0,1.3-0.3,1.8-0.8L68,19.5
			C67.7,19.8,67.2,20,66.7,20"/>
		<polygon fill="#8F9295" points="69.9,19.9 69.9,19.1 71.7,19.1 71.7,18.6 69.9,18.6 69.9,17.9 72.5,17.9 72.5,17.4 69.3,17.4 
			69.3,20.4 72.6,20.4 72.6,19.9 		"/>
		<path fill="#8F9295" d="M76.6,20c-0.399,0-0.8-0.1-1.1-0.3s-0.4-0.5-0.4-0.8c0-0.301,0.101-0.601,0.4-0.801
			c0.3-0.199,0.6-0.3,1-0.3c0.5,0,0.9,0.2,1.3,0.5l0.601-0.2c-0.5-0.6-1.101-0.8-1.801-0.8c-0.5,0-1,0.101-1.399,0.4
			C74.8,18,74.6,18.4,74.6,18.9S74.8,19.8,75.2,20.1c0.399,0.301,0.899,0.5,1.5,0.5c0.7,0,1.3-0.3,1.8-0.8L78,19.5
			C77.6,19.8,77.1,20,76.6,20"/>
		<path fill="#8F9295" d="M82.3,17.7c-0.399-0.3-0.8-0.4-1.399-0.4c-0.5,0-1,0.101-1.4,0.4s-0.7,0.7-0.7,1.2S79,19.8,79.4,20.1
			c0.399,0.301,0.8,0.4,1.399,0.4c0.601,0,1-0.1,1.4-0.4c0.399-0.3,0.6-0.699,0.6-1.199C82.9,18.4,82.7,18,82.3,17.7 M81.9,19.7
			C81.6,19.9,81.3,20,80.9,20c-0.4,0-0.801-0.1-1-0.3c-0.301-0.2-0.4-0.5-0.4-0.8c0-0.301,0.1-0.601,0.4-0.801
			c0.3-0.199,0.6-0.3,1-0.3c0.399,0,0.699,0.101,1,0.3c0.3,0.2,0.399,0.5,0.399,0.801C82.3,19.2,82.2,19.5,81.9,19.7"/>
		<path fill="#8F9295" d="M86.7,17.4V19.3c0,0.5-0.4,0.7-1.2,0.7s-1.2-0.2-1.2-0.7V17.4h-0.6v2.1c0,0.3,0.2,0.6,0.5,0.8
			s0.8,0.3,1.3,0.3s1-0.1,1.3-0.3s0.5-0.5,0.5-0.8v-2.1H86.7z"/>
		<polygon fill="#8F9295" points="91.2,17.4 91.2,19.9 89.1,17.4 88.2,17.4 88.2,20.4 88.8,20.4 88.8,17.9 90.9,20.4 91.8,20.4 
			91.8,17.4 		"/>
		<polygon fill="#8F9295" points="92.3,17.4 92.3,17.9 93.8,17.9 93.8,20.4 94.4,20.4 94.4,17.9 95.9,17.9 95.9,17.4 		"/>
		<path fill="#8F9295" d="M99.2,18.8C99,18.7,98.6,18.6,98.1,18.5c-0.399,0-0.699-0.1-1-0.1C96.8,18.3,96.7,18.3,96.7,18.1
			c0-0.199,0.3-0.399,1-0.399c0.5,0,0.899,0.1,1.3,0.3l0.4-0.4c-0.4-0.3-1-0.5-1.7-0.5c-0.5,0-0.9,0.101-1.2,0.301
			C96.2,17.6,96.1,17.8,96.1,18.1c0,0.2,0.101,0.4,0.301,0.601c0.199,0.1,0.5,0.2,0.8,0.3c0.1,0,0.399,0,0.8,0.1
			c0.3,0,0.5,0,0.6,0.101c0.2,0.1,0.4,0.2,0.4,0.399c0,0.2-0.1,0.301-0.3,0.4s-0.5,0.1-0.8,0.1C97.3,20.1,96.8,19.9,96.3,19.6L96,20
			c0.5,0.4,1.1,0.5,1.9,0.5c0.6,0,1-0.1,1.3-0.3s0.399-0.4,0.399-0.8C99.6,19.2,99.4,19,99.2,18.8"/>
		<polygon fill="#8F9295" points="99.6,17.4 99.8,17.4 99.8,18 99.9,18 99.9,17.4 100.1,17.4 100.1,17.3 99.6,17.3 		"/>
		<path fill="#8F9295" d="M100.7,17.3l-0.2,0.601l-0.2-0.601h-0.1V18h0.1v-0.4c0,0,0,0,0-0.1v-0.1l0,0l0.2,0.6h0.1l0.2-0.6v0.1v0.1
			V18h0.101v-0.7H100.7z"/>
	</g>
</g>
</svg>
