<?xml version="1.0" encoding="utf-8"?>
<!-- Generator: Adobe Illustrator 16.0.0, SVG Export Plug-In . SVG Version: 6.00 Build 0)  -->
<!DOCTYPE svg PUBLIC "-//W3C//DTD SVG 1.1//EN" "http://www.w3.org/Graphics/SVG/1.1/DTD/svg11.dtd">
<svg version="1.1" id="Слой_1" xmlns="http://www.w3.org/2000/svg" xmlns:xlink="http://www.w3.org/1999/xlink" x="0px" y="0px"
	 width="100.1px" height="31.7px" viewBox="0 0 100.1 31.7" enable-background="new 0 0 100.1 31.7" xml:space="preserve">
<title>6AAB6F08-4537-4887-B5B1-77EDDD44343E</title>
<desc>Created with sketchtool.</desc>
<path fill="#5B6063" d="M31.9,28.299C28,28.1,24.7,26.5,22.3,23.2c-2-2.8-3.5-5.9-5-8.9c-0.8-1.5-1.5-3.1-2.3-4.7
	c-0.4-0.7-0.9-1.2-1.5-1.7c-0.8-0.6-1.8-0.2-2.601-0.2c-0.1,0-0.3,0.1-0.399,0.1c-0.2,0-0.4,0-0.5-0.1C9.9,7.6,10,7.3,10,7.2
	c1.2-1.4,2.3-2.8,3.6-4.1c0.9-0.9,2.101-1.6,3.2-2.2c0.8-0.4,1.7-0.5,2.6-0.5c2.301,0.1,4.301,1,6,2.7C27.4,5,28.7,7.4,30,9.8
	c1.3,2.3,2.5,4.7,3.6,7.1c1.2,2.5,2.3,5,3.5,7.5c0.2,0.5,0.5,1,0.8,1.5c0.301,0.601,0.2,1-0.399,1.2
	C35.7,27.799,33.9,28.2,31.9,28.299z"/>
<path fill="#2F3336" d="M6.5,28.4C4.3,28.5,2.3,27.799,0.4,27.1c-0.5-0.2-0.5-0.5-0.3-1c1.4-2.6,2.7-5.2,4.101-7.801
	c1.1-2,2.1-4.099,3.3-6C8,11.5,8.7,10.9,9.4,10.4C10,10,10.7,10,11.3,10.5c1.3,0.8,2.1,2.1,2.8,3.4c1.101,2,2.2,4,3.2,6
	c0.3,0.5,0.3,1,0,1.601c-1.7,2.699-4,4.899-7,6.199C9,28.2,7.7,28.5,6.5,28.4z"/>
<path fill="#8F9295" d="M63.7,23c0-1.101,0-2.201,0-3.301c0-1,0.399-1.3,1.3-0.9c0.7,0.301,1.3,0.301,1.899-0.1
	c0.801-0.6,1.601-0.6,2.301,0c0.899,0.801,1.8,0.7,2.6,0c1.5-1.1,3,0,3.8,1c0.4,0.6,0.601,1.2,0.5,2c-0.1,1.4,0,2.9,0,4.301
	c0,0.5,0,1-0.5,1.199c-0.3,0.1-0.8,0.1-1.1,0C74,27,74,26.5,74.1,26c0.101-1.5,0.101-2.9,0.101-4.4c0-0.6-0.2-1.301-0.9-1.5
	c-0.8-0.301-1.7,0-2.2,0.699C71,21,70.9,21.299,70.9,21.5C70.9,23.1,71,24.7,71,26.4c0,0.601-0.5,1-1,1.101c-0.601,0-1-0.5-1-1.101
	c0-1.399,0.1-2.8,0.1-4.2c0-0.3,0-0.699-0.1-1c-0.3-1-0.8-1.3-2-1.1c-0.8,0.1-1.4,0.9-1.4,1.699c0,1.5,0,3,0.101,4.5
	c0,0.701-0.301,1.101-1,1.101C64,27.4,63.6,27,63.6,26.2C63.6,25.299,63.6,24.2,63.7,23C63.6,23,63.7,23,63.7,23z"/>
<path fill="#8F9295" d="M71,8.3c0,1.1,0.1,2.3,0,3.4c-0.101,1.2,0,2.6-1,3.5c-0.8,0.7-1.7,1.3-2.9,1.3c-1.1,0-2-0.101-2.899-0.701
	c-0.601-0.4-0.801-0.9-0.5-1.4c0.3-0.7,0.8-0.8,1.3-0.2c0.5,0.5,1.1,0.4,1.6,0.5c1.601,0.1,2.101-0.2,2.5-1.8
	c0.101-0.2,0-0.6-0.1-0.7c-0.101-0.1-0.5-0.1-0.7,0.1c-1.7,1.3-4.3-0.1-4.7-1.7C63.4,9.8,62.9,9,63,8.1c0.1-1.6,0.6-3,1.899-3.9
	c0.9-0.6,1.9-1.3,3.2-0.5C68.7,4.1,69.2,4.2,69.9,3.8c0.601-0.4,1.2,0.1,1.2,0.9c0,0.6,0,1.2,0,1.8C71,7.1,71,7.7,71,8.3L71,8.3z
	 M69.1,8L69.1,8c0-0.4-0.1-0.9,0-1.3c0.101-0.8-0.6-1.2-1.2-1.5c-0.5-0.3-1.1-0.3-1.699,0.2C65.1,6.3,64.8,7.6,65.1,8.9
	c0.3,1.6,1.101,2.2,2.601,2C68.6,10.8,69.1,10.3,69.1,9.4C69.1,9,69.1,8.5,69.1,8z"/>
<path fill="#8F9295" d="M99.9,23.6c0,1.199,0,2.4,0,3.6c0,1.2-0.399,2.301-1.1,3.1C97.9,31.4,95.7,32.1,94.1,31.4
	c-0.5-0.2-1-0.5-1.399-0.8c-0.4-0.301-0.7-0.801-0.301-1.301c0.4-0.5,1-0.399,1.301-0.1c0.8,0.7,1.699,0.6,2.6,0.6
	c0.7,0,1.8-1.399,1.8-2c0-0.5-0.5-0.799-0.8-0.399c-0.6,0.601-1.3,0.7-2,0.5s-1.3-0.601-1.8-1c-1-0.7-1.3-1.8-1.2-3
	c0-0.899,0-1.7,0.2-2.601c0.1-0.5,0.399-0.899,0.7-1.299c0.6-0.9,1.5-1.201,2.399-1.5c0.4-0.101,1,0.1,1.4,0.299
	c0.6,0.4,1.2,0.4,1.8,0.201c0.8-0.4,1.3,0,1.3,0.899c0,0.7,0,1.3,0,2C99.8,22.4,99.9,23,99.9,23.6L99.9,23.6z M98,23.2L98,23.2
	c0-0.5,0-1,0-1.4c0-0.199,0-0.399-0.101-0.6c-0.399-0.8-1.399-1.1-2.5-0.9C94.9,20.4,94.2,21.299,94.2,22c0,0.799,0,1.6,0,2.5
	c0,0.299,0.199,0.6,0.3,0.799C94.9,26.1,95.7,26.1,96.4,26.1c1,0,1.601-0.7,1.601-1.6C98,24,98,23.6,98,23.2z"/>
<path fill="#8F9295" d="M52.9,23.6c0,0.3,0,0.6,0,0.9c0.2,1.6-0.3,2.1-2.1,2.799c-0.7,0.301-1.4,0.5-2.1,0.5
	C46.7,28,45.1,27.1,44,25.4c-0.601-1-0.9-2.2-1.2-3.3c-0.1-0.6-0.1-1.2,0-1.801c0.4-1.799,0.9-3.6,2.7-4.599
	c1.1-0.6,2.3-0.7,3.5-0.6c1.1,0,2,0.3,2.8,1.1c0.4,0.4,0.6,0.7,0.2,1.2c-0.5,0.5-1,0.601-1.4,0.2c-1.5-1.5-4-1.1-5,0.6
	c-0.8,1.4-1.2,2.9-0.6,4.6c0.399,1,0.5,2.101,1.6,2.801c0.4,0.199,0.8,0.4,1.2,0.4c0.5,0.1,1,0,1.4,0C50.4,26,51.1,25.4,51,24.2
	v-0.1C50.9,22.5,50.9,22.5,49.4,22.6c-0.6,0-0.899-0.4-0.899-0.9c0-0.6,0.3-0.8,0.8-0.699c0.9,0,1.8,0,2.7,0c0.7,0,1,0.299,1,0.899
	C52.9,22.4,52.9,23,52.9,23.6L52.9,23.6z"/>
<path fill="#8F9295" d="M47.7,0c0.699,0.1,1,0.8,1.3,1.5c0.5,1.3,0.899,2.7,1.399,4C51,7.2,51.7,8.9,52.3,10.6
	c0.1,0.2,0.2,0.4,0.3,0.5c0.3,0.4,0.4,0.8,0,1.2c-0.399,0.4-0.899,0.5-1.3,0.1c-0.4-0.5-0.7-1.1-1-1.6s-0.5-1-0.8-1.5
	C49.4,9.2,49.1,9.1,48.9,9.1c-1,0-2,0-3,0c-0.199,0-0.6,0.1-0.699,0.3c-0.301,0.5-0.4,1.1-0.7,1.6c-0.2,0.5-0.601,1.1-1,1.5
	c-0.2,0.2-0.8,0-1.101-0.2c-0.399-0.3-0.199-0.6,0-1c0.4-0.7,0.7-1.5,1-2.2C43.8,8,44.2,7,44.6,5.9c0.5-1.4,1-2.9,1.4-4.3
	C46.3,0.6,46.9-0.1,47.7,0z M47.5,7.6c0.3,0,0.6,0.1,0.899,0c0.2,0,0.601-0.2,0.7-0.3c0.101-0.2,0-0.5-0.1-0.8c-0.3-1-0.7-2-1.101-3
	c-0.1-0.2-0.3-0.4-0.399-0.6c-0.101,0.2-0.3,0.3-0.4,0.5c-0.399,1-0.7,2-1.1,3c-0.3,0.7,0,1.2,0.8,1.1C47,7.7,47.2,7.6,47.5,7.6z"/>
<path fill="#8F9295" d="M61.4,23.1c0,0.699-0.1,1.3-0.1,2c0,0.4,0.3,0.8,0.6,1.199c0.2,0.301,0.7,0.5,0.4,1S61.5,27.9,61,27.7
	c-0.3-0.1-0.7-0.3-0.9-0.6c-0.3-0.301-0.6-0.301-0.899-0.1C59,27.1,58.7,27.2,58.5,27.4c-1.2,0.899-3.4,0.101-4.101-1.101
	c-0.6-1-0.3-2.899,0.801-3.5c1-0.5,2.199-0.799,3.399-1.199c0.4-0.1,0.8-0.1,0.8-0.6S59.1,20.2,58.6,20.2c-0.6,0-1.1,0-1.7,0
	c-0.3,0-0.5,0.301-0.8,0.4s-0.7,0.3-1,0.199C54.9,20.7,54.7,20.299,54.7,20c0.1-0.4,0.3-0.801,0.6-1c0.5-0.301,1.1-0.4,1.6-0.601
	C58.1,18,60.4,18.6,61,19.6c0.3,0.6,0.3,1.3,0.399,2C61.4,22.2,61.4,22.6,61.4,23.1L61.4,23.1z M57.5,26c1.1,0,1.899-0.701,2-1.801
	c0.1-0.6-0.3-1-0.9-1c-0.399,0-0.8,0.1-1.2,0.1c-1,0.101-1.699,1.201-1.3,2C56.4,26,57,26,57.5,26z"/>
<path fill="#8F9295" d="M61.3,8.2c0,1.1,0,2.1,0,3.2c0,0.4-0.2,0.8-0.4,1c-0.3,0.4-0.699,0.2-1-0.1c-0.399-0.4-0.8-0.4-1.3,0
	c-0.2,0.2-0.6,0.3-0.899,0.3c-0.301,0.1-0.601,0-1,0c-1.601,0-2.7-0.9-2.7-2.5c0-1.9,0-3.9,0-5.8C54,4,54.2,3.7,54.4,3.6
	C54.6,3.5,55,3.6,55.2,3.8c0.6,0.4,0.8,1,0.8,1.7c-0.101,1.3,0,2.7,0,4c0,1,0.399,1.4,1.399,1.4c0.101,0,0.2,0,0.301,0
	c1.5-0.1,1.8-0.4,1.699-1.9c0-1.4,0-2.9-0.1-4.3c0-0.8,0.2-1.1,0.7-1.2c0.7,0,1.3,0.5,1.3,1.2C61.3,5.9,61.3,7.1,61.3,8.2L61.3,8.2z
	"/>
<path fill="#8F9295" d="M73.2,7.4c0-0.9,0-1.8,0-2.7c0-0.4-0.2-1,0.5-1.1c0.5-0.1,1.3,0.5,1.399,1c0,0.2,0,0.3,0,0.5
	c0,1.5,0,3.1,0,4.6c0,0.9,0.2,1.1,1,1.2c0.9,0.1,1.9,0.3,2.5-0.8c0.2-0.3,0.3-0.7,0.3-1c0-1.5,0-3.1,0-4.6C78.9,4.2,79,3.7,79.2,3.7
	C79.5,3.6,79.9,3.8,80.1,3.9c0.601,0.4,0.8,0.9,0.8,1.7c0,1.8,0,3.7,0,5.6c0,0.6-0.199,1-0.6,1.3c-0.5,0.3-0.8,0-1.2-0.2
	c-0.2-0.1-0.7-0.2-0.899,0c-0.5,0.5-1,0.4-1.601,0.5c-1.3,0.2-2.2-0.3-2.8-1.4c-0.2-0.3-0.3-0.7-0.4-1C73.2,9.4,73.2,8.4,73.2,7.4z"
	/>
<path fill="#8F9295" d="M82.7,23c0-1.101,0-2.201,0-3.4c0-1,0.3-1.2,1.199-0.801c0.7,0.4,1.4,0.201,1.9-0.199
	c0.9-0.6,1.8-0.5,2.7,0.1C89.7,19.5,90.4,20.5,90.3,22c-0.1,1.399,0,2.799,0,4.199c0,0.801-0.4,1.2-1.2,1.2
	c-0.6,0-0.899-0.5-0.899-1.2c0-1.4,0.1-2.8,0.1-4.199c0-0.701-0.6-1.801-1.1-1.9c-0.9-0.2-2.2,0.199-2.5,0.9
	C84.6,21.2,84.6,21.4,84.6,21.6c0,1.6,0,3.1,0.101,4.699C84.7,27,84.3,27.4,83.6,27.4c-0.6,0-1-0.399-0.899-1.2
	C82.7,25.299,82.7,24.2,82.7,23L82.7,23z"/>
<path fill="#8F9295" d="M85,12.7c-1,0.4-1.8-0.2-2.601-0.8c-0.5-0.3-0.5-0.8-0.1-1.4c0.4-0.5,0.6-0.4,1.1-0.1
	c0.7,0.5,1.601,0.9,2.5,0.4c0.5-0.2,0.801-0.6,0.601-1.2C86.4,9.1,86,8.7,85.4,8.7c-1.5-0.1-2.6-0.8-3.3-2.1
	c-0.3-0.5-0.3-1,0.101-1.6C82.9,3.9,84,3.5,85.1,3.2c0.101,0,0.2-0.1,0.3,0C86.2,3.4,86.9,3.6,87.7,3.9C88,4,88.3,4.4,88.3,4.7
	C88.4,5,88.2,5.5,88,5.6s-0.8,0.1-1-0.1C86.4,5,85.8,4.8,85.1,4.9C84.5,5,83.7,5.5,83.9,5.8c0.301,0.4,0.9,1,1.301,1
	c0.899,0,1.6,0.4,2.3,0.9c1.3,0.8,1.3,3,0.1,4C87,12.4,86.2,13,85,12.7z"/>
<path fill="#8F9295" d="M90.2,6.1c0-1.4,0-2.8,0-4.2c0-0.3,0.1-0.6,0.3-0.7c0.2-0.1,0.6,0,0.8,0.1c0.6,0.4,0.9,0.8,0.8,1.6
	c-0.1,0.7,0.2,1,0.9,0.9c0.3,0,0.6-0.1,0.899-0.1c0.5,0,0.801,0.2,0.9,0.7c0,0.5-0.2,0.9-0.7,1c-0.399,0.1-0.8,0-1.1-0.1
	c-0.5-0.1-0.8,0-0.8,0.6c0,1.5-0.101,2.9,0,4.4c0,0.8,0.899,1.1,1.6,0.6c0.3-0.2,0.6-0.5,1-0.2c0.6,0.5,0.6,1,0,1.5
	c-1.3,1.1-2.9,1.1-4-0.1c-0.3-0.3-0.5-0.9-0.5-1.3C90.2,9.1,90.3,7.6,90.2,6.1C90.3,6.1,90.2,6.1,90.2,6.1z"/>
<path fill="#8F9295" d="M78.3,22.7c0-1,0-2,0-3c0-0.5,0-1.1,0.7-1.199c0.6-0.101,1.3,0.699,1.3,1.299c0,1.701,0,3.5-0.1,5.201
	c0,0.6,0.1,1.1,0.6,1.5C81,26.7,81.1,27.1,81,27.2c-0.101,0.2-0.5,0.5-0.7,0.5c-0.9,0.1-2-0.9-2-1.9c0-0.5,0-1,0-1.6
	C78.3,23.799,78.3,23.2,78.3,22.7L78.3,22.7z"/>
<path fill="#8F9295" d="M79.3,15c0.6,0,1.1,0.6,1.1,1.2c0,0.7-0.5,1.099-1.1,1.099c-0.7,0-1.1-0.399-1.1-1.199
	C78.2,15.4,78.6,15,79.3,15z"/>
</svg>
