<?xml version="1.0" encoding="utf-8"?>
<!-- Generator: Adobe Illustrator 24.1.3, SVG Export Plug-In . SVG Version: 6.00 Build 0)  -->
<svg version="1.1" id="Layer_1" xmlns="http://www.w3.org/2000/svg" xmlns:xlink="http://www.w3.org/1999/xlink" x="0px" y="0px"
	 viewBox="0 0 42 44" style="enable-background:new 0 0 42 44;" xml:space="preserve">
<style type="text/css">
	.st0{fill:#8E9395;}
</style>
<desc>Created with sketchtool.</desc>
<g id="Icons">
	<g id="Artboard" transform="translate(-281.000000, -349.000000)">
		<g id="Group-14" transform="translate(281.000000, 349.000000)">
			<path id="Combined-Shape" class="st0" d="M21,0.6c11.6,0,21,9.4,21,21v1c0,11.6-9.4,21-21,21s-21-9.4-21-21v-1
				C0,10,9.4,0.6,21,0.6z M21,2.1c-10.8,0-19.5,8.7-19.5,19.5v1c0,10.8,8.7,19.5,19.5,19.5s19.5-8.7,19.5-19.5v-1
				C40.6,10.8,31.8,2.1,21,2.1z M37.1,32.5l0.1-0.2c-1.7,1-4.2,1.6-7.4,1.7c-1.8,0.1-3.3-0.1-4.6-0.2c-2.2-0.2-3.7-0.5-5.5-0.8
				c-3.3-0.6-5.8-0.7-6.9-0.7c-2.4,0-4.8,0.4-7,1.3l0,0.1c-2.2-3.1-3.6-6.9-3.6-11v-1C2.1,11.2,10.6,2.7,21,2.7s18.9,8.5,18.9,18.9
				v1C39.9,26.2,38.9,29.6,37.1,32.5z M36.4,33.5c-0.9,1.3-2,2.4-3.1,3.4c-1.2,0.1-2.1,0.2-2.7,0.2c-1,0-3.7-0.5-4.7-0.8
				c-1.4-0.4-5.2-1.5-5.9-1.7c-1.5-0.4-2.8-0.7-3.1-0.8c0,0-0.1,0-0.1-0.1c0-0.1,0-0.1,0.1-0.1v0c0.9,0,1.6,0,2.1,0.1
				c0.8,0.1,1.3,0.1,1.9,0.2c0.5,0.1,1.1,0.1,2.2,0.3c1.3,0.2,3.1,0.4,4.7,0.5c1.4,0.1,2.7,0,3.4-0.1C33.1,34.5,34.9,34.1,36.4,33.5
				z M30.4,39c-1.7,1-3.6,1.7-5.6,2.1c-1.3-0.7-2.2-1.2-2.8-1.6c-3.1-1.9-5-3.1-6-3.6c-1.2-0.6-1.8-0.9-2.1-1
				c-0.3-0.1-0.6-0.2-0.9-0.3c-0.4-0.1-0.6-0.1-0.6-0.2c0,0,0.3,0,0.6,0c0.4,0,1,0.2,1.3,0.2c1.2,0.2,2.6,0.7,3,0.8
				c0.8,0.2,3.4,1.1,3.8,1.3c1.5,0.5,4.5,1.4,5,1.5C27.5,38.6,29.7,38.9,30.4,39z M18.5,41.3c-3.4-0.4-6.6-1.8-9.2-3.9
				c0,0,0,0,0.1,0c0.9,0,2.4,0.3,3.8,0.8c0.7,0.2,1.6,0.6,2.7,1.2C16.4,39.8,17.3,40.4,18.5,41.3z M6.4,17.4v11.3
				c1.5,1,2.9,1.6,4.3,1.6c2,0.1,4.2,0,5.7-1.4c1.4-1.4,1.6-3.2,1.1-4.6c-0.3-1-1.1-1.8-2.3-2.6c1.4-1,1.9-2.3,1.3-4.1
				c-0.8-2.6-3.6-3.1-6.3-2.7C8.4,15.2,7.1,16,6.4,17.4z M10.1,23.2c1.5,0,2.4,0,2.7,0.2c0.6,0.2,1.2,0.7,1.3,1.3
				c0.1,0.5,0.2,1.7-0.4,2.3c-0.2,0.2-0.5,0.4-1,0.5c-0.3,0-1,0.1-2-0.1c-0.2,0-0.4-0.1-0.6-0.2l0,0c-0.1-0.1-0.2-0.2-0.2-0.4l0-3.3
				C9.8,23.3,9.9,23.2,10.1,23.2z M10.1,18.4c0.3-0.6,0.8-0.7,1.5-0.7s1.2,0.2,1.5,0.9c0.4,0.6,0.1,1.5-0.5,1.9
				c-0.4,0.2-1.3,0.3-2.7,0.2l0,0c-0.1,0-0.1-0.1-0.1-0.1C9.8,19.5,9.9,18.8,10.1,18.4z M25.5,17.1c-1.8,2-1.9,4.4-1.9,5.7
				s0.2,3.4,1.4,5c1.2,1.7,2.7,2.7,5.7,2.7c1.9,0,3.6-0.5,5-1.5c0.2-0.1,0.3-0.3,0.3-0.6l0-6.7c0-0.1-0.1-0.2-0.2-0.2h-4.4
				c-0.2,0-0.4,0.2-0.4,0.4V24c0,0.1,0.1,0.2,0.2,0.2h1.6c0.1,0,0.2,0.1,0.2,0.2v2.5c0,0.1,0,0.2-0.1,0.2l0,0
				c-0.2,0.1-0.3,0.2-0.4,0.3c-0.7,0.2-1.2,0.3-1.4,0.3c-1.6,0-2.4-0.7-2.7-1c-1.6-1.4-1.3-3.7-1.3-4.5c0-1.1,0.5-2.5,1.4-3.5
				c1-0.9,2.2-1,2.7-1c0.9,0,1.9,0.4,2.9,1.2c0,0,0,0,0,0c0.1,0.1,0.3,0,0.3-0.1l1.1-2.1c0.1-0.1,0-0.3-0.1-0.4l0,0
				c-0.5-0.4-1-0.8-1.5-0.9c-1.7-0.7-2.5-0.5-3-0.5C29.4,14.8,27.3,15.1,25.5,17.1z M14.5,14.7c0.6,0.2,1.2,0.6,1.7,1.2
				c0.5,0.6,0.8,1.2,1,1.9h1.9l0.1,12.5h3l0.1-12.5h1.8c0.3-0.6,0.8-1.2,1.4-1.7c0.6-0.5,1.4-1,2.3-1.4H14.5z M19.9,6.5
				c0,0.1-0.1,0.1-0.2,0.1l-3.4,0c0,0-0.1,0-0.1,0c0,0,0,0.1,0,0.1l2.7,2C19,8.9,19,9,19,9.1l-1,3.2c0,0,0,0.1,0,0.1
				c0,0,0.1,0.1,0.1,0l2.7-2c0.1,0,0.2,0,0.2,0l2.7,2c0,0,0.1,0,0.1,0c0.1,0,0.1-0.1,0.1-0.1l-1-3.2c0-0.1,0-0.2,0.1-0.2l2.7-2
				c0,0,0,0,0-0.1c0-0.1,0-0.1-0.1-0.1l-3.4,0c-0.1,0-0.2-0.1-0.2-0.1l-1-3.1c0,0,0-0.1-0.1-0.1c-0.1,0-0.1,0-0.1,0.1L19.9,6.5z
				 M11.9,9.5c0,0.1-0.1,0.1-0.2,0.2l-1.5,0.2c0,0-0.1,0-0.1,0c0,0,0,0.1,0,0.1l1.3,0.7c0.1,0,0.1,0.1,0.1,0.2l-0.2,1.4
				c0,0,0,0.1,0,0.1c0,0,0.1,0,0.1,0l1-1c0.1-0.1,0.2-0.1,0.2,0l1.3,0.7c0,0,0.1,0,0.1,0c0,0,0.1-0.1,0-0.1l-0.6-1.3
				c0-0.1,0-0.2,0-0.2l1-1c0,0,0-0.1,0-0.1c0-0.1-0.1-0.1-0.1-0.1l-1.4,0.2c-0.1,0-0.2,0-0.2-0.1l-0.6-1.2c0,0,0,0-0.1-0.1
				c-0.1,0-0.1,0-0.1,0.1L11.9,9.5z M30,9.6l-0.2-1.4c0-0.1-0.1-0.1-0.1-0.1c0,0-0.1,0-0.1,0.1L29,9.4c0,0.1-0.1,0.1-0.2,0.1
				l-1.4-0.2c-0.1,0-0.1,0-0.1,0.1c0,0,0,0.1,0,0.1l1,1c0.1,0.1,0.1,0.1,0,0.2L27.7,12c0,0,0,0.1,0,0.1c0,0,0.1,0,0.1,0l1.3-0.7
				c0.1,0,0.2,0,0.2,0l1,1c0,0,0.1,0,0.1,0c0,0,0-0.1,0-0.1L30.3,11c0-0.1,0-0.2,0.1-0.2l1.3-0.7c0,0,0.1-0.1,0-0.1c0,0,0,0-0.1,0
				l-1.5-0.2C30.1,9.7,30,9.6,30,9.6z M35.4,13.3l0.1-0.8c0,0,0-0.1,0-0.1c0,0,0,0,0,0l-0.5,0.6c-0.1,0.1-0.1,0.1-0.2,0.1l-0.7-0.3
				c0,0-0.1,0-0.1,0c0,0,0,0,0,0l0.4,0.7c0,0.1,0,0.2,0,0.2l-0.5,0.6c0,0,0,0.1,0,0.1c0,0,0,0,0,0l0.8-0.2c0.1,0,0.2,0,0.2,0.1
				l0.4,0.7c0,0,0,0,0.1,0c0,0,0,0,0,0l0.1-0.8c0-0.1,0.1-0.2,0.1-0.2l0.8-0.2c0,0,0,0,0-0.1c0,0,0,0,0,0l-0.7-0.3
				C35.4,13.5,35.4,13.4,35.4,13.3z M6.6,13.3c0,0.1,0,0.2-0.1,0.2l-0.7,0.3c0,0,0,0,0,0c0,0,0,0.1,0,0.1l0.8,0.2
				c0.1,0,0.1,0.1,0.1,0.2l0.1,0.8c0,0,0,0,0,0c0,0,0.1,0,0.1,0l0.4-0.7c0-0.1,0.1-0.1,0.2-0.1l0.8,0.2c0,0,0,0,0,0c0,0,0,0,0-0.1
				l-0.5-0.6c-0.1-0.1-0.1-0.2,0-0.2l0.4-0.7c0,0,0,0,0,0c0,0,0,0-0.1,0l-0.7,0.3c-0.1,0-0.2,0-0.2-0.1l-0.5-0.6c0,0,0,0,0,0
				c0,0,0,0,0,0.1L6.6,13.3z"/>
		</g>
	</g>
</g>
</svg>
