<?xml version="1.0" encoding="utf-8"?>
<!-- Generator: Adobe Illustrator 16.0.0, SVG Export Plug-In . SVG Version: 6.00 Build 0)  -->
<!DOCTYPE svg PUBLIC "-//W3C//DTD SVG 1.1//EN" "http://www.w3.org/Graphics/SVG/1.1/DTD/svg11.dtd">
<svg version="1.1" id="Слой_1" xmlns="http://www.w3.org/2000/svg" xmlns:xlink="http://www.w3.org/1999/xlink" x="0px" y="0px"
	 width="99.893px" height="23.4px" viewBox="-0.046 0 99.893 23.4" enable-background="new -0.046 0 99.893 23.4"
	 xml:space="preserve">
<title>588E8379-9A6A-4647-B0C0-93E84769F522</title>
<desc>Created with sketchtool.</desc>
<path fill="#FFFFFF" d="M62.8,12.8c0,0.2,0,0.301,0,0.4c0,1.2,0,2.4,0,3.5c0,0.9-0.801,1.6-1.5,1.5c-0.4,0-0.7,0-1.1,0
	C60.1,18.2,60,18.2,60,18c0-3.3,0-6.6,0-9.899c0-0.7,0-1.5,0.301-2.2C60.6,5,61.1,4.3,61.9,3.8C63.5,3.1,65.1,2.7,66.8,3.1
	C67.4,3.2,68,3.5,68.6,3.9c0.7,0.5,1.101,1.2,1.399,2c0.5,1.3,0.601,2.7,0.4,4.1c-0.1,1-0.4,1.9-1,2.7c-1.199,1.8-3.199,2.1-4.9,1.5
	C63.9,14,63.4,13.6,63.1,13C62.9,12.9,62.9,12.9,62.8,12.8z M67.5,8.7C67.6,8.7,67.6,8.7,67.5,8.7c0-0.5-0.1-1-0.199-1.4
	c-0.1-0.6-0.4-1.1-0.9-1.5C65.1,4.9,63.4,5.6,63,7.1C62.8,7.9,62.8,8.8,62.9,9.7c0.1,0.7,0.301,1.3,0.801,1.7
	c1.1,1,2.899,0.6,3.5-0.8C67.5,10,67.6,9.4,67.5,8.7z"/>
<path fill="#FFFFFF" d="M84.5,10.5c0,1.2,0,2.3,0,3.5c0,0.2,0,0.2-0.199,0.2c-0.801,0-1.6,0-2.4,0c-0.3,0-0.3,0-0.3-0.3
	c0-2,0-4.101,0-6.101c0-0.6,0.101-1.199,0.2-1.699c0.199-1.2,1-2,2.1-2.5c1.9-0.9,3.9-0.801,5.7,0.3c0.8,0.399,1.2,1.1,1.3,2
	C91,6.4,91.1,7,91.1,7.6c0,2.199,0,4.3,0,6.5c0,0.1,0,0.199-0.2,0.199c-0.4,0-0.8,0-1.199,0c-0.9,0-1.4-0.6-1.4-1.399
	c0-1.8,0-3.601,0-5.5c0-0.4,0-0.7-0.2-1.101C87.8,5.8,87.4,5.6,86.9,5.4c-0.4-0.101-0.8-0.101-1.1,0C84.9,5.7,84.5,6.2,84.5,7.1
	C84.5,8.2,84.5,9.4,84.5,10.5L84.5,10.5z"/>
<path fill="#FFFFFF" d="M92,6.3c0-2,0-3.899,0-5.899c0-0.3,0-0.3,0.4-0.3s0.7,0,1.1,0c0.701,0,1.4,0.6,1.4,1.399
	c0,0.601,0,1.101,0,1.7c0,0.2,0,0.2,0.2,0.2c0.399,0,0.899,0,1.3,0c0.1,0,0.2,0.1,0.2,0.1c0,0.3,0,0.601,0,0.8
	c-0.2,0.601-0.7,1-1.399,1C94.9,5.3,94.9,5.3,94.9,5.6c0,1.899,0,3.8,0,5.699c0,0.5,0.2,0.801,0.801,0.801c0.299,0,0.5,0,0.799,0
	c0.101,0,0.201,0,0.201,0.199c0,0.601,0,1.2,0,1.801c0,0.1,0,0.199-0.201,0.199c-1,0-2,0-2.899-0.1c-0.8,0-1.3-0.6-1.399-1.3
	c0-0.3-0.101-0.5-0.101-0.8C92,10.1,92,8.2,92,6.3z"/>
<path fill="#FFFFFF" d="M70.9,11.1c0-0.801,0-1.7,0-2.5C70.9,7.8,71,7,71.4,6.2c0.5-1.2,1.4-2.1,2.7-2.5
	c0.8-0.3,1.601-0.4,2.399-0.4c0.201,0,0.301,0,0.5,0c0.201,0,0.201,0,0.201,0.2c0,0.9,0,1.7,0,2.601c0,0.1,0,0.199-0.201,0.199
	c-0.399,0-0.899,0-1.299,0C74.6,6.4,74,7,73.9,8.1c0,0.199,0,0.3,0,0.5c0,1.8,0,3.699,0,5.5c0,0.1,0,0.199-0.199,0.199
	c-0.801,0-1.701,0-2.5,0C71.1,14.3,71,14.3,71,14.1C70.9,13,70.9,12.1,70.9,11.1L70.9,11.1z"/>
<path fill="#FFFFFF" d="M78,8.7c0-1.8,0-3.5,0-5.3c0-0.101,0-0.2,0.201-0.2c0.399,0,0.899,0,1.299,0c0.801,0,1.4,0.6,1.4,1.4
	c0,3.1,0,6.199,0,9.399c0,0.101,0,0.2-0.199,0.2c-0.801,0-1.701,0-2.5,0C78.1,14.2,78,14.2,78,14C78,12.3,78,10.5,78,8.7L78,8.7z"/>
<path fill="#FFFFFF" d="M81.3,19c-0.1,0.2-0.2,0.5-0.2,0.7c-0.399,1.2-0.8,2.3-1.2,3.5c0,0.1-0.1,0.1-0.199,0.1
	c-0.201,0-0.4,0-0.601,0c-0.101,0-0.2-0.1-0.2-0.199C78.5,22,78.1,20.9,77.8,19.8c-0.1-0.3-0.2-0.5-0.301-0.8c0-0.1,0-0.1-0.1-0.1
	V19c0,1.3,0,2.7,0.1,4c0,0.101,0,0.2-0.199,0.2c-0.301,0-0.6,0-0.9,0c-0.1,0-0.199-0.1-0.199-0.2c0-1.899,0-3.899,0-5.8
	c0-0.2,0.1-0.2,0.199-0.2c0.4,0,0.801,0,1.2,0c0.101,0,0.2,0,0.3,0.2c0.301,0.8,0.5,1.6,0.801,2.3c0.199,0.601,0.399,1.2,0.6,1.9
	c0,0,0,0,0.1,0.1c0-0.1,0.1-0.1,0.1-0.2c0.5-1.399,1-2.699,1.4-4.1c0-0.1,0.1-0.2,0.2-0.2c0.399,0,0.8,0,1.3,0
	c0.1,0,0.2,0.101,0.2,0.2c0,2,0,3.9,0,5.9c0,0.1,0,0.199-0.2,0.199c-0.3,0-0.6,0-0.9,0c-0.1,0-0.199,0-0.199-0.1c0-1.2,0-2.4,0-3.6
	C81.3,19.4,81.3,19.2,81.3,19L81.3,19z"/>
<path fill="#FFFFFF" d="M70.201,18.9c-0.301,0-0.5,0-0.801,0h-0.1c-0.301,0-0.6-0.101-0.801-0.3C67.6,17.8,66.1,18.2,65.6,19.4
	c-0.5,1.1,0.101,2.399,1.2,2.7C67.6,22.4,68.6,22,69,21.2v-0.1c-0.1,0-0.1,0-0.199,0c-0.7,0-1.4,0-2.1,0c-0.101,0-0.201,0-0.201-0.2
	s0-0.4,0-0.7c0-0.2,0-0.2,0.201-0.2c1.199,0,2.399,0,3.5,0c0.1,0,0.199,0.101,0.199,0.2c0.1,1.7-1.4,3.2-3,3.2
	c-1.699,0.1-2.9-1.101-3.3-2.4C63.6,19.1,65,17.1,67,16.9c1-0.101,1.9,0.2,2.5,0.899C69.9,18.2,70,18.5,70.201,18.9L70.201,18.9z"/>
<path fill="#FFFFFF" d="M96.201,18.9c-0.5,0-0.9,0-1.4,0c-0.1,0-0.1-0.101-0.2-0.101C94,18.2,93.3,18.1,92.6,18.4S91.4,19.3,91.4,20
	c-0.1,1,0.5,1.8,1.4,2.101c0.9,0.3,1.8-0.101,2.199-0.9v-0.1c-0.1,0-0.1,0-0.1,0c-0.699,0-1.4,0-2.1,0c-0.1,0-0.2,0-0.2-0.2
	s0-0.4,0-0.7c0-0.1,0-0.2,0.2-0.2c1.199,0,2.4,0,3.5,0c0.1,0,0.199,0.101,0.199,0.2c0.101,1.6-1.199,3.1-2.799,3.2
	C92.3,23.5,91.1,22.8,90.5,21.6c-0.799-1.7-0.1-3.7,1.601-4.4c1.601-0.7,3.399,0,4.101,1.5C96.201,18.8,96.201,18.9,96.201,18.9z"/>
<path fill="#FFFFFF" d="M86.1,19.3c0,0.4,0,0.7,0,1.101c0,0.899,0,1.8,0,2.7c0,0.199,0,0.199-0.2,0.199c-0.3,0-0.5,0-0.8,0
	c-0.101,0-0.2,0-0.2-0.199c0-1.9,0-3.9,0-5.801c0-0.199,0-0.199,0.2-0.199s0.5,0,0.7,0c0.199,0,0.3,0.1,0.4,0.199
	c0.5,0.7,0.899,1.4,1.399,2.101c0.3,0.5,0.601,1,1,1.5c0,0,0.101,0,0.101,0.1c0-0.1,0-0.2,0-0.3c0-1.1,0-2.3,0-3.4
	c0-0.1,0-0.199,0.199-0.199c0.301,0,0.6,0,0.801,0c0.199,0,0.199,0.1,0.199,0.199c0,1.4,0,2.9,0,4.301c0,0.5,0,1,0,1.5
	c0,0.1,0,0.199-0.199,0.199c-0.301,0-0.5,0-0.801,0c-0.1,0-0.199-0.1-0.199-0.1C87.9,22,87.1,20.7,86.3,19.5
	C86.201,19.4,86.201,19.4,86.1,19.3L86.1,19.3z"/>
<path fill="#FFFFFF" d="M70,23.3c0.201-0.5,0.4-1,0.601-1.5c0.601-1.5,1.2-3,1.7-4.5c0.1-0.199,0.199-0.3,0.4-0.199
	c0.199,0,0.399,0,0.6,0c0.1,0,0.199,0,0.199,0.199C73.9,18.4,74.3,19.5,74.8,20.6c0.3,0.899,0.699,1.699,1,2.6v0.1
	c-0.1,0-0.1,0-0.1,0c-0.301,0-0.701,0-1,0c-0.101,0-0.201,0-0.201-0.199C74.4,22.8,74.3,22.5,74.1,22.1c0-0.101-0.101-0.2-0.2-0.2
	c-0.6,0-1.3,0-1.9,0c-0.1,0-0.199,0.1-0.199,0.2c-0.1,0.3-0.2,0.6-0.301,0.899c-0.1,0.101-0.1,0.2-0.299,0.2
	C70.701,23.3,70.3,23.3,70,23.3z M72.9,19L72.9,19c-0.3,0.601-0.5,1.3-0.8,1.9c0.5,0,1,0,1.5,0C73.4,20.2,73.1,19.6,72.9,19z"/>
<path fill="#FFFFFF" d="M83.1,20.2c0-1,0-2,0-2.9c0-0.199,0.101-0.199,0.2-0.199c0.3,0,0.5,0,0.8,0s0.3,0,0.3,0.199
	c0,1.2,0,2.4,0,3.5c0,0.7,0,1.5,0,2.2c0,0.101,0,0.2-0.199,0.2c-0.301,0-0.601,0-0.801,0c-0.1,0-0.199,0-0.199-0.2
	C83.1,22.2,83.1,21.2,83.1,20.2L83.1,20.2z"/>
<path fill="#FFFFFF" d="M79.4,2.3c-0.4,0-0.8,0-1.3,0c-0.2,0-0.2,0-0.2-0.199c0-0.601,0-1.301,0-1.9c0-0.1,0-0.2,0.2-0.2
	C78.5,0,79,0,79.4,0c0.801,0,1.4,0.601,1.4,1.4c0,0.2,0,0.399,0,0.7c0,0.1,0,0.199-0.2,0.199C80.201,2.3,79.8,2.3,79.4,2.3L79.4,2.3
	z"/>
<path fill="#FFFFFF" d="M98.1,15.7c0,0.2,0,0.3,0,0.5c0,0.3,0,0.6,0,0.9C98.1,17.2,98,17.2,98,17.3c0-0.1-0.1-0.1-0.1-0.199
	c0-0.5,0-1.101,0-1.601c0-0.1,0-0.2,0.1-0.2c0.101,0,0.201,0,0.201,0.101c0.199,0.5,0.399,0.899,0.5,1.399l0.1,0.101l0.1-0.101
	c0.2-0.5,0.4-0.899,0.6-1.399c0-0.101,0.101-0.101,0.201-0.101l0.1,0.101c0,0.6,0,1.1,0,1.7l-0.1,0.1c0-0.1-0.101-0.1-0.101-0.2
	c0-0.399,0-0.899,0-1.3c0,0,0-0.1,0-0.2c0,0.101-0.101,0.101-0.101,0.2C99.3,16.1,99.201,16.6,99,17c0,0.101-0.1,0.101-0.1,0.2
	c-0.1-0.1-0.1-0.1-0.199-0.2C98.5,16.6,98.4,16.1,98.1,15.7C98.201,15.7,98.201,15.7,98.1,15.7C98.201,15.7,98.201,15.7,98.1,15.7z"
	/>
<path fill="#FFFFFF" d="M97.4,16.4c0,0.2,0,0.5,0,0.7c0,0.1-0.1,0.1-0.1,0.199c0-0.1-0.1-0.1-0.1-0.199c0-0.5,0-0.9,0-1.4
	c0-0.1,0-0.2-0.201-0.2h-0.1l-0.1-0.1l0.1-0.101c0.301,0,0.5,0,0.801,0l0.1,0.101c0,0,0,0.1-0.1,0.1c0,0-0.101,0-0.201,0
	c-0.1,0-0.199,0-0.199,0.2C97.4,15.9,97.4,16.1,97.4,16.4L97.4,16.4z"/>
<g>
	
		<linearGradient id="SVGID_1_" gradientUnits="userSpaceOnUse" x1="7.4956" y1="-743.78" x2="16.0121" y2="-752.2967" gradientTransform="matrix(1 0 0 -1 -0.0151 -735.9009)">
		<stop  offset="0" style="stop-color:#FFFFFF"/>
		<stop  offset="1" style="stop-color:#FFF2A9"/>
	</linearGradient>
	<circle fill="url(#SVGID_1_)" cx="11.8" cy="12.2" r="6"/>
	<path fill="#FFCC00" d="M23.2,9.7c-1.8-0.1-3.6-0.2-5.5-0.3c1.2-1.601,2.3-3,3.4-4.5c-1.8,0.7-3.5,1.5-5.3,2.3
		C16.2,5.6,16.6,4,17,2.4c-1,0.899-1.9,1.8-3,2.7C13.9,3.5,13.8,2,13.7,0.5c-0.1,0-0.1,0-0.1,0c-0.9,1.601-1.9,3.3-2.8,4.9
		C9.8,4,8.9,2.6,8,1.2c-0.1,0-0.1,0-0.1,0C8,2.9,8.2,4.6,8.3,6.4c-1.4-1-3-2.2-4.5-3.3C4.5,4.7,5.1,6.3,5.9,7.9C4.4,7.6,3,7.3,1.6,7
		c1.3,1.2,2.5,2.5,3.9,3.7c-1.9,0.3-3.7,0.7-5.5,1c0,0.1,0,0.1,0,0.1C1.6,12.3,3.1,12.9,4.7,13.4C3.3,14.2,2,15,0.7,15.8
		c0,0.101,0,0.101,0,0.101c1.7-0.2,3.5-0.4,5.4-0.601C5,16.8,3.9,18.2,2.7,19.6C4.3,18.8,6.1,18,7.8,17.1C7.5,19,7.2,20.8,6.9,22.7
		c0.1,0,0.1,0,0.1,0c1-1.2,2-2.5,3.1-3.7c0.4,1.3,0.8,2.5,1.3,3.8c0.1,0,0.1,0,0.1,0c0.4-1.3,0.9-2.5,1.3-3.8c1,1.3,2.2,2.7,3.2,4
		c-0.1-1.899-0.3-3.899-0.5-5.8c1.6,1,3.1,1.9,4.6,2.9c-0.7-1.7-1.4-3.5-2.1-5.2c1.6,0,3.2-0.101,4.8-0.101c0-0.1,0-0.1,0-0.1
		c-1.5-0.7-3-1.3-4.6-1.9C19.8,12,21.5,10.8,23.2,9.7L23.2,9.7z M11.7,18.1C8.6,18,5.7,15.4,5.9,11.8c0.1-3,2.6-5.6,5.9-5.6
		c3.3,0,5.9,2.7,5.9,5.9C17.7,15.3,15.1,18,11.7,18.1z"/>
	<path fill="#242422" d="M15.7,13.6c-0.1-0.2-0.2-0.5-0.4-0.7C15.2,12.8,15.2,12.8,15.2,12.8c0,0.101,0,0.101,0,0.101
		c0.1,0.1,0.1,0.3,0.1,0.399C14,13.8,9.7,13.7,8,13.2c0.1-0.1,0.3-0.4,0.2-0.6c-0.3,0.399-0.6,0.8-1,1.1c0.3,0,0.4-0.2,0.6-0.3
		c0.4,0.5,0.7,1,1.2,1.5c0.9,0.899,1.9,1.3,3.1,1.2c0.8-0.101,1.5-0.4,2.1-1c0.5-0.4,1-1,1.3-1.601c0.1,0.101,0.2,0.2,0.4,0.4H16
		C15.9,13.8,15.9,13.8,15.9,13.8C15.8,13.8,15.7,13.7,15.7,13.6z M14.7,14.4c-0.5,0.6-1.1,1.1-1.9,1.399c-1.2,0.4-2.2,0.2-3.3-0.5
		C9,14.9,8.3,14.1,8.1,13.6c2.4,0.5,4.7,0.5,7,0.1C15,13.9,14.8,14.1,14.7,14.4z"/>
	<path fill="#FFFFFF" d="M14.3,11.4c0.1-0.101,0.2-0.101,0.2-0.101c0-0.199,0-0.399,0.1-0.6C14.4,10.7,14.2,11.1,14.3,11.4z"/>
	<path fill="#242422" d="M15,10.8C14.9,10.6,14.9,10.4,14.6,10.4c-0.1,0-0.3,0.1-0.4,0.3C13.8,11.4,14,12,14.1,12
		c0.1,0.3,0.4,0.4,0.6,0.101C15.1,11.8,15.1,11.3,15,10.8z M14.5,11.3c0,0.101-0.1,0.101-0.2,0.101c-0.1-0.4,0.1-0.7,0.3-0.7
		C14.5,10.8,14.5,11.1,14.5,11.3z"/>
	<path fill="#242422" d="M8.2,10.1C8.1,10,7.8,10.2,7.8,10.3C7.7,10.6,7.6,10.9,7.6,11.2c0,0.1,0,0.1,0,0.1c0,0.2,0.1,0.5,0.4,0.5
		c0.1,0,0.4-0.1,0.4-0.399c0.1-0.3,0.2-0.7,0.1-1C8.5,10.3,8.4,10.2,8.2,10.1z M7.9,11C7.9,11.1,7.8,11.1,7.7,11.1
		c-0.1-0.4,0.1-0.7,0.4-0.7C8,10.6,8,10.8,7.9,11z"/>
	<path fill="#242422" d="M10.9,12c0.3,0,0.5,0,0.8,0c0,0.101,0,0.101,0,0.2s0,0.1,0,0.1c0.1,0,0.1,0,0.1,0c0-0.1,0.1-0.1,0.1-0.1
		c0.1-0.2,0-0.4-0.2-0.4c-0.3,0-0.5,0-0.8,0c-0.4,0-0.7-0.199-0.7-0.6c-0.1-0.4,0-0.8,0.3-1.1c0.3-0.4,0.7-0.601,1.2-0.7
		c0.1,0,0.1-0.101,0.2-0.101c-0.1-0.1-0.2-0.1-0.3-0.1c-0.4,0.1-0.8,0.3-1.1,0.6C10.2,10.1,10,10.4,10,10.8
		C9.8,11.6,10.3,12,10.9,12z"/>
	<path fill="#242422" d="M8.3,9.4C8.9,9.5,9,10,9.1,10.5c0.1-0.7-0.3-1.3-0.8-1.3c-0.7-0.1-1.1,0.4-1.3,1C7.3,9.7,7.6,9.3,8.3,9.4z"
		/>
	<path fill="#242422" d="M14.8,9.7c0.6,0.1,0.9,0.6,1,1.2c0-0.7-0.4-1.3-1-1.4c-0.7-0.1-1,0.4-1.2,1C13.9,10,14.2,9.6,14.8,9.7z"/>
	
		<linearGradient id="SVGID_2_" gradientUnits="userSpaceOnUse" x1="7.4956" y1="-743.78" x2="16.0121" y2="-752.2967" gradientTransform="matrix(1 0 0 -1 -0.0151 -735.9009)">
		<stop  offset="0" style="stop-color:#FFFFFF"/>
		<stop  offset="1" style="stop-color:#FFF2A9"/>
	</linearGradient>
	<circle fill="url(#SVGID_2_)" cx="11.8" cy="12.2" r="6"/>
	<path fill="#FFCC00" d="M23.2,9.7c-1.8-0.1-3.6-0.2-5.5-0.3c1.2-1.601,2.3-3,3.4-4.5c-1.8,0.7-3.5,1.5-5.3,2.3
		C16.2,5.6,16.6,4,17,2.4c-1,0.899-1.9,1.8-3,2.7C13.9,3.5,13.8,2,13.7,0.5c-0.1,0-0.1,0-0.1,0c-0.9,1.601-1.9,3.3-2.8,4.9
		C9.8,4,8.9,2.6,8,1.2c-0.1,0-0.1,0-0.1,0C8,2.9,8.2,4.6,8.3,6.4c-1.4-1-3-2.2-4.5-3.3C4.5,4.7,5.1,6.3,5.9,7.9C4.4,7.6,3,7.3,1.6,7
		c1.3,1.2,2.5,2.5,3.9,3.7c-1.9,0.3-3.7,0.7-5.5,1c0,0.1,0,0.1,0,0.1C1.6,12.3,3.1,12.9,4.7,13.4C3.3,14.2,2,15,0.7,15.8
		c0,0.101,0,0.101,0,0.101c1.7-0.2,3.5-0.4,5.4-0.601C5,16.8,3.9,18.2,2.7,19.6C4.3,18.8,6.1,18,7.8,17.1C7.5,19,7.2,20.8,6.9,22.7
		c0.1,0,0.1,0,0.1,0c1-1.2,2-2.5,3.1-3.7c0.4,1.3,0.8,2.5,1.3,3.8c0.1,0,0.1,0,0.1,0c0.4-1.3,0.9-2.5,1.3-3.8c1,1.3,2.2,2.7,3.2,4
		c-0.1-1.899-0.3-3.899-0.5-5.8c1.6,1,3.1,1.9,4.6,2.9c-0.7-1.7-1.4-3.5-2.1-5.2c1.6,0,3.2-0.101,4.8-0.101c0-0.1,0-0.1,0-0.1
		c-1.5-0.7-3-1.3-4.6-1.9C19.8,12,21.5,10.8,23.2,9.7L23.2,9.7z M11.7,18.1C8.6,18,5.7,15.4,5.9,11.8c0.1-3,2.6-5.6,5.9-5.6
		c3.3,0,5.9,2.7,5.9,5.9C17.7,15.3,15.1,18,11.7,18.1z"/>
	<path fill="#242422" d="M15.7,13.6c-0.1-0.2-0.2-0.5-0.4-0.7C15.2,12.8,15.2,12.8,15.2,12.8c0,0.101,0,0.101,0,0.101
		c0.1,0.1,0.1,0.3,0.1,0.399C14,13.8,9.7,13.7,8,13.2c0.1-0.1,0.3-0.4,0.2-0.6c-0.3,0.399-0.6,0.8-1,1.1c0.3,0,0.4-0.2,0.6-0.3
		c0.4,0.5,0.7,1,1.2,1.5c0.9,0.899,1.9,1.3,3.1,1.2c0.8-0.101,1.5-0.4,2.1-1c0.5-0.4,1-1,1.3-1.601c0.1,0.101,0.2,0.2,0.4,0.4H16
		C15.9,13.8,15.9,13.8,15.9,13.8C15.8,13.8,15.7,13.7,15.7,13.6z M14.7,14.4c-0.5,0.6-1.1,1.1-1.9,1.399c-1.2,0.4-2.2,0.2-3.3-0.5
		C9,14.9,8.3,14.1,8.1,13.6c2.4,0.5,4.7,0.5,7,0.1C15,13.9,14.8,14.1,14.7,14.4z"/>
	<path fill="#FFFFFF" d="M14.3,11.4c0.1-0.101,0.2-0.101,0.2-0.101c0-0.199,0-0.399,0.1-0.6C14.4,10.7,14.2,11.1,14.3,11.4z"/>
	<path fill="#242422" d="M15,10.8C14.9,10.6,14.9,10.4,14.6,10.4c-0.1,0-0.3,0.1-0.4,0.3C13.8,11.4,14,12,14.1,12
		c0.1,0.3,0.4,0.4,0.6,0.101C15.1,11.8,15.1,11.3,15,10.8z M14.5,11.3c0,0.101-0.1,0.101-0.2,0.101c-0.1-0.4,0.1-0.7,0.3-0.7
		C14.5,10.8,14.5,11.1,14.5,11.3z"/>
	<path fill="#242422" d="M8.2,10.1C8.1,10,7.8,10.2,7.8,10.3C7.7,10.6,7.6,10.9,7.6,11.2c0,0.1,0,0.1,0,0.1c0,0.2,0.1,0.5,0.4,0.5
		c0.1,0,0.4-0.1,0.4-0.399c0.1-0.3,0.2-0.7,0.1-1C8.5,10.3,8.4,10.2,8.2,10.1z M7.9,11C7.9,11.1,7.8,11.1,7.7,11.1
		c-0.1-0.4,0.1-0.7,0.4-0.7C8,10.6,8,10.8,7.9,11z"/>
	<path fill="#242422" d="M10.9,12c0.3,0,0.5,0,0.8,0c0,0.101,0,0.101,0,0.2s0,0.1,0,0.1c0.1,0,0.1,0,0.1,0c0-0.1,0.1-0.1,0.1-0.1
		c0.1-0.2,0-0.4-0.2-0.4c-0.3,0-0.5,0-0.8,0c-0.4,0-0.7-0.199-0.7-0.6c-0.1-0.4,0-0.8,0.3-1.1c0.3-0.4,0.7-0.601,1.2-0.7
		c0.1,0,0.1-0.101,0.2-0.101c-0.1-0.1-0.2-0.1-0.3-0.1c-0.4,0.1-0.8,0.3-1.1,0.6C10.2,10.1,10,10.4,10,10.8
		C9.8,11.6,10.3,12,10.9,12z"/>
	<path fill="#242422" d="M8.3,9.4C8.9,9.5,9,10,9.1,10.5c0.1-0.7-0.3-1.3-0.8-1.3c-0.7-0.1-1.1,0.4-1.3,1C7.3,9.7,7.6,9.3,8.3,9.4z"
		/>
	<path fill="#242422" d="M14.8,9.7c0.6,0.1,0.9,0.6,1,1.2c0-0.7-0.4-1.3-1-1.4c-0.7-0.1-1,0.4-1.2,1C13.9,10,14.2,9.6,14.8,9.7z"/>
</g>
<g>
	
		<linearGradient id="SVGID_3_" gradientUnits="userSpaceOnUse" x1="37.1152" y1="585.2722" x2="37.1152" y2="568.9003" gradientTransform="matrix(1 0 0 1 -0.0151 -569.9004)">
		<stop  offset="0" style="stop-color:#40C6F3"/>
		<stop  offset="1" style="stop-color:#4098D3"/>
	</linearGradient>
	<path fill="url(#SVGID_3_)" d="M38.4,14.2c0.2,0,0.2-0.1,0.2-0.2c0-4.3,0-8.5,0-12.7C38.6,0.6,38,0,37.3,0c-0.4,0-0.9,0-1.4,0
		c-0.2,0-0.2,0.101-0.2,0.2c0,2.3,0,4.6,0,6.9c0,2.3,0,4.6-0.1,6.899c0,0.2,0.1,0.2,0.2,0.2C36.7,14.2,37.5,14.2,38.4,14.2z"/>
	
		<linearGradient id="SVGID_4_" gradientUnits="userSpaceOnUse" x1="44.165" y1="585.2722" x2="44.165" y2="568.902" gradientTransform="matrix(1 0 0 1 -0.0151 -569.9004)">
		<stop  offset="0" style="stop-color:#40C6F3"/>
		<stop  offset="1" style="stop-color:#4098D3"/>
	</linearGradient>
	<path fill="url(#SVGID_4_)" d="M42.4,3.6c0-0.2-0.1-0.2-0.2-0.2c-0.9,0-1.7,0-2.6,0c-0.2,0-0.2,0.1-0.2,0.2c0,2.1,0,4.1,0,6.199
		c0,0.5,0,1.101,0.1,1.601c0.2,1,0.7,1.899,1.7,2.399c1.7,0.9,3.5,1,5.4,0.301c0.8-0.301,1.5-0.801,1.9-1.7
		c0.3-0.601,0.4-1.2,0.4-1.9c0-2.3,0-4.6,0-6.899c0-0.2-0.1-0.2-0.2-0.2c-0.4,0-0.9,0-1.3,0c-0.2,0-0.4,0.1-0.5,0.1
		C46.4,3.6,46,4.2,46,4.8c0,1.801,0,3.601,0,5.4c0,0.1,0,0.3,0,0.5c0,0.4-0.2,0.8-0.6,1.1C44.7,12.3,44,12.4,43.3,12.1
		c-0.5-0.2-0.9-0.5-1-1.101c-0.1-0.3-0.1-0.5-0.1-0.8c0-1.1,0-2.2,0-3.3C42.2,5.7,42.2,4.6,42.4,3.6z"/>
	
		<linearGradient id="SVGID_5_" gradientUnits="userSpaceOnUse" x1="29.9336" y1="585.2722" x2="29.9336" y2="568.8991" gradientTransform="matrix(1 0 0 1 -0.0151 -569.9004)">
		<stop  offset="0" style="stop-color:#40C6F3"/>
		<stop  offset="1" style="stop-color:#4098D3"/>
	</linearGradient>
	<path fill="url(#SVGID_5_)" d="M26.2,0.1c-0.4,0-0.9,0-1.3,0c-0.2,0-0.2,0.1-0.2,0.199c0,3.101,0,6.2,0,9.301
		c0,0.6,0.1,1.199,0.2,1.8c0.2,0.899,0.7,1.6,1.5,2.1c1.7,1.101,3.6,1.3,5.5,0.8c0.7-0.199,1.2-0.399,1.7-0.899
		c0.5-0.601,0.9-1.3,1.1-2c0.4-1,0.5-2.101,0.4-3.101c-0.1-1.1-0.3-2.1-0.8-3C33.4,3.8,32.2,2.9,30.5,3c-1.2,0-2.1,0.5-2.9,1.601
		c-0.1-1.2,0-2.2-0.1-3.101C27.5,0.7,26.9,0.1,26.2,0.1z M27.8,6.9c0.3-0.9,1-1.4,2-1.4c1-0.1,1.7,0.4,2.1,1.3
		C32.1,7.4,32.2,8,32.2,8.7c0,0.6,0,1.3-0.3,1.9C31.6,11.5,30.8,12,29.8,12s-1.7-0.5-2-1.399C27.4,9.3,27.4,8.1,27.8,6.9z"/>
	
		<linearGradient id="SVGID_6_" gradientUnits="userSpaceOnUse" x1="54.5649" y1="585.2732" x2="54.5649" y2="568.9001" gradientTransform="matrix(1 0 0 1 -0.0151 -569.9004)">
		<stop  offset="0" style="stop-color:#40C6F3"/>
		<stop  offset="1" style="stop-color:#4098D3"/>
	</linearGradient>
	<path fill="url(#SVGID_6_)" d="M56.4,3.3c-1-0.3-2-0.399-3-0.199C51.701,3.3,50.6,4.3,50,5.9c-0.7,1.8-0.6,3.5-0.1,5.3
		c0.4,1.4,1.301,2.4,2.7,2.9c1,0.399,2,0.399,3,0.199c1.3-0.199,2.399-0.8,3.2-2c0.3-0.5,0.5-1,0.6-1.5c-0.1,0-0.1,0-0.1,0
		c-0.6,0-1.1,0-1.7,0c-0.5,0-1,0.2-1.3,0.601c-0.2,0.3-0.6,0.5-1,0.6C54.4,12.1,53.6,12.1,53,11.3c-0.299-0.399-0.5-0.899-0.5-1.5
		c-0.1-0.3-0.1-0.3,0.201-0.3c2.199,0,4.5,0,6.699,0c0.1,0,0.2-0.1,0.2-0.2c0-0.399,0-0.699,0-1.1c0-0.9-0.2-1.7-0.5-2.5
		C58.5,4.5,57.701,3.7,56.4,3.3z M56.3,7.6c-0.6,0-1.2,0-1.801,0c-0.699,0-1.299,0-1.899,0c-0.2,0-0.2,0-0.2-0.2
		c0.1-0.7,0.301-1.3,0.9-1.7c0.699-0.5,1.9-0.5,2.6,0.1c0.5,0.4,0.6,0.9,0.7,1.4C56.701,7.6,56.701,7.6,56.3,7.6z"/>
</g>
</svg>
