<?xml version="1.0" encoding="utf-8"?>
<!-- Generator: Adobe Illustrator 16.0.0, SVG Export Plug-In . SVG Version: 6.00 Build 0)  -->
<!DOCTYPE svg PUBLIC "-//W3C//DTD SVG 1.1//EN" "http://www.w3.org/Graphics/SVG/1.1/DTD/svg11.dtd">
<svg version="1.1" id="Слой_1" xmlns="http://www.w3.org/2000/svg" xmlns:xlink="http://www.w3.org/1999/xlink" x="0px" y="0px"
	 width="99.9px" height="23.4px" viewBox="0 0 99.9 23.4" enable-background="new 0 0 99.9 23.4" xml:space="preserve">
<title>588E8379-9A6A-4647-B0C0-93E84769F522</title>
<desc>Created with sketchtool.</desc>
<g>
	<path fill="#707479" d="M16,23.2c-1.1-1.4-2.2-2.7-3.2-4.1c-0.5,1.3-0.899,2.6-1.399,3.8c0,0,0,0-0.101,0
		c-0.5-1.3-0.8-2.601-1.3-3.8c-1.1,1.3-2.1,2.6-3.1,3.8c0,0,0,0-0.101,0C7.1,21,7.4,19.1,7.7,17.3C6,18.1,4.2,19,2.6,19.8l0,0
		C3.7,18.4,4.9,16.9,6,15.4C4.1,15.6,2.3,15.8,0.6,16c0,0,0,0,0-0.1C2,15.1,3.2,14.3,4.7,13.5C3.1,13,1.5,12.4,0,11.8c0,0,0,0,0-0.1
		c1.8-0.4,3.601-0.8,5.5-1.1C4.1,9.3,2.9,8,1.6,6.8l0,0C3,7.1,4.5,7.4,6,7.7c-0.8-1.4-1.5-3-2.2-4.6l0,0C5.3,4.2,6.9,5.4,8.4,6.5
		C8.3,4.7,8.1,3,8,1.2c0,0,0,0,0.101,0C8.9,2.6,9.9,4,10.9,5.5c0.899-1.7,1.899-3.3,2.8-5c0,0,0,0,0.1,0C13.9,2,14,3.5,14.1,5.1
		c1.1-0.9,2-1.801,3-2.7l0,0C16.7,4,16.3,5.6,15.9,7.2c1.8-0.8,3.5-1.6,5.3-2.3l0,0c-1.1,1.5-2.3,2.899-3.5,4.5
		c1.9,0.1,3.7,0.2,5.5,0.3c0,0,0,0,0,0.1c-1.7,1.101-3.4,2.2-5,3.2c1.6,0.7,3.1,1.3,4.6,2c0,0,0,0,0,0.101c-1.6,0-3.199,0.1-4.8,0.1
		c0.7,1.7,1.4,3.5,2.101,5.3l0,0c-1.5-1-3-2-4.601-2.899C15.7,19.3,15.8,21.2,16,23.2L16,23.2z M17.7,12.1c0-3.2-2.6-5.9-5.9-5.9
		C8.5,6.2,6,8.8,5.9,11.8C5.7,15.4,8.6,18,11.8,18.1C15.1,18,17.7,15.3,17.7,12.1z"/>
	<path fill="#707479" d="M15.5,13.6c-0.3,0.6-0.8,1.1-1.3,1.6c-0.6,0.5-1.3,0.8-2.1,1C10.8,16.4,9.8,15.9,8.9,15
		c-0.5-0.5-0.8-1-1.2-1.5c-0.1,0-0.3,0.2-0.6,0.2c0.5-0.3,0.8-0.7,1.1-1.1C8.3,12.8,8,13.1,8,13.2c1.7,0.5,6.101,0.6,7.4,0.1
		C15.3,13.1,15.3,13,15.2,12.8c0-0.1,0-0.1,0-0.199c0.1,0.1,0.1,0.1,0.2,0.199c0.2,0.2,0.2,0.5,0.399,0.801
		C15.9,13.7,16,13.8,16,13.8C16,13.9,16,13.9,16.1,14c-0.101,0-0.2,0-0.2,0C15.7,13.8,15.6,13.7,15.5,13.6z M8.1,13.5
		C8.3,14,9,14.8,9.5,15.2c1.101,0.8,2.101,1,3.3,0.5c0.801-0.3,1.4-0.8,1.9-1.4c0.2-0.199,0.3-0.5,0.5-0.699
		C12.8,14,10.5,14,8.1,13.5z"/>
	<path fill="#707479" d="M14,11.5c0.101-0.2,0.2-0.6,0.3-0.899c0.101-0.2,0.2-0.301,0.4-0.301s0.3,0.2,0.4,0.4
		c0.199,0.5,0.1,1.1-0.301,1.4C14.6,12.3,14.3,12.3,14.2,11.9C14,11.9,14,11.8,14,11.5z M14.6,10.6c-0.2,0-0.5,0.399-0.301,0.8
		c0.101-0.101,0.2-0.101,0.2-0.2C14.6,11,14.6,10.8,14.6,10.6z"/>
	<path fill="#707479" d="M7.5,11.2c0-0.3,0.101-0.6,0.2-0.9C7.8,10.1,8,10,8.2,10.1C8.4,10.2,8.5,10.3,8.5,10.5
		c0.101,0.4,0,0.8-0.2,1.101C8.3,11.7,8,11.8,7.9,11.8c-0.2,0-0.4-0.3-0.4-0.5V11.2z M7.7,11.1C7.8,11,7.9,11,7.9,10.9
		C8,10.7,8,10.5,8.1,10.3C7.8,10.3,7.7,10.6,7.7,11.1z"/>
	<path fill="#707479" d="M11.9,9.3C11.8,9.3,11.7,9.4,11.7,9.4c-0.5,0.2-0.9,0.399-1.2,0.8c-0.3,0.3-0.5,0.7-0.3,1.1
		c0.1,0.4,0.4,0.601,0.8,0.601c0.3,0,0.5,0,0.8,0c0.2,0,0.301,0.2,0.2,0.399c0,0.101-0.1,0.101-0.1,0.2c0,0,0,0-0.101,0
		c0-0.1,0-0.1,0-0.2c0-0.1,0-0.199,0-0.199c-0.3,0-0.5,0-0.8,0c-0.7,0-1.1-0.5-1.1-1.101c0-0.5,0.2-0.8,0.5-1.1s0.8-0.5,1.1-0.601
		C11.6,9.2,11.7,9.2,11.9,9.3C11.9,9.2,11.9,9.2,11.9,9.3z"/>
	<path fill="#707479" d="M9.2,10.5C9.1,10,9,9.5,8.4,9.4c-0.7-0.2-1,0.3-1.3,0.8c0.199-0.6,0.6-1.1,1.3-1C8.9,9.2,9.2,9.7,9.2,10.5z
		"/>
	<path fill="#707479" d="M15.8,10.9C15.6,10.3,15.3,9.8,14.7,9.7s-0.9,0.3-1.2,0.8c0.2-0.5,0.5-1.1,1.2-1
		C15.4,9.5,15.8,10.1,15.8,10.9z"/>
</g>
<path fill="#8F9295" d="M62.9,12.8c0,0.2,0,0.301,0,0.4c0,1.2,0,2.4,0,3.5c0,0.9-0.8,1.6-1.5,1.5c-0.4,0-0.7,0-1.101,0
	c-0.1,0-0.199,0-0.199-0.2c0-3.3,0-6.6,0-9.899c0-0.7,0-1.5,0.3-2.2C60.7,5,61.2,4.3,62,3.8C63.6,3.1,65.2,2.7,66.9,3.1
	c0.6,0.1,1.2,0.399,1.8,0.8c0.7,0.5,1.1,1.2,1.4,2c0.5,1.3,0.6,2.7,0.399,4.1c-0.1,1-0.399,1.9-1,2.7c-1.2,1.8-3.2,2.1-4.899,1.5
	C64,14,63.5,13.6,63.2,13C63,12.9,63,12.9,62.9,12.8z M67.6,8.7C67.7,8.7,67.7,8.7,67.6,8.7c0-0.5-0.101-1-0.2-1.4
	C67.3,6.7,67,6.2,66.5,5.8C65.2,4.9,63.5,5.6,63.1,7.1C62.9,7.9,62.9,8.8,63,9.7c0.101,0.7,0.3,1.3,0.8,1.7c1.101,1,2.9,0.6,3.5-0.8
	C67.6,10,67.7,9.4,67.6,8.7z"/>
<path fill="#5B6063" d="M27.7,4.6C27.7,4.6,27.7,4.5,27.7,4.6C28.5,3.5,29.4,3,30.6,3C32.3,2.9,33.5,3.8,34.4,5.3
	c0.5,0.9,0.7,1.9,0.8,3c0.1,1,0,2.101-0.4,3.101c-0.199,0.7-0.6,1.399-1.1,2c-0.5,0.5-1,0.7-1.7,0.899c-1.899,0.5-3.8,0.301-5.5-0.8
	c-0.8-0.5-1.3-1.2-1.5-2.1c-0.1-0.601-0.2-1.2-0.2-1.8c0-3.101,0-6.2,0-9.301c0-0.1,0-0.199,0.2-0.199c0.4,0,0.9,0,1.3,0
	C27,0.1,27.6,0.7,27.6,1.5C27.7,2.4,27.6,3.4,27.7,4.6C27.6,4.5,27.6,4.5,27.7,4.6z M32.3,8.7c0-0.7-0.1-1.3-0.3-1.9
	C31.6,5.9,30.9,5.4,29.9,5.5c-1,0-1.7,0.5-2,1.4c-0.4,1.2-0.4,2.399,0,3.7c0.3,0.899,1,1.399,2,1.399s1.8-0.5,2.1-1.399
	C32.3,10,32.3,9.3,32.3,8.7z"/>
<path fill="#5B6063" d="M59.5,10.8c-0.1,0.5-0.3,1-0.6,1.5c-0.8,1.2-1.9,1.801-3.2,2c-1,0.2-2,0.2-3-0.199c-1.4-0.5-2.3-1.5-2.7-2.9
	c-0.5-1.8-0.6-3.5,0.101-5.3C50.7,4.3,51.8,3.3,53.5,3.1c1-0.2,2-0.101,3,0.199c1.3,0.4,2.101,1.2,2.7,2.4c0.3,0.8,0.5,1.6,0.5,2.5
	c0,0.4,0,0.7,0,1.1c0,0.101-0.1,0.2-0.2,0.2c-2.2,0-4.5,0-6.7,0c-0.3,0-0.3,0-0.199,0.3c0,0.601,0.199,1.101,0.5,1.5
	C53.7,12.1,54.5,12.1,55.4,12c0.399-0.1,0.8-0.3,1-0.6c0.3-0.4,0.8-0.601,1.3-0.601c0.6,0,1.1,0,1.7,0
	C59.4,10.8,59.4,10.8,59.5,10.8z M54.6,7.6c0.6,0,1.199,0,1.8,0c0.399,0,0.399,0,0.3-0.4c-0.1-0.5-0.2-1-0.7-1.4
	c-0.7-0.6-1.899-0.6-2.6-0.1c-0.601,0.4-0.8,1-0.9,1.7c0,0.2,0,0.2,0.2,0.2C53.3,7.6,53.9,7.6,54.6,7.6z"/>
<path fill="#8F9295" d="M84.6,10.5c0,1.2,0,2.3,0,3.5c0,0.2,0,0.2-0.2,0.2c-0.8,0-1.601,0-2.4,0c-0.3,0-0.3,0-0.3-0.3
	c0-2,0-4.101,0-6.101c0-0.6,0.1-1.199,0.2-1.699c0.2-1.2,1-2,2.1-2.5c1.9-0.9,3.9-0.801,5.7,0.3C90.5,4.3,90.9,5,91,5.9
	C91.1,6.4,91.2,7,91.2,7.6c0,2.199,0,4.3,0,6.5c0,0.1,0,0.199-0.2,0.199c-0.399,0-0.8,0-1.2,0C88.9,14.3,88.4,13.7,88.4,12.9
	c0-1.8,0-3.601,0-5.5c0-0.4,0-0.7-0.2-1.101C87.9,5.8,87.5,5.6,87,5.4C86.6,5.3,86.2,5.3,85.9,5.4c-0.9,0.3-1.3,0.8-1.3,1.7
	C84.6,8.2,84.6,9.4,84.6,10.5L84.6,10.5z"/>
<path fill="#5B6063" d="M42.3,6.9c0,1.1,0,2.2,0,3.3c0,0.3,0,0.5,0.101,0.8c0.1,0.601,0.5,0.9,1,1.101
	c0.7,0.3,1.399,0.199,2.1-0.301c0.4-0.3,0.601-0.699,0.601-1.1c0-0.2,0-0.4,0-0.5c0-1.8,0-3.6,0-5.4C46.1,4.2,46.5,3.6,47,3.5
	c0.101,0,0.3-0.1,0.5-0.1c0.4,0,0.9,0,1.3,0c0.101,0,0.2,0,0.2,0.2c0,2.3,0,4.6,0,6.899c0,0.7-0.1,1.3-0.399,1.9
	C48.2,13.3,47.5,13.8,46.7,14.1C44.8,14.8,43,14.7,41.3,13.8c-1-0.5-1.5-1.399-1.699-2.399C39.5,10.9,39.5,10.3,39.5,9.8
	c0-2.1,0-4.1,0-6.199c0-0.101,0-0.2,0.2-0.2c0.9,0,1.7,0,2.6,0c0.101,0,0.2,0,0.2,0.2C42.3,4.6,42.3,5.7,42.3,6.9L42.3,6.9z"/>
<path fill="#8F9295" d="M92.1,6.3c0-2,0-3.899,0-5.899c0-0.3,0-0.3,0.399-0.3c0.4,0,0.7,0,1.101,0C94.3,0.1,95,0.7,95,1.5
	C95,2.1,95,2.6,95,3.2c0,0.2,0,0.2,0.2,0.2c0.4,0,0.9,0,1.3,0c0.101,0,0.2,0.1,0.2,0.1c0,0.3,0,0.601,0,0.8c-0.2,0.601-0.7,1-1.4,1
	C95,5.3,95,5.3,95,5.6c0,1.899,0,3.8,0,5.699c0,0.5,0.2,0.801,0.8,0.801c0.301,0,0.5,0,0.801,0c0.1,0,0.199,0,0.199,0.199
	c0,0.601,0,1.2,0,1.801c0,0.1,0,0.199-0.199,0.199c-1,0-2,0-2.9-0.1c-0.8,0-1.3-0.6-1.4-1.3c0-0.3-0.1-0.5-0.1-0.8
	C92.1,10.1,92.1,8.2,92.1,6.3z"/>
<path fill="#5B6063" d="M35.8,7.1c0-2.301,0-4.601,0-6.9c0-0.1,0-0.2,0.2-0.2c0.5,0,1,0,1.4,0c0.7,0,1.3,0.601,1.3,1.3
	c0,4.2,0,8.4,0,12.7c0,0.101,0,0.2-0.2,0.2c-0.899,0-1.7,0-2.6,0c-0.101,0-0.2,0-0.2-0.2C35.8,11.7,35.8,9.4,35.8,7.1L35.8,7.1z"/>
<path fill="#8F9295" d="M71,11.1c0-0.801,0-1.7,0-2.5C71,7.8,71.1,7,71.5,6.2C72,5,72.9,4.1,74.2,3.7c0.8-0.3,1.6-0.4,2.4-0.4
	c0.199,0,0.3,0,0.5,0c0.199,0,0.199,0,0.199,0.2c0,0.9,0,1.7,0,2.601c0,0.1,0,0.199-0.199,0.199c-0.4,0-0.9,0-1.301,0
	C74.7,6.4,74.1,7,74,8.1c0,0.199,0,0.3,0,0.5c0,1.8,0,3.699,0,5.5c0,0.1,0,0.199-0.2,0.199c-0.8,0-1.699,0-2.5,0
	c-0.1,0-0.199,0-0.199-0.199C71,13,71,12.1,71,11.1L71,11.1z"/>
<path fill="#8F9295" d="M78.1,8.7c0-1.8,0-3.5,0-5.3c0-0.101,0-0.2,0.199-0.2c0.4,0,0.9,0,1.301,0C80.4,3.2,81,3.8,81,4.6
	C81,7.7,81,10.8,81,14c0,0.101,0,0.2-0.2,0.2c-0.8,0-1.699,0-2.5,0c-0.1,0-0.199,0-0.199-0.2C78.1,12.3,78.1,10.5,78.1,8.7L78.1,8.7
	z"/>
<path fill="#8F9295" d="M81.4,19c-0.101,0.2-0.2,0.5-0.2,0.7c-0.4,1.2-0.8,2.3-1.2,3.5c0,0.1-0.1,0.1-0.2,0.1
	c-0.199,0-0.399,0-0.6,0c-0.1,0-0.2-0.1-0.2-0.199C78.6,22,78.2,20.9,77.9,19.8c-0.101-0.3-0.2-0.5-0.3-0.8c0-0.1,0-0.1-0.101-0.1
	V19c0,1.3,0,2.7,0.101,4c0,0.101,0,0.2-0.2,0.2c-0.3,0-0.601,0-0.9,0c-0.1,0-0.2-0.1-0.2-0.2c0-1.899,0-3.899,0-5.8
	c0-0.2,0.101-0.2,0.2-0.2c0.4,0,0.8,0,1.2,0c0.1,0,0.2,0,0.3,0.2c0.3,0.8,0.5,1.6,0.8,2.3c0.2,0.601,0.4,1.2,0.601,1.9
	c0,0,0,0,0.1,0.1c0-0.1,0.101-0.1,0.101-0.2c0.5-1.399,1-2.699,1.399-4.1c0-0.1,0.101-0.2,0.2-0.2c0.4,0,0.8,0,1.3,0
	c0.101,0,0.2,0.101,0.2,0.2c0,2,0,3.9,0,5.9c0,0.1,0,0.199-0.2,0.199c-0.3,0-0.6,0-0.899,0c-0.101,0-0.2,0-0.2-0.1
	c0-1.2,0-2.4,0-3.6C81.4,19.4,81.4,19.2,81.4,19L81.4,19z"/>
<path fill="#8F9295" d="M70.3,18.9c-0.3,0-0.5,0-0.8,0h-0.1c-0.3,0-0.601-0.101-0.8-0.3c-0.9-0.801-2.4-0.4-2.9,0.8
	c-0.5,1.1,0.1,2.399,1.2,2.7c0.8,0.3,1.8-0.101,2.2-0.9v-0.1c-0.101,0-0.101,0-0.2,0c-0.7,0-1.4,0-2.101,0c-0.1,0-0.199,0-0.199-0.2
	s0-0.4,0-0.7c0-0.2,0-0.2,0.199-0.2c1.2,0,2.4,0,3.5,0c0.101,0,0.2,0.101,0.2,0.2c0.101,1.7-1.399,3.2-3,3.2
	C65.8,23.5,64.6,22.3,64.2,21c-0.5-1.899,0.9-3.899,2.9-4.1c1-0.101,1.899,0.2,2.5,0.899C70,18.2,70.1,18.5,70.3,18.9L70.3,18.9z"/>
<path fill="#8F9295" d="M96.3,18.9c-0.5,0-0.899,0-1.399,0C94.8,18.9,94.8,18.8,94.7,18.8c-0.6-0.6-1.3-0.699-2-0.399
	S91.5,19.3,91.5,20c-0.1,1,0.5,1.8,1.4,2.101c0.899,0.3,1.8-0.101,2.2-0.9v-0.1C95,21.1,95,21.1,95,21.1c-0.7,0-1.399,0-2.1,0
	c-0.101,0-0.2,0-0.2-0.2s0-0.4,0-0.7c0-0.1,0-0.2,0.2-0.2c1.2,0,2.399,0,3.5,0c0.1,0,0.2,0.101,0.2,0.2c0.1,1.6-1.2,3.1-2.801,3.2
	C92.4,23.5,91.2,22.8,90.6,21.6c-0.801-1.7-0.101-3.7,1.6-4.4c1.6-0.7,3.4,0,4.1,1.5C96.3,18.8,96.3,18.9,96.3,18.9z"/>
<path fill="#8F9295" d="M86.2,19.3c0,0.4,0,0.7,0,1.101c0,0.899,0,1.8,0,2.7c0,0.199,0,0.199-0.2,0.199c-0.3,0-0.5,0-0.8,0
	c-0.1,0-0.2,0-0.2-0.199c0-1.9,0-3.9,0-5.801c0-0.199,0-0.199,0.2-0.199s0.5,0,0.7,0s0.3,0.1,0.399,0.199c0.5,0.7,0.9,1.4,1.4,2.101
	c0.3,0.5,0.6,1,1,1.5c0,0,0.1,0,0.1,0.1c0-0.1,0-0.2,0-0.3c0-1.1,0-2.3,0-3.4c0-0.1,0-0.199,0.2-0.199c0.3,0,0.601,0,0.8,0
	c0.2,0,0.2,0.1,0.2,0.199c0,1.4,0,2.9,0,4.301c0,0.5,0,1,0,1.5c0,0.1,0,0.199-0.2,0.199c-0.3,0-0.5,0-0.8,0c-0.1,0-0.2-0.1-0.2-0.1
	C88,22,87.2,20.7,86.4,19.5C86.3,19.4,86.3,19.4,86.2,19.3L86.2,19.3z"/>
<path fill="#8F9295" d="M70.1,23.3c0.199-0.5,0.399-1,0.6-1.5c0.6-1.5,1.2-3,1.7-4.5C72.5,17.1,72.6,17,72.8,17.1
	c0.2,0,0.4,0,0.601,0c0.1,0,0.2,0,0.2,0.199C74,18.4,74.4,19.5,74.9,20.6c0.3,0.899,0.7,1.699,1,2.6v0.1c-0.101,0-0.101,0-0.101,0
	c-0.3,0-0.699,0-1,0c-0.1,0-0.199,0-0.199-0.199c-0.101-0.301-0.2-0.601-0.4-1c0-0.101-0.1-0.2-0.2-0.2c-0.6,0-1.3,0-1.899,0
	c-0.101,0-0.2,0.1-0.2,0.2C71.8,22.4,71.7,22.7,71.6,23C71.5,23.1,71.5,23.2,71.3,23.2C70.8,23.3,70.4,23.3,70.1,23.3z M73,19L73,19
	c-0.3,0.601-0.5,1.3-0.8,1.9c0.5,0,1,0,1.5,0C73.5,20.2,73.2,19.6,73,19z"/>
<path fill="#8F9295" d="M83.2,20.2c0-1,0-2,0-2.9c0-0.199,0.1-0.199,0.2-0.199c0.3,0,0.5,0,0.8,0s0.3,0,0.3,0.199c0,1.2,0,2.4,0,3.5
	c0,0.7,0,1.5,0,2.2c0,0.101,0,0.2-0.2,0.2c-0.3,0-0.6,0-0.8,0c-0.1,0-0.2,0-0.2-0.2C83.2,22.2,83.2,21.2,83.2,20.2L83.2,20.2z"/>
<path fill="#8F9295" d="M79.5,2.3c-0.399,0-0.8,0-1.3,0C78,2.3,78,2.3,78,2.1C78,1.5,78,0.8,78,0.2C78,0.1,78,0,78.2,0
	c0.4,0,0.9,0,1.3,0c0.8,0,1.4,0.601,1.4,1.4c0,0.2,0,0.399,0,0.7c0,0.1,0,0.199-0.2,0.199C80.3,2.3,79.9,2.3,79.5,2.3L79.5,2.3z"/>
<path fill="#8F9295" d="M98.2,15.7c0,0.2,0,0.3,0,0.5c0,0.3,0,0.6,0,0.9c0,0.1-0.1,0.1-0.1,0.199C98.1,17.2,98,17.2,98,17.1
	c0-0.5,0-1.101,0-1.601c0-0.1,0-0.2,0.101-0.2c0.1,0,0.199,0,0.199,0.101c0.2,0.5,0.4,0.899,0.5,1.399L98.9,16.9L99,16.8
	c0.2-0.5,0.4-0.899,0.601-1.399c0-0.101,0.1-0.101,0.199-0.101L99.9,15.4c0,0.6,0,1.1,0,1.7L99.8,17.2c0-0.1-0.1-0.1-0.1-0.2
	c0-0.399,0-0.899,0-1.3c0,0,0-0.1,0-0.2c0,0.101-0.1,0.101-0.1,0.2c-0.2,0.4-0.301,0.9-0.5,1.3C99.1,17.1,99,17.1,99,17.2
	c-0.1-0.1-0.1-0.1-0.2-0.2C98.6,16.6,98.5,16.1,98.2,15.7C98.3,15.7,98.3,15.7,98.2,15.7C98.3,15.7,98.3,15.7,98.2,15.7z"/>
<path fill="#8F9295" d="M97.5,16.4c0,0.2,0,0.5,0,0.7c0,0.1-0.1,0.1-0.1,0.199c0-0.1-0.101-0.1-0.101-0.199c0-0.5,0-0.9,0-1.4
	c0-0.1,0-0.2-0.199-0.2H97l-0.1-0.1L97,15.3c0.3,0,0.5,0,0.8,0L97.9,15.4c0,0,0,0.1-0.101,0.1c0,0-0.1,0-0.199,0
	c-0.101,0-0.2,0-0.2,0.2C97.5,15.9,97.5,16.1,97.5,16.4L97.5,16.4z"/>
</svg>
