<?xml version="1.0" encoding="utf-8"?>
<!-- Generator: Adobe Illustrator 16.0.0, SVG Export Plug-In . SVG Version: 6.00 Build 0)  -->
<!DOCTYPE svg PUBLIC "-//W3C//DTD SVG 1.1//EN" "http://www.w3.org/Graphics/SVG/1.1/DTD/svg11.dtd">
<svg version="1.1" id="Слой_1" xmlns="http://www.w3.org/2000/svg" xmlns:xlink="http://www.w3.org/1999/xlink" x="0px" y="0px"
	 width="100px" height="40px" viewBox="0 0 100 40" enable-background="new 0 0 100 40" xml:space="preserve">
<title>20816139-8D1A-4A88-9642-B5B139794DE1</title>
<desc>Created with sketchtool.</desc>
<g>
	<path fill="#8F9295" d="M9.2,31.6c-0.9-0.1-1.8-0.1-2.7-0.3c-1.6-0.3-3-1-4.3-2c-0.6-0.5-1.2-1-1.8-1.6c-0.4-0.4-0.4-1-0.1-1.4
		c0.3-0.399,0.9-0.6,1.4-0.5C1.8,25.9,2,26,2.1,26.1C3.4,27.5,4.9,28.4,6.7,28.9c1.3,0.3,2.6,0.399,4,0.199
		c3.4-0.5,5.9-2.399,7.4-5.5c1.6-3.3,1.3-6.6-0.8-9.7c-1.2-1.7-2.7-2.9-4.6-3.6c-1.4-0.5-2.9-0.6-4.4-0.5C5.7,10.1,3.7,11.2,2,13
		c-0.4,0.4-1,0.4-1.5,0.1c-0.5-0.4-0.7-1-0.4-1.5c0.5-0.6,1-1.1,1.6-1.6c1.4-1.1,3-1.9,4.7-2.3c1.4-0.3,2.8-0.4,4.3-0.2
		c4.5,0.6,7.6,3.1,9.5,7c0.9,1.9,1.1,3.9,1,5.9c-0.3,3.5-1.9,6.3-4.6,8.4c-1.2,1-2.6,1.7-4.2,2.101C11.4,31.5,10.3,31.6,9.2,31.6z"
		/>
	<path fill="#8F9295" d="M85.2,24.6C85,24.8,84.7,25,84.5,25.2c-1.8,1.2-4.1,0.8-5.5-0.9c-1.5-1.8-1.7-3.8-1-5.9
		c0.5-1.5,1.4-2.6,3-3.1c1.5-0.5,2.9-0.2,4,0.8c0.3,0.3,0.3,0.3,0.5-0.1c0.2-0.6,0.8-1,1.5-0.9c0.6,0.1,1.1,0.7,1.1,1.3
		c0,3,0,6,0,9.1c0,0.9-0.399,1.8-1,2.5c-1.5,1.8-3.399,2.4-5.6,2c-1.3-0.3-2.3-1-3.1-2.1C78,27.4,78.1,26.6,78.6,26.2
		c0.5-0.4,1.101-0.4,1.601,0.2c0.2,0.199,0.3,0.399,0.5,0.6c1.3,1.4,3.7,1,4.6-0.7c0.3-0.5,0.101-1.2,0.101-1.7
		C85.3,24.6,85.2,24.6,85.2,24.6z M85.3,20.4c0.101-0.9-0.3-1.8-0.899-2.5c-0.801-1-2-1-2.9-0.2c-0.8,0.7-1,1.7-1,2.7
		c0,1.1,0.3,2,1.2,2.8c0.7,0.6,1.6,0.6,2.3,0C84.9,22.5,85.3,21.6,85.3,20.4z"/>
	<path fill="#8F9295" d="M29.4,24.4c-0.1,0.3-0.1,0.6-0.2,0.8c-0.3,0.6-0.9,0.8-1.6,0.7c-0.5-0.101-0.9-0.7-0.9-1.301
		c0-3.8,0-7.6,0-11.399c0-0.3,0-0.7,0.1-1c0.2-0.5,0.8-0.9,1.3-0.8c0.7,0.1,1.2,0.6,1.2,1.2c0,1.1,0,2.3,0,3.4c0,0.1,0,0.2,0,0.4
		c0.2-0.1,0.3-0.2,0.4-0.3c1.6-1.5,4-1.4,5.6,0c1.9,1.8,2.3,4.6,1.3,6.8c-0.7,1.5-1.8,2.6-3.5,2.899c-1.3,0.2-2.4-0.2-3.4-1
		C29.7,24.7,29.6,24.6,29.4,24.4z M34.2,20.7c0-1.3-0.3-2.2-1-2.9c-0.7-0.8-1.9-0.9-2.7-0.1c-0.6,0.6-1,1.3-1.1,2.2
		c-0.1,1.2,0.1,2.2,0.9,3.1c0.9,1,2.2,0.9,3-0.1C33.9,22.1,34.2,21.3,34.2,20.7z"/>
	<path fill="#8F9295" d="M56.9,20.5c0,2.4-1.601,4.6-4,5.3c-1.801,0.5-4.101-0.2-5.3-1.7c-0.8-1-1.3-2.1-1.3-3.399
		c-0.1-2.4,1.3-4.6,3.7-5.4c2.9-0.9,5.7,0.7,6.6,3.3C56.7,19.2,56.8,19.8,56.9,20.5L56.9,20.5z M49,20.5c0,1.2,0.3,2.1,1.1,2.8
		S52,24,52.8,23.4c1.7-1.4,1.7-4.101,0.101-5.5c-0.7-0.7-1.801-0.8-2.601-0.2C49.4,18.3,49,19.3,49,20.5z"/>
	<path fill="#8F9295" d="M94.7,25.9c-2.8,0.199-5.3-2.5-5.4-5.301c-0.1-3.2,2.5-5.6,5.2-5.7c3-0.1,5.2,2.6,5.4,4.9
		C100.3,23.5,97.3,26.1,94.7,25.9z M97.2,20.5c0-0.9-0.3-1.8-0.9-2.5c-1-1.1-2.399-1.1-3.399,0.1c-1.101,1.3-1,3.6,0.1,4.9
		c0.8,1,2.1,1.1,3,0.3C96.8,22.5,97.2,21.6,97.2,20.5z"/>
	<path fill="#8F9295" d="M69.3,16.2c0.2-0.2,0.4-0.3,0.601-0.5c1.3-0.9,2.699-1.1,4.1-0.4c1.4,0.7,2.1,1.8,2.1,3.4
		c0,1.899,0,3.8,0,5.7c0,0.6-0.399,1.199-1,1.399c-0.699,0.2-1.3-0.1-1.6-0.6c-0.1-0.2-0.1-0.5-0.1-0.7c0-1.8,0-3.6,0-5.4
		c0-1-0.9-1.9-1.601-2c-1-0.2-2,0.3-2.3,1.2c-0.1,0.2-0.1,0.5-0.1,0.8c0,1.8,0,3.6,0,5.5c0,0.601-0.4,1-0.9,1.2s-1,0.101-1.4-0.2
		c-0.3-0.3-0.399-0.6-0.399-1c0-2.8,0-5.5,0-8.3c0-0.6,0.399-1.1,1-1.3c0.6-0.1,1.2,0.2,1.5,0.7C69.2,16,69.2,16.1,69.3,16.2z"/>
	<path fill="#8F9295" d="M5.8,15.6c0-0.7,0-1.4,0-2.2c0-0.5,0.2-0.9,0.6-1c0.4-0.2,0.9-0.2,1.3,0.2C8,12.8,8.1,13,8.1,13.3
		c0,1.1,0,2.3,0,3.4c0,0.5,0,0.5,0.5,0.3c2.2-0.8,4.5,0,5.7,2.1c1.8,3.2-0.3,7.1-3.9,7.3c-1.1,0.1-2.3,0-3.4,0
		c-0.6,0-1.1-0.601-1.1-1.101c0-0.6,0.5-1.1,1.1-1.1C8,24.1,9,24,10,24.1c1,0,1.6-0.6,2-1.3c0.8-1.3-0.1-3.2-1.5-3.6
		c-0.2-0.1-0.4-0.1-0.6-0.1c-1,0-1.9,0-2.9,0c-0.7,0-1.3-0.5-1.3-1.3C5.8,17.1,5.8,16.3,5.8,15.6z"/>
	<path fill="#8F9295" d="M38.3,20.5c0-2.3,1.1-4,3.2-5c0.6-0.3,1.3-0.4,2.1-0.4c0.6,0,1.1,0.6,1.1,1.2c0,0.6-0.5,1.2-1.1,1.1
		c-1,0-1.7,0.5-2.1,1.3c-0.7,1.2-0.6,3.2,0.6,4.3c0.4,0.4,0.8,0.6,1.4,0.6c0.7,0,1.2,0.5,1.2,1.2c0,0.601-0.5,1.2-1.2,1.2
		c-1.8,0-3.2-0.9-4.2-2.3C38.5,22.7,38.2,21.6,38.3,20.5z"/>
	<path fill="#8F9295" d="M64.8,20.7c0,1.899-1,3.399-2.7,4.6C61.4,25.8,60.6,25.9,59.7,25.9c-0.7,0-1.2-0.5-1.2-1.2s0.5-1.2,1.2-1.2
		c0.899,0,1.399-0.6,1.899-1.2c1-1.399,0.5-3.9-0.899-4.7c-0.3-0.2-0.7-0.3-1-0.3c-0.7,0-1.2-0.5-1.2-1.1c0-0.7,0.5-1.2,1.2-1.2
		c1.399,0,2.5,0.5,3.5,1.4C64.3,17.6,64.8,18.9,64.8,20.7z"/>
	<path fill="#8F9295" d="M8.9,21.6c0,0.601-0.6,1.2-1.2,1.2c-0.6,0-1.2-0.6-1.2-1.2c0-0.699,0.5-1.2,1.2-1.2
		C8.4,20.4,8.9,21,8.9,21.6z"/>
</g>
</svg>
