<?xml version="1.0" encoding="UTF-8" standalone="no"?>
<svg
   xmlns:dc="http://purl.org/dc/elements/1.1/"
   xmlns:cc="http://creativecommons.org/ns#"
   xmlns:rdf="http://www.w3.org/1999/02/22-rdf-syntax-ns#"
   xmlns:svg="http://www.w3.org/2000/svg"
   xmlns="http://www.w3.org/2000/svg"
   viewBox="0 0 2645.6667 1133.8533"
   height="1133.8533"
   width="2645.6667"
   xml:space="preserve"
   id="svg2"
   version="1.1"><metadata
     id="metadata8"><rdf:RDF><cc:Work
         rdf:about=""><dc:format>image/svg+xml</dc:format><dc:type
           rdf:resource="http://purl.org/dc/dcmitype/StillImage" /></cc:Work></rdf:RDF></metadata><defs
     id="defs6" /><g
     transform="matrix(1.3333333,0,0,-1.3333333,0,1133.8533)"
     id="g10"><g
       transform="scale(0.1)"
       id="g12"><g
         transform="scale(1.16858)"
         id="g14"><path
           id="path16"
           style="fill:#4dc3bb;fill-opacity:1;fill-rule:nonzero;stroke:none"
           d="m 15968.1,3159.42 h -326.7 v -133.86 h 315 v -102.11 h -315 v -131.41 h 326.7 v -108.06 h -435.6 v 581.91 h 435.6 z m -1242,-477.92 h -113.9 l -241.8,584.39 h 123.1 l 175.4,-453.06 176.2,453.06 h 122.9 z m -917.7,2.48 h -108.8 v 581.91 h 108.8 z m -674.9,482.11 h -184.6 v -482.11 h -109.7 v 482.11 h -184.6 v 99.8 h 478.9 z m -1217.8,-495.42 c -216.1,0 -307.5,148.83 -308.4,300.09 -0.8,152.07 98.1,306.67 308.4,306.67 78.9,0 153.8,-29.89 213.7,-88.85 l -73.2,-70.75 c -38.2,37.53 -89.7,54.97 -140.5,54.97 -140.4,0 -201.2,-104.77 -200.3,-202.04 0.8,-96.46 56.6,-197.03 200.3,-197.03 50.8,0 108.1,20.82 146.3,59.03 l 74.8,-75.62 c -59.9,-59.06 -137.1,-86.47 -221.1,-86.47 z m -925.1,13.31 -49.1,109.73 h -304.3 l -49.8,-109.73 h -118.8 l 260.9,581.91 h 119.8 l 260.9,-581.91 z m -1005.86,0.04 h -130.5 l -169.6,194.47 h -105.6 v -194.47 h -109.71 v 582.72 c 92.25,0 184.5,-0.95 276.83,-0.95 137.18,-0.76 209.49,-92.18 209.49,-192.79 0,-79.77 -36.54,-160.36 -147.1,-182.79 l 176.19,-198.69 z m -1099.79,475.4 h -326.63 v -133.77 h 314.99 v -102.2 h -314.99 v -131.41 h 326.63 v -108.06 h -435.51 v 581.91 h 435.51 z m -999.12,6.67 h -184.52 v -482.11 h -109.76 v 482.11 H 7407 v 99.8 h 478.83 z M 6841.8,2683.98 h -68.17 v -0.81 l -305.89,393.08 V 2683.98 H 6358 v 581.81 h 88.97 l 285.1,-360.65 v 361.6 h 109.73 z m -1093.93,0 h -108.88 v 581.91 h 108.88 z m 143.77,777.19 c -163.43,0 -320.61,-62.68 -438.15,-174.92 L 4660.64,2486.89 H 16300 v 974.28 z m 4789.66,-565.22 h 216.2 l -108.1,247.73 z m -835.44,174.57 c 0,46.55 -30.72,93.03 -99.7,93.03 h -167.12 v -186.12 h 167.12 c 69.83,0 99.7,46.5 99.7,93.09 z m -5877.89,897.47 h -119.25 v -116.21 h 119.25 z m 0,-220.06 h -119.25 v -389.21 h 119.25 z m 946.07,-301.72 -521.52,-521.7 h -893.26 c -319.2,0 -397.37,85.01 -397.37,373.66 v 679.75 c 0,285.33 78.17,377.17 394.24,377.17 h 899.67 l 518.24,-518.1 c 107.46,-107.5 107.46,-283.36 0,-390.78 z M 3950.6,2482.73 3034.47,1566.41 C 2927.11,1459 2751.22,1459 2643.69,1566.41 L 764.006,3446.21 c -107.278,107.47 -107.278,283.28 0,390.69 l 518.214,517.97 h 464.07 c 523.22,0 762.66,124.49 846.41,445.29 h -776.28 -89.13 l 916.4,916.3 c 107.53,107.41 283.42,107.41 390.78,0 l 916.19,-916.3 h -478.51 c -683.12,0 -883.38,-210.7 -883.38,-795.05 v -727.16 c 0,-584.42 200.26,-795.22 883.38,-795.22 z m 10674,1560.54 h -31.6 l -541.7,751.51 h -410.8 V 3785.04 h 281.8 v 747.51 h 31.1 l 532.8,-747.51 h 421.2 v 1009.74 h -282.8 z m -2455.7,64.07 h -20.8 l -316.4,687.44 h -458.3 V 3785.04 h 283.9 v 716.72 h 30.2 L 12032.4,3785 h 256.6 l 343.7,716.76 h 31.4 v -716.72 h 284.3 v 1009.74 h -460.3 z m -3267.61,399.34 c 22.6,23.03 61.7,34.62 117.16,34.62 h 374.89 v 0.37 h 391.5 v 253.11 h -791.38 c -74.8,0 -138.63,-10.54 -191.35,-29.47 -52.62,-18.91 -95.15,-45.79 -127.67,-80.39 -32.26,-34.72 -55.88,-76.77 -70.6,-126.3 -14.98,-49.41 -22.25,-104.69 -22.25,-165.68 v -208.11 c 0,-60.99 7.27,-116.31 22.25,-165.73 14.72,-49.5 38.34,-91.57 70.6,-126.16 32.52,-34.72 75.05,-61.62 127.67,-80.49 52.72,-18.99 116.55,-27.41 191.35,-27.41 h 791.38 v 508.35 h -262.11 v -247.26 h -504.28 c -56.4,0 -95.68,12.3 -117.84,36.77 -22.25,24.51 -33.29,66.85 -33.29,126.87 v 169.3 c 0,61.98 11.38,104.51 33.97,127.61 z m 6461.11,0 c 22.6,23.03 61.7,34.62 117.1,34.62 h 374.9 v 0.37 h 391.4 v 253.11 h -791.3 c -74.8,0 -138.7,-10.54 -191.4,-29.47 -52.7,-18.91 -95.2,-45.79 -127.6,-80.39 -32.3,-34.72 -56,-76.77 -70.8,-126.3 -14.8,-49.41 -22.1,-104.69 -22.1,-165.68 v -208.11 c 0,-60.99 7.3,-116.31 22.1,-165.73 14.8,-49.5 38.5,-91.57 70.8,-126.16 32.4,-34.72 74.9,-61.62 127.6,-80.49 52.7,-18.99 116.6,-27.41 191.4,-27.41 h 791.3 v 508.35 h -262.1 v -247.26 h -504.2 c -56.4,0 -95.7,12.3 -118,36.77 -22.2,24.51 -33.2,66.85 -33.2,126.87 v 169.3 c 0,61.98 11.3,104.51 34.1,127.61 z m -9332.31,287.09 c -74.85,0 -138.7,-9.53 -191.44,-28.46 -52.63,-18.91 -95.17,-45.79 -127.57,-80.39 -32.38,-34.72 -55.94,-76.77 -70.7,-126.3 -14.9,-49.41 -22.21,-104.69 -22.21,-165.68 v -208.11 c 0,-60.99 7.31,-116.31 22.21,-165.73 14.76,-49.5 38.32,-91.57 70.7,-126.16 32.4,-34.72 74.94,-61.62 127.57,-80.49 52.74,-18.99 116.59,-28.47 191.44,-28.47 h 791.3 v 262.15 h -766.34 c -56.39,0 -95.71,12.3 -117.93,36.77 -22.16,24.51 -33.22,66.85 -33.22,126.87 v 169.3 c 0,61.98 11.32,104.51 34,127.61 22.62,23.03 61.71,34.81 117.15,34.81 h 766.34 v 252.28 z m 927.06,-252.42 h 448.94 v -757.34 h 285.69 v 757.34 h 443.84 v 252.42 H 6957.15 Z m 6195.75,-756.31 h 285.7 v 1009.74 h -285.7 z m -1871.5,0 h -961.5 l 151.7,260.02 h 374 l -249.4,427.64 h -36.7 l -401.2,-687.66 H 9874.18 L 10458,4794.78 h 239.1 l 584.3,-1009.74" /></g></g></g></svg>