<?xml version="1.0" encoding="utf-8"?>
<!-- Generator: Adobe Illustrator 24.1.3, SVG Export Plug-In . SVG Version: 6.00 Build 0)  -->
<svg version="1.1"
	 id="svg2" xmlns:cc="http://creativecommons.org/ns#" xmlns:dc="http://purl.org/dc/elements/1.1/" xmlns:rdf="http://www.w3.org/1999/02/22-rdf-syntax-ns#" xmlns:svg="http://www.w3.org/2000/svg"
	 xmlns="http://www.w3.org/2000/svg" xmlns:xlink="http://www.w3.org/1999/xlink" x="0px" y="0px" viewBox="0 0 2645.7 1133.9"
	 style="enable-background:new 0 0 2645.7 1133.9;" xml:space="preserve">
<style type="text/css">
	.st0{fill:#8E9395;}
</style>
<g id="g10" transform="matrix(1.3333333,0,0,-1.3333333,0,1133.8533)">
	<g id="g12" transform="scale(0.1)">
		<g id="g14" transform="scale(1.16858)">
			<path id="path16" class="st0" d="M15968.1,3159.4h-326.7v-133.9h315v-102.1h-315V2792h326.7V2684h-435.6v581.9h435.6V3159.4z
				 M14726.1,2681.5h-113.9l-241.8,584.4h123.1l175.4-453.1l176.2,453.1h122.9L14726.1,2681.5z M13808.4,2684h-108.8v581.9h108.8
				V2684z M13133.5,3166.1h-184.6V2684h-109.7v482.1h-184.6v99.8h478.9L13133.5,3166.1z M11915.7,2670.7
				c-216.1,0-307.5,148.8-308.4,300.1c-0.8,152.1,98.1,306.7,308.4,306.7c78.9,0,153.8-29.9,213.7-88.9l-73.2-70.8
				c-38.2,37.5-89.7,55-140.5,55c-140.4,0-201.2-104.8-200.3-202c0.8-96.5,56.6-197,200.3-197c50.8,0,108.1,20.8,146.3,59l74.8-75.6
				C12076.9,2698.1,11999.7,2670.7,11915.7,2670.7L11915.7,2670.7z M10990.6,2684l-49.1,109.7h-304.3l-49.8-109.7h-118.8
				l260.9,581.9h119.8l260.9-581.9H10990.6z M9984.7,2684h-130.5l-169.6,194.5H9579V2684h-109.7v582.7c92.2,0,184.5-0.9,276.8-0.9
				c137.2-0.8,209.5-92.2,209.5-192.8c0-79.8-36.5-160.4-147.1-182.8l176.2-198.7L9984.7,2684z M8885,3159.4h-326.6v-133.8h315
				v-102.2h-315V2792H8885V2684h-435.5v581.9H8885V3159.4z M7885.8,3166.1h-184.5V2684h-109.8v482.1H7407v99.8h478.8L7885.8,3166.1z
				 M6841.8,2684h-68.2v-0.8l-305.9,393.1V2684H6358v581.8h89l285.1-360.6v361.6h109.7L6841.8,2684z M5747.9,2684H5639v581.9h108.9
				V2684z M5891.6,3461.2c-163.4,0-320.6-62.7-438.1-174.9l-792.9-799.4H16300v974.3H5891.6z M10681.3,2896h216.2l-108.1,247.7
				L10681.3,2896z M9845.9,3070.5c0,46.6-30.7,93-99.7,93H9579v-186.1h167.1C9816,2977.4,9845.9,3023.9,9845.9,3070.5L9845.9,3070.5
				z M3968,3968h-119.2v-116.2H3968V3968z M3968,3747.9h-119.2v-389.2H3968V3747.9z M4914,3446.2l-521.5-521.7h-893.3
				c-319.2,0-397.4,85-397.4,373.7v679.8c0,285.3,78.2,377.2,394.2,377.2h899.7L4914,3837C5021.5,3729.5,5021.5,3553.6,4914,3446.2
				L4914,3446.2z M3950.6,2482.7l-916.1-916.3c-107.4-107.4-283.2-107.4-390.8,0L764,3446.2c-107.3,107.5-107.3,283.3,0,390.7
				l518.2,518h464.1c523.2,0,762.7,124.5,846.4,445.3h-776.3h-89.1l916.4,916.3c107.5,107.4,283.4,107.4,390.8,0l916.2-916.3h-478.5
				c-683.1,0-883.4-210.7-883.4-795.1V3278c0-584.4,200.3-795.2,883.4-795.2L3950.6,2482.7z M14624.6,4043.3h-31.6l-541.7,751.5
				h-410.8V3785h281.8v747.5h31.1l532.8-747.5h421.2v1009.7h-282.8V4043.3z M12168.9,4107.3h-20.8l-316.4,687.4h-458.3V3785h283.9
				v716.7h30.2l344.9-716.8h256.6l343.7,716.8h31.4V3785h284.3v1009.7h-460.3L12168.9,4107.3z M8901.3,4506.7
				c22.6,23,61.7,34.6,117.2,34.6h374.9v0.4h391.5v253.1h-791.4c-74.8,0-138.6-10.5-191.3-29.5c-52.6-18.9-95.2-45.8-127.7-80.4
				c-32.3-34.7-55.9-76.8-70.6-126.3c-15-49.4-22.2-104.7-22.2-165.7v-208.1c0-61,7.3-116.3,22.2-165.7
				c14.7-49.5,38.3-91.6,70.6-126.2c32.5-34.7,75-61.6,127.7-80.5c52.7-19,116.5-27.4,191.3-27.4h791.4v508.3h-262.1v-247.3h-504.3
				c-56.4,0-95.7,12.3-117.8,36.8c-22.2,24.5-33.3,66.8-33.3,126.9v169.3C8867.3,4441.1,8878.7,4483.6,8901.3,4506.7L8901.3,4506.7z
				 M15362.4,4506.7c22.6,23,61.7,34.6,117.1,34.6h374.9v0.4h391.4v253.1h-791.3c-74.8,0-138.7-10.5-191.4-29.5
				c-52.7-18.9-95.2-45.8-127.6-80.4c-32.3-34.7-56-76.8-70.8-126.3c-14.8-49.4-22.1-104.7-22.1-165.7v-208.1
				c0-61,7.3-116.3,22.1-165.7c14.8-49.5,38.5-91.6,70.8-126.2c32.4-34.7,74.9-61.6,127.6-80.5c52.7-19,116.6-27.4,191.4-27.4h791.3
				v508.3h-262.1v-247.3h-504.2c-56.4,0-95.7,12.3-118,36.8c-22.2,24.5-33.2,66.8-33.2,126.9v169.3
				C15328.3,4441.1,15339.6,4483.6,15362.4,4506.7L15362.4,4506.7z M6030.1,4793.8c-74.9,0-138.7-9.5-191.4-28.5
				c-52.6-18.9-95.2-45.8-127.6-80.4c-32.4-34.7-55.9-76.8-70.7-126.3c-14.9-49.4-22.2-104.7-22.2-165.7v-208.1
				c0-61,7.3-116.3,22.2-165.7c14.8-49.5,38.3-91.6,70.7-126.2c32.4-34.7,74.9-61.6,127.6-80.5c52.7-19,116.6-28.5,191.4-28.5h791.3
				v262.1h-766.3c-56.4,0-95.7,12.3-117.9,36.8c-22.2,24.5-33.2,66.8-33.2,126.9v169.3c0,62,11.3,104.5,34,127.6
				c22.6,23,61.7,34.8,117.1,34.8h766.3v252.3L6030.1,4793.8z M6957.2,4541.4h448.9V3784h285.7v757.3h443.8v252.4H6957.2
				L6957.2,4541.4z M13152.9,3785h285.7v1009.7h-285.7V3785z M11281.4,3785h-961.5l151.7,260h374l-249.4,427.6h-36.7l-401.2-687.7
				h-284.1l583.8,1009.7h239.1L11281.4,3785"/>
		</g>
	</g>
</g>
</svg>
