<?xml version="1.0" encoding="utf-8"?>
<!-- Generator: Adobe Illustrator 16.0.0, SVG Export Plug-In . SVG Version: 6.00 Build 0)  -->
<!DOCTYPE svg PUBLIC "-//W3C//DTD SVG 1.1//EN" "http://www.w3.org/Graphics/SVG/1.1/DTD/svg11.dtd">
<svg version="1.1" id="Слой_1" xmlns="http://www.w3.org/2000/svg" xmlns:xlink="http://www.w3.org/1999/xlink" x="0px" y="0px"
	 width="69px" height="33px" viewBox="0 0 69 33" enable-background="new 0 0 69 33" xml:space="preserve">
<title>8187FFCB-C305-4DA7-9BF7-96E3B993097F</title>
<desc>Created with sketchtool.</desc>
<g id="Icons">
	<g id="Artboard" transform="translate(-272.000000, -135.000000)">
		<g id="Group-9" transform="translate(272.000000, 135.000000)">
			<path id="Shape" fill="#5B6063" d="M10.922,8.174h6.321l-0.607,2.075h-4.121l-0.708,2.404h4.121l-0.582,2.05h-4.121l-0.91,3.088
				h4.146l-0.607,2.024H7.509L10.922,8.174z M37.471,0C55.979,2.632,69,8.731,69,15.792C69,25.256,45.638,33,17.016,33
				C11.074,33,5.335,32.646,0,32.039c1.745,0.05,3.489,0.101,5.284,0.101c28.622,0,51.959-8.099,51.959-18.019
				C57.243,8.402,49.506,3.29,37.471,0z M49.809,20.043c3.287,0,5.967-2.683,5.967-5.972c0-3.29-2.68-5.973-5.967-5.973
				c-3.286,0-5.967,2.683-5.967,5.973C43.842,17.361,46.522,20.043,49.809,20.043z M31.63,8.174h7.079l-0.581,2.075h-2.452
				l-2.807,9.565H30.72l2.781-9.565h-2.478L31.63,8.174z M29.253,10.351l-2.022,1.164c-0.43-0.607-0.86-1.012-1.315-1.24
				c-0.455-0.253-0.986-0.354-1.618-0.354c-1.34,0-2.528,0.531-3.54,1.619c-0.809,0.861-1.289,1.822-1.466,2.86
				c-0.177,1.038,0.025,1.898,0.607,2.606c0.582,0.709,1.365,1.063,2.377,1.063c0.758,0,1.466-0.177,2.124-0.557
				c0.683-0.354,1.264-0.911,1.77-1.619h-3.616l0.582-2.075h3.584h2.307c-0.38,1.923-1.239,3.468-2.529,4.606
				c-1.314,1.113-2.832,1.695-4.576,1.695c-1.871,0-3.262-0.658-4.121-1.975c-0.708-1.037-0.936-2.303-0.708-3.745
				c0.278-1.771,1.163-3.29,2.655-4.581c1.466-1.291,3.084-1.949,4.854-1.949c0.657,0,1.264,0.101,1.871,0.304
				c0.582,0.177,1.112,0.456,1.542,0.785C28.47,9.313,28.874,9.769,29.253,10.351z"/>
		</g>
	</g>
</g>
</svg>
