<?xml version="1.0" encoding="utf-8"?>
<!-- Generator: Adobe Illustrator 16.0.0, SVG Export Plug-In . SVG Version: 6.00 Build 0)  -->
<!DOCTYPE svg PUBLIC "-//W3C//DTD SVG 1.1//EN" "http://www.w3.org/Graphics/SVG/1.1/DTD/svg11.dtd">
<svg version="1.1" id="Слой_1" xmlns="http://www.w3.org/2000/svg" xmlns:xlink="http://www.w3.org/1999/xlink" x="0px" y="0px"
	 width="100px" height="12px" viewBox="0 0 100 12" enable-background="new 0 0 100 12" xml:space="preserve">
<title>72FA8804-EBA5-4B3E-8209-99A63967779A</title>
<desc>Created with sketchtool.</desc>
<path fill="#8F9295" d="M9.269,0.904h6.992l0.181,2.348h-0.414c-0.155-0.981-0.181-1.162-0.544-1.548
	c-0.362-0.387-1.061-0.336-1.631-0.336h-1.787c-0.13,0-0.233,0.025-0.336,0.129c-0.078,0.104-0.13,0.233-0.104,0.362v2.993h0.777
	c0.388,0,0.776-0.155,1.009-0.438c0.285-0.387,0.44-0.877,0.415-1.394h0.414v4.206h-0.414c-0.026-0.696-0.155-1.187-0.415-1.497
	c-0.285-0.31-0.673-0.464-1.087-0.464H11.6v3.38c0,0.104,0.052,0.232,0.13,0.311c0.129,0.077,0.285,0.129,0.44,0.104h1.424
	c1.527,0,2.408-0.49,2.667-2.452h0.44l-0.155,2.916H9.269V9.059h0.389c0.181,0.025,0.363-0.026,0.518-0.13
	c0.104-0.103,0.155-0.231,0.155-0.36V1.833c0-0.129-0.026-0.258-0.129-0.361c-0.104-0.078-0.259-0.129-0.415-0.129H9.269V0.904z"/>
<path fill="#8F9295" d="M16.131,3.768h3.159v0.413c-0.233-0.026-0.492,0.026-0.725,0.104c-0.104,0.051-0.156,0.155-0.156,0.258
	c0,0.078,0.026,0.181,0.052,0.259l1.528,3.406l1.424-3.304c0.026-0.051,0.026-0.103,0.026-0.181c0-0.309-0.285-0.49-0.88-0.568
	V3.742h2.408v0.413c-0.208,0-0.415,0.078-0.57,0.207c-0.155,0.103-0.259,0.258-0.337,0.439l-2.123,4.902h-0.337l-2.278-5.032
	c-0.052-0.155-0.155-0.284-0.311-0.387c-0.285-0.078-0.57-0.129-0.854-0.104L16.131,3.768z"/>
<path fill="#8F9295" d="M25.194,3.587c0.751-0.025,1.45,0.284,1.968,0.852c0.543,0.593,0.829,1.394,0.803,2.219
	c0.026,0.567-0.104,1.109-0.362,1.625c-0.233,0.439-0.57,0.801-1.01,1.059s-0.932,0.387-1.424,0.387
	c-0.725,0-1.424-0.309-1.916-0.852c-1.036-1.29-1.036-3.122,0-4.413C23.744,3.897,24.443,3.587,25.194,3.587z M25.194,4.026
	c-0.466,0-0.881,0.232-1.14,0.619c-0.285,0.413-0.44,1.083-0.44,1.961c0,0.903,0.155,1.574,0.44,2.013
	c0.233,0.387,0.673,0.646,1.14,0.646s0.906-0.232,1.166-0.646c0.311-0.412,0.44-1.109,0.44-2.064c0-0.903-0.155-1.522-0.44-1.935
	C26.1,4.258,25.66,4.026,25.194,4.026L25.194,4.026z"/>
<path fill="#8F9295" d="M29.855,0.801v7.896c0,0.103,0.026,0.18,0.103,0.258c0.104,0.077,0.233,0.129,0.389,0.129h0.363v0.464
	h-2.797V9.084h0.336c0.156,0,0.311-0.025,0.415-0.129c0.104-0.104,0.155-0.232,0.129-0.387V1.988
	c0.026-0.155-0.051-0.335-0.155-0.438c-0.156-0.129-0.362-0.207-0.569-0.207H27.55V0.878L29.855,0.801z"/>
<path fill="#8F9295" d="M32.807,3.666v3.819c-0.026,0.387,0.104,0.773,0.362,1.084c0.233,0.258,0.57,0.387,0.907,0.387
	c0.466,0,0.88-0.207,1.165-0.568C35.577,8,35.732,7.51,35.732,6.994V4.826c0-0.181-0.078-0.362-0.207-0.464
	c-0.259-0.129-0.543-0.207-0.829-0.181V3.742l2.045-0.103v4.747c0,0.182,0.052,0.361,0.182,0.516
	c0.155,0.13,0.336,0.182,0.517,0.182h0.363v0.412l-1.942,0.052l-0.129-1.136c-0.285,0.361-0.647,0.672-1.036,0.93
	c-0.311,0.206-0.699,0.311-1.062,0.311c-0.491,0.024-0.958-0.182-1.32-0.518c-0.363-0.335-0.544-0.928-0.544-1.754V4.877
	c0.026-0.206-0.077-0.413-0.259-0.516c-0.233-0.104-0.492-0.155-0.75-0.129V3.794L32.807,3.666z"/>
<path fill="#8F9295" d="M38.969,1.42h0.415v2.348h3.521v0.568h-3.521v3.69c-0.026,0.258,0.052,0.516,0.233,0.748
	c0.155,0.182,0.362,0.259,0.569,0.259c0.285,0,0.544-0.155,0.725-0.388c0.233-0.387,0.363-0.825,0.336-1.289h0.414
	c-0.025,0.773-0.207,1.342-0.517,1.703s-0.777,0.566-1.269,0.566c-0.415,0.027-0.803-0.129-1.113-0.387
	c-0.285-0.283-0.415-0.645-0.415-1.031V4.335h-1.009V3.897c0.414-0.051,0.776-0.257,1.035-0.568
	C38.788,2.762,38.995,2.091,38.969,1.42z"/>
<path fill="#8F9295" d="M41.662,3.768l2.305-0.077v4.954c0,0.104,0.026,0.207,0.104,0.284c0.104,0.077,0.233,0.13,0.362,0.13h0.414
	v0.464h-2.822V9.059h0.363c0.155,0.025,0.285-0.026,0.388-0.13c0.104-0.103,0.129-0.231,0.129-0.388V5.032
	c0.026-0.18-0.052-0.387-0.207-0.516c-0.156-0.129-0.389-0.181-0.596-0.181h-0.466V3.768H41.662z M43.268,1.033
	c0.181,0,0.362,0.077,0.492,0.207c0.13,0.129,0.208,0.31,0.208,0.491c0,0.18-0.078,0.361-0.208,0.49
	c-0.285,0.258-0.699,0.258-0.984,0c-0.259-0.284-0.259-0.697,0-0.98C42.931,1.11,43.086,1.033,43.268,1.033L43.268,1.033z"/>
<path fill="#8F9295" d="M47.748,3.587c0.75-0.025,1.45,0.284,1.968,0.852c0.543,0.593,0.828,1.394,0.802,2.219
	c0.025,0.567-0.103,1.109-0.362,1.625c-0.234,0.439-0.57,0.801-1.01,1.059s-0.932,0.387-1.424,0.387
	c-0.725,0-1.425-0.309-1.916-0.852c-1.036-1.29-1.036-3.122,0-4.413C46.296,3.897,47.022,3.587,47.748,3.587z M47.748,4.026
	c-0.467,0-0.881,0.232-1.14,0.619c-0.286,0.413-0.44,1.083-0.44,1.961c0,0.903,0.155,1.574,0.44,2.013
	c0.233,0.387,0.673,0.646,1.14,0.646c0.466,0,0.906-0.232,1.165-0.646c0.311-0.412,0.44-1.109,0.44-2.064
	c0-0.903-0.155-1.522-0.44-1.935C48.679,4.258,48.213,4.026,47.748,4.026L47.748,4.026z"/>
<path fill="#8F9295" d="M50.388,3.768l1.917-0.128c0.076,0.412,0.154,0.851,0.182,1.264c0.23-0.387,0.543-0.697,0.906-0.929
	c0.361-0.207,0.775-0.309,1.191-0.309c0.336,0,0.674,0.077,0.957,0.231c0.285,0.181,0.492,0.413,0.623,0.723
	c0.154,0.335,0.23,0.723,0.23,1.083v2.813c-0.025,0.155,0.027,0.336,0.131,0.439c0.129,0.104,0.311,0.154,0.465,0.129h0.156v0.464
	h-2.514V9.084h0.053c0.207,0.025,0.389-0.025,0.572-0.129c0.104-0.104,0.178-0.232,0.152-0.387V6.09
	c0.025-0.413-0.076-0.826-0.258-1.187c-0.232-0.361-0.621-0.568-1.061-0.542c-0.467,0-0.881,0.206-1.166,0.567
	C52.59,5.342,52.434,5.858,52.459,6.4v2.141c-0.025,0.156,0.027,0.336,0.156,0.439s0.311,0.154,0.492,0.129h0.156v0.465h-2.59V9.109
	h0.154c0.156,0,0.338-0.025,0.467-0.129c0.104-0.078,0.154-0.181,0.154-0.31V4.903c0.027-0.206-0.051-0.413-0.207-0.568
	c-0.154-0.129-0.361-0.206-0.568-0.181h-0.286V3.768z"/>
<path fill="#8F9295" d="M64.682,1.626l0.518-0.903h0.414l0.232,3.639h-0.387c-0.313-1.033-0.676-1.807-1.088-2.271
	c-0.439-0.542-1.113-0.877-1.838-0.903c-0.518,0-1.035,0.155-1.451,0.464c-0.439,0.335-0.777,0.8-0.959,1.342
	c-0.258,0.722-0.361,1.522-0.336,2.296c-0.025,0.749,0.078,1.522,0.336,2.245c0.182,0.516,0.494,0.98,0.934,1.316
	c0.416,0.283,0.881,0.438,1.398,0.413c0.621,0.052,1.217-0.181,1.682-0.594c0.389-0.413,0.621-0.981,0.598-1.548V6.271
	c0-0.129-0.053-0.232-0.156-0.31c-0.156-0.078-0.338-0.129-0.52-0.104h-0.775V5.419h3.521v0.438h-0.258
	c-0.184-0.025-0.336,0.026-0.492,0.129c-0.104,0.077-0.156,0.207-0.156,0.361v3.458h-0.416c-0.154-0.542-0.309-1.059-0.465-1.549
	c-0.26,0.465-0.646,0.852-1.113,1.136c-0.441,0.259-0.932,0.387-1.449,0.387c-0.752,0-1.502-0.206-2.15-0.593
	c-2.045-1.291-2.719-3.949-1.555-6.064c0.363-0.696,0.908-1.29,1.58-1.703c0.596-0.413,1.295-0.619,2.02-0.645
	c0.391,0,0.752,0.051,1.113,0.207C63.904,1.084,64.318,1.317,64.682,1.626z"/>
<path fill="#8F9295" d="M72.967,9.084l0.104,0.181c0,0.335-0.387,0.283-0.752,0.283c-0.283,0-0.852-0.025-1.033-0.154
	s-0.26-0.31-0.414-0.696c-0.285,0.335-0.65,0.619-1.037,0.825c-0.338,0.154-0.699,0.206-1.063,0.206
	c-0.492,0.026-0.957-0.104-1.344-0.387c-0.313-0.232-0.469-0.594-0.469-0.98c0-0.594,0.363-1.109,1.063-1.497
	c0.879-0.438,1.838-0.722,2.824-0.8V5.188c0-0.31-0.131-0.594-0.391-0.8c-0.26-0.233-0.596-0.336-0.959-0.336
	c-0.309,0-0.646,0.078-0.932,0.232c-0.182,0.104-0.285,0.232-0.285,0.335c0.025,0.103,0.078,0.207,0.156,0.284
	c0.104,0.129,0.156,0.284,0.182,0.439c0,0.181-0.053,0.335-0.182,0.464c-0.131,0.129-0.285,0.181-0.465,0.181
	c-0.209,0-0.391-0.077-0.518-0.207c-0.131-0.155-0.209-0.335-0.209-0.542c0-0.413,0.234-0.774,0.701-1.109
	c0.543-0.362,1.164-0.542,1.811-0.516c0.57-0.026,1.115,0.129,1.58,0.438c0.338,0.258,0.543,0.671,0.543,1.084v3.122
	c0,0.181,0.027,0.387,0.131,0.542c0.078,0.103,0.182,0.206,0.336,0.232C72.527,9.059,72.762,9.084,72.967,9.084z M70.818,6.478
	c-1.037,0.155-1.787,0.387-2.227,0.696c-0.338,0.258-0.518,0.646-0.492,1.059c-0.025,0.283,0.076,0.541,0.258,0.748
	c0.182,0.181,0.414,0.258,0.648,0.258c0.49,0,0.932-0.206,1.268-0.541c0.363-0.362,0.545-0.878,0.545-1.395V6.478z"/>
<path fill="#8F9295" d="M72.762,3.768l1.656-0.102c0.076,0.413,0.154,0.825,0.18,1.238c0.232-0.387,0.57-0.697,0.934-0.954
	c0.311-0.182,0.674-0.284,1.035-0.284c0.363-0.026,0.699,0.102,0.984,0.309c0.311,0.284,0.518,0.619,0.596,1.032
	C78.379,4.62,78.689,4.258,79.051,4c0.338-0.207,0.727-0.335,1.115-0.335c0.439-0.026,0.879,0.128,1.191,0.464
	c0.363,0.464,0.543,1.006,0.518,1.6v2.865c-0.027,0.129,0.025,0.258,0.129,0.361c0.156,0.104,0.338,0.154,0.518,0.129h0.26v0.464
	h-2.9V9.084h0.285c0.18,0.025,0.361-0.025,0.518-0.129c0.104-0.104,0.156-0.232,0.156-0.361V5.703
	c0.025-0.361-0.078-0.722-0.313-1.006c-0.207-0.233-0.518-0.362-0.828-0.362c-0.258,0-0.492,0.078-0.699,0.207
	c-0.207,0.155-0.389,0.361-0.492,0.594c-0.156,0.284-0.234,0.593-0.26,0.929v2.477c0,0.13,0.025,0.285,0.131,0.388
	c0.129,0.077,0.26,0.13,0.414,0.13h0.389v0.464H76.23V9.059h0.336c0.156,0,0.338-0.026,0.467-0.13
	c0.104-0.077,0.154-0.181,0.154-0.31V5.987c0.025-0.438-0.078-0.852-0.309-1.239c-0.184-0.258-0.494-0.387-0.805-0.387
	c-0.389-0.026-0.75,0.155-1.01,0.439c-0.336,0.413-0.518,0.928-0.492,1.47v2.297c-0.025,0.129,0.025,0.258,0.131,0.36
	c0.152,0.104,0.334,0.155,0.518,0.13h0.311v0.489h-2.926V9.084h0.439c0.129,0,0.285-0.025,0.389-0.129
	c0.076-0.078,0.129-0.207,0.129-0.311V4.852c0.025-0.181-0.053-0.335-0.154-0.464c-0.182-0.129-0.416-0.207-0.646-0.207V3.768
	L72.762,3.768z"/>
<path fill="#8F9295" d="M82.938,3.768l2.068-0.077v4.954c0,0.104,0.027,0.207,0.105,0.284c0.104,0.077,0.232,0.13,0.363,0.13h0.646
	v0.489H82.6V9.084h0.855c0.154,0.025,0.283-0.025,0.387-0.129s0.131-0.232,0.131-0.387V4.929c0.025-0.181-0.053-0.387-0.209-0.516
	c-0.154-0.129-0.387-0.181-0.596-0.181h-0.23V3.768z M84.307,1.033c0.182,0,0.365,0.077,0.494,0.207
	c0.129,0.129,0.205,0.31,0.205,0.491c0,0.18-0.076,0.361-0.205,0.49c-0.285,0.258-0.699,0.258-0.984,0
	c-0.258-0.284-0.258-0.697,0-0.98C83.973,1.11,84.129,1.033,84.307,1.033L84.307,1.033z"/>
<path fill="#8F9295" d="M85.965,3.768l1.916-0.128c0.078,0.412,0.156,0.851,0.182,1.264c0.234-0.387,0.545-0.697,0.906-0.929
	c0.363-0.207,0.777-0.309,1.191-0.309c0.336,0,0.674,0.077,0.957,0.231c0.287,0.181,0.494,0.413,0.623,0.723
	c0.154,0.335,0.232,0.723,0.232,1.083v2.813c-0.025,0.155,0.025,0.336,0.131,0.439c0.129,0.104,0.311,0.154,0.465,0.129h0.182v0.464
	h-2.563V9.084h0.051c0.207,0.025,0.389-0.025,0.57-0.129c0.104-0.104,0.182-0.232,0.156-0.387V6.09
	c0.025-0.413-0.078-0.826-0.26-1.187c-0.234-0.361-0.621-0.568-1.064-0.542c-0.465,0-0.877,0.206-1.164,0.567
	c-0.336,0.413-0.49,0.929-0.465,1.471v2.141c-0.025,0.156,0.025,0.336,0.156,0.439c0.129,0.104,0.309,0.154,0.465,0.129h0.156v0.465
	h-2.824V9.109h0.391c0.154,0,0.336-0.025,0.465-0.129c0.104-0.078,0.156-0.181,0.156-0.31V4.903
	c0.025-0.206-0.053-0.413-0.207-0.568c-0.156-0.129-0.365-0.206-0.57-0.181h-0.313L85.965,3.768z"/>
<path fill="#8F9295" d="M97.152,4.078c0.414-0.413,1.553-1.033,1.939-1.033c0.209-0.026,0.416,0.026,0.596,0.155
	c0.131,0.129-0.102,0.439-0.102,0.62c0,0.129-0.051,0.284-0.129,0.387c-0.078,0.104-0.209,0.155-0.338,0.155
	c-0.232,0-0.389-0.155-0.467-0.438c-0.025-0.129-0.076-0.181-0.154-0.181c-0.361,0.129-0.725,0.336-1.01,0.593
	c0.156,0.181,0.285,0.413,0.361,0.646c0.078,0.181,0.104,0.387,0.104,0.568c0,0.335-0.076,0.671-0.258,0.955
	c-0.207,0.309-0.518,0.567-0.854,0.722c-0.361,0.206-0.752,0.31-1.166,0.31h-0.672c-0.338-0.025-0.65,0.025-0.959,0.154
	c-0.156,0.104-0.234,0.26-0.234,0.439c0,0.154,0.078,0.283,0.182,0.361c0.234,0.104,0.465,0.154,0.725,0.129l1.529-0.025
	c0.777,0,1.32,0.129,1.656,0.387c0.338,0.232,0.543,0.645,0.518,1.059c0,0.489-0.207,0.929-0.57,1.238
	C97.307,11.742,96.506,12,95.443,12c-0.881,0-1.555-0.155-1.969-0.491c-0.311-0.181-0.49-0.515-0.518-0.852
	c0-0.257,0.129-0.489,0.336-0.671c0.313-0.231,0.699-0.387,1.088-0.438c-0.336-0.077-0.648-0.206-0.932-0.438
	c-0.207-0.181-0.313-0.438-0.313-0.723c0-0.258,0.105-0.49,0.26-0.697c0.234-0.23,0.543-0.412,0.855-0.516
	c-0.313-0.154-0.596-0.412-0.777-0.696c-0.182-0.284-0.26-0.62-0.26-0.929c0-0.542,0.234-1.059,0.648-1.394
	c0.49-0.387,1.088-0.593,1.709-0.567c0.283,0,0.57,0.052,0.83,0.129C96.66,3.794,96.92,3.923,97.152,4.078z M95.883,9.548
	c-0.752,0-1.295,0.104-1.631,0.31c-0.285,0.155-0.467,0.439-0.492,0.749c0,0.258,0.129,0.516,0.363,0.645
	c0.412,0.231,0.904,0.361,1.371,0.31c0.545,0.025,1.113-0.078,1.607-0.361c0.361-0.231,0.543-0.49,0.543-0.773
	c0-0.181-0.053-0.336-0.156-0.465c-0.129-0.154-0.311-0.284-0.518-0.336C96.607,9.574,96.246,9.522,95.883,9.548L95.883,9.548z
	 M95.521,3.975c-0.338,0-0.674,0.129-0.908,0.413c-0.26,0.31-0.387,0.722-0.361,1.135c-0.025,0.438,0.102,0.852,0.361,1.212
	c0.414,0.49,1.191,0.567,1.686,0.129c0.051-0.052,0.104-0.077,0.129-0.129c0.258-0.335,0.389-0.774,0.361-1.187
	c0.027-0.413-0.104-0.826-0.361-1.135C96.221,4.129,95.883,3.975,95.521,3.975L95.521,3.975z"/>
<path fill="#8F9295" d="M99.301,3.097c0.182,0,0.361,0.078,0.492,0.206C99.922,3.433,100,3.613,100,3.794s-0.078,0.361-0.207,0.49
	c-0.285,0.258-0.701,0.258-0.984,0c-0.26-0.284-0.26-0.697,0-0.981C98.965,3.175,99.119,3.097,99.301,3.097L99.301,3.097z"/>
<path fill="#8F9295" d="M6.809,9.6H6.68V9.394h0.052c0.052,0,0.077,0,0.129,0C6.887,9.42,6.913,9.445,6.913,9.471
	C6.939,9.548,6.887,9.6,6.809,9.6L6.809,9.6 M7.043,9.496c0-0.051-0.026-0.129-0.078-0.154C6.913,9.29,6.835,9.29,6.758,9.29H6.55
	v0.671h0.13V9.703h0.104l0.129,0.258h0.13L6.887,9.703C7.017,9.652,7.069,9.574,7.043,9.496 M6.809,10.142
	c-0.285,0-0.518-0.232-0.518-0.517c0-0.283,0.233-0.516,0.518-0.516c0.285,0,0.519,0.232,0.519,0.516
	C7.328,9.909,7.094,10.142,6.809,10.142 M6.809,8.98c-0.362,0-0.647,0.284-0.647,0.645c0,0.361,0.285,0.646,0.647,0.646
	c0.363,0,0.648-0.284,0.648-0.646C7.457,9.265,7.146,8.98,6.809,8.98L6.809,8.98"/>
<path fill="#8F9295" d="M0,0.62c3.082-1.651,7.069,0.078,7.354,4.257C1.657,5.316,0.958,2.762,0,0.62z"/>
<path fill="#8F9295" d="M0,9.548c3.082,1.651,7.043-0.103,7.354-4.258C1.657,4.826,0.958,7.406,0,9.548z"/>
<path fill="#707479" d="M6.292,1.91C4.816,0,2.123-0.567,0,0.62c0.854,1.909,1.501,4.181,5.722,4.309
	C6.24,4.026,6.447,2.968,6.292,1.91L6.292,1.91z M1.035,7.432c0.129,0,0.233,0.027,0.362,0.027c1.657,0,3.185-0.826,4.118-2.194
	C2.977,5.394,1.786,6.297,1.035,7.432L1.035,7.432z"/>
</svg>
