<?xml version="1.0" encoding="utf-8"?>
<!-- Generator: Adobe Illustrator 16.0.0, SVG Export Plug-In . SVG Version: 6.00 Build 0)  -->
<!DOCTYPE svg PUBLIC "-//W3C//DTD SVG 1.1//EN" "http://www.w3.org/Graphics/SVG/1.1/DTD/svg11.dtd">
<svg version="1.1" id="Слой_1" xmlns="http://www.w3.org/2000/svg" xmlns:xlink="http://www.w3.org/1999/xlink" x="0px" y="0px"
	 width="100px" height="40px" viewBox="0 0 100 40" enable-background="new 0 0 100 40" xml:space="preserve">
<title>20816139-8D1A-4A88-9642-B5B139794DE1</title>
<desc>Created with sketchtool.</desc>
<g>
	<path fill="#8F9295" d="M95.9,14.9c-2.601,0-5.2,0-7.801,0c-0.8,0-1.3,0.4-1.5,1.2c-0.3,1.8-0.699,3.6-1,5.4
		c-0.1,0.9,0.101,1.2,1.101,1.2c1.3,0,2.6,0,3.8,0c1.3,0,2.6,0,3.9,0c0.8,0,1.3-0.3,1.5-1.101c0.3-1.8,0.6-3.7,0.899-5.5
		C97.1,15.2,96.8,14.9,95.9,14.9z M96.3,16c-0.3,1.7-0.6,3.5-0.899,5.5c-0.101,0.4-0.2,0.6-0.801,0.6l0,0c-0.899,0-1.8,0-2.8,0h-1.2
		c-0.399,0-0.8,0-1.199,0c-0.9,0-1.801,0-2.7,0c-0.3,0-0.4,0-0.4-0.1c0,0,0-0.1,0-0.4c0.101-0.8,0.3-1.6,0.4-2.399
		c0.2-1,0.399-2,0.5-3c0.1-0.5,0.3-0.7,0.8-0.7h1.1c2.2,0,4.4,0,6.601,0c0.2,0,0.399,0,0.399,0C96.3,15.7,96.3,15.8,96.3,16z"/>
	<path fill="#8F9295" d="M99.2,13.6c-0.5-0.6-1.4-1-2.7-1c-2.4-0.1-5.1-0.1-8.4,0c-2.199,0-3.699,1-4,2.7
		c-0.5,2.4-0.899,4.8-1.199,6.9c-0.2,1.2,0.5,2.3,1.8,2.7c0.6,0.199,1.2,0.3,1.7,0.3c0.899,0,1.899,0,2.8,0c0.8,0,1.6,0,2.399,0
		c0.4,0,0.801,0,1.301,0s1.1,0,1.6,0c2.4,0,3.9-1.3,4.3-3.4c0.4-2.1,0.7-3.7,0.9-5.3C99.9,15.2,99.7,14.3,99.2,13.6z M99.1,16.4
		c-0.3,1.8-0.6,3.5-0.899,5.3C97.9,23.6,96.6,24.5,94.5,24.6c-1.4,0-2.7,0-4.1,0c-1.301,0-2.601,0-3.9,0c-0.5,0-1.1-0.1-1.6-0.3
		c-0.9-0.3-1.5-1-1.301-2c0.301-2.3,0.7-4.6,1.2-6.8c0.3-1.4,1.601-2.2,3.4-2.2c2.8,0,5.6-0.1,8.399,0
		C98.6,13.3,99.4,14.3,99.1,16.4z"/>
	<path fill="#8F9295" d="M81.6,12.6H81c-1,0-2,0-3,0c-2.3,0-4.7,0-7.1,0c-2.601,0.1-4,1.5-4.2,4.2c-0.101,1.5,0.6,2.5,2,2.9
		c0.5,0.1,1.1,0.2,1.7,0.2c1.5,0,3,0,4.5,0c0.6,0,1.1,0,1.699,0c0.2,0,0.9,0,1.101,0.1c0,0.2-0.101,0.9-0.101,1.1
		c-0.1,0.5-0.199,0.7-0.3,0.801C77.2,22,76.9,22,76.4,22c-1.801,0-3.7,0-5.5,0c-0.801,0-1.5,0-2.301,0H66.2l-0.5,2.7l0,0L65.6,25
		c0.601,0,1,0,1.101,0c0.899,0,1.899,0,2.8,0c1.1,0,2.2,0,3.3,0c1.3,0,2.601,0,3.9,0c2.399-0.1,3.8-1.3,4.2-3.7c0-0.1,0-0.2,0-0.3
		s0-0.2,0.1-0.3c0.2-1.2,0.1-2.1-0.5-2.7c-0.5-0.6-1.3-1-2.4-1C76.4,17,74.7,17,73,17c-0.7,0-1.3,0-2,0s-0.8-0.1-0.8-0.1
		s-0.101-0.2,0.1-0.8c0.101-0.3,0.2-0.4,0.9-0.4l0,0c2.1,0,4.2,0,6.3,0h2c0.7,0,1.4,0,1.8-0.4c0.4-0.4,0.4-1.1,0.3-1.9V12.6z
		 M79.5,14.9c-2.8,0-5.5,0-8.3,0c-0.7,0-1.3,0.1-1.601,0.9c-0.399,1.3-0.1,1.8,1.301,1.8c2.399,0,4.8,0,7.1,0.1
		c1.9,0.1,2.6,1.1,2.3,3c0,0.2-0.1,0.399-0.1,0.6c-0.3,2.101-1.4,3.101-3.5,3.2c-0.2,0-0.3,0-0.5,0c-0.5,0-1,0-1.4,0
		c-1.7,0-3.7,0-5.399,0c-1.7,0-3,0-3.101,0c0.101-0.5,0.2-1.1,0.3-1.7h1.9c2.6,0,5.2,0,7.8,0c1.2,0,1.601-0.3,1.8-1.5
		c0.301-1.8,0.2-2-1.699-2c-2,0-4.101,0-6.2,0c-0.5,0-1-0.1-1.5-0.2C67.6,18.8,67.1,18,67.2,16.9c0.2-2.3,1.3-3.6,3.6-3.6
		c3.3-0.1,6.7,0,10.101,0C81.1,14.8,81,14.9,79.5,14.9z"/>
	<path fill="#8F9295" d="M35.2,25c1.4,0.1,2.7,0.2,4.1,0.2c0.2,0,0.3,0,0.5,0H40c1.1,0,2.5,0,3.9-0.2c1.5-0.2,2.6-0.9,2.9-2.1
		c0.3-1,0.4-1.9,0.6-3c0.1-0.4,0.2-0.9,0.3-1.4l0.2-0.8h-0.8c-0.1,0-0.9,0-1.5,0c-0.1,0-0.3,0-0.5,0.1c-0.2,0.1-0.4,0.1-0.5,0.3
		c-0.3,0.3-0.5,0.6-0.5,1.2c0,0.5-0.1,1-0.2,1.5c0,0.2-0.1,0.4-0.1,0.601c0,0.199-0.1,0.6-0.2,0.699C43.5,22.2,43.3,22.2,42.9,22.2
		c-2.1,0-4.2,0-6.2,0c-0.3,0-0.4,0-0.4,0c0-0.101,0-0.2,0-0.5c0.3-1.6,0.6-3.3,0.9-4.9c0.1-0.4,0.2-0.9,0.3-1
		c0.2-0.1,0.7-0.1,1.1-0.1c1.7,0,3.5,0,5.2,0h2.3c0.9,0,1.5,0,1.9-0.4c0.4-0.4,0.4-0.9,0.5-1.9l0.1-0.8c-0.7,0-1.1,0-1.2,0
		c-0.7,0-1.5,0-2.2,0c-2.2,0-4.5,0-6.7,0c-0.9,0-1.8,0.3-2.4,0.5c-1.2,0.4-1.9,1.3-2.1,2.6c-0.2,1.4-0.5,2.8-0.7,4.2
		c-0.1,0.5-0.2,1-0.3,1.5c-0.2,1.1-0.1,1.899,0.4,2.5C33.4,24.5,34.1,24.9,35.2,25z M33.3,21.6c0.3-1.899,0.7-3.8,1-5.8
		c0.2-1,0.7-1.8,1.7-2.1c0.7-0.2,1.5-0.5,2.2-0.5c3-0.1,5.9,0,8.9,0c0.1,0,0.3,0,0.4,0l0,0l0,0c-0.1,1.6-0.1,1.6-1.7,1.6
		c-2.5,0-5,0-7.5,0c-1.5,0-1.8,0.2-2.1,1.7c-0.3,1.6-0.6,3.3-0.9,4.9c-0.2,0.899,0,1.3,1,1.3c2.1,0,4.2,0,6.2,0
		c1.1,0,1.4-0.3,1.6-1.4c0.1-0.7,0.3-1.5,0.4-2.2c0-0.7,0.4-0.9,1-0.8c0.4,0,0.8,0,1.3,0c-0.3,1.5-0.5,2.9-0.9,4.3
		c-0.3,1.101-1.3,1.5-2.3,1.7c-1.3,0.2-2.5,0.2-3.8,0.2c-1.6,0-3.1,0-4.7-0.2S33,23.3,33.3,21.6z"/>
	<path fill="#8F9295" d="M16.4,13.5L16.4,13.5L16.4,13.5z"/>
	<path fill="#8F9295" d="M15.1,21.1c-0.3,1.2-0.1,2.2,0.4,2.9c0.6,0.7,1.6,1.1,3,1.1c1.2,0,2.3,0,3.5,0c1.3,0,2.5,0,3.8,0h0.7
		c2.3,0,3.5-1,4-3.3c0.1-0.3,0.1-0.7,0.2-1v-0.2c0.3-1.8,0.6-3.6,0.9-5.399l0.5-2.7h-3.4L28.6,13c0,0.1,0,0.2-0.1,0.3
		c0,0.2-0.1,0.4-0.1,0.6l-0.3,1.4c-0.3,1.9-0.7,4-1,5.9c-0.1,0.7-0.4,0.7-0.6,0.7c-2.5,0-5.1,0-7.7,0c-0.2,0-0.3,0-0.3-0.101
		c0,0,0-0.1,0-0.3c0.2-1,0.4-2.1,0.6-3.2c0.2-1.2,0.4-2.4,0.6-3.6c0.1-0.5,0.2-1,0.3-1.6l0.1-0.8h-3.5l-0.2,0.9l0,0l0,0
		c-0.1,0.8-0.3,1.6-0.4,2.4C15.8,17.6,15.5,19.4,15.1,21.1z M17.1,13.6c0-0.1,0-0.3,0.1-0.4h2.1c-0.3,1.7-0.6,3.4-0.9,5.2
		c-0.2,1.1-0.4,2.2-0.6,3.2C17.7,22.3,18,22.7,18.7,22.7c2.6,0,5.2,0,7.7,0c0.8,0,1.1-0.601,1.2-1.3c0.4-2.5,0.9-4.9,1.3-7.3
		c0.1-0.3,0.1-0.6,0.2-0.9h2.1c-0.4,2.5-0.8,4.9-1.3,7.3c-0.1,0.4-0.1,0.8-0.2,1.1c-0.4,2-1.3,2.801-3.4,2.801c-2.6,0-5.3,0-7.9,0
		c-2.4,0-3.2-1.2-2.7-3.2C16.3,18.7,16.6,16.2,17.1,13.6z"/>
	<path fill="#8F9295" d="M13.2,20.5l0.4-3H4.8l0.3-1.9h0.5c0.7,0,1.4,0,2.1,0c1.6,0,3.2,0,4.9,0c0.3,0,0.5,0,0.7,0
		c0.5,0,0.9,0,1.2-0.2c0.3-0.3,0.4-0.6,0.4-1.2c0-0.2,0.1-0.5,0.1-0.8l0.1-0.8H2.2L0,25.1h3.5l0.8-4.6H13.2z M2.9,24.4H0.8
		c0.7-3.7,1.3-7.5,2-11.2h11.6c-0.3,1.9,0.1,1.6-1.7,1.6c-2.3,0-4.6,0-6.9,0c-0.3,0-0.6,0-1,0C4.4,16,4.2,17,4,18.2h8.8
		c-0.1,0.6-0.2,1.1-0.2,1.7H3.7C3.5,21.5,3.2,22.9,2.9,24.4z"/>
	<path fill="#8F9295" d="M46.5,25.1h1.4c0.2,0,1.2,0,1.4,0c0.9,0,1.601-0.399,2.2-1.199c0.6-0.7,1.2-1.5,1.8-2.2
		c0.3-0.3,0.5-0.601,0.8-0.9l3.4-4c0,0,0,0,0,0.1c0.3,0.6,0.6,1.2,0.9,1.8c0.899,1.8,1.699,3.6,2.6,5.5c0.2,0.3,0.6,0.899,1.1,1
		c0.5,0.1,1,0.1,1.5,0c0.2,0,0.4,0,0.601,0h1l-0.2-1c0-0.101-0.1-0.2-0.1-0.2C64.8,23.9,64.8,23.8,64.8,23.7L64,22.2
		c-1.3-2.8-2.7-5.6-4.1-8.4C59.6,13.1,59,12.6,58.3,12.5S56.9,12.7,56.4,13.4c-2.5,3-8.9,10.6-9,10.7L46.5,25.1z M48.4,23.9
		c2.8-3.4,5.7-6.7,8.5-10.101c0.8-0.9,1.899-0.8,2.399,0.3c1.601,3.3,3.2,6.6,4.8,9.9c0.101,0.1,0.101,0.3,0.2,0.5
		c-0.7,0-1.399,0.1-2,0c-0.2,0-0.5-0.3-0.6-0.6c-1.2-2.4-2.3-4.9-3.5-7.3c-0.101-0.3-0.3-0.6-0.5-1c-1.4,1.6-2.7,3.2-4,4.8
		c-0.9,1-1.7,2.1-2.601,3.1c-0.5,0.6-1,1-1.7,1h-0.1c-0.1,0-0.9,0-1.4-0.1C48.1,24.2,48.3,24,48.4,23.9z"/>
	<path fill="#8F9295" d="M11.3,27L11.3,27c0.1,0,0.1-0.1,0.2-0.1h0.1h0.1c0,0,0,0,0.1,0h0.1H12c0,0,0,0,0.1,0c0,0,0,0,0.1,0h0.1
		c0.1,0,0.2,0,0.2-0.101c0.1,0,0.2,0,0.2-0.1V26.6c0-0.199,0-0.3,0-0.5c0-0.199,0-0.399,0-0.6s0-0.4,0-0.7c0-0.2,0-0.399,0-0.6
		s0-0.4,0-0.601c0-0.1,0-0.199,0-0.199l0,0l0,0c0,0,0,0.1-0.1,0.1c-0.1,0.1-0.2,0.3-0.3,0.5c-0.1,0.1-0.2,0.2-0.3,0.3l0,0
		c-0.1,0-0.2,0-0.2,0c-0.2,0-0.3-0.1-0.5-0.2c-0.1-0.1-0.2-0.199-0.2-0.3c0,0,0,0,0-0.1c0-0.101-0.1-0.101-0.1-0.2
		c0,0,0-0.1-0.1-0.1c0,0.1,0,0.1-0.1,0.199c0,0.101-0.1,0.2-0.1,0.301l0,0c-0.1,0.1-0.1,0.199-0.2,0.3c-0.1,0.1-0.1,0.1-0.2,0.1
		h-0.1c-0.1,0-0.2,0-0.4,0c-0.2-0.1-0.3-0.2-0.4-0.2c-0.3,0-0.4-0.1-0.5-0.3c-0.2-0.2-0.3-0.3-0.4-0.5c0,0,0-0.1-0.1-0.1
		c0,0.1,0,0.1,0,0.2c0,0.1,0.1,0.3,0.1,0.399c0,0.3,0,0.5,0,0.8c0,0.101,0,0.2-0.1,0.301C8.3,25,8.2,25.1,8.1,25.2
		c-0.1,0.1-0.3,0.1-0.4,0H7.6H7.5c-0.1,0-0.3-0.101-0.4-0.101H7C7,25.2,7.1,25.2,7.1,25.3c0,0,0,0,0,0.101v0.1c0,0,0,0,0,0.1V25.7
		c0,0.1,0.1,0.2,0,0.3c0,0.2-0.1,0.3-0.2,0.4c-0.1,0-0.1,0.1-0.2,0.1c0,0,0,0-0.1,0c0,0-0.1,0-0.2,0c-0.2,0-0.3,0-0.4,0
		s-0.2,0-0.3,0L6,26.6V26.7l0.1,0.1L6.2,26.9L6.3,27l0.1,0.1L6.5,27.2l0.1,0.1L6.7,27.4L7,27.5l0.1,0.1C7.2,27.7,7.2,27.7,7.3,27.8
		L7.4,27.9L7.5,28l0.1,0.1L7.7,28.2l0.1,0.1L7.9,28.4c0.1,0,0.1,0.1,0.2,0.1l0,0l0,0c0.1-0.1,0.2-0.1,0.3-0.2
		c0.1-0.1,0.2-0.1,0.3-0.2c0,0,0.1,0,0.1-0.1C8.9,28.1,9,28.1,9,28c0.1,0,0.2-0.1,0.3-0.2c0.1,0,0.2-0.1,0.2-0.1l0,0
		c0.1,0,0.1-0.101,0.2-0.101h0.1c0.1,0,0.2-0.1,0.3-0.1l0,0c0.1,0,0.2-0.1,0.3-0.1l0.1-0.101h0.1c0.1,0,0.2-0.1,0.3-0.1H11l0,0
		L11.3,27L11.3,27z M10.7,26.5C10.7,26.5,10.6,26.5,10.7,26.5c-0.2,0.1-0.3,0.1-0.4,0.2l-0.2,0.1C10,26.8,9.9,26.9,9.8,26.9l0,0
		C9.7,27,9.6,27,9.5,27H9.4c-0.1,0-0.1,0.1-0.2,0.1l0,0C9.1,27.1,9,27.2,9,27.2c-0.1,0.1-0.2,0.1-0.3,0.2c-0.1,0-0.2,0.1-0.2,0.199
		L8.4,27.7c-0.1,0-0.1,0.1-0.2,0.1l0,0l-0.1-0.1l-0.3-0.3C7.7,27.3,7.7,27.3,7.6,27.2L7.5,27.1L7.4,27c0.1,0,0.1-0.1,0.2-0.1
		C7.8,26.7,8,26.4,8,26.1l0,0c0.2,0,0.4,0,0.5-0.1c0.3-0.1,0.5-0.3,0.6-0.6C9.2,25.3,9.2,25.1,9.2,25c0,0,0.1,0,0.2,0
		c0.2,0.1,0.5,0.1,0.7,0.1c0.1,0,0.2,0,0.3-0.1s0.3-0.2,0.4-0.3c0,0,0,0,0.1-0.101c0.2,0.2,0.4,0.2,0.7,0.301c0.1,0,0.3,0,0.4-0.101
		c0,0.2,0,0.4,0,0.5c0,0.2,0,0.4,0,0.601c0,0,0,0,0,0.1h-0.1h-0.1h-0.1h-0.1l0,0l-0.2,0.1h-0.1L10.7,26.5z"/>
	<path fill="#8F9295" d="M27.5,29.8c0-0.1,0-0.2-0.1-0.5c0-0.1-0.1-0.2-0.2-0.3c-0.1-0.1-0.2-0.2-0.2-0.3c-0.3-0.3-0.7-0.4-1.2-0.4
		h-4h-2.4l0.2-1l-2,0.601L17.5,28.3H15l0.1-0.5h-0.3h-0.3h-2l0,0h0.1c0.1,0,0.1,0,0.2-0.1c0.1,0,0.2,0,0.3-0.101h0.1l0.4-0.1
		c0.2,0,0.4-0.2,0.3-0.4V26.4c0-0.101,0-0.301,0-0.4c0-0.2,0-0.4,0-0.6c0-0.2,0-0.4,0-0.601s0-0.399,0-0.6s0-0.3,0-0.5
		c0.2-0.2,0.3-0.4,0.3-0.7s0-0.7-0.2-0.9c-0.1-0.199-0.3-0.3-0.5-0.399L13,21.6h-0.1c-0.2,0-0.5,0.101-0.7,0.2
		c-0.2,0.101-0.3,0.3-0.4,0.4l0,0c-0.2-0.2-0.5-0.4-0.8-0.5c-0.1,0-0.1,0-0.2,0h-0.2c-0.2,0-0.3,0.1-0.5,0.2
		c-0.3,0.199-0.5,0.5-0.5,0.8c0,0.1,0,0.2,0,0.2l0,0c0-0.101,0-0.101,0-0.2c0-0.2-0.1-0.4-0.1-0.5L9,21.7c-0.2-0.2-0.4-0.3-0.7-0.3
		l0,0c-0.1,0-0.2,0-0.3,0s-0.3,0-0.4,0.1l-0.2,0.2l-0.1,0.1C7.1,22,7,22.2,7,22.4c0,0.1,0,0.1,0,0.199V22.7c0,0.1,0,0.2,0,0.2V23.3
		c0.1,0.101,0.1,0.2,0.2,0.3c0,0,0,0-0.1,0c-0.1-0.1-0.2-0.1-0.4-0.1c-0.3-0.1-0.7,0-0.9,0.2l-0.1,0.1L5.6,23.9
		C5.4,24.1,5.3,24.4,5.3,24.8c0,0.101,0,0.2,0,0.4c-0.2,0-0.3,0-0.5,0.1c-0.3,0.101-0.5,0.3-0.7,0.5L4,25.7c0,0.2-0.1,0.399,0,0.6
		c0,0.2,0.1,0.4,0.2,0.5c0.2,0.3,0.5,0.5,0.8,0.5c0.1,0,0.2,0,0.3,0l0.5,0.5L5.9,27.9L6,28l0.2,0.2l0.1,0.1
		c0.1,0,0.1,0.101,0.2,0.101l1,0.899c0.2,0.2,0.4,0.3,0.6,0.3c0.1,0,0.2,0,0.3-0.1c0.1,0,0.1-0.1,0.2-0.1l0,0l0,0L8.7,29.3
		c0.1-0.1,0.2-0.1,0.2-0.2C9,29,9.1,29,9.2,28.9L9.3,28.8C9.5,29,9.5,29,9.6,29s0.2-0.1,0.2-0.1c0.1,0,0.1-0.101,0.2-0.101l0,0
		c0,0,0.1,0,0.1-0.1h0.1c0.1,0,0.1-0.101,0.2-0.101l0,0c0.1,0,0.2-0.1,0.3-0.1l0.2-0.1c0.1,0,0.2-0.101,0.3-0.101l0.4,0.601l0,0V29
		l-0.2,2.5l0,0l-0.9,1.1H14l-0.7-1.1v-0.6l0.6,1l0,0l0,0l0,0c0.1,0.1,0.2,0.199,0.3,0.3c0.3,0.2,0.6,0.3,1,0.3c0.2,0,0.4,0,0.5-0.1
		h1.9c0.1,0,0.2,0.1,0.4,0.1c0.3,0,0.6-0.1,0.9-0.3c0.3,0.2,0.6,0.3,1,0.3c0.2,0,0.4,0,0.5-0.1h0.1h2.2H24l-0.4-0.9l0,0
		c0.1,0.2,0.2,0.3,0.3,0.5c0.2,0.2,0.7,0.5,1.4,0.5c0.4,0,0.8,0,1.3-0.3c0.2-0.101,0.4-0.5,0.7-1l0.1-0.4l0.3-0.899L27.5,30.1
		C27.5,30.1,27.5,29.9,27.5,29.8z M20.7,29.2L20.7,29.2C20.7,29.3,20.8,29.3,20.7,29.2v0.2L20.5,30.8c0,0.101,0,0.101,0,0.2l0,0l0,0
		L20.7,29.2z M16,29.2L16,29.2C16,29.3,16,29.3,16,29.2v0.2L15.8,30.8c0,0.101,0,0.101,0,0.2l0,0l0,0L16,29.2z M7.4,23.7L7.4,23.7
		L7.4,23.7L7.4,23.7z M10.7,27.7L10.7,27.7l-0.2,0.1c-0.1,0-0.2,0.101-0.3,0.101l0,0C10.1,27.9,10,28,10,28H9.9
		c-0.1,0-0.1,0.1-0.2,0.1l0,0c-0.1,0-0.1,0.101-0.2,0.101c-0.1,0.1-0.2,0.1-0.3,0.1C9.1,28.3,9.1,28.4,9,28.4V28.6
		C8.9,28.7,8.8,28.7,8.7,28.8C8.6,28.9,8.5,28.9,8.4,29l-0.1,0.1c0,0,0,0-0.1,0l0,0c0,0,0,0-0.1,0c0,0-0.2,0.101-0.3-0.1h0.1
		c0,0-0.1,0-0.1-0.1c-0.1,0-0.1-0.101-0.2-0.101l-0.1-0.1L7.4,28.6l-0.1-0.1l-0.1-0.1L7.1,28.3L7,28.1c-0.1,0-0.1-0.1-0.2-0.1
		l-0.1-0.1L6.6,27.8l-0.1-0.1L6.4,27.6l-0.1-0.1l-0.1-0.1L6,27.2L5.9,27.1L5.8,27l-0.1-0.1l-0.2-0.2c-0.1,0-0.2,0.1-0.3,0
		c-0.2,0-0.3-0.101-0.4-0.3C4.7,26.3,4.7,26.2,4.7,26.1c0-0.1,0-0.199,0.1-0.399C4.9,25.6,5,25.5,5.1,25.4c0.2-0.101,0.4,0,0.5,0.1
		s0.2,0.2,0.2,0.3l0,0c0.1,0,0.3,0,0.4,0.101c0.1,0,0.2,0,0.4,0c0,0,0,0,0.1,0l0,0c0,0,0.1,0,0.1-0.101l0.1-0.1c0,0,0-0.101,0-0.2
		v-0.1c0,0,0,0,0-0.101l0,0c0,0,0,0,0-0.1c0,0,0-0.101-0.1-0.101c0,0,0-0.1-0.1-0.1c-0.1,0-0.1,0-0.2,0s-0.2-0.1-0.3-0.2
		C6.1,24.7,6,24.5,6,24.4c0-0.2,0.1-0.4,0.3-0.5C6.3,24,6.5,24,6.6,24s0.1,0,0.2,0.1c0.1,0,0.1,0.101,0.1,0.101
		c0,0.1,0.1,0.1,0.1,0.2c0,0.1,0.1,0.199,0.1,0.3c0.1,0.1,0.1,0.1,0.2,0.1c0.1,0,0.2,0.101,0.3,0.101h0.1h0.1c0.1,0,0.1,0,0.2,0l0,0
		c0,0,0.1,0,0.1-0.101c0-0.1,0-0.1,0-0.2c0-0.199,0-0.399,0-0.699c0-0.101,0-0.301-0.1-0.4c0-0.1,0-0.1-0.1-0.2c0,0,0,0,0-0.1l0,0
		c-0.1,0-0.2-0.101-0.2-0.101C7.6,23,7.5,22.9,7.5,22.8c0-0.1,0-0.2,0-0.3s0.1-0.2,0.2-0.3L7.8,22.1l0,0c0,0,0,0,0.1,0
		C8,22,8.1,22,8.2,22c0.2,0,0.3,0.1,0.4,0.3c0.1,0.101,0.1,0.3,0.1,0.5c0,0.101,0,0.101,0,0.101l0,0C8.7,23,8.8,23,8.8,23.1
		C8.9,23.2,9,23.4,9.2,23.5c0.1,0.1,0.2,0.2,0.3,0.3C9.6,23.9,9.7,24,9.7,24h0.1l0,0h0.1c0.1-0.1,0.1-0.1,0.1-0.2l0,0
		c0-0.1,0.1-0.2,0.1-0.3s0-0.1,0-0.2c-0.1,0-0.1-0.1-0.2-0.2l0,0C9.9,23,9.8,23,9.8,22.9c0-0.101,0-0.2,0-0.2c0-0.2,0.1-0.3,0.3-0.4
		c0.1-0.1,0.3-0.1,0.4-0.1c0.2,0,0.3,0.1,0.4,0.2C11,22.5,11,22.6,11,22.7c0,0.1,0,0.2-0.1,0.3c0,0.1-0.1,0.1-0.1,0.2
		c0,0.1,0,0.1,0.1,0.2c0,0,0,0.1,0.1,0.1c0,0,0,0,0,0.1c0,0.101,0.1,0.101,0.1,0.2c0.1,0.101,0.1,0.101,0.2,0.101c0,0,0,0,0.1,0l0,0
		c0.1,0,0.1-0.101,0.2-0.2c0.1-0.2,0.2-0.3,0.3-0.4c0,0,0-0.1,0.1-0.1c0,0,0,0,0-0.101L11.9,23c-0.1-0.2-0.1-0.4,0.1-0.6
		c0-0.101,0.1-0.101,0.2-0.2c0.1-0.101,0.2-0.101,0.3-0.101c0.2,0,0.4,0.101,0.5,0.301c0.1,0.1,0.1,0.3,0.1,0.5
		c0,0.1-0.1,0.199-0.2,0.3c-0.1,0-0.1,0.1-0.2,0.1V23.4c0,0.1,0,0.1,0,0.199c0,0.2,0,0.4,0,0.601s0,0.399,0,0.6s0,0.4,0,0.601
		c0,0.199,0,0.399,0,0.6s0,0.3,0,0.5c0,0.1,0,0.1,0,0.2v0.1V27h0.2h-0.1c-0.1,0-0.2,0-0.3,0.1c-0.1,0-0.2,0-0.2,0.101h-0.1
		c0,0,0,0-0.1,0H12h-0.1c0,0,0,0-0.1,0c0,0,0,0-0.1,0h-0.1h-0.1h-0.1h-0.1h-0.1c-0.1,0-0.1,0.1-0.2,0.1l0,0c0,0,0,0-0.1,0
		C10.9,27.6,10.8,27.7,10.7,27.7z M13.2,30.2h-0.4l-0.1,1.2v0.1c0,0.1,0,0.2,0,0.2l0.1,0.2h-0.9l0.1-0.2c0-0.101,0.1-0.2,0.1-0.3
		l0.2-2.5V28.8c0-0.1,0-0.1,0-0.2c0-0.1-0.1-0.1-0.1-0.199h2.1L14.2,29c-0.1-0.1-0.2-0.2-0.3-0.3C13.8,28.6,13.6,28.6,13.4,28.6
		h-0.5l-0.1,1.2h0.4h0.3l0.2-0.1c0.1,0,0.1-0.101,0.2-0.101l0.1-0.1l-0.1,0.8c-0.1-0.1-0.1-0.2-0.2-0.2
		C13.5,30.2,13.4,30.2,13.2,30.2z M16.3,31.9l0.1-0.4l-0.2,0.2C16,31.9,15.7,32,15.4,32c-0.3,0-0.5-0.1-0.6-0.2
		c-0.2-0.1-0.2-0.3-0.2-0.399c0-0.101,0-0.101,0-0.2c0,0,0-0.101,0-0.3l0.2-1.5v-0.2c0-0.101,0-0.2-0.1-0.3h0.7l-0.3,1.8v0.2V31.1
		c0,0.301,0.2,0.5,0.6,0.5c0.1,0,0.3,0,0.4-0.1c0.1,0,0.2-0.1,0.3-0.2c0.1-0.1,0.1-0.1,0.1-0.2c0-0.1,0.1-0.199,0.1-0.3l0.2-1.399
		v-0.2c0-0.101,0-0.2-0.1-0.3h0.7L17,31.4V31.6c0,0.101,0,0.101,0.1,0.2h-0.8V31.9z M17.8,31.9c-0.1-0.101-0.1-0.2-0.1-0.301V31.2
		l0.3-1.9h-0.3l0.1-0.3H18l0.1-0.6l0.6-0.2L18.6,29h0.6L19,29.3h-0.5l-0.3,2v0.2c0,0.1,0.1,0.2,0.2,0.2s0.2-0.101,0.4-0.2l-0.1,0.4
		C18.5,32,18.3,32.1,18.1,32.1C18,32,17.9,31.9,17.8,31.9z M21,31.9l0.1-0.4l-0.2,0.2C20.7,31.9,20.4,32,20,32
		c-0.3,0-0.5-0.1-0.6-0.2c-0.2-0.1-0.2-0.3-0.2-0.399c0-0.101,0-0.101,0-0.2c0,0,0-0.101,0-0.3l0.2-1.5v-0.2c0-0.101,0-0.2-0.1-0.3
		H20l-0.3,1.8v0.2V31.1c0,0.301,0.2,0.5,0.6,0.5c0.1,0,0.3,0,0.4-0.1c0.1,0,0.2-0.1,0.3-0.2c0.1-0.1,0.1-0.1,0.1-0.2
		c0-0.1,0.1-0.199,0.1-0.3l0.2-1.399v-0.2c0-0.101,0-0.2-0.1-0.3H22l-0.4,2.5V31.6c0,0.101,0,0.101,0.1,0.2H21V31.9z M23.4,29.6
		c-0.1,0.101-0.2,0.301-0.2,0.5L23,31.5v0.2v0.1l0.1,0.101h-0.8c0.1-0.101,0.1-0.2,0.1-0.2c0-0.101,0-0.101,0.1-0.3l0.3-2v-0.2
		c0-0.101,0-0.2-0.1-0.3h0.7L23.3,29.3l0.2-0.2l0.2-0.1l0.2-0.1c0.1,0,0.2,0,0.3,0l-0.1,0.8C24,29.6,24,29.5,23.9,29.5
		s-0.1-0.1-0.2-0.1C23.6,29.4,23.5,29.5,23.4,29.6z M24.4,31.7c-0.2-0.2-0.3-0.5-0.3-0.9c0-0.5,0.2-0.899,0.5-1.3
		c0.3-0.4,0.7-0.5,1.2-0.5c0.3,0,0.6,0.1,0.8,0.3c0.2,0.2,0.3,0.4,0.3,0.7v0.2h-2.1L24.7,30.6V30.9c0,0.6,0.3,0.899,0.8,0.899
		c0.2,0,0.5-0.1,0.7-0.2l0.2-0.1c0.1,0,0.1-0.1,0.2-0.2l-0.2,0.5L26.2,31.9c-0.3,0.199-0.6,0.3-0.9,0.3C24.9,32,24.6,31.9,24.4,31.7
		z M26.1,30.8C26.1,30.8,26,30.8,26.1,30.8L25.9,31c-0.2,0-0.4,0-0.4,0h-0.1c0,0,0-0.1,0-0.2l0,0H26.1z"/>
	<path fill="#8F9295" d="M26.1,29.9c0.1,0,0.1,0,0.1-0.101c0,0,0.1-0.1,0.1-0.2c0-0.1-0.1-0.3-0.2-0.3c-0.1-0.1-0.2-0.1-0.4-0.1
		c-0.2,0-0.4,0.1-0.6,0.2C25,29.5,25,29.5,24.9,29.6L24.8,29.9H26.1z"/>
	<path fill="#8F9295" d="M34.4,31.2c0-0.101,0.1-0.2,0.1-0.4l0.2-1.1v-0.2c0-0.2-0.1-0.3-0.4-0.3c-0.3,0-0.6,0.2-0.9,0.5
		C33.1,30,33,30.4,33,30.8c0,0.3,0.1,0.5,0.2,0.7c0.1,0.2,0.3,0.2,0.5,0.2c0.2,0,0.4-0.101,0.6-0.3C34.3,31.3,34.4,31.2,34.4,31.2z
		 M33.8,30.7c0,0.1,0,0.2,0,0.2l0,0l0,0C33.8,30.8,33.8,30.8,33.8,30.7c0-0.3,0.1-0.5,0.2-0.7l0,0L33.8,30.7z"/>
	<path fill="#8F9295" d="M46.9,29.1c-0.3,0-0.6,0.2-0.9,0.5c-0.2,0.301-0.4,0.7-0.4,1.101c0,0.3,0.1,0.5,0.2,0.7
		c0.1,0.199,0.3,0.199,0.5,0.199c0.2,0,0.4-0.1,0.6-0.3c0.1-0.1,0.1-0.2,0.2-0.2c0-0.1,0-0.199,0.1-0.399l0.2-1.101V29.4
		C47.3,29.2,47.2,29.1,46.9,29.1z M46.5,30.7c0,0.1,0,0.2,0,0.2l0,0l0,0C46.5,30.8,46.5,30.7,46.5,30.7c0-0.3,0.1-0.601,0.2-0.8l0,0
		L46.5,30.7z"/>
	<path fill="#8F9295" d="M47.6,28.3L47.6,28.3c-0.2,0-0.4-0.1-0.5-0.1c-0.7,0-1.3,0.2-1.8,0.7c-0.1-0.2-0.2-0.301-0.4-0.4
		c-0.3-0.2-0.6-0.3-1-0.3c-0.2,0-0.3,0-0.5,0.1h-0.9c0-0.1,0-0.2,0-0.3c0-0.3-0.1-0.5-0.3-0.7C42,27.1,41.8,27,41.5,27
		s-0.5,0.1-0.7,0.3c-0.2,0.2-0.3,0.5-0.3,0.7c0,0.1,0,0.2,0,0.3h-0.7l0,0c-0.1,0-0.3-0.1-0.5-0.1c-0.3,0-0.7,0.1-1,0.2
		C38.2,28.3,38.1,28.3,38,28.3c-0.3-0.1-0.7-0.1-1.1,0H35h-0.1l0,0c-0.2,0-0.4,0-0.5,0c-0.7,0-1.4,0.2-1.8,0.7c0,0,0,0-0.1,0.1
		l0.1-1.399l-0.9,0.1l0,0l-0.5-0.1h-0.3c-0.7,0-1.3,0.3-1.8,0.8s-0.7,1.2-0.7,1.9c0,0.699,0.2,1.199,0.6,1.6s0.9,0.6,1.6,0.6
		c0.2,0,0.4,0,0.6,0c0.2,0,0.4-0.1,0.6-0.1l0.7-0.2c0.3,0.3,0.6,0.4,1,0.4c0.1,0,0.2,0,0.4,0H34h0.6h2.9h2l0,0h1h2.1h2.2L44,33.1
		l0.4,0.5c0.2,0.2,0.3,0.301,0.4,0.4l0,0c0.1,0,0.2,0.1,0.2,0.1c0.1,0,0.2,0.101,0.2,0.101c0.2,0.1,0.4,0.1,0.6,0.1
		c0.6,0,1.1-0.2,1.5-0.6c0.4-0.4,0.6-0.9,0.7-1.5l0.4-2.5v-0.2l0.5-0.9L48,28.4L47.6,28.3z M31.5,31.8
		C31.3,31.9,31.1,31.9,30.9,31.9c-0.2,0-0.4,0-0.5,0c-0.5,0-0.8-0.101-1.1-0.4c-0.3-0.3-0.4-0.7-0.4-1.2c0-0.6,0.2-1,0.5-1.399
		c0.4-0.4,0.8-0.601,1.3-0.601H31h0.2l0.3,0.101h0.1h0.2v0.8c0-0.101-0.1-0.2-0.2-0.2c0-0.1-0.1-0.1-0.1-0.1
		c-0.2-0.101-0.4-0.2-0.7-0.2c-0.4,0-0.7,0.2-0.9,0.5c-0.2,0.3-0.4,0.8-0.4,1.3c0,0.4,0.1,0.7,0.3,1c0.2,0.2,0.4,0.4,0.7,0.4
		c0.1,0,0.2,0,0.3,0c0.1,0,0.2-0.101,0.3-0.101l0.1-1.1V30.6c0-0.1,0-0.199,0-0.199l-0.1-0.2H32c-0.1,0.1-0.1,0.2-0.1,0.2
		c0,0.1,0,0.199-0.1,0.199l-0.1,1V31.7c0,0.1,0,0.1,0,0.2L31.5,31.8z M30.5,29.4c0.1-0.101,0.2-0.101,0.3-0.101
		c0.2,0,0.2,0,0.3,0.101l0,0l0,0l0,0H30.5z M30.6,30.4L30.5,31.1c-0.1,0-0.1,0-0.2-0.1c-0.1-0.1-0.1-0.3-0.1-0.6
		c0-0.2,0-0.4,0.1-0.5L30.6,30.4z M33.9,31.9c-0.1,0-0.1,0-0.2,0.1c-0.1,0-0.1,0-0.2,0c-0.3,0-0.5-0.1-0.7-0.3
		c-0.2-0.2-0.3-0.5-0.3-0.8c0-0.5,0.2-1,0.5-1.4c0.4-0.4,0.8-0.5,1.4-0.5c0.1,0,0.3,0,0.4,0l0.4,0.1h0.2V29.2c0,0,0,0.1-0.1,0.1
		l-0.1,0.3l-0.3,2v0.2l0,0V31.9h-0.6v-0.2c0-0.101,0-0.101,0-0.2l-0.1,0.1L34.1,31.7C34.1,31.8,34,31.9,33.9,31.9z M38.3,30
		l-0.2,1.5v0.2v0.1l0.1,0.101h-0.7l0.2-0.801l0.2-1V29.7c0-0.3-0.2-0.5-0.5-0.5c-0.2,0-0.4,0.1-0.6,0.2c-0.1,0.1-0.1,0.1-0.2,0.199
		c0,0.101-0.1,0.2-0.1,0.301l-0.2,1.5V31.6V31.7l0.1,0.1h-0.8c0,0,0-0.1,0.1-0.1l0.1-0.101c0,0,0-0.1,0.1-0.199l0.3-2v-0.2
		c0-0.101,0-0.101-0.1-0.3h0.7l-0.1,0.3l0.2-0.2c0.2-0.1,0.5-0.2,0.8-0.2c0.1,0,0.2,0,0.4,0.101c0.1,0,0.2,0.1,0.2,0.1
		c0.1,0.1,0.1,0.1,0.2,0.3l0.2-0.2c0.3-0.199,0.5-0.3,0.9-0.3c0.2,0,0.4,0.101,0.6,0.2c0.2,0.1,0.2,0.2,0.2,0.4V29.8L40,31.5v0.2
		c0,0.1,0,0.2,0.1,0.3h-0.8l0.1-0.5l0.1-0.4l0.2-1v-0.3c0-0.1,0-0.3-0.1-0.399C39.5,29.3,39.4,29.3,39.2,29.3
		c-0.2,0-0.4,0.101-0.6,0.2C38.5,29.6,38.4,29.8,38.3,30z M41.3,31.5v0.2c0,0.1,0,0.1,0.1,0.2h-0.8l0,0l0,0l0,0
		c0.1-0.101,0.2-0.301,0.2-0.5l0.3-2v-0.2V29.1c0,0,0-0.1-0.1-0.1h0.7L41.3,31.5z M41.5,28.4c-0.1,0-0.2,0-0.2-0.101
		c-0.1-0.1-0.1-0.1-0.1-0.2c0-0.1,0-0.199,0.1-0.3c0.1-0.1,0.2-0.1,0.3-0.1s0.2,0,0.2,0.1c0.1,0.101,0.1,0.101,0.1,0.3
		c0,0.101,0,0.2-0.1,0.301l-0.1,0.1C41.6,28.4,41.6,28.4,41.5,28.4z M43.3,31c0,0.1,0,0.3-0.1,0.4v0.1l0.2-1.3
		c0-0.101,0-0.101,0-0.2l0,0l0,0L43.3,31z M43.8,31.9l0.1-0.4c0-0.2,0.1-0.3,0.1-0.5l0.2-1v-0.3c0-0.3-0.2-0.5-0.5-0.5h-0.2h-0.2
		l-0.2,0.1L43,29.4c-0.1,0.1-0.1,0.1-0.2,0.199c0,0.101-0.1,0.2-0.1,0.4l-0.2,1.4V31.6c0,0,0,0.101,0.1,0.2h-0.8
		c0.1-0.1,0.1-0.2,0.1-0.2s0-0.1,0.1-0.3l0.3-2v-0.2c0-0.1,0-0.199-0.1-0.3h0.7l-0.1,0.3L43,29c0.2-0.2,0.5-0.3,0.8-0.3
		c0.3,0,0.5,0.1,0.6,0.2c0.2,0.1,0.2,0.3,0.2,0.399v0.3L44.3,31.2v0.2c0,0.1,0,0.1,0,0.1l0.1,0.1h-0.6V31.9z M47.9,29.3l-0.1,0.3
		l-0.4,2.5c-0.1,0.5-0.2,0.801-0.5,1.101c-0.3,0.3-0.6,0.399-1,0.399c-0.1,0-0.3,0-0.4-0.1c-0.1,0-0.1,0-0.2-0.1
		c0,0-0.1,0-0.1-0.101c-0.1,0-0.1-0.1-0.3-0.3l0.5-0.4c0,0.4,0.2,0.601,0.5,0.601c0.2,0,0.4-0.101,0.6-0.3c0.2-0.2,0.3-0.4,0.3-0.7
		l0.2-0.9l-0.2,0.2c-0.2,0.2-0.5,0.3-0.8,0.3s-0.5-0.1-0.7-0.3C45.1,31.3,45,31,45,30.7c0-0.601,0.2-1,0.5-1.4
		c0.3-0.399,0.8-0.5,1.4-0.5c0.1,0,0.3,0,0.4,0l0.4,0.101h0.2V29.3z"/>
	<path fill="#8F9295" d="M54.4,29.1c-0.301,0-0.601,0.2-0.801,0.5C53.4,29.9,53.3,30.3,53.3,30.7v0.2c0,0.3,0.101,0.5,0.3,0.699
		c0.101,0.2,0.301,0.2,0.5,0.2c0.301,0,0.601-0.1,0.801-0.399c0.199-0.301,0.3-0.7,0.3-1.101c0-0.399-0.101-0.6-0.2-0.8
		C54.8,29.2,54.6,29.1,54.4,29.1z M54.3,30.9C54.2,31.1,54.1,31.1,54,31.1l0,0l0,0c0,0-0.1-0.1-0.1-0.3v-0.1
		c0-0.3,0.1-0.601,0.199-0.7c0.101-0.2,0.2-0.2,0.301-0.2l0,0l0,0c0,0,0.1,0.101,0.1,0.5C54.5,30.6,54.4,30.8,54.3,30.9z"/>
	<path fill="#8F9295" d="M65.2,29.1c-0.3,0-0.601,0.2-0.8,0.5C64.2,29.9,64.1,30.3,64.1,30.7v0.2c0,0.3,0.101,0.5,0.301,0.699
		c0.1,0.2,0.3,0.2,0.5,0.2c0.3,0,0.6-0.1,0.8-0.399C65.9,31.1,66,30.7,66,30.3c0-0.399-0.1-0.6-0.2-0.8
		C65.6,29.2,65.4,29.1,65.2,29.1z M65.1,30.9C65,31.1,64.9,31.1,64.8,31.1l0,0l0,0c0,0-0.1-0.1-0.1-0.3v-0.1
		c0-0.3,0.1-0.601,0.2-0.7c0.1-0.2,0.199-0.2,0.3-0.2l0,0l0,0c0,0,0.1,0.101,0.1,0.5C65.3,30.6,65.2,30.8,65.1,30.9z"/>
	<path fill="#8F9295" d="M72.3,28.5c-0.1,0-0.2-0.1-0.3-0.1s-0.1,0-0.2-0.101c-0.1,0-0.2,0-0.3,0h-0.1c-0.5,0-0.9,0.101-1.301,0.4
		c0,0-0.1,0-0.1,0.1c-0.1-0.1-0.2-0.2-0.2-0.2c-0.3-0.199-0.6-0.3-1-0.3c-0.1,0-1,0-2.6,0.101l0.1,0.199c-0.3-0.199-0.7-0.3-1.1-0.3
		c-0.3,0-0.601,0.101-0.9,0.2c-0.2,0.1-0.399,0.2-0.5,0.3v-0.1C64,28.4,64,28.2,64,28c0-0.3-0.1-0.5-0.3-0.7S63.3,27,63,27
		s-0.5,0.1-0.7,0.3c0,0,0,0-0.1,0.101l-1.7,0.5L60.4,28.3H57.8l0.3-1.6H55.7L56.1,27.6c0,0,0,0,0,0.101v0.1L55.9,28.9l0,0
		c-0.4-0.4-0.801-0.5-1.4-0.5c-0.3,0-0.6,0.1-0.9,0.199C53.3,28.7,53.1,28.9,52.8,29l0,0l0.101-1.6l-1,0.5h-0.2
		c-0.2,0-0.3-0.101-0.5-0.101c-0.5,0-0.9,0.101-1.2,0.4l0,0c-0.1,0.1-0.2,0.3-0.3,0.5c-0.1,0.399-0.1,1-0.1,2l-0.3-0.4l-0.2,2
		l0.7,0.4l0.3,0.1l0,0c0.2,0,0.3,0.101,0.5,0.101c0.5,0,0.9-0.2,1.301-0.5L52.1,32.1c0,0.101,0.101,0.101,0.2,0.2
		c0.4,0.4,0.9,0.601,1.4,0.601c0.2,0,0.399,0,0.6-0.101h3.2h0.1c0.2,0,0.301,0.101,0.5,0.101c0.2,0,0.4,0,0.5-0.101H60l0,0h0.5
		c0.1,0,0.2,0.101,0.4,0.101c0.1,0,0.3,0,0.399-0.101h2.3h0.2C64,32.9,64.2,32.9,64.4,32.9c0.199,0,0.399,0,0.6-0.101h4.7
		c0.1,0,0.1,0,0.2,0c0.199,0,0.3,0,0.5,0c0.5,0,0.899-0.2,1.3-0.5c0.1-0.1,0.2-0.1,0.2-0.2L72,32c0.2-0.3,0.3-0.6,0.3-0.9
		c0-0.1,0-0.3-0.1-0.399l0.3-1.9L72.3,28.5z M62.8,27.8c0.101-0.1,0.2-0.1,0.3-0.1c0.101,0,0.2,0,0.2,0.1
		C63.4,27.9,63.4,27.9,63.4,28.1c0,0.101,0,0.2-0.101,0.301l-0.1,0.1c-0.101,0-0.101,0-0.2,0s-0.2,0-0.2-0.1
		c-0.1-0.101-0.1-0.101-0.1-0.2C62.6,28,62.7,27.9,62.8,27.8z M61.7,28.2L61.6,29H62.2L62.1,29.3h-0.5l-0.3,2v0.2
		c0,0.1,0.101,0.2,0.2,0.2s0.2-0.101,0.4-0.2L61.8,31.9C61.6,32,61.4,32.1,61.2,32.1s-0.3,0-0.4-0.1c-0.1-0.1-0.1-0.2-0.1-0.3v-0.4
		L61,29.4h-0.3l0.1-0.301H61l0.1-0.6L61.7,28.2z M59,29.2L59,29.2C59,29.3,59,29.3,59,29.2v0.2L58.8,30.8c0,0.101,0,0.101,0,0.2l0,0
		l0,0L59,29.2z M51.7,31.7C51.4,31.9,51.1,32,50.8,32c-0.1,0-0.2,0-0.4,0l-0.3-0.1L49.8,31.8L50,31c0,0.1,0,0.1,0.1,0.2
		c0,0,0,0.1,0.1,0.1c0,0.101,0.1,0.101,0.1,0.2c0.1,0.1,0.3,0.2,0.5,0.2s0.4-0.101,0.5-0.2c0.101-0.1,0.2-0.3,0.2-0.5
		c0-0.1,0-0.3-0.1-0.4L51.3,30.5l-0.1-0.1l-0.3-0.2c-0.2-0.2-0.4-0.3-0.5-0.5c-0.1-0.101-0.1-0.3-0.1-0.5c0-0.3,0.1-0.5,0.3-0.7
		c0.2-0.2,0.5-0.3,0.801-0.3c0.1,0,0.199,0,0.3,0l0.3,0.1l0,0h0.1L52,29.1c-0.1-0.399-0.3-0.6-0.7-0.6c-0.2,0-0.3,0-0.399,0.1
		C50.8,28.7,50.7,28.8,50.7,29c0,0.1,0,0.2,0.1,0.3c0.101,0.101,0.2,0.2,0.4,0.4l0.3,0.2c0.2,0.1,0.3,0.199,0.4,0.399
		C52,30.4,52,30.6,52,30.7C52.1,31.2,52,31.5,51.7,31.7z M50.6,30.9L50.6,30.9l0.2,0.1l0,0c0,0,0,0-0.1,0l0,0l0,0l0,0l0,0
		C50.7,31,50.7,31,50.6,30.9C50.7,30.9,50.6,30.9,50.6,30.9z M53,31.6c-0.3-0.199-0.4-0.6-0.4-1V30.4C52.7,30,52.9,29.6,53.2,29.3
		c0.2-0.1,0.399-0.3,0.6-0.3c0.2-0.1,0.4-0.1,0.7-0.1c0.4,0,0.7,0.1,0.9,0.399c0.199,0.2,0.399,0.5,0.399,0.9
		c0,0.5-0.2,0.899-0.5,1.3S54.5,32,54,32C53.6,32,53.2,31.9,53,31.6z M55.9,31.9C56,31.8,56,31.8,56,31.7c0,0,0-0.101,0.1-0.3
		L56.7,27.8v-0.2v-0.1c0-0.1,0-0.1-0.101-0.2h0.7L56.7,31.4V31.6c0,0.101,0,0.2,0.1,0.2H55.9V31.9z M59.3,31.9l0.101-0.4l-0.2,0.2
		C59,31.9,58.7,32,58.3,32c-0.3,0-0.5-0.1-0.6-0.2c-0.2-0.1-0.2-0.3-0.2-0.399c0-0.101,0-0.101,0-0.2c0,0,0-0.101,0-0.3l0.2-1.5
		v-0.2c0-0.101,0-0.2-0.101-0.3h0.7L58,30.7v0.2V31.1c0,0.301,0.2,0.5,0.6,0.5c0.101,0,0.301,0,0.4-0.1c0.1,0,0.2-0.1,0.3-0.2
		c0.101-0.1,0.101-0.1,0.101-0.2c0-0.1,0.1-0.199,0.1-0.3l0.2-1.399v-0.2c0-0.101,0-0.2-0.101-0.3h0.7L59.9,31.4V31.6
		c0,0.101,0,0.101,0.1,0.2h-0.7V31.9z M61.9,31.9C62,31.8,62.1,31.6,62.1,31.4l0.301-2v-0.2V29.1c0,0,0-0.1-0.101-0.1H63l-0.4,2.5
		v0.2c0,0.1,0,0.1,0.101,0.2H61.9z M63.8,31.6C63.5,31.4,63.4,31,63.4,30.6V30.4l0,0C63.5,30,63.7,29.6,64,29.3
		c0.2-0.1,0.4-0.3,0.6-0.3c0.2-0.1,0.4-0.1,0.7-0.1c0.4,0,0.7,0.1,0.9,0.399c0.2,0.2,0.399,0.5,0.399,0.9c0,0.5-0.199,0.899-0.5,1.3
		C65.7,31.9,65.3,32,64.8,32S64,31.9,63.8,31.6z M68.3,31c0,0.1,0,0.3-0.1,0.4v0.1l0.2-1.3c0-0.101,0-0.101,0-0.2l0,0l0,0L68.3,31z
		 M68.6,29.3H68.4h-0.2L68,29.4l-0.1,0.1c-0.101,0.1-0.101,0.1-0.2,0.2c0,0.1-0.101,0.2-0.101,0.399L67.4,31.5v0.2
		c0,0,0,0.1,0.1,0.2h-0.8c0.1-0.101,0.1-0.2,0.1-0.2s0-0.101,0.101-0.3l0.3-2v-0.2c0-0.101,0-0.2-0.101-0.3h0.7l-0.1,0.3l0.2-0.101
		c0.199-0.199,0.5-0.3,0.8-0.3s0.5,0.101,0.6,0.2c0.2,0.1,0.2,0.3,0.2,0.4v0.3l-0.3,1.6v0.2c0,0.1,0,0.1,0,0.1l0.1,0.101h-0.7
		l0.101-0.4c0-0.2,0.1-0.3,0.1-0.5l0.2-1v-0.3C69.1,29.4,68.9,29.3,68.6,29.3z M72,29.7c-0.1-0.101-0.1-0.3-0.2-0.3
		c-0.1-0.101-0.3-0.2-0.399-0.2c-0.101,0-0.301,0.1-0.4,0.2c-0.1,0.1-0.2,0.199-0.2,0.399c0,0.101,0,0.2,0.101,0.2
		c0.1,0.1,0.199,0.1,0.3,0.2l0.2,0.1C71.6,30.4,71.8,30.5,71.8,30.6C71.9,30.7,71.9,30.8,71.9,31c0,0.3-0.101,0.6-0.4,0.8
		c-0.2,0.2-0.5,0.3-0.9,0.3c-0.1,0-0.199,0-0.3,0c-0.1,0-0.3-0.1-0.5-0.199l0.101-0.7c0.1,0.2,0.199,0.399,0.3,0.5
		c0.1,0.1,0.3,0.2,0.399,0.2c0.2,0,0.301-0.101,0.4-0.2c0.1-0.101,0.2-0.3,0.2-0.4c0-0.1,0-0.2-0.101-0.3L71,30.9l-0.3-0.2
		c-0.2-0.101-0.4-0.3-0.5-0.4C70.1,30.2,70,30,70,29.9c0-0.301,0.1-0.5,0.3-0.7s0.5-0.3,0.8-0.3H71.2c0.1,0,0.1,0,0.2,0
		c0.1,0,0.1,0,0.199,0c0.101,0,0.101,0,0.2,0.1L72,29.7z"/>
	<path fill="#8F9295" d="M40.5,31.9L40.5,31.9L40.5,31.9z"/>
</g>
</svg>
