<?xml version="1.0" encoding="utf-8"?>
<!-- Generator: Adobe Illustrator 24.1.3, SVG Export Plug-In . SVG Version: 6.00 Build 0)  -->
<svg version="1.1" id="Слой_1" xmlns="http://www.w3.org/2000/svg" xmlns:xlink="http://www.w3.org/1999/xlink" x="0px" y="0px"
	 viewBox="0 0 100 33" style="enable-background:new 0 0 100 33;" xml:space="preserve">
<style type="text/css">
	.st0{fill:#8E9395;}
</style>
<desc>Created with sketchtool.</desc>
<g id="Icons">
	<g id="Artboard" transform="translate(-580.000000, -145.000000)">
		<g id="Group-22" transform="translate(580.000000, 145.000000)">
			<path id="Combined-Shape" class="st0" d="M44.5,8.6h4.4V9c0,0.8-0.1,1.5-0.3,2.1c-0.2,0.6-0.5,1.1-0.9,1.6
				c-1,1.1-2.2,1.7-3.8,1.7c-1.5,0-2.8-0.5-3.8-1.6c-1.1-1.1-1.6-2.4-1.6-3.9c0-1.6,0.5-2.9,1.6-4c1.1-1.1,2.4-1.6,3.9-1.6
				c0.8,0,1.6,0.2,2.3,0.5c0.7,0.3,1.4,0.9,2,1.7l-1.1,1.1c-0.9-1.2-1.9-1.8-3.2-1.8C43,4.8,42,5.2,41.3,6c-0.8,0.8-1.1,1.7-1.1,2.9
				c0,1.2,0.4,2.2,1.3,2.9c0.8,0.7,1.7,1.1,2.6,1.1c0.8,0,1.5-0.3,2.1-0.8c0.6-0.5,1-1.2,1.1-1.9h-2.7L44.5,8.6L44.5,8.6z M56.7,5
				h-4.3v2.6h4.1v1.5h-4.1v3.6h4.3v1.5h-5.9V3.5h5.9L56.7,5L56.7,5z M58.7,14.2V2.8l7.8,8.2V3.5h1.6v11.4l-7.8-8.2v7.5H58.7z
				 M76.4,5h-4.3v2.6h4.1v1.5h-4.1v3.6h4.3v1.5h-5.9V3.5h5.9V5z M84.4,5.1l-1.3,0.8c-0.2-0.4-0.5-0.7-0.7-0.8
				c-0.2-0.1-0.5-0.2-0.9-0.2c-0.4,0-0.8,0.1-1.1,0.4C80.1,5.4,80,5.8,80,6.1c0,0.5,0.4,0.9,1.2,1.3l1.1,0.4
				c0.9,0.4,1.5,0.8,1.9,1.3c0.4,0.5,0.6,1.1,0.6,1.9c0,1-0.3,1.8-1,2.4c-0.7,0.6-1.5,1-2.4,1c-0.9,0-1.7-0.3-2.3-0.8
				c-0.6-0.6-1-1.3-1.1-2.3l1.6-0.4c0.1,0.6,0.2,1.1,0.4,1.3c0.3,0.5,0.8,0.7,1.4,0.7c0.5,0,0.9-0.2,1.2-0.5
				c0.3-0.3,0.5-0.8,0.5-1.3c0-0.2,0-0.4-0.1-0.6c-0.1-0.2-0.1-0.3-0.3-0.5s-0.3-0.3-0.5-0.4c-0.2-0.1-0.4-0.2-0.7-0.4l-1-0.4
				c-1.5-0.6-2.2-1.5-2.2-2.7c0-0.8,0.3-1.5,0.9-2c0.6-0.5,1.4-0.8,2.3-0.8C82.8,3.3,83.7,3.9,84.4,5.1z M88.1,3.5v10.7h-1.6V3.5
				H88.1z M96.6,5.1l-1.3,0.8c-0.2-0.4-0.5-0.7-0.7-0.8c-0.2-0.1-0.5-0.2-0.9-0.2c-0.4,0-0.8,0.1-1.1,0.4c-0.3,0.2-0.4,0.6-0.4,0.9
				c0,0.5,0.4,0.9,1.2,1.3l1.1,0.4c0.9,0.4,1.5,0.8,1.9,1.3c0.4,0.5,0.6,1.1,0.6,1.9c0,1-0.3,1.8-1,2.4c-0.7,0.6-1.5,1-2.4,1
				c-0.9,0-1.7-0.3-2.3-0.8c-0.6-0.6-1-1.3-1.1-2.3l1.6-0.4c0.1,0.6,0.2,1.1,0.4,1.3c0.3,0.5,0.8,0.7,1.4,0.7c0.5,0,0.9-0.2,1.2-0.5
				c0.3-0.3,0.5-0.8,0.5-1.3c0-0.2,0-0.4-0.1-0.6c-0.1-0.2-0.1-0.3-0.3-0.5c-0.1-0.1-0.3-0.3-0.5-0.4c-0.2-0.1-0.4-0.2-0.7-0.4
				l-1-0.4c-1.5-0.6-2.2-1.5-2.2-2.7c0-0.8,0.3-1.5,0.9-2c0.6-0.5,1.4-0.8,2.3-0.8C94.9,3.3,95.9,3.9,96.6,5.1z M44.5,22.9h4.4v0.4
				c0,0.8-0.1,1.5-0.3,2.1c-0.2,0.6-0.5,1.1-0.9,1.6c-1,1.1-2.2,1.7-3.8,1.7c-1.5,0-2.8-0.5-3.8-1.6c-1.1-1.1-1.6-2.4-1.6-3.9
				c0-1.6,0.5-2.9,1.6-4c1.1-1.1,2.4-1.6,3.9-1.6c0.8,0,1.6,0.2,2.3,0.5c0.7,0.3,1.4,0.9,2,1.7l-1.1,1.1c-0.9-1.2-1.9-1.8-3.2-1.8
				c-1.1,0-2.1,0.4-2.8,1.2c-0.8,0.8-1.1,1.7-1.1,2.9c0,1.2,0.4,2.2,1.3,2.9c0.8,0.7,1.7,1.1,2.6,1.1c0.8,0,1.5-0.3,2.1-0.8
				c0.6-0.5,1-1.2,1.1-1.9h-2.7L44.5,22.9L44.5,22.9z M56.6,25.8H52l-1.2,2.6h-1.7L54.4,17l5.1,11.4h-1.8L56.6,25.8z M55.9,24.3
				l-1.6-3.6l-1.7,3.6C52.7,24.3,55.9,24.3,55.9,24.3z M60.3,28.4l2.2-11.5l3.6,8.3l3.8-8.3l2,11.5h-1.6l-1-6.5l-3.1,7l-3.1-7
				L62,28.4H60.3z M75.8,17.7v10.7h-1.6V17.7H75.8z M78.2,28.4V17l7.8,8.2v-7.4h1.6v11.4l-7.8-8.2v7.5H78.2z M95.6,22.9h4.4v0.4
				c0,0.8-0.1,1.5-0.3,2.1c-0.2,0.6-0.5,1.1-0.9,1.6c-1,1.1-2.2,1.7-3.8,1.7c-1.5,0-2.8-0.5-3.8-1.6c-1.1-1.1-1.6-2.4-1.6-3.9
				c0-1.6,0.5-2.9,1.6-4c1.1-1.1,2.4-1.6,3.9-1.6c0.8,0,1.6,0.2,2.3,0.5c0.7,0.3,1.4,0.9,2,1.7l-1.1,1.1c-0.9-1.2-1.9-1.8-3.2-1.8
				c-1.1,0-2.1,0.4-2.8,1.2c-0.8,0.8-1.1,1.7-1.1,2.9c0,1.2,0.4,2.2,1.3,2.9c0.8,0.7,1.7,1.1,2.6,1.1c0.8,0,1.5-0.3,2.1-0.8
				c0.6-0.5,1-1.2,1.1-1.9h-2.7L95.6,22.9L95.6,22.9z M16.4,0c9,0,16.4,7.3,16.4,16.4v0.3c0,9-7.3,16.4-16.4,16.4
				C7.3,33,0,25.7,0,16.6v-0.3C0,7.3,7.3,0,16.4,0z M16.5,2.2C7.9,2.2,2.9,10.5,3,16.3C3.2,22,6.6,29.8,16.7,30c10.1,0.2,14-7,14-14
				c0-1.9-0.8-4.5-2.6-7.9c-3.2,0.7-5.9,1.6-8,2.7c-2.1,1.1-5,3.2-8.6,6.1l2.9,3.5c2.5-2.3,4.5-4,6.1-5s3.8-1.9,6.5-2.7
				c0.3,1.4,0.4,2.4,0.4,3c0,1.8-1,3.9-1.8,5.1c-1.7,2.6-6.1,4-10.5,3.2S8.9,19,8.6,16.7c-0.7-4.8,2.1-8.6,4.2-9.7
				c2.5-1.3,5.4-1.5,8.6-0.5L25.2,5C23.1,3.1,20.2,2.2,16.5,2.2z"/>
		</g>
	</g>
</g>
</svg>
