<?xml version="1.0" encoding="utf-8"?>
<!-- Generator: Adobe Illustrator 16.0.0, SVG Export Plug-In . SVG Version: 6.00 Build 0)  -->
<!DOCTYPE svg PUBLIC "-//W3C//DTD SVG 1.1//EN" "http://www.w3.org/Graphics/SVG/1.1/DTD/svg11.dtd">
<svg version="1.1" id="Слой_1" xmlns="http://www.w3.org/2000/svg" xmlns:xlink="http://www.w3.org/1999/xlink" x="0px" y="0px"
	 width="100px" height="50px" viewBox="0 0 100 50" enable-background="new 0 0 100 50" xml:space="preserve">
<title>2BDABDD3-17DF-4090-A66C-02A6C2DD821F</title>
<desc>Created with sketchtool.</desc>
<g id="Icons">
	<g id="Artboard" transform="translate(-719.000000, -197.000000)">
		<g id="Group-29" transform="translate(719.000000, 197.000000)">
			<path id="Combined-Shape" fill="#8F9295" d="M87.217,17.742c-0.391-0.305-0.82-0.707-1.121-0.982
				c-0.546-0.498-0.918-0.829-1.24-0.829c-0.674,0-0.957,0.064-1.295,0.829c-0.336,0.765-0.522,0.845-0.972,3.067l3.142-0.019
				L87.217,17.742z M83.612,21.562c-0.435,0.009-0.925,0.017-1.473,0.022l-2.47,9.52c-0.506,2.349-1.273,4.092-2.39,5.281
				c-1.115,1.189-1.789,1.673-3.333,1.673c-1.48,0-1.373,0.013-2.023-0.268s-1.169-0.556-1.183-1.249
				c0-0.504-0.036-1.08,0.202-1.395c0.24-0.314,0.898-0.473,1.324-0.408s1.139,0.51,1.32,0.824c0.183,0.316,0.699,0.504,0.951,0.504
				c0.323-0.016,0.449-0.348,0.646-0.844s0.364-1.186,0.505-2.068c1.557-7.022,2.313-10.677,2.264-10.965
				c-0.047-0.288-0.336-0.648-0.866-1.081c-0.235-0.295-0.353-0.478-0.353-0.694S76.971,20,77.026,20
				c0.87-0.126,1.238,0.118,1.547,0s0.393-0.473,0.421-0.615c0.463-1.859,0.404-2.611,1.717-4.029
				c1.313-1.418,2.971-1.531,4.752-1.531c0.729-0.016,1.396,0.092,1.986,0.628c0.434,0.394,1.047,1.344,1.438,1.989
				c0.299,0.064,0.877,0.281,1.298,0.348c0.495,0.079,0.136,0.921,0.088,1.032l-0.985,1.668c0.123,0.265,0.239,0.434,0.348,0.509
				c0.154,0.108,0.403,0.18,0.745,0.216c0.095,0,0.477-0.044,0.516,0.098c0.04,0.142,0.23,0.354,0.23,0.449
				c0,0.157-0.05,0.281-0.168,0.486c-0.118,0.205-0.679,0.245-0.773,0.245c-0.745,0.159-1.187,0.338-1.322,0.536
				c-0.136,0.197-0.573,2.115-1.312,5.752c-0.063,0.189-0.161,0.398,0,0.461c0.16,0.063,0.264-0.141,0.374-0.141
				c0.112,0,0.88-0.031,1.279,0.25c0.193,0.136,0.083,0.637,0.083,0.699c0,0.095-0.164,0.462-0.531,1.073
				c-0.369,0.611-0.795,0.876-1.307,1.151c-0.512,0.276-1.039,0.409-1.621,0.409c-0.678,0-1.139-0.013-1.85-0.661
				c-0.711-0.65-0.629-1.502-0.499-2.5l1.667-6.636L83.612,21.562z M19.919,15.551c-0.113,0.523-1.321,0.369-1.565,0.645
				c-0.244,0.276-0.453,0.752-0.625,1.43c-1.817,7.51-2.725,11.292-2.725,11.344c0,0.331,0.087,0.685,0.281,0.846
				s0.929,0.509,0.929,0.907s-0.767,0.547-1.704,0.76c-0.937,0.213-1.116,0.258-2.361,0.135c-1.245-0.125-3.539-0.457-3.539-1.1
				c0-0.642,1.29-0.675,1.533-0.959c0.244-0.283,0.62-0.91,0.761-1.557l2.467-10.306c0.031-0.142,0.396-1.019-0.109-1.399
				c-0.506-0.38-0.929-0.653-0.929-0.977c0-0.324,0.689-0.575,1.679-0.72c0.99-0.146,1.587-0.146,2.201-0.146
				s1.22-0.021,2.065,0.146C19.124,14.766,20.033,15.028,19.919,15.551z M42.005,22.212c0.008-0.011,0.016-0.021,0.023-0.032
				c0.565-0.801,1.211-1.202,2.296-1.777c1.084-0.576,2.06-0.612,3.263-0.576c1.663,0.05,2.531,0.464,3.405,1.146
				c0.875,0.683,1.396,1.438,1.52,2.611c0.094,0.897,0.092,1.884-0.166,2.851c-0.256,0.966-0.613,1.773-1.199,2.545
				c-0.631,0.824-1.353,1.424-2.202,1.959c-0.849,0.533-1.57,0.638-2.888,0.776c-1.419,0.149-2.962-0.394-3.837-1.077
				c-0.875-0.682-1.373-1.602-1.494-2.76c-0.101-0.961-0.075-2.264,0.165-3.154c0.033-0.124,0.067-0.245,0.103-0.365
				c-0.058-0.306-0.151-0.619-0.402-0.619c-0.299,0-0.771,0.062-1.17,0s-0.707-0.144-0.912-0.144c-0.504,0-1.516,1.682-2.068,2.76
				c-0.551,1.079-1.098,2.871-1.775,4.856c-0.047,0.126-0.754,0.399-1.258,0.471c-0.503,0.071-1.007,0-1.18,0
				c-0.522-0.187-0.838-0.343-0.948-0.471c-0.165-0.192-0.157-1.707,0-2.286c0.523-1.936,1.405-3.829,1.25-4.525
				c-0.276-1.241-1.711-1.315-1.837-1.315c-0.058,0-0.164-0.025-0.261-0.058l-1.712,0.134c0,1.865-0.46,3.26-1.535,4.1
				c-1.076,0.84-2.468,1.256-4.365,1.256c-0.475,0-0.205,0.564,0.616,0.848s1.255,0.346,1.93,0.432
				c0.807,0.214,1.507,0.525,2.242,0.987c0.735,0.461,1.054,1.489,1.054,2.346c0,1.219-0.864,2.637-2.2,3.534
				c-1.336,0.898-2.683,1.314-4.123,1.314c-1.755,0-3.118-0.502-4.17-1.145s-1.67-1.15-1.707-2.053
				c-0.036-0.901,0.135-1.488,0.633-1.934c0.498-0.443,0.759-0.85,1.889-1.444c-0.345-0.581-0.36-0.581-0.583-1.134
				s-0.357-1.051,0.237-1.65s0.72-0.6,1.556-1.26c-0.665-0.346-1.253-2.303-1.253-2.978c0-1.532,0.279-2.304,1.61-3.463
				s2.399-1.092,3.775-1.092c0.965,0,2.122,0.478,2.692,0.782c0.413-0.038,0.77-0.257,1.161-0.403
				c0.227-0.085,0.574-0.211,1.042-0.379c0.079,0,2.035,1.183,2.059,1.29c0.005,0.025,0.034,0.075,0.073,0.141
				c0.03-0.028,0.061-0.057,0.092-0.085c0.874-0.796,1.676-1.347,2.604-1.347c0.677,0,1.306,0.157,1.7,0.527
				s0.256,0.748,0.256,1.362c0,0.142,0.483,0.381,0.436,0.491c0.325-0.299,0.703-0.704,1.133-1.213
				c0.646-0.765,1.553-1.314,2.245-1.314c0.598,0,1.092,0.374,1.437,0.844C41.495,20.851,41.825,21.59,42.005,22.212z
				 M25.452,22.729c0.052-0.268,0.036-0.502-0.047-0.701c-0.084-0.199-0.224-0.318-0.42-0.356c-0.394-0.077-0.923,0.322-1.589,1.195
				s-1.099,1.825-1.299,2.854c-0.052,0.269-0.039,0.498,0.04,0.689c0.079,0.19,0.229,0.308,0.452,0.352
				c0.511,0.1,1.07-0.313,1.678-1.233C24.873,24.607,25.269,23.674,25.452,22.729z M25.046,34.039c0-0.566-0.372-1.034-1.147-1.26
				c-0.775-0.225-0.856-0.182-2.166-0.182c-0.636,0.182-1.448,0.611-1.755,0.887s-0.786,0.74-0.786,1.027
				c0,0.286,0.22,0.789,0.681,1.145c0.461,0.356,1.062,0.41,2.145,0.41c0.921,0,1.461-0.402,1.966-0.779
				C24.489,34.91,25.046,34.459,25.046,34.039z M47.583,21.584c-0.425,0-0.843,0.27-1.284,0.793
				c-0.441,0.524-0.738,1.342-1.132,2.21c-0.377,0.838-0.531,1.409-0.708,2.565c-0.177,1.155,0.145,2.613,0.263,2.785
				c0.118,0.172,0.564,0.223,0.798,0.162c0.509-0.132,0.832-0.289,1.296-0.857s0.627-0.904,0.974-1.697s0.576-1.647,0.689-2.731
				C48.591,23.729,48.282,21.584,47.583,21.584z M62.711,21.709c0,0.441,0,1.208,0,1.647c0,0.438,0,0.708-0.83,0.708
				c-0.673,0-0.828-0.503-0.895-0.905c-0.067-0.401-0.049-0.745-0.223-1.028c-0.188-0.315-0.748-0.629-1.295-0.629
				c-0.546,0-1.033,0.178-1.553,0.733c-0.521,0.556-0.199,0.866,0.154,1.331s1.617,0.754,2.113,1.145
				c0.588,0.429,1.253,0.673,1.697,1.431c0.443,0.76,0.443,1.241,0.443,2.228c0,0.993-0.808,2.041-1.666,2.718
				c-0.857,0.678-2.523,0.779-3.782,0.779c-0.64,0-1.866-0.211-3.679-0.635c0.123-1.344,0.201-2.224,0.234-2.639
				c0.055-0.688-0.088-1.085,0.121-1.113c0.599-0.079,0.93,0.287,1.189,0.57s0.492,0.584,0.696,0.898
				c0.22,0.314,0.55,0.506,0.802,0.789c0.252,0.284,1.246,0.257,1.537,0.102c0.479-0.256,1.146-0.929,1.146-1.182
				c0-0.314-0.116-0.465-0.651-0.853s-0.829-0.56-1.396-0.903c-0.565-0.344-1.368-1.039-1.735-1.566
				c-0.367-0.528-0.457-1.02-0.457-1.54c0-0.93,0.195-2.015,0.99-2.779c0.794-0.764,1.27-1.335,3.424-1.189
				c0.943,0.064,2.721,0.629,3.613,0.629C62.719,21.129,62.711,21.237,62.711,21.709z M75.094,24.085
				c0,0.866-0.117,2.415-0.447,3.313s-1.102,1.857-1.715,2.535c-0.662,0.725-1.406,1.047-2.24,1.472
				c-0.834,0.426-1.879,0.583-3.275,0.46c-1.396-0.125-2.342-0.938-3.081-1.678s-1.109-1.67-1.109-2.789
				c0-0.93,0.153-1.809,0.46-2.636s0.791-1.619,1.452-2.375c0.599-0.709,1.357-1.284,2.278-1.726C68.337,20.221,69.355,20,70.473,20
				c1.322,0,2.354,0.37,3.094,1.111C74.306,21.852,75.094,22.951,75.094,24.085z M71.184,22.094c-0.072-0.359-0.193-0.51-0.445-0.51
				c-0.426,0-1.044,0.374-1.484,0.869c-0.441,0.496-0.935,0.993-1.328,1.814c-0.378,0.793-0.619,1.554-0.832,2.39
				s0.021,2.804,0.141,2.968c0.117,0.162,0.321,0.499,0.558,0.499c0.44,0,0.997-0.278,1.462-0.815
				c0.464-0.539,0.936-1.238,1.281-1.989s0.487-0.978,0.648-2.125C71.344,24.047,71.254,22.453,71.184,22.094z M50.025,0
				C83.161,0,100,13.223,100,25S80.154,50,50.36,50C20.565,50,0.085,37.629,0,25C-0.084,12.371,16.89,0,50.025,0z M50.219,3.415
				c-31.631,0-48.437,11.977-48.09,22.255c0.346,10.279,19.648,20.812,48.09,20.812c28.443,0,47.478-11.672,47.478-21.481
				S81.852,3.415,50.219,3.415z M97.604,7.742c0.505-0.624,0.808-1.418,0.808-2.283V5.45c0-2.006-1.626-3.632-3.632-3.632
				c-0.788,0-1.518,0.25-2.112,0.677c2.798-0.196,4.197,0.382,4.197,1.735c0,1.316-0.354,0.823-0.354,1.889
				C96.51,6.612,96.875,7.153,97.604,7.742z M96.254,8.779c-0.385-0.667-0.699-1.117-0.944-1.351
				c-0.269-0.257-0.647-0.548-1.134-0.875c-0.158,0.579-0.307,1.006-0.447,1.282c-0.127,0.252-0.329,0.538-0.604,0.857
				c0.496,0.254,1.059,0.397,1.654,0.397C95.304,9.091,95.803,8.979,96.254,8.779z M91.758,7.475
				c0.284-0.339,0.459-0.758,0.523-1.256c0.084-0.635,0.029-1.715-0.162-3.243c-0.604,0.648-0.973,1.519-0.973,2.474v0.009
				C91.146,6.205,91.371,6.898,91.758,7.475z M94.779,0C97.662,0,100,2.337,100,5.221v0.012c0,2.884-2.338,5.221-5.221,5.221
				c-2.884,0-5.221-2.337-5.221-5.221V5.221C89.559,2.337,91.896,0,94.779,0z M94.098,3.855V5c0.604-0.107,0.904-0.343,0.904-0.708
				S94.701,3.782,94.098,3.855z"/>
		</g>
	</g>
</g>
</svg>
