<?xml version="1.0" encoding="UTF-8"?>
<svg width="41px" height="43px" viewBox="0 0 41 43" version="1.1" xmlns="http://www.w3.org/2000/svg" xmlns:xlink="http://www.w3.org/1999/xlink">
    <!-- Generator: sketchtool 52.5 (67469) - http://www.bohemiancoding.com/sketch -->
    <title>7C9EFBF7-CFBB-4A8F-B1C2-D64259663833</title>
    <desc>Created with sketchtool.</desc>
    <g id="Icons" stroke="none" stroke-width="1" fill="none" fill-rule="evenodd">
        <g id="Artboard" transform="translate(-609.000000, -88.000000)" fill="#ffffff" fill-rule="nonzero">
            <g id="Group-21" transform="translate(609.000000, 88.000000)">
                <path d="M8.20519366,2.9362588 L8.20519366,15.255001 L4.72308165,15.255001 L4.72308165,0.326942921 L4.72308165,0.289578016 L10.5588653,0.289578016 C12.4813059,0.289578016 13.678995,0.938014808 14.4029596,1.60902623 C15.0364285,2.21231376 15.7147518,3.30835098 15.7147518,4.96330491 C15.7147518,5.90287659 15.511727,7.06352396 14.5390964,8.00309564 C14.0189436,8.49506689 13.2729454,8.93721827 12.4364516,9.13883307 L17.0713984,15.2355401 L12.8204675,15.2355401 L8.73636329,9.39727367 L8.73636329,6.98412354 L9.54216729,6.98412354 C10.1756363,6.98412354 11.0349507,6.95142924 11.6227784,6.36993791 C11.8714445,6.12395228 12.1877855,5.68880682 12.1877855,4.95084994 C12.1877855,4.10079835 11.7809489,3.59325839 11.4866416,3.36984739 C10.9216345,2.94482159 10.0174657,2.9362588 9.56498791,2.9362588 L8.20519366,2.9362588 Z M3.67018541,0.301254548 L3.67018541,15.255001 L0.188073394,15.255001 L0.188073394,0.301254548 L3.67018541,0.301254548 Z M36.5696518,0.294248629 L39.9667767,0.294248629 L39.9667767,15.2542226 L37.0087521,15.2542226 L32.1054662,9.70086352 C31.7796822,11.0428864 31.090342,12.3304187 29.9800008,13.3984323 C28.5784999,14.7404551 26.6788799,15.5905067 24.1465779,15.5905067 C21.3199685,15.5905067 19.3991018,14.4718949 18.2683006,13.3984323 C16.8211585,12.0564094 15.9177767,10.0433752 15.9177767,7.85130071 C15.9177767,5.7035971 16.892768,3.53409729 18.2494146,2.19207444 C19.2668995,1.18555731 21.1484204,0 24.1560209,0 C26.5081187,0 28.4486584,0.753525589 30.0004606,2.16949981 C30.792887,2.89344485 36.5696518,9.31631637 36.5696518,9.31631637 L36.5696518,0.294248629 Z M27.4476987,11.1394124 C28.0355265,10.5804957 28.759491,9.52882927 28.7587041,7.80692989 C28.7587041,6.26407067 28.1252351,5.12288419 27.4469118,4.45187277 C26.7009136,3.73571209 25.5024375,3.17679538 24.1229703,3.17679538 C22.811965,3.17679538 21.6355226,3.64697044 20.8218494,4.45187277 C20.1663468,5.07851337 19.4880235,6.17455059 19.4880235,7.82950452 C19.4880235,9.19410199 19.9405013,10.2901392 20.8674907,11.1845616 C21.8401213,12.1015587 22.9252812,12.4144898 24.1009366,12.4144898 C25.6385743,12.4144898 26.7237342,11.8555731 27.4476987,11.1394124 Z M33.0521285,24.65461 L33.0521285,24.6538315 L41,24.6538315 L41,24.8219736 C41,26.7439309 40.3334805,29.6630641 38.5581935,31.4900523 C36.7829066,33.3170405 34.7731181,33.6494325 32.8782196,33.6494325 C30.9589267,33.6494325 28.8964147,33.341172 27.0251238,31.4425678 C26.7756708,31.1895762 26.4931672,30.8673039 26.2114506,30.4718587 C26.2098768,30.474194 26.2083029,30.4757508 26.2067291,30.4780861 L26.2059422,30.4640743 C26.2004338,30.4570684 26.1957123,30.449284 26.1902038,30.4414997 C25.9604238,30.781676 25.7101839,31.0907149 25.4410579,31.3483771 C23.8341714,32.8912363 21.747265,33.6502109 19.252735,33.6502109 C16.0625696,33.6502109 14.072454,32.3914807 12.9920157,31.325024 C12.6977083,31.0346675 12.4238609,30.7178443 12.1712602,30.3792248 C12.0146635,30.5683847 11.8501977,30.7497601 11.6762888,30.9217944 C9.46977083,33.1286591 6.71083644,33.2952443 5.36756746,33.2952443 L0.15895743,33.2952443 L0.15895743,17.4930031 L5.24874285,17.4930031 C7.35925684,17.4930031 9.59016928,17.7872518 11.5574642,19.6617245 C11.7943265,19.8890277 12.0162374,20.114774 12.2224099,20.3701008 C12.221623,20.3708793 12.221623,20.3716577 12.2208361,20.3724361 L12.2224099,20.3732146 L12.2546735,20.4292619 C12.4844536,20.036152 12.7307589,19.6951972 12.9928026,19.4367566 C14.073241,18.3703 16.0633565,17.1115697 19.2535219,17.1115697 C21.7480519,17.1115697 23.8349584,17.8713228 25.4418448,19.4134036 C25.7109708,19.6710657 25.9604238,19.9793262 26.1902038,20.3195025 L26.2067291,20.2961495 L26.207516,20.2821376 C26.2090899,20.2844729 26.2106637,20.2860298 26.2122375,20.2883651 C26.4939542,19.8929199 26.7764577,19.5706475 27.0259107,19.317656 C28.8972016,17.4190518 30.9597136,17.1107913 32.8790066,17.1107913 C34.773905,17.1107913 36.8033665,17.4431833 38.5786534,19.2701714 C39.1601858,19.8687884 39.6236805,20.584949 39.9856627,21.3447021 L36.8726153,22.8392983 C36.5271583,21.8903854 35.9369698,21.3789533 35.829162,21.2941038 C35.4695405,20.9858433 34.629899,20.4362679 33.0466201,20.4362679 C31.8237496,20.4362679 30.7677057,20.742193 29.8084527,21.6685313 C28.6131243,22.8229512 28.1913362,24.2552725 28.0001152,25.3808903 C28.1913362,26.5072865 28.6131243,27.9411648 29.8084527,29.0955846 C30.7669187,30.0211445 31.8229627,30.3309618 33.0466201,30.3309618 C34.629899,30.3309618 35.4695405,29.7883923 35.829162,29.4801318 C35.9487736,29.3851627 36.6688035,28.7803183 36.980423,27.612665 L33.0521285,27.612665 L33.0521285,24.65461 Z M10.0544509,26.4450117 C10.1118959,26.284654 10.1811447,26.0589077 10.2614103,25.7841199 C10.2330813,25.6229838 10.207113,25.4610692 10.1850793,25.2975977 C9.94270853,23.6371947 9.37376684,22.5100201 8.74974089,21.8927207 C7.55047791,20.706385 5.99159341,20.5289017 4.86393996,20.5289017 L3.85747188,20.5289017 L3.85747188,30.1815022 L4.86393996,30.1815022 C5.6319719,30.1815022 7.31204176,30.1254548 8.50973091,29.1275005 C9.46426241,28.3327178 9.90336263,26.8599178 10.0544509,26.4450117 Z M23.5194042,27.9061352 C23.7271506,27.5667373 24.1245442,26.8614747 24.356685,25.891544 C24.3976047,25.7210666 24.4353768,25.5505893 24.471575,25.3801119 C24.4353768,25.2096345 24.3976047,25.0391571 24.356685,24.8686797 C24.1245442,23.8987491 23.7271506,23.1934865 23.5194042,22.8540886 C23.2943457,22.4446315 23.0283674,22.1028983 22.7553069,21.8327812 C21.9636674,21.0730281 20.692008,20.4798602 19.2291275,20.4798602 C17.8370696,20.4798602 16.5898046,20.9788374 15.7265556,21.8327812 C15.5557944,21.9962526 15.3842463,22.1908615 15.2213543,22.4158294 L15.2284365,22.4173863 C15.2284365,22.4173863 14.485586,23.471388 14.005566,25.3808903 C14.485586,27.2896142 15.2284365,28.3436159 15.2284365,28.3436159 L15.2213543,28.3443944 C15.3842463,28.5693622 15.5557944,28.7639711 15.7265556,28.9274426 C16.5905915,29.7821648 17.8378565,30.2803635 19.2291275,30.2803635 C20.692008,30.2803635 21.9636674,29.6864172 22.7553069,28.9274426 C23.0283674,28.6581039 23.2943457,28.3155922 23.5194042,27.9061352 Z M3.64500403,37.0971234 C3.54663928,36.9025145 3.38296035,36.6868879 3.21928141,36.5576676 C3.07763618,36.4494651 2.81559249,36.3093467 2.40088672,36.3093467 C1.68085678,36.3093467 1.17880312,36.751498 1.17880312,37.4209526 C1.17880312,37.7011894 1.25513416,37.863104 1.45107673,38.0468148 C1.66905301,38.2624414 1.94211355,38.381542 2.21438716,38.4998642 L2.9123834,38.8018972 C3.33810602,38.985608 3.73077809,39.1794384 4.03610226,39.4814714 C4.40674062,39.8481146 4.55940271,40.2692482 4.55940271,40.7869078 C4.55940271,42.1141404 3.56631223,42.9992216 2.25766765,42.9992216 C1.77764769,42.9992216 1.1780162,42.9019171 0.675962535,42.4161734 C0.315554105,42.070548 0.0975778281,41.5746846 0,41.1426528 L0.785344133,40.9270262 C0.839641472,41.3045674 1.01433726,41.6283966 1.22129669,41.8440232 C1.53763771,42.1569543 1.89725922,42.2433607 2.2686845,42.2433607 C3.26177498,42.2433607 3.73077809,41.5419903 3.73077809,40.8188237 C3.73077809,40.4949945 3.63241334,40.2147577 3.37036966,39.9773349 C3.16341023,39.782726 2.87933285,39.6535057 2.49767763,39.480693 L1.84296188,39.17866 C1.55967141,39.0494397 1.19926298,38.8984232 0.871905109,38.5854921 C0.555564086,38.2834592 0.369851445,37.9487319 0.369851445,37.4092761 C0.369851445,36.2976701 1.23152662,35.5534858 2.40954282,35.5534858 C2.85651223,35.5534858 3.21692066,35.6398921 3.57654217,35.8773149 C3.87084949,36.0719238 4.12187632,36.3630587 4.28555526,36.6759898 L3.64500403,37.0971234 Z M8.57583202,36.4276689 L8.57583202,42.8700013 L7.76845419,42.8700013 L7.76845419,36.4276689 L6.00103643,36.4276689 L6.00103643,35.6725864 L10.3424629,35.6725864 L10.3424629,36.4276689 L8.57583202,36.4276689 Z M13.4413458,40.0855374 C13.4413458,40.6896034 13.4413458,41.3481598 14.0197305,41.8339036 C14.3140378,42.0822245 14.8160915,42.2441391 15.2197804,42.2441391 C15.6234693,42.2441391 16.125523,42.0822245 16.4198303,41.8339036 C16.998215,41.3481598 16.998215,40.6903818 16.998215,40.0855374 L16.998215,35.671808 L17.8055929,35.671808 L17.8055929,40.301164 C17.8055929,40.90523 17.7402787,41.4882782 17.3476066,42.027734 C16.9116541,42.6209019 16.1475567,42.9992216 15.2205673,42.9992216 C14.293578,42.9992216 13.5294806,42.6216803 13.0935281,42.027734 C12.700856,41.4882782 12.6355418,40.90523 12.6355418,40.301164 L12.6355418,35.671808 L13.4429197,35.671808 L13.4429197,40.0855374 L13.4413458,40.0855374 Z M20.8808683,35.6725864 L22.3642087,35.6725864 C23.0952555,35.6725864 24.1316264,35.7480946 25.0475989,36.5140752 C25.7133315,37.0644291 26.2909293,37.9814262 26.2909293,39.2767429 C26.2909293,40.7876862 25.5378488,41.5964807 25.0145484,42.0394106 C24.3488158,42.6006626 23.6508195,42.8700013 22.3531918,42.8700013 L20.8808683,42.8700013 L20.8808683,35.6725864 Z M21.6882461,42.1149188 L22.3972592,42.1149188 C22.9756439,42.1149188 23.7720049,42.0503087 24.481018,41.4672605 C25.0263522,41.014211 25.4630916,40.3019425 25.4630916,39.2767429 C25.4630916,37.5501729 24.241008,36.4276689 22.3980461,36.4276689 L21.6890331,36.4276689 L21.6890331,42.1149188 L21.6882461,42.1149188 Z M29.7824844,35.6725864 L29.7824844,42.8700013 L28.9751065,42.8700013 L28.9751065,35.6725864 L29.7824844,35.6725864 Z M32.4658746,39.2767429 C32.4658746,37.1290393 34.1569613,35.5534858 36.2509501,35.5534858 C38.3449388,35.5534858 40.0360255,37.1290393 40.0360255,39.2767429 C40.0360255,41.4135484 38.3559556,43 36.2509501,43 C34.1459445,43 32.4658746,41.4135484 32.4658746,39.2767429 Z M33.2944993,39.2767429 C33.2944993,40.9278046 34.6141607,42.2441391 36.2509501,42.2441391 C37.8877394,42.2441391 39.2074009,40.9278046 39.2074009,39.2767429 C39.2074009,37.6256811 37.8877394,36.3093467 36.2509501,36.3093467 C34.6141607,36.3093467 33.2944993,37.6256811 33.2944993,39.2767429 Z" id="Combined-Shape"></path>
            </g>
        </g>
    </g>
</svg>
