<?xml version="1.0" encoding="utf-8"?>
<!-- Generator: Adobe Illustrator 24.1.3, SVG Export Plug-In . SVG Version: 6.00 Build 0)  -->
<svg version="1.1" id="Layer_1" xmlns="http://www.w3.org/2000/svg" xmlns:xlink="http://www.w3.org/1999/xlink" x="0px" y="0px"
	 viewBox="0 0 41 43" style="enable-background:new 0 0 41 43;" xml:space="preserve">
<style type="text/css">
	.st0{fill:#8F9295;}
</style>
<desc>Created with sketchtool.</desc>
<g id="Icons">
	<g id="Artboard" transform="translate(-609.000000, -88.000000)">
		<g id="Group-21" transform="translate(609.000000, 88.000000)">
			<path id="Combined-Shape" class="st0" d="M8.2,2.9v12.3H4.7V0.3v0h5.8c1.9,0,3.1,0.6,3.8,1.3C15,2.2,15.7,3.3,15.7,5
				c0,0.9-0.2,2.1-1.2,3c-0.5,0.5-1.3,0.9-2.1,1.1l4.6,6.1h-4.3L8.7,9.4V7h0.8c0.6,0,1.5,0,2.1-0.6c0.2-0.2,0.6-0.7,0.6-1.4
				c0-0.9-0.4-1.4-0.7-1.6C10.9,2.9,10,2.9,9.6,2.9H8.2z M3.7,0.3v15H0.2v-15H3.7z M36.6,0.3H40v15h-3l-4.9-5.6
				c-0.3,1.3-1,2.6-2.1,3.7c-1.4,1.3-3.3,2.2-5.8,2.2c-2.8,0-4.7-1.1-5.9-2.2c-1.4-1.3-2.4-3.4-2.4-5.5c0-2.1,1-4.3,2.3-5.7
				c1-1,2.9-2.2,5.9-2.2c2.4,0,4.3,0.8,5.8,2.2c0.8,0.7,6.6,7.1,6.6,7.1V0.3z M27.4,11.1c0.6-0.6,1.3-1.6,1.3-3.3
				c0-1.5-0.6-2.7-1.3-3.4c-0.7-0.7-1.9-1.3-3.3-1.3c-1.3,0-2.5,0.5-3.3,1.3c-0.7,0.6-1.3,1.7-1.3,3.4c0,1.4,0.5,2.5,1.4,3.4
				c1,0.9,2.1,1.2,3.2,1.2C25.6,12.4,26.7,11.9,27.4,11.1z M33.1,24.7L33.1,24.7l7.9,0v0.2c0,1.9-0.7,4.8-2.4,6.7
				c-1.8,1.8-3.8,2.2-5.7,2.2c-1.9,0-4-0.3-5.9-2.2c-0.2-0.3-0.5-0.6-0.8-1c0,0,0,0,0,0l0,0c0,0,0,0,0,0c-0.2,0.3-0.5,0.6-0.7,0.9
				c-1.6,1.5-3.7,2.3-6.2,2.3c-3.2,0-5.2-1.3-6.3-2.3c-0.3-0.3-0.6-0.6-0.8-0.9c-0.2,0.2-0.3,0.4-0.5,0.5c-2.2,2.2-5,2.4-6.3,2.4
				H0.2V17.5h5.1c2.1,0,4.3,0.3,6.3,2.2c0.2,0.2,0.5,0.5,0.7,0.7c0,0,0,0,0,0l0,0l0,0.1c0.2-0.4,0.5-0.7,0.7-1
				c1.1-1.1,3.1-2.3,6.3-2.3c2.5,0,4.6,0.8,6.2,2.3c0.3,0.3,0.5,0.6,0.7,0.9l0,0l0,0c0,0,0,0,0,0c0.3-0.4,0.6-0.7,0.8-1
				c1.9-1.9,3.9-2.2,5.9-2.2c1.9,0,3.9,0.3,5.7,2.2c0.6,0.6,1,1.3,1.4,2.1l-3.1,1.5c-0.3-0.9-0.9-1.5-1-1.5
				c-0.4-0.3-1.2-0.9-2.8-0.9c-1.2,0-2.3,0.3-3.2,1.2c-1.2,1.2-1.6,2.6-1.8,3.7c0.2,1.1,0.6,2.6,1.8,3.7c1,0.9,2,1.2,3.2,1.2
				c1.6,0,2.4-0.5,2.8-0.9c0.1-0.1,0.8-0.7,1.2-1.9h-3.9V24.7z M10.1,26.4c0.1-0.2,0.1-0.4,0.2-0.7c0-0.2-0.1-0.3-0.1-0.5
				c-0.2-1.7-0.8-2.8-1.4-3.4c-1.2-1.2-2.8-1.4-3.9-1.4h-1v9.7h1c0.8,0,2.4-0.1,3.6-1.1C9.5,28.3,9.9,26.9,10.1,26.4z M23.5,27.9
				c0.2-0.3,0.6-1,0.8-2c0-0.2,0.1-0.3,0.1-0.5c0-0.2-0.1-0.3-0.1-0.5c-0.2-1-0.6-1.7-0.8-2c-0.2-0.4-0.5-0.8-0.8-1
				c-0.8-0.8-2.1-1.4-3.5-1.4c-1.4,0-2.6,0.5-3.5,1.4c-0.2,0.2-0.3,0.4-0.5,0.6l0,0c0,0-0.7,1.1-1.2,3c0.5,1.9,1.2,3,1.2,3l0,0
				c0.2,0.2,0.3,0.4,0.5,0.6c0.9,0.9,2.1,1.4,3.5,1.4c1.5,0,2.7-0.6,3.5-1.4C23,28.7,23.3,28.3,23.5,27.9z M3.6,37.1
				c-0.1-0.2-0.3-0.4-0.4-0.5c-0.1-0.1-0.4-0.2-0.8-0.2c-0.7,0-1.2,0.4-1.2,1.1c0,0.3,0.1,0.4,0.3,0.6c0.2,0.2,0.5,0.3,0.8,0.5
				l0.7,0.3C3.3,39,3.7,39.2,4,39.5c0.4,0.4,0.5,0.8,0.5,1.3c0,1.3-1,2.2-2.3,2.2c-0.5,0-1.1-0.1-1.6-0.6c-0.4-0.3-0.6-0.8-0.7-1.3
				l0.8-0.2c0.1,0.4,0.2,0.7,0.4,0.9c0.3,0.3,0.7,0.4,1,0.4c1,0,1.5-0.7,1.5-1.4c0-0.3-0.1-0.6-0.4-0.8c-0.2-0.2-0.5-0.3-0.9-0.5
				l-0.7-0.3c-0.3-0.1-0.6-0.3-1-0.6c-0.3-0.3-0.5-0.6-0.5-1.2c0-1.1,0.9-1.9,2-1.9c0.4,0,0.8,0.1,1.2,0.3c0.3,0.2,0.5,0.5,0.7,0.8
				L3.6,37.1z M8.6,36.4v6.4H7.8v-6.4H6v-0.8h4.3v0.8H8.6z M13.4,40.1c0,0.6,0,1.3,0.6,1.7c0.3,0.2,0.8,0.4,1.2,0.4
				c0.4,0,0.9-0.2,1.2-0.4c0.6-0.5,0.6-1.1,0.6-1.7v-4.4h0.8v4.6c0,0.6-0.1,1.2-0.5,1.7c-0.4,0.6-1.2,1-2.1,1c-0.9,0-1.7-0.4-2.1-1
				c-0.4-0.5-0.5-1.1-0.5-1.7v-4.6h0.8L13.4,40.1L13.4,40.1z M20.9,35.7h1.5c0.7,0,1.8,0.1,2.7,0.8c0.7,0.6,1.2,1.5,1.2,2.8
				c0,1.5-0.8,2.3-1.3,2.8c-0.7,0.6-1.4,0.8-2.7,0.8h-1.5V35.7z M21.7,42.1h0.7c0.6,0,1.4-0.1,2.1-0.6c0.5-0.5,1-1.2,1-2.2
				c0-1.7-1.2-2.8-3.1-2.8h-0.7L21.7,42.1L21.7,42.1z M29.8,35.7v7.2H29v-7.2H29.8z M32.5,39.3c0-2.1,1.7-3.7,3.8-3.7
				s3.8,1.6,3.8,3.7c0,2.1-1.7,3.7-3.8,3.7S32.5,41.4,32.5,39.3z M33.3,39.3c0,1.7,1.3,3,3,3c1.6,0,3-1.3,3-3c0-1.7-1.3-3-3-3
				C34.6,36.3,33.3,37.6,33.3,39.3z"/>
		</g>
	</g>
</g>
</svg>
