<?xml version="1.0" encoding="utf-8"?>
<!-- Generator: Adobe Illustrator 16.0.0, SVG Export Plug-In . SVG Version: 6.00 Build 0)  -->
<!DOCTYPE svg PUBLIC "-//W3C//DTD SVG 1.1//EN" "http://www.w3.org/Graphics/SVG/1.1/DTD/svg11.dtd">
<svg version="1.1" id="Слой_1" xmlns="http://www.w3.org/2000/svg" xmlns:xlink="http://www.w3.org/1999/xlink" x="0px" y="0px"
	 width="100px" height="34px" viewBox="0 0 100 34" enable-background="new 0 0 100 34" xml:space="preserve">
<title>588E8379-9A6A-4647-B0C0-93E84769F522</title>
<desc>Created with sketchtool.</desc>
<g>
	<path fill="#FFFFFF" d="M78.5,28.199l-0.1-0.1c0,0-0.101,0-0.2,0c-0.101,0-0.2,0.1-0.3,0.201L76.3,30.9l-1.6-2.6
		C74.6,28.199,74.5,28.1,74.4,28.1c-0.101,0-0.101,0-0.2,0c0,0-0.101,0-0.101,0.1c0,0,0,0.102-0.1,0.102c0,0,0,0,0,0.1l2,3.1v2.1
		c0,0.201,0.1,0.301,0.2,0.301h0.1c0.2,0,0.3-0.1,0.3-0.301v-2.1l2-3.1C78.6,28.4,78.6,28.4,78.5,28.199
		C78.5,28.301,78.5,28.301,78.5,28.199z"/>
	<path fill="#FFFFFF" d="M47,33.199h-2.7V28.4c0-0.201-0.1-0.301-0.3-0.301l0,0c-0.2,0-0.3,0.1-0.3,0.301v5.1
		c0,0.1,0,0.199,0.1,0.199c0.1,0.102,0.1,0.102,0.2,0.102h3c0.2,0,0.3-0.102,0.3-0.201v-0.1C47.3,33.301,47.2,33.199,47,33.199z"/>
	<polygon fill="#FFFFFF" points="38.6,21 40.8,21 40.8,11.1 45.8,11.1 45.8,9.2 40.8,9.2 40.8,2.1 47.5,2.1 47.5,0.2 38.6,0.2 	"/>
	<path fill="#FFFFFF" d="M39.8,28.199h-1.4c-0.1,0-0.2,0-0.2,0.102c-0.2,0-0.2,0.1-0.2,0.199v5.1c0,0.201,0.1,0.301,0.3,0.301h0.1
		c0.1,0,0.2,0,0.2-0.1c0,0,0.1-0.102,0.1-0.201v-2h1.1c0.7,0,1.2-0.1,1.6-0.4c0.4-0.299,0.5-0.699,0.5-1.299c0-0.5-0.2-1-0.5-1.301
		C40.9,28.301,40.4,28.199,39.8,28.199z M40.9,30.801C40.7,31,40.3,31.1,39.8,31.1h-1.2v-2.4h1.2c1,0,1.5,0.4,1.5,1.201
		C41.2,30.301,41.1,30.6,40.9,30.801z"/>
	<path fill="#FFFFFF" d="M53.1,28.199L53,28.1c0,0-0.1,0-0.2,0c-0.1,0-0.2,0.1-0.3,0.201l-1.6,2.6l-1.601-2.6
		C49.2,28.199,49.1,28.1,49,28.1s-0.1,0-0.2,0c0,0-0.1,0-0.1,0.1c0,0,0,0.102-0.1,0.102c0,0,0,0,0,0.1l2,3.1v2.1
		c0,0.201,0.101,0.301,0.2,0.301H50.9c0.199,0,0.3-0.1,0.3-0.301v-2.1l2-3.1C53.2,28.4,53.2,28.4,53.1,28.199
		C53.1,28.301,53.1,28.301,53.1,28.199z"/>
	<path fill="#FFFFFF" d="M66.2,33.199h-2.7V28.4c0-0.201-0.1-0.301-0.3-0.301H63.1c-0.199,0-0.3,0.1-0.3,0.301v5.1
		c0,0.1,0,0.199,0.101,0.199c0.1,0.102,0.1,0.102,0.199,0.102h3c0.2,0,0.301-0.102,0.301-0.201v-0.1
		C66.4,33.301,66.3,33.199,66.2,33.199z"/>
	<path fill="#FFFFFF" d="M59,28.199h-1.4c-0.1,0-0.199,0-0.199,0.102C57.3,28.4,57.3,28.4,57.3,28.5v5.1
		c0,0.201,0.101,0.301,0.3,0.301H57.7c0.1,0,0.2,0,0.2-0.1c0,0,0.1-0.102,0.1-0.201v-2h1.1c0.7,0,1.2-0.1,1.601-0.4
		C61.1,30.9,61.2,30.5,61.2,29.9c0-0.5-0.2-1-0.5-1.301C60.2,28.301,59.7,28.199,59,28.199z M60.1,30.801C59.9,31,59.5,31.1,59,31.1
		h-1.2v-2.4l0,0H59c1,0,1.5,0.4,1.5,1.201C60.5,30.301,60.3,30.6,60.1,30.801z"/>
	<path fill="#FFFFFF" d="M70.6,28.199c-0.1,0-0.199-0.1-0.3-0.1c-0.1,0-0.2,0-0.3,0.1c-0.1,0-0.1,0.102-0.1,0.201l-2,5.299
		c0,0,0,0.102,0.1,0.102s0.1,0.1,0.2,0.1c0.1,0,0.1,0,0.2,0c0.1,0,0.1-0.1,0.199-0.201l0.601-1.6H71.6l0.601,1.6
		c0,0.102,0.1,0.201,0.2,0.201c0.1,0,0.1,0,0.199,0c0.101,0,0.2,0,0.2-0.1c0.101,0,0.101-0.102,0.101-0.102l-2-5.299
		C70.7,28.301,70.7,28.199,70.6,28.199z M69.3,31.4l1-2.701l1,2.701H69.3z"/>
	<path fill="#FFFFFF" d="M35.3,28.1h-0.1c-0.2,0-0.3,0-0.3,0.1c-0.1,0.102-0.1,0.201-0.2,0.301l-1.5,3.4L31.7,28.6
		c-0.1-0.199-0.1-0.299-0.2-0.299c-0.1-0.102-0.2-0.102-0.3-0.102h-0.1c-0.1,0-0.2,0-0.3,0.102c-0.1,0.1-0.1,0.199-0.1,0.299v5.1
		C30.7,33.9,30.8,34,30.9,34H31c0.2,0,0.2-0.1,0.2-0.301V28.9l1.5,3.199c0,0.1,0.1,0.201,0.2,0.301s0.2,0.1,0.3,0.1
		c0.1,0,0.3,0,0.3-0.1c0.1-0.1,0.1-0.201,0.2-0.301l1.5-3.199v4.799C35.2,33.9,35.3,34,35.4,34h0.1c0.2,0,0.2-0.1,0.2-0.301v-5.1
		c0-0.1,0-0.199-0.1-0.299C35.6,28.199,35.5,28.1,35.3,28.1z"/>
	<polygon fill="#FFFFFF" points="60.9,0.2 50.2,0.2 50.2,2.1 54.4,2.1 54.4,21 56.6,21 56.6,2.1 60.9,2.1 	"/>
	<path fill="#FFFFFF" d="M34.4,16.8c0.5-1.6,0.7-3.6,0.7-6.2c0-2.6-0.3-4.6-0.7-6.2c-0.5-1.6-1.2-2.7-2-3.4
		c-0.9-0.8-1.9-1.1-3.1-1.1c-1.2,0-2.2,0.3-3.1,1.1c-0.9,0.7-1.6,1.8-2,3.4C23.7,6,23.5,8,23.5,10.6c0,2.6,0.3,4.6,0.7,6.2
		c0.5,1.601,1.2,2.7,2,3.399c0.9,0.701,1.9,1,3.1,1c1.2,0,2.2-0.299,3.1-1C33.2,19.5,33.9,18.301,34.4,16.8z M29.3,19.4
		c-0.7,0-1.3-0.201-1.8-0.701S26.5,17.3,26.2,16c-0.3-1.3-0.5-3.1-0.5-5.4c0-2.3,0.2-4.1,0.5-5.4C26.5,3.9,27,3,27.5,2.5
		s1.2-0.7,1.8-0.7c0.7,0,1.3,0.2,1.8,0.7s1,1.4,1.3,2.7c0.3,1.3,0.5,3.1,0.5,5.4c0,2.3-0.2,4.1-0.5,5.4
		c-0.3,1.3-0.7,2.199-1.3,2.699C30.6,19.1,30,19.4,29.3,19.4z"/>
	<polygon fill="#EEB936" points="89.3,0.2 89.3,2.1 93.5,2.1 93.5,21 95.8,21 95.8,2.1 100,2.1 100,0.2 	"/>
	<path fill="#EEB936" d="M2.4,8.6L2.4,8.6V21h2.2V8.6C4.2,8.7,3.9,8.8,3.5,8.8S2.7,8.7,2.4,8.6z"/>
	<path fill="#EEB936" d="M74.1,15.2c0-1.3-0.3-2.4-0.899-3.3C72.6,11,71.7,10.4,70.5,10V9.9c1.1-0.3,1.9-0.9,2.4-1.8
		C73.4,7.3,73.6,6.3,73.6,5.3c0-1.5-0.399-2.8-1.3-3.7c-0.8-0.9-2-1.4-3.6-1.4h-5.5V21h4.2c2.3,0,3.899-0.5,5-1.4
		C73.6,18.6,74.1,17.1,74.1,15.2z M65.5,2.1h2.2c1.3,0,2.2,0.2,2.8,0.7s0.8,1.3,0.8,2.5c0,1.4-0.399,2.4-1.1,3
		c-0.8,0.6-1.9,0.9-3.5,0.9h-1.3V2.1H65.5z M70.8,18.1c-0.7,0.6-1.7,0.9-3.1,0.9h-2.2v-8.1h2.2c1.399,0,2.5,0.4,3.2,1.1
		c0.6,0.7,1,1.7,1,3.1C71.9,16.5,71.5,17.5,70.8,18.1z"/>
	<path fill="#EEB936" d="M6,0.9c-0.7-0.7-1.5-1-2.5-1c-0.9,0-1.7,0.3-2.4,0.9C0.8,1,0.6,1.4,0.3,1.8C0.1,2.3,0,2.8,0,3.5
		c0,0.7,0.1,1.2,0.4,1.6c0.2,0.4,0.5,0.8,0.7,1C1.8,6.7,2.6,7,3.5,7s1.7-0.3,2.4-0.9c0.3-0.2,0.5-0.6,0.8-1c0.2-0.4,0.3-1,0.4-1.6
		c0-0.7-0.1-1.2-0.4-1.6C6.5,1.4,6.2,1.1,6,0.9z M4.8,4.8C4.4,5.1,4,5.3,3.5,5.3S2.6,5.1,2.3,4.8C1.9,4.5,1.7,4,1.7,3.5
		c0-0.6,0.2-1,0.5-1.3C2.5,1.9,3,1.7,3.5,1.7s0.9,0.2,1.3,0.5c0.4,0.3,0.6,0.7,0.6,1.3C5.4,4,5.2,4.5,4.8,4.8z"/>
	<path fill="#FFFFFF" d="M28.1,28.1L28.1,28.1c-0.3,0-0.3,0.1-0.3,0.301V33.6c0,0.201,0.1,0.301,0.2,0.301h0.1
		c0.2,0,0.3-0.1,0.3-0.301V28.4C28.3,28.199,28.3,28.1,28.1,28.1z"/>
	<polygon fill="#EEB936" points="79.8,11.1 85.1,11.1 85.1,9.2 79.8,9.2 79.8,2.1 87,2.1 87,0.2 77.6,0.2 77.6,21 87.4,21 
		87.4,19.1 79.8,19.1 	"/>
	<path fill="#FFFFFF" d="M17.4,10.4c-0.8-0.6-1.6-1.2-2.5-1.7c-0.8-0.5-1.5-1.1-2.1-1.8C12.3,6.2,12,5.4,12,4.5c0-0.8,0.3-1.5,0.8-2
		s1.2-0.8,2.1-0.8c1.1,0,1.8,0.4,2.3,1.1c0.5,0.7,0.8,1.6,0.9,2.7h2.1c-0.1-1.8-0.6-3.2-1.5-4.2c-1-0.9-2.2-1.4-3.7-1.4
		s-2.7,0.5-3.6,1.3c-0.9,0.9-1.3,2-1.4,3.5c0,1.2,0.3,2.2,0.9,3c0.6,0.8,1.2,1.5,2.1,2.2c0.8,0.6,1.6,1.2,2.5,1.8
		c0.8,0.6,1.5,1.2,2.1,1.9c0.5,0.7,0.8,1.5,0.9,2.4c0,1.1-0.3,1.9-0.8,2.5s-1.3,0.9-2.2,0.9c-1.1,0-1.9-0.4-2.5-1.1
		C12.4,17.6,12.1,16.6,12.1,15.4H9.8c0,1.2,0.3,2.2,0.7,3.1s1,1.6,1.8,2.1c0.8,0.5,1.7,0.701,2.8,0.701c1.7,0,3-0.5,3.9-1.4
		s1.4-2.201,1.4-3.9c0-1.3-0.3-2.4-0.9-3.3C18.9,11.8,18.2,11,17.4,10.4z"/>
	<path fill="#FFFFFF" d="M25.2,31.199C25,31,24.8,30.9,24.6,30.9c-0.2-0.1-0.4-0.1-0.7-0.201c-0.2,0-0.4-0.1-0.6-0.1
		c-0.2-0.1-0.3-0.1-0.5-0.199c-0.1-0.1-0.2-0.201-0.3-0.301s-0.1-0.299-0.1-0.4c0-0.299,0.1-0.6,0.4-0.699
		c0.2-0.199,0.6-0.301,1-0.301c0.3,0,0.7,0.102,0.9,0.201c0.3,0.199,0.5,0.299,0.6,0.6c0,0,0,0,0.1,0c0,0,0.1,0,0.1-0.1l0.1-0.1
		c0,0,0.1-0.102,0.1-0.201s0-0.199-0.1-0.299c-0.1-0.102-0.2-0.201-0.4-0.301c-0.2-0.1-0.4-0.199-0.6-0.199
		c-0.2-0.102-0.5-0.102-0.8-0.102c-0.3,0-0.5,0-0.7,0.102c-0.2,0.1-0.4,0.199-0.6,0.299s-0.3,0.301-0.4,0.5
		c-0.1,0.201-0.1,0.4-0.1,0.6c0,0.301,0.1,0.5,0.2,0.701c0.1,0.199,0.2,0.299,0.4,0.5c0.2,0.1,0.3,0.199,0.5,0.299
		c0.2,0.102,0.4,0.102,0.6,0.201c0.2,0,0.4,0.1,0.6,0.1c0.2,0.1,0.3,0.1,0.5,0.199c0.1,0.102,0.3,0.201,0.3,0.301
		c0.1,0.1,0.1,0.301,0.1,0.5c0,0.301-0.1,0.6-0.4,0.801c-0.2,0.199-0.6,0.299-1,0.299c-0.4,0-0.8-0.1-1-0.299
		c-0.3-0.201-0.5-0.4-0.7-0.701c0,0,0,0-0.1,0c0,0-0.1,0-0.1,0.1l-0.1,0.102c0,0-0.1,0.1-0.1,0.199s0.1,0.199,0.2,0.301
		c0.1,0.1,0.2,0.199,0.4,0.398C22.5,33.801,22.7,33.9,23,34s0.5,0.1,0.8,0.1c0.3,0,0.6,0,0.8-0.1c0.2-0.1,0.4-0.199,0.6-0.301
		c0.2-0.1,0.3-0.299,0.4-0.5c0.1-0.199,0.1-0.398,0.1-0.699s-0.1-0.5-0.2-0.699C25.5,31.4,25.3,31.301,25.2,31.199z"/>
</g>
</svg>
