<?xml version="1.0" encoding="utf-8"?>
<!-- Generator: Adobe Illustrator 16.0.0, SVG Export Plug-In . SVG Version: 6.00 Build 0)  -->
<!DOCTYPE svg PUBLIC "-//W3C//DTD SVG 1.1//EN" "http://www.w3.org/Graphics/SVG/1.1/DTD/svg11.dtd">
<svg version="1.1" id="Слой_1" xmlns="http://www.w3.org/2000/svg" xmlns:xlink="http://www.w3.org/1999/xlink" x="0px" y="0px"
	 width="100px" height="34px" viewBox="0 0 100 34" enable-background="new 0 0 100 34" xml:space="preserve">
<title>588E8379-9A6A-4647-B0C0-93E84769F522</title>
<desc>Created with sketchtool.</desc>
<g>
	<path fill="#5B6063" d="M21.4,32.1c-1.4-1.8-2.9-3.6-4.3-5.399c-0.6,1.7-1.2,3.399-1.8,5.1c0,0,0,0-0.1,0
		c-0.6-1.7-1.1-3.399-1.7-5.1c-1.4,1.7-2.8,3.399-4.1,5c0,0,0,0-0.1,0c0.4-2.5,0.8-5,1.2-7.5c-2.3,1.1-4.6,2.2-6.8,3.3l0,0
		c1.5-1.9,3-3.8,4.5-5.8C5.7,22,3.3,22.2,1,22.5c0,0,0,0,0-0.1C2.8,21.3,4.5,20.3,6.4,19.2c-2.1-0.7-4.2-1.5-6.3-2.2c0,0,0,0,0-0.1
		c2.4-0.5,4.8-1,7.3-1.4c-1.8-1.7-3.5-3.4-5.2-5l0,0C4.1,10.9,6,11.3,8,11.7C7,9.6,6.1,7.5,5.2,5.3l0,0c2,1.5,4.1,3,6.1,4.5
		c-0.2-2.3-0.4-4.6-0.6-6.9c0,0,0,0,0.1,0c1.2,1.8,2.5,3.7,3.8,5.6c1.2-2.2,2.5-4.4,3.7-6.6c0,0,0,0,0.1,0c0.1,2,0.3,4,0.4,6.1
		c1.4-1.2,2.7-2.4,4-3.6l0,0c-0.5,2.1-1,4.2-1.6,6.4c2.4-1.1,4.7-2.1,7.1-3.1l0,0c-1.5,2-3,3.9-4.6,6c2.5,0.1,4.9,0.3,7.3,0.4
		c0,0,0,0,0,0.1c-2.2,1.4-4.5,2.9-6.7,4.3c2.1,0.9,4.1,1.7,6.1,2.6c0,0,0,0,0,0.101c-2.1,0-4.3,0.1-6.4,0.1c0.9,2.3,1.9,4.7,2.8,7
		l0,0c-2-1.3-4-2.6-6.1-3.899C21,26.9,21.2,29.5,21.4,32.1L21.4,32.1z M23.7,17.3c0-4.3-3.5-7.9-7.9-7.9c-4.4,0-7.7,3.5-7.9,7.5
		c-0.2,4.8,3.6,8.3,7.8,8.4C20.2,25.2,23.7,21.6,23.7,17.3z"/>
	<path fill="#5B6063" d="M20.7,19.3c-0.4,0.8-1,1.5-1.7,2.101c-0.8,0.699-1.7,1.1-2.8,1.3c-1.7,0.2-3-0.4-4.2-1.601
		c-0.6-0.6-1.1-1.3-1.6-2c-0.2,0.101-0.4,0.4-0.8,0.4c0.6-0.4,1-0.9,1.4-1.5c0.1,0.3-0.2,0.6-0.3,0.8c2.3,0.7,8.1,0.8,9.8,0.101
		c-0.1-0.2-0.1-0.4-0.2-0.601c0-0.1,0-0.1,0-0.2c0.1,0.101,0.1,0.101,0.2,0.2c0.2,0.3,0.3,0.7,0.5,1c0.1,0.101,0.2,0.2,0.3,0.3
		c0,0.101,0,0.101,0.1,0.2c-0.1,0-0.2,0-0.2,0C21,19.6,20.9,19.5,20.7,19.3z M10.9,19.2c0.3,0.7,1.2,1.7,1.9,2.3
		c1.4,1,2.8,1.3,4.4,0.7c1-0.4,1.8-1.101,2.5-1.9c0.2-0.3,0.4-0.6,0.6-0.899C17.2,19.9,14.1,19.9,10.9,19.2z"/>
	<path fill="#5B6063" d="M18.7,16.6c0.1-0.3,0.2-0.8,0.4-1.2c0.1-0.2,0.3-0.4,0.5-0.4c0.3,0,0.4,0.2,0.5,0.5
		c0.2,0.7,0.1,1.4-0.4,1.9c-0.3,0.3-0.7,0.2-0.8-0.2C18.8,17.1,18.8,16.9,18.7,16.6z M19.6,15.4c-0.3,0-0.6,0.5-0.4,1
		c0.1-0.1,0.3-0.1,0.3-0.2C19.5,15.9,19.5,15.6,19.6,15.4z"/>
	<path fill="#5B6063" d="M10.1,16.1c0-0.4,0.1-0.8,0.3-1.2c0.1-0.2,0.4-0.4,0.6-0.3c0.3,0.1,0.4,0.3,0.4,0.5c0.1,0.5,0,1-0.2,1.4
		c-0.1,0.3-0.4,0.5-0.6,0.5c-0.3,0-0.5-0.4-0.5-0.7C10.1,16.3,10.1,16.2,10.1,16.1z M10.4,16c0.1-0.1,0.3-0.1,0.3-0.2
		c0.1-0.3,0.1-0.5,0.2-0.8C10.5,15,10.3,15.4,10.4,16z"/>
	<path fill="#5B6063" d="M15.9,13.6c-0.1,0-0.2,0.1-0.3,0.1c-0.6,0.2-1.2,0.5-1.6,1c-0.4,0.4-0.6,0.9-0.4,1.5c0.1,0.5,0.5,0.8,1,0.8
		c0.4,0,0.7,0,1.1,0c0.3,0,0.4,0.2,0.3,0.5c0,0.1-0.1,0.1-0.1,0.2c0,0,0,0-0.1,0c0-0.101,0-0.101,0-0.2c0-0.1,0-0.2,0-0.3
		c-0.4,0-0.7,0-1.1,0c-0.9,0-1.5-0.6-1.4-1.5c0-0.6,0.3-1,0.7-1.4c0.4-0.4,1-0.6,1.5-0.8C15.6,13.5,15.7,13.5,15.9,13.6
		C15.9,13.5,15.9,13.5,15.9,13.6z"/>
	<path fill="#5B6063" d="M12.3,15.2c-0.1-0.7-0.3-1.3-1.1-1.5c-0.9-0.2-1.3,0.4-1.7,1c0.2-0.8,0.8-1.5,1.7-1.3
		C11.9,13.5,12.4,14.2,12.3,15.2z"/>
	<path fill="#5B6063" d="M21.2,15.7c-0.2-0.8-0.6-1.4-1.4-1.6c-0.8-0.1-1.2,0.4-1.6,1c0.2-0.7,0.7-1.4,1.6-1.3
		C20.6,13.9,21.2,14.7,21.2,15.7z"/>
</g>
<g>
	<path fill="#8F9295" d="M40.8,9.9c0.6-0.7,1.2-1.4,1.8-2.1c0.1-0.1,0.4-0.2,0.6-0.3c0.9,0,1.8,0,2.8,0c0.3,0,0.4,0.1,0.4,0.4
		c0,2.8,0,5.5,0,8.3c0,0.3-0.1,0.4-0.4,0.4c-0.9,0-1.7,0-2.6,0c-0.3,0-0.4-0.1-0.4-0.4c0-1.8,0-3.6,0-5.4c0,0,0-0.1,0-0.2
		c-0.7,0.8-1.4,1.7-2.2,2.5c-0.7-0.8-1.4-1.6-2.2-2.5c0,0.3,0,0.4,0,0.5c0,1.7,0,3.4,0,5c0,0.3-0.1,0.4-0.4,0.4c-0.9,0-1.7,0-2.6,0
		c-0.3,0-0.4-0.1-0.4-0.4c0-2.8,0-5.5,0-8.3c0-0.3,0.1-0.4,0.4-0.4c0.9,0,1.9,0,2.8,0c0.2,0,0.4,0.1,0.5,0.2
		c0.6,0.6,1.1,1.2,1.6,1.9C40.6,9.8,40.7,9.8,40.8,9.9z"/>
	<path fill="#8F9295" d="M93.5,16.5c-1.1,0-2.1,0-3.1,0c-0.301,0-0.301-0.2-0.301-0.4c0-1.1,0-2.3,0-3.4c0-1.6,0-3.2,0-4.8
		c0-0.1,0-0.3,0-0.5c0.2,0,0.301,0,0.5,0c1.801,0,3.5,0,5.301,0c0.6,0,1.199,0.1,1.8,0.3c1,0.3,1.5,1.1,1.6,2.1
		c0.101,0.6-0.2,1.2-0.6,1.7c-0.2,0.2-0.4,0.4-0.7,0.7c1.1,1.2,1.6,2.6,2,4.2c-0.5,0-1,0-1.4,0c-0.5,0-1.1,0-1.6,0
		c-0.2,0-0.4,0-0.4-0.3c-0.399-1.5-1.3-2.6-2.8-3.3c0,0-0.1,0-0.2-0.1C93.5,14.1,93.5,15.3,93.5,16.5z M93.6,8.6c0,0.9,0,1.8,0,2.8
		c0.7,0.2,1.301,0,1.7-0.6c0.3-0.5,0.3-1,0-1.5C94.9,8.7,94.3,8.5,93.6,8.6z"/>
	<path fill="#8F9295" d="M67,16.5c-1.2,0-2.3,0-3.4,0c-0.5-1.7-1.399-3-3.1-3.7c0,1.3,0,2.5,0,3.7c-1.1,0-2.2,0-3.3,0c0-3,0-6,0-9
		c0.1,0,0.2,0,0.3,0c1.8,0,3.7,0,5.5,0c0.6,0,1.3,0.2,1.9,0.4c1,0.3,1.399,1.2,1.399,2.1c0,0.5-0.2,1.1-0.6,1.5
		c-0.101,0.1-0.2,0.2-0.3,0.4c-0.4,0.4-0.5,0.3,0,0.8c0.699,0.8,1,1.7,1.3,2.7C66.8,15.7,66.9,16.1,67,16.5z M60.6,11.4
		c0.2,0,0.301,0,0.5,0c0.601,0.1,1-0.3,1.2-0.7c0.3-0.5,0.3-1-0.1-1.5c-0.4-0.5-0.9-0.7-1.5-0.6c-0.101,0-0.2,0.1-0.2,0.2
		C60.6,9.6,60.6,10.5,60.6,11.4z"/>
	<path fill="#8F9295" d="M68.3,7.6c1,0,2,0,3.101,0c0.1,0,0.199,0.2,0.199,0.3c0,0.9,0,1.7,0,2.6c0,0.1,0,0.3,0,0.4
		c0.9,0.1,1.5-0.3,2-0.8C74.2,9.5,74.6,8.7,74.9,8C75,7.7,75.1,7.7,75.4,7.7c0.899,0,1.8,0,2.699,0c0.301,0,0.4,0.1,0.301,0.4
		c-0.301,1.2-0.9,2.4-1.601,3.4c-0.7,0.9-0.7,0.5,0,1.4c0.8,1.1,1.4,2.2,1.9,3.5c0.1,0.2,0,0.3-0.2,0.3c-1,0-2,0-3.1,0
		c-0.101,0-0.301-0.2-0.4-0.3c-0.3-1.1-0.8-2.1-1.7-2.9c-0.6-0.5-0.7-0.6-1.6-0.5c0,1.2,0,2.4,0,3.7c-1.101,0-2.2,0-3.3,0
		C68.3,13.6,68.3,10.6,68.3,7.6z"/>
	<path fill="#8F9295" d="M79.6,7.6c1,0,2,0,3,0c0.301,0,0.2,0.2,0.2,0.4c0,1.5,0,3,0,4.5c0,0.5,0.3,0.9,0.8,1
		c0.7,0.1,1.2-0.1,1.4-0.7c0-0.1,0-0.3,0-0.4c0-1.5,0-2.9,0-4.4c0-0.3,0.1-0.5,0.5-0.5c0.8,0,1.7,0,2.5,0c0.3,0,0.4,0.1,0.4,0.4
		c0,1.8,0,3.6-0.101,5.4c-0.1,1.5-1.2,2.9-2.899,3.2c-0.601,0.1-1.301,0.2-2,0.1c-2.101-0.1-3.4-1.1-3.9-3.2c0-0.1,0-0.2,0-0.3
		c0-1.8,0-3.5,0-5.3C79.6,7.8,79.6,7.7,79.6,7.6z"/>
	<path fill="#8F9295" d="M48.2,16.5c0-3,0-6,0-9c0.1,0,0.3,0,0.4,0c2.1,0,4.3,0,6.4,0c0.3,0,0.4,0.1,0.5,0.4c0,1,0,1-1,1
		c-0.9,0-1.7,0-2.6,0c-0.301,0-0.4,0.1-0.4,0.4c0,0.6,0,1.2,0,1.8c0,0.3,0.1,0.4,0.4,0.4c0.699,0,1.3,0,2,0c0.199,0,0.3,0.1,0.3,0.3
		c0,1.2,0.2,1-1,1c-0.5,0-0.9,0-1.4,0c-0.3,0-0.399,0.1-0.399,0.3c0,0.6,0,1.2,0,1.8c0,0.3,0.1,0.4,0.399,0.4c1,0,2.101,0,3.101,0
		c0.3,0,0.399,0.1,0.399,0.4c0,0.9,0,0.9-0.899,0.9c-1.9,0-3.9,0-5.8,0C48.6,16.5,48.4,16.5,48.2,16.5z"/>
</g>
<g>
	<path fill="#8F9295" d="M66.7,20.8c-0.2,0.4-0.4,0.7-0.5,1.101c-0.4,0.899-0.7,1.699-1,2.6c-0.4,0.9-0.7,1.7-1.101,2.6
		C63.9,27.5,63.7,27.9,63.6,28.3c-0.1,0.3-0.3,0.5-0.5,0.4c-0.3-0.101-0.6-0.2-0.699-0.4c-0.4-0.8-0.7-1.7-1-2.6
		C61,24.8,60.7,24,60.3,23.1c-0.2-0.5-0.399-1-0.6-1.5C59.6,21.5,59.6,21.3,59.5,21.2C59,21.4,59,21.6,59,21.9
		c0,1.899,0,3.899,0,5.8c0,0.2,0,0.3,0,0.5c0,0.3-0.2,0.5-0.5,0.5s-0.4-0.2-0.4-0.5c0-0.7,0-1.4,0-2.101c0-2,0-3.899,0-5.899
		c0-0.8,0.301-1,1-0.8c0.101,0,0.301,0.1,0.4,0.3c0.3,0.7,0.6,1.399,0.9,2.1c0.399,0.9,0.8,1.8,1.1,2.7c0.2,0.5,0.4,0.9,0.6,1.4
		c0.2,0.5,0.4,1,0.601,1.399c0,0,0.1,0.101,0.2,0.2c0.199-0.2,0.399-0.3,0.5-0.6c0.199-0.4,0.3-0.801,0.5-1.2c0.5-1.3,1.1-2.7,1.6-4
		c0.2-0.5,0.4-1,0.6-1.601c0.2-0.6,0.7-0.899,1.4-0.699c0.1,0,0.2,0.1,0.3,0.199C67.9,19.8,67.9,19.9,67.9,20.1c0,2.7,0,5.4,0,8.101
		c0,0.3,0,0.5-0.301,0.6C67.2,28.9,67,28.7,67,28.2c0-1.3,0-2.7,0-4c0-0.9,0-1.8,0-2.7c0-0.2-0.1-0.4-0.1-0.6
		C66.8,20.8,66.7,20.8,66.7,20.8z"/>
	<path fill="#8F9295" d="M81.8,20.9c0,0.199-0.1,0.399-0.1,0.6c0,2.1,0,4.2,0,6.3c0,0.101,0,0.3,0,0.4c0,0.3-0.101,0.5-0.4,0.5
		s-0.5-0.2-0.5-0.5c0-2.8,0-5.5,0-8.3c0-0.2,0.2-0.5,0.3-0.601C81.4,19.1,81.7,19.1,82,19.4c0.3,0.399,0.5,0.699,0.8,1.1
		c0.8,1.4,1.601,2.7,2.3,4.1C85.5,25.4,86,26.1,86.4,26.9c0,0,0.1,0.1,0.199,0.199c0.101-0.3,0.101-0.6,0.101-0.8c0-2.1,0-4.1,0-6.2
		c0-0.199,0-0.399,0.1-0.6c0.101-0.1,0.3-0.2,0.4-0.2c0.1,0,0.3,0.2,0.3,0.3c0.1,0.2,0.1,0.301,0.1,0.5c0,2.7,0,5.301,0,8
		c0,0.301,0,0.5-0.3,0.601c-0.399,0.1-0.899,0-1-0.3c-0.7-1.301-1.5-2.601-2.2-3.9c-0.6-1-1.199-2-1.8-3
		C82.2,21.3,82,21.1,81.8,20.9C81.9,20.9,81.8,20.9,81.8,20.9z"/>
	<path fill="#8F9295" d="M100,26.1c0,0.5,0,1.101,0,1.601s-0.2,0.8-0.7,0.899c-1.399,0.301-2.7,0.5-4.1,0c-1-0.399-1.8-1-2.3-2
		C92.1,25.2,92.1,23.7,92.6,22.1c0.301-0.899,0.9-1.699,1.7-2.3c1.101-0.7,2.3-0.899,3.5-0.8c0.5,0.1,1,0.2,1.4,0.4
		c0.3,0.1,0.3,0.399,0.2,0.6c-0.101,0.3-0.301,0.2-0.5,0.1c-1.601-0.5-3.101-0.5-4.5,0.7c-0.601,0.5-1,1.101-1,1.9
		C93.3,23.3,93.3,23.9,93.3,24.5c0.101,2.3,1.7,3.3,3.7,3.4c0.6,0,1.2-0.101,1.7-0.301c0.1,0,0.3-0.3,0.3-0.399c0-0.8,0-1.7,0-2.5
		c0-0.3-0.2-0.5-0.5-0.5c-0.4,0-0.8,0-1.3,0c-0.101,0-0.4-0.2-0.4-0.3c0-0.2,0.101-0.5,0.4-0.5c0.7,0,1.5,0,2.2,0
		c0.399,0,0.5,0.399,0.5,0.699C100,24.9,100,25.5,100,26.1L100,26.1z"/>
	<path fill="#8F9295" d="M42.5,26.1c0,0.5,0,1.101,0,1.601s-0.3,0.8-0.7,0.899c-1.4,0.301-2.8,0.5-4.1,0c-1.1-0.399-1.9-1.1-2.4-2.1
		c-0.6-1.3-0.6-2.6-0.3-4c0.2-1,0.9-1.9,1.8-2.5c1.1-0.7,2.2-0.9,3.5-0.8c0.5,0.1,1,0.2,1.5,0.399C42.1,19.7,42.2,19.9,42,20.2
		c-0.1,0.3-0.3,0.2-0.6,0.2c-1.6-0.5-3.2-0.4-4.5,0.699c-0.5,0.5-0.9,1.101-1,1.801c-0.2,1.199-0.3,2.3,0.4,3.399
		c0.4,0.7,1,1.3,1.9,1.601c1,0.3,2,0.399,3,0.1c0.4-0.1,0.6-0.3,0.6-0.7c0-0.7,0-1.399,0-2.1c0-0.5-0.2-0.7-0.7-0.7
		c-0.4,0-0.8,0-1.2,0c-0.1,0-0.3-0.2-0.4-0.3c0.1-0.101,0.2-0.4,0.4-0.4c0.3-0.1,0.7-0.1,1-0.1c0.3,0,0.7,0,1,0
		c0.5,0,0.7,0.2,0.7,0.7C42.5,24.9,42.5,25.5,42.5,26.1L42.5,26.1z"/>
	<path fill="#8F9295" d="M53.7,28.8c-0.2-0.2-0.4-0.399-0.5-0.7c-0.2-0.5-0.4-1-0.5-1.5C52.6,26.2,52.4,26.1,52,26.1
		c-1.3,0-2.6,0-3.9,0c-0.3,0-0.5,0.2-0.6,0.5C47.3,27.2,47,27.8,46.7,28.4c-0.1,0.199-0.3,0.399-0.6,0.3c-0.2-0.101-0.3-0.2-0.2-0.4
		c0.6-1.3,1.1-2.7,1.6-4c0.5-1.2,1-2.399,1.6-3.7c0.2-0.399,0.3-0.8,0.6-1.1c0.2-0.3,0.6-0.3,0.8,0c0.2,0.2,0.3,0.5,0.4,0.8
		c0.399,0.9,0.8,1.8,1.1,2.7c0.2,0.4,0.3,0.8,0.5,1.2c0.4,1,0.9,2.1,1.3,3.1c0.101,0.3,0.2,0.601,0.4,0.9
		C54.3,28.6,54.1,28.7,53.7,28.8z M50,25.4L50,25.4c0.4,0,0.9,0,1.3,0c0.4,0,0.601-0.2,0.5-0.601c-0.1-0.399-0.3-0.8-0.5-1.2
		c-0.3-0.8-0.6-1.699-1-2.5C50.2,21,50,20.9,49.9,20.8c-0.1,0-0.2,0.2-0.3,0.3c-0.1,0.2-0.1,0.4-0.2,0.5c-0.4,1-0.8,2.101-1.3,3.101
		c-0.2,0.5-0.1,0.6,0.4,0.7C49.1,25.4,49.6,25.4,50,25.4z"/>
	<path fill="#8F9295" d="M73.9,24.1c0-1.3,0-2.6,0-3.899c0-0.2,0-0.4,0.1-0.5c0.1-0.101,0.3-0.3,0.4-0.3c0.1,0,0.3,0.199,0.399,0.3
		C74.9,19.8,74.9,20,74.9,20.1c0,2.7,0,5.4,0,8c0,0.301,0,0.5-0.4,0.601C74.1,28.8,74,28.6,74,28.2C73.9,26.8,73.9,25.4,73.9,24.1z"
		/>
</g>
</svg>
