<?xml version="1.0" encoding="utf-8"?>
<!-- Generator: Adobe Illustrator 16.0.0, SVG Export Plug-In . SVG Version: 6.00 Build 0)  -->
<!DOCTYPE svg PUBLIC "-//W3C//DTD SVG 1.1//EN" "http://www.w3.org/Graphics/SVG/1.1/DTD/svg11.dtd">
<svg version="1.1" id="Слой_1" xmlns="http://www.w3.org/2000/svg" xmlns:xlink="http://www.w3.org/1999/xlink" x="0px" y="0px"
	 width="100px" height="26px" viewBox="0 0 100 26" enable-background="new 0 0 100 26" xml:space="preserve">
<title>2078A927-5AE6-4B40-83A7-465954C53180</title>
<desc>Created with sketchtool.</desc>
<linearGradient id="SVGID_1_" gradientUnits="userSpaceOnUse" x1="7.9463" y1="0.8882" x2="16.9079" y2="24.2341" gradientTransform="matrix(1 0 0 -1 -0.0151 25.6992)">
	<stop  offset="0" style="stop-color:#22E221"/>
	<stop  offset="0.4815" style="stop-color:#29CB87"/>
	<stop  offset="1" style="stop-color:#31B7E4"/>
</linearGradient>
<path fill="url(#SVGID_1_)" d="M12.5,0.6C5.5,0.6,0,6.2,0,13.2c0,1.2,0.2,2.5,0.5,3.7c2.3-3,4.7-7,7.2-11.4c0.3-0.8,0.8-2.2,2-2.2
	c0.7,0.3,0.8,0.8,0.7,1.8c0,1-0.3,13.6,1.2,13.9c1,0.2,3.8-5.7,5.3-9.1c0.5-1.2,0.8-1.8,1.7-1.7c1,0.2,0.8,0.7,1,2
	c0.2,0.8,0.5,2.9,1.2,4.399c0.7,1.5,1.5,2.7,1.2,2.9c-0.8,0.5-4-5-3.7-5c0,0-3.8,9.4-6.8,8.7C7.5,21.1,8,10,8,10
	c-1.8,3.5-3.8,6.9-6,9.9C4.3,23.4,8,25.6,12.5,25.6c6.8,0,12.3-5.5,12.3-12.399C24.8,6.2,19.3,0.6,12.5,0.6z"/>
<linearGradient id="SVGID_2_" gradientUnits="userSpaceOnUse" x1="28.3467" y1="11.5996" x2="100.0189" y2="11.5996" gradientTransform="matrix(1 0 0 -1 -0.0151 25.6992)">
	<stop  offset="0" style="stop-color:#22E221"/>
	<stop  offset="0.4815" style="stop-color:#29CB87"/>
	<stop  offset="1" style="stop-color:#31B7E4"/>
</linearGradient>
<path fill="url(#SVGID_2_)" d="M56.8,17.3c0.5-0.3,1-0.7,1.2-1.2c0.3-0.5,0.5-1.199,0.5-2c0-1.2-0.3-2-1-2.5c-0.5-0.7-1.3-1-2.2-1
	c-0.8,0-1.5,0.3-2.2,0.8c-0.699,0.5-1,1.5-1,2.7c0,1.2,0.301,2,0.801,2.7c0.699,0.5,1.3,0.8,2.3,0.8C55.8,17.6,56.3,17.4,56.8,17.3z
	 M53.3,14.1c0-0.8,0.2-1.5,0.5-1.8c0.3-0.5,0.8-0.7,1.5-0.7c0.5,0,1,0.2,1.3,0.7c0.301,0.3,0.7,1,0.7,1.8c0,0.801-0.3,1.5-0.7,2
	c-0.3,0.301-0.8,0.5-1.3,0.5c-0.7,0-1.2-0.199-1.5-0.5C53.5,15.6,53.3,14.9,53.3,14.1z"/>
<linearGradient id="SVGID_3_" gradientUnits="userSpaceOnUse" x1="28.3516" y1="11.6992" x2="100.0083" y2="11.6992" gradientTransform="matrix(1 0 0 -1 -0.0151 25.6992)">
	<stop  offset="0" style="stop-color:#22E221"/>
	<stop  offset="0.4815" style="stop-color:#29CB87"/>
	<stop  offset="1" style="stop-color:#31B7E4"/>
</linearGradient>
<path fill="url(#SVGID_3_)" d="M48.3,10.7v6.7h1v-3.5c0-0.5,0.2-0.8,0.2-1.3c0.2-0.2,0.3-0.5,0.5-0.5c0.2-0.2,0.5-0.3,0.7-0.3
	c0.3,0,0.5,0.2,0.8,0.3l0.3-1.2c-0.3-0.2-0.7-0.3-1.2-0.3c-0.2,0-0.5,0.2-0.7,0.3c-0.2,0-0.5,0.3-0.7,0.8v-1H48.3z"/>
<linearGradient id="SVGID_4_" gradientUnits="userSpaceOnUse" x1="28.3428" y1="10.3994" x2="100.0215" y2="10.3994" gradientTransform="matrix(1 0 0 -1 -0.0151 25.6992)">
	<stop  offset="0" style="stop-color:#22E221"/>
	<stop  offset="0.4815" style="stop-color:#29CB87"/>
	<stop  offset="1" style="stop-color:#31B7E4"/>
</linearGradient>
<path fill="url(#SVGID_4_)" d="M63.3,18.9c-0.2,0.199-0.7,0.3-1.2,0.3S61.3,19,60.9,18.9C60.7,18.7,60.6,18.6,60.6,18.1H59.4
	c0,0.7,0.3,1.2,0.8,1.5c0.3,0.301,1,0.5,1.8,0.5c0.7,0,1.3,0,1.7-0.3c0.5-0.2,0.8-0.5,1-1c0.3-0.5,0.3-1.2,0.3-2.2V10.7h-1v0.8
	c-0.5-0.7-1.2-1-2-1c-0.5,0-1,0.2-1.5,0.5s-0.8,0.7-1,1.2c-0.2,0.7-0.3,1.2-0.3,1.8c0,0.8,0.2,1.7,0.7,2.3c0.5,0.601,1.3,1,2.199,1
	c0.801,0,1.301-0.3,1.801-0.8V18C63.8,18.4,63.7,18.8,63.3,18.9z M63.7,15.9c-0.3,0.3-0.8,0.699-1.3,0.699s-1-0.3-1.301-0.699
	c-0.3-0.4-0.5-1-0.5-2c0-0.7,0.2-1.3,0.5-1.8c0.301-0.3,0.801-0.5,1.301-0.5s0.8,0.2,1.3,0.7c0.3,0.3,0.5,1,0.5,1.8
	C64.2,14.9,64,15.6,63.7,15.9z"/>
<linearGradient id="SVGID_5_" gradientUnits="userSpaceOnUse" x1="28.3486" y1="16.8984" x2="100.0153" y2="16.8984" gradientTransform="matrix(1 0 0 -1 -0.0151 25.6992)">
	<stop  offset="0" style="stop-color:#22E221"/>
	<stop  offset="0.4815" style="stop-color:#29CB87"/>
	<stop  offset="1" style="stop-color:#31B7E4"/>
</linearGradient>
<rect x="39" y="8.2" fill="url(#SVGID_5_)" width="1" height="1.2"/>
<linearGradient id="SVGID_6_" gradientUnits="userSpaceOnUse" x1="28.3486" y1="11.6489" x2="100.0153" y2="11.6489" gradientTransform="matrix(1 0 0 -1 -0.0151 25.6992)">
	<stop  offset="0" style="stop-color:#22E221"/>
	<stop  offset="0.4815" style="stop-color:#29CB87"/>
	<stop  offset="1" style="stop-color:#31B7E4"/>
</linearGradient>
<rect x="39" y="10.7" fill="url(#SVGID_6_)" width="1" height="6.7"/>
<linearGradient id="SVGID_7_" gradientUnits="userSpaceOnUse" x1="28.3584" y1="11.7993" x2="100.0084" y2="11.7993" gradientTransform="matrix(1 0 0 -1 -0.0151 25.6992)">
	<stop  offset="0" style="stop-color:#22E221"/>
	<stop  offset="0.4815" style="stop-color:#29CB87"/>
	<stop  offset="1" style="stop-color:#31B7E4"/>
</linearGradient>
<path fill="url(#SVGID_7_)" d="M71.2,10.7v0.8c-0.5-0.7-1.2-1-2-1c-0.5,0-1.2,0.2-1.5,0.5c-0.5,0.3-0.8,0.7-1,1.2
	c-0.3,0.7-0.3,1.2-0.3,1.8c0,0.8,0.199,1.7,0.699,2.3c0.5,0.601,1.301,1,2.2,1h0.5c0.7-0.2,1.3-0.7,1.5-0.8c0,0.3,0,0.7,0.2,0.8h1.2
	c-0.2-0.2-0.2-0.5-0.3-0.8v-5.9h-1.2V10.7z M70.7,15.9c-0.5,0.3-0.8,0.699-1.3,0.699s-1-0.3-1.301-0.699c-0.3-0.4-0.5-1-0.5-2
	c0-0.7,0.2-1.3,0.5-1.8c0.301-0.3,0.801-0.5,1.301-0.5s0.8,0.2,1.199,0.7c0.5,0.3,0.7,1,0.7,1.8C71.3,14.9,71,15.6,70.7,15.9z"/>
<linearGradient id="SVGID_8_" gradientUnits="userSpaceOnUse" x1="28.3486" y1="11.7988" x2="100.0153" y2="11.7988" gradientTransform="matrix(1 0 0 -1 -0.0151 25.6992)">
	<stop  offset="0" style="stop-color:#22E221"/>
	<stop  offset="0.4815" style="stop-color:#29CB87"/>
	<stop  offset="1" style="stop-color:#31B7E4"/>
</linearGradient>
<path fill="url(#SVGID_8_)" d="M44.5,11.5c0.5,0,0.8,0,1,0.3c0.3,0.2,0.5,0.5,0.7,1l1-0.2c-0.2-0.7-0.3-1.2-0.8-1.7
	c-0.5-0.3-1-0.5-1.8-0.5c-0.5,0-1,0.2-1.5,0.5c-0.5,0.2-1,0.7-1.2,1.2c-0.2,0.5-0.3,1.2-0.3,1.8c0,1.199,0.3,2,0.8,2.699
	c0.5,0.5,1.3,0.801,2.2,0.801c0.7,0,1.3-0.2,1.8-0.7c0.5-0.3,0.8-1,1-1.8l-1.2-0.2c0,0.7-0.2,1-0.5,1.3c-0.3,0.3-0.7,0.3-1.2,0.3
	s-1-0.2-1.3-0.5c-0.3-0.5-0.5-1.2-0.5-2s0.2-1.5,0.5-2C43.5,11.7,44,11.5,44.5,11.5z"/>
<linearGradient id="SVGID_9_" gradientUnits="userSpaceOnUse" x1="28.395" y1="11.6489" x2="100.0034" y2="11.6489" gradientTransform="matrix(1 0 0 -1 -0.0151 25.6992)">
	<stop  offset="0" style="stop-color:#22E221"/>
	<stop  offset="0.4815" style="stop-color:#29CB87"/>
	<stop  offset="1" style="stop-color:#31B7E4"/>
</linearGradient>
<rect x="84.5" y="10.7" fill="url(#SVGID_9_)" width="1.2" height="6.7"/>
<linearGradient id="SVGID_10_" gradientUnits="userSpaceOnUse" x1="28.395" y1="16.8984" x2="100.0034" y2="16.8984" gradientTransform="matrix(1 0 0 -1 -0.0151 25.6992)">
	<stop  offset="0" style="stop-color:#22E221"/>
	<stop  offset="0.4815" style="stop-color:#29CB87"/>
	<stop  offset="1" style="stop-color:#31B7E4"/>
</linearGradient>
<rect x="84.5" y="8.2" fill="url(#SVGID_10_)" width="1.2" height="1.2"/>
<linearGradient id="SVGID_11_" gradientUnits="userSpaceOnUse" x1="28.3369" y1="10.4492" x2="100.0157" y2="10.4492" gradientTransform="matrix(1 0 0 -1 -0.0151 25.6992)">
	<stop  offset="0" style="stop-color:#22E221"/>
	<stop  offset="0.4815" style="stop-color:#29CB87"/>
	<stop  offset="1" style="stop-color:#31B7E4"/>
</linearGradient>
<path fill="url(#SVGID_11_)" d="M99,11.5c-0.5-0.7-1.2-1-2-1c-0.7,0-1.2,0.2-1.5,0.5c-0.5,0.3-0.8,0.7-1,1.2
	c-0.3,0.7-0.3,1.2-0.3,1.8c0,0.8,0.2,1.7,0.7,2.3c0.5,0.601,1.199,1,2.199,1c0.7,0,1.301-0.3,1.801-0.8V18
	c-0.2,0.3-0.301,0.7-0.7,0.8c-0.3,0.2-0.7,0.3-1.2,0.3s-0.8-0.199-1.2-0.3c-0.2-0.2-0.3-0.3-0.3-0.8h-1.2c0,0.7,0.2,1.2,0.7,1.5
	s1.2,0.5,2,0.5c0.7,0,1.2,0,1.7-0.3c0.5-0.2,0.8-0.5,1-1s0.3-1.2,0.3-2.2v-5.9h-1V11.5z M98.3,15.9C98,16.2,97.6,16.6,97.1,16.6
	c-0.699,0-1-0.3-1.3-0.699c-0.3-0.301-0.5-1-0.5-2c0-0.7,0.2-1.3,0.5-1.8c0.3-0.3,0.7-0.5,1.2-0.5c0.7,0,1,0.2,1.3,0.7
	c0.5,0.3,0.7,1,0.7,1.8C99,14.9,98.8,15.6,98.3,15.9z"/>
<linearGradient id="SVGID_12_" gradientUnits="userSpaceOnUse" x1="28.3486" y1="12.8491" x2="100.0153" y2="12.8491" gradientTransform="matrix(1 0 0 -1 -0.0151 25.6992)">
	<stop  offset="0" style="stop-color:#22E221"/>
	<stop  offset="0.4815" style="stop-color:#29CB87"/>
	<stop  offset="1" style="stop-color:#31B7E4"/>
</linearGradient>
<path fill="url(#SVGID_12_)" d="M29.5,9.5l2.7,7.9h1L36,9.7v7.7h1.2V8.2h-1.7L33.3,14.6c-0.3,0.7-0.5,1.2-0.5,1.5
	c-0.2-0.3-0.3-0.699-0.5-1.3l-2.2-6.5h-1.8v9.2h1.2V9.5z"/>
<linearGradient id="SVGID_13_" gradientUnits="userSpaceOnUse" x1="28.3481" y1="11.749" x2="100.0148" y2="11.749" gradientTransform="matrix(1 0 0 -1 -0.0151 25.6992)">
	<stop  offset="0" style="stop-color:#22E221"/>
	<stop  offset="0.4815" style="stop-color:#29CB87"/>
	<stop  offset="1" style="stop-color:#31B7E4"/>
</linearGradient>
<path fill="url(#SVGID_13_)" d="M92.3,11.4c-0.2-0.3-0.3-0.5-0.7-0.7c-0.3,0-0.8-0.2-1.199-0.2c-1,0-1.7,0.3-2.2,1.2v-1h-1v6.7h1.2
	v-3.7c0-0.8,0.199-1.3,0.5-1.7c0.3-0.4,0.8-0.5,1.3-0.5c0.2,0,0.5,0,0.7,0.2c0.3,0.2,0.5,0.3,0.5,0.7c0.199,0.2,0.199,0.5,0.199,1v4
	h1.2v-4c0-0.7,0-1-0.2-1.2C92.7,11.9,92.5,11.5,92.3,11.4z"/>
<linearGradient id="SVGID_14_" gradientUnits="userSpaceOnUse" x1="28.3457" y1="11.5991" x2="100.0161" y2="11.5991" gradientTransform="matrix(1 0 0 -1 -0.0151 25.6992)">
	<stop  offset="0" style="stop-color:#22E221"/>
	<stop  offset="0.4815" style="stop-color:#29CB87"/>
	<stop  offset="1" style="stop-color:#31B7E4"/>
</linearGradient>
<path fill="url(#SVGID_14_)" d="M73.7,10.7v6.7h1.2v-3.5c0-0.5,0.199-1,0.199-1.3c0.2-0.3,0.301-0.5,0.7-0.7
	c0.2-0.2,0.5-0.3,0.8-0.3c0.5,0,0.7,0.2,1,0.3c0.2,0.3,0.2,0.7,0.2,1.2v4.4H79v-3.9c0-0.7,0.2-1.2,0.5-1.5c0.3-0.3,0.7-0.5,1.2-0.5
	c0.2,0,0.5,0,0.7,0.2c0.199,0.2,0.3,0.3,0.3,0.5c0.2,0.2,0.2,0.5,0.2,1v4.2H83.1V13c0-0.8-0.199-1.3-0.5-1.8
	c-0.3-0.3-1-0.5-1.699-0.5c-0.801,0-1.5,0.3-2,1.2c-0.2-0.3-0.301-0.7-0.7-0.8c-0.4-0.1-0.7-0.3-1.2-0.3s-0.8,0.2-1.2,0.3
	c-0.5,0.2-0.7,0.5-0.8,0.8v-1h-1.3V10.7z"/>
</svg>
