<?xml version="1.0" encoding="utf-8"?>
<!-- Generator: Adobe Illustrator 16.0.0, SVG Export Plug-In . SVG Version: 6.00 Build 0)  -->
<!DOCTYPE svg PUBLIC "-//W3C//DTD SVG 1.1//EN" "http://www.w3.org/Graphics/SVG/1.1/DTD/svg11.dtd">
<svg version="1.1" id="Слой_1" xmlns="http://www.w3.org/2000/svg" xmlns:xlink="http://www.w3.org/1999/xlink" x="0px" y="0px"
	 width="100px" height="26px" viewBox="0 0 100 26" enable-background="new 0 0 100 26" xml:space="preserve">
<title>2078A927-5AE6-4B40-83A7-465954C53180</title>
<desc>Created with sketchtool.</desc>
<g id="Icons">
	<g id="Artboard" transform="translate(-88.000000, -219.000000)">
		<g id="Group-4" transform="translate(88.000000, 219.000000)">
			<path id="Shape" fill="#707479" d="M95.334,13.898c0,1.006,0.166,1.678,0.5,2.013c0.332,0.335,0.666,0.671,1.332,0.671
				c0.5,0,0.834-0.336,1.168-0.671c0.5-0.335,0.666-1.007,0.666-1.846s-0.166-1.51-0.666-1.846C98,11.716,97.666,11.549,97,11.549
				c-0.5,0-0.834,0.167-1.166,0.503C95.5,12.556,95.334,13.227,95.334,13.898z M94.334,18.092H95.5c0,0.504,0.166,0.672,0.334,0.84
				C96.166,19.1,96.5,19.268,97,19.268s0.834-0.168,1.166-0.336c0.334-0.168,0.5-0.504,0.668-0.84v-1.51
				c-0.5,0.504-1.168,0.84-1.834,0.84c-1,0-1.666-0.336-2.166-1.008c-0.5-0.67-0.668-1.51-0.668-2.349c0-0.671,0-1.174,0.334-1.846
				c0.166-0.503,0.5-0.839,1-1.174c0.334-0.335,0.834-0.503,1.5-0.503c0.834,0,1.5,0.335,2,1.007V10.71h1v5.872
				c0,1.007-0.166,1.678-0.334,2.182c-0.166,0.504-0.5,0.839-1,1.006c-0.5,0.336-1,0.336-1.666,0.336c-0.834,0-1.5-0.168-2-0.503
				S94.334,18.764,94.334,18.092z M87.334,17.422V10.71h1v1.006c0.5-0.839,1.166-1.174,2.166-1.174c0.334,0,0.834,0.168,1.166,0.168
				c0.334,0.167,0.5,0.335,0.668,0.671c0.166,0.168,0.332,0.503,0.332,0.839c0.168,0.168,0.168,0.503,0.168,1.175v4.027h-1.168
				v-4.027c0-0.503,0-0.839-0.166-1.007c0-0.335-0.166-0.503-0.5-0.671c-0.166-0.167-0.5-0.167-0.666-0.167
				c-0.5,0-1,0.167-1.334,0.503c-0.334,0.335-0.5,0.839-0.5,1.678v3.691H87.334z M84.5,17.422V10.71h1.166v6.712H84.5z M84.5,9.368
				V8.193h1.166v1.175H84.5z M73.666,17.422V10.71h1.168v1.006c0.166-0.335,0.332-0.671,0.832-0.839
				c0.334-0.167,0.668-0.335,1.168-0.335S77.666,10.71,78,10.877c0.334,0.168,0.5,0.503,0.666,0.839c0.5-0.839,1.168-1.174,2-1.174
				c0.668,0,1.334,0.168,1.668,0.503c0.332,0.503,0.5,1.007,0.5,1.846v4.531h-1.168v-4.195c0-0.503,0-0.839-0.166-1.007
				c0-0.167-0.166-0.335-0.334-0.503c-0.166-0.167-0.5-0.167-0.666-0.167c-0.5,0-0.834,0.167-1.166,0.503
				c-0.334,0.335-0.5,0.839-0.5,1.51v3.859h-1.168v-4.363c0-0.503,0-0.839-0.166-1.175c-0.334-0.168-0.5-0.335-1-0.335
				c-0.334,0-0.666,0.167-0.834,0.335c-0.332,0.168-0.5,0.335-0.666,0.671c0,0.335-0.166,0.839-0.166,1.343v3.523H73.666z
				 M60.5,13.898c0,1.006,0.166,1.678,0.5,2.013s0.834,0.671,1.334,0.671s1-0.336,1.332-0.671c0.334-0.335,0.5-1.007,0.5-1.846
				s-0.166-1.51-0.5-1.846c-0.5-0.503-0.832-0.671-1.332-0.671s-1,0.167-1.334,0.503C60.666,12.556,60.5,13.227,60.5,13.898z
				 M59.5,18.092h1.166c0,0.504,0.168,0.672,0.334,0.84c0.334,0.168,0.666,0.336,1.166,0.336s1-0.168,1.168-0.336
				c0.332-0.168,0.5-0.504,0.666-0.84v-1.51c-0.5,0.504-1,0.84-1.834,0.84c-0.832,0-1.666-0.336-2.166-1.008
				c-0.5-0.67-0.666-1.51-0.666-2.349c0-0.671,0.166-1.174,0.332-1.846c0.168-0.503,0.5-0.839,1-1.174s1-0.503,1.5-0.503
				c0.834,0,1.5,0.335,2,1.007V10.71h1v5.872c0,1.007,0,1.678-0.332,2.182c-0.168,0.504-0.5,0.839-1,1.006
				c-0.334,0.336-1,0.336-1.668,0.336c-0.832,0-1.5-0.168-1.832-0.503C59.834,19.268,59.5,18.764,59.5,18.092z M53.334,14.065
				c0,0.839,0.166,1.511,0.5,2.014c0.332,0.335,0.832,0.503,1.5,0.503c0.5,0,1-0.168,1.332-0.503
				c0.334-0.503,0.668-1.175,0.668-2.014S57,12.556,56.666,12.22c-0.332-0.503-0.832-0.671-1.332-0.671
				c-0.668,0-1.168,0.167-1.5,0.671C53.5,12.556,53.334,13.227,53.334,14.065z M52.166,14.065c0-1.174,0.334-2.181,1-2.685
				c0.668-0.503,1.334-0.839,2.168-0.839c0.832,0,1.666,0.335,2.166,1.007c0.666,0.503,1,1.342,1,2.517
				c0,0.839-0.166,1.511-0.5,2.014c-0.166,0.503-0.666,0.839-1.166,1.175c-0.5,0.168-1,0.335-1.5,0.335
				c-1,0-1.668-0.335-2.334-0.839C52.5,16.079,52.166,15.24,52.166,14.065z M48.333,17.422V10.71h1v1.006
				c0.167-0.503,0.5-0.839,0.667-0.839c0.167-0.167,0.5-0.335,0.666-0.335c0.5,0,0.834,0.168,1.168,0.335L51.5,12.052
				c-0.334-0.168-0.5-0.336-0.834-0.336c-0.166,0-0.5,0.168-0.666,0.336c-0.167,0-0.333,0.335-0.5,0.503
				c0,0.503-0.167,0.839-0.167,1.343v3.523H48.333z M46.167,14.904l1.167,0.168c-0.167,0.839-0.5,1.51-1,1.846
				c-0.5,0.504-1.167,0.671-1.833,0.671c-0.833,0-1.667-0.335-2.167-0.839c-0.5-0.671-0.833-1.51-0.833-2.685
				c0-0.671,0.167-1.342,0.333-1.846C42,11.716,42.5,11.213,43,11.045c0.5-0.335,1-0.503,1.5-0.503c0.833,0,1.333,0.168,1.833,0.503
				c0.5,0.503,0.667,1.007,0.833,1.678l-1,0.168C46,12.388,45.833,12.052,45.5,11.884c-0.167-0.335-0.5-0.335-1-0.335
				s-1,0.167-1.333,0.503c-0.333,0.503-0.5,1.174-0.5,2.013s0.167,1.511,0.5,2.014C43.5,16.414,44,16.582,44.5,16.582
				s0.833,0,1.167-0.336C46,15.911,46.167,15.576,46.167,14.904z M39,17.422V10.71h1v6.712H39z M39,9.368V8.193h1v1.175H39z
				 M28.333,17.422V8.193h1.833l2.167,6.543c0.167,0.672,0.333,1.008,0.5,1.343c0-0.335,0.167-0.839,0.5-1.511L35.5,8.193h1.667
				v9.229H36V9.703l-2.833,7.719h-1L29.5,9.535v7.887H28.333z M67.5,13.898c0,1.006,0.166,1.678,0.5,2.013s0.834,0.671,1.334,0.671
				s0.832-0.336,1.332-0.671c0.334-0.335,0.5-1.007,0.5-1.846S71,12.556,70.5,12.22c-0.334-0.503-0.666-0.671-1.166-0.671
				s-1,0.167-1.334,0.503C67.666,12.556,67.5,13.227,67.5,13.898z M71.166,16.582c-0.166,0.168-0.832,0.672-1.5,0.84h-0.5
				c-0.832,0-1.666-0.336-2.166-1.008c-0.5-0.67-0.666-1.51-0.666-2.349c0-0.671,0-1.174,0.332-1.846c0.168-0.503,0.5-0.839,1-1.174
				c0.334-0.335,1-0.503,1.5-0.503c0.834,0,1.5,0.335,2,1.007V10.71h1v5.872c0.168,0.336,0.168,0.672,0.334,0.84h-1.166
				C71.166,17.254,71.166,16.918,71.166,16.582z M12.5,0.643c6.833,0,12.333,5.537,12.333,12.584c0,6.879-5.5,12.416-12.333,12.416
				c-4.5,0-8.167-2.182-10.5-5.705c2.167-3.02,4.167-6.375,6-9.899c0,0-0.5,11.075,3.333,11.242c3,0.671,6.833-8.725,6.833-8.725
				c-0.333,0,2.833,5.536,3.667,5.033c0.333-0.167-0.5-1.343-1.167-2.853c-0.667-1.51-1-3.523-1.167-4.362
				c-0.167-1.343,0-1.846-1-2.014c-0.833-0.168-1.167,0.503-1.667,1.678c-1.5,3.356-4.333,9.229-5.333,9.061
				C10,18.764,10.333,6.18,10.333,5.173c0.167-1.006,0-1.51-0.667-1.846c-1.167,0-1.667,1.342-2,2.181
				c-2.5,4.363-4.833,8.39-7.167,11.41C0.167,15.744,0,14.4,0,13.227C0,6.18,5.5,0.643,12.5,0.643z"/>
		</g>
	</g>
</g>
</svg>
