<?xml version="1.0" encoding="utf-8"?>
<!-- Generator: Adobe Illustrator 16.0.0, SVG Export Plug-In . SVG Version: 6.00 Build 0)  -->
<!DOCTYPE svg PUBLIC "-//W3C//DTD SVG 1.1//EN" "http://www.w3.org/Graphics/SVG/1.1/DTD/svg11.dtd">
<svg version="1.1" id="Слой_1" xmlns="http://www.w3.org/2000/svg" xmlns:xlink="http://www.w3.org/1999/xlink" x="0px" y="0px"
	 width="100px" height="35.583px" viewBox="0 -2.417 100 35.583" enable-background="new 0 -2.417 100 35.583" xml:space="preserve"
	>
<title>A3A4862D-750E-4D27-A209-94F884C594BA</title>
<desc>Created with sketchtool.</desc>
<polygon fill="#77BD1F" points="52.406,-2.417 51.4,-2.417 51.4,32.852 52.406,32.852 52.406,26.045 65.246,26.045 65.246,21.947 
	55.385,21.947 55.385,17.229 63.814,17.229 63.814,13.092 55.385,13.092 55.385,8.489 65.246,8.489 65.246,4.352 52.406,4.352 "/>
<polygon fill="#FFFFFF" points="12.417,17.654 8.781,11.776 4.063,4.429 4.024,4.352 0.157,4.352 0.157,26.045 4.449,26.045 
	4.449,12.744 7.66,17.926 12.841,26.045 16.748,26.045 16.748,4.352 12.417,4.352 "/>
<polygon fill="#FFFFFF" points="19.185,26.045 33.376,26.045 33.376,21.947 23.477,21.947 23.477,17.229 31.946,17.229 
	31.946,13.092 23.477,13.092 23.477,8.489 33.376,8.489 33.376,4.352 19.185,4.352 "/>
<polygon fill="#FFFFFF" points="35.117,8.528 40.106,8.528 40.106,26.045 44.437,26.045 44.437,8.528 49.35,8.528 49.35,4.352 
	35.117,4.352 "/>
<polygon fill="#77BD1F" points="79.67,17.693 76.035,11.815 71.356,4.467 71.278,4.39 67.412,4.39 67.412,26.086 71.704,26.086 
	71.704,12.744 74.913,17.963 80.095,26.086 84.002,26.086 84.002,4.39 79.67,4.39 "/>
<polygon fill="#77BD1F" points="85.781,4.39 85.781,8.566 90.73,8.566 90.73,26.086 95.063,26.086 95.063,8.566 100.012,8.566 
	100.012,4.39 "/>
</svg>
