<?xml version="1.0" encoding="utf-8"?>
<!-- Generator: Adobe Illustrator 16.0.0, SVG Export Plug-In . SVG Version: 6.00 Build 0)  -->
<!DOCTYPE svg PUBLIC "-//W3C//DTD SVG 1.1//EN" "http://www.w3.org/Graphics/SVG/1.1/DTD/svg11.dtd">
<svg version="1.1" id="Слой_1" xmlns="http://www.w3.org/2000/svg" xmlns:xlink="http://www.w3.org/1999/xlink" x="0px" y="0px"
	 width="100px" height="51px" viewBox="0 0 100 51" enable-background="new 0 0 100 51" xml:space="preserve">
<title>B033D831-81FC-4E53-9F59-CC03FDDB2B56</title>
<desc>Created with sketchtool.</desc>
<g>
	<path fill="#D0C7AC" d="M5.4,44.2C5.2,44.1,5,44,4.7,44c-0.3,0-0.5-0.1-0.7,0c-0.3,0-0.4,0-0.6,0c-0.4,0-0.8,0.2-0.9,0.6H2.4
		c-0.3-0.1-0.5,0-0.6,0.101C1.4,45,1.1,45.4,0.7,46.1c-0.4,0.7-0.5,1.4-0.5,2.101c0,0.8,0.1,1.3,0.4,1.7c0.3,0.3,0.7,0.5,1.1,0.6
		c0.2,0,0.4,0.1,0.6,0.1c0.2,0,0.5,0,0.7,0s0.6,0,0.9-0.1c0.3-0.1,0.6-0.2,0.9-0.5c0.6-0.6,1.1-1.3,1.4-2.2c0.3-0.8,0.3-1.6,0.1-2.3
		C6.2,44.9,5.9,44.5,5.4,44.2z M3.8,48.3c-0.1,0.2-0.2,0.3-0.3,0.5C3.3,48.9,3.2,49,3,49.1c-0.2,0-0.4,0.101-0.7,0
		c-0.1-0.199-0.1-0.399,0-0.6c0.1-0.2,0.2-0.4,0.3-0.6c0,0,0.1,0,0.2-0.101c0.1-0.1,0.2-0.2,0.3-0.3s0.1-0.2,0.2-0.3
		c0.2,0,0.4,0,0.6-0.101C3.9,47.6,3.9,48,3.8,48.3z"/>
	<path fill="#D0C7AC" d="M27.3,43.9c-0.1-0.101-0.3-0.2-0.6-0.2c-0.3,0-0.6,0-0.9,0.1c-0.3,0.101-0.7,0.101-1,0.3
		c-0.3,0.101-0.6,0.2-0.8,0.4c-0.2,0.1-0.3,0.2-0.4,0.3c-0.4,0.4-0.6,0.7-0.6,1c0,0.101-0.1,0.3-0.1,0.4c0,0.1,0,0.3,0.1,0.399
		c0.1,0.301,0.2,0.5,0.4,0.601c0.1,0.2,0.4,0.399,0.7,0.5c0.1,0.1,0.3,0.1,0.4,0.2c0.1,0.1,0.3,0.1,0.4,0.199
		c-0.1,0.301-0.8,0.4-2.3,0.4c-0.1,0-0.2,0-0.2,0.1c0,0.101-0.1,0.101-0.1,0.2c0,0.101-0.1,0.101-0.1,0.2s-0.1,0.1-0.2,0.1
		s-0.3,0-0.4,0c-0.1,0.101-0.2,0.2-0.2,0.301c-0.1,0.3,0,0.6,0.3,0.8c0.2,0.2,0.5,0.399,0.9,0.5c0.4,0.1,0.8,0.2,1.2,0.2
		c0.4,0,0.9-0.101,1.3-0.2c0.4-0.101,0.8-0.3,1.1-0.601c0.1-0.1,0.2-0.1,0.3-0.199C27,49.6,27.2,49.3,27.1,49
		c0.2-0.7,0.2-1.3-0.1-1.9c-0.2-0.399-0.7-0.8-1.3-1.3c0.1,0,0.1,0,0.1-0.1c0-0.101,0.3-0.2,1-0.3c0.5-0.101,0.8-0.4,0.9-0.801
		c0-0.199,0-0.3-0.1-0.5C27.6,44.2,27.5,44,27.3,43.9z"/>
	<path fill="#D0C7AC" d="M11.6,40.6c-0.1-0.1-0.1-0.199-0.2-0.3c-0.1-0.1-0.1-0.2-0.1-0.3c-0.4-0.1-0.8-0.1-1.1,0.2
		c-0.1,0.1-0.2,0.2-0.3,0.3s-0.1,0.2-0.2,0.3c-0.9,1.5-1.6,3.2-2.2,5C7.4,46.7,7.2,47.4,7,48s-0.3,1.2-0.4,1.6
		c-0.1,0.301,0,0.5,0.1,0.601c0.1,0,0.1,0.1,0.2,0.1S7,50.4,7.1,50.4c0,0.3,0.2,0.399,0.6,0.3c0.2,0,0.3-0.101,0.5-0.2
		c0.2-0.1,0.3-0.2,0.5-0.3C8.8,50.1,8.9,50,9,49.9C9.1,49.8,9.1,49.6,9.2,49.4C9.3,49.2,9.3,49,9.4,48.8c0-0.2,0.1-0.5,0.2-0.8
		c0.7-2.5,1.5-4.8,2.4-6.8C11.9,41,11.8,40.8,11.6,40.6z"/>
	<path fill="#D0C7AC" d="M18.5,41.2c0-0.101,0-0.2,0-0.3c0-0.101,0-0.2-0.1-0.301c-0.1-0.1-0.2-0.199-0.4-0.3
		c-0.4-0.2-0.8-0.1-1.2,0.101c-0.1,0.1-0.3,0.3-0.4,0.6c-0.4,0.9-0.8,2.1-1.2,3.8c0,0.2-0.1,0.3-0.1,0.5c0-0.3-0.3-0.399-0.7-0.5
		c-0.4-0.1-0.7,0-1,0.2c-0.7,0.3-1.4,0.9-1.9,1.8c-0.4,0.8-0.7,1.5-0.7,2.101c0,0.6,0.1,1,0.4,1.199c0.3,0.301,0.9,0.4,1.7,0.4
		c0.2,0,0.3,0,0.5-0.1c0.2-0.101,0.3-0.2,0.5-0.5c0,0.199,0,0.3,0.1,0.399c0,0,0,0,0.1,0c0,0,0.1,0,0.2,0V50.4
		c0.4,0.199,0.8,0.3,1.3,0.1c0.2-0.1,0.4-0.2,0.5-0.3c0.1-0.101,0.2-0.3,0.2-0.4c0.1-0.6,0.2-1.2,0.5-1.899c0.3-0.7,0.5-1.301,0.8-2
		c0.3-0.7,0.6-1.4,0.8-2.101c0.3-0.7,0.5-1.399,0.7-2c0-0.1,0-0.2-0.2-0.399C18.5,41.4,18.5,41.3,18.5,41.2z M14.1,47.7
		C14,47.9,14,48.1,13.9,48.3s-0.1,0.3-0.2,0.4c-0.1,0.2-0.3,0.3-0.5,0.2C13.1,48.8,13,48.6,13.1,48.4c0-0.2,0.1-0.4,0.2-0.601
		c0.1-0.2,0.2-0.3,0.4-0.399c0.2-0.101,0.3-0.101,0.5,0L14.1,47.7z"/>
	<path fill="#88171A" d="M42.8,25.6c-1.3-0.9-2.6-1-3.8-0.3c0-1.5-0.8-2.3-2.4-2.3c-0.1,3.9,4.8,11.2,12.9,11.2
		c8,0,12.3-6.5,12.8-10.9c-1.6-0.4-2.399,0.2-2.399,2c-1.2-0.6-2.301-0.5-3.4,0.3c-1.1,0.7-1.6,2.1-1.5,4
		c-0.9-0.899-1.9-1.1-2.8-0.8c-0.9,0.4-1.5,1.101-1.8,2.4c-0.3-1.3-1-1.9-2-1.9s-1.7,0.4-2.1,1.101c0-0.5-0.3-0.9-0.9-1.101
		s-1-0.1-1.4,0.3C44.4,27.8,44.1,26.4,42.8,25.6z"/>
	<path fill="#D0C7AC" d="M53.1,20.6c0.5,0.5,1,1.3,0.4,3.5c2.7-2.2,3.3-4.1,3.3-6.1S56,15,54.4,14.8l-2,5.2
		C52.7,20.2,52.9,20.5,53.1,20.6z"/>
	<path fill="#D0C7AC" d="M41.9,18c0,2,0.6,3.9,3.3,6.1c-0.6-2.2-0.2-3,0.4-3.5c0.2-0.2,0.4-0.4,0.7-0.6l-2-5.2
		C42.7,15,41.9,16.1,41.9,18z"/>
	<path fill="#88171A" d="M49.2,26c-0.3,0-1.4-1.1-1.6-2.4c-0.1-0.6,0-1.1,0.1-1.3c-0.8,0.7-1.2,1.5-1.2,2.6s0.9,2.3,2.8,3.5
		C51.1,27,51.9,25.8,51.9,24.9s-0.4-1.8-1.2-2.6c0,0.4,0,1,0,1.6C50.8,25.1,49.5,26,49.2,26z"/>
	<path fill="#D0C7AC" d="M49.4,4c1.1-0.1,2.3-0.3,3.3-0.5c-0.9-1.2-2-2.4-3.3-3.5c-1.4,1.1-2.5,2.3-3.3,3.5C47,3.8,48.2,4.1,49.4,4z
		"/>
	<path fill="#D0C7AC" d="M43.9,13.1c0.1,0.6,0.2,1.2,0.4,1.8L43.9,13.1z"/>
	<path fill="#D0C7AC" d="M76.4,44.2C76.3,44.1,76.2,44,76.1,43.9C76,43.8,75.8,43.8,75.6,43.7c-0.199-0.101-0.3,0-0.399,0.1
		C75.1,43.9,74.9,43.9,74.8,43.9c-0.1,0-0.3,0-0.399,0c-0.101,0-0.301,0-0.4,0.1c-0.1,0-0.2,0.1-0.3,0.3L73.3,44.9l-0.2,0.3
		c-0.199,0.3-0.3,0.6-0.5,0.8c-0.5,0.9-1.1,1.6-1.899,2.1c0.1-0.5,0.3-1,0.5-1.399c0.2-0.5,0.399-0.9,0.7-1.3
		c0.1-0.301,0.1-0.5,0-0.7c-0.101-0.2-0.301-0.4-0.5-0.5C71.2,44.1,70.9,44.1,70.6,44.1c-0.3,0-0.5,0.2-0.8,0.4
		c-1.1,1.7-1.6,3.2-1.5,4.5c0,0.4,0.101,0.7,0.4,0.9c0.2,0.199,0.5,0.399,0.8,0.399s0.7,0.101,1,0c0.3,0,0.6-0.2,0.9-0.3
		c0.3-0.1,0.5-0.3,0.699-0.5C72,49.7,72,49.9,72.2,50.1c0.2,0.2,0.399,0.2,0.7,0.301c0.3,0,0.6,0,0.899-0.101
		c0.3-0.1,0.601-0.3,0.8-0.5c0.101-0.3,0.301-0.7,0.4-1.1c0.6-2,1.1-3.4,1.4-4.101C76.5,44.5,76.5,44.4,76.4,44.2z"/>
	<path fill="#D0C7AC" d="M33.9,45.1c-0.1,0-0.3-0.1-0.5-0.1c-0.2,0-0.6,0.1-1.2,0.2c-0.1,0-0.2,0-0.3,0.1c-0.1,0-0.2,0-0.3,0.101
		c0.1-0.301,0.3-0.601,0.5-0.9c0.2-0.4,0.4-0.7,0.6-1c0.5-0.8,0.7-1.2,0.6-1.4c0-0.1,0-0.199-0.1-0.3c-0.1-0.1-0.1-0.2-0.2-0.3
		l0.1-0.4c0-0.3-0.1-0.5-0.3-0.699c-0.2-0.2-0.4-0.4-0.6-0.5C32,39.8,31.7,39.8,31.5,39.8c-0.3,0-0.5,0.101-0.7,0.4
		c-0.2,0.6-0.4,1.2-0.6,1.8c-0.2,0.6-0.4,1.1-0.5,1.6c-0.1,0.5-0.3,1-0.5,1.7c-0.1,0.4-0.2,0.7-0.2,1c-0.1,0-0.3,0.101-0.6,0.2
		c-0.2,0.2-0.3,0.5-0.2,0.8c0,0.3,0.2,0.5,0.4,0.7c0,0,0,0.2-0.1,0.5s-0.2,0.7-0.4,1.1c0,0.101-0.1,0.2-0.1,0.301
		c0,0.1,0,0.199,0.1,0.399c0,0.101,0.1,0.2,0.3,0.3c0.2,0.101,0.3,0.101,0.5,0.101c0.5,0,0.7-0.101,0.9-0.4c0.1-0.3,0.2-0.6,0.3-0.8
		s0.2-0.6,0.2-0.8c0.7,0.8,1.3,1.3,1.8,1.5c0.4,0.1,0.6,0.2,0.8,0.1c0.2-0.1,0.3-0.2,0.4-0.3c0.1-0.1,0.1-0.3,0.1-0.5
		s-0.1-0.3-0.2-0.4c-0.3-0.3-0.5-0.5-0.9-0.6c-0.1-0.1-0.3-0.1-0.5-0.2c-0.2-0.1-0.3-0.1-0.3-0.2l0,0c0-0.1,0.1-0.199,0.1-0.3
		l1.1-0.8c0.1-0.1,0.2-0.2,0.4-0.3c0.7-0.5,1.2-0.9,1.3-1.101C34.5,45.5,34.3,45.3,33.9,45.1z"/>
	<path fill="#D0C7AC" d="M99.9,44.3C99.8,44.1,99.7,44,99.6,43.9c-0.1-0.101-0.3-0.2-0.6-0.2s-0.6,0-0.9,0.1
		c-0.3,0.101-0.699,0.101-1,0.3c-0.3,0.101-0.6,0.2-0.8,0.4S96,44.7,95.9,44.8c-0.4,0.4-0.601,0.7-0.601,1c0,0.101-0.1,0.3-0.1,0.4
		c0,0.1,0,0.3,0.1,0.399c0.101,0.301,0.2,0.5,0.4,0.601c0.1,0.2,0.399,0.399,0.7,0.5c0.1,0.1,0.3,0.1,0.399,0.2
		C96.9,48,97.1,48,97.2,48.1c-0.101,0.301-0.8,0.4-2.3,0.4c-0.101,0-0.2,0-0.2,0.1c0,0.101-0.101,0.101-0.101,0.2
		c0,0.101-0.1,0.101-0.1,0.2s-0.1,0.1-0.2,0.1c-0.1,0-0.3,0-0.399,0C93.8,49.2,93.7,49.3,93.7,49.4c-0.101,0.3,0,0.6,0.3,0.8
		c0.2,0.2,0.5,0.399,0.9,0.5c0.399,0.1,0.8,0.2,1.199,0.2c0.4,0,0.9-0.101,1.301-0.2c0.399-0.101,0.8-0.3,1.1-0.601
		c0.1-0.1,0.2-0.1,0.3-0.199C99.3,49.6,99.5,49.3,99.4,49c0.199-0.7,0.199-1.3-0.101-1.9c-0.2-0.399-0.7-0.8-1.3-1.3
		c0.1,0,0.1,0,0.1-0.1c0-0.101,0.301-0.2,1-0.3C99.6,45.3,99.9,45,100,44.6C100,44.7,100,44.5,99.9,44.3z"/>
	<path fill="#D0C7AC" d="M93.7,45.4c-0.101-0.5-0.4-0.9-0.9-1.101C92.6,44.1,92.3,44,92,44s-0.5-0.1-0.7,0c-0.2,0-0.399,0.1-0.5,0.1
		C90.4,44.1,90,44.3,89.9,44.7H89.8c-0.3-0.101-0.5,0-0.6,0.1c-0.4,0.3-0.7,0.7-1.101,1.4c-0.3,0.7-0.5,1.399-0.5,2.1
		c0,0.8,0.101,1.3,0.4,1.7c0.3,0.3,0.7,0.5,1.1,0.6c0.2,0,0.4,0.101,0.601,0.101s0.5,0,0.7,0c0.199,0,0.6,0,0.899-0.101
		c0.3-0.1,0.601-0.199,0.9-0.5c0.6-0.6,1.1-1.3,1.399-2.199C93.8,46.9,93.9,46.1,93.7,45.4z M91.1,48.3c-0.1,0.2-0.199,0.3-0.3,0.5
		C90.7,48.9,90.5,49,90.4,49.1c-0.2,0-0.4,0.101-0.7,0C89.6,48.9,89.6,48.7,89.7,48.5c0.1-0.2,0.2-0.4,0.3-0.6c0,0,0.1,0,0.2-0.101
		c0.1-0.1,0.2-0.2,0.3-0.3s0.1-0.2,0.2-0.3c0.2,0,0.399,0,0.6-0.101C91.3,47.6,91.3,48,91.1,48.3z"/>
	<path fill="#D0C7AC" d="M87.8,42.2c0.101-0.2,0.101-0.4,0-0.601c-0.1-0.199-0.3-0.3-0.5-0.399c-0.1,0-0.2,0-0.3,0s-0.2,0-0.4,0
		c-0.399,0.1-0.6,0.2-0.8,0.5c-0.2,0.2-0.2,0.399-0.2,0.6s0.2,0.3,0.4,0.5s0.6,0.2,1,0.101C87.5,42.6,87.7,42.4,87.8,42.2z"/>
	<path fill="#D0C7AC" d="M86.5,44.1c-0.3-0.1-0.7-0.1-1.1,0C85,44.2,84.7,44.4,84.6,44.6C84.4,45,84.1,45.5,83.9,46.1
		c-0.5,1.4-0.9,2.5-1,3.4C82.8,50,82.8,50.3,83,50.6c0.1,0.101,0.2,0.2,0.4,0.301C83.5,51,83.7,51,83.8,51c0.101,0,0.3,0,0.4-0.1
		c0.1,0,0.2-0.101,0.2-0.2c0-0.101,0.199-0.101,0.3-0.101c0.1,0,0.2,0,0.2,0c0.3-0.1,0.5-0.5,0.6-1.199c0-0.5,0.2-1.2,0.6-2.301
		C86.2,46.7,86.4,46.2,86.5,45.8c0.1-0.399,0.2-0.8,0.3-1C87,44.4,86.9,44.2,86.5,44.1z"/>
	<path fill="#D0C7AC" d="M84.2,41.8c0-0.1,0-0.2-0.2-0.399c0-0.101-0.1-0.101-0.1-0.2c0-0.101,0-0.2,0-0.3
		c0-0.101,0-0.2-0.101-0.301c-0.1-0.1-0.2-0.199-0.399-0.3C83,40.1,82.6,40.2,82.2,40.4c-0.101,0.1-0.3,0.3-0.4,0.6
		c-0.399,0.9-0.8,2.1-1.2,3.8c0,0.2-0.1,0.3-0.1,0.5c0-0.3-0.3-0.399-0.7-0.5c-0.399-0.1-0.7,0-1,0.2c-0.7,0.3-1.399,0.9-1.899,1.8
		c-0.4,0.8-0.7,1.5-0.7,2.101c0,0.6,0.1,1,0.399,1.199c0.301,0.301,0.9,0.4,1.7,0.4c0.2,0,0.3,0,0.5-0.1c0.2-0.101,0.3-0.2,0.5-0.5
		c0,0.199,0,0.3,0.101,0.399c0,0,0,0,0.1,0c0,0,0.1,0,0.2,0V50.4c0.399,0.199,0.8,0.3,1.3,0.1c0.2-0.1,0.4-0.2,0.5-0.3
		c0.1-0.101,0.2-0.3,0.2-0.4c0.1-0.6,0.2-1.2,0.5-1.899c0.3-0.7,0.5-1.301,0.8-2c0.3-0.7,0.6-1.4,0.8-2.101
		C83.8,43.1,84,42.5,84.2,41.8z M79.5,47.7c-0.1,0.2-0.1,0.399-0.2,0.6c-0.1,0.2-0.1,0.3-0.2,0.4c-0.1,0.2-0.3,0.3-0.5,0.2
		C78.5,48.8,78.4,48.6,78.5,48.4c0-0.2,0.1-0.4,0.2-0.601c0.1-0.2,0.2-0.3,0.399-0.399c0.2-0.101,0.301-0.101,0.5,0L79.5,47.7z"/>
	<path fill="#D0C7AC" d="M46.7,44.2C46.5,44.1,46.3,44,46,44s-0.5-0.1-0.7,0c-0.3,0-0.4,0-0.6,0c-0.4,0-0.8,0.2-0.9,0.6h-0.1
		c-0.3-0.1-0.5,0-0.6,0.101C42.7,45,42.4,45.4,42,46.1c-0.3,0.7-0.5,1.4-0.5,2.101c0,0.8,0.1,1.3,0.4,1.7c0.3,0.3,0.7,0.5,1.1,0.6
		c0.2,0,0.4,0.1,0.6,0.1c0.2,0,0.5,0,0.7,0c0.2,0,0.6,0,0.9-0.1c0.3-0.1,0.6-0.2,0.9-0.5c0.6-0.6,1.1-1.3,1.4-2.2
		c0.3-0.8,0.3-1.6,0.1-2.3C47.5,44.9,47.2,44.5,46.7,44.2z M45,48.3c-0.1,0.2-0.2,0.3-0.3,0.5c-0.1,0.101-0.3,0.2-0.4,0.3
		c-0.2,0-0.4,0.101-0.7,0c-0.1-0.199-0.1-0.399,0-0.6s0.2-0.4,0.3-0.6c0,0,0.1,0,0.2-0.101c0.1-0.1,0.2-0.2,0.3-0.3s0.1-0.2,0.2-0.3
		c0.2,0,0.4,0,0.6-0.101C45.2,47.6,45.2,48,45,48.3z"/>
	<path fill="#D0C7AC" d="M40,44.2c-0.2-0.101-0.5-0.2-0.8-0.3c-0.3,0-0.5-0.101-0.7,0C38.3,44,38.1,44,38,44c-0.4,0-0.8,0.2-0.9,0.6
		H37c-0.3-0.1-0.5,0-0.6,0.101C36,45,35.7,45.4,35.3,46.1c-0.3,0.7-0.5,1.4-0.5,2.101c0,0.8,0.1,1.3,0.4,1.7
		c0.3,0.3,0.7,0.5,1.1,0.6c0.2,0,0.4,0.1,0.6,0.1c0.2,0,0.5,0,0.7,0c0.2,0,0.6,0,0.9-0.1s0.6-0.2,0.9-0.5c0.6-0.6,1.1-1.3,1.4-2.2
		c0.3-0.8,0.3-1.6,0.1-2.3C40.7,44.9,40.5,44.5,40,44.2z M38.3,48.3c-0.1,0.2-0.2,0.3-0.3,0.5c-0.1,0.101-0.3,0.2-0.4,0.3
		c-0.2,0-0.4,0.101-0.7,0c-0.1-0.199-0.1-0.399,0-0.6s0.2-0.4,0.3-0.6c0,0,0.1,0,0.2-0.101c0.1-0.1,0.2-0.2,0.3-0.3
		c0.1-0.1,0.1-0.2,0.2-0.3c0.2,0,0.4,0,0.6-0.101C38.5,47.6,38.4,48,38.3,48.3z"/>
	<path fill="#D0C7AC" d="M52.7,40.4C52.6,40.3,52.6,40.2,52.6,40.1C52.2,40,51.8,40,51.5,40.3c-0.1,0.101-0.2,0.2-0.3,0.3
		C51.1,40.7,51.1,40.8,51,40.9c-0.9,1.5-1.6,3.199-2.2,5c-0.2,0.8-0.4,1.5-0.6,2.1c-0.2,0.6-0.3,1.2-0.4,1.6
		c-0.1,0.301,0,0.5,0.1,0.601c0.1,0,0.1,0.1,0.2,0.1s0.1,0.101,0.2,0.101c0,0.3,0.2,0.399,0.6,0.3c0.2,0,0.3-0.101,0.5-0.2
		c0.2-0.1,0.3-0.2,0.5-0.3c0.1-0.101,0.2-0.2,0.3-0.4c0.1-0.2,0.1-0.3,0.2-0.5s0.1-0.399,0.2-0.6c0.101-0.2,0.101-0.5,0.2-0.8
		c0.7-2.5,1.5-4.801,2.4-6.801c0-0.199-0.101-0.399-0.3-0.6C52.8,40.5,52.8,40.5,52.7,40.4z"/>
	<path fill="#D0C7AC" d="M70.9,31.2L70.9,31.2c1.199,0,2.199-1,2.199-2.2s-1-2.2-2.199-2.2l0,0H66.8c0.3-0.9,0.5-1.8,0.601-2.7h13.3
		l0,0c1.2,0,2.2-1,2.2-2.2c0-1.2-1-2.2-2.2-2.2l0,0H67.5c-0.1-0.8-0.2-1.6-0.4-2.4H88l0,0c1.2,0,2.2-1,2.2-2.2c0-1.2-1-2.2-2.2-2.2
		l0,0H65.6c-0.399-0.9-1-1.7-1.5-2.4h32.5l0,0c1.2,0,2.2-1,2.2-2.2c0-1.2-1-2.2-2.2-2.2l0,0H59.5L59.4,6v0.1c-0.101,0-0.2,0-0.301,0
		l0,0c-1.199,0-2.199,1-2.199,2.2c0,0.9,0.6,1.7,1.399,2c3.2,2.6,5.2,6.5,5.2,10.9c0,7.7-6.3,14-14,14h-0.3c-7.7,0-14-6.3-14-14
		c0-4.4,2-8.3,5.2-10.9c0.8-0.3,1.4-1.1,1.4-2c0-1.2-1-2.2-2.2-2.2l0,0c-0.1,0-0.2,0-0.3,0v0.1l-0.1,0.1h-37l0,0C1,6.3,0,7.2,0,8.4
		c0,1.2,1,2.2,2.2,2.2l0,0h32.5c-0.6,0.8-1.1,1.6-1.5,2.4H10.7l0,0c-1.2,0-2.2,1-2.2,2.2c0,1.2,1,2.2,2.2,2.2l0,0h20.9
		c-0.2,0.8-0.3,1.6-0.4,2.4H18.1l0,0c-1.2,0-2.2,1-2.2,2.2s1,2.2,2.2,2.2l0,0h13.3c0.1,0.9,0.4,1.8,0.6,2.7h-4.1l0,0
		c-1.2,0-2.2,1-2.2,2.199c0,1.2,1,2.2,2.2,2.2l0,0h6.2c3.2,4.9,8.8,8.101,15.1,8.101h0.3c6.3,0,11.8-3.2,15.1-8.101H70.9V31.2z"/>
	<path fill="#D0C7AC" d="M68.8,44.5c0.101-0.1,0.2-0.2,0.2-0.4c0-0.1,0-0.3,0-0.399c0-0.101-0.1-0.2-0.3-0.3
		C68.5,43.3,68.4,43.3,68.3,43.3h-0.2c-0.1,0-0.1,0-0.199,0c-0.101,0-0.301,0-0.4,0h-0.1c0,0-0.101,0-0.2,0l0.1-0.1
		c0,0,0.101-0.101,0.101-0.2l0.399-0.8C67.9,42,67.9,41.9,68,41.8c0.1-0.1,0.1-0.2,0.1-0.3s0.101-0.2,0.101-0.3
		c0-0.101,0.1-0.2,0.1-0.4c0.101-0.2,0-0.399-0.1-0.6c-0.101-0.2-0.3-0.3-0.4-0.4c-0.2-0.1-0.399-0.2-0.5-0.2
		c-0.1,0-0.3,0-0.399,0.2C66.8,39.9,66.6,40,66.5,40s-0.2,0-0.2,0.1c-0.1,0-0.2,0.2-0.3,0.4v0.2l0,0c-0.3,0.399-0.5,0.899-0.7,1.5
		c-0.1,0.3-0.1,0.5-0.2,0.7c0,0.199-0.1,0.5-0.1,0.699c-0.1,0-0.2,0-0.2,0l0,0c0,0-0.1,0-0.3,0.101c-0.2,0-0.4,0.1-0.6,0.2
		C63.8,43.9,63.6,44,63.3,44.1C63.1,44.2,62.9,44.3,62.9,44.5C62.8,44.7,62.8,44.8,62.8,45c0,0.1,0.101,0.3,0.2,0.4
		c0.1,0.1,0.2,0.199,0.4,0.199l0,0c0.199,0,0.3,0,0.399-0.1c0.101,0,0.2,0,0.3,0c-0.5,1.7-0.8,3.2-0.899,4.6c0,0.101,0,0.2,0,0.301
		c0,0.1,0.2,0.199,0.399,0.3c0.2,0.1,0.4,0.2,0.7,0.2c0,0,0,0,0.101,0c0.1,0,0.1,0,0.199-0.101c0.2-0.1,0.5-0.7,0.9-1.899
		c0.1-0.301,0.2-0.7,0.4-1.101c0.1-0.399,0.199-0.7,0.3-1.1c0.1-0.3,0.2-0.7,0.3-1s0.2-0.5,0.3-0.7l0,0l0.101-0.1
		c0.3,0,0.8-0.101,1.5-0.301C68.6,44.7,68.7,44.6,68.8,44.5z"/>
	<path fill="#D0C7AC" d="M61.7,43.9C61.6,43.8,61.4,43.7,61.1,43.7c-0.3,0-0.6,0-0.899,0.1c-0.3,0.101-0.7,0.101-1,0.3
		c-0.3,0.101-0.601,0.2-0.8,0.4c-0.2,0.1-0.301,0.2-0.4,0.3c-0.4,0.4-0.6,0.7-0.6,1c0,0.101-0.101,0.3-0.101,0.4
		c0,0.1,0,0.3,0.101,0.399C57.5,46.9,57.6,47.1,57.8,47.2c0.101,0.2,0.4,0.399,0.7,0.5c0.1,0.1,0.3,0.1,0.4,0.2
		C59,48,59.2,48,59.3,48.1c-0.1,0.301-0.8,0.4-2.3,0.4c-0.1,0-0.2,0-0.2,0.1c0,0.101-0.1,0.101-0.1,0.2C56.7,48.9,56.6,48.9,56.6,49
		s-0.1,0.1-0.199,0.1c-0.101,0-0.301,0-0.4,0c-0.1,0.101-0.2,0.2-0.2,0.301c-0.1,0.3,0,0.6,0.3,0.8c0.2,0.2,0.5,0.399,0.9,0.5
		c0.4,0.1,0.8,0.2,1.2,0.2c0.399,0,0.899-0.101,1.3-0.2c0.4-0.101,0.8-0.3,1.1-0.601C60.7,50,60.8,50,60.9,49.9
		C61.4,49.6,61.6,49.3,61.5,49c0.2-0.7,0.2-1.3-0.1-1.9c-0.2-0.399-0.7-0.8-1.301-1.3c0.101,0,0.101,0,0.101-0.1
		c0-0.101,0.3-0.2,1-0.3C61.7,45.3,62,45,62.1,44.6c0-0.199,0-0.3-0.1-0.5C61.9,44.2,61.8,44,61.7,43.9z"/>
	<path fill="#D0C7AC" d="M49.2,9.5L49.2,9.5c1.1,0,1.899-0.8,1.899-1.9S50.3,5.7,49.2,5.7l0,0c-1,0-1.9,0.8-1.9,1.9
		S48.2,9.5,49.2,9.5z"/>
	<path fill="#D0C7AC" d="M49.3,11.4L49.3,11.4c-0.7,0-1.2,0.5-1.2,1.2c0,0.7,0.5,1.2,1.2,1.2l0,0c0.7,0,1.2-0.5,1.2-1.2
		C50.5,11.9,50,11.4,49.3,11.4z"/>
	<path fill="#88171A" d="M46.2,20c0.3,0.6,0.6,1.2,1,1.9h4c0.399-0.6,0.8-1.3,1.1-1.9l0,0l2-5.2c0.4-1.6,0.601-3.1,0.601-4.6
		c0-2.4-0.801-4.6-2.301-6.7C51.5,3.8,50.3,4,49.3,4c-1.2,0.1-2.4-0.2-3.3-0.5c-1.6,2.2-2.4,4.4-2.4,6.7c0,0.9,0.1,1.9,0.2,2.9
		l0.4,1.8L46.2,20z M49.3,13.8L49.3,13.8c-0.7,0-1.2-0.5-1.2-1.2c0-0.7,0.5-1.2,1.2-1.2l0,0c0.7,0,1.2,0.5,1.2,1.2
		C50.5,13.3,50,13.8,49.3,13.8z M49.2,5.7L49.2,5.7c1.1,0,1.899,0.8,1.899,1.9S50.3,9.5,49.2,9.5l0,0c-1,0-1.9-0.8-1.9-1.9
		S48.2,5.7,49.2,5.7z"/>
	<path fill="#3D4747" d="M48.3,7.6c0-0.6,0.3-1.2,0.8-1.5c-0.8,0-1.4,0.7-1.4,1.5c0,0.8,0.6,1.5,1.4,1.5C48.6,8.8,48.3,8.2,48.3,7.6
		z"/>
	<path fill="#3D4747" d="M48.8,12.6c0-0.3,0.1-0.5,0.3-0.7c-0.4,0-0.7,0.3-0.7,0.7s0.3,0.7,0.7,0.7C49,13.2,48.8,12.9,48.8,12.6z"/>
</g>
</svg>
