<?xml version="1.0" encoding="utf-8"?>
<!-- Generator: Adobe Illustrator 16.0.0, SVG Export Plug-In . SVG Version: 6.00 Build 0)  -->
<!DOCTYPE svg PUBLIC "-//W3C//DTD SVG 1.1//EN" "http://www.w3.org/Graphics/SVG/1.1/DTD/svg11.dtd">
<svg version="1.1" id="Слой_1" xmlns="http://www.w3.org/2000/svg" xmlns:xlink="http://www.w3.org/1999/xlink" x="0px" y="0px"
	 width="100px" height="24px" viewBox="0 0 100 24" enable-background="new 0 0 100 24" xml:space="preserve">
<title>810FA737-05F2-404F-8F9F-B18F45503ADC</title>
<desc>Created with sketchtool.</desc>
<g>
	<path fill="#5B6064" d="M39.5,13.6C39.3,13.9,39.2,14.2,39,14.5c-0.7,1.2-1.6,2.2-2.7,2.9C35,18.2,33.1,18.6,31.6,17.6
		c0,0.101-0.1,0.2-0.1,0.301C31.3,18.8,31,19.6,30.8,20.5c-0.1,0.2-0.1,0.4-0.1,0.6c0,0.5,0.2,0.7,0.7,0.801c0.2,0,0.5,0.1,0.7,0.1
		c0.1,0.5,0.1,0.5-0.4,0.5c-1.9,0-3.9,0-5.8,0c-0.2,0-0.4,0.1-0.4-0.2s0.1-0.399,0.3-0.399c0.7,0,1-0.4,1.2-1
		c0.2-0.9,0.5-1.7,0.7-2.601c0.2-0.8,0.5-1.7,0.7-2.5c0.5-2,1-4,1.5-6C30,9.7,30,9.5,30.1,9.3c0.2-0.7-0.1-1.1-0.8-1.1
		c-0.2,0-0.4,0-0.4-0.3c0-0.2,0.1-0.3,0.3-0.3c0.8-0.1,1.7-0.1,2.5-0.2c0.8-0.1,1.7-0.2,2.6-0.4c-0.2,0.7-0.4,1.4-0.6,2.1
		c0,0,0,0,0.1,0C33.9,9,34,8.9,34,8.8c0.6-0.8,1.3-1.5,2.3-1.9c1.1-0.5,2.3-0.5,3.3,0.3c0.6,0.5,0.8,1.1,0.9,1.8
		c0,0.4,0.1,0.7,0.1,1.1c0.1-0.1,0.1-0.2,0.1-0.2c0.5-1.9,1-3.7,1.5-5.6c0.1-0.4,0.2-0.8,0.2-1.2s-0.2-0.6-0.6-0.7
		c-0.1,0-0.3-0.1-0.4-0.1c-0.2,0-0.3-0.1-0.3-0.3s0.1-0.3,0.3-0.3c1.3-0.2,2.6-0.3,3.9-0.5c0.4-0.1,0.8-0.1,1.2-0.2
		c-0.1,0.5-0.3,1-0.4,1.5c-0.5,1.8-0.9,3.6-1.4,5.4c-0.2,0.8-0.4,1.6-0.7,2.4c-0.4,1.6-0.9,3.2-1.3,4.8c0,0.101,0,0.2,0,0.301
		c0,0.399,0.4,0.6,0.7,0.3c0.5-0.4,0.9-0.9,0.9-1.601c0.1-1,0.4-2,0.9-3c0.8-1.6,1.9-3,3.4-4c0.8-0.6,1.8-0.9,2.8-0.7
		C52.2,6.5,52.8,7,53,7.8c0,0.1,0.1,0.1,0.1,0.2C53.2,7.6,53.3,7.3,53.4,7c0-0.2,0.199-0.3,0.399-0.3c0.9,0,1.8,0,2.7,0
		c0.1,0,0.2,0.1,0.3,0.1C56.9,6.8,56.9,6.9,57,6.9c1,0.2,1.9,0.1,2.7,0c0.6-0.1,0.899,0,1.1,0.6c0.4,1.3,0.7,2.6,1,3.9
		c0.2,1.1,0.4,2.2,0.7,3.3c0,0,0,0.1,0.1,0.2c0.2-0.4,0.4-0.7,0.5-1c0.4-0.9,0.9-1.8,1.2-2.8c0.3-0.8,0.2-1.1-0.5-1.6
		C62.9,8.9,63,7.7,63.6,7.2c0.601-0.5,1.2-0.5,2-0.4c0.2,0,0.4,0.1,0.601,0C68,6.3,69.1,5.2,70,3.7c0.1-0.1,0.2-0.3,0.3-0.4
		c0.3-0.5,0.3-0.5,0.9-0.4c-0.2,0.9-0.4,1.7-0.7,2.6c-0.1,0.3-0.2,0.7-0.3,1c-0.101,0.2,0,0.3,0.3,0.3c0.5,0,1.1,0,1.6,0
		c0,0.1,0,0.1,0,0.1C71.9,7.7,72,7.5,71.3,7.5c-0.399,0-0.7,0-1.1,0c-0.2,0-0.4,0.1-0.4,0.3C69.5,8.9,69.2,9.9,68.9,11
		C68.6,12.1,68.3,13.2,68,14.3c-0.1,0.5-0.2,1-0.3,1.4c-0.101,0.3,0,0.6,0.3,0.8s0.6,0.1,0.8,0c0.7-0.4,1.2-1,1.7-1.6
		c0.1-0.101,0.1-0.2,0.1-0.301c0-1.699,0.7-3.2,1.601-4.5c0.8-1.1,1.7-2,3-2.6c1.3-0.7,2.7-1,4.1-0.5c0.7,0.2,1.2,0.6,1.4,1.3
		c0.2,0.9,0,1.7-0.601,2.4c-0.899,1-2,1.6-3.199,2c-1,0.3-2.101,0.6-3.2,0.6C73.1,13.3,73.1,13.4,73,14s-0.2,1.2,0.1,1.9
		C73.4,16.7,74.4,17.2,75.2,17c1.6-0.3,2.8-1.2,4.1-2.1c0.3-0.2,0.3-0.4,0.3-0.7c0-1.601,0.601-3,1.5-4.3c0.9-1.2,2-2.1,3.301-2.7
		C85.6,6.7,86.8,6.6,88,6.9c0.9,0.2,1.8,1,1.7,2.1c-0.101,0.9-1.101,1.5-1.9,1.2c-0.5-0.2-0.7-0.9-0.5-1.4
		c0.101-0.2,0.2-0.4,0.3-0.5C87.8,7.9,87.7,7.6,87.2,7.6c-0.7-0.1-1.3,0-2,0.3c-0.9,0.5-1.5,1.2-2.101,2c-0.6,0.9-1,1.9-1.199,2.9
		c-0.2,0.9-0.2,1.8,0.199,2.7c0.601,1.3,2,1.8,3.301,1.3c1.3-0.5,2.3-1.5,3.199-2.6c0.5-0.601,0.601-1.4,0.9-2.2
		c0.7-2.3,1.4-4.7,2.1-7C91.7,4.6,91.8,4.2,91.9,3.8c0.1-0.6-0.101-1-0.801-1c-0.5,0-0.899,0-1.399,0c0-0.6,0-0.6,0.6-0.6
		c1.101-0.1,2.2-0.3,3.2-0.6c0.3-0.1,0.6-0.1,1-0.2c-1,3.3-1.9,6.5-2.8,9.7c0,0,0.1,0,0.1,0.1c0.2-0.2,0.4-0.3,0.601-0.5
		C93.7,9.5,95.1,8.4,96.6,7.5c0.601-0.3,1.301-0.6,2-0.7c1,0,1.301,0.6,1.101,1.4c-0.4,1.5-0.9,2.9-1.3,4.399
		c-0.301,1.101-0.7,2.2-1,3.301c0,0.199,0,0.3,0,0.5C97.4,16.8,97.8,17,98.1,16.8c0.5-0.399,1-0.8,1.5-1.2
		c0.101,0,0.101-0.1,0.2-0.199c0.101,0.1,0.2,0.199,0.4,0.3c-0.4,0.399-0.8,0.8-1.2,1.2c-0.7,0.6-1.4,1.199-2.3,1.3
		c-0.3,0-0.7,0-1-0.101C95.2,18,95,17.5,95.2,17c0.2-0.7,0.399-1.4,0.6-2.1C96.4,13.1,96.9,11.2,97.5,9.4c0.2-0.6-0.2-1-0.8-0.8
		C96.2,8.8,95.6,9,95.2,9.3c-1,0.7-1.9,1.5-2.8,2.3c-0.801,0.7-1.2,1.6-1.5,2.6c-0.301,1-0.601,2-0.9,3c0,0.1,0,0.1-0.1,0.2
		C89.6,18.5,89.8,18.2,88.8,18.2c-0.3,0-0.7,0-1.1,0c0.2-0.7,0.399-1.4,0.6-2.101c0,0,0,0-0.1,0C88.1,16.2,88,16.3,87.9,16.4
		C87,17.3,86,17.9,84.8,18.2c-1.6,0.3-3.1,0.2-4.2-1.101C80.3,16.7,80,16.3,79.7,15.8c-0.2,0.2-0.5,0.4-0.8,0.601
		c-1.101,0.8-2.301,1.5-3.7,1.8c-1,0.2-1.9,0.3-2.9-0.101c-0.899-0.3-1.399-1-1.6-1.899c0-0.101,0-0.101-0.101-0.2c0,0,0,0-0.1,0
		c-0.1,0.1-0.3,0.3-0.4,0.4C69.4,17.1,68.7,17.8,67.8,18.1c-1,0.4-1.8,0-2.1-0.8c-0.2-0.5-0.101-1.1,0-1.6
		C66.1,14.1,66.6,12.5,67,10.9c0.3-1,0.5-2.1,0.8-3.1c0-0.2,0.101-0.3-0.2-0.3c-0.399,0-0.899,0-1.3,0c0,0.1-0.1,0.1,0,0.1
		c0.3,1,0,1.8-0.399,2.7C65,12.6,63.8,14.8,62.5,16.9c-0.9,1.5-1.9,3-3.2,4.199C58.6,21.8,57.8,22.4,56.9,22.7
		c-0.7,0.2-1.301,0.2-2,0c-0.9-0.3-1.2-0.9-1.101-1.8C53.9,20.3,54.6,19.8,55.4,19.8c0.5,0,1,0.2,1.5,0.5
		c0.199,0.101,0.3,0.2,0.5,0.3c0.3,0.2,0.6,0.2,0.899-0.1c0.7-0.6,1.101-1.3,1-2.3c-0.2-1.101-0.3-2.3-0.5-3.4
		c-0.2-1.1-0.399-2.3-0.6-3.4C58,10.6,57.8,9.8,57.6,9C57.5,8.8,57.4,8.6,57.2,8.4C56.8,8,56.7,8,56.6,8.3
		C56.4,9.1,56.1,9.9,55.9,10.7C55.5,12,55.2,13.3,54.8,14.6c-0.1,0.301-0.2,0.601-0.2,0.9c-0.1,0.3,0,0.5,0.2,0.7s0.5,0,0.601-0.101
		c0.3-0.3,0.5-0.6,0.8-0.899c0.1-0.101,0.2-0.3,0.3-0.5c0.2,0.1,0.3,0.2,0.5,0.399C56.5,15.9,55.9,16.7,55.2,17.4
		c-0.7,0.6-1.5,0.899-2.5,0.8c-0.7-0.101-1.3-0.2-1.5-1c-0.101-0.5,0-1,0-1.4c0-0.1,0-0.3,0-0.399c-0.2,0.3-0.5,0.699-0.7,1
		c-0.9,1.1-2,1.899-3.5,1.8c-1.3,0-2.3-0.8-2.6-1.9c0,0,0-0.1-0.1-0.1c-0.1,0.1-0.2,0.2-0.3,0.3c-0.6,0.7-1.4,1.4-2.4,1.6
		C41,18.2,40.4,18.2,39.9,18c-0.7-0.3-1.1-1.3-0.9-2.1c0.1-0.4,0.2-0.801,0.3-1.2C39.4,14.4,39.5,14,39.5,13.6
		C39.6,13.6,39.5,13.6,39.5,13.6z M36.6,10C36.6,10,36.5,10,36.6,10c-0.1-0.2-0.1-0.3-0.1-0.5c-0.1-0.8-0.7-1.1-1.4-0.8
		c-0.2,0.1-0.4,0.2-0.6,0.4c-0.6,0.6-1,1.4-1.2,2.2c-0.5,1.5-0.9,3.101-1.4,4.601c-0.2,0.8,0.2,1.399,0.9,1.3
		c0.2,0,0.5-0.101,0.7-0.3c0.4-0.4,0.9-0.9,1.2-1.4c0.5-1.1,1-2.2,1.4-3.3C36.3,11.5,36.4,10.8,36.6,10z M52.6,9.2L52.6,9.2
		c0-0.2,0-0.3-0.1-0.4c-0.1-0.6-0.6-1-1.2-0.7c-0.3,0.1-0.6,0.3-0.8,0.6c-1,1.3-1.7,2.7-2.2,4.3c-0.2,0.7-0.4,1.5-0.4,2.2
		c0,0.399,0.1,0.8,0.5,1s0.8,0.1,1.1-0.2c0.4-0.4,0.8-0.8,1.1-1.2c0.801-1.3,1.2-2.7,1.601-4.1C52.5,10.2,52.5,9.7,52.6,9.2z
		 M73.1,12.5c0.101,0,0.2,0,0.301,0c0.399-0.1,0.899-0.1,1.3-0.2c1.399-0.3,2.6-0.9,3.5-2c0.399-0.4,0.6-1,0.6-1.5
		c0.101-0.7-0.3-1.2-1.1-1.2c-1,0-1.7,0.4-2.4,1C74.3,9.7,73.6,11,73.1,12.5z"/>
	<path fill="#5B6064" d="M7.6,22.4c-1.7,0-3.3-0.2-4.8-0.9c-1.3-0.6-2.2-1.5-2.6-2.9c-0.3-1.1-0.1-2.199,0.3-3.3
		c0.6-1.6,1.7-2.8,2.9-4C4.7,10.1,6.1,9,7.7,8.1C7.9,8.1,8,8,8,7.7c0-0.8,0-1.6,0-2.4c0-1,1-1.6,2-1.1c0.9,0.5,1.8,1.1,2.7,1.6
		c0.1,0.1,0.3,0.1,0.4,0C14,5.6,15,5.3,15.9,5.1c1.6-0.4,3.3-0.5,5-0.4C22.4,4.8,24,5,25.3,5.9c1.4,0.9,2.1,2.3,2,4
		c-0.1,1.3-0.7,2.5-1.5,3.6c-1.5,2.1-3.5,3.7-5.7,5.1C17.8,20,15.4,21,12.8,21.7C11,22.1,9.3,22.4,7.6,22.4z M16,7.9
		C16.1,8,16.1,8,16.2,8.1c1.3,0.7,2.6,1.4,3.9,2.1c0.4,0.2,0.7,0.6,0.7,1.1s-0.3,0.8-0.7,1.1c-1,0.6-1.9,1.1-2.9,1.7
		c-2.4,1.4-4.8,2.801-7.2,4.2c-0.5,0.3-0.9,0.4-1.4,0.101C8.1,18.1,8,17.6,8,17.1c0-1.3,0-2.5,0-3.8c0-0.1,0-0.2,0-0.399
		C7.9,13,7.8,13,7.7,13.1c-0.8,1-1.5,2.101-1.8,3.5c-0.2,1.101,0.3,2.2,1.3,2.7s2,0.5,3.1,0.4c1.2-0.101,2.4-0.5,3.6-1
		c2.3-1,4.3-2.3,6-4.101c1-1.1,1.8-2.2,2.2-3.7c0.4-1.8-0.4-3-2-3.4c-0.9-0.2-1.8-0.2-2.7-0.1C17,7.6,16.5,7.8,16,7.9z M9.4,11.2
		C9.5,11.2,9.5,11.2,9.4,11.2c0,1.3,0,2.6,0,4c0,0.399,0.1,0.7,0.5,0.899c0.4,0.2,0.7,0.101,1-0.1c1.3-0.7,2.5-1.5,3.8-2.2
		c1-0.6,2.1-1.2,3.1-1.8c0.6-0.3,0.6-1.1,0-1.4c-2.3-1.4-4.6-2.7-6.9-4.1c-0.3-0.2-0.6-0.3-1-0.1c-0.4,0.2-0.5,0.5-0.5,1
		C9.5,8.5,9.4,9.8,9.4,11.2z M3.4,16.8c-0.1,0.4-0.2,0.8-0.2,1.101c0,1.1,0.3,2.1,1.3,2.8c0.9,0.7,2,0.899,3.1,0.899
		c1.4,0,2.8-0.199,4.1-0.699c1.2-0.4,2.3-0.9,3.5-1.4c0.3-0.1,0.7-0.4,1-0.6V18.8c-0.1,0-0.2,0.101-0.3,0.101
		c-0.8,0.3-1.5,0.6-2.3,0.8c-1,0.2-2.1,0.399-3.2,0.6C9,20.5,7.7,20.4,6.4,20c-1-0.3-1.9-0.8-2.4-1.8C3.7,17.8,3.6,17.3,3.4,16.8z
		 M24.3,9.1L24.3,9.1c0.1-0.2,0-0.4,0-0.6c-0.2-1.2-0.9-2-2-2.5c-1.3-0.5-2.6-0.5-3.9-0.4c-0.6,0.1-1.2,0.2-1.8,0.4
		c-0.8,0.2-1.5,0.5-2.3,0.7v0.1c0.3,0.1,0.5,0.4,0.9,0.4c0.6-0.1,1.1-0.2,1.7-0.3c1.4-0.2,2.8-0.2,4.3,0.1c0.9,0.2,1.7,0.5,2.3,1.2
		C23.8,8.4,24,8.7,24.3,9.1z"/>
</g>
</svg>
