<?xml version="1.0" encoding="utf-8"?>
<!-- Generator: Adobe Illustrator 16.0.0, SVG Export Plug-In . SVG Version: 6.00 Build 0)  -->
<!DOCTYPE svg PUBLIC "-//W3C//DTD SVG 1.1//EN" "http://www.w3.org/Graphics/SVG/1.1/DTD/svg11.dtd">
<svg version="1.1" id="Слой_1" xmlns="http://www.w3.org/2000/svg" xmlns:xlink="http://www.w3.org/1999/xlink" x="0px" y="0px"
	 width="100px" height="28px" viewBox="0 0 100 28" enable-background="new 0 0 100 28" xml:space="preserve">
<title>43EDB32D-2600-4047-BE48-D3C6CD5822CE</title>
<desc>Created with sketchtool.</desc>
<g id="Icons">
	<g id="Artboard" transform="translate(-252.000000, -183.000000)">
		<g id="Group-10" transform="translate(252.000000, 183.000000)">
			<path id="Combined-Shape" fill="#8F9395" d="M89.289,21.379c-1.273,2.961-6.024,6.121-9.43,6.121c-5.889,0-17.667,0-23.557,0
				c-3.365,0-6.608-2.879-6.529-6.121H3.95c-2.185,0-3.294-1.09-3.738-2.348c-0.273-0.771-0.273-1.61-0.052-2.398l1.639-5.803
				c0.461-1.56,1.826-4.159,5.172-4.159h47.118C55.811,3.048,59.588,0.5,62.79,0.5H87.2c4.203,0.096,6.419,3.233,6.516,6.171h2.259
				c3.072,0,4.42,2.079,3.926,4.394c-0.342,1.677-1.742,6.121-1.742,6.121c-0.545,2.482-2.662,4.193-5.684,4.193H89.289z
				 M87.593,2.529c0,0-3.892,0.017-5.31,0c-3.857-0.05-7.084,2.549-8.039,5.534l-2.715,8.435c-3.021,7.329,0.837,8.57,3.5,8.553
				c1.604,0,3.191,0,4.438,0c3.277,0,6.88-2.33,7.836-5.315L90.99,8.197C91.979,5.514,90.357,2.529,87.593,2.529z M61.852,16.699
				h2.85l-0.921,2.835h-5.565l0.769-2.382l0.137-0.419l1.826-5.568l0.905-2.8h10.651l0.052-0.168l1.553-5.333
				c0,0-8.842,0.017-10.26,0c-3.857-0.05-7.016,2.834-7.697,5.199l-2.715,8.435c-3.396,7.85,1.076,8.553,3.5,8.553
				c1.604,0,3.191,0,4.438,0c4.012,0,6.879-2.498,7.836-5.483l2.475-8.418H63.66L61.852,16.699z M45.156,18.041l2.356-0.016
				l1.297-4.109c0.29-1.191-0.341-2.214-1.587-2.214c0,0-1.674,0-2.236,0c-1.554-0.017-2.715,1.04-3.107,2.13l-1.314,4.209
				l2.407-0.016l1.195-4.042L46.334,14L45.156,18.041z M42.271,11.987l0.922-2.683h-3.106l-0.973,2.683H42.271z M34.949,13.564h-2.1
				l1.416-4.478h-2.406l-1.469,4.629c-0.272,1.19,0.342,2.213,1.588,2.213c0,0,0,0,0.018,0l-0.666,2.113h2.355l0.684-2.113
				c1.484-0.05,2.594-1.056,2.97-2.112l1.519-4.729h-2.355L34.949,13.564z M28.668,9.086c0,0-1.674,0-2.236,0
				c-1.554-0.017-2.732,1.023-3.107,2.13l-2.27,6.843h2.389l0.734-2.214l2.117,0.017l-0.632,2.197h2.304l2.305-6.759
				C30.545,10.109,29.931,9.086,28.668,9.086z M16.053,9.086l-2.902,8.955h6.965l1.484-4.477h-2.338l-0.717,2.213h-2.168
				l2.117-6.691H16.053z M12.81,9.086H8.303l-2.936,8.973h2.39l0.733-2.214h2.1c0,0,2.186,0.101,3.057-2.097
				c0.272-0.688,0.802-2.398,0.802-2.398C14.857,9.992,14.072,9.086,12.81,9.086z M81.635,19.551H76.48l3.584-11.203h5.155
				L81.635,19.551z M27.045,13.564h-2.252l0.768-2.214h2.219L27.045,13.564z M11.358,13.564H9.122l0.769-2.214h2.219L11.358,13.564z
				"/>
		</g>
	</g>
</g>
</svg>
