<?xml version="1.0" encoding="utf-8"?>
<!-- Generator: Adobe Illustrator 16.0.0, SVG Export Plug-In . SVG Version: 6.00 Build 0)  -->
<!DOCTYPE svg PUBLIC "-//W3C//DTD SVG 1.1//EN" "http://www.w3.org/Graphics/SVG/1.1/DTD/svg11.dtd">
<svg version="1.1" id="Слой_1" xmlns="http://www.w3.org/2000/svg" xmlns:xlink="http://www.w3.org/1999/xlink" x="0px" y="0px"
	 width="100px" height="20px" viewBox="0 0 100 20" enable-background="new 0 0 100 20" xml:space="preserve">
<polygon fill="#8F9395" points="36,9.5 32.3,5 31.1,5 35.4,10.8 35.4,14.301 36.5,14.301 36.5,10.8 40.9,5 39.6,5 "/>
<path fill="#8F9395" d="M49.6,5h-6.3c-0.4,0-0.8,0.2-1.1,0.5c-0.3,0.3-0.5,0.7-0.5,1.1v2.1c0,0.4,0.2,0.8,0.5,1.1
	c0.3,0.3,0.7,0.5,1.1,0.5h6.3c0.1,0,0.3,0,0.4,0.101c0.1,0.1,0.2,0.199,0.2,0.399V12.9c0,0.1-0.1,0.3-0.2,0.399
	C49.9,13.4,49.8,13.4,49.6,13.4h-6.3c-0.1,0-0.3,0-0.4-0.101c-0.1-0.1-0.2-0.2-0.2-0.399v-0.4h-1.1v0.4c0,0.399,0.2,0.801,0.5,1.1
	c0.3,0.301,0.7,0.5,1.1,0.5h6.3c0.4,0,0.8-0.199,1.1-0.5c0.301-0.299,0.5-0.7,0.5-1.1V10.8c0-0.399-0.199-0.8-0.5-1.1
	c-0.3-0.3-0.7-0.5-1.1-0.5h-6.3c-0.1,0-0.3,0-0.4-0.1c-0.1-0.1-0.2-0.2-0.2-0.4V6.5c0-0.1,0.1-0.3,0.2-0.4C42.9,6,43.1,6,43.3,6h6.3
	c0.1,0,0.3,0,0.4,0.1s0.2,0.2,0.2,0.4v0.4h1.1V6.5c0-0.4-0.2-0.8-0.5-1.1C50.5,5.1,50.1,5,49.6,5z"/>
<polygon fill="#8F9395" points="11.5,5 10.5,5 10.5,14.301 20,14.301 20,13.3 11.5,13.3 "/>
<path fill="#8F9395" d="M28.7,5h-6.3c-0.4,0-0.8,0.2-1.1,0.5c-0.3,0.3-0.5,0.7-0.5,1.1v7.8h1.1V11h7.4v3.4h1.1V6.5
	c0-0.4-0.2-0.8-0.5-1.1C29.6,5.1,29.1,5,28.7,5z M29.2,9.9h-7.4V6.5c0-0.1,0.1-0.3,0.2-0.4S22.2,6,22.3,6h6.3c0.1,0,0.3,0,0.4,0.1
	s0.2,0.2,0.2,0.4V9.9z"/>
<path fill="#8F9395" d="M7.9,5H0v9.301h1.1V10.8c0.3,0,0.4,0.101,0.5,0.101h6.3c0.4,0,0.8-0.2,1.1-0.5C9.3,10.1,9.5,9.7,9.5,9.3V6.5
	c0-0.4-0.2-0.8-0.5-1.1C8.7,5.1,8.4,5,7.9,5z M8.5,9.3c0,0.1-0.1,0.3-0.2,0.4c-0.1,0-0.2,0.1-0.4,0.1H1.6c-0.1,0-0.3,0-0.4-0.1
	C1.1,9.5,1.1,9.4,1.1,9.3V6.5c0-0.1,0.1-0.3,0.2-0.4c0,0,0.1-0.1,0.3-0.1h6.3C8,6,8.2,6,8.3,6.1c0.1,0.1,0.2,0.2,0.2,0.4V9.3z"/>
<polygon fill="#5B6064" points="77.6,20 85.1,16.701 77.6,13.3 "/>
<polygon fill="#5B6064" points="77.6,6.7 77.6,13.3 85.1,10 "/>
<polygon fill="#5B6064" points="85.1,16.701 92.5,13.3 85.1,10 "/>
<polygon fill="#5B6064" points="92.5,6.7 92.5,13.3 100,10 "/>
<polygon fill="#5B6064" points="92.5,6.7 85.1,3.3 85.1,10 "/>
<path fill="#8F9395" d="M60.5,5h-6.3c-0.4,0-0.8,0.2-1.101,0.5c-0.3,0.3-0.5,0.7-0.5,1.1v6.2c0,0.4,0.2,0.8,0.5,1.101
	c0.301,0.301,0.7,0.5,1.101,0.5h6.3c0.4,0,0.8-0.199,1.1-0.5c0.301-0.301,0.5-0.7,0.5-1.101V6.5c0-0.4-0.199-0.8-0.5-1.1
	C61.3,5.1,61,5,60.5,5z M61,12.8c0,0.101-0.1,0.3-0.2,0.4c-0.1,0.1-0.2,0.1-0.399,0.1H54.1c-0.1,0-0.3,0-0.399-0.1
	C53.6,13.1,53.5,13,53.5,12.8V6.5c0-0.1,0.1-0.3,0.2-0.4C53.9,6.1,54,6,54.2,6h6.3c0.1,0,0.3,0,0.4,0.1C61,6.3,61,6.4,61,6.5V12.8z"
	/>
<polygon fill="#8F9395" points="72,13.1 65,5 63.5,5 63.5,14.301 64.6,14.301 64.6,6.2 71.6,14.301 73.1,14.301 73.1,5 72,5 "/>
<polygon fill="#5B6064" points="77.6,0 77.6,6.7 85.1,3.3 "/>
<title>485B665F-23FE-4E57-BF24-10CEDAF4E61D</title>
<desc>Created with sketchtool.</desc>
</svg>
