<?xml version="1.0" encoding="utf-8"?>
<!-- Generator: Adobe Illustrator 16.0.0, SVG Export Plug-In . SVG Version: 6.00 Build 0)  -->
<!DOCTYPE svg PUBLIC "-//W3C//DTD SVG 1.1//EN" "http://www.w3.org/Graphics/SVG/1.1/DTD/svg11.dtd">
<svg version="1.1" id="Слой_1" xmlns="http://www.w3.org/2000/svg" xmlns:xlink="http://www.w3.org/1999/xlink" x="0px" y="0px"
	 width="100px" height="44px" viewBox="0 0 100 44" enable-background="new 0 0 100 44" xml:space="preserve">
<g>
	<path fill="#5B6064" d="M84,23.1L84,23.1c5-0.3,2.4-6.399-2.6-6.1C76.7,17.3,78.8,23.4,84,23.1z"/>
	<path fill="#5B6064" d="M85,14.3c-5.7-2.3-12.2-1-16.6,3.3C64,21.9,62.8,28.5,65.2,34.2c2.399,5.7,8,9.3,14.1,9.3
		c8.3,0,15.101-6.8,15-15.2C94.4,22.2,90.7,16.7,85,14.3z M79.4,41.9L79.4,41.9L79.4,41.9C71.9,41.8,65.9,35.8,65.9,28.3
		s6-13.5,13.5-13.6l0,0c7.5,0,13.6,6.1,13.6,13.6S86.9,41.9,79.4,41.9z"/>
	<path fill="#5B6064" d="M71,13.8c2.2-1.4,4.8-2.2,7.4-2.2c-0.301-1-1.4-5.1,0.5-9c-2.101,1.6-3.2,4.2-3,6.9c0,0-2.2-5.9-5.2-9.5
		c-0.4,4.6,1,10.8,1,10.8c-1.3-2.3-3.601-3.9-6.3-4C69.3,8.9,70.7,12.8,71,13.8z"/>
</g>
<g>
	<polygon fill="#8F9395" points="75.4,24.4 73.9,24.4 73.9,32.1 77.6,32.1 77.6,30.7 75.4,30.7 	"/>
	<path fill="#8F9395" d="M71.7,24.7c-0.601-0.2-1.2-0.3-1.9-0.2h-1.6v7.7h1.5v-3.3c0.5,0,1.1,0,1.6-0.101l0,0
		c0.5-0.1,0.9-0.399,1.2-0.7C72.8,27.7,73,27.2,72.9,26.7c0-0.4-0.101-0.9-0.301-1.3C72.4,25.1,72.1,24.8,71.7,24.7z M71.4,27.1
		C71.3,27.2,71.2,27.3,71.1,27.4c-0.3,0.1-0.5,0.1-0.8,0.1h-0.5v-1.6h0.4c0.3,0,0.7,0,1,0.199l0,0c0.2,0.101,0.399,0.4,0.399,0.7
		C71.5,26.8,71.5,27,71.4,27.1z"/>
	<path fill="#8F9395" d="M63.1,25.6L63.1,25.6L63.1,25.6z"/>
	<polygon fill="#8F9395" points="86.6,24.4 85,24.4 87.3,28.8 87.3,32.1 88.8,32.1 88.8,32.1 88.8,28.8 91.1,24.4 89.5,24.4 
		88,27.2 	"/>
	<polygon fill="#8F9395" points="99.5,24.5 99,24.5 98.4,26.4 97.7,24.5 97.2,24.5 96.7,27.2 97.3,27.2 97.6,25.5 98.1,27.2 
		98.6,27.2 99.2,25.5 99.5,27.2 100,27.2 	"/>
	<polygon fill="#8F9395" points="95,25 95.5,25 95.5,27.2 96.1,27.2 96.1,27.2 96.1,25 96.6,25 96.6,24.5 95,24.5 	"/>
	<path fill="#8F9395" d="M59.6,25.5L59.6,25.5c0.9,0,1.801,0.4,2.5,1.1l1.101-1c-0.9-1-2.2-1.6-3.5-1.6c-0.8,0-1.5,0.2-2.2,0.6
		c-1.2,0.601-1.9,1.801-2.1,3C55.2,28.9,55.7,30.2,56.6,31.1C57.4,31.9,58.5,32.3,59.7,32.2c0.6,0,1.2-0.101,1.8-0.3
		c0.6-0.301,1.2-0.7,1.7-1.2l-1-1.101c-0.3,0.4-0.8,0.7-1.2,0.9s-0.8,0.3-1.2,0.2c-0.5,0-1-0.101-1.399-0.4c-0.4-0.2-0.801-0.6-1-1
		C57.2,28.9,57,28.4,57.1,27.9V27.8C56.9,26.6,58.2,25.5,59.6,25.5z"/>
	<path fill="#8F9395" d="M81.5,24.4l-3,7.699h1.6l0.601-1.6h3.2l0.6,1.6h1.6l-3-7.699H81.5z M81.2,29.1l1.1-2.6l1,2.6H81.2z"/>
	<path fill="#8F9395" d="M10.4,27.8c0.3-0.399,0.4-0.8,0.4-1.3s-0.1-0.9-0.3-1.3c-0.2-0.3-0.5-0.601-0.9-0.8
		C9,24.2,8.3,24.1,7.7,24.2H6V32.1h1.5v-3.3h0.1l1.8,3.3l0,0h1.7l-1.9-3.5C9.7,28.5,10.1,28.2,10.4,27.8z M8,27.3H7.5v-1.6H8
		c0.3,0,0.5,0,0.8,0.1c0.3,0.101,0.5,0.4,0.5,0.7l0,0c0,0.2-0.1,0.5-0.3,0.6C8.7,27.3,8.4,27.4,8,27.3z"/>
	<path fill="#8F9395" d="M3.5,24.5c-0.6-0.2-1.3-0.3-1.9-0.2H0v7.9h1.5v-3.3c0.5,0,1.1,0,1.6-0.101l0,0C3.6,28.7,4,28.4,4.3,28
		c0.3-0.4,0.5-0.9,0.4-1.4c0-0.399-0.1-0.899-0.3-1.3C4.2,24.9,3.9,24.6,3.5,24.5z M3.1,27c-0.1,0.1-0.2,0.2-0.4,0.3
		C2.4,27.4,2.2,27.4,1.9,27.4H1.5V25.8H2c0.3,0,0.6,0,0.9,0.101l0,0C3.1,26,3.3,26.3,3.3,26.6C3.3,26.7,3.2,26.9,3.1,27z"/>
	<polygon fill="#8F9395" points="52.7,24.3 52.7,32.1 54.2,32.1 54.2,24.3 	"/>
	<path fill="#8F9395" d="M15.2,24.3l-3.1,7.9h1.6l0.7-1.601h3.2l0.6,1.601h1.6l-3.1-7.9H15.2z M14.9,29.1L16,26.4l1.1,2.699H14.9z"
		/>
	<path fill="#8F9395" d="M42.6,24.3l-3.1,7.9H41l0.7-1.601H45l0.6,1.601l0,0h1.6l-3.1-7.9H42.6z M42.3,29.1l1.1-2.699l1.1,2.699
		H42.3z"/>
	<polygon fill="#8F9395" points="47,25.7 48.4,25.7 48.4,32.1 50,32.1 50,32.1 50,25.7 51.5,25.7 51.5,24.3 47,24.3 	"/>
	<polygon fill="#8F9395" points="35.7,24.3 33.8,29.8 32,24.3 30.5,24.3 29.1,32.2 30.6,32.2 31.5,27.2 33.1,32.1 34.5,32.1 
		36.2,27.1 37,32.1 38.5,32.1 37.2,24.3 	"/>
	<path fill="#8F9395" d="M24.3,29.6h2.3c-0.2,0.4-0.5,0.801-0.9,1c-0.4,0.2-0.9,0.301-1.3,0.301c-0.8,0-1.5-0.301-2-0.801
		S21.6,28.9,21.6,28.2s0.3-1.4,0.8-1.9s1.2-0.8,2-0.8c0.9,0,1.8,0.4,2.4,1.1l1.1-1c-0.4-0.5-0.9-0.899-1.5-1.1
		c-0.6-0.3-1.3-0.4-2-0.4c-1.2,0-2.4,0.5-3.2,1.4c-0.7,0.7-1.1,1.7-1.1,2.7c0,0.7,0.2,1.5,0.6,2.1c0.4,0.601,0.9,1.2,1.5,1.5
		c0.7,0.4,1.5,0.5,2.2,0.5c0.7,0,1.4-0.2,2-0.5l0,0c1.2-0.7,1.9-2,2-3.399V28.1h-4v1.5H24.3z"/>
</g>
<title>688E7FAD-A741-4829-AEF3-CF2F9B4177D5</title>
<desc>Created with sketchtool.</desc>
</svg>
