<?xml version="1.0" encoding="utf-8"?>
<!-- Generator: Adobe Illustrator 16.0.0, SVG Export Plug-In . SVG Version: 6.00 Build 0)  -->
<!DOCTYPE svg PUBLIC "-//W3C//DTD SVG 1.1//EN" "http://www.w3.org/Graphics/SVG/1.1/DTD/svg11.dtd">
<svg version="1.1" id="Слой_1" xmlns="http://www.w3.org/2000/svg" xmlns:xlink="http://www.w3.org/1999/xlink" x="0px" y="0px"
	 width="99.9px" height="10.8px" viewBox="0 0 99.9 10.8" enable-background="new 0 0 99.9 10.8" xml:space="preserve">
<title>6AAB6F08-4537-4887-B5B1-77EDDD44343E</title>
<desc>Created with sketchtool.</desc>
<path fill="#5B6064" d="M66.6,4.3C66.4,4.9,66.2,5.5,66,6.1C65.5,7.5,65.1,8.9,64.6,10.3c-0.101,0.199-0.2,0.3-0.4,0.3
	c-0.4,0-0.8,0-1.1,0c-0.2,0-0.301-0.101-0.4-0.3c-0.6-1.9-1.2-3.7-1.9-5.6c0-0.1-0.1-0.2-0.199-0.3C60.5,4.7,60.5,4.9,60.4,5.2
	c-0.3,1.7-0.601,3.4-0.8,5c0,0.199-0.101,0.399-0.4,0.299c-0.5,0-1,0-1.5,0c0-0.1,0-0.199,0-0.299C58.3,7,58.8,3.7,59.4,0.5
	c0-0.2,0.1-0.3,0.3-0.3c0.4,0,0.9,0,1.3,0c0.3,0,0.4,0.1,0.4,0.3C62.1,2.7,62.8,4.9,63.6,7c0,0.101,0,0.101,0.1,0.201
	C63.9,6.8,64,6.4,64.1,6C64.7,4.2,65.3,2.3,65.9,0.5c0.1-0.3,0.2-0.4,0.5-0.4c0.399,0,0.8,0,1.1,0s0.4,0.1,0.4,0.4
	c0.3,1.7,0.6,3.4,0.899,5.2c0.301,1.5,0.5,3,0.801,4.5c0,0.1,0,0.1,0,0.199c-0.601,0-1.2,0-1.7,0c-0.101,0-0.2-0.199-0.2-0.3
	C67.4,8.5,67.2,7,66.9,5.4C66.8,5,66.7,4.6,66.7,4.2C66.7,4.3,66.6,4.3,66.6,4.3z"/>
<path fill="#5B6064" d="M95.8,5.4C95.9,6.8,95.5,7.9,94.6,9C93.3,10.6,91.5,11,89.5,10.701C87.1,10.3,85.5,8.5,85.1,5.9
	c-0.301-2.1,1-4.4,3-5.4C90-0.4,92.9-0.2,94.7,1.6c0.1,0.1,0.2,0.2,0.2,0.3c-0.4,0.4-0.8,0.8-1.2,1.2c0,0-0.3,0-0.4-0.1
	C92.6,2.4,91.8,2,90.9,1.9c-2.4-0.3-4.4,1.9-3.8,4.2C87.5,7.8,89.2,9,91.1,8.8c0.8-0.1,1.6-0.4,2.1-1.1c0.1-0.101,0.2-0.301,0.3-0.5
	c-0.2,0-0.3,0-0.399,0c-0.7,0-1.4,0-2.101,0c-0.3,0-0.399-0.101-0.399-0.4c0-0.4,0-0.801,0-1.3c0-0.2,0.1-0.3,0.3-0.3
	c1.6,0,3.2,0,4.7,0C95.7,5.3,95.8,5.4,95.8,5.4z"/>
<path fill="#5B6064" d="M45.3,2C44.9,2.4,44.5,2.8,44.1,3.2c-0.2,0.2-0.301,0-0.4-0.1c-0.7-0.6-1.5-1-2.4-1.1
	c-1.8-0.2-3.5,1-3.899,2.7c-0.4,1.799,0.7,3.5,2.5,4.1C41,9.1,42.1,9.1,43,8.3c0.3-0.2,0.5-0.6,0.8-0.9c0,0,0-0.1-0.1-0.1
	s-0.2,0-0.4,0c-0.699,0-1.399,0-2.199,0C40.8,7.3,40.8,7.201,40.8,7c0-0.399,0-0.799,0-1.299c0-0.2,0.101-0.3,0.301-0.3
	c1.5,0,3,0,4.6,0C46,5.4,46,5.5,46,5.7c0.101,2.4-1.7,4.6-4,5C40,11,38.1,10.6,36.7,9C35.2,7.3,34.9,5.3,35.9,3.2
	c0.899-2,2.5-3,4.7-3.1c1.8-0.1,3.3,0.4,4.6,1.7C45.2,1.8,45.2,1.9,45.3,2z"/>
<path fill="#5B6064" d="M77.1,4.1c0,2.101,0,4.3,0,6.399c-0.7,0-1.301,0-1.9,0c0-3.399,0-6.799,0-10.2c0.6,0,1.2,0,1.8,0
	c0.101,0,0.2,0.2,0.2,0.2c1.3,1.9,2.5,3.8,3.8,5.8C81.1,6.5,81.2,6.6,81.3,6.8H81.4c0-0.1,0-0.301,0-0.4c0-1.9,0-3.8,0-5.7
	c0-0.3,0.1-0.5,0.399-0.4c0.4,0,0.801,0,1.101,0S83.3,0.4,83.3,0.7c0,2.9,0,5.9,0,8.799c0,1,0,1-1,1.101c-0.699,0-1-0.2-1.399-0.8
	c-1.2-1.9-2.4-3.7-3.601-5.6C77.3,4.2,77.3,4.1,77.1,4.1C77.2,4,77.1,4,77.1,4.1z"/>
<path fill="#8F9395" d="M24.5,0.3c0.601,0,1.2,0,1.8,0c0.301,0,0.2,0.2,0.2,0.3c0,1,0,2,0,3.1c0,0.4,0.101,0.5,0.5,0.5
	c0.8,0,1.7,0,2.5,0c0.101,0,0.3,0,0.4,0c0-1.3,0-2.5,0-3.8c0.7,0,1.3,0,2,0c0,0.2,0,0.3,0,0.4c0,3.1,0,6.2,0,9.3
	c0,0.399-0.101,0.5-0.5,0.5c-0.5,0-1,0-1.5,0c0-0.2,0-0.3,0-0.399c0-1.201,0-2.5,0-3.701C29.9,6.201,29.8,6.1,29.5,6.1
	c-0.899,0-1.8,0-2.7,0C26.5,6.1,26.4,6.201,26.4,6.5c0,1.201,0,2.5,0,3.701C26.4,10.5,26.3,10.6,26,10.6c-0.399,0-0.8,0-1.3,0
	c-0.3,0-0.3-0.101-0.3-0.399c0-2.601,0-5.301,0-7.901C24.5,1.6,24.5,1,24.5,0.3z"/>
<path fill="#5B6064" d="M47,10.5C47.3,9.701,47.6,9,47.8,8.3c1-2.6,2-5.1,3-7.7C50.9,0.3,51,0.2,51.3,0.2c0.5,0,0.9,0,1.4,0
	c0.2,0,0.3,0.1,0.4,0.3c1,2.8,2.1,5.5,3.199,8.3c0.2,0.5,0.4,1.1,0.7,1.699c-0.7,0-1.3,0-1.899,0c-0.101,0-0.2-0.199-0.2-0.299
	c-0.2-0.5-0.4-1-0.601-1.5C54.2,8.5,54.1,8.4,53.9,8.4c-1.2,0-2.4,0-3.5,0c-0.2,0-0.3,0.1-0.4,0.301c-0.2,0.5-0.399,1-0.6,1.5
	C49.3,10.5,49.2,10.5,48.9,10.5C48.2,10.5,47.6,10.5,47,10.5z M53.3,6.5C52.9,5.4,52.4,4.3,52,3.2h-0.1c-0.4,1.1-0.8,2.2-1.3,3.299
	C51.5,6.5,52.4,6.5,53.3,6.5z"/>
<path fill="#8F9395" d="M7.9,0.3c0.6,0,1.2,0,1.899,0c0,0.1,0,0.3,0,0.4c0,2,0,4.1,0,6.1c0,0.3,0,0.699,0.101,1
	c0.1,0.699,0.7,1.1,1.5,1c0.7,0,1.3-0.5,1.399-1.2C12.9,7.201,12.9,6.701,12.9,6.3c0-1.9,0-3.8,0-5.6c0-0.1,0-0.3,0-0.4
	c0.7,0,1.3,0,1.899,0c0,0.1,0,0.2,0,0.3c0,2,0,4,0,6c0,0.399,0,0.899-0.1,1.3c-0.2,1.5-1.3,2.6-2.9,2.801C10.8,10.8,9.9,10.6,9.1,10
	C8.5,9.5,8.1,8.9,8,8.1C7.9,7.5,7.9,7,7.9,6.4c0-2,0-3.9,0-5.9C7.9,0.5,7.9,0.4,7.9,0.3z"/>
<path fill="#8F9395" d="M0,5.4c0-1.6,0-3.1,0-4.7C0,0.4,0.1,0.3,0.4,0.3c1.1,0,2.1,0,3.2,0.1c2,0.1,2.8,1.8,2.5,3.4
	C5.9,5.2,4.9,6,3.5,6.1c-0.3,0-0.7,0.101-1,0C2.1,6.1,2,6.201,2,6.6c0,1.2,0,2.3,0,3.5C2,10.4,1.9,10.5,1.6,10.5
	c-0.4,0-0.7,0-1.101,0C0,10.5,0,10.5,0,10C0,8.5,0,6.9,0,5.4L0,5.4z M2,3.2C2,3.5,2,3.7,2,4C2,4.2,2.1,4.3,2.3,4.3
	c0.4,0,0.7,0,1.101-0.1C4,4.1,4.3,3.8,4.3,3.2c0-0.6-0.3-1-0.899-1.1C3.1,2,2.7,2.1,2.3,2C2,2.2,2,2.3,2,2.5C2,2.8,2,3,2,3.2z"/>
<path fill="#8F9395" d="M17.8,7.6c0.2,0.3,0.4,0.601,0.7,0.8c0.4,0.4,0.8,0.6,1.4,0.4c0.8-0.2,1.1-1,0.6-1.7
	c-0.3-0.399-0.7-0.7-1.1-1c-0.601-0.5-1.101-1-1.7-1.5c-0.5-0.5-0.9-1.2-0.9-2c0-1.3,1-2.4,2.301-2.6C20.5-0.1,21.7,0.4,22.5,1.6
	C22.1,2,21.6,2.4,21.1,2.9c-0.2-0.2-0.301-0.4-0.4-0.5c-0.3-0.2-0.6-0.4-0.9-0.5C19.4,1.8,19,2,18.8,2.3C18.6,2.7,18.8,3,19.1,3.2
	c0.5,0.5,1.1,1,1.699,1.5c0.5,0.4,1,0.9,1.4,1.4c1.4,1.8,0.3,4.3-2,4.601c-1.7,0.199-2.9-0.5-3.7-1.9c-0.1-0.2-0.1-0.4,0.101-0.5
	C16.9,8.1,17.4,7.8,17.8,7.6z"/>
<path fill="#5B6064" d="M71,10.5C71,7.1,71,3.7,71,0.3c0.601,0,1.2,0,1.9,0c0,0.1,0,0.3,0,0.4c0,3.1,0,6.299,0,9.4
	c0,0.399-0.101,0.5-0.5,0.399C72,10.5,71.5,10.5,71,10.5z"/>
<path fill="#8F9395" d="M98.2,1.4C98.1,1.7,98.1,2,98,2.3c0,0.1-0.1,0.2-0.2,0.2c0-0.1-0.1-0.2-0.1-0.3c0.1-0.5,0.2-1,0.3-1.6
	c0-0.1,0.101-0.2,0.2-0.2s0.2,0.1,0.3,0.2c0.101,0.3,0.2,0.7,0.4,1.1c0.1-0.3,0.2-0.7,0.3-1c0-0.1,0.2-0.2,0.3-0.3
	c0.101,0.1,0.2,0.2,0.2,0.3c0.1,0.5,0.2,0.9,0.2,1.4c0,0.1-0.101,0.2-0.101,0.3c-0.1-0.1-0.199-0.2-0.3-0.3
	c-0.1-0.2-0.1-0.5-0.2-0.7h-0.1c-0.1,0.3-0.2,0.5-0.3,0.8c-0.101,0.1-0.2,0.2-0.3,0.3c-0.101,0-0.2-0.1-0.2-0.2
	C98.5,2,98.4,1.7,98.2,1.4C98.3,1.4,98.2,1.4,98.2,1.4z"/>
<path fill="#8F9395" d="M97.2,2.4c-0.3,0.1-0.4,0-0.4-0.2c0-0.3,0-0.7,0-1c0-0.2,0.101-0.4-0.3-0.5l-0.1-0.1c0-0.1,0.1-0.1,0.1-0.1
	c0.3,0,0.5,0,0.8,0L97.4,0.6c0,0.1-0.101,0.2-0.101,0.2C97,0.8,97.1,1,97.1,1.2C97.2,1.6,97.2,2,97.2,2.4z"/>
</svg>
