<?xml version="1.0" encoding="utf-8"?>
<!-- Generator: Adobe Illustrator 16.0.0, SVG Export Plug-In . SVG Version: 6.00 Build 0)  -->
<!DOCTYPE svg PUBLIC "-//W3C//DTD SVG 1.1//EN" "http://www.w3.org/Graphics/SVG/1.1/DTD/svg11.dtd">
<svg version="1.1" id="Слой_1" xmlns="http://www.w3.org/2000/svg" xmlns:xlink="http://www.w3.org/1999/xlink" x="0px" y="0px"
	 width="100px" height="24px" viewBox="0 0 100 24" enable-background="new 0 0 100 24" xml:space="preserve">
<title>810FA737-05F2-404F-8F9F-B18F45503ADC</title>
<desc>Created with sketchtool.</desc>
<g id="Icons">
	<g id="Artboard" transform="translate(-416.000000, -355.000000)">
		<g id="Group-20" transform="translate(416.000000, 355.000000)">
			<path id="Combined-Shape" fill="#8F9395" d="M73.143,3.388H71.62c-0.847,0-1.532-0.687-1.532-1.535
				c0-0.847,0.686-1.534,1.532-1.534h5.011c2.213,0,4.008,2.708,4.008,6.05c0,3.341-1.795,6.05-4.008,6.05H71.62
				c-0.847,0-1.532-0.688-1.532-1.535c0-0.848,0.686-1.535,1.532-1.535h1.522h3.332c0.805-0.023,1.453-1.349,1.453-2.98
				c0-1.632-0.648-2.958-1.453-2.98L73.143,3.388z M7.607,5.335H7.605c0-0.183,0-0.303,0-0.358c0-0.878-1.013-1.59-2.262-1.59
				c-1.249,0-2.276,0.713-2.276,1.591c0,0.068,0,0.188,0,0.358H3.066c-0.031,0.82-0.705,1.476-1.532,1.476
				c-0.827,0-1.5-0.655-1.531-1.476H0c0.001,0.465,0.002,0.288,0.002-0.531c0-2.477,2.413-4.485,5.351-4.485
				c2.937,0,5.318,2.008,5.318,4.485c0,0.621,0,0.798,0,0.531H10.67c-0.031,0.82-0.705,1.476-1.532,1.476
				C8.311,6.812,7.638,6.156,7.607,5.335z M10.671,6.718v7.977c-0.377-0.42-0.924-0.684-1.533-0.684
				c-0.608,0-1.155,0.264-1.533,0.684V6.718c0.378,0.42,0.925,0.683,1.533,0.683C9.747,7.401,10.293,7.138,10.671,6.718z
				 M3.067,6.693v7.977c-0.377-0.42-0.924-0.684-1.533-0.684c-0.608,0-1.155,0.264-1.532,0.684V6.693
				c0.377,0.419,0.924,0.683,1.532,0.683C2.143,7.376,2.689,7.112,3.067,6.693z M9.301,19.615l1.343,2.637
				c0.222,0.436-0.209,1.1-0.964,1.484c-0.754,0.385-1.545,0.343-1.768-0.094l-1.357-2.664c-0.386,0.076-0.788,0.115-1.201,0.115
				c-2.938,0-5.351-2.009-5.351-4.484c0-0.82,0-0.998-0.001-0.531h0.002c0.031-0.82,0.705-1.477,1.532-1.477
				c0.827,0,1.5,0.655,1.531,1.477h0.001c0,0.17,0,0.289,0,0.357c0,0.877,1.026,1.59,2.276,1.59s2.263-0.713,2.263-1.59
				c0-0.056,0-0.176-0.001-0.357h0.002c0.031-0.82,0.705-1.477,1.532-1.477c0.827,0,1.5,0.655,1.531,1.477h0.001
				c0-0.268,0-0.09,0,0.531C10.673,17.766,10.153,18.82,9.301,19.615z M16.33,1.887V14.67c-0.377-0.42-0.924-0.684-1.533-0.684
				c-0.608,0-1.155,0.264-1.532,0.684V1.887c0-0.011,0-0.022,0-0.034c0-0.847,0.686-1.534,1.532-1.534
				c0.847,0,1.533,0.687,1.533,1.534C16.33,1.864,16.33,1.875,16.33,1.887L16.33,1.887z M51.505,9.933l4.89,9.598
				c0.224,0.436-0.209,1.101-0.963,1.484c-0.754,0.383-1.545,0.342-1.768-0.094l-4.149-8.145L51.505,9.933z M56.184,2.028
				l-8.5,12.367l-0.001-0.002c-0.37,0.465-1.188,0.474-1.863,0.01c-0.675-0.465-0.96-1.23-0.659-1.742l-0.002-0.002l8.524-12.403
				l0,0c0.284-0.39,1.066-0.325,1.758,0.15c0.697,0.479,1.037,1.195,0.762,1.598C56.195,2.012,56.189,2.02,56.184,2.028z
				 M23.934,1.887V14.67c-0.377-0.42-0.924-0.684-1.533-0.684c-0.608,0-1.155,0.264-1.533,0.684V1.887c0-0.011,0-0.022,0-0.034
				c0-0.847,0.687-1.534,1.533-1.534c0.847,0,1.533,0.687,1.533,1.534C23.934,1.864,23.934,1.875,23.934,1.887L23.934,1.887z
				 M26.704,19.535V1.887c0-0.011,0-0.022,0-0.034c0-0.847,0.686-1.534,1.533-1.534c0.846,0,1.532,0.687,1.532,1.534
				c0,0.011,0,0.022,0,0.034v17.648c0,0.008,0,0.016,0,0.025c0,0.846-0.686,1.533-1.532,1.533c-0.847,0-1.533-0.688-1.533-1.533
				C26.704,19.551,26.704,19.543,26.704,19.535L26.704,19.535z M82.702,19.535V1.887c0-0.011,0-0.022,0-0.034
				c0-0.847,0.687-1.534,1.532-1.534c0.847,0,1.533,0.687,1.533,1.534c0,0.011,0,0.022,0,0.034v17.648c0,0.008,0,0.016,0,0.025
				c0,0.846-0.688,1.533-1.533,1.533s-1.532-0.688-1.532-1.533C82.702,19.551,82.702,19.543,82.702,19.535L82.702,19.535z
				 M88.066,3.494l3.063,6.155v9.886c0,0.008,0,0.016,0,0.025c0,0.846-0.687,1.533-1.532,1.533s-1.531-0.688-1.531-1.533
				c0-0.011,0-0.019,0-0.025l0,0V3.494z M96.908,11.933V1.946c0-0.011,0-0.022,0-0.034c0-0.847,0.686-1.535,1.531-1.535
				c0.847,0,1.533,0.688,1.533,1.535c0,0.011,0,0.022,0,0.034v16.142L96.908,11.933z M97.096,20.281l-0.002,0.002L88.271,2.587
				c-0.006-0.01-0.01-0.02-0.017-0.03c-0.378-0.759-0.069-1.68,0.688-2.057S90.621,0.431,91,1.19c0.004,0.01,0.01,0.02,0.014,0.03
				l8.791,17.627c0.014,0.024,0.027,0.051,0.039,0.076c0.379,0.76,0.071,1.68-0.686,2.059c-0.758,0.377-1.68,0.067-2.057-0.689
				C97.1,20.289,97.098,20.285,97.096,20.281z M73.152,8.759H71.62c-0.603,0-1.146,0.251-1.532,0.655V3.266
				c0.387,0.403,0.93,0.653,1.531,0.653h1.533V8.759z M73.152,13.008v6.527c0,0.008,0,0.016,0,0.025
				c0,0.846-0.687,1.533-1.532,1.533c-0.847,0-1.532-0.688-1.532-1.533c0-0.011,0-0.019,0-0.025l0,0v-7.182
				c0.387,0.404,0.93,0.655,1.532,0.655H73.152z M45.036,14.447c0.38,0.484,1.03,0.805,1.768,0.805c0.488,0,0.938-0.141,1.297-0.376
				v4.659c0,0.008,0,0.016,0,0.025c0,0.846-0.686,1.533-1.533,1.533c-0.846,0-1.532-0.688-1.532-1.533c0-0.011,0-0.019,0-0.025
				V14.447z M45.036,11.62V1.887c0-0.011,0-0.022,0-0.034c0-0.847,0.686-1.534,1.532-1.534c0.847,0,1.533,0.687,1.533,1.534
				c0,0.011,0,0.022,0,0.034v5.35L45.036,11.62z M20.871,16.078c0.031-0.82,0.705-1.477,1.532-1.477c0.827,0,1.5,0.655,1.531,1.477
				h0.001c0-0.268,0-0.09,0,0.531c0,2.477-2.381,4.484-5.318,4.484c-2.938,0-5.351-2.009-5.351-4.484c0-0.82,0-0.998-0.001-0.531
				h0.002c0.031-0.82,0.705-1.477,1.532-1.477c0.827,0,1.5,0.655,1.531,1.477h0.001c0,0.17,0,0.289,0,0.357
				c0,0.877,1.026,1.59,2.276,1.59s2.263-0.713,2.263-1.59c0-0.056,0-0.176-0.001-0.357H20.871z M40.087,5.335h-0.002
				c0-0.183,0.001-0.303,0.001-0.358c0-0.878-1.013-1.59-2.263-1.59s-2.276,0.712-2.276,1.59c0,0.068,0,0.188,0,0.358h-0.001
				c-0.031,0.82-0.705,1.476-1.531,1.476c-0.826,0-1.5-0.655-1.532-1.476H32.48c0.001,0.465,0.002,0.288,0.002-0.531
				c0-2.477,2.414-4.485,5.351-4.485c2.938,0,5.318,2.008,5.318,4.485c0,0.621,0,0.798,0,0.531H43.15
				c-0.031,0.82-0.705,1.476-1.531,1.476C40.793,6.811,40.119,6.156,40.087,5.335z M35.546,6.693v7.977
				c-0.378-0.42-0.924-0.684-1.533-0.684c-0.609,0-1.155,0.264-1.533,0.684V6.693c0.378,0.419,0.924,0.683,1.533,0.683
				C34.622,7.376,35.168,7.112,35.546,6.693z M40.087,16.078c0.031-0.82,0.705-1.477,1.532-1.477c0.827,0,1.5,0.655,1.531,1.477
				h0.001c0-0.268,0-0.09,0,0.531c0,2.477-2.381,4.484-5.318,4.484s-5.351-2.009-5.351-4.484c0-0.82,0-0.998-0.002-0.531h0.003
				c0.031-0.82,0.705-1.477,1.532-1.477c0.827,0,1.5,0.655,1.531,1.477h0.001c0,0.17,0,0.289,0,0.357c0,0.877,1.027,1.59,2.276,1.59
				c1.249,0,2.263-0.713,2.263-1.59c0-0.056,0-0.176-0.001-0.357H40.087z M65.021,5.335H65.02c0-0.183,0-0.303,0-0.358
				c0-0.878-1.012-1.59-2.262-1.59s-2.275,0.712-2.275,1.59c0,0.068,0,0.188,0,0.358H60.48c-0.031,0.82-0.705,1.476-1.531,1.476
				c-0.827,0-1.501-0.655-1.531-1.476h-0.004c0.002,0.465,0.002,0.288,0.002-0.531c0-2.477,2.414-4.485,5.352-4.485
				s5.318,2.008,5.318,4.485c0,0.621,0,0.798,0,0.531h-0.002c-0.031,0.82-0.705,1.476-1.531,1.476S65.053,6.156,65.021,5.335z
				 M60.98,5.885l5.862,8.07c-0.524-0.086-1.081,0.029-1.547,0.367c-0.521,0.379-0.813,0.955-0.847,1.553l-6.133-8.439
				c0.607,0.198,1.297,0.113,1.854-0.292C60.607,6.828,60.882,6.374,60.98,5.885z M65.021,16.078
				c0.031-0.82,0.705-1.477,1.531-1.477c0.825,0,1.5,0.655,1.53,1.477h0.002c0-0.268,0-0.09,0,0.531
				c0,2.477-2.382,4.484-5.317,4.484c-2.938,0-5.353-2.009-5.353-4.484c0-0.82,0-0.998-0.002-0.531h0.004
				c0.03-0.82,0.704-1.477,1.53-1.477s1.5,0.655,1.531,1.477h0.002c0,0.17,0,0.289,0,0.357c0,0.877,1.025,1.59,2.275,1.59
				s2.262-0.713,2.262-1.59c0-0.056,0-0.176,0-0.357H65.021z"/>
		</g>
	</g>
</g>
</svg>
