<?xml version="1.0" encoding="utf-8"?>
<!-- Generator: Adobe Illustrator 16.0.0, SVG Export Plug-In . SVG Version: 6.00 Build 0)  -->
<!DOCTYPE svg PUBLIC "-//W3C//DTD SVG 1.1//EN" "http://www.w3.org/Graphics/SVG/1.1/DTD/svg11.dtd">
<svg version="1.1" id="Слой_1" xmlns="http://www.w3.org/2000/svg" xmlns:xlink="http://www.w3.org/1999/xlink" x="0px" y="0px"
	 width="100px" height="33px" viewBox="0 0 100 33" enable-background="new 0 0 100 33" xml:space="preserve">
<rect fill="#19171C" width="100" height="33"/>
<title>A1D0A6F0-21BF-49D6-BE1B-A97B821B45ED</title>
<desc>Created with sketchtool.</desc>
<g id="Artboard" transform="translate(-580.000000, -192.000000)" enable-background="new    ">
	<g id="Group-23" transform="translate(580.000000, 192.000000)">
		<path id="Combined-Shape" fill="#FCD400" d="M0,0h100v33H0V0z M2.3,2.3v28.5h95.4V2.3H2.3z M36.3,6.7c2.1,0,3.9,0,5.4,0
			c0.3,0,1,0.2,1.7,0.7c0.9,0.6,1.4,1.2,2,2.2c0.4,0.7,0.4,1.9,0.1,2.9c-0.1,0.4-0.2,0.6-0.7,1.2c-0.1,0.2-0.4,0.5-0.9,1l2,4.8h-3.7
			l-2-4.1H40v4.1h-3.6V6.7H36.3z M40,9.7v3.7c0.3-0.1,0.5-0.2,0.9-0.4c0.5-0.3,1.1-0.9,1.1-1.7c0-0.8-1.1-1.3-1.3-1.4
			C40.4,9.8,40.2,9.7,40,9.7z M50,6.7h3.2L57.6,19.4h-3.8l-0.6-2h-3.1l-0.6,2h-3.4L50,6.7z M51.8,11.7L51,14.3h1.7L51.8,11.7z
			 M79.9,6.7H83.1l4.4,12.7h-3.8l-0.601-2H80l-0.6,2H76L79.9,6.7z M81.7,11.7l-0.9,2.6h1.7L81.7,11.7z M58.4,6.7
			c3.199,0,4.899,0,5.3,0c0.5,0,1,0.5,1.5,1.1c0.7,0.7,1.399,1.6,1.399,2.4c0,0.2,0,0.7-0.3,1.5c-0.1,0.3-0.5,0.8-1.1,1.6
			c0.5,0.5,0.899,0.9,1.1,1.1c0.5,0.6,0.601,1.1,0.601,1.5c0,1-0.801,1.8-1.301,2.2c-0.8,0.7-1.5,1.301-1.8,1.301
			c-0.5,0-2.3,0-5.5,0V6.7H58.4z M61.6,9.7V12c0.2,0,0.301,0,0.4,0c0.2-0.1,0.9-0.4,0.9-1S62.2,9.8,62,9.8
			C61.9,9.7,61.8,9.7,61.6,9.7z M61.6,14.3v2.3c0.2,0,0.301,0,0.4,0c0.2-0.1,0.9-0.4,0.9-1s-0.7-1.1-0.9-1.2
			C61.9,14.3,61.8,14.3,61.6,14.3z M85.4,6.7H94.3v3.6h-2.6v9.2H88.1v-9.2H85.4V6.7z M70.6,6.7H75.7v3h-3.4
			c-1.1,0.9-1.6,2.1-1.6,3.6s0.5,2.5,1.6,3.1l3.4,0.1v3H70.6c-2.199-1.3-3.3-3.3-3.3-6.2C67.3,10.4,68.4,8.3,70.6,6.7z M8.6,4.1l6,6
			C16.7,9.4,18.8,9,20.8,9s4.2,0.4,6.3,1.2l6-6c0,7,0,11.3,0,12.8c0,0.8-0.1,1.3-0.2,1.5c-0.1,0.3-0.4,1-0.9,1.7
			c-2,2.5-5.8,6.7-6.8,7.7C24.5,28.6,23.6,29,20.9,29c-2.7,0-4-0.6-4.5-1.1c-1.6-1.7-4.3-4.9-6.6-7.7c-0.5-0.601-0.9-1.3-1-1.7
			c-0.1-0.3-0.2-0.8-0.2-1.5C8.6,15.5,8.6,11.2,8.6,4.1z M12.2,17l2.4,3.9l3.9,1L12.2,17z M29.5,17l-6.3,4.9l3.9-1L29.5,17z
			 M44.4,24.9c-0.1,0-0.2,0-0.2,0.1c-0.1,0-0.1,0-0.2,0s-0.1,0-0.2,0c-0.2,0-0.4,0.1-0.5,0.1c-0.2,0-0.4,0-0.6,0
			c-0.4,0-0.8-0.1-1.1-0.199C41.3,24.8,41,24.6,40.8,24.4c-0.2-0.2-0.3-0.5-0.3-0.801c0-0.199,0.1-0.399,0.2-0.6
			c0.1-0.2,0.3-0.4,0.5-0.5c0.2-0.1,0.4-0.2,0.5-0.2c0.2-0.1,0.4-0.1,0.5-0.1c0.2,0,0.4,0,0.6,0c0.3,0,0.6,0,0.9,0.1
			c0.2,0,0.5,0.101,0.7,0.2v0.7C44.2,23.1,44,23.1,43.8,23c-0.2-0.1-0.4-0.1-0.7-0.1c-0.3,0-0.6,0-0.8,0.1c-0.2,0.1-0.3,0.2-0.4,0.3
			c-0.1,0.101-0.1,0.3-0.1,0.4c0,0.1,0,0.3,0.1,0.399c0.1,0.101,0.2,0.2,0.4,0.301c0.2,0.1,0.4,0.1,0.7,0.1c0.2,0,0.3,0,0.5,0v-0.3
			H43V23.6h1.6V24.9H44.4z M51.2,25.1h-1l-0.3-0.6h-1.5l-0.3,0.6h-1l1.5-2.899h1.1L51.2,25.1z M49.6,24l-0.5-1.1L48.6,24H49.6z
			 M58.1,25.1H57V23.4L56.2,25h-0.7l-0.7-1.6V25.1h-1.1V22.2H55.1l0.7,1.6l0.601-1.6h1.5V25.1H58.1z M64.6,24.3
			c0,0.3-0.1,0.5-0.3,0.601C64.1,25,63.8,25.1,63.4,25.1h-2.2V22.2H63c0.2,0,0.4,0,0.6,0.1C63.8,22.4,63.9,22.4,64,22.4
			c0.1,0.1,0.2,0.1,0.2,0.199c0.1,0.101,0.1,0.2,0.1,0.301c0,0.1,0,0.199-0.1,0.3C64.1,23.3,64.1,23.4,64,23.4
			c-0.1,0.1-0.2,0.1-0.2,0.1c0.3,0.1,0.5,0.2,0.601,0.3C64.5,23.9,64.6,24.1,64.6,24.3z M63.2,23c0-0.1-0.101-0.2-0.2-0.3
			C62.9,22.6,62.7,22.6,62.5,22.6h-0.2v0.7h0.2c0.2,0,0.4,0,0.5-0.1C63.1,23.1,63.2,23.2,63.2,23z M63.4,24.2c0-0.3-0.2-0.4-0.7-0.4
			h-0.5v0.8h0.5C63.2,24.6,63.4,24.5,63.4,24.2z M70.4,25.1h-3V22.2H68.6v2.2H70.4V25.1z M74.3,25.1h-1V22.2h1V25.1z M81.1,25.1
			H80.2l-1.7-1.6v1.6h-1V22.2h0.9l1.699,1.6v-1.6h1V25.1z M87.8,24.9c-0.1,0-0.2,0-0.2,0.1c-0.1,0-0.1,0-0.199,0
			c-0.101,0-0.101,0-0.2,0c-0.2,0-0.4,0.1-0.5,0.1c-0.2,0-0.4,0-0.601,0C85.7,25.1,85.3,25,85,24.9c-0.3-0.101-0.6-0.301-0.8-0.5
			c-0.2-0.2-0.3-0.5-0.3-0.801C83.9,23.4,84,23.2,84.1,23c0.101-0.2,0.301-0.4,0.5-0.5c0.2-0.1,0.4-0.2,0.5-0.2
			c0.2-0.1,0.4-0.1,0.5-0.1c0.101,0,0.4,0,0.601,0c0.3,0,0.6,0,0.899,0.1c0.2,0,0.5,0.101,0.7,0.2v0.7C87.6,23.1,87.4,23.1,87.2,23
			s-0.4-0.1-0.7-0.1s-0.6,0-0.8,0.1s-0.3,0.2-0.4,0.3c-0.1,0.101-0.1,0.3-0.1,0.4c0,0.1,0,0.3,0.1,0.399
			c0.101,0.101,0.2,0.2,0.4,0.301c0.2,0.1,0.399,0.1,0.7,0.1c0.199,0,0.3,0,0.5,0v-0.3h-0.5V23.6H88V24.9H87.8z"/>
	</g>
</g>
</svg>
