<?xml version="1.0" encoding="utf-8"?>
<!-- Generator: Adobe Illustrator 16.0.0, SVG Export Plug-In . SVG Version: 6.00 Build 0)  -->
<!DOCTYPE svg PUBLIC "-//W3C//DTD SVG 1.1//EN" "http://www.w3.org/Graphics/SVG/1.1/DTD/svg11.dtd">
<svg version="1.1" id="Слой_1" xmlns="http://www.w3.org/2000/svg" xmlns:xlink="http://www.w3.org/1999/xlink" x="0px" y="0px"
	 width="100px" height="33px" viewBox="0 0 100 33" enable-background="new 0 0 100 33" xml:space="preserve">
<title>A1D0A6F0-21BF-49D6-BE1B-A97B821B45ED</title>
<desc>Created with sketchtool.</desc>
<g id="Icons">
	<g id="Artboard" transform="translate(-580.000000, -192.000000)">
		<g id="Group-23" transform="translate(580.000000, 192.000000)">
			<path id="Combined-Shape" fill="#8F9395" d="M0,0h100v33H0V0z M2.316,2.261v28.477h95.368V2.261H2.316z M36.311,6.701
				c2.092,0,3.884,0,5.376,0c0.307,0,1.013,0.199,1.706,0.67c0.89,0.604,1.396,1.182,1.957,2.189
				c0.392,0.704,0.437,1.895,0.133,2.854c-0.131,0.416-0.24,0.649-0.662,1.238c-0.149,0.208-0.448,0.547-0.898,1.018l1.982,4.762
				h-3.659l-1.965-4.087H39.95v4.087h-3.639V6.701z M39.95,9.716v3.685c0.258-0.061,0.542-0.207,0.854-0.439
				c0.467-0.349,1.131-0.885,1.131-1.725c0-0.84-1.083-1.317-1.338-1.414C40.426,9.758,40.211,9.723,39.95,9.716z M50.042,6.701
				h3.205l4.404,12.731h-3.777l-0.627-2.042h-3.122l-0.598,2.042h-3.373L50.042,6.701z M51.82,11.726l-0.869,2.596h1.736
				L51.82,11.726z M79.9,6.701h3.205l4.404,12.731h-3.777l-0.627-2.042h-3.122l-0.598,2.042h-3.372L79.9,6.701z M81.68,11.726
				l-0.869,2.596h1.736L81.68,11.726z M58.396,6.701c3.155,0,4.937,0,5.345,0c0.527,0,0.999,0.523,1.521,1.064
				c0.692,0.719,1.404,1.587,1.404,2.449c0,0.202,0.02,0.74-0.33,1.512c-0.135,0.297-0.493,0.822-1.074,1.574
				c0.543,0.514,0.9,0.879,1.074,1.097c0.492,0.62,0.647,1.107,0.647,1.541c0,0.995-0.804,1.794-1.31,2.234
				c-0.807,0.701-1.512,1.26-1.819,1.26c-0.495,0-2.315,0-5.459,0V6.701z M61.621,9.716v2.261c0.158,0.017,0.295,0.002,0.414-0.046
				c0.177-0.071,0.91-0.429,0.91-0.976c0-0.546-0.742-1.123-0.91-1.181C61.922,9.735,61.785,9.716,61.621,9.716z M61.621,14.322
				v2.262c0.158,0.017,0.295,0.001,0.414-0.046c0.177-0.071,0.91-0.429,0.91-0.975c0-0.547-0.742-1.123-0.91-1.182
				C61.922,14.342,61.785,14.322,61.621,14.322z M85.359,6.701h8.934v3.58h-2.6v9.151h-3.596V10.28h-2.738V6.701z M70.637,6.701
				h5.129v3.015h-3.392c-1.095,0.914-1.643,2.102-1.643,3.564c0,1.462,0.548,2.499,1.643,3.109l3.392,0.081v2.962h-5.129
				c-2.195-1.297-3.293-3.347-3.293-6.152C67.344,10.475,68.441,8.282,70.637,6.701z M8.602,4.104l6.002,6.033
				c2.073-0.767,4.153-1.151,6.239-1.151s4.173,0.384,6.26,1.151l5.981-6.033c0,7.022,0,11.289-0.002,12.799
				c-0.001,0.759-0.108,1.265-0.186,1.519c-0.094,0.307-0.406,1.004-0.937,1.664c-2.021,2.516-5.807,6.75-6.771,7.683
				c-0.702,0.679-1.555,1.128-4.345,1.128c-2.791,0-4.038-0.575-4.546-1.128c-1.558-1.695-4.292-4.898-6.574-7.683
				c-0.522-0.637-0.855-1.287-0.953-1.664c-0.077-0.297-0.186-0.789-0.186-1.48C8.585,15.48,8.591,11.201,8.602,4.104z
				 M12.159,17.002l2.378,3.86l3.908,0.998L12.159,17.002z M29.528,17.002l-6.286,4.858l3.909-0.998L29.528,17.002z M44.431,24.922
				c-0.085,0.023-0.158,0.043-0.218,0.059c-0.061,0.015-0.119,0.029-0.174,0.041c-0.056,0.013-0.136,0.029-0.242,0.049
				c-0.179,0.029-0.358,0.053-0.536,0.069c-0.178,0.016-0.367,0.024-0.564,0.024c-0.398,0-0.766-0.055-1.104-0.161
				c-0.338-0.106-0.608-0.273-0.811-0.499c-0.203-0.225-0.304-0.502-0.304-0.83c0-0.211,0.052-0.418,0.157-0.622
				c0.105-0.204,0.265-0.366,0.479-0.489c0.178-0.102,0.357-0.18,0.539-0.232c0.182-0.054,0.36-0.09,0.534-0.107
				c0.173-0.018,0.365-0.027,0.574-0.027c0.345,0,0.63,0.02,0.854,0.058s0.471,0.089,0.738,0.151v0.684
				c-0.177-0.076-0.365-0.141-0.563-0.191c-0.198-0.052-0.445-0.078-0.741-0.078c-0.341,0-0.614,0.049-0.819,0.144
				c-0.205,0.095-0.347,0.209-0.428,0.341c-0.08,0.133-0.12,0.26-0.12,0.384c0,0.146,0.046,0.28,0.139,0.403
				s0.232,0.223,0.419,0.297c0.187,0.074,0.412,0.111,0.676,0.111c0.151,0,0.311-0.015,0.481-0.044v-0.34h-0.532v-0.582h1.565
				V24.922z M51.199,25.127h-1.05l-0.277-0.594h-1.477l-0.282,0.594h-1.05l1.504-2.932h1.133L51.199,25.127z M49.628,24.038
				l-0.494-1.089l-0.499,1.089H49.628z M58.063,25.086h-1.097v-1.674l-0.722,1.629h-0.661l-0.685-1.629v1.674h-1.066v-2.891
				l1.395,0.001l0.688,1.591l0.646-1.591l1.503-0.001V25.086z M64.599,24.295c0,0.254-0.112,0.455-0.336,0.605
				s-0.538,0.227-0.94,0.227h-2.197v-2.932h1.838c0.238,0,0.445,0.018,0.622,0.053s0.319,0.084,0.427,0.145
				c0.107,0.063,0.188,0.135,0.241,0.217c0.054,0.084,0.079,0.175,0.079,0.273c0,0.107-0.027,0.206-0.082,0.297
				c-0.055,0.092-0.123,0.166-0.204,0.225s-0.163,0.1-0.245,0.123c0.26,0.08,0.457,0.18,0.594,0.3S64.599,24.104,64.599,24.295z
				 M63.193,23.033c0-0.135-0.057-0.225-0.168-0.269s-0.284-0.067-0.52-0.067h-0.223v0.671h0.227c0.242,0,0.416-0.022,0.522-0.067
				C63.139,23.257,63.193,23.168,63.193,23.033z M63.441,24.248c0-0.252-0.233-0.377-0.699-0.377h-0.459v0.754h0.459
				C63.208,24.625,63.441,24.499,63.441,24.248z M70.401,25.127h-2.995v-2.891h1.188v2.198h1.807V25.127z M74.27,25.127h-1.025
				v-2.891h1.025V25.127z M81.09,25.127h-0.889l-1.719-1.61v1.61h-0.988v-2.891h0.887l1.713,1.602v-1.602h0.996V25.127z
				 M87.829,24.922c-0.085,0.024-0.157,0.043-0.218,0.059s-0.119,0.029-0.174,0.042c-0.057,0.013-0.137,0.028-0.242,0.048
				c-0.18,0.031-0.357,0.055-0.536,0.07s-0.366,0.023-0.564,0.023c-0.397,0-0.767-0.053-1.104-0.16
				c-0.338-0.107-0.608-0.273-0.811-0.498c-0.203-0.226-0.304-0.502-0.304-0.83c0-0.212,0.052-0.42,0.156-0.623
				c0.105-0.203,0.265-0.367,0.479-0.489c0.178-0.102,0.357-0.179,0.539-0.232c0.183-0.054,0.36-0.089,0.534-0.107
				c0.173-0.019,0.364-0.027,0.574-0.027c0.345,0,0.629,0.019,0.854,0.058c0.225,0.038,0.471,0.088,0.738,0.15v0.686
				c-0.177-0.077-0.364-0.141-0.563-0.192c-0.197-0.052-0.445-0.077-0.741-0.077c-0.341,0-0.614,0.047-0.819,0.143
				s-0.347,0.209-0.428,0.342c-0.08,0.131-0.119,0.26-0.119,0.383c0,0.146,0.046,0.281,0.139,0.404
				c0.092,0.123,0.231,0.221,0.418,0.296c0.188,0.074,0.412,0.111,0.677,0.111c0.151,0,0.312-0.015,0.481-0.044v-0.34h-0.533v-0.582
				h1.565V24.922z"/>
		</g>
	</g>
</g>
</svg>
