<?xml version="1.0" encoding="utf-8"?>
<!-- Generator: Adobe Illustrator 16.0.0, SVG Export Plug-In . SVG Version: 6.00 Build 0)  -->
<!DOCTYPE svg PUBLIC "-//W3C//DTD SVG 1.1//EN" "http://www.w3.org/Graphics/SVG/1.1/DTD/svg11.dtd">
<svg version="1.1" id="Слой_1" xmlns="http://www.w3.org/2000/svg" xmlns:xlink="http://www.w3.org/1999/xlink" x="0px" y="0px"
	 width="100px" height="31.7px" viewBox="0 0 100 31.7" enable-background="new 0 0 100 31.7" xml:space="preserve">
<title>6AAB6F08-4537-4887-B5B1-77EDDD44343E</title>
<desc>Created with sketchtool.</desc>
<g>
	<path fill="#8F9395" d="M0.1,8.9c0-2.8,0-5.5,0-8.3c0-0.5,0.1-0.5,0.5-0.5c2.9,0,5.8,0,8.7,0c1,0,2,0.2,2.9,0.4
		c1.6,0.4,2.6,1.5,3,3.2c0.3,1.3,0.3,2.5-0.1,3.8c-0.5,1.5-1.5,2.4-2.9,2.8c-0.3,0.1-0.3,0.2-0.2,0.5c0.7,1.2,1.4,2.3,2.1,3.5
		c0.6,1,1.1,1.9,1.7,2.9c0.2,0.4,0.1,0.6-0.3,0.6c-0.9,0-1.8,0-2.8,0c-0.5,0-0.8-0.199-1-0.6c-0.5-0.9-1-1.7-1.5-2.6
		c-0.7-1.2-1.3-2.4-2-3.5c-0.1-0.1-0.3-0.3-0.4-0.3c-1.2,0-2.5,0-3.7,0c-0.3,0-0.4,0.1-0.4,0.4c0,2,0,4,0,6c0,0.4-0.2,0.6-0.5,0.6
		c-0.9,0-1.8,0-2.7,0c-0.3,0-0.5-0.1-0.5-0.5C0.1,14.5,0.1,11.7,0.1,8.9L0.1,8.9z M6.9,3.3L6.9,3.3C6,3.2,5.1,3.2,4.2,3.2
		c-0.2,0-0.5,0-0.4,0.3c0,1.2,0,2.5,0,3.7c0,0.3,0.1,0.4,0.4,0.4c1.4,0,2.9,0,4.3,0c0.7,0,1.4-0.1,2.1-0.3c1-0.3,1.3-1.2,1.1-2.5
		c-0.1-0.9-0.8-1.5-1.7-1.5C8.9,3.3,7.9,3.3,6.9,3.3z"/>
	<path fill="#8F9395" d="M30.4,10.3c-1.6,0-3.2,0-4.7,0c-0.2,0-0.4,0-0.4,0.3c0.1,1.3,0.3,2.7,1.5,3.5c0.7,0.5,1.5,0.6,2.3,0.6
		c2,0,4,0,6,0c0.5,0,0.6,0.1,0.6,0.6c0,0.6,0,1.3,0,1.9c0,0.301-0.1,0.5-0.5,0.5c-2.7,0-5.5,0.2-8.2-0.199c-2.4-0.301-4-1.701-5-3.8
		c-0.7-1.4-0.8-3-0.8-4.6c0-1.2,0.1-2.5,0.4-3.7c0.6-2.7,2.3-4.6,5.1-5.1c1.1-0.1,2.2-0.2,3.3-0.2c1.7-0.1,3.4,0,5.1,0
		c0.4,0,0.5,0.1,0.5,0.5c0,0.7,0,1.4,0,2c0,0.5-0.1,0.5-0.6,0.5c-1.7,0-3.5,0-5.2,0c-0.7,0-1.3,0.1-2,0.2c-1.2,0.3-1.9,1-2.3,2.2
		c-0.2,0.4-0.2,0.9-0.3,1.3c-0.1,0.3,0,0.4,0.3,0.4s0.6,0,0.9,0c2.6,0,5.2,0,7.8,0c0.1,0,0.2,0,0.2,0c1.2-0.1,1.1-0.2,1.1,1.1
		c0,0.5,0,0.9,0,1.4s-0.1,0.6-0.6,0.6C33.5,10.4,31.9,10.3,30.4,10.3L30.4,10.3z"/>
	<path fill="#8F9395" d="M67.7,13.6c-1.2,0-2.3,0-3.5,0c-0.3,0-0.4,0.1-0.5,0.4c-0.4,1.1-0.8,2.2-1.2,3.2c-0.2,0.4-0.4,0.6-0.9,0.6
		c-0.899,0-1.699,0-2.6,0c-0.6,0-0.7-0.199-0.4-0.699c0.9-2.1,1.801-4.1,2.7-6.2c1.101-2.5,2.2-5.1,3.2-7.6c0.4-0.9,0.8-1.8,1.2-2.8
		C65.8,0.2,66.1,0,66.4,0c0.899,0,1.8,0,2.8,0C69.6,0,69.8,0.2,70,0.5c0.8,2,1.7,4,2.5,6c0.9,2.1,1.8,4.3,2.8,6.4
		c0.601,1.4,1.2,2.9,1.8,4.3c0.2,0.4,0,0.6-0.399,0.6c-1,0-2,0-2.9,0c-0.399,0-0.6-0.199-0.7-0.5C72.7,16.2,72.3,15.1,71.9,14
		C71.8,13.7,71.6,13.6,71.3,13.6C70,13.6,68.8,13.6,67.7,13.6L67.7,13.6z M67.7,10.4L67.7,10.4c0.6,0,1.3,0,1.899,0
		c0.801,0,0.801,0,0.4-0.7c0-0.1,0-0.1-0.1-0.2C69.2,7.7,68.5,5.8,67.8,4c0-0.1-0.1-0.2-0.2-0.2c0,0-0.1,0.1-0.199,0.2
		C67,5.1,66.6,6.2,66.2,7.4c-0.3,0.9-0.7,1.7-1,2.6c-0.2,0.4-0.101,0.5,0.3,0.5C66.2,10.4,67,10.4,67.7,10.4z"/>
	<path fill="#8F9395" d="M45.4,6.4c0,1.8,0,3.6,0,5.4c0,1.6,0.9,2.7,2.5,2.9c0.5,0.1,0.9,0.1,1.4,0.1c1.3,0,2.7,0,4,0
		c0.3,0,0.5,0.1,0.5,0.4c0,0.7,0,1.4,0,2.099c0,0.301-0.2,0.5-0.5,0.5c-2.399,0-4.8,0.101-7.2-0.199c-1.5-0.2-2.6-1.1-3.4-2.3
		c-0.7-1-0.9-2-1-3.2c0-2.1,0-4.3,0-6.4c0-1.6,0-3.3,0-4.9c0-0.7,0.1-0.7,0.7-0.7c0.8,0,1.7,0,2.5,0c0.5,0,0.6,0.1,0.6,0.6
		C45.4,2.6,45.4,4.5,45.4,6.4L45.4,6.4z"/>
	<path fill="#8F9395" d="M81.2,15.3c-0.101-1.5,1.2-2.6,2.399-2.6c1.5,0,2.7,1.1,2.7,2.5c0,1.4-1.1,2.599-2.399,2.7
		C82.6,18,81.2,16.799,81.2,15.3z"/>
	<path fill="#8F9395" d="M94.8,15.3c-0.1-1.5,1.3-2.6,2.5-2.6c1.5,0,2.7,1.1,2.7,2.6c0,1.4-1.1,2.6-2.5,2.6S94.7,16.7,94.8,15.3z"/>
	<path fill="#8F9395" d="M81.2,2.6c0-1.4,1.2-2.6,2.6-2.6C85.2,0,86.4,1.2,86.4,2.6S85.2,5.2,83.8,5.2C82.5,5.3,81.2,4.2,81.2,2.6z"
		/>
	<path fill="#8F9395" d="M97.4,5.3c-1.101,0-2.601-1-2.601-2.7c0-1.4,1.2-2.5,2.601-2.5c1.399,0,2.6,1.2,2.6,2.6
		C100,4.1,98.8,5.3,97.4,5.3z"/>
	<path fill="#8F9395" d="M90.5,6.3c1.4,0,2.6,1.1,2.6,2.6c0,1.4-1.199,2.6-2.6,2.6c-1.5,0-2.6-1.2-2.6-2.6S89.1,6.3,90.5,6.3z"/>
	<path fill="#8F9395" d="M42,29.799c0.1-0.199,0.1-0.299,0.2-0.5c0.4-1.299,0.7-2.5,1.1-3.799C43.4,25.2,43.6,24.9,44,25
		c0.4,0,0.5,0.299,0.5,0.6c0.3,1.8,0.6,3.5,0.9,5.3c0,0.3,0,0.5-0.4,0.601c-0.3,0-0.4-0.201-0.4-0.5c-0.2-1.4-0.4-2.9-0.6-4.301
		c0-0.1-0.1-0.199-0.2-0.3c-0.1,0.101-0.2,0.2-0.2,0.3c-0.4,1.4-0.8,2.9-1.3,4.4c0,0.199-0.3,0.3-0.4,0.4
		c-0.1,0-0.3-0.201-0.4-0.301c-0.4-1.4-0.9-2.9-1.3-4.3c0-0.101,0-0.2-0.1-0.2C40,26.6,40,26.6,39.9,26.5c0,0.1-0.1,0.1-0.1,0.199
		c-0.1,1-0.3,2-0.4,3c-0.1,0.5-0.1,1-0.2,1.5c0,0.301-0.2,0.5-0.5,0.5c-0.3-0.1-0.4-0.3-0.3-0.6c0.3-1.7,0.6-3.301,0.9-5
		c0.1-0.6,0.3-0.9,0.6-0.9c0.3,0,0.5,0.301,0.7,0.801c0.3,1.199,0.7,2.5,1.1,3.699c0,0.1,0.1,0.2,0.2,0.301
		C41.9,29.799,42,29.799,42,29.799z"/>
	<path fill="#8F9395" d="M74.9,28.2c0-0.9,0-1.699,0-2.6c0-0.2,0.1-0.4,0.199-0.6c0.2,0.1,0.4,0.199,0.601,0.299
		c0.7,0.9,1.3,1.9,2,2.9c0.3,0.5,0.6,1,1,1.4c0.1,0.1,0.2,0.1,0.3,0.199c0-0.1,0.1-0.199,0.1-0.299c0-1.301,0-2.601,0-3.9
		c0-0.2,0-0.4,0.101-0.5c0.2-0.2,0.5-0.1,0.6,0.1c0,0.1,0,0.2,0,0.4c0,1.699,0,3.5,0,5.199c0,0.201-0.1,0.5-0.2,0.601
		c-0.3,0.2-0.399-0.101-0.6-0.3c-1-1.4-2-2.801-2.9-4.2c-0.1-0.101-0.199-0.2-0.3-0.3c0,0.1-0.1,0.3-0.1,0.4c0,1.299,0,2.6,0,3.899
		c0,0.2-0.101,0.5-0.4,0.5S74.9,31.2,74.9,30.9C74.9,30.1,74.9,29.1,74.9,28.2L74.9,28.2z"/>
	<path fill="#8F9395" d="M98.3,27.799c0.9-0.1,1.3-0.1,1.2,1.201c-0.1,1-0.4,1.799-1.4,2.199c-1,0.5-2.1,0.4-3-0.3
		C94.7,30.6,94.4,30.1,94.2,29.6c-0.5-1.301-0.3-3.4,1.3-4.2c0.9-0.5,2.5-0.399,3.2,0.2c0.2,0.199,0.399,0.4,0.2,0.6
		c-0.2,0.301-0.4,0.1-0.7,0c-0.3-0.199-0.7-0.4-1.101-0.5c-0.8-0.199-1.5,0.2-2,0.801c-0.5,0.699-0.5,2.899,0.2,3.6
		c0.601,0.6,1.3,0.9,2,0.6c0.8-0.3,1.3-1,1.3-1.8c0-0.3-0.199-0.399-0.5-0.399c-0.199,0-0.399,0.1-0.6,0c-0.2,0-0.3-0.201-0.4-0.301
		c0.101-0.1,0.301-0.3,0.5-0.4C97.8,27.7,98.1,27.799,98.3,27.799z"/>
	<path fill="#8F9395" d="M4.5,27.799L4.5,27.799C5.9,27.7,5.7,28.2,5.7,29c-0.1,0.799-0.4,1.6-1.1,2.1c-0.9,0.699-2.7,0.5-3.5-0.301
		C-0.1,29.5,0,27.4,0.8,26.299c0.4-0.6,1-1,1.7-1.1c0.8-0.1,1.5-0.1,2.2,0.4c0.1,0.1,0.3,0.199,0.4,0.3c0.1,0,0.1,0.2,0,0.3
		s-0.3,0.1-0.5,0.1c-0.3-0.1-0.5-0.299-0.8-0.5c-1-0.5-2-0.1-2.5,0.801c-0.6,1.1-0.6,2.199,0,3.3c0.4,0.8,1.2,1.101,2,0.899
		C4.2,30.6,4.8,29.9,4.8,29c0-0.4-0.1-0.5-0.5-0.5c-0.2,0-0.5,0-0.7,0c-0.1,0-0.3-0.201-0.3-0.301s0.2-0.3,0.3-0.3
		C4,27.7,4.2,27.799,4.5,27.799L4.5,27.799z"/>
	<path fill="#8F9395" d="M19.3,31.1c0.1-0.4,0.3-0.6,0.4-0.9c0.6-1.6,1.2-3.1,1.8-4.699c0.1-0.201,0.3-0.5,0.5-0.5
		s0.5,0.199,0.6,0.399c0.4,1.101,0.8,2.101,1.2,3.2c0.3,0.8,0.6,1.5,0.9,2.3c0,0.101-0.1,0.3-0.1,0.5c-0.2-0.101-0.4-0.101-0.5-0.2
		c-0.2-0.3-0.3-0.6-0.4-0.9C23.6,30,23.4,29.9,23,29.9c-0.7,0-1.3,0-2,0c-0.3,0-0.5,0.101-0.6,0.399c-0.1,0.301-0.2,0.601-0.3,0.9
		c-0.1,0.1-0.3,0.2-0.4,0.2C19.5,31.4,19.4,31.2,19.3,31.1z M22,29.4L22,29.4c0.3,0,0.6,0,0.9,0c0.3,0,0.4-0.101,0.3-0.399
		c-0.3-0.9-0.6-1.801-1-2.601c0-0.101-0.1-0.2-0.2-0.2c-0.1,0.1-0.2,0.1-0.2,0.2c-0.3,0.899-0.6,1.8-0.9,2.601
		c-0.1,0.299,0,0.399,0.3,0.399C21.5,29.4,21.7,29.4,22,29.4z"/>
	<path fill="#8F9395" d="M59.7,28.2c0-0.9,0-1.8,0-2.699c0-0.201,0-0.5,0.3-0.5s0.4,0.199,0.4,0.5c0,1.799,0,3.6,0,5.399
		c0,0.3,0,0.5-0.4,0.5c-0.3,0-0.3-0.3-0.3-0.5C59.6,30,59.6,29.1,59.7,28.2L59.7,28.2z"/>
</g>
</svg>
