<?xml version="1.0" encoding="utf-8"?>
<!-- Generator: Adobe Illustrator 16.0.0, SVG Export Plug-In . SVG Version: 6.00 Build 0)  -->
<!DOCTYPE svg PUBLIC "-//W3C//DTD SVG 1.1//EN" "http://www.w3.org/Graphics/SVG/1.1/DTD/svg11.dtd">
<svg version="1.1" id="Слой_1" xmlns="http://www.w3.org/2000/svg" xmlns:xlink="http://www.w3.org/1999/xlink" x="0px" y="0px"
	 width="100px" height="17px" viewBox="0 0 100 17" enable-background="new 0 0 100 17" xml:space="preserve">
<path fill="#8F9395" d="M35.313,7.4c-1.1,0-2,0.4-2.5,1.4V7.6h-0.8V16h0.8v-3.6c0.5,1,1.3,1.399,2.5,1.399c1,0,1.8-0.3,2.3-1
	c0.5-0.6,0.8-1.3,0.8-2.2c0-0.899-0.3-1.699-0.8-2.3C37.013,7.7,36.313,7.4,35.313,7.4z M37.313,12.5c-0.5,0.5-1.1,0.8-2,0.8
	c-0.8,0-1.4-0.2-1.8-0.7s-0.7-1.1-0.7-1.8v-0.1c0-0.7,0.2-1.3,0.6-1.8c0.5-0.601,1.1-0.9,1.9-0.9c0.8,0,1.5,0.3,2,0.8
	c0.4,0.5,0.6,1.101,0.6,1.8C37.913,11.4,37.713,12,37.313,12.5z"/>
<path fill="#8F9395" d="M95.413,8.9c-0.601-0.9-1.4-1.3-2.4-1.3c-0.9,0-1.6,0.3-2.2,0.9c-0.6,0.6-0.899,1.3-0.899,2.2
	c0,0.899,0.3,1.6,0.899,2.2c0.601,0.6,1.4,0.899,2.2,0.899c1.1,0,1.9-0.399,2.4-1.3v1.2h0.8V7.8h-0.8V8.9z M94.713,12.4
	c-0.5,0.399-1,0.699-1.7,0.699s-1.2-0.199-1.7-0.699s-0.7-1-0.7-1.7s0.2-1.2,0.7-1.7s1-0.7,1.7-0.7s1.2,0.2,1.7,0.7
	c0.5,0.4,0.7,1,0.7,1.7S95.112,11.9,94.713,12.4z"/>
<path fill="#8F9395" d="M47.513,7.4c-0.5,0-0.9,0.1-1.3,0.3c-0.4,0.2-0.7,0.5-0.9,0.899v-1h-0.8v6.1h0.8V10c0-0.6,0.2-1.1,0.6-1.4
	c0.4-0.399,0.8-0.6,1.4-0.6c1.3,0,1.9,0.6,1.9,1.9V13.6h0.8V9.9C49.913,8.2,49.113,7.4,47.513,7.4z"/>
<path fill="#8F9395" d="M55.813,7.4c-0.899,0-1.7,0.3-2.2,1c-0.6,0.6-0.8,1.399-0.8,2.199c0,0.801,0.3,1.601,0.8,2.2
	c0.601,0.601,1.301,1,2.2,1c0.9,0,1.7-0.3,2.2-1c0.5-0.6,0.8-1.3,0.8-2.2c0-0.899-0.3-1.6-0.8-2.199
	C57.413,7.7,56.713,7.4,55.813,7.4z M57.513,12.4c-0.4,0.5-1,0.8-1.7,0.8s-1.3-0.3-1.7-0.8c-0.399-0.5-0.6-1.101-0.6-1.801
	c0-0.699,0.2-1.3,0.6-1.8c0.4-0.5,0.9-0.8,1.7-0.8s1.3,0.3,1.7,0.8s0.6,1.101,0.6,1.8C58.013,11.4,57.813,12,57.513,12.4z"/>
<path fill="#8F9395" d="M68.213,7.4c-0.4,0-0.8,0.1-1.101,0.3c-0.3,0.2-0.6,0.5-0.8,0.899c-0.3-0.8-1-1.3-2-1.3
	c-0.8,0-1.399,0.4-1.8,1.101V7.6h-0.7v6.1h0.7V9.9c0-0.5,0.2-1,0.5-1.301c0.3-0.399,0.7-0.6,1.2-0.6c1,0,1.6,0.6,1.6,1.8v3.9h0.7
	V9.8c0-0.5,0.1-0.899,0.5-1.3c0.2-0.3,0.6-0.5,1.1-0.5c0.601,0,1,0.2,1.2,0.5s0.4,0.7,0.4,1.3v3.9h0.7v-4c0-0.7-0.2-1.3-0.601-1.7
	C69.413,7.6,68.913,7.4,68.213,7.4z"/>
<path fill="#8F9395" d="M78.413,8.4c-0.5-0.7-1.2-1-2.2-1c-0.9,0-1.601,0.3-2.101,1c-0.5,0.6-0.8,1.399-0.8,2.3c0,1,0.3,1.8,0.8,2.3
	c0.5,0.6,1.2,0.9,2.101,0.9c0.8,0,1.399-0.2,2-0.7c0.399-0.4,0.7-0.9,0.8-1.5h-0.7c-0.2,0.5-0.399,0.8-0.7,1.1
	c-0.399,0.3-0.8,0.4-1.399,0.4c-0.7,0-1.2-0.2-1.601-0.601c-0.399-0.399-0.6-1-0.6-1.8h5.1C79.112,9.8,78.913,9,78.413,8.4z
	 M74.112,10.3c0.101-0.7,0.301-1.2,0.7-1.6c0.3-0.5,0.8-0.7,1.4-0.7c1.3,0,2,0.7,2.2,2.2h-4.301V10.3z"/>
<path fill="#8F9395" d="M28.613,9.8c-0.4-0.2-1.2-0.5-2.4-0.8c-0.9-0.2-1.5-0.4-1.8-0.5c-0.6-0.3-0.9-0.6-0.9-1.1s0.2-0.9,0.7-1.2
	c0.4-0.2,1-0.4,1.8-0.4s1.4,0.2,1.9,0.5c0.5,0.3,0.7,0.8,0.8,1.5h0.8c-0.1-0.9-0.4-1.5-1-2c-0.6-0.4-1.4-0.7-2.4-0.7
	c-0.9,0-1.7,0.2-2.3,0.5c-0.7,0.4-1,0.9-1,1.7c0,0.7,0.4,1.2,1.1,1.601c0.3,0.199,1,0.399,2.1,0.699c1.1,0.301,1.7,0.5,2,0.601
	c0.6,0.3,0.9,0.8,0.9,1.3s-0.3,0.9-0.8,1.2s-1.2,0.399-2,0.399c-0.9,0-1.5-0.199-2-0.5c-0.5-0.399-0.8-1-0.9-1.8h-0.8
	c0.1,1,0.5,1.8,1.2,2.3c0.6,0.4,1.5,0.7,2.5,0.7c1.1,0,1.9-0.2,2.5-0.6c0.7-0.4,1-1,1-1.7C29.813,10.8,29.413,10.2,28.613,9.8z"/>
<path fill="#5B6064" d="M17.013,8.6c0-0.8-0.5-1.6-0.7-1.8c-0.9-0.8-1.7-0.8-2.4-0.8c-0.6,0-3.6,0-8.9,0V4.9c4.7,0,7.4,0,8,0
	c1,0,1.4,0,2.3,0.3c0.8,0.3,1.4,1.2,1.5,1c0.1-0.2-0.3-1.1-1.1-2.1c-0.6-0.6-1.6-1.6-2.4-2.3c-1.7-1.4-4.5-1.8-5.7-1.8
	c-2.2,0-4.7,0-7.6,0c0,5,0,7.6,0,8c0,0.6,0.1,1.5,1,2.2c0.8,0.6,1.5,0.6,2.6,0.7c1.1,0,3.9,0,8.3,0V12c-5.2,0-7.9,0-8,0
	c-1,0-1.5-0.1-1.9-0.2c-0.3-0.1-0.7-0.3-1-0.5c-0.5-0.3-0.9-0.7-1-0.7c-0.2,0.101,0.8,1.801,1.3,2.5c1.1,1.4,2.5,2.301,3,2.601
	c2.1,1.3,4,1.3,5,1.3c1.2,0,3.6,0,7.1,0c0.3,0,0.5-0.2,0.5-0.5l0,0C17.013,12.3,17.013,9.7,17.013,8.6z"/>
<path fill="#8F9395" d="M41.313,5.4c-0.2,0-0.3,0.1-0.4,0.2s-0.2,0.2-0.2,0.4s0.1,0.3,0.2,0.4s0.3,0.2,0.4,0.2
	c0.2,0,0.3-0.1,0.4-0.2c0.1-0.1,0.2-0.3,0.2-0.4c0-0.2-0.1-0.3-0.2-0.4C41.613,5.5,41.513,5.4,41.313,5.4z"/>
<rect x="99.313" y="5.1" fill="#8F9395" width="0.7" height="8.6"/>
<path fill="#8F9395" d="M84.612,7.4c-0.399,0-0.8,0.1-1.199,0.3c-0.4,0.2-0.601,0.5-0.801,0.899v-1h-0.699v6.1h0.699V10
	c0-0.6,0.2-1.1,0.601-1.4c0.3-0.399,0.8-0.6,1.3-0.6c1.2,0,1.8,0.6,1.8,1.9V13.6h0.7V9.9C87.013,8.3,86.213,7.4,84.612,7.4z"/>
<rect x="40.913" y="7.6" fill="#8F9395" width="0.7" height="6.1"/>
<title>D41A1E93-A54C-4EB8-A439-D29FDBC2B901</title>
<desc>Created with sketchtool.</desc>
</svg>
