<?xml version="1.0" encoding="utf-8"?>
<!-- Generator: Adobe Illustrator 16.0.0, SVG Export Plug-In . SVG Version: 6.00 Build 0)  -->
<!DOCTYPE svg PUBLIC "-//W3C//DTD SVG 1.1//EN" "http://www.w3.org/Graphics/SVG/1.1/DTD/svg11.dtd">
<svg version="1.1" id="Слой_1" xmlns="http://www.w3.org/2000/svg" xmlns:xlink="http://www.w3.org/1999/xlink" x="0px" y="0px"
	 width="99.6px" height="30.7px" viewBox="0 0 99.6 30.7" enable-background="new 0 0 99.6 30.7" xml:space="preserve">
<title>588E8379-9A6A-4647-B0C0-93E84769F522</title>
<desc>Created with sketchtool.</desc>
<g>
	<path fill="#FFFFFF" d="M0,15.6c0.1,0.1,0.2,0.1,0.2,0.1c0.5,0.3,1,0.5,1.5,0.8C1.9,16.6,1.9,16.5,1.9,16.299
		C1.9,14.8,2,13.2,2,11.7c0-0.1,0-0.2,0.1-0.3c0.601-1,1.2-2,1.7-3s1.2-1.8,2-2.6C6.9,4.7,8,3.6,9.1,2.5c0.3-0.1,0.3-0.1,0.4,0.1
		c0.2,0.7,0.399,1.3,0.6,2C10.2,4.9,10.2,4.9,10.5,4.7C10.8,4.5,10.9,4.3,10.9,3.9c0.301-1.3,0.601-2.5,1-3.8C12-0.1,12.1,0,12.2,0
		C12.6,0.2,12.9,0.5,13.3,0.7c1.1,0.7,2.2,1.3,3.4,1.9c0.8,0.4,1.5,1,2.1,1.7c0.8,0.9,1.7,1.8,2.6,2.7c0.101,0.1,0.2,0.1,0.4,0.1
		c0.7-0.3,1.5-0.5,2.2-0.8c0.1,0,0.2,0.1,0.3,0.1c0.3,0.7,0.6,1.4,1,2.1c0.5,1.1,1,2.2,1.6,3.3c0.4,0.9,0.9,1.8,1.301,2.6
		c0,0,0,0.1,0,0.2C28.1,15.3,27.9,16,27.8,16.7c-0.2,1-0.3,2-0.5,3c-0.1,0.4-0.1,0.7-0.2,1.1C27.1,21,27.2,21,27.3,21
		c0.5-0.101,1.1-0.201,1.6-0.4c0.101,0,0.101,0,0.2-0.1c0,0.1-0.1,0.199-0.1,0.199c-0.4,0.301-0.5,0.7-0.601,1.1
		c-0.6,1.5-1.199,3-1.8,4.5C26.3,27,25.8,27.2,25.2,27.5C24,27.9,22.9,28.299,21.7,28.799c-1.2,0.4-2.4,0.9-3.601,1.301
		c-0.5,0.199-0.899,0.4-1.399,0.5c-0.101,0-0.2,0.1-0.301,0c-0.6,0-1.199-0.1-1.8-0.2c-1.1-0.101-2.1-0.101-3.2-0.101
		C10.5,30.2,9.6,30,8.8,29.6c-0.5-0.2-1-0.4-1.5-0.5c-0.9-0.301-1.9-0.7-2.8-1c-0.101,0-0.2-0.1-0.2-0.2
		c-0.7-1.2-1.5-2.399-2.2-3.601c-0.5-0.899-0.899-1.899-1-3C1,20.5,0.8,19.7,0.7,18.9C0.6,18.2,0.5,17.5,0.3,16.799
		C0.2,16.4,0.1,16.1,0,15.7C0,15.8,0,15.7,0,15.6z M14.3,11.9c-2.6,0-5.4,0-8.2,0c-0.2,0-0.3,0.1-0.3,0.3c0,1.8,0.1,3.6,0.1,5.3
		C5.9,17.7,6,17.799,6.2,17.799C7.9,17.7,9.7,17.7,11.4,17.6c0.301,0,0.301,0,0.301,0.3c0,0.5,0,1.101,0.1,1.601
		c0.1,1,0.2,1.899,0.3,2.899c0,1.5,0,3,0,4.5c0,0.3,0,0.399,0.4,0.399c1,0,1.899,0,2.899,0c0.4,0,0.801,0,1.101,0.101
		c0.3,0,0.399,0,0.399-0.3C17,26.2,17.2,25.4,17.2,24.5c0.1-1,0.1-1.9,0.1-2.9c0-1.2,0-2.5,0-3.7c0-0.101,0-0.2,0.1-0.2
		c0.301-0.1,0.7-0.3,1-0.3c1.301,0,2.5,0,3.801-0.101c0.199,0,0.399,0,0.6,0s0.3-0.1,0.3-0.399c0-1.7,0.101-3.4,0.101-5
		c0-0.2-0.101-0.3-0.2-0.3c-0.101,0-0.3,0-0.4,0C19.9,11.8,17.2,11.8,14.3,11.9z"/>
	<path fill="#FFFFFF" d="M51.9,21.7c0,1.7,0,3.4,0,5.1c0,0.201-0.1,0.301-0.3,0.301c-0.6,0-1.2,0-1.8,0c-0.2,0-0.3-0.1-0.4-0.301
		C49.2,26,48.9,25.2,48.7,24.4C48.6,24,48.5,23.6,48.4,23.2c-0.1-0.199-0.199-0.4-0.5-0.4h-0.1c-0.4-0.1-0.4-0.1-0.4,0.301
		c0.101,1.199,0.301,2.5,0.4,3.699C47.8,27,47.7,27.1,47.6,27C47,27,46.3,26.9,45.7,26.9c-0.2,0-0.2-0.101-0.2-0.3
		c0-0.9,0-1.801,0-2.801c0-0.5-0.101-0.899-0.101-1.399c-0.1-1.2-0.1-2.399-0.1-3.601c0-0.699,0-1.5,0-2.199
		c0-0.1,0-0.301,0.2-0.301c0.5-0.1,1.1-0.199,1.6-0.399c0.2,0,0.601,0.2,0.601,0.399c0.1,0.5,0.3,1,0.399,1.5
		c0.3,0.9,0.5,1.701,0.8,2.601V20.5C49,21,49.2,21.1,49.7,20.9c0.1,0,0.1-0.2,0.1-0.2c0-0.8-0.1-1.699-0.2-2.5
		c0-0.3-0.1-0.6-0.1-0.9C49.5,16.9,49.4,16.5,49.4,16.1c0-0.2,0.101-0.3,0.2-0.3c0.601,0,1.3,0,1.9,0.1c0.2,0.101,0.3,0.2,0.3,0.399
		C51.9,18.4,51.9,20.1,51.9,21.7L51.9,21.7z"/>
	<path fill="#FFFFFF" d="M92.5,21.6c0-1.7,0-3.4,0-5.2c0-0.3,0-0.3,0.3-0.399c0.7,0,1.3-0.101,2-0.101c0.2,0,0.3,0.101,0.3,0.2
		c0,1,0,2-0.1,3c0,0.3-0.101,0.5-0.2,0.8c-0.1,0.2,0,0.3,0.2,0.3c0.6-0.1,1.1-0.5,1.2-1.199C96.4,18.1,96.4,17.299,96.4,16.4
		c0-0.3,0-0.399,0.4-0.399c0.7,0,1.4-0.101,2.1-0.101c0.2,0,0.301,0.101,0.4,0.3c0.2,1.9-0.3,3.7-1.7,5.1
		c-0.3,0.4-0.399,0.4,0,0.701c0.601,0.799,1.2,1.6,1.601,2.6c0.199,0.6,0.399,1.3,0.399,1.9c0,0.1-0.1,0.199-0.2,0.199
		c-0.5,0.1-1.1,0.1-1.6,0.1s-0.6-0.1-0.7-0.5c-0.3-0.799-0.7-1.6-1-2.399C95.9,23.5,95.6,23.5,95.3,23.5L95.2,23.7
		c0,0.6,0,1.1,0,1.7c0,0.399-0.101,0.8-0.2,1.2c0,0.1-0.2,0.199-0.2,0.199c-0.6,0-1.2,0.101-1.8,0.101c-0.2,0-0.3-0.101-0.3-0.3
		C92.6,25.1,92.6,23.4,92.5,21.6C92.6,21.6,92.5,21.6,92.5,21.6z"/>
	<path fill="#FFFFFF" d="M36.7,22c0,1.699,0,3.399,0,5.1c0,0.3,0,0.3-0.301,0.3c-0.6-0.101-1.199-0.2-1.8-0.2
		c-0.2,0-0.3-0.1-0.3-0.4c0-0.899,0-1.899-0.1-2.799c0-0.101-0.101-0.201-0.2-0.301c-0.101-0.1-0.3-0.199-0.4-0.4
		c-0.1-0.1-0.2-0.1-0.2,0.101c-0.1,0.2-0.199,0.399-0.3,0.7c0,0.1,0,0.3,0,0.5c0.101,0.9,0.2,1.8,0.3,2.699
		c0,0.201-0.1,0.201-0.199,0.201c-0.7,0-1.301,0-2,0C31,27.5,30.9,27.4,30.9,27.2c0-1.8,0-3.699,0-5.5c0-1.199-0.199-2.4-0.3-3.6
		c0-0.6,0-1.2,0-1.7c0-0.101,0.101-0.2,0.2-0.2c0.7,0,1.4,0,2,0c0.2,0,0.2,0.1,0.2,0.301c0,0.799,0.1,1.5,0.1,2.299
		c0,0.801,0,1.601,0,2.301c0,0.1,0.101,0.199,0.2,0.199c0.2,0,0.5,0.101,0.7,0.101s0.3,0,0.3-0.3c0-1.4,0-2.801,0-4.1
		c0-0.301,0-0.301,0.4-0.301c0.6,0,1.199,0,1.8,0c0.3,0,0.3,0.1,0.3,0.301C36.7,18.6,36.7,20.299,36.7,22L36.7,22z"/>
	<path fill="#FFFFFF" d="M76.2,23.6c0,0.4-0.101,0.8-0.101,1.199c0,0.601,0,1.301,0,1.9c0,0.2-0.1,0.2-0.2,0.301
		c-0.5,0.1-1.1,0.299-1.6,0.399c-0.2,0-0.3,0-0.3-0.2C73.9,26,73.8,24.9,73.7,23.7C73.6,21.5,73.6,19.4,73.6,17.2
		c0-0.199,0-0.3,0-0.5c0-0.4,0-0.4,0.4-0.4c0.7,0,1.3,0,2,0c0.2,0,0.2,0.101,0.2,0.201c0,0.799-0.101,1.6-0.101,2.5
		c0,0.399,0,0.799-0.1,1.199c0,0.2,0.1,0.2,0.2,0.2c0.6,0,0.699-0.101,0.899-0.7c0.4-1.1,0.601-2.1,0.7-3.3c0-0.2,0.1-0.3,0.4-0.3
		c0.5,0,1.1,0,1.6,0c0.2,0,0.3,0.1,0.3,0.199c0,0.701,0,1.5-0.1,2.201C79.9,19.299,79.5,20,79.1,20.7c-0.3,0.4-0.5,0.801-0.7,1.2
		c-0.1,0.2-0.1,0.3,0.101,0.399C79.2,23.1,79.6,24,79.9,25c0.2,0.6,0.301,1.199,0.5,1.799c0,0.101,0,0.201-0.1,0.201
		c-0.7,0-1.4,0-2.1,0C78.1,27,78,26.799,77.9,26.7C77.7,25.799,77.4,25,77,24.299C76.8,24,76.6,23.7,76.3,23.5
		C76.2,23.6,76.2,23.6,76.2,23.6z"/>
	<path fill="#FFFFFF" d="M40.4,20.4c0,1.5,0.101,3,0.101,4.601c0,0.1,0,0.199,0,0.299c0,0.101,0.1,0.101,0.2,0.101c0,0,0,0,0.1,0
		c0.9-0.2,0.8-0.101,0.9-1c0-1.7,0-3.399,0.1-5.101c0-1.1,0-2.1,0-3.199c0-0.3,0-0.4,0.4-0.4c0.5,0,1-0.1,1.5-0.1
		c0.3,0,0.3,0,0.3,0.3c0,1,0,2,0,2.899c0,1.4,0,2.701,0,4.101c0,0.8,0,1.601-0.3,2.399C43.3,26.6,42.6,27,41.2,27.1
		C40.4,27.2,39.7,27,39,26.6c-0.601-0.4-1-1-1-1.7C37.9,22.4,37.9,20,37.9,17.5c0-0.4,0-0.801,0-1.301C37.9,16,38,16,38.1,16
		c0.601,0,1.3,0.1,1.9,0.1c0.399,0,0.399,0,0.399,0.4C40.5,17.799,40.5,19.1,40.4,20.4C40.5,20.4,40.4,20.4,40.4,20.4z"/>
	<path fill="#FFFFFF" d="M68.6,25.1c0,0.5,0,1,0,1.6c0,0.2-0.1,0.301-0.3,0.301c-0.4,0-0.8,0-1.2,0c-0.2,0-0.3-0.101-0.3-0.301
		c-0.1-1.5-0.1-2.9-0.2-4.4c-0.1-2-0.1-3.899-0.1-5.899c0-0.2,0-0.3,0.2-0.3C67.6,16,68.4,16,69.3,15.9c0.7,0,1.5,0.101,2.1,0.601
		C72,16.9,72.2,17.4,72.4,18C72.7,18.9,72.8,19.799,72.5,20.7c0,0.7-0.3,1.2-0.8,1.7c-0.2,0.2-0.2,0.399-0.2,0.7
		c0.3,1,0.5,1.9,0.7,2.9c0.1,0.299,0.1,0.5,0.1,0.799C72.3,27,72.2,27,72.1,27c-0.5,0-0.899,0.1-1.399,0.1
		c-0.101,0-0.2-0.1-0.301-0.2C70.2,26,70,25.1,69.8,24.2C69.7,24,69.7,23.7,69.6,23.5c0-0.101-0.1-0.201-0.1-0.201
		c-0.3,0-0.601-0.1-0.9-0.1c0,0-0.1,0.2-0.1,0.301C68.6,24.1,68.6,24.6,68.6,25.1L68.6,25.1z M68.6,19.7L68.6,19.7
		c0,0.5,0,0.9,0,1.4c0,0.199,0,0.3,0.2,0.199c0.6-0.1,1.2-0.299,1.7-0.6c0.1-0.1,0.2-0.199,0.2-0.3c0.1-0.7-0.101-1.399-0.301-2
		c-0.1-0.2-0.199-0.3-0.5-0.3c-0.3,0-0.699,0-1,0c-0.199,0-0.199,0.1-0.199,0.199C68.6,18.799,68.6,19.2,68.6,19.7z"/>
	<path fill="#FFFFFF" d="M53.3,19.799c0-0.899,0-2.199,0-3.5C53.3,16.1,53.4,16,53.6,16c0.9,0.1,1.9,0.1,2.8,0.199
		c0.2,0,0.4,0.1,0.601,0.2c0.899,0.399,1.6,1,2,1.899c0.1,0.301,0.2,0.601,0.2,0.9c0,1.1,0.1,2.2,0.1,3.301
		c0,0.899-0.2,1.699-0.6,2.5c-0.301,0.6-0.801,1.1-1.5,1.299C56.1,26.799,55,27,53.8,27C53.3,27,53,26.7,53,26.2
		C53.1,24.2,53.2,22.2,53.3,19.799z M57.1,21L57.1,21c0-0.601,0-1.201-0.2-1.701c-0.1-0.6-0.5-1-1.1-1.199c-0.3-0.1-0.3,0-0.3,0.3
		c0,0.899,0,1.899-0.101,2.8c0,0.9-0.1,1.801-0.1,2.7c0,0.3,0,0.7,0.1,1c0,0.2,0.2,0.2,0.2,0.101c0.5-0.4,0.9-0.801,1.101-1.5
		C57,22.7,57.1,21.9,57.1,21z"/>
	<path fill="#FFFFFF" d="M87.2,21.7c0,0.9,0,1.7,0,2.6c0,0.4,0.199,0.801,0.5,1.101c0.1,0.101,0.199,0.2,0.3,0.2
		c0.399,0.3,0.399,0.3,0.7,0c0.399-0.4,0.6-0.9,0.6-1.5c0-0.2,0.1-0.301,0.3-0.301c0.4,0,0.9,0,1.3,0c0.2,0,0.301,0,0.301,0.201
		c0,0.5,0,1-0.101,1.399C91,26.2,90.6,26.7,89.8,27c-1.1,0.399-2.3,0.5-3.4-0.101c-0.8-0.399-1.3-1.101-1.399-2
		c-0.2-1.5-0.101-3.101,0-4.601c0-0.6,0-1.1,0.1-1.699c0-0.5,0.3-0.9,0.601-1.301c0.899-1,1.899-1.399,3.199-1.1
		c1,0.2,1.801,0.801,2.301,1.7c0.199,0.399,0.3,0.8,0.199,1.2c0,0.199-0.1,0.3-0.3,0.3c-0.5,0-1,0-1.6,0c-0.2,0-0.3-0.101-0.2-0.3
		c0.1-0.7-0.6-1.2-1.2-1c-0.5,0.1-0.899,0.5-0.899,1.199C87.2,20.1,87.2,20.9,87.2,21.7L87.2,21.7z"/>
	<path fill="#FFFFFF" d="M60.3,21.799c0-1.699,0-3.399,0-5.1c0-0.199,0.1-0.3,0.3-0.3c1.5,0,2.9,0,4.4,0c0.399,0,0.5,0,0.5,0.5
		c0,0.399,0,0.8,0,1.2c0,0.199-0.101,0.3-0.3,0.3c-0.7,0-1.5,0-2.2,0c-0.3,0-0.4,0.101-0.4,0.3c0,0.801,0,1.5,0,2.301
		c0,0.199,0.101,0.299,0.3,0.299c0.5,0,1-0.1,1.5-0.1c0.2,0,0.301,0,0.301,0.2c0,0.5,0,0.899-0.101,1.399C64.6,22.9,64.4,23,64.3,23
		c-0.5,0-0.9,0.1-1.4,0.1c-0.199,0-0.3,0.1-0.3,0.3c0,0.601,0,1.2,0,1.899c0,0.201,0.101,0.301,0.3,0.301c0.801,0,1.5,0,2.301-0.1
		c0.199,0,0.3,0,0.3,0.299c0,0.4,0,0.801,0,1.301c0,0.199-0.101,0.3-0.3,0.3c-1.5,0-3,0-4.5,0c-0.301,0-0.301,0-0.301-0.3
		c0-1.7,0-3.4,0-5C60.4,21.799,60.4,21.799,60.3,21.799z"/>
	<path fill="#FFFFFF" d="M81.3,21.5c0-1.701,0-3.4,0-5c0-0.201,0.1-0.301,0.3-0.301c0.601-0.1,1.3-0.199,1.9-0.4
		c0.2,0,0.2,0,0.3,0.201c0,1,0.1,2.1,0.1,3.1c0,2.3,0,4.699,0,7c0,0.6,0,0.5-0.5,0.6c-0.6,0-1.199,0.1-1.8,0.1
		c-0.2,0-0.3-0.1-0.3-0.299C81.2,24.9,81.2,23.2,81.3,21.5C81.2,21.5,81.2,21.5,81.3,21.5z"/>
</g>
</svg>
