<?xml version="1.0" encoding="utf-8"?>
<!-- Generator: Adobe Illustrator 22.1.0, SVG Export Plug-In . SVG Version: 6.00 Build 0)  -->
<svg version="1.1" id="Слой_1" xmlns="http://www.w3.org/2000/svg" xmlns:xlink="http://www.w3.org/1999/xlink" x="0px" y="0px"
	 width="100px" height="34px" viewBox="0 0 100 34" style="enable-background:new 0 0 100 34;" xml:space="preserve">
<style type="text/css">
	.st0{fill:#8F9395;}
	.st1{fill:none;}
	.st2{fill:#707479;}
</style>
<title>588E8379-9A6A-4647-B0C0-93E84769F522</title>
<desc>Created with sketchtool.</desc>
<g>
	<path class="st0" d="M39.4,19c0,0.9,0.7,1.7,1.7,1.7c0.2,0,0.4,0,0.9-0.2l0.7,1.7c-0.7,0.3-1.1,0.4-1.6,0.4c-2,0-3.6-1.6-3.6-3.6
		V7.6h1.9v2.9h3.3v1.9h-3.3C39.4,12.4,39.4,19,39.4,19z"/>
	<path class="st0" d="M43.8,19v-5.7c0-2,1.6-3.6,3.6-3.6s3.6,1.6,3.6,3.6V19c0,2-1.6,3.6-3.6,3.6C45.4,22.5,43.8,21,43.8,19
		 M47.4,11.6c-0.9,0-1.7,0.8-1.7,1.7V19c0,0.9,0.8,1.7,1.7,1.7s1.7-0.7,1.7-1.7v-5.7C49,12.4,48.3,11.6,47.4,11.6"/>
	<path class="st0" d="M61.5,13c0-0.7-0.6-1.3-1.3-1.3s-1.3,0.6-1.3,1.3v9.3H57V13c0-0.7-0.6-1.3-1.3-1.3s-1.3,0.6-1.3,1.3v9.3h-1.9
		V13c0-1.8,1.4-3.2,3.2-3.2c0.9,0,1.7,0.3,2.2,0.9c0.6-0.6,1.3-0.9,2.2-0.9c1.8,0,3.2,1.4,3.2,3.2v9.3h-1.9L61.5,13L61.5,13z"/>
	<path class="st0" d="M73.4,13.3c0-0.9-0.7-1.7-1.7-1.7c-0.9,0-1.7,0.7-1.7,1.7v9h-1.9V5.4H70v4.9c0.5-0.3,1.1-0.4,1.7-0.4
		c2,0,3.6,1.6,3.6,3.6v9h-1.9L73.4,13.3L73.4,13.3z"/>
	<path class="st0" d="M76.8,19v-5.7c0-2,1.6-3.6,3.6-3.6c2,0,3.6,1.6,3.6,3.6V19c0,2-1.6,3.6-3.6,3.6C78.4,22.5,76.8,21,76.8,19
		 M80.4,11.6c-0.9,0-1.7,0.8-1.7,1.7V19c0,0.9,0.8,1.7,1.7,1.7s1.7-0.7,1.7-1.7v-5.7C82,12.4,81.3,11.6,80.4,11.6"/>
	<path class="st0" d="M89,11.6c-0.9,0-1.7,0.8-1.7,1.7v9h-1.9v-9c0-2,1.6-3.6,3.5-3.6c1.2,0,2.4,0.7,3.2,2l-1.5,1
		C90.2,12,89.6,11.6,89,11.6"/>
	<path class="st0" d="M97.8,13.3c0-0.9-0.8-1.7-1.7-1.7c-0.9,0-1.7,0.7-1.7,1.7v9h-1.9v-9c0-2,1.6-3.6,3.6-3.6c2,0,3.5,1.6,3.5,3.6
		v9h-1.9L97.8,13.3L97.8,13.3z"/>
	<path class="st0" d="M53.1,31.1v-3.3c0-0.8,0.6-1.4,1.4-1.4c0.6,0,1.1,0.3,1.3,0.9l-0.7,0.4c-0.1-0.4-0.4-0.5-0.7-0.5
		c-0.4,0-0.7,0.3-0.7,0.7v3.3c0,0.4,0.3,0.7,0.7,0.7s0.7-0.3,0.7-0.7v-0.7h-1v-0.7h1.7v1.4c0,0.8-0.6,1.4-1.4,1.4
		C53.7,32.5,53.1,31.9,53.1,31.1"/>
	<path class="st0" d="M60.9,30.6h-1.4v1.9h-0.7v-4.6c0-0.8,0.6-1.4,1.4-1.4c0.8,0,1.4,0.6,1.4,1.4v4.6h-0.7V30.6L60.9,30.6z
		 M60.2,27.3c-0.4,0-0.7,0.3-0.7,0.7V30h1.4v-2.1C60.9,27.6,60.5,27.3,60.2,27.3"/>
	<polygon class="st0" points="67.3,28.6 66.4,31.2 66.1,31.2 65.2,28.6 65.2,32.5 64.5,32.5 64.5,26.7 65.2,26.7 66.2,29.7 
		67.3,26.7 68,26.7 68,32.5 67.3,32.5 	"/>
	<rect x="71.5" y="26.7" class="st0" width="0.7" height="5.8"/>
	<polygon class="st0" points="76.2,28.5 76.2,32.5 75.6,32.5 75.6,26.7 76.2,26.7 77.7,30.5 77.7,26.7 78.3,26.7 78.3,32.5 
		77.7,32.5 	"/>
	<path class="st0" d="M81.4,31.1v-3.3c0-0.8,0.6-1.4,1.4-1.4c0.6,0,1.1,0.3,1.3,0.9l-0.6,0.3c-0.1-0.4-0.4-0.5-0.7-0.5
		c-0.4,0-0.7,0.3-0.7,0.7v3.3c0,0.4,0.3,0.7,0.7,0.7c0.4,0,0.7-0.3,0.7-0.7v-0.7h-1.1v-0.7H84v1.4c0,0.8-0.6,1.4-1.4,1.4
		C82,32.5,81.4,31.9,81.4,31.1"/>
	<rect x="0.6" y="1.4" class="st1" width="99" height="31.1"/>
	<path class="st2" d="M29.2,8.4c-0.1,1-0.4,1.9-1.1,2.6c-0.1,0.1-0.2,0.2-0.3,0.3c-0.2,0.1-0.3,0.2-0.5,0.4c0,0-0.1,0-0.1,0.1
		c-0.6,0.3-1.2,0.4-1.8,0.4c-0.3,0-0.5,0-0.8-0.1c2.2,3.8,1.7,8.6-1.5,11.9c-3.8,3.8-10,3.8-13.8,0l0,0l0,0
		c-0.2-0.3-0.2-0.4-0.3-0.4l0,0c-0.1-0.1-0.2-0.1-0.2-0.2l0,0c-0.1,0-0.2-0.1-0.2-0.1l0,0c-0.8-0.4-1.9-0.4-2.7,0H5.9
		c-0.1,0.1-0.3,0.2-0.4,0.3s-0.2,0.1-0.2,0.2c-1.1,1.1-1.2,3,0,4.1c6,6,15.8,6.1,21.9,0.1C32.4,22.6,33.1,14.5,29.2,8.4z"/>
	<path class="st2" d="M27.4,6.2c-3.1-3.1-7-4.6-11-4.6S8.5,3.1,5.5,6.1c-5.4,5.3-6.1,13.5-2.1,19.5c0.1-1,0.4-1.9,1.1-2.6
		c0.1-0.1,0.2-0.2,0.3-0.3c0.2-0.1,0.3-0.2,0.5-0.4c0,0,0.1,0,0.1-0.1c0.6-0.3,1.2-0.4,1.8-0.4c0.3,0,0.5,0,0.8,0.1
		C5.8,18.1,6.3,13.3,9.5,10c1.9-1.9,4.4-2.9,6.8-2.9s5,1,6.9,2.9l0,0l0,0c0.1,0.1,0.1,0.1,0.2,0.2l0,0c0.1,0.1,0.2,0.1,0.2,0.2l0,0
		c0.1,0,0.2,0.1,0.2,0.1l0,0c0.4,0.2,0.9,0.3,1.3,0.3c0.4,0,0.9-0.1,1.3-0.3h0.1c0.1-0.1,0.3-0.2,0.4-0.3c0.1-0.1,0.2-0.1,0.2-0.2
		C28.5,9.1,28.5,7.2,27.4,6.2z"/>
</g>
</svg>
