<svg width="117" height="48" xmlns="http://www.w3.org/2000/svg"><path d="M21.378 6.188c-1.371 1.622-3.565 2.9-5.76 2.718-.273-2.192.8-4.522 2.058-5.96C19.047 1.279 21.446.09 23.389 0c.229 2.284-.662 4.521-2.01 6.188m1.987 3.152c-3.176-.183-5.896 1.804-7.404 1.804-1.532 0-3.84-1.713-6.354-1.667-3.268.045-6.308 1.895-7.976 4.84-3.428 5.892-.891 14.615 2.423 19.41 1.622 2.376 3.565 4.979 6.125 4.888 2.422-.092 3.382-1.576 6.307-1.576 2.949 0 3.794 1.576 6.354 1.53 2.65-.046 4.32-2.375 5.942-4.75 1.851-2.694 2.605-5.32 2.65-5.457-.045-.046-5.118-1.987-5.164-7.833-.046-4.887 4-7.216 4.182-7.353-2.285-3.38-5.85-3.745-7.085-3.836m18.352-6.623v35.6h5.531v-12.17h7.656c6.994 0 11.907-4.796 11.907-11.738 0-6.942-4.822-11.692-11.724-11.692h-13.37zm5.531 4.659h6.376c4.8 0 7.542 2.557 7.542 7.056 0 4.499-2.742 7.079-7.564 7.079h-6.354V7.376zm29.665 31.216c3.474 0 6.696-1.759 8.159-4.544h.114v4.27h5.12v-17.72c0-5.138-4.114-8.45-10.445-8.45-5.874 0-10.216 3.357-10.376 7.97h4.982c.412-2.192 2.446-3.63 5.234-3.63 3.382 0 5.28 1.575 5.28 4.475v1.964l-6.903.41c-6.422.389-9.896 3.015-9.896 7.582 0 4.613 3.589 7.673 8.73 7.673zm1.485-4.225c-2.948 0-4.822-1.416-4.822-3.585 0-2.238 1.806-3.54 5.257-3.745l6.147-.388v2.01c0 3.333-2.834 5.708-6.582 5.708zM97.14 48c5.394 0 7.931-2.055 10.148-8.29L117 12.492h-5.622l-6.514 21.031h-.114l-6.513-21.031h-5.782l9.37 25.918-.503 1.576c-.846 2.672-2.217 3.7-4.662 3.7-.434 0-1.28-.047-1.623-.092v4.27c.32.091 1.691.137 2.103.137z"/></svg>
