<svg width="183" height="48" xmlns="http://www.w3.org/2000/svg"><g fill="none"><path d="M12.048 1L0 37h7.086l3.402-10.51h9.775L23.764 37H31L18.935 1h-6.887zm6.506 19.515h-6.34l2.639-7.938c.182-.542.348-1.083.498-1.608.166.542.332 1.1.53 1.676l2.673 7.87zm25.152.931c-3.404-1.291-3.786-1.887-3.786-2.831 0-1.192 1.042-1.92 2.726-1.92 1.998 0 3.56.761 4.307 1.208l1.46.878 1.927-5.596-.868-.53C47.804 11.613 45.286 11 42.733 11c-5.696 0-9.83 3.427-9.83 8.161 0 4.354 4.047 6.672 7.433 7.847 3.387 1.208 3.648 2.036 3.648 3.063 0 1.92-2.12 2.201-3.387 2.201-1.963 0-4.064-.794-5.262-1.473l-1.442-.811L32 35.666l.92.513C34.987 37.338 37.766 38 40.51 38 46.78 38 51 34.64 51 29.64c0-5.016-4.186-7.085-7.294-8.194zM61.695 5L54.76 7.06v4.071H51v5.863h3.759v11.659c0 3.25.666 5.578 2.05 7.102 1.35 1.44 3.383 2.245 5.724 2.245 2.101 0 3.622-.419 4.34-.67l.94-.318-.36-5.897-1.606.47c-.478.133-1.025.234-2.17.234-.837 0-1.982 0-1.982-3.317V16.994H68V11.13h-6.305V5zM84 11.26l-1.274-.163c-.38-.048-.758-.097-1.258-.097a8.32 8.32 0 00-5.803 2.355l-.086-1.868H69l.086 1.332c.138 1.965.207 4.222.207 7.097V37h7.095V23.488c0-.633.052-1.266.12-1.721.517-2.647 2.291-4.304 4.65-4.304.552 0 .913 0 1.223.065l1.619.325V11.26zM95.67 11C88.215 11 83 16.622 83 24.674 83 32.527 88.052 38 95.28 38c6.125 0 12.72-4.299 12.72-13.723.016-7.82-5.068-13.277-12.33-13.277zm5.556 13.426c0 4.53-2.404 7.82-5.734 7.82-3.298 0-5.686-3.257-5.686-7.721 0-2.894 1.219-7.771 5.783-7.771 4.451-.017 5.637 5.01 5.637 7.672zm30.447-20.334C129.405 2.042 125.978 1 121.51 1c-2.99 0-5.83.218-8.434.655L112 1.84V37h6.871V23.941c.706.067 1.445.084 2.15.084 4.638 0 8.57-1.428 11.056-4.033 1.949-2 2.923-4.69 2.923-7.984 0-3.193-1.176-6-3.327-7.916zm-3.544 8.152c0 4.991-4.402 5.748-7.023 5.748-.874 0-1.613-.034-2.235-.118V7.134c.672-.084 1.58-.134 2.739-.134 2.974 0 6.519.908 6.519 5.244zm29.293 18.32v-8.757c0-6.973-3.72-10.807-10.464-10.807-3.126 0-6.371.826-8.648 2.23l-.883.53 1.886 5.403 1.427-.942c1.444-.958 3.533-1.52 5.589-1.52 1.41-.017 2.446.297 3.109.942.56.545.9 1.338 1.002 2.379-5.453.149-9.445 1.421-11.892 3.784-1.682 1.636-2.548 3.718-2.548 6.196 0 3.983 2.973 7.998 8.681 7.998 2.43 0 4.723-.76 6.507-2.082l.187 1.553H158l-.238-1.47c-.22-1.438-.34-3.256-.34-5.437zm-11.654 1.719c-1.036 0-2.769-.364-2.769-2.776 0-.942.289-1.67.9-2.248.816-.776 2.634-1.668 6.677-1.751V28.3c0 .199-.017.579-.136.942-.476 1.388-2.004 3.04-4.672 3.04z" fill="#000"/><path d="M175.662 11l-4.987 14.677c-.133.366-.25.748-.366 1.13-.134-.365-.25-.714-.384-1.047L164.488 11H157l9.39 23.453.033.067c.15.299.2.482.217.548-.05.133-.15.366-.217.516-.817 1.728-2.018 3.34-3.236 4.305l-.033.033c-1.368 1.163-2.768 1.679-3.319 1.845l-1.2.382L160.401 48l1.134-.2c.684-.116 3.119-.698 5.904-3.025 3.335-2.942 5.554-7.629 8.455-15.242L183 11h-7.338z" fill="#000"/><path d="M26.164 11C30.6 6.483 38.133 3.8 46.302 3.8c3.18 0 6.294.4 9.224 1.217l.234.066L61 3.5l-2.344-.9C54.204.9 49.048 0 43.758 0c-7.684 0-14.849 1.85-20.189 5.2L23 5.567 25.21 12l.954-1z" fill="red"/></g></svg>
