<svg width="79" height="48" xmlns="http://www.w3.org/2000/svg"><g fill="none"><path d="M0 36.519c.398-.874 1.073-1.251 2.048-1.132.636.08 1.292.02 2.226.02-.318-.258-.398-.338-.497-.397-1.471-.894-2.028-2.204-1.809-3.872.437-3.375.855-6.75 1.292-10.126.239-1.807.497-3.594.716-5.4.218-1.927 1.212-3.197 2.942-3.515 1.928-.357 4.095.278 5.01 1.827.298.496.814.933 1.331 1.19 2.127 1.073 4.294 2.046 6.441 3.059 1.332.635 1.73 1.648 1.133 2.918-.497 1.053-1.63 1.35-2.882.735a528.905 528.905 0 01-5.904-2.919c-.458 3.574-.915 6.97-1.372 10.523h5.248c.934 0 1.849-.02 2.783 0 1.63.02 2.724.954 2.902 2.542.438 3.772.816 7.565 1.213 11.337.08.655.179 1.31.179 1.966-.02 1.529-.954 2.561-2.366 2.7-1.55.159-2.683-.595-2.942-2.144-.358-2.284-.536-4.587-.795-6.89-.12-1.132-.258-2.283-.397-3.455h-2.366c.08.854.199 1.668.199 2.462 0 1.092-.438 1.49-1.511 1.49H8.767v7.048h1.868c.537 0 .994.218.855.794-.06.278-.537.675-.835.675-2.286.06-4.572.06-6.858 0-.278 0-.537-.456-.815-.714.278-.259.517-.656.835-.715.596-.12 1.232-.04 1.928-.04v-7.049c-1.193 0-2.425-.06-3.618.02-1.014.08-1.73-.218-2.107-1.171C0 37.71 0 37.114 0 36.519zM12.103 0c.225.081.45.163.674.224 2.718.672 4.495 3.178 4.189 5.948C16.659 8.963 14.33 11 11.449 11c-2.8 0-5.108-2.057-5.415-4.828C5.728 3.422 7.505.896 10.223.224c.225-.061.45-.143.674-.224h1.206z" fill="#006837"/><path d="M27.841 28.438a4024.42 4024.42 0 002.436 13.222c.212 1.177.444 2.355.657 3.532.155.806.097 1.591-.831 1.777-.928.186-1.237-.496-1.392-1.322-.986-5.35-1.972-10.722-2.938-16.073-.058-.372-.155-.723-.252-1.178h-9.858c-1.005 0-1.624-.475-1.663-1.177-.019-.723.619-1.219 1.605-1.219h13.319c.676.083 1.198.393 1.217 1.198.02.827-.54 1.095-1.198 1.198-.329.021-.677.021-1.102.042z" fill="#006837"/><path d="M28.252 22.8c-1.145-.703-1-1.405-.75-2.205.791-2.42 1.499-4.859 2.248-7.279.104-.312.146-.722.375-.878.333-.253.854-.487 1.228-.429.27.059.625.585.646.917.02.488-.188 1.015-.334 1.503a371.862 371.862 0 01-2.102 6.81c-.166.507-.479.975-.77 1.541.062.059.229.215.375.39.603.684.416 1.386-.5 1.66a4.324 4.324 0 01-1.228.155c-3.456.02-6.932.02-10.387 0-1.353 0-2.165-.448-2.04-1.17.208-1.113 1.186-.976 2.04-.976h9.762c.375.02.75-.02 1.437-.04z" fill="#8CC63F"/><path d="M35.02 30.981v-7.87h1.494v7.87zm9.285 0h-1.938l-2.644-5.711h-.08c.1.428.14.893.14 1.395v4.298H38.31v-7.87h1.958l2.624 5.656h.06a6.406 6.406 0 01-.12-1.34v-4.297h1.452v7.87h.02zm4.137 0h-1.574v-6.586h-1.635v-1.283h4.864v1.283h-1.635v6.586zm6.398 0h-3.855v-7.87h3.855v1.266h-2.26v1.879h2.099v1.265h-2.1v2.177h2.261zm2.826-3.069v3.07h-1.594v-7.87h2.078c.889 0 1.534.186 1.958.576.424.391.626.968.626 1.768 0 .986-.363 1.693-1.09 2.084L61.279 31h-1.696l-1.352-3.07h-.565v-.018zm0-1.265h.404c.383 0 .646-.094.807-.298.162-.205.242-.484.242-.875 0-.409-.08-.688-.262-.855-.182-.168-.444-.26-.807-.26h-.404v2.288h.02zm10.394 4.334h-1.937l-2.644-5.711h-.08c.1.428.14.893.14 1.395v4.298h-1.473v-7.87h1.958l2.624 5.656h.06c-.08-.372-.1-.819-.1-1.34v-4.297h1.453v7.87zm5.35 0h-3.856v-7.87h3.855v1.266h-2.26v1.879h2.099v1.265h-2.1v2.177h2.261zm3.874 0H75.71v-6.586h-1.635v-1.283h4.864v1.283h-1.634v6.586z" fill="#006837"/><path d="M35.041 34.24h1.193c.494 0 .864.132 1.132.394.267.263.39.657.39 1.182 0 .896-.308 1.421-.925 1.53v.045c.35.087.617.24.802.503.165.262.268.612.268 1.072 0 .59-.124 1.05-.37 1.378-.248.328-.597.503-1.05.503h-1.44V34.24zm.432 2.954h.782c.39 0 .658-.11.843-.35.185-.24.247-.569.247-1.05 0-.372-.082-.656-.267-.853-.185-.197-.453-.307-.823-.307h-.782v2.56zm0 .393v2.866h.967c.679 0 1.029-.503 1.029-1.487 0-.438-.103-.788-.309-1.028-.206-.241-.494-.35-.843-.35h-.844zm7.55 3.282l-.556-2.407h-1.522l-.535 2.407h-.432l1.502-6.628h.432l1.543 6.628h-.432zm-.658-2.844l-.556-2.472a6.246 6.246 0 01-.123-.787c-.02.262-.062.525-.124.787l-.535 2.472h1.338zm6.788 2.844h-.535l-2.365-5.95h-.042c.042.415.042.81.042 1.181v4.747h-.412v-6.628h.535l2.345 5.884h.02c-.02-.503-.04-.919-.04-1.247V34.22h.411v6.65h.041zm5.945 0h-.473l-1.46-3.303-.474.678v2.625h-.411V34.24h.411v3.5c.144-.285.762-1.466 1.852-3.5h.452l-1.563 2.909 1.666 3.719zm2.428 0V34.24h.411v6.628zm6.809 0H63.8l-2.366-5.95h-.04c.04.415.04.81.04 1.181v4.747h-.411v-6.628h.535l2.345 5.884h.02c-.02-.503-.04-.919-.04-1.247V34.22h.41v6.65h.042zm5.163-3.347h1.358v3.128a3.808 3.808 0 01-1.481.284c-.679 0-1.214-.306-1.584-.897-.37-.612-.556-1.443-.556-2.515s.186-1.903.576-2.494c.391-.59.926-.897 1.626-.897.473 0 .925.131 1.337.416l-.206.394c-.39-.263-.761-.394-1.131-.394-.576 0-1.029.262-1.317.765-.288.504-.453 1.247-.453 2.21 0 .94.144 1.684.453 2.21.309.524.74.787 1.275.787.391 0 .741-.066 1.029-.175v-2.407h-.946v-.415h.02z" fill="#8CC63F"/></g></svg>
