<svg width="210" height="50" xmlns="http://www.w3.org/2000/svg"><g transform="translate(1)" fill="none" fill-rule="evenodd"><path d="M2.052 27.63L47.73 1.277a2.304 2.304 0 013.142.842l8.542 14.785a2.297 2.297 0 01-.841 3.14l-45.68 26.354a2.304 2.304 0 01-3.141-.842L1.21 30.771a2.297 2.297 0 01.84-3.14z" stroke="#008AED" stroke-width="2.012"/><path d="M2.996 26.452L53.945 12.81a2.302 2.302 0 012.816 1.626l4.422 16.49a2.298 2.298 0 01-1.626 2.816L8.608 47.384a2.302 2.302 0 01-2.816-1.626L1.37 29.268a2.298 2.298 0 011.625-2.816s0 0 0 0z" stroke="#008AED" stroke-width="2.012" fill="#FFF"/><rect stroke="#008AED" stroke-width="2.012" fill="#FFF" x="4.599" y="26.443" width="57.485" height="21.557" rx="2.299"/><path d="M95.899 42.539c5.616 0 8.886-3.169 10.694-6.416l-4.693-2.308c-1.077 2.113-3.385 3.795-6.001 3.795-4.694 0-8.079-3.638-8.079-8.567 0-4.93 3.385-8.567 8.079-8.567 2.616 0 4.924 1.682 6 3.794l4.694-2.347c-1.808-3.286-5.078-6.377-10.694-6.377-7.733 0-13.695 5.438-13.695 13.497 0 8.02 5.962 13.496 13.695 13.496zm19.119 0c2.424 0 4.616-.9 5.886-2.465v1.995h4.924V29.864c0-5.437-3.886-7.159-8.156-7.159-2.923 0-5.847.9-8.117 2.973l1.924 3.482c1.539-1.447 3.385-2.23 5.347-2.23 2.462 0 4.078 1.252 4.078 3.169v2.386c-1.231-1.486-3.385-2.308-5.886-2.308-2.962 0-6.424 1.643-6.424 6.103 0 4.225 3.462 6.259 6.424 6.259zm1.962-3.364c-1.924 0-3.5-1.017-3.5-2.817 0-1.8 1.576-2.856 3.5-2.856 1.577 0 3.116.587 3.924 1.682v2.348c-.808 1.095-2.347 1.643-3.924 1.643zm20.35 3.364c5.155 0 8.079-2.543 8.079-6.024 0-7.629-11.04-5.282-11.04-8.06 0-1.055 1.153-1.838 2.923-1.838 2.27 0 4.385 1.017 5.5 2.191l1.963-3.52c-1.847-1.487-4.347-2.583-7.463-2.583-4.924 0-7.617 2.778-7.617 5.947 0 7.432 11.002 4.89 11.002 7.98 0 1.173-1 1.995-3.116 1.995-2.308 0-5.04-1.291-6.424-2.621l-2.116 3.599c1.962 1.839 5.078 2.934 8.31 2.934zm16.58-.47V29.317c.808-1.096 2.309-2.191 4.232-2.191 2.078 0 3.424.821 3.424 3.442V42.07h4.886V28.652c0-3.678-1.962-5.947-6.04-5.947-3.04 0-5.309 1.487-6.501 2.895v-9.623h-4.925v26.092h4.925zm29.699-20.928c1.616 0 2.924-1.33 2.924-2.974a2.914 2.914 0 00-2.924-2.933c-1.577 0-2.885 1.29-2.885 2.933 0 1.644 1.308 2.974 2.885 2.974zm2.462 20.928V23.175h-4.886v18.894h4.886zm9.733 0V29.317c.846-1.096 2.308-2.191 4.231-2.191 2.078 0 3.424.9 3.424 3.52V42.07h4.924V28.73c0-3.676-1.962-6.024-6.078-6.024-3 0-5.309 1.487-6.501 2.895v-2.425h-4.886V42.07h4.886z" fill="#000" fill-rule="nonzero"/><circle fill="#008AED" cx="24.144" cy="37.078" r="2.012"/><circle fill="#008AED" cx="30.467" cy="37.078" r="2.012"/><circle fill="#008AED" cx="36.79" cy="37.078" r="2.012"/></g></svg>
