<svg width="199" height="48" xmlns="http://www.w3.org/2000/svg" xmlns:xlink="http://www.w3.org/1999/xlink"><defs><path id="a" d="M.107.076h54.269v36.596H.106z"/></defs><g fill="none" fill-rule="evenodd"><path d="M34.283.38C15.331.38 0 9.362 0 20.51c0 4.722 2.773 9.057 7.473 12.541-2.312-2.865-3.621-6.039-3.621-9.445 0-11.535 15.023-20.903 33.513-20.903 11.941 0 22.419 3.87 28.351 9.755C60.4 5.335 48.304.381 34.283.381" fill="#7DBD53"/><path d="M19.027 18.062c.986-.82 2.21-1.23 3.672-1.23 1.429 0 2.644.418 3.647 1.253 1.003.834 1.556 1.9 1.658 3.199H17.14c.272-1.329.9-2.403 1.887-3.222zm12.241 8.137c1.394 0 2.516-.294 3.367-.881.986-.65 1.48-1.592 1.48-2.829 0-2.287-.75-4.404-2.245-6.352-1.497-1.947-3.418-3.415-5.764-4.405-1.632-.68-3.452-1.02-5.457-1.02-4.047 0-7.37 1.315-9.972 3.942-2.601 2.627-3.901 5.795-3.901 9.505 0 3.74 1.359 6.885 4.08 9.435 2.72 2.55 6.12 3.826 10.2 3.826 2.176 0 4.267-.31 6.274-.928 2.38-.71 4.114-1.746 5.203-3.106.611-.742.918-1.484.918-2.226 0-1.947-1.089-2.92-3.264-2.92-.477 0-1.701.41-3.673 1.228-1.972.82-3.655 1.229-5.05 1.229-1.666 0-3.077-.386-4.232-1.16-1.157-.772-1.82-1.884-1.99-3.338h14.026zm9.435 7.326c2.517 2.566 5.849 3.848 9.997 3.848 2.482 0 4.556-.37 6.223-1.112 2.312-1.051 3.468-2.334 3.468-3.849 0-.896-.298-1.66-.892-2.295-.596-.633-1.37-.95-2.32-.95-.647 0-1.463.185-2.45.556-.986.37-2.057.557-3.213.557-1.972 0-3.502-.619-4.59-1.856-.952-1.113-1.428-2.596-1.428-4.45 0-1.762.459-3.23 1.377-4.406 1.02-1.298 2.465-1.947 4.335-1.947 1.156 0 2.252.193 3.29.58 1.037.386 1.879.579 2.525.579.986 0 1.802-.308 2.448-.927a3.024 3.024 0 00.97-2.272c0-1.731-1.123-3.03-3.367-3.895-1.666-.618-3.622-.928-5.866-.928-4.284 0-7.719 1.245-10.303 3.733-2.584 2.489-3.876 5.696-3.876 9.621 0 3.803 1.224 6.94 3.672 9.413m29.736-13.771c.986-1.329 2.38-1.994 4.182-1.994 1.768 0 3.145.68 4.131 2.04.885 1.175 1.327 2.597 1.327 4.266 0 1.731-.426 3.17-1.275 4.312-.987 1.361-2.381 2.04-4.183 2.04-1.768 0-3.146-.679-4.131-2.04-.885-1.174-1.327-2.612-1.327-4.312 0-1.7.425-3.137 1.276-4.312zM64.47 33.571c2.652 2.628 6.035 3.942 10.15 3.942 4.148 0 7.531-1.299 10.15-3.895 2.516-2.534 3.774-5.703 3.774-9.506 0-3.832-1.275-7.031-3.825-9.598-2.55-2.565-5.916-3.848-10.099-3.848-4.115 0-7.472 1.291-10.073 3.871-2.601 2.582-3.902 5.773-3.902 9.575 0 3.772 1.275 6.925 3.825 9.46z" fill="#033564"/><path d="M100.123 31.693v-5.772h5.712c4.013 0 7.175-1.004 9.488-3.014 2.311-2.009 3.468-4.838 3.468-8.486 0-3.677-1.275-6.537-3.825-8.577-2.415-1.948-5.68-2.922-9.793-2.922h-7.651c-2.21 0-3.74.402-4.59 1.204-.85.803-1.276 2.208-1.276 4.214v23.338c0 3.642 1.41 5.464 4.234 5.464 2.822 0 4.233-1.817 4.233-5.449zm0-21.676h3.673c3.876 0 5.814 1.468 5.814 4.404 0 2.999-1.938 4.498-5.814 4.498h-3.673v-8.902z" fill="#7DBD53"/><g transform="translate(119.153 10.73)"><mask id="b" fill="#fff"><use xlink:href="#a"/></mask><path d="M23.467 26.412c2.72 0 4.08-1.826 4.08-5.48V5.834c0-3.623-1.36-5.435-4.08-5.435-1.667 0-2.976.788-3.928 2.365C17.873.972 15.663.075 12.91.075c-3.774 0-6.886 1.392-9.334 4.173C1.262 6.845.107 9.89.107 13.383c0 3.462 1.104 6.476 3.315 9.041 2.414 2.783 5.474 4.174 9.181 4.174 2.924 0 5.236-.943 6.936-2.828.816 1.761 2.125 2.642 3.928 2.642zM9.944 9.163c.981-1.267 2.318-1.9 4.01-1.9 1.726 0 3.062.633 4.01 1.9.812 1.114 1.218 2.49 1.218 4.127 0 1.64-.406 3.03-1.218 4.174-.948 1.298-2.284 1.947-4.01 1.947s-3.08-.65-4.06-1.947c-.847-1.144-1.27-2.535-1.27-4.174 0-1.607.44-2.982 1.32-4.127zm36.73-5.796l-5.05 11.964-4.692-11.314c-.51-1.267-.97-2.117-1.378-2.55C34.874.756 33.94.4 32.75.4c-1.157 0-2.118.356-2.882 1.067-.765.71-1.148 1.59-1.148 2.641 0 .742.153 1.437.459 2.087l8.31 17.66-3.396 6.717c-.454.953-.68 1.799-.68 2.537 0 1.107.373 1.983 1.122 2.629.747.645 1.734.968 2.958.968 1.462 0 2.669-1.005 3.621-3.014L53.712 6.567c.442-.958.664-1.823.664-2.597 0-2.38-1.36-3.57-4.081-3.57-1.564 0-2.772.99-3.621 2.967" fill="#7DBD53" mask="url(#b)"/></g><path d="M193.792 29.815h-8.143l10.947-12.79c1.116-1.3 1.674-2.399 1.674-3.296 0-.99-.426-1.617-1.275-1.88-.85-.263-2.16-.395-3.928-.395h-13.21c-3.502 0-5.253 1.129-5.253 3.385 0 2.288 1.734 3.43 5.202 3.43h7.09l-11.323 13.309c-.816.958-1.225 1.916-1.225 2.874 0 1.546 1.446 2.319 4.336 2.319h15.046c3.469 0 5.203-1.144 5.203-3.431 0-2.35-1.713-3.525-5.14-3.525" fill="#7DBD53"/></g></svg>
