<svg width="124" height="48" xmlns="http://www.w3.org/2000/svg"><g fill-rule="nonzero" fill="none"><path d="M116.7 48H6.7C3 48 0 45 0 41.4V6.6C0 3 3 0 6.6 0h110c3.7 0 6.7 3 6.7 6.6v34.8c0 3.6-3 6.6-6.6 6.6z" fill="none"/><path d="M116.7 2c2.5 0 4.5 2.1 4.5 4.6v34.8c0 2.5-2 4.5-4.5 4.5H6.7C4 46 2 44 2 41.4V6.6c0-2.5 2-4.5 4.5-4.5h110m0-2.1H6.7C3 0 0 3 0 6.6v34.8C0 45 3 48 6.6 48h110c3.7 0 6.7-3 6.7-6.6V6.6c0-3.6-3-6.6-6.6-6.6z" fill="#BD202E"/><path d="M69.5 29.5c-3.3 1.2-4.3-1.3-4.3-1.3 4.2-1.1 7.6-4.4 8.1-8 .5-3.7-3.3-5.4-5-5-7.4.8-8.5 10.7-7.9 13.4.7 2.6 2.5 5 6.8 5.4 4.3.3 9.8-4.1 9.8-4.1V25c-2.1 2-4.7 3.5-7.5 4.4zm-2-10.4c2.7-1.1 2.5 1.5 2.5 1.5-.7 3.8-5.1 4.5-5.1 4.5 0-.5 0-4.8 2.6-6z" fill="#BD202E"/><path d="M8.6 15.1l-3 1.4v1.8h3v15.4h4V18.3H17V15h-4.4v-2.3s0-3.3 5.3-1.6l1-3S9 5.4 8.6 13V15zM20.6 7.6h4v26h-4zM42.1 25.4v-2.8s-.1-7.7-7.8-7.7c-7.6 0-8.4 7.8-8.4 7.8-.2.6-.2 1.2-.2 1.9 0 .6 0 1.2.2 1.9 1.3 6.6 6 7.4 9.3 7.4 2 0 4-.5 6-1.3v-3c-11.9 4.5-11.3-4.3-11.3-4.3H42v.1zm-7.8-7.8c4.3 0 4 4.8 4 4.8H30s.1-4.8 4.4-4.8zM42.6 15.1h4.7l4 6.5 4.4-6.5h4.5l-6.3 9.1 6.6 9.4h-4.6l-4.5-6.9-4.5 6.9h-4.4l6.4-9.4zM85.4 15a5.3 5.3 0 00-4.5 2.8l-.8-2.7H77V42h4V31.5s1.4 2.5 5.4 2.5c0 0 7.3.5 7.3-10 0-10.3-8.3-9-8.3-9zm0 15.8c-1.5 0-4.5 0-4.5-6.8s4.5-6 4.5-6c1.5 0 4.3.5 4.3 6.2 0 5.6-2.8 6.6-4.3 6.6zM95.5 15.1h4v18.5h-4zM95.3 10.3c0-1.1 1-2.1 2.1-2.1 1.2 0 2 .7 2.2 1.6v.3c0 .2.2 2.3-2 2.3-2.1.1-2.3-1.4-2.3-2zM101 15.1v18.6h3.9V23.3s-.4-5.2 4.8-5.2c1.6 0 3.6.7 3.6 3.3v12.3h4v-13s0-5.9-6.7-5.7c0 0-4.6 0-6 2.8L104 15h-3z" fill="#414142"/></g></svg>
