<svg width="107" height="48" xmlns="http://www.w3.org/2000/svg" xmlns:xlink="http://www.w3.org/1999/xlink"><defs><path id="a" d="M.074.012h13.88v15.75H.074z"/><path id="c" d="M.069.012h1.348v29.27H.07z"/><path id="e" d="M0 .072h21.814V12.11H0z"/></defs><g fill="none" fill-rule="evenodd"><g transform="translate(92.776 9.313)"><mask id="b" fill="#fff"><use xlink:href="#a"/></mask><path d="M13.954 15.761c-1.3-.013-2.6-.028-3.9-.039-.666-.005-.667 0-.667-.668 0-2.718.002-5.436-.002-8.153 0-.257-.018-.517-.066-.768-.262-1.371-.923-1.927-2.285-1.942-1.248-.014-2.11.67-2.374 1.915a5.589 5.589 0 00-.107 1.13c-.009 2.656-.012 5.313.004 7.97.002.388-.088.535-.508.525a90.684 90.684 0 00-3.491-.003c-.351.005-.485-.086-.484-.457.01-4.783.01-9.565.001-14.348C.075.587.177.474.522.48c1.133.019 2.267.024 3.4-.002.413-.01.608.095.54.526-.01.069.022.145.047.288.173-.107.31-.187.443-.275 3.53-2.36 8.16-.354 8.798 3.808.047.308.135.61.204.915v10.02z" fill="#F50" mask="url(#b)"/></g><g transform="translate(26.866)"><mask id="d" fill="#fff"><use xlink:href="#c"/></mask><path d="M.074 29.281L.076.798C.076.63.052.455.091.296.116.193.228.048.314.037c.28-.033.568-.033.848 0 .084.01.186.158.218.262.038.125.01.272.01.41l.001 27.887c0 .228.017.457.026.685H.074z" fill="#F50" mask="url(#d)"/></g><path d="M60.2 15.246c-.174-1.26-1.39-2.091-2.9-2.049-1.358.038-2.6.962-2.706 2.049H60.2zm-5.836 3.558c.19.828.568 1.414 1.138 1.879 1.188.97 2.977 1.029 4.246.16a.844.844 0 01.367-.118c.084-.01.176.042.265.066l3.752 1.041c-.551.982-1.26 1.76-2.161 2.36-3.892 2.59-10.88 1.258-12.018-5.252-.443-2.539-.01-4.923 1.704-6.943 1.67-1.969 3.825-2.862 6.436-2.654 1.741.138 3.293.7 4.56 1.916 1.353 1.3 1.974 2.945 2.144 4.767.063.677.037 1.366.01 2.048-.023.628-.157.73-.777.73h-9.667zm32.536-1.46c-.048-.406-.066-.818-.152-1.216-.327-1.514-1.445-2.512-2.958-2.672-1.498-.158-2.774.612-3.402 2.063-.426.986-.437 2.014-.222 3.042.55 2.623 3.55 3.694 5.5 1.96.94-.837 1.233-1.95 1.235-3.177m-3.43 8.089c-4.551.002-7.914-3.454-7.889-8.109.025-4.558 3.409-8.003 7.869-8.01 4.512-.009 7.892 3.443 7.892 8.059 0 4.65-3.327 8.057-7.872 8.06M47.998 11.33v6.646c0 3.756-2.391 6.664-6.04 7.348-4.027.756-8.13-2.539-8.285-6.64-.014-.372.068-.51.46-.505 1.476.02 2.952.012 4.427.004.238 0 .372.041.448.315.306 1.09 1.108 1.65 2.1 1.509.938-.133 1.562-.928 1.563-2.041.007-4.523.003-9.045.004-13.568 0-.153-.004-.458.001-.458h5.322v7.39z" fill="#F50"/><g transform="translate(0 8.597)"><mask id="f" fill="#fff"><use xlink:href="#e"/></mask><path d="M21.814 5.646c-.022 1.443.146 1.214-.99 1.517-6.128 1.633-12.257 3.257-18.382 4.9-.437.118-.657.018-.88-.36C.503 9.893-.03 7.956.003 5.857c.006-.424.14-.61.557-.719C5.969 3.716 11.376 2.277 16.784.841c.896-.238 1.797-.46 2.685-.726.369-.112.555 0 .739.304 1.018 1.685 1.572 3.5 1.606 5.227" fill="#F50" mask="url(#f)"/></g><path d="M74.503 21.7c0 .834-.01 1.667.004 2.5a.524.524 0 01-.37.51c-1.534.475-3.073.53-4.565-.098-1.64-.69-2.478-2.005-2.539-3.71-.077-2.18-.032-4.362-.04-6.543-.002-.631-.002-.631-.637-.633-1.157-.004-1.157-.004-1.157-1.16 0-.803.01-1.606-.005-2.409-.006-.34.09-.511.473-.474.276.027.56-.016.836.01.401.039.502-.14.496-.5-.016-1.106.007-2.212-.012-3.318-.008-.474-.008-.474.924-.459.895.015 1.8.013 2.692.007.91-.007.91-.04.904.403-.016 1.151.003 2.303-.012 3.454-.004.32.108.422.429.414.727-.018 1.456.003 2.183-.01.384-.006.335.13.335.77v2.525c0 .645.034.756-.337.75-.728-.01-1.456.008-2.184-.007-.325-.007-.427.115-.425.427.012 1.924 0 3.847.012 5.771.004.712.272 1.02.994 1.04.64.02 1.282-.07 2-.118v.859zM10.911 3.582a11.05 11.05 0 015.195 1.31c.147.078.249.24.372.362-.14.098-.268.245-.424.287A4263.126 4263.126 0 011.904 9.3c-.144.038-.313-.016-.471-.027.029-.153.014-.333.092-.455C3.368 5.93 5.993 4.224 9.394 3.716c.501-.075 1.011-.09 1.517-.134m.013 21.851a10.82 10.82 0 01-5.114-1.264c-.171-.09-.292-.276-.437-.417.162-.097.312-.239.488-.286a4093.89 4093.89 0 0114.05-3.75c.155-.041.337.019.507.032-.042.167-.042.362-.131.499-2.204 3.382-5.354 5.063-9.363 5.186" fill="#FF5600"/><path d="M19.269 47.889l6.167-14.5h-1.537L19.13 44.678l-4.689-11.29h-1.537l6.068 14.501h.296zm15.397 0a7.417 7.417 0 003.743-.985 7.154 7.154 0 002.709-2.71 7.417 7.417 0 00.985-3.742 7.36 7.36 0 00-.995-3.744 7.115 7.115 0 00-2.738-2.699 7.583 7.583 0 00-3.763-.975 7.361 7.361 0 00-3.734.985 7.155 7.155 0 00-2.699 2.719 7.526 7.526 0 00-.985 3.783c0 1.326.332 2.56.995 3.703a7.155 7.155 0 002.729 2.69 7.529 7.529 0 003.753.975zm-.01-1.38c-1.655 0-3.067-.584-4.236-1.753-1.169-1.169-1.753-2.597-1.753-4.285 0-1.687.568-3.12 1.704-4.295 1.136-1.175 2.551-1.763 4.245-1.763 1.655 0 3.07.585 4.246 1.754 1.176 1.169 1.763 2.6 1.763 4.294 0 1.747-.58 3.192-1.743 4.335-1.163 1.143-2.571 1.714-4.226 1.714zm15.15 1.38c.985 0 1.842-.256 2.571-.768.73-.513 1.238-1.15 1.527-1.911.29-.762.434-1.859.434-3.29v-8.531h-1.4v8.53c0 1.064-.055 1.816-.167 2.256-.111.44-.312.844-.6 1.212a2.998 2.998 0 01-1.064.857c-.42.203-.91.305-1.468.305-.558 0-1.08-.121-1.566-.364a2.82 2.82 0 01-1.133-.985 2.89 2.89 0 01-.473-1.29c-.046-.447-.07-1.11-.07-1.99v-8.531H44.98v8.53c0 1.419.082 2.41.247 2.975.164.565.456 1.077.876 1.537.42.46.946.818 1.577 1.074.63.256 1.34.384 2.127.384zm15.033 0c1.287 0 2.462-.24 3.526-.72a6.72 6.72 0 002.64-2.097l-1.103-.848c-1.327 1.55-2.988 2.325-4.985 2.325-1.786 0-3.273-.574-4.462-1.724-1.189-1.149-1.783-2.58-1.783-4.295 0-1.714.607-3.162 1.822-4.344 1.215-1.182 2.663-1.773 4.345-1.773 2.062 0 3.75.814 5.063 2.443l1.103-.847a6.74 6.74 0 00-2.64-2.207c-1.077-.512-2.292-.768-3.645-.768a7.774 7.774 0 00-3.792.965 7.049 7.049 0 00-2.758 2.67 7.236 7.236 0 00-.995 3.714c0 2.167.715 3.96 2.147 5.378 1.432 1.419 3.27 2.128 5.517 2.128zm10.422-.355v-6.836h7.19v6.836h1.42V33.39h-1.42v5.93h-7.19v-5.93h-1.439v14.145h1.439zm20.115 0v-1.398h-6.64V40.58h6.64V39.2h-6.64v-4.413h6.699V33.39h-8.117v14.145h8.058zm3.98 0v-6.58h.807l5.083 6.58H107l-5.103-6.58c1.563.053 2.771-.266 3.625-.955.854-.69 1.28-1.639 1.28-2.847a3.82 3.82 0 00-.354-1.655 3.262 3.262 0 00-.975-1.222 3.923 3.923 0 00-1.488-.68c-.578-.137-1.655-.206-3.23-.206h-2.818v14.145h1.419zm2.598-7.958l-.155-.001h-2.443v-4.807h2.502c1.182 0 2.055.19 2.62.571.565.381.847.992.847 1.832 0 .84-.286 1.455-.857 1.842-.571.388-1.461.575-2.67.562h.156z" fill="#F50" fill-rule="nonzero"/></g></svg>
