<svg width="171" height="48" xmlns="http://www.w3.org/2000/svg" xmlns:xlink="http://www.w3.org/1999/xlink"><defs><path id="a" d="M.118.02h22.208v25.734H.118z"/><path id="c" d="M.11.02h2.157v47.827H.11z"/><path id="e" d="M0 .118h34.902v19.67H0z"/></defs><g fill="none" fill-rule="evenodd"><g transform="translate(148.442 15.219)"><mask id="b" fill="#fff"><use xlink:href="#a"/></mask><path d="M22.326 25.754c-2.08-.021-4.16-.046-6.24-.063-1.066-.009-1.066-.002-1.066-1.092 0-4.441.003-8.882-.005-13.323 0-.419-.027-.844-.104-1.255-.42-2.24-1.478-3.149-3.657-3.173-1.997-.022-3.377 1.094-3.797 3.13a9.32 9.32 0 00-.172 1.845c-.014 4.341-.019 8.683.005 13.025.004.633-.139.873-.81.857A142.072 142.072 0 00.891 25.7c-.561.01-.775-.141-.774-.747.017-7.815.016-15.63.002-23.445C.12.96.283.775.835.784c1.813.03 3.628.04 5.44-.003.66-.015.972.155.865.86-.017.112.035.236.074.47.277-.174.498-.305.71-.45C13.571-2.193 20.98 1.083 22 7.884c.075.503.216.997.326 1.495v16.375z" fill="#F50" mask="url(#b)"/></g><g transform="translate(42.985)"><mask id="d" fill="#fff"><use xlink:href="#c"/></mask><path d="M.118 47.847L.122 1.304c0-.274-.039-.56.023-.82.04-.168.22-.406.358-.423a5.7 5.7 0 011.355 0c.135.016.299.257.35.427.06.206.016.445.016.67 0 15.19 0 30.38.002 45.569 0 .373.027.746.041 1.12H.118z" fill="#F50" mask="url(#d)"/></g><path d="M96.32 24.912c-.278-2.057-2.224-3.416-4.641-3.347-2.171.062-4.158 1.571-4.328 3.347h8.969zm-9.338 5.815c.303 1.352.91 2.31 1.821 3.07 1.902 1.585 4.763 1.681 6.793.262.164-.114.386-.168.587-.193.135-.017.283.067.425.107l6.003 1.702c-.882 1.605-2.014 2.875-3.458 3.856-6.227 4.232-17.408 2.056-19.227-8.581-.71-4.15-.018-8.046 2.725-11.347 2.672-3.217 6.12-4.676 10.298-4.336 2.786.225 5.27 1.142 7.295 3.131 2.166 2.125 3.159 4.812 3.43 7.789.102 1.107.06 2.232.018 3.347-.038 1.025-.252 1.192-1.244 1.192H86.982zm52.059-2.387c-.078-.662-.106-1.336-.244-1.986-.524-2.475-2.312-4.105-4.733-4.366-2.397-.259-4.438 1-5.442 3.37-.683 1.612-.7 3.292-.356 4.97.88 4.288 5.68 6.038 8.8 3.204 1.504-1.367 1.973-3.186 1.975-5.191m-5.487 13.217c-7.282.005-12.663-5.644-12.623-13.25.04-7.448 5.454-13.076 12.59-13.09 7.22-.013 12.628 5.628 12.628 13.17 0 7.599-5.323 13.166-12.595 13.17M76.798 18.513v10.861c-.002 6.137-3.828 10.89-9.665 12.007-6.443 1.234-13.007-4.149-13.256-10.85-.023-.61.108-.835.736-.826 2.361.034 4.723.02 7.084.007.38-.001.594.067.716.514.49 1.782 1.773 2.697 3.361 2.466 1.5-.218 2.498-1.516 2.5-3.335.01-7.39.005-14.78.006-22.17 0-.25-.006-.75.002-.75h8.516v12.076z" fill="#F50"/><g transform="translate(0 14.048)"><mask id="f" fill="#fff"><use xlink:href="#e"/></mask><path d="M34.902 9.226c-.035 2.358.233 1.983-1.585 2.478-9.803 2.67-19.61 5.322-29.409 8.009-.7.192-1.053.029-1.407-.59C.803 16.167-.05 13 .002 9.57c.01-.693.226-.995.892-1.174 8.658-2.324 17.308-4.676 25.96-7.022C28.288.986 29.73.624 31.15.187c.59-.181.889 0 1.183.498 1.628 2.752 2.515 5.718 2.57 8.54" fill="#F50" mask="url(#f)"/></g><path d="M119.204 35.46c0 1.362-.015 2.723.008 4.084a.855.855 0 01-.592.833c-2.455.776-4.917.866-7.305-.16-2.625-1.128-3.965-3.276-4.062-6.063-.123-3.56-.051-7.127-.063-10.692-.004-1.03-.004-1.03-1.02-1.033-1.852-.006-1.852-.006-1.852-1.896 0-1.312.017-2.624-.007-3.935-.01-.556.144-.836.757-.775.441.044.894-.027 1.336.016.642.063.803-.228.795-.818-.026-1.807.01-3.614-.02-5.42-.012-.775-.012-.775 1.479-.75 1.431.024 2.88.02 4.307.01 1.455-.01 1.455-.064 1.446.66-.025 1.88.006 3.762-.019 5.643-.006.522.173.689.686.676 1.164-.03 2.33.005 3.494-.015.614-.011.535.21.535 1.258v4.125c.001 1.055.055 1.236-.54 1.227-1.164-.019-2.33.012-3.493-.013-.52-.01-.684.189-.68.698.018 3.143.001 6.287.019 9.43.006 1.163.435 1.666 1.59 1.7 1.024.032 2.052-.116 3.201-.193v1.403zM17.458 5.853c2.953.01 5.717.74 8.312 2.141.235.127.398.39.594.59-.225.161-.428.402-.677.47a6707.331 6707.331 0 01-22.64 6.142c-.231.063-.502-.025-.754-.043.045-.25.022-.545.147-.745C5.39 9.69 9.59 6.903 15.03 6.072c.802-.122 1.619-.148 2.428-.219m.021 35.705c-2.904.005-5.627-.697-8.183-2.065-.274-.147-.468-.45-.699-.68.26-.16.5-.391.78-.468 7.49-2.057 14.984-4.1 22.48-6.129.249-.067.54.031.812.053-.067.274-.067.591-.21.815-3.526 5.526-8.566 8.273-14.98 8.474" fill="#FF5600"/></g></svg>
