<svg width="61" height="48" xmlns="http://www.w3.org/2000/svg"><g fill="none"><path d="M60.357 30.638v-.719h-.187l-.217.494-.216-.494h-.188v.72h.133v-.543l.203.468h.138l.202-.47v.544h.132zm-1.19 0v-.596h.241v-.122h-.613v.122h.24v.596h.133z" fill="#0099DF"/><path fill="#6C6BBD" d="M39.043 33.732H22.82V4.575h16.223z"/><path d="M23.859 19.151c0-5.914 2.77-11.183 7.082-14.578A18.461 18.461 0 0019.48.608C9.243.608.942 8.91.942 19.151s8.301 18.543 18.54 18.543c4.326 0 8.306-1.482 11.46-3.965-4.313-3.395-7.082-8.663-7.082-14.578" fill="#EB001B"/><path d="M60.923 19.151c0 10.241-8.3 18.543-18.54 18.543a18.467 18.467 0 01-11.46-3.965c4.313-3.395 7.083-8.663 7.083-14.578 0-5.914-2.77-11.183-7.083-14.578A18.467 18.467 0 0142.383.608c10.24 0 18.54 8.302 18.54 18.543" fill="#0099DF"/><path d="M44.513 41.965c.216 0 .526.041.763.134l-.33 1.01a1.735 1.735 0 00-.67-.124c-.7 0-1.05.452-1.05 1.266v2.76h-1.072V42.09h1.061v.598c.278-.433.68-.722 1.298-.722m-3.959 1.102h-1.75v2.225c0 .494.174.824.71.824.279 0 .629-.093.947-.278l.31.916c-.34.237-.876.382-1.339.382-1.267 0-1.71-.68-1.71-1.824v-2.245h-.999v-.978h1v-1.494h1.08v1.494h1.751v.978zm-13.709 1.05c.114-.71.546-1.195 1.309-1.195.69 0 1.133.433 1.246 1.196h-2.555zm3.668.433c-.011-1.535-.959-2.585-2.34-2.585-1.441 0-2.45 1.05-2.45 2.585 0 1.565 1.05 2.584 2.524 2.584.741 0 1.42-.185 2.018-.69l-.526-.793a2.34 2.34 0 01-1.43.516c-.69 0-1.319-.32-1.473-1.205h3.655c.011-.135.022-.268.022-.412m4.706-1.204a3.157 3.157 0 00-1.534-.424c-.587 0-.937.217-.937.578 0 .329.37.422.833.483l.505.072c1.071.156 1.72.609 1.72 1.474 0 .937-.824 1.607-2.245 1.607-.804 0-1.545-.207-2.132-.64l.504-.834c.36.278.897.515 1.639.515.73 0 1.122-.216 1.122-.597 0-.278-.278-.433-.865-.514l-.505-.072c-1.102-.156-1.7-.65-1.7-1.453 0-.978.804-1.576 2.05-1.576.783 0 1.494.176 2.008.515l-.463.866zm13.21-.364c-.221 0-.425.04-.615.116a1.474 1.474 0 00-.49.325c-.138.14-.247.307-.326.501a1.7 1.7 0 00-.118.643c0 .234.04.448.118.642a1.46 1.46 0 00.816.827 1.6 1.6 0 00.614.115c.22 0 .426-.037.614-.115a1.472 1.472 0 00.822-.827 1.69 1.69 0 00.118-.642c0-.234-.039-.448-.118-.643a1.472 1.472 0 00-.822-.826 1.618 1.618 0 00-.614-.116m0-1.017c.382 0 .736.066 1.061.2a2.504 2.504 0 011.402 1.37c.134.316.201.66.201 1.032 0 .371-.067.715-.201 1.033a2.51 2.51 0 01-1.402 1.37 2.795 2.795 0 01-1.06.199 2.8 2.8 0 01-1.062-.198 2.566 2.566 0 01-.84-.547 2.54 2.54 0 01-.556-.824 2.62 2.62 0 01-.201-1.033 2.55 2.55 0 01.757-1.856c.235-.232.515-.415.84-.547.326-.133.68-.199 1.061-.199m-27.84 2.585c0-.865.567-1.576 1.493-1.576.886 0 1.483.68 1.483 1.576s-.597 1.575-1.483 1.575c-.926 0-1.493-.71-1.493-1.575m3.985 0V42.09h-1.07v.598c-.34-.444-.855-.722-1.555-.722-1.38 0-2.461 1.081-2.461 2.585 0 1.503 1.08 2.586 2.461 2.586.7 0 1.214-.279 1.555-.722v.598h1.07V44.55zm-6.034 2.462v-3.09c0-1.164-.742-1.946-1.936-1.957-.628-.01-1.278.185-1.73.876-.34-.546-.877-.876-1.629-.876-.524 0-1.04.154-1.441.731v-.607h-1.07v4.923h1.08v-2.73c0-.854.474-1.308 1.205-1.308.71 0 1.072.463 1.072 1.298v2.74h1.08v-2.73c0-.854.496-1.308 1.205-1.308.733 0 1.083.463 1.083 1.298v2.74h1.08z" fill="#000"/><path d="M52.247 46.643v.121h.112a.11.11 0 00.06-.015.052.052 0 00.023-.046.05.05 0 00-.023-.045.101.101 0 00-.06-.015h-.112zm.113-.085c.058 0 .102.013.134.039a.13.13 0 01.047.106.122.122 0 01-.037.093.187.187 0 01-.108.045l.149.17h-.116l-.138-.169h-.044v.17h-.097v-.454h.21zm-.03.61a.387.387 0 00.349-.232.388.388 0 00-.081-.42.364.364 0 00-.12-.08.358.358 0 00-.148-.029.373.373 0 00-.15.03.363.363 0 00-.202.201.367.367 0 00-.03.149c0 .053.01.102.03.148a.358.358 0 00.203.203c.046.02.096.03.15.03m0-.87a.48.48 0 01.193.038.486.486 0 010 .901.497.497 0 01-.694-.45.48.48 0 01.304-.45.497.497 0 01.196-.04" fill="#FFF"/></g></svg>
