<svg width="59" height="47" xmlns="http://www.w3.org/2000/svg"><g fill="none"><path d="M57.754 45.647v.119h.108a.113.113 0 00.06-.015.052.052 0 00.021-.045.05.05 0 00-.022-.044.103.103 0 00-.059-.015h-.108zm.11-.083c.055 0 .098.013.13.038.03.025.045.06.045.104a.12.12 0 01-.037.091.177.177 0 01-.103.044l.143.168h-.112l-.133-.167h-.043v.167h-.094v-.445h.203zm-.03.598a.374.374 0 00.259-.639.361.361 0 00-.259-.107.371.371 0 00-.264.107.362.362 0 00-.076.12.364.364 0 00-.029.145c0 .052.01.1.029.145a.35.35 0 00.196.2c.044.019.093.03.145.03m0-.854a.47.47 0 01.34.14.47.47 0 01.141.339.463.463 0 01-.038.186.496.496 0 01-.255.255.476.476 0 01-.533-.103.496.496 0 01-.103-.152.463.463 0 01-.037-.186.47.47 0 01.294-.441.476.476 0 01.19-.038m-44.448-1.713c0-.848.548-1.544 1.445-1.544.857 0 1.435.666 1.435 1.544s-.578 1.544-1.435 1.544c-.897 0-1.445-.696-1.445-1.544m3.857 0v-2.411h-1.036v.585c-.329-.434-.827-.706-1.505-.706-1.336 0-2.383 1.06-2.383 2.532 0 1.474 1.047 2.533 2.383 2.533.678 0 1.176-.273 1.505-.707v.585h1.036v-2.41zm35.006 0c0-.848.549-1.544 1.445-1.544.858 0 1.436.666 1.436 1.544s-.578 1.544-1.436 1.544c-.896 0-1.445-.696-1.445-1.544m3.858 0v-4.348H55.07v2.522c-.328-.434-.827-.706-1.504-.706-1.336 0-2.384 1.06-2.384 2.532 0 1.474 1.048 2.533 2.384 2.533.677 0 1.176-.273 1.504-.707v.585h1.037v-2.41zm-26.005-1.594c.667 0 1.096.424 1.205 1.17h-2.472c.11-.696.528-1.17 1.267-1.17m.02-.938c-1.396 0-2.373 1.028-2.373 2.532 0 1.534 1.017 2.533 2.443 2.533.717 0 1.374-.182 1.953-.676l-.508-.777c-.4.322-.908.505-1.386.505-.667 0-1.276-.313-1.425-1.182h3.538c.01-.13.02-.262.02-.403-.01-1.504-.927-2.532-2.262-2.532m12.508 2.532c0-.848.55-1.544 1.446-1.544.857 0 1.435.666 1.435 1.544s-.578 1.544-1.435 1.544c-.897 0-1.446-.696-1.446-1.544m3.858 0v-2.411h-1.036v.585c-.33-.434-.827-.706-1.505-.706-1.336 0-2.383 1.06-2.383 2.532 0 1.474 1.047 2.533 2.383 2.533.678 0 1.175-.273 1.505-.707v.585h1.036v-2.41zm-9.708 0c0 1.463 1.006 2.533 2.542 2.533.718 0 1.196-.162 1.714-.575l-.498-.848c-.389.283-.797.434-1.247.434-.827-.01-1.435-.615-1.435-1.544 0-.928.608-1.534 1.435-1.544.45 0 .858.151 1.247.434l.498-.847c-.518-.414-.996-.575-1.714-.575-1.536 0-2.542 1.069-2.542 2.532m13.356-2.532c-.598 0-.987.282-1.256.706v-.585h-1.027v4.822h1.037v-2.703c0-.798.34-1.242 1.017-1.242.21 0 .429.03.648.122l.32-.989a2.182 2.182 0 00-.739-.131m-27.77.504c-.498-.332-1.185-.504-1.942-.504-1.207 0-1.984.585-1.984 1.544 0 .786.578 1.271 1.644 1.422l.49.07c.567.082.835.233.835.505 0 .373-.378.586-1.086.586-.717 0-1.235-.232-1.584-.505l-.489.817c.568.424 1.286.626 2.063.626 1.376 0 2.173-.656 2.173-1.574 0-.848-.627-1.292-1.664-1.443l-.489-.071c-.448-.06-.807-.15-.807-.474 0-.353.339-.565.907-.565.608 0 1.196.233 1.485.414l.448-.848zm13.367-.504c-.598 0-.987.282-1.255.706v-.585H33.45v4.822h1.036v-2.703c0-.798.339-1.242 1.016-1.242.21 0 .43.03.648.122l.32-.989a2.182 2.182 0 00-.738-.131m-8.84.12h-1.695v-1.462H24.15v1.463h-.967v.958h.967v2.2c0 1.12.429 1.786 1.654 1.786.45 0 .967-.141 1.296-.373l-.299-.899a1.9 1.9 0 01-.917.273c-.518 0-.687-.324-.687-.808v-2.179h1.694v-.958zm-15.49 4.823v-3.026c0-1.14-.718-1.907-1.875-1.917-.608-.01-1.235.18-1.674.858-.329-.535-.847-.858-1.575-.858-.509 0-1.006.15-1.395.716v-.595H3.847v4.822h1.046v-2.673c0-.837.459-1.282 1.167-1.282.688 0 1.036.454 1.036 1.272v2.683h1.047v-2.673c0-.837.478-1.282 1.166-1.282.708 0 1.047.454 1.047 1.272v2.683h1.047z" fill="#000"/><path d="M58.393 29.99v-.72h-.182l-.21.494-.209-.494h-.182v.72h.129v-.543l.196.468h.134l.196-.469v.544h.128zm-1.152 0v-.597h.233v-.121h-.593v.121h.233v.597h.127z" fill="#F79410"/><path fill="#FF5F00" d="M37.766 33h-15.7V4.437h15.7z"/><path d="M23.072 18.716c0-5.793 2.68-10.954 6.853-14.28A17.73 17.73 0 0018.835.552C8.927.552.894 8.684.894 18.716c0 10.032 8.033 18.165 17.943 18.165a17.73 17.73 0 0011.089-3.884 18.214 18.214 0 01-6.853-14.28" fill="#EB001B"/><path d="M58.94 18.716c0 10.032-8.033 18.165-17.942 18.165a17.735 17.735 0 01-11.09-3.884 18.212 18.212 0 006.854-14.28c0-5.794-2.68-10.955-6.854-14.281A17.735 17.735 0 0140.998.552c9.91 0 17.942 8.132 17.942 18.164" fill="#F79E1B"/></g></svg>
