<svg width="170" height="48" xmlns="http://www.w3.org/2000/svg"><defs><linearGradient x1="0%" y1="50%" x2="100%" y2="50%" id="a"><stop stop-color="#00A0E5" offset="0%"/><stop stop-color="#0077C3" offset="100%"/></linearGradient></defs><g fill="none"><path d="M122.315 21.685V48h14.619V32.406h16.569c6.973-.052 12.896-4.506 15.13-10.72h-46.318z" fill="#37A72E"/><path d="M120.365 0c.852 10.756 11.028 19.249 23.456 19.249h25.42a16.35 16.35 0 00.285-3.046c0-8.91-7.189-16.137-16.081-16.203h-33.08z" fill="url(#a)"/><path d="M98.729 18.993l.011-.025h.002a.877.877 0 011.643.402v28.386h14.62V0h-14.62c-1.853.062-3.948 1.422-4.726 3.092l-11.635 24.95a.97.97 0 01-.131.282l-.004.009h-.002a.974.974 0 01-1.775-.556V0h-14.62v47.756h14.62v-.005c1.833-.096 3.879-1.441 4.646-3.087l11.94-25.607a.873.873 0 01.03-.064zm-54.59.817l-8.544 27.946H25.078l-8.55-27.964a.963.963 0 00-1.909.188v27.776H0V0h16.285c2.69 0 5.51 2.088 6.295 4.659l7.115 23.271c.354 1.158.928 1.157 1.282 0l7.115-23.27C38.879 2.086 41.697 0 44.387 0H60.67v47.756H46.05V19.968a.962.962 0 00-1.911-.159z" fill="#37A72E"/></g></svg>
