<svg width="55" height="48" xmlns="http://www.w3.org/2000/svg"><path d="M45.993 47.97L31.61 36.17H11.827C5.307 36.17 0 30.747 0 24.084v-11.97C0 5.45 5.306.029 11.827.029h31.3c6.52 0 11.826 5.422 11.826 12.085v11.97c0 5.607-3.758 10.397-8.96 11.722V47.97zM11.827 3.465c-4.627 0-8.392 3.88-8.392 8.65v11.97c0 4.77 3.765 8.651 8.392 8.651h21.011l9.72 7.974v-7.855l1.516-.18c4.245-.5 7.445-4.192 7.445-8.59v-11.97c0-4.77-3.765-8.65-8.392-8.65h-31.3z"/><path d="M9.789 20.134c.612.372 1.882.81 2.866.81 1.006 0 1.422-.35 1.422-.898s-.329-.81-1.575-1.226c-2.21-.744-3.063-1.947-3.042-3.216 0-1.99 1.708-3.5 4.354-3.5 1.248 0 2.365.283 3.02.612l-.59 2.298c-.481-.264-1.4-.614-2.32-.614-.81 0-1.269.328-1.269.875 0 .503.416.767 1.729 1.226 2.034.7 2.888 1.73 2.91 3.304 0 1.99-1.575 3.456-4.639 3.456-1.4 0-2.648-.305-3.456-.743l.59-2.384zm9.515-4.377c0-1.334-.043-2.472-.087-3.413h2.8l.154 1.444h.065c.46-.678 1.4-1.684 3.238-1.684 1.379 0 2.472.7 2.932 1.815h.043a4.776 4.776 0 011.379-1.29c.592-.35 1.248-.525 2.036-.525 2.056 0 3.61 1.444 3.61 4.637v6.302h-3.238v-5.82c0-1.554-.505-2.45-1.576-2.45-.765 0-1.313.524-1.531 1.16a2.76 2.76 0 00-.131.853v6.257H25.76v-5.995c0-1.357-.482-2.276-1.533-2.276-.852 0-1.357.658-1.553 1.204-.11.262-.131.569-.131.832v6.235h-3.238v-7.286zm18.792 4.377c.612.372 1.881.81 2.866.81 1.006 0 1.422-.35 1.422-.898s-.329-.81-1.575-1.226c-2.21-.744-3.064-1.947-3.042-3.216 0-1.99 1.707-3.5 4.354-3.5 1.247 0 2.363.283 3.02.612l-.59 2.298c-.482-.264-1.4-.614-2.32-.614-.81 0-1.27.328-1.27.875 0 .503.416.767 1.73 1.226 2.034.7 2.887 1.73 2.91 3.304 0 1.99-1.575 3.456-4.64 3.456-1.4 0-2.647-.305-3.456-.743l.59-2.384z"/></svg>
