<svg width="291" height="48" xmlns="http://www.w3.org/2000/svg"><path d="M272.337 21.34c-1.614 1.11-3.955 1.66-7.16 1.66H262l2.437-13h2.336c2.66 0 4.602.423 5.941 1.281 1.046.673 2.286 2.006 2.286 4.534 0 3.046-1.442 4.685-2.663 5.525zM77.995 37H53l1.616-8.344h15.677l1.782-9.398H56.548l1.5-8.258H83l-5.005 26zM285.68 3.649C281.97 1.222 276.359 0 269.003 0h-19.268l-7.162 37.116h-25.239l1.618-8.42h15.206l1.808-9.459-15.197.026 1.628-8.384h15.659L240.139 0H208.33l-6.798 35.21h-11.664L196.716 0h-16.63l-6.798 35.21h-11.372L168.77.002h-16.613l-7.18 37.116H119.56l1.601-8.42h15.275l1.799-9.404-15.252-.013 1.62-8.401h15.833L142.508 0H43.41l-5.64 29.414L26.53 0H9.283L0 48h16.47l5.618-30.222L32.995 48H92.03l7.176-37.122h9.237L101.264 48h155.34l4.5-23.435L268.397 48h16.48l-7.55-19.148 1.724-.356c3.797-.776 6.77-2.449 8.833-4.954 2.067-2.53 3.116-5.776 3.116-9.676.001-4.543-1.737-7.883-5.321-10.217z" fill="#8DC640" fill-rule="evenodd"/></svg>
