<svg width="176" height="48" xmlns="http://www.w3.org/2000/svg"><g fill="none" fill-rule="evenodd"><ellipse fill="#D70D0D" fill-rule="nonzero" cx="166.426" cy="8.852" rx="8.656" ry="8.852"/><path d="M161.126 7.64c-.014 0-.027 0-.054-.014-.026-.015-.013-.058-.013-.1v-2.89l-.026-.301a.193.193 0 00-.08-.143l-.066-.043c-.265-.072-.478-.029-.69-.057v-.158h2.652c.292.015.518.072.677.13.252.085.397.185.464.214.106.071.185.143.238.186.067.071.146.157.226.257 0 0 .093.143.172.272.252.444.226 1.002.226 1.002 0 .1-.04.7-.438 1.144a1.6 1.6 0 01-.411.344c-.16.1-.305.143-.424.186a2.588 2.588 0 01-.464.114 3.746 3.746 0 01-.876.057l-.795.029c-.226 0-.464 0-.703-.029-.212-.014-.424-.043-.61-.057a28.9 28.9 0 01-1.18-.272l1.233.143h.583c.226 0 .465 0 .77-.014.159-.014.278-.014.424-.029.146-.014.318-.028.504-.071a2.21 2.21 0 00.543-.186 1.63 1.63 0 00.77-.658 1.7 1.7 0 00.08-1.531 1.293 1.293 0 00-.332-.444 1.075 1.075 0 00-.451-.214 2.414 2.414 0 00-1.14-.043c-.146.071-.266.171-.28.243-.012.029-.012.129-.012.172V7.54c-.014.014-.027.014-.027.014h-.398c-.053.086-.08.086-.092.086zm10.921-3.02c-.014 0-.014.013-.014.013s-.013.014-.013.028c-.014.042-.014.083-.014.083.014.056 0 .125 0 .18.014.223 0 .459 0 .68v6.246s0 .041.027.07c.027.027.054.013.068.013h.54v.264h-1.876v-.264h.486s.04 0 .067-.042c.027-.027.013-.069.013-.069 0-1.915.027-3.914.027-5.829l-2.388 6.204c-.863-2.096-1.673-4.191-2.537-6.287 0 1.929-.04 3.872-.04 5.801v.125c0 .028.013.055.027.055h.594v.306h-1.768v-.306h.688c.054 0 .068-.777.081-1.818.014-1.263-.013-2.9 0-4.024 0 0 .027-.097.027-1.305 0-.014 0-.055-.027-.083-.04-.042-.108-.042-.135-.042h-.513v-.291h1.255l2.483 6.509 2.402-6.44h1.214v.208m-10.229 7.578h-.362l-1.177.014h-.428v-.212h.562l.053-.014c.067-.043.054-.1.054-.1V8.396c0-.057 0-.085.013-.1.013-.013.04-.027.107-.027.12 0 .174-.015.228 0h.187s.013 0 .027.014a.045.045 0 01.013.028v3.476c0 .014 0 .155.014.17.013.014.107.014.12.014h.562v.212h.027z" fill="#FFF" fill-rule="nonzero"/><g fill="#D70D0D"><path d="M113.296 15.348c1.444 0 3.027-.008 4.61.013.165.002.327.18.49.277-.148.148-.28.317-.448.435-.09.064-.242.034-.365.055-1.74.3-2.177.745-2.144 2.547.091 5.068.227 10.135.37 15.202.035 1.249.52 1.694 1.787 1.811.124.012.278-.03.367.03.173.116.31.286.463.433-.173.127-.345.36-.519.363a290.79 290.79 0 01-6.814 0c-.202-.003-.401-.258-.601-.395.193-.14.374-.374.583-.402 1.836-.25 1.992-.403 1.994-2.21.003-4.509.001-9.018.001-13.526l-.337-.113-8.471 17.116-7.978-17.188-.153.023c-.118 1.846-.27 3.69-.345 5.538-.1 2.517-.143 5.035-.205 7.553a6.81 6.81 0 00.027 1.026c.178 1.394.492 1.676 1.91 1.765.124.008.278-.036.367.022.182.117.328.286.49.434-.18.123-.356.35-.536.352-2.022.024-4.045.024-6.067-.004-.166-.003-.329-.26-.493-.4.136-.132.251-.343.412-.387 2.109-.576 2.239-.64 2.383-2.778.318-4.715.593-9.433.828-14.153.1-2.005-.098-2.166-2.04-2.67-.231-.06-.41-.317-.615-.483.231-.096.46-.27.693-.274 1.494-.025 2.989-.013 4.389-.013 1.653 6.093 5.312 11.194 7.782 16.944 2.788-5.611 5.936-10.985 8.185-16.943m23.154 7.865l.142 2.093c.792-.385 1.423-.79 2.114-1.004.94-.293 1.934-.64 2.893-.61 2.208.067 3.443 1.496 3.473 3.77.03 2.278.049 4.557.035 6.835-.005.952.42 1.413 1.37 1.512.236.025.447.282.67.433-.245.111-.489.315-.736.318-1.622.024-3.245.018-4.867-.015-.241-.004-.478-.2-.717-.306.215-.153.414-.4.65-.443.851-.152 1.24-.626 1.238-1.462-.003-2.125.053-4.252-.012-6.375-.057-1.867-1.255-2.844-3.227-2.786-1.945.058-2.961 1.055-2.964 2.92-.002 2.002-.007 4.004.002 6.006.006 1.213.171 1.38 1.368 1.71.192.053.323.321.483.49-.192.094-.383.267-.576.27-1.684.024-3.368.029-5.052.007-.181-.002-.36-.205-.54-.314.142-.154.259-.4.43-.447 1.358-.362 1.474-.477 1.48-1.88.01-2.187-.02-4.375.014-6.561.013-.791-.104-1.452-.847-1.905-.496-.304-.458-.597.097-.841.99-.437 1.969-.903 3.08-1.415M7.61 25.965H5.082c0-.355.002-.677 0-1-.012-2.236.009-4.474-.048-6.71-.037-1.47-.411-1.782-1.866-1.971-.3-.04-.571-.299-.856-.457.29-.143.58-.408.872-.41 2.852-.025 5.718-.173 8.555.041 4.055.306 6.418 3.814 5.292 7.54-.653 2.16-2.445 3.105-4.357 3.742-2.877.958-5.862.953-8.843.525-1.29-.184-2.568-.442-3.831-.53 1.807 0 3.616.053 5.42-.016 1.71-.065 3.449-.093 5.115-.431 2.713-.552 4.18-2.79 3.864-5.506-.351-3.025-1.94-4.51-4.93-4.607h-.092c-1.715-.037-1.767.013-1.767 1.696v8.094m31.452-.958c.22-.193.41-.48.665-.563 1.022-.33 1.247-1.025 1.29-2.054.09-2.12.47-4.198 1.735-5.993 1.463-2.077 3.82-3.065 6.111-2.442.584.16 1.166.55 1.602.985.438.438.36 1.065-.115 1.5-.499.454-1.07.424-1.589 0-.261-.213-.464-.499-.723-.715-1.541-1.29-3.408-.806-4.035 1.136-.348 1.08-.51 2.237-.632 3.373-.106.984-.01 1.989-.052 2.982-.028.627.232.812.814.796 1.101-.03 2.204-.008 3.286-.008.295 1.115.177 1.283-.853 1.291-.86.007-1.725-.045-2.58.03-.235.02-.625.403-.629.624-.04 2.83-.024 5.659-.018 8.489.003.817.406 1.27 1.226 1.32.184.01.393-.033.546.042.225.109.41.302.61.46-.212.115-.426.33-.638.33-1.412-.005-2.824-.066-4.236-.086-.458-.006-.92.093-1.376.07-.179-.01-.347-.222-.52-.342.124-.145.221-.372.376-.423 1.597-.526 1.67-.63 1.659-2.289-.017-2.332-.02-4.664-.02-6.996 0-1.2.007-1.198-1.206-1.23-.18-.005-.362-.032-.543-.05l-.155-.237m82.035 4.92c.06 1.616.387 3.443 1.844 4.84 1.303 1.249 3.487 1.134 4.57-.212 1.899-2.36 1.635-7.29-.505-9.437-1.382-1.386-3.549-1.239-4.722.323-.93 1.238-1.169 2.676-1.187 4.486m10.313-.194c.03 4.032-2.616 6.8-6.557 6.856-3.658.053-6.406-2.715-6.427-6.473-.02-3.906 2.794-6.845 6.612-6.902 3.63-.055 6.342 2.72 6.372 6.52m35.395 3.906c.897-2.048 1.697-3.855 2.477-5.67.27-.628.495-1.273.736-1.912.255-.679.034-1.076-.702-1.17-.246-.033-.518-.032-.726-.143-.145-.077-.246-.312-.273-.491-.01-.063.258-.24.4-.242a204.64 204.64 0 014.766.004c.14.002.28.174.419.268-.117.157-.217.434-.354.454-1.339.19-1.922 1.201-2.424 2.242-2.521 5.228-5.013 10.47-7.515 15.709-.694 1.453-1.311 1.881-2.423 1.747-.737-.09-1.16-.48-1.18-1.199-.02-.74.382-1.406 1.126-1.329 1.545.161 2.058-.864 2.62-1.92.03-.055.06-.11.094-.162 1.35-2.082 1.573-4.17.475-6.506-.987-2.099-1.667-4.343-2.446-6.536-.366-1.032-.874-1.843-2.078-2.004-.168-.022-.303-.29-.453-.443.18-.106.358-.302.54-.305 1.681-.026 3.364-.028 5.046-.008.188.003.374.19.56.29-.148.158-.269.395-.45.459-1.247.44-1.275.437-.844 1.716.663 1.97 1.359 3.93 2.051 5.89.12.34.29.661.558 1.262m-16.798-6.625c1.735 0 3.29.043 4.84-.028.413-.019 1.144-.376 1.15-.594.015-.522-.17-1.2-.534-1.55-.86-.83-1.981-.846-3.055-.424-1.16.457-2.055 1.21-2.4 2.596m4.017.99c-1.152.002-2.307-.038-3.455.028-.302.018-.823.343-.839.557-.198 2.714 1.265 6.055 5.03 6.26 1.062.058 1.932-.315 2.706-1.02.235-.214.583-.306.88-.454-.097.343-.1.758-.305 1.017-1.547 1.957-3.625 2.516-5.998 2.031-2.395-.489-3.733-2.075-4.286-4.378-.903-3.768 1.086-7.533 4.52-8.565 2.374-.713 4.624.019 5.738 1.878.142.237.256.496.341.758.468 1.445.154 1.882-1.343 1.887-.996.004-1.993 0-2.99.002m-134.508-.978c1.552 0 3.104.04 4.65-.027.42-.018 1.061-.269 1.185-.577.268-.665.04-1.44-.666-1.735-.686-.285-1.49-.47-2.225-.422-1.484.097-2.884 1.488-2.944 2.76m3.87.986c-1.154 0-2.31-.033-3.46.025-.276.015-.73.299-.776.523-.602 2.989 1.812 6.073 4.87 6.29 1.124.08 2.07-.274 2.882-1.056.21-.202.54-.281.816-.417-.076.324-.059.717-.242.961-1.483 1.973-3.533 2.53-5.88 2.128-2.239-.383-3.648-1.748-4.32-3.881-1.154-3.663.571-7.675 3.873-8.917 1.89-.712 3.743-.665 5.37.666.461.378.857.917 1.1 1.462.697 1.559.245 2.213-1.429 2.215h-2.805"/><path d="M50.02 27.013c1.732 0 3.293.043 4.849-.028.418-.019 1.173-.393 1.166-.582-.022-.562-.19-1.28-.582-1.634-.847-.77-1.958-.779-3-.365-1.158.46-2.083 1.193-2.434 2.61m4.066.987c-1.062 0-2.124-.004-3.186 0-1.146.006-1.198.065-1.16 1.23.098 2.972 1.782 5.082 4.413 5.545 1.359.24 2.528-.064 3.505-1.07.174-.18.492-.222.744-.327-.047.269-.018.585-.153.8-1.181 1.864-3.622 2.766-6.09 2.282-2.33-.455-4.06-2.191-4.42-4.596-.398-2.663.046-5.127 2.14-7.06 2.124-1.962 5.542-2.136 7.427-.378.377.353.725.787.944 1.25.784 1.66.352 2.322-1.446 2.323h-2.718m5.325 2.43c.004-3.93 2.631-6.861 6.383-7.182 1.166-.1 2.373.028 3.536.21.986.155 1.364.839 1.146 1.778-.064.274-.263.637-.488.72-.204.073-.595-.117-.788-.306-1.093-1.073-2.322-1.677-3.907-1.358-1.11.223-1.998.793-2.62 1.696-2.33 3.379-.338 8.326 3.508 8.798 1.535.189 2.865-.147 3.91-1.358.169-.195.48-.268.724-.398-.02.297.058.647-.073.882-1.128 2.006-3.653 3.01-6.392 2.58a5.703 5.703 0 01-4.747-4.597c-.105-.55-.147-1.112-.192-1.464m-30.145-5.807l3.59-1.804.101 2.367c.632-.46 1.14-.967 1.745-1.235.66-.291 1.423-.543 2.114-.481.847.076 1.159.961.823 1.815-.275.697-1.032.98-1.744.645-.164-.078-.315-.188-.476-.272-1.297-.674-2.358-.152-2.424 1.371-.11 2.519-.054 5.045-.052 7.568 0 .685.423 1.012 1.022 1.115.267.046.557-.01.807.076.205.07.366.281.546.43-.196.13-.392.372-.588.371-1.386-.004-2.771-.068-4.158-.09-.45-.007-.903.095-1.35.066-.174-.01-.334-.246-.5-.38.13-.137.239-.35.395-.4 1.444-.475 1.473-.502 1.474-2.094.002-2.114-.023-4.229.012-6.342.015-.937-.061-1.766-.984-2.233-.114-.057-.173-.234-.353-.493m50.891 10.54c-.133.25-.214.557-.41.74-1.141 1.071-3.477 1.419-4.861.707-1.034-.533-1.392-1.493-1.4-2.595-.015-2.328-.005-4.657-.006-6.986 0-1.706 0-1.706-1.872-1.972.297-.31.449-.604.672-.677 1.202-.397 2.028-1.201 2.671-2.257.126-.206.393-.325.595-.485.115.254.33.509.327.76-.02 1.613.025 1.472 1.509 1.477.72.002 1.442.01 2.163-.002.43-.008.73.068.718.608-.013.522-.23.723-.748.708-.94-.025-1.883.033-2.82-.021-.611-.036-.912.204-.906.774.028 2.515-.025 5.037.161 7.54.142 1.903 1.703 2.614 3.43 1.764.186-.092.384-.158.576-.236l.201.153M5.052 28.721l2.568.187c0 1.413-.005 2.823.002 4.232.01 1.988.387 2.384 2.383 2.64.222.03.413.297.618.453-.24.12-.478.34-.719.341-2.28.024-4.561.022-6.842-.01-.235-.002-.468-.238-.701-.366.19-.145.365-.382.575-.42 1.753-.318 2.042-.61 2.107-2.528.05-1.472.01-2.946.01-4.529"/></g><path d="M95.326 45.752c1.74 0 2.435-1.023 2.435-2.7V38.13h-1.054v4.562c0 1.473-.173 2.087-1.442 2.087-.992 0-1.412-.48-1.412-1.565v-.164H92.8v.317c0 1.586.839 2.384 2.526 2.384zm6.107-.041c.931 0 1.658-.348 2.261-1.085v.931h.992v-5.503h-.992v2.803c0 1.227-.87 2.015-2.036 2.015-.992 0-1.32-.501-1.32-1.616v-3.202h-.991v3.488c0 1.545.757 2.169 2.086 2.169zm7.069 0c1.8 0 2.71-.604 2.71-1.719 0-.992-.5-1.36-1.728-1.565l-1.187-.194c-.838-.143-1.248-.246-1.248-.778 0-.47.502-.736 1.433-.736.992 0 1.524.307 1.595.992h.962c0-1.187-.86-1.831-2.506-1.831-1.637 0-2.476.614-2.476 1.75 0 1.012.645 1.298 1.934 1.513l1.227.215c.696.113 1.003.256 1.003.685 0 .502-.594.829-1.719.829-.951 0-1.524-.399-1.616-1.105H105.8c.123 1.35.993 1.944 2.701 1.944zm5.708 0c.276 0 .583-.041.92-.092v-.91c-.265.06-.48.081-.674.081-.491 0-.676-.174-.676-.634v-3.263h1.35v-.84h-1.35v-1.4h-.992v1.4h-.961v.84h.961v3.55c0 .859.45 1.268 1.422 1.268zm6.25 1.8V44.75c.563.645 1.238.962 2.118.962 1.75 0 2.956-1.187 2.956-2.895 0-1.719-1.207-2.936-2.946-2.936-.93 0-1.667.389-2.128 1.002v-.828h-.992v7.457h.992zm2.016-2.72c-1.248 0-2.016-.758-2.016-1.975 0-1.228.768-2.015 2.016-2.015s2.005.777 2.005 2.015c0 1.227-.757 1.974-2.005 1.974zm6.833.92c1.463 0 2.516-.675 2.905-1.862h-1.156c-.225.604-.88.941-1.75.941-1.176 0-1.963-.706-1.963-1.78h4.961v-.194c0-1.831-1.115-2.936-2.997-2.936-1.841 0-3.018 1.156-3.018 2.936 0 1.77 1.166 2.895 3.018 2.895zm1.933-3.407h-3.877c.164-.94.89-1.503 1.944-1.503 1.064 0 1.78.573 1.933 1.503zm3.171 3.253v-2.69c0-1.166.809-1.964 1.75-1.964.214 0 .44.03.716.112v-1.043a.871.871 0 00-.44-.092c-.819 0-1.524.378-2.026 1.105v-.931h-.992v5.503h.992zm4.665 0v-4.664h1.35v-.84h-1.35v-.367c0-.481.174-.635.685-.635.195 0 .41.01.665.062v-.9a4.47 4.47 0 00-.92-.082c-.993 0-1.422.409-1.422 1.35v.573h-.972v.839h.972v4.664h.992zm4.93.154c1.463 0 2.517-.675 2.906-1.862h-1.156c-.225.604-.88.941-1.75.941-1.176 0-1.963-.706-1.963-1.78h4.96v-.194c0-1.831-1.114-2.936-2.996-2.936-1.842 0-3.018 1.156-3.018 2.936 0 1.77 1.166 2.895 3.018 2.895zm1.934-3.407h-3.877c.164-.94.89-1.503 1.944-1.503 1.064 0 1.78.573 1.933 1.503zm4.787 3.407c1.504 0 2.558-.819 2.793-2.21h-1.043c-.133.808-.798 1.29-1.709 1.29-1.156 0-1.953-.727-1.953-1.965 0-1.248.767-2.025 2.025-2.025.808 0 1.412.409 1.606 1.084h1.033c-.235-1.228-1.279-2.005-2.731-2.005-1.78 0-2.987 1.187-2.987 2.936 0 1.75 1.217 2.895 2.966 2.895zm5.79 0c.277 0 .583-.041.921-.092v-.91c-.266.06-.48.081-.675.081-.491 0-.675-.174-.675-.634v-3.263h1.35v-.84h-1.35v-1.4h-.993v1.4h-.961v.84h.961v3.55c0 .859.45 1.268 1.422 1.268z" fill="#FFF" fill-rule="nonzero"/></g></svg>
