<svg width="158" height="48" xmlns="http://www.w3.org/2000/svg"><g fill="none" fill-rule="evenodd"><path fill="#EA5616" d="M31.978 0L15.99 15.99h15.99v31.977l15.989-15.95V0z"/><path fill="#0047E4" d="M15.99 0L0 15.951v32.016h15.99l15.989-15.989h-15.99V0zm98.09 33.158c-5.601 0-8.751-4.108-8.751-9.185 0-4.077 2.293-9.193 8.593-9.193 3.933 0 6.47 2.404 7.369 3.523l5.104-5.104c-3.08-3.676-7.702-6.015-12.872-6.015-9.273 0-16.59 6.863-16.59 16.79 0 9.271 7.317 16.788 16.59 16.788 5.55 0 10.47-2.696 13.527-6.848l-5.137-5.137c-1.625 2.545-4.278 4.381-7.832 4.381zm30.616.02h-6.371v-6.39h6.371c1.98 0 3.985.781 3.985 3.186 0 2.406-2.005 3.204-3.985 3.204zm.8-13.202h-7.171V15.19h15.97V7.994H129.93v31.98l15.965-.001c6.401-.001 11.198-3.21 11.198-9.999 0-6.801-4.797-9.998-11.597-9.998zm-81.54 19.997h8.395V15.19h12.79v24.783h8.395V7.994h-29.58v31.98z"/></g></svg>
