<svg width="107" height="48" xmlns="http://www.w3.org/2000/svg"><g fill="none"><path d="M52.068 26.848h1.676v3.886h1.21l2.173-3.886h1.832l-2.607 4.56v.032l2.763 4.977H57.22l-2.236-4.175h-1.21v4.175H52.1v-9.57h-.031v.001zm10.803 2.537c2.016 0 3.662 1.51 3.662 3.596 0 2.12-1.614 3.597-3.631 3.597-2.019 0-3.633-1.477-3.633-3.597-.03-2.118 1.583-3.596 3.602-3.596zm4.966.16h1.583v5.395h2.08v-5.394h1.582v5.394h2.08v-5.394h1.584v6.87h-8.848v-6.87h-.061zm13.597-.16c1.892 0 2.948 1.446 2.948 3.244a4.95 4.95 0 01-.062.674h-4.563c.093 1.187.993 1.83 1.987 1.83.682 0 1.365-.321 1.893-.738l.652 1.22c-.683.609-1.707.995-2.67.995-2.204 0-3.57-1.638-3.57-3.597 0-2.15 1.397-3.628 3.385-3.628zm3.724 5.587c.807-.128 1.397-.834 1.397-3.275v-2.15h4.843v6.87h-1.646v-5.492h-1.614v.77c0 2.987-.776 4.722-2.98 4.785v-1.509.001zm10.958-5.587c1.893 0 2.948 1.446 2.948 3.244a4.95 4.95 0 01-.061.674h-4.564c.094 1.187.994 1.83 1.988 1.83.682 0 1.365-.321 1.892-.738l.653 1.22c-.683.609-1.708.995-2.67.995-2.204 0-3.57-1.638-3.57-3.597 0-2.15 1.397-3.628 3.384-3.628zm4.314.16h1.645v2.634h.808l1.614-2.633h1.831l-2.11 3.275v.033l2.358 3.563h-1.924l-1.738-2.793h-.868v2.793h-1.647v-6.872h.031zm-37.56 5.556c1.087 0 1.987-.867 1.987-2.152 0-1.252-.9-2.151-1.987-2.151-1.086 0-1.955.868-1.955 2.151 0 1.285.868 2.152 1.956 2.152zm19.836-2.986c0-.9-.59-1.445-1.335-1.445-.838 0-1.459.578-1.614 1.445h2.95zm14.682 0c0-.9-.589-1.445-1.334-1.445-.84 0-1.46.578-1.615 1.445h2.95z" fill="#000"/><path d="M75.717 7.074v15.669a.424.424 0 01-.435.434h-3.204a.427.427 0 01-.435-.434V7.073a.424.424 0 01.435-.433h3.204a.427.427 0 01.435.434zm25.011-.434c.125 0 .28.061.436.186.093.092.093.248.062.372l-5.288 15.7a.443.443 0 01-.405.28h-2.862c-.186 0-.342-.094-.404-.28l-3.081-9.153-3.08 9.152a.443.443 0 01-.404.28H82.84c-.186 0-.342-.093-.404-.28l-5.289-15.7c-.03-.123-.03-.248.062-.371.063-.125.219-.186.342-.186h3.578a.43.43 0 01.405.31l2.83 9.277 3.111-9.278a.443.443 0 01.405-.28h2.52c.186 0 .342.094.403.28l3.112 9.278 2.83-9.278a.43.43 0 01.405-.31h3.578zm5.413 0c.218 0 .404.186.435.434v15.669a.424.424 0 01-.435.434h-3.204a.427.427 0 01-.435-.434V7.073a.424.424 0 01.435-.433h3.204zM69.776 22.62c.186.216.03.526-.25.526h-3.92a.502.502 0 01-.404-.186l-.652-.806c-1.37.868-2.988 1.396-4.698 1.396-4.79 0-8.679-3.879-8.679-8.657 0-4.779 3.889-8.657 8.679-8.657 4.79 0 8.68 3.878 8.68 8.657 0 1.707-.499 3.32-1.37 4.685l2.614 3.04v.001zm-32.758 7.6c.81.311 1.12 1.52 1.182 2.048.125.962-.154 1.335-.466 1.335-.311 0-.747-.373-1.213-1.117-.467-.746-.654-1.583-.404-2.018.154-.28.497-.403.902-.247h-.001zm-4.728 3.507c.498 0 1.058.217 1.556.651.964.807 1.244 1.738.746 2.42-.28.342-.746.559-1.275.559-.53 0-1.089-.186-1.462-.527-.871-.745-1.12-1.987-.561-2.669.219-.28.56-.434.996-.434zm-10.887 8.967C9.58 42.694 0 33.137 0 21.346 0 9.556 9.582 0 21.402 0s21.403 9.557 21.403 21.346c0 4.003-1.12 7.758-3.017 10.954-.063.092-.218.062-.25-.063-.746-5.243-3.95-8.13-8.616-8.997-.405-.063-.467-.311.062-.373 1.43-.124 3.452-.093 4.51.093a14.24 14.24 0 00.094-1.644c0-7.789-6.347-14.119-14.155-14.119-7.808 0-14.154 6.33-14.154 14.119 0 7.788 6.346 14.118 14.155 14.118h.652a18.997 18.997 0 01-.28-3.817c.032-.869.219-.993.592-.31 1.96 3.382 4.76 6.422 10.234 7.633 4.48.993 8.96 2.14 13.781 8.253.435.527-.217 1.086-.715.652-4.915-4.345-9.395-5.772-13.47-5.772-4.573.032-7.684.62-10.826.62zm40.595-23.55l-1.711-2.08c-.186-.216-.03-.558.25-.558h3.608c.186-.496.28-1.055.28-1.613 0-2.575-1.929-4.81-4.573-4.81s-4.574 2.235-4.574 4.81c0 2.575 1.93 4.778 4.574 4.778.746.031 1.494-.186 2.146-.527z" fill="#FF8C00"/></g></svg>
