<svg width="143" height="48" xmlns="http://www.w3.org/2000/svg"><path d="M102.997 11.755c3.316 0 6.003-2.63 6.003-5.876C109 2.633 106.313 0 102.997 0 99.687 0 97 2.633 97 5.88c0 3.244 2.687 5.875 5.997 5.875zm-44.996 2.986c-.265.643-2.164 5.839-6.759 11.224V2.939L39 5.28v41.74h12.242V34.118c3.547 5.148 5.297 12.901 5.297 12.901h14.664c-1.451-5.838-7.796-16.605-7.796-16.605 5.694-6.99 8.196-14.439 8.593-15.674H58.001zm31.801-.036C78.658 15.042 73 19.747 73 29.1v17.92h12.16V32.406c0-5.6.779-8.002 7.84-8.23v-9.308c-1.188-.238-3.198-.164-3.198-.164zm-71.555 5.438c-1.517-.094-5.03-.309-5.03-3.303 0-3.613 5.057-3.613 6.954-3.613 3.334 0 7.653.932 10.737 1.806 0 0 1.721.575 3.185 1.163l.136.035V6.336l-.186-.052c-3.64-1.206-7.873-2.366-15.72-2.366C4.793 3.918 0 11.381 0 17.775c0 3.685 1.668 12.36 17.163 13.361 1.313.076 4.799.267 4.799 3.36 0 2.555-2.854 4.061-7.653 4.061-5.26 0-10.365-1.27-13.463-2.474v10.19c4.64 1.151 9.87 1.727 16 1.727C30.076 48 36 40.939 36 33.94c0-7.935-6.63-13.092-17.753-13.797zM97 47.02h12V14.694H97V47.02zm34-42.027V47.02h12V2.94l-12 2.054zm-17 0l12-2.054V47.02h-12V4.993z" fill="#862165" fill-rule="evenodd"/></svg>
