<svg width="155" height="48" xmlns="http://www.w3.org/2000/svg" xmlns:xlink="http://www.w3.org/1999/xlink"><defs><path id="a" d="M.09.027h110.754v28.758H.09z"/><path id="c" d="M0 .028h76.973V48H0z"/></defs><g fill="none" fill-rule="evenodd"><path d="M94.987 27.997c0 1.834.01 3.669-.006 5.504a5.71 5.71 0 01-.445 2.171c-.61 1.455-1.688 2.22-3.207 2.32-.107.006-.214.006-.32.006-2.494 0-4.986.008-7.479-.007a6.54 6.54 0 01-1.43-.153c-1.579-.369-2.526-1.429-2.893-3.04a7.614 7.614 0 01-.196-1.65c-.017-3.48-.012-6.961-.003-10.442 0-.284.046-.579.126-.85.172-.58.542-.847 1.125-.851.684-.004 1.37 0 2.054 0 .674 0 1.348-.014 2.022.006.251.007.515.05.75.141.552.215.833.675.834 1.292 0 2.624-.003 5.25.003 7.874 0 .286.017.58.077.859.123.572.476.874 1.003.907.608.038 1.057-.228 1.236-.786.083-.258.12-.543.12-.816.01-2.614.004-5.227.008-7.84 0-.288.018-.579.063-.862.068-.434.33-.686.752-.744.137-.02.276-.03.414-.03 1.273-.003 2.546-.004 3.82 0 .191 0 .385.018.574.051.572.102.928.5.993 1.102.017.154.017.31.017.466L95 27.997h-.013" fill="#000"/><g transform="translate(44 15)"><mask id="b" fill="#fff"><use xlink:href="#a"/></mask><path d="M9.85.027c2.79 0 5.582-.002 8.372.003a4 4 0 01.781.067c.406.083.574.295.588.71.013.37.004.74.004 1.11 0 .926.002 1.852 0 2.778-.001.597-.15.767-.748.781-.81.018-1.62.008-2.43.01H14.35c-.054 0-.11-.002-.164 0-.568.015-.684.132-.684.704 0 5.032 0 10.064-.002 15.097 0 .185-.011.37-.032.554-.037.324-.218.548-.532.636a2.71 2.71 0 01-.675.112c-.842.016-1.685.014-2.528.014-.919 0-1.838-.001-2.757-.012a2.65 2.65 0 01-.614-.085.584.584 0 01-.459-.5 3.69 3.69 0 01-.043-.553c-.003-5.022-.002-10.043-.003-15.065 0-.152.002-.305-.013-.456-.025-.261-.126-.371-.38-.415a2.568 2.568 0 00-.425-.03c-1.302-.002-2.604 0-3.907-.003-.185 0-.374-.003-.556-.033-.3-.05-.433-.203-.466-.505a3.81 3.81 0 01-.018-.391C.09 3.39.089 2.224.09 1.059.092.306.323.07 1.086.034c.152-.007.306-.007.459-.007h8.306m92.117 13.384l1.066-2.633c.465-1.15.929-2.302 1.392-3.453.166-.413.402-.773.76-1.046.243-.184.514-.282.821-.281 1.259.002 2.517-.004 3.776.005.227.002.46.035.678.096.322.091.436.305.361.628a2.58 2.58 0 01-.15.43c-2.884 6.75-5.77 13.5-8.653 20.25-.152.356-.343.68-.625.95a1.46 1.46 0 01-1.063.428c-1.094-.008-2.189 0-3.283-.005a3.88 3.88 0 01-.588-.048c-.494-.077-.657-.336-.516-.806.041-.135.1-.265.155-.395.713-1.685 1.423-3.371 2.144-5.053a.662.662 0 00.002-.556c-1.983-4.872-3.96-9.745-5.939-14.619-.057-.14-.118-.282-.155-.43-.11-.443.065-.727.512-.817.191-.038.39-.054.586-.055 1.608-.004 3.217.002 4.826-.006.445-.002.806.16 1.117.462.263.258.434.569.555.913.674 1.91 1.353 3.818 2.03 5.726.04.11.084.217.125.325l.066-.01" fill="#000" mask="url(#b)"/></g><path d="M105.078 38c-2.263-.06-4.136-.25-5.975-.74-.204-.053-.401-.134-.605-.19-.198-.054-.293-.184-.333-.392-.134-.7-.175-1.408-.163-2.118.007-.409.065-.817.105-1.224.009-.088.034-.174.058-.259.14-.5.251-.57.73-.434 1.502.424 3.031.536 4.577.474a4.03 4.03 0 00.81-.133c.148-.037.299-.117.42-.217.272-.223.29-.597.03-.834a2.703 2.703 0 00-.58-.395c-.378-.196-.772-.355-1.152-.546-.647-.323-1.3-.635-1.927-.995-.663-.378-1.255-.867-1.713-1.504-1.077-1.498-1.31-3.143-.682-4.898.293-.824.866-1.435 1.543-1.935.912-.675 1.94-1.057 3.016-1.315 1.284-.309 2.587-.367 3.897-.339.98.022 1.96.065 2.924.27.227.048.446.134.67.19.23.058.349.215.354.448.01.409.025.82-.009 1.227a6.856 6.856 0 01-.37 1.713 3.308 3.308 0 01-.097.246c-.248.558-.383.627-.959.552-.878-.116-1.756-.225-2.637-.32a4.763 4.763 0 00-.82.01c-.167.01-.334.05-.495.1-.225.07-.392.214-.431.477-.04.254.118.395.29.508.275.181.559.354.85.508.649.344 1.313.657 1.954 1.014a8.541 8.541 0 012.113 1.621c1.116 1.192 1.631 2.62 1.512 4.287-.034.484-.1.974-.225 1.44-.327 1.212-1.057 2.1-2.105 2.703-.826.474-1.72.73-2.645.844-.763.094-1.533.125-1.93.156m10.758-12.485h-.714c-.156-.002-.314.002-.47-.017a.634.634 0 01-.556-.459 1.738 1.738 0 01-.09-.508c-.01-.824-.005-1.648-.005-2.473 0-.043.003-.086.008-.13.05-.543.32-.824.847-.853.312-.018.626-.008.94-.01h.37c.007-.129.017-.233.017-.338.002-.575.01-1.15-.002-1.725-.01-.502.207-.858.618-1.08a2.49 2.49 0 01.73-.28c1.233-.223 2.47-.426 3.707-.628a1.81 1.81 0 01.496.008c.252.03.391.201.423.452.029.225.043.454.044.68.005.88.002 1.758.003 2.637 0 .075.01.15.016.254.095.007.185.019.275.02.512.001 1.023-.003 1.535.001.443.004.71.188.844.628a2.9 2.9 0 01.12.764c.015.738.005 1.476.004 2.213 0 .065-.003.13-.008.195-.033.542-.22.737-.743.746-.523.01-1.045.002-1.567.004-.08 0-.161.01-.26.018-.006.123-.014.229-.014.334v6.151c0 .617.2.867.79.954.195.028.395.024.593.018.226-.007.278 0 .349.224.097.308.179.623.239.94.155.833.245 1.672.246 2.521 0 .108-.012.217-.009.325.007.218-.082.345-.292.39-.54.117-1.076.27-1.62.354-.931.144-1.869.216-2.81.09-1.06-.142-2.031-.493-2.811-1.288-.708-.722-1.089-1.613-1.185-2.626a17.918 17.918 0 01-.054-1.69c-.003-2.19.004-4.382.006-6.572 0-.064-.005-.128-.01-.244M128 26.55V16.185c0-.131-.004-.263.008-.393.04-.437.325-.722.775-.775.123-.014.247-.016.37-.016 1.432-.001 2.864-.005 4.295.002.292.002.588.017.873.073.465.092.626.289.668.739.01.12.01.24.01.36v20.53c0 .174-.006.35-.026.523-.052.452-.287.687-.752.749-.144.02-.292.02-.439.02-1.533.002-3.066.003-4.598 0a4.878 4.878 0 01-.673-.046c-.26-.038-.426-.192-.463-.453-.02-.14-.04-.282-.04-.422-.005-2.067-.006-4.133-.008-6.199V26.55" fill="#000"/><mask id="d" fill="#fff"><use xlink:href="#c"/></mask><path d="M64.856 30.312c0-1.781-.006-3.562.005-5.343a7.27 7.27 0 01.104-1.205c.175-.998.746-1.7 1.665-2.116a5.224 5.224 0 011.892-.449c.76-.04 1.52-.054 2.281-.059 1.794-.01 3.588-.009 5.382-.012h.13c.513.008.657.153.658.667v3.343c0 .077.002.155-.007.23-.038.319-.22.524-.539.565-.246.03-.498.016-.747.035-.552.042-1.105.081-1.655.14-.461.049-.876.241-1.278.464-.708.394-1.066 1.004-1.118 1.805-.012.185-.011.372-.011.557-.001 2.47 0 4.939-.003 7.407 0 .229-.017.46-.057.684-.086.476-.369.722-.843.765a2.5 2.5 0 01-.228.01c-1.381.001-2.762.003-4.143-.003a2.47 2.47 0 01-.579-.073c-.495-.124-.778-.46-.86-.958a4.001 4.001 0 01-.047-.653c-.003-1.934-.002-3.867-.002-5.801" fill="#000" mask="url(#d)"/><path d="M19.942 19.92v.001c-1.5 0-3.002-.002-4.503.002-.501.002-.661.169-.665.674-.004.524-.002 1.049-.001 1.574 0 .642.095.74.734.743.576.003 1.152 0 1.729 0 .543.001.544.002.544.542v7.508c0 .153.001.307.022.458.05.36.16.481.528.49.913.022 1.826.023 2.739.028.118 0 .239-.014.357-.033.264-.043.408-.174.457-.44a2.57 2.57 0 00.03-.456l.001-7.64c0-.445.011-.455.463-.456.663-.002 1.327.003 1.99-.003.15 0 .302-.025.452-.05.145-.024.228-.123.256-.263a1.57 1.57 0 00.029-.292c.002-.569.004-1.137 0-1.705-.004-.512-.16-.669-.66-.68-.087-.002-.174-.001-.26-.001h-4.242zm.019-4.729h7.075c.098 0 .196.003.293-.002.21-.012.243-.043.261-.25.008-.087.005-.175.005-.263 0-1.015.013-2.031-.006-3.047a10.08 10.08 0 00-.126-1.53c-.318-1.835-1.2-3.361-2.63-4.543-1.683-1.393-3.62-1.96-5.796-1.707a7.08 7.08 0 00-3.1 1.105c-2.321 1.518-3.512 3.687-3.584 6.465-.028 1.103-.007 2.207-.007 3.31 0 .46.001.462.474.462h7.14zm11.697-.024c.196.01.334.023.473.023 1.642.002 3.284-.004 4.926.005.591.004 1.166.12 1.7.39 1.014.51 1.371 1.343 1.15 2.42-.358 1.74-.763 3.472-1.148 5.208l-2.082 9.391c-.197.884-.39 1.769-.594 2.651-.206.9-.645 1.64-1.472 2.104-.497.278-1.041.369-1.597.395-.326.015-.653.003-.98.003-8.329 0-16.659 0-24.988-.002-.696 0-1.362-.138-1.948-.541-.631-.434-1.012-1.046-1.187-1.784-.269-1.135-.519-2.276-.773-3.415-.935-4.195-1.867-8.39-2.8-12.585-.104-.468-.23-.934-.295-1.408a3.488 3.488 0 01-.007-1.04c.097-.581.459-1.002.963-1.296.588-.344 1.233-.487 1.904-.49 1.631-.01 3.262-.004 4.894-.005.487 0 .488 0 .488-.485 0-.983.003-1.967 0-2.95C8.27 6.316 12.016 1.592 17.29.328c1.3-.311 2.619-.367 3.948-.23 2.258.231 4.268 1.074 6.03 2.496 2.154 1.738 3.532 3.974 4.13 6.687.175.79.263 1.593.263 2.404l-.002 3.048v.434zM23.28 43.331c-.045-2.415 2.029-4.6 4.638-4.572 2.467.026 4.558 2.096 4.54 4.65-.02 2.554-2.143 4.656-4.733 4.59-2.34-.06-4.514-2.057-4.446-4.668m-6.615.045c.047 2.506-2.062 4.627-4.59 4.623-2.534-.003-4.6-2.135-4.59-4.634.012-2.564 2.136-4.618 4.617-4.608 2.461.011 4.604 2.067 4.563 4.619" fill="#6AB644" mask="url(#d)"/></g></svg>
