<svg width="149" height="48" xmlns="http://www.w3.org/2000/svg"><g fill="none"><path fill="#00579F" d="M64.2 47.257h-12L59.705.84h12.001zm43.507-45.281C105.34 1.036 101.585 0 96.943 0 85.09 0 76.745 6.32 76.693 15.356c-.098 6.666 5.976 10.37 10.519 12.592 4.643 2.272 6.222 3.754 6.222 5.779-.048 3.11-3.753 4.543-7.208 4.543-4.791 0-7.359-.74-11.26-2.47l-1.58-.741-1.68 10.42c2.815 1.282 8 2.42 13.385 2.47 12.593 0 20.791-6.223 20.888-15.852.048-5.284-3.16-9.332-10.074-12.64-4.198-2.124-6.768-3.556-6.768-5.73.049-1.975 2.174-3.998 6.912-3.998 3.902-.1 6.769.839 8.94 1.777l1.086.493 1.632-10.023zm15.951 28.837c.989-2.666 4.792-12.986 4.792-12.986-.05.099.986-2.716 1.579-4.444l.839 4s2.272 11.11 2.766 13.43h-9.976zM138.473.841h-9.283c-2.863 0-5.038.84-6.273 3.851L105.09 47.256h12.593l2.519-6.962h15.409c.344 1.63 1.432 6.962 1.432 6.962h11.112L138.473.841zm-96.298 0L30.42 32.492l-1.284-6.419c-2.173-7.407-8.988-15.454-16.593-19.456l10.765 40.59H36L54.865.842h-12.69z"/><path d="M19.507.841H.197L0 1.78c15.063 3.852 25.038 13.137 29.137 24.296L24.939 4.743C24.248 1.779 22.124.939 19.507.841z" fill="#FAA61A"/></g></svg>
