<svg width="197" height="48" xmlns="http://www.w3.org/2000/svg"><path d="M173.911.74c3.563 0 6.952.85 9.993 2.373.477.224.957.493 1.433.763l-2.084 1.928-3.128-3.363-5.386 4.93-3.172-3.54-9.906 9.188 6.343 7.216-2.476 2.238 6.256 7.215-2.476 2.24 8.952 10.264 5.297-5.021 4.608 5.38c-.913.717-1.912 1.436-2.998 2.062a22.15 22.15 0 01-11.21 3.045c-12.557 0-22.766-10.528-22.766-23.48C151.148 11.316 161.358.736 173.912.736l-.001.003zm-4.171 22.002l5.432-5.02 4.866 5.603-5.433 5.018-4.865-5.602v.001zm3.866 9.682l5.39-5.066 4.908 5.603-5.432 5.021-4.864-5.558h-.002zm-7.73-19.228l5.429-5.018 4.868 5.601-5.433 5.021-4.864-5.604zm9.948-2.687l4.039-3.765 3.65 4.167-4.042 3.81-3.65-4.212h.003zm7.211 17.253l4.039-3.764 3.65 4.211-4.041 3.767-3.65-4.214h.002zm3.562 8.47l4.041-3.764 3.648 4.167-4.04 3.81-3.65-4.212zm1.65-19.362l2.696-2.508 2.431 2.779-2.692 2.509-2.436-2.78h.002zm-3.475-8.29l2.695-2.553 2.435 2.824-2.696 2.51-2.432-2.78-.002-.001zm6.91 16.584l2.693-2.51 2.475 2.778-2.738 2.51-2.43-2.778zm-12.121-6.231l4.04-3.764 3.65 4.167-4.04 3.765-3.65-4.167v-.001zM12.622 16.9h-.204L8.57 32.15H5.426L.706 10.487h3.263L7.232 26.65h.203l3.786-16.163h2.594l4.05 16.163h.206l2.972-16.163h3.409L19.73 32.15h-3.147m12.009-9.224h6.67c-.145-3.207-1.632-4.49-3.206-4.49-1.778 0-3.147 1.438-3.465 4.49m9.002 5.746v2.323c-1.312.795-3.059 1.407-5.159 1.407-4.896 0-6.903-3.18-6.903-8.006 0-4.646 2.244-8.006 6.613-8.006 3.64 0 5.884 2.474 5.884 7.454v1.13h-9.497c0 3.667 1.425 5.287 4.428 5.287 1.575 0 3.031-.584 4.633-1.59m7.216 1.282c.932.427 1.953.488 2.682.488 2.159 0 3.786-1.406 3.786-6.356 0-3.88-1.341-5.132-3.291-5.132-1.166 0-2.011.336-3.175 1.007v9.991l-.002.002zm.029-12.251c.875-.489 2.36-1.134 3.934-1.134 3.612 0 5.565 2.628 5.565 7.517 0 5.713-2.624 8.496-6.846 8.496-1.546 0-3.935-.521-5.683-1.502V9.76l3.031-.765v8.708h-.001zm22.614 9.85h.144l6.233-17.08h3.612v21.665h-3.146V16.43h-.261l-5.944 15.706h-1.863l-5.943-15.338h-.264v15.338h-2.622V10.472h3.528m29.372 13.924c0-4.123-1.6-5.865-3.58-5.865-1.922 0-3.584 1.74-3.584 5.865 0 4.186 1.515 5.865 3.584 5.865 2.067 0 3.581-1.679 3.581-5.867m-10.222 0c0-5.348 2.797-8.005 6.642-8.005 3.849 0 6.644 2.656 6.644 8.004 0 5.223-2.65 8.006-6.642 8.006-3.994 0-6.642-2.783-6.642-8.006m15.587-5.741c1.312-.825 4.08-2.262 7.428-2.262 3.497 0 4.806 1.434 4.806 4.58v11.063h-3.028V21.678c0-2.415-1.133-2.842-2.622-2.842-1.164 0-2.653.55-3.556 1.1v12.099h-3.028V18.65v.002zm18.65 4.274h6.668c-.141-3.207-1.63-4.49-3.203-4.49-1.778 0-3.147 1.438-3.467 4.49m9 5.746v2.323c-1.31.795-3.058 1.407-5.158 1.407-4.89 0-6.9-3.18-6.9-8.006 0-4.646 2.24-8.006 6.61-8.006 3.642 0 5.888 2.474 5.888 7.454v1.13h-9.497c0 3.667 1.425 5.287 4.426 5.287 1.573 0 3.033-.584 4.63-1.59m12.544-12.28h3.119l-5.275 15.27c-1.458 4.217-3.231 6.417-6.583 6.417v-2.5c1.981 0 3.203-1.65 3.905-3.914l-5.594-15.273h3.203l3.731 11.241h.175l3.32-11.242v.001z" fill="#006CB4"/></svg>
