<svg width="252" height="48" xmlns="http://www.w3.org/2000/svg"><g fill="none"><path d="M12.241 25.32l-7 15.742H.125l7.692-16.831c-1.802-.923-3.249-2.264-4.36-4.046-1.11-1.782-1.655-4.192-1.655-7.273 0-2.138.314-4.025.943-5.66.629-1.635 1.488-2.976 2.578-4.045A10.548 10.548 0 019.139.797C10.585.252 12.136 0 13.729 0h6.603v41.083h-4.423V25.341h-3.668v-.02zm3.668-21.652h-2.347c-.88 0-1.74.168-2.579.482a6.012 6.012 0 00-2.242 1.551c-.65.713-1.174 1.656-1.572 2.83-.399 1.174-.608 2.62-.608 4.36 0 1.656.188 3.04.545 4.15.356 1.111.86 2.012 1.488 2.704a5.297 5.297 0 002.243 1.467c.86.294 1.76.44 2.725.44h2.347V3.668z" fill="#EE2E24"/><path d="M41.649 12.115v28.947h-4.423V28.087h-6.665v12.975h-4.486V12.115h4.486V24.42h6.665V12.115h4.423zm23.036 34.627H60.66v-5.68H48.252v5.68h-4.025v-9.37h1.782c.65-1.53 1.174-3.227 1.55-5.093.378-1.865.672-3.772.881-5.743.21-1.97.336-3.982.398-6.036.063-2.055.084-4.025.084-5.953v-2.432h13.436v25.279h2.306v9.348h.02zm-6.729-30.959h-4.988v.524c0 1.53-.021 3.207-.084 5.01a83.646 83.646 0 01-.377 5.534 68.933 68.933 0 01-.797 5.533c-.335 1.824-.817 3.48-1.446 5.01h7.692v-21.61zm26.201 23.33c-.922.733-1.97 1.3-3.165 1.718-1.195.42-2.515.63-3.961.63-2.998 0-5.345-1.154-7.064-3.48-1.719-2.327-2.578-5.722-2.578-10.187 0-2.327.167-4.486.482-6.435.335-1.95.838-3.647 1.55-5.093.713-1.447 1.615-2.558 2.726-3.354 1.11-.797 2.431-1.216 3.961-1.216 1.195 0 2.285.23 3.27.713.985.482 1.845 1.257 2.536 2.326.692 1.07 1.216 2.453 1.614 4.172.378 1.697.566 3.772.566 6.225v2.473H72.021c0 3.291.44 5.785 1.341 7.462.902 1.677 2.243 2.536 4.046 2.536 1.258 0 2.39-.21 3.354-.67.985-.44 1.76-.88 2.326-1.3l1.07 3.48zm-8.049-23.728c-1.383 0-2.347.776-2.934 2.327-.587 1.55-.943 3.626-1.09 6.225h7.42c0-1.216-.063-2.368-.168-3.416-.105-1.049-.293-1.97-.545-2.725-.251-.776-.587-1.363-1.027-1.782-.44-.42-1.006-.629-1.656-.629zM93.17 26.641v14.421h-4.485V12.115h4.485V25.51l6.96-13.394h4.548l-7.19 13.625 8.217 15.343h-4.884l-7.65-14.442zm23.036 14.82c-3.102 0-5.534-1.237-7.294-3.71-1.76-2.474-2.641-6.205-2.641-11.173 0-2.264.21-4.318.67-6.141.44-1.845 1.09-3.396 1.95-4.675.86-1.278 1.928-2.284 3.207-2.997 1.278-.713 2.767-1.069 4.443-1.069 1.3 0 2.348.147 3.166.44.796.294 1.53.65 2.18 1.07l-.63 4.254c-.607-.545-1.34-1.027-2.158-1.446a5.682 5.682 0 00-2.62-.629c-1.614 0-2.935.901-3.962 2.725-1.027 1.803-1.551 4.57-1.551 8.259 0 3.647.44 6.476 1.3 8.468.859 1.99 2.221 2.976 4.045 2.976 1.11 0 2.075-.189 2.872-.566.796-.377 1.467-.796 2.012-1.278l1.027 3.332a10.12 10.12 0 01-2.578 1.572c-.944.399-2.096.587-3.438.587zm36.493-.399h-17.586l-.399 6.833h-2.242v-9.118h1.215c.985-.838 1.761-2.347 2.306-4.485.545-2.138.964-4.695 1.258-7.651.314-3.06.524-6.833.628-11.298.105-4.464.21-9.579.294-15.322h14.358v38.777h2.809v9.14h-2.243l-.398-6.876zm-3.06-38.777h-8.909c-.084 5.26-.189 9.893-.335 13.855-.147 3.982-.336 7.462-.566 10.46-.273 3.122-.65 5.68-1.111 7.692-.482 2.012-1.111 3.5-1.866 4.464h12.807V2.285h-.02zm11.213 24.755c.084 4.003.63 7.042 1.656 9.138 1.027 2.096 2.6 3.144 4.716 3.144.965 0 1.803-.146 2.537-.46a7.425 7.425 0 001.844-1.112 6.655 6.655 0 001.488-1.572l.86 2.18c-.461.65-1.006 1.216-1.656 1.656-.566.42-1.279.796-2.117 1.11-.839.315-1.845.483-2.997.483-3.06 0-5.324-1.32-6.77-3.962-1.447-2.64-2.18-6.33-2.18-11.088 0-2.368.209-4.485.628-6.35.42-1.866 1.006-3.438 1.76-4.738.755-1.3 1.636-2.285 2.663-2.955a6.082 6.082 0 013.395-1.007c1.258 0 2.39.336 3.396.986.985.65 1.824 1.635 2.473 2.934.65 1.3 1.111 2.914 1.384 4.863.272 1.928.293 4.192.063 6.75h-13.143zm5.807-13.206c-1.53 0-2.851.943-3.941 2.83-1.09 1.886-1.698 4.632-1.803 8.258h10.523c.23-3.856-.147-6.665-1.111-8.426-.965-1.76-2.222-2.662-3.668-2.662zm24.985 13.394h-9.873v13.855h-2.704V12.115h2.704v12.807h9.873V12.115h2.704v28.947h-2.704zm9.076-15.113h2.704v10.732h2.117c2.766 0 4.967.755 6.602 2.243 1.656 1.488 2.474 3.752 2.474 6.77 0 3.06-.86 5.366-2.579 6.896-1.718 1.53-3.94 2.306-6.665 2.306h-4.653V12.115zm2.704 12.87v13.96h1.718c2.034 0 3.668-.545 4.947-1.635 1.279-1.09 1.887-2.872 1.887-5.366 0-2.452-.566-4.213-1.72-5.324-1.152-1.09-2.766-1.635-4.82-1.635h-2.012zM221.91 14.4v26.662h-2.64V12.115h12.24v2.306h-9.6zm27.229 6.498c0-.776.02-1.467.063-2.096.042-.63.105-1.258.167-1.866h-.167a13.15 13.15 0 01-.692 1.866c-.272.587-.566 1.215-.86 1.865l-9.41 20.395h-2.306V12.115h2.536v20.102c0 .775-.021 1.467-.063 2.117-.042.65-.105 1.3-.168 1.949h.168c.189-.65.42-1.3.692-1.928.272-.63.545-1.279.86-1.929l9.41-20.332h2.348v28.947h-2.578V20.898z" fill="#000"/></g></svg>
