<svg width="402" height="288" viewBox="0 0 402 288" fill="none" xmlns="http://www.w3.org/2000/svg">
<path opacity="0.967401" fill-rule="evenodd" clip-rule="evenodd" d="M52.9652 129.302H32.6433V147.162L35.7454 144.055H52.9652V129.302Z" fill="#2E58D1"/>
<path fill-rule="evenodd" clip-rule="evenodd" d="M22.689 135.11C22.689 135.11 27.6603 137.546 26.4317 144.172C25.202 150.798 24.658 151.692 26.0336 154.28C27.4082 156.869 29.0306 167.914 27.7934 170.008C26.5551 172.102 12.4771 160.808 10.5253 151.333C8.57243 141.858 11.7625 137.643 12.8902 136.074C14.0169 134.504 18.3015 132.879 22.689 135.11Z" fill="#0E2D3D"/>
<path fill-rule="evenodd" clip-rule="evenodd" d="M24.0668 159.031C24.0668 159.031 26.5969 159.546 28.0176 161.641C29.0059 163.099 29.0863 166.336 29.2291 166.947C29.3718 167.556 31.2581 174.457 31.2581 174.457L25.9875 177.995L24.0668 159.031Z" fill="#285173"/>
<path fill-rule="evenodd" clip-rule="evenodd" d="M43.5398 277.031C43.5398 277.031 46.9799 281.668 46.5078 282.404C46.0357 283.139 42.4185 283.243 40.2167 282.404C38.0149 281.563 37.9634 276.128 36.9665 273.792C36.5491 272.814 37.443 269.927 38.6962 269.718C39.9517 269.509 41.3165 270.124 41.3165 270.124C41.3165 270.124 40.015 273.413 43.5398 277.031Z" fill="#1D3B54"/>
<path fill-rule="evenodd" clip-rule="evenodd" d="M41.339 270.086C41.339 270.086 42.0633 272.062 42.3273 273.947C42.5462 275.512 44.7781 278.833 44.6729 279.252C44.5688 279.674 41.7371 280.053 40.5836 278.971C39.4312 277.887 38.6887 274.738 38.4344 272.855C38.1983 271.1 37.9 270.232 37.9 270.232C37.9 270.232 40.2381 268.931 41.339 270.086Z" fill="#FDD5CF"/>
<path fill-rule="evenodd" clip-rule="evenodd" d="M13.6016 277.107C13.6016 277.107 16.9173 281.668 16.4451 282.404C15.973 283.139 12.3559 283.243 10.154 282.404C7.95221 281.563 7.89963 276.128 6.90387 273.792C6.48647 272.814 7.37922 269.927 8.63357 269.718C9.88793 269.509 11.3601 270.168 11.3601 270.168C11.3601 270.168 10.0757 273.491 13.6016 277.107Z" fill="#1D3B54"/>
<path fill-rule="evenodd" clip-rule="evenodd" d="M11.3601 270.168C11.3601 270.168 11.6219 272.322 12.0414 273.844C12.461 275.368 14.7143 278.833 14.6102 279.252C14.5051 279.674 11.6745 280.053 10.521 278.971C9.36748 277.887 8.47688 274.751 8.37172 272.855C8.26657 270.956 8.63354 269.719 8.63354 269.719C8.63354 269.719 10.2592 269.013 11.3601 270.168Z" fill="#FDD5CF"/>
<path fill-rule="evenodd" clip-rule="evenodd" d="M27.9285 194.654C27.9285 194.654 30.8804 208.407 31.5575 211.871C32.2356 215.334 34.1338 232.105 34.3366 234.957C34.5405 237.809 37.4172 248.555 37.282 249.574C37.1457 250.592 41.5462 271.052 41.5462 271.052C41.5462 271.052 40.0429 272.264 38.4591 271.162C37.6447 270.594 28.8041 252.006 28.8041 246.914C28.8041 239.874 23.6075 230.686 22.9369 229.111C16.708 214.48 17.9345 210.007 17.1211 209.056C16.3078 208.106 16.2369 209.643 15.7627 211.748C15.2884 213.853 14.2723 232.051 13.6617 234.359C13.0522 236.669 13.5254 244.477 13.1864 248.416C12.8484 252.354 11.3601 270.168 11.3601 270.168C11.3601 270.168 10.2077 271.977 8.59064 270.215C8.24298 269.836 5.79865 250.371 5.73105 245.685C5.66345 241.001 5.59048 234.539 5.45957 232.513C4.20414 213.098 1.11708 210.324 5.97891 196.584C15.0813 170.856 27.9285 194.654 27.9285 194.654L8.59064 241.301Z" fill="#FDD5CF"/>
<path fill-rule="evenodd" clip-rule="evenodd" d="M8.10671 190.81C8.10671 190.81 -0.301448 202.599 3.31891 227.675C3.31891 227.675 23.2631 230.392 33.9482 224.531C33.9482 224.531 29.5295 198.676 27.9285 194.654C26.3276 190.63 8.10671 190.81 8.10671 190.81Z" fill="#04268B"/>
<path fill-rule="evenodd" clip-rule="evenodd" d="M36.8743 273.384V278.241H37.5041V274.487L36.8743 273.384Z" fill="#1D3B54"/>
<path fill-rule="evenodd" clip-rule="evenodd" d="M6.81154 273.384V278.241H7.4414V274.487L6.81154 273.384Z" fill="#1D3B54"/>
<path fill-rule="evenodd" clip-rule="evenodd" d="M19.3915 157.311C19.3915 157.311 22.4893 158.777 23.5656 158.992C24.6407 159.207 28.8148 164.638 29.5466 166.621C30.2773 168.604 29.5466 171.577 28.0401 175.067C26.5335 178.558 27.9542 179.722 27.2653 183.213C26.5775 186.704 25.9745 194.096 26.1043 196.036C26.2331 197.976 8.70109 198.343 4.69981 194.808C4.69981 194.808 8.72148 188.773 9.2376 187.911C9.75372 187.049 9.32344 182.352 8.85024 181.146C8.37704 179.938 5.22666 169.677 5.22666 169.677C5.22666 169.677 2.65035 161.795 4.97772 159.984C7.00036 158.409 12.5114 157.85 13.5007 157.504C14.4911 157.16 17.3689 157.01 19.3915 157.311Z" fill="#D4D8E8"/>
<path fill-rule="evenodd" clip-rule="evenodd" d="M20.382 164.228L22.2641 162.021L20.6299 156.207C20.6299 156.207 20.0805 159.444 20.382 164.228Z" fill="#BBBFD0"/>
<path fill-rule="evenodd" clip-rule="evenodd" d="M20.8713 153.73C20.8713 153.73 20.7854 154.507 20.6856 155.583C20.6427 156.061 20.5944 156.596 20.5504 157.148C20.4238 158.715 20.3219 160.413 20.382 161.276C20.382 161.276 17.1629 164.508 13.5007 157.504C13.5007 157.504 15.0416 154.618 13.8817 150.684C12.7217 146.753 20.8713 153.73 20.8713 153.73Z" fill="#FDD5CF"/>
<path fill-rule="evenodd" clip-rule="evenodd" d="M20.382 161.276V164.228L16.6769 161.455L20.382 161.276Z" fill="#FDD5CF"/>
<path fill-rule="evenodd" clip-rule="evenodd" d="M20.3819 164.228L18.8432 162.322L13.6616 157.148L11.9856 158.766L20.3819 164.228Z" fill="#BBBFD0"/>
<path fill-rule="evenodd" clip-rule="evenodd" d="M12.9428 157.643C12.9428 157.643 17.2906 164.254 17.4988 167.163C17.7059 170.071 15.8828 191.835 14.4225 198.83C12.9621 205.825 2.41003 198.04 2.41003 198.04C2.41003 198.04 9.50053 186.543 6.77828 177.338C4.05711 168.132 3.06779 164.451 3.06779 164.451C3.06779 164.451 4.00454 159.325 7.32338 158.605C10.2334 157.972 12.9428 157.643 12.9428 157.643Z" fill="#B7C9F7"/>
<path fill-rule="evenodd" clip-rule="evenodd" d="M29.832 167.503C29.832 167.503 30.6164 170.283 27.5615 176.428C27.5615 176.428 27.6098 184.291 27.6956 186.747C27.7825 189.204 29.5165 198.039 29.5165 198.039L25.3414 200.266C24.733 200.624 23.9798 200.127 24.0645 199.426C24.9197 192.356 27.7031 165.54 21.6899 158.332L24.1032 159.044C24.1032 159.044 28.3899 162.558 29.832 167.503Z" fill="#B7C9F7"/>
<path fill-rule="evenodd" clip-rule="evenodd" d="M22.2641 162.021L24.6355 162.677L20.6299 156.207L22.2641 162.021Z" fill="#E0E4F5"/>
<path fill-rule="evenodd" clip-rule="evenodd" d="M18.8433 162.322L16.6769 165.166L12.2281 157.739L13.6617 157.148L18.8433 162.322Z" fill="#E0E4F5"/>
<path fill-rule="evenodd" clip-rule="evenodd" d="M21.9797 173.825L22.5956 173.338L28.3513 180.624L27.7365 181.111L21.9797 173.825Z" fill="#06387F"/>
<path fill-rule="evenodd" clip-rule="evenodd" d="M21.6234 180.287C21.6234 180.287 22.1728 180.297 22.5344 180.024C23.1589 179.553 23.3843 178.391 24.4863 178.476C25.5872 178.56 26.099 182.022 25.8222 182.677C25.5475 183.332 24.0163 183.659 21.7554 183.209C19.4946 182.757 21.6234 180.287 21.6234 180.287Z" fill="#FDD5CF"/>
<path fill-rule="evenodd" clip-rule="evenodd" d="M24.1075 178.5C24.1075 178.5 25.6912 177.959 27.5197 177.564C29.1238 177.216 31.0402 177.103 31.2259 177.381C31.434 177.692 29.6635 177.959 28.0926 178.406C26.6452 178.818 26.9907 178.968 26.9907 178.968C26.9907 178.968 26.8952 178.92 28.5465 178.765C30.3235 178.599 32.1519 178.602 32.3332 178.958C32.4201 179.132 32.359 179.248 31.7194 179.41C32.1036 179.393 32.1583 179.492 32.1723 179.648C32.2495 180.449 29.6582 181.087 28.6292 181.34C29.421 181.149 30.0176 181.092 29.7333 181.63C29.4082 182.244 25.7106 182.985 24.4068 183.374C22.9851 183.798 24.1075 178.5 24.1075 178.5Z" fill="#FDD5CF"/>
<path fill-rule="evenodd" clip-rule="evenodd" d="M7.93604 158.722C6.84693 158.369 3.64827 159.506 3.10854 162.789C2.56774 166.074 2.35099 169.721 1.84668 171.489C1.34236 173.258 0.0568843 181.095 1.13741 181.744C2.21901 182.394 4.26633 182.988 7.13772 182.988C10.1035 182.988 21.602 183.505 21.602 183.505L22.323 179.413C22.323 179.413 17.9559 179.187 15.6929 178.844C13.6788 178.538 10.8868 177.679 7.60126 177.318C7.60126 177.318 8.29765 172.463 8.80197 171.092C9.30628 169.721 12.8376 160.311 7.93604 158.722Z" fill="#B7C9F7"/>
<path fill-rule="evenodd" clip-rule="evenodd" d="M28.9672 179.728L29.5059 181.044L28.3513 180.216L28.9672 179.728Z" fill="#EEA886"/>
<path fill-rule="evenodd" clip-rule="evenodd" d="M22.6321 186.59L34.2142 184.289L42.8048 165.878L30.4426 167.179L22.6321 186.59Z" fill="#06387F"/>
<path fill-rule="evenodd" clip-rule="evenodd" d="M35.6585 181.166C35.6585 181.166 36.2937 180.574 36.8581 179.748C37.4247 178.92 39.2746 175.765 39.1061 175.567C38.9366 175.369 36.1886 175.301 35.6907 175.751C35.1928 176.199 36.181 176.376 36.181 176.376C36.181 176.376 34.6788 176.531 34.7861 176.955C34.8934 177.381 35.798 177.263 35.798 177.263C35.798 177.263 34.5887 177.495 34.7722 177.868C34.9557 178.241 35.5372 178.237 35.5372 178.237C35.5372 178.237 34.4653 178.372 34.5983 178.778C34.7303 179.186 36.4257 179.571 36.1993 179.909C35.9718 180.248 35.6585 181.166 35.6585 181.166Z" fill="#FDD5CF"/>
<path fill-rule="evenodd" clip-rule="evenodd" d="M21.969 135.845C21.969 135.845 29.1861 138.116 25.2685 150.594C21.3499 163.072 11.4921 149.148 12.5232 141.546C13.5544 133.944 21.969 135.845 21.969 135.845Z" fill="#FDD5CF"/>
<path fill-rule="evenodd" clip-rule="evenodd" d="M26.0057 143.125C26.0057 143.125 22.4197 146.651 16.4172 147.091C16.4172 147.091 14.1103 149.8 13.9332 150.864C13.9332 150.864 8.57886 141.72 15.1607 136.239C21.7437 130.758 28.4254 140.867 26.0057 143.125Z" fill="#0E2D3D"/>
<path fill-rule="evenodd" clip-rule="evenodd" d="M16.4891 147.339C16.443 146.431 15.885 144.364 14.5373 144.943C13.1896 145.522 14.6199 149.73 15.5127 149.471C15.5127 149.471 16.5996 149.488 16.4891 147.339Z" fill="#FDD5CF"/>
<path fill-rule="evenodd" clip-rule="evenodd" d="M20.6856 155.584C20.6427 156.061 20.5944 156.596 20.5504 157.148H20.5493C16.3764 155.085 15.7368 152.109 15.7175 152.016C18.6909 155.865 20.6856 155.584 20.6856 155.584Z" fill="#D3AFA9"/>
<path fill-rule="evenodd" clip-rule="evenodd" d="M140.984 176.146C140.984 176.146 140.049 183.37 145.26 188.917C150.471 194.465 162.221 192.486 162.221 192.486C162.221 192.486 160.278 185.931 156.017 183.229C151.758 180.527 143.389 179.598 140.984 176.146Z" fill="#8BAAFF"/>
<path fill-rule="evenodd" clip-rule="evenodd" d="M147.046 162.446C147.046 162.446 142.751 170.546 146.441 179.397C150.131 188.246 164.855 191.126 164.855 191.126C164.855 191.126 165.462 182.535 161.635 177.463C157.807 172.39 148.355 167.581 147.046 162.446Z" fill="#638AF6"/>
<path fill-rule="evenodd" clip-rule="evenodd" d="M339.77 58.3125C339.77 58.3125 347.071 69.4091 340.911 75.3025C334.751 81.1969 334.026 74.6157 334.026 74.6157C334.026 74.6157 330.73 74.8328 337.281 67.324C340.369 63.7845 339.77 58.3125 339.77 58.3125Z" fill="#A8BAEC"/>
<path fill-rule="evenodd" clip-rule="evenodd" d="M359.319 52.6492C359.319 52.6492 364.527 62.7279 352.269 72.1715C340.012 81.615 340.071 88.1221 340.071 88.1221C340.071 88.1221 331.442 64.7637 359.319 52.6492Z" fill="#8BAAFF"/>
<path fill-rule="evenodd" clip-rule="evenodd" d="M338.5 83.8249C333.841 83.6948 340.664 71.8447 348.252 69.4403C355.838 67.0348 361.897 68.0344 366.515 65.0947C366.515 65.0947 361.44 84.4655 338.5 83.8249Z" fill="#638AF6"/>
<path opacity="0.619048" fill-rule="evenodd" clip-rule="evenodd" d="M152.414 163.526H153.394V46.0701H152.414V163.526Z" fill="#A6B9EB"/>
<path opacity="0.600749" fill-rule="evenodd" clip-rule="evenodd" d="M80.5588 131.565H161.509V130.584H80.5588V131.565Z" fill="#C3D0F1"/>
<path opacity="0.788946" fill-rule="evenodd" clip-rule="evenodd" d="M195.43 84.4773C188.701 84.4773 183.226 90.2299 183.226 97.2991V209.387C183.226 216.457 188.701 222.211 195.43 222.211H354.357C361.086 222.211 366.561 216.457 366.561 209.387V97.2991C366.561 90.2299 361.086 84.4773 354.357 84.4773H195.43ZM354.357 223.389H195.43C188.053 223.389 182.05 217.108 182.05 209.387V97.2991C182.05 89.5796 188.053 83.2993 195.43 83.2993H354.357C361.735 83.2993 367.737 89.5796 367.737 97.2991V209.387C367.737 217.108 361.735 223.389 354.357 223.389Z" fill="#85A2F2"/>
<path opacity="0.922549" fill-rule="evenodd" clip-rule="evenodd" d="M123.765 2.19622C122.438 2.15968 121.108 2.1414 119.813 2.1414C119.372 2.1414 118.933 2.14355 118.494 2.14785L118.483 0.969828C118.925 0.965529 119.369 0.963379 119.813 0.963379C121.119 0.963379 122.459 0.981651 123.797 1.0182L123.765 2.19622ZM107.974 2.68097L107.864 1.50832C109.597 1.34387 111.381 1.21597 113.169 1.12568L113.227 2.30263C111.458 2.39184 109.69 2.51867 107.974 2.68097ZM134.295 2.83145C132.521 2.67022 130.751 2.53479 129.034 2.43053L129.104 1.25359C130.835 1.35892 132.616 1.49542 134.401 1.65773L134.295 2.83145ZM144.777 4.07289C143.011 3.81923 141.25 3.58706 139.543 3.38499L139.681 2.21449C141.398 2.41871 143.168 2.65195 144.944 2.90669L144.777 4.07289ZM97.5523 4.18037L97.3259 3.02385C99.0395 2.68742 100.806 2.38862 102.576 2.13495L102.742 3.30116C100.992 3.55159 99.2466 3.84717 97.5523 4.18037ZM155.199 5.80231C153.441 5.47448 151.691 5.166 149.996 4.88332L150.189 3.72142C151.892 4.0041 153.65 4.31473 155.414 4.64363L155.199 5.80231ZM87.3661 6.78041L87.011 5.6572C88.6806 5.12623 90.4028 4.63396 92.1303 4.19435L92.4201 5.33583C90.715 5.77006 89.0154 6.25589 87.3661 6.78041ZM165.555 7.91329C163.805 7.52742 162.065 7.15875 160.385 6.81588L160.62 5.66043C162.306 6.00545 164.051 6.3752 165.807 6.76106L165.555 7.91329ZM175.854 10.3156C174.104 9.88562 172.375 9.47073 170.712 9.08272L170.979 7.93479C172.645 8.32496 174.38 8.73984 176.134 9.17085L175.854 10.3156ZM77.5749 10.5714L77.0834 9.50083C78.6822 8.76349 80.3325 8.06484 81.9893 7.42424L82.4131 8.5238C80.7789 9.15473 79.1522 9.8437 77.5749 10.5714ZM186.105 12.9285C184.343 12.4642 182.62 12.0181 180.985 11.6L181.274 10.4585C182.914 10.8766 184.639 11.3248 186.404 11.7892L186.105 12.9285ZM68.3416 15.5726L67.7171 14.5741C69.2161 13.6325 70.7644 12.7286 72.3182 11.8859L72.8772 12.9231C71.346 13.7529 69.8202 14.6439 68.3416 15.5726ZM196.325 15.6779C194.626 15.2136 192.923 14.7503 191.218 14.2903L191.524 13.1531C193.231 13.6121 194.935 14.0764 196.635 14.5408L196.325 15.6779ZM206.543 18.4725C205.773 18.2747 205.002 18.0684 204.248 17.8599L201.429 17.0806L201.741 15.9445L204.561 16.7238C205.308 16.9301 206.073 17.1354 206.836 17.331L206.543 18.4725ZM216.92 20.7641C215.146 20.4309 213.395 20.074 211.714 19.7043L211.966 18.5531C213.635 18.9207 215.375 19.2743 217.136 19.6054L216.92 20.7641ZM59.8207 21.7132L59.075 20.8006C60.4485 19.6742 61.8702 18.5811 63.2973 17.5514L63.9851 18.508C62.5763 19.5226 61.176 20.6018 59.8207 21.7132ZM227.404 22.4526C225.614 22.2076 223.845 21.9442 222.153 21.6723L222.339 20.5093C224.023 20.7791 225.781 21.0403 227.564 21.2854L227.404 22.4526ZM237.947 23.6941C236.145 23.5124 234.37 23.32 232.671 23.1212L232.808 21.9507C234.502 22.1495 236.27 22.3409 238.063 22.5214L237.947 23.6941ZM248.515 24.6142C246.699 24.4766 244.92 24.3336 243.228 24.1874L243.329 23.0137C245.018 23.1588 246.791 23.3028 248.604 23.4383L248.515 24.6142ZM259.097 25.3171C257.231 25.2064 255.5 25.0978 253.805 24.986L253.881 23.8102C255.575 23.922 257.304 24.0305 259.165 24.1401L259.097 25.3171ZM269.696 25.8954C267.925 25.804 266.155 25.7116 264.388 25.6159L264.451 24.439C266.219 24.5346 267.986 24.627 269.755 24.7184L269.696 25.8954ZM280.287 26.4317C278.608 26.3457 276.928 26.2608 275.248 26.1759L274.996 26.1641L275.055 24.986L275.306 24.9989C276.987 25.0839 278.668 25.1688 280.346 25.2548L280.287 26.4317ZM290.842 27.0067C289.089 26.9036 287.33 26.8047 285.569 26.709L285.633 25.5321C287.396 25.6288 289.155 25.7266 290.91 25.8309L290.842 27.0067ZM301.403 27.7086C299.726 27.5818 297.951 27.4571 296.126 27.3367L296.202 26.1608C298.03 26.2823 299.81 26.407 301.492 26.5338L301.403 27.7086ZM311.944 28.6276C310.252 28.4567 308.48 28.2912 306.678 28.1343L306.78 26.9605C308.588 27.1175 310.365 27.2841 312.061 27.455L311.944 28.6276ZM52.1025 28.849L51.2559 28.0311C52.4942 26.7466 53.7732 25.4923 55.0587 24.3014L55.8581 25.1677C54.5887 26.3425 53.3247 27.5807 52.1025 28.849ZM322.443 29.8723C320.754 29.639 318.99 29.4133 317.2 29.2016L317.337 28.0311C319.134 28.2439 320.906 28.4707 322.602 28.705L322.443 29.8723ZM332.868 31.5716C331.19 31.2524 329.439 30.9439 327.667 30.6558L327.856 29.4928C329.638 29.782 331.4 30.0926 333.087 30.414L332.868 31.5716ZM343.159 33.8868C341.509 33.4526 339.786 33.0334 338.035 32.6411L338.291 31.491C340.057 31.8865 341.794 32.3089 343.459 32.7475L343.159 33.8868ZM45.2148 36.805L44.2867 36.0795C45.3855 34.6714 46.5229 33.287 47.6656 31.965L48.5551 32.7356C47.4242 34.0437 46.3007 35.412 45.2148 36.805ZM353.212 37.0178C351.61 36.432 349.932 35.8666 348.224 35.3357L348.573 34.2103C350.298 34.7456 351.994 35.3185 353.616 35.9107L353.212 37.0178ZM362.846 41.1979C361.33 40.4207 359.733 39.6684 358.097 38.9611L358.562 37.8798C360.221 38.5967 361.844 39.3599 363.382 40.1488L362.846 41.1979ZM39.1276 45.4026L38.1394 44.7642C39.1062 43.2605 40.1073 41.7761 41.1138 40.352L42.0741 41.0334C41.0773 42.4436 40.0858 43.914 39.1276 45.4026ZM371.776 46.6666C370.396 45.6584 368.931 44.6803 367.422 43.7581L368.034 42.7521C369.572 43.6915 371.062 44.6879 372.469 45.7154L371.776 46.6666ZM379.597 53.5682C378.423 52.3138 377.163 51.0917 375.852 49.9384L376.629 49.0539C377.968 50.233 379.254 51.4808 380.454 52.762L379.597 53.5682ZM33.7819 54.4925L32.7464 53.9336C33.5941 52.3579 34.4718 50.7983 35.3528 49.2968L36.3668 49.8944C35.4922 51.383 34.6231 52.9297 33.7819 54.4925ZM385.924 61.8487C385.011 60.3698 384.017 58.9241 382.968 57.5505L383.902 56.8346C384.975 58.2384 385.992 59.7173 386.925 61.2296L385.924 61.8487ZM29.0992 63.9522L28.0294 63.4632C28.7698 61.8358 29.537 60.2193 30.3085 58.6597L31.3622 59.1821C30.5971 60.7309 29.8353 62.3356 29.0992 63.9522ZM390.537 71.2074C389.906 69.5672 389.205 67.956 388.448 66.419L389.503 65.8977C390.274 67.4669 390.992 69.1104 391.634 70.7839L390.537 71.2074ZM393.505 81.2582C393.361 80.623 393.21 79.9791 393.056 79.3428C392.796 78.2669 392.512 77.1974 392.209 76.1645L393.337 75.8324C393.645 76.8836 393.935 77.9713 394.199 79.0644C394.354 79.7061 394.507 80.3564 394.652 80.997L393.505 81.2582ZM395.425 91.6336C395.188 89.9311 394.9 88.1791 394.575 86.4271L395.731 86.2111C396.059 87.9802 396.35 89.7494 396.59 91.4692L395.425 91.6336ZM396.367 102.129C396.306 100.415 396.193 98.6459 396.033 96.8702L397.205 96.7638C397.368 98.561 397.482 100.352 397.541 102.088L396.367 102.129ZM397.247 112.752L396.076 112.639C396.238 110.933 396.345 109.17 396.392 107.394L397.569 107.425C397.52 109.228 397.412 111.019 397.247 112.752ZM395.416 123.256L394.278 122.959C394.71 121.299 395.081 119.576 395.382 117.838L396.542 118.039C396.234 119.809 395.857 121.565 395.416 123.256ZM391.801 133.297L390.737 132.794C391.472 131.234 392.144 129.608 392.736 127.961L393.842 128.36C393.238 130.042 392.551 131.704 391.801 133.297ZM386.323 142.46L385.378 141.758C386.415 140.36 387.39 138.898 388.28 137.409L389.29 138.014C388.379 139.536 387.382 141.032 386.323 142.46ZM379.172 150.385L378.377 149.518C379.67 148.329 380.909 147.079 382.064 145.802L382.936 146.593C381.757 147.897 380.492 149.173 379.172 150.385ZM370.73 156.913L370.089 155.925C371.572 154.959 373.013 153.938 374.37 152.89L375.087 153.824C373.705 154.89 372.239 155.929 370.73 156.913ZM361.395 162.092L360.895 161.025C362.503 160.268 364.08 159.462 365.582 158.632L366.15 159.662C364.625 160.506 363.025 161.323 361.395 162.092ZM351.5 166.071L351.12 164.956C352.805 164.381 354.468 163.766 356.063 163.126L356.501 164.219C354.886 164.867 353.204 165.49 351.5 166.071ZM341.277 169.031L341 167.886C342.727 167.467 344.442 167.012 346.093 166.536L346.419 167.667C344.751 168.149 343.022 168.608 341.277 169.031ZM330.858 171.138L330.667 169.977C332.421 169.686 334.166 169.368 335.86 169.026L336.091 170.181C334.385 170.526 332.624 170.847 330.858 171.138ZM320.315 172.526L320.197 171.353C321.961 171.176 323.726 170.973 325.444 170.747L325.596 171.916C323.867 172.143 322.09 172.348 320.315 172.526ZM283.167 172.817C279.84 172.544 277.887 172.287 277.867 172.284L278.021 171.117C278.04 171.118 279.968 171.373 283.264 171.643L283.167 172.817ZM309.708 173.288L309.655 172.111C311.424 172.032 313.2 171.928 314.931 171.805L315.016 172.981C313.273 173.104 311.487 173.209 309.708 173.288ZM293.77 173.4C291.997 173.347 290.211 173.272 288.467 173.176L288.53 172C290.266 172.095 292.041 172.17 293.806 172.223L293.77 173.4ZM300.271 173.497C299.87 173.497 299.474 173.494 299.079 173.492L299.085 172.315C300.817 172.325 302.621 172.313 304.371 172.28L304.394 173.457C303.032 173.484 301.643 173.497 300.271 173.497Z" fill="#2E58D1"/>
<path opacity="0.952846" fill-rule="evenodd" clip-rule="evenodd" d="M352.729 91.854C338.631 91.854 327.201 80.4048 327.201 66.2824C327.201 52.1601 338.631 40.7109 352.729 40.7109C366.829 40.7109 378.258 52.1601 378.258 66.2824C378.258 80.4048 366.829 91.854 352.729 91.854ZM385.952 57.6601C385.144 54.5291 383.906 51.5711 382.305 48.8518L386.018 43.2572L375.716 32.9377L370.131 36.6566C367.416 35.0541 364.464 33.8126 361.337 33.0033L360.015 26.4231H345.444L344.122 33.0033C340.996 33.8126 338.042 35.0541 335.328 36.6566L329.744 32.9377L319.441 43.2572L323.154 48.8518C321.554 51.5711 320.315 54.5291 319.507 57.6601L312.938 58.9854V73.5806L319.507 74.9048C320.315 78.0369 321.554 80.9949 323.154 83.7131L319.441 89.3077L329.744 99.6283L335.328 95.9082C338.042 97.5119 340.996 98.7533 344.122 99.5616L345.444 106.142H360.015L361.337 99.5616C364.464 98.7533 367.416 97.5119 370.131 95.9082L375.716 99.6283L386.018 89.3077L382.305 83.7131C383.906 80.9949 385.144 78.0369 385.952 74.9048L392.521 73.5806V58.9854L385.952 57.6601Z" fill="#1E41A3"/>
<path opacity="0.671829" fill-rule="evenodd" clip-rule="evenodd" d="M352.728 82.8556V194.943C352.728 202.35 346.734 208.356 339.339 208.356H172.969C165.574 208.356 159.579 202.35 159.579 194.943V82.8556C159.579 75.4478 165.574 69.4448 172.969 69.4448H339.339C346.734 69.4448 352.728 75.4478 352.728 82.8556Z" fill="white"/>
<path fill-rule="evenodd" clip-rule="evenodd" d="M221.855 145.906C209.888 150.193 196.99 146.324 189.216 137.17C187.364 134.99 185.801 132.507 184.612 129.763C184.351 129.156 184.106 128.537 183.881 127.907C181.619 121.573 181.631 114.978 183.493 109.019C186.181 100.417 192.723 93.1364 201.847 89.8689C204.859 88.7897 207.93 88.2286 210.961 88.1351C223.487 87.7568 235.374 95.4086 239.822 107.866C245.346 123.342 237.302 140.371 221.855 145.906ZM249.158 104.522C243.226 87.9073 227.373 77.7027 210.666 78.2058C206.621 78.3272 202.528 79.0775 198.508 80.5167C186.339 84.8762 177.612 94.5863 174.028 106.058C171.543 114.008 171.527 122.804 174.543 131.253C174.844 132.093 175.17 132.919 175.52 133.727C177.107 137.386 179.188 140.697 181.662 143.607C192.029 155.817 209.234 160.977 225.194 155.26C245.798 147.878 256.527 125.162 249.158 104.522Z" fill="#5D82E9"/>
<path fill-rule="evenodd" clip-rule="evenodd" d="M183.493 109.019L174.028 106.058C177.612 94.5864 186.339 84.8763 198.508 80.5167C202.528 79.0775 206.621 78.3273 210.666 78.2058L210.962 88.1352C207.93 88.2287 204.859 88.7898 201.847 89.8689C192.723 93.1364 186.181 100.417 183.493 109.019Z" fill="#06387F"/>
<path fill-rule="evenodd" clip-rule="evenodd" d="M184.612 129.763L175.52 133.727C175.17 132.919 174.844 132.093 174.543 131.253C171.527 122.804 171.543 114.008 174.028 106.058L183.493 109.019C181.631 114.978 181.619 121.573 183.881 127.907C184.106 128.537 184.351 129.156 184.612 129.763Z" fill="#0849A4"/>
<path fill-rule="evenodd" clip-rule="evenodd" d="M181.662 143.606C179.188 140.697 177.107 137.386 175.52 133.726L184.613 129.762C185.801 132.507 187.364 134.989 189.216 137.17L181.662 143.606Z" fill="#3B66DE"/>
<path fill-rule="evenodd" clip-rule="evenodd" d="M179.107 176.05C181.861 170.219 187.867 166.975 193.927 167.465C195.372 167.581 196.82 167.909 198.227 168.468C198.538 168.589 198.847 168.723 199.154 168.869C202.23 170.326 204.585 172.694 206.049 175.499C208.163 179.545 208.424 184.503 206.323 188.948C205.63 190.417 204.73 191.72 203.677 192.842C199.324 197.473 192.326 198.998 186.277 196.131C178.761 192.569 175.551 183.578 179.107 176.05ZM184.128 200.679C192.197 204.504 201.528 202.471 207.335 196.293C208.74 194.798 209.94 193.06 210.866 191.102C213.665 185.172 213.32 178.558 210.5 173.161C208.546 169.421 205.405 166.263 201.302 164.319C200.894 164.125 200.481 163.946 200.068 163.781C198.19 163.041 196.259 162.602 194.332 162.446C186.249 161.793 178.238 166.118 174.564 173.896C169.821 183.938 174.102 195.929 184.128 200.679Z" fill="#5D82E9"/>
<path fill-rule="evenodd" clip-rule="evenodd" d="M206.049 175.499L210.5 173.161C213.32 178.558 213.665 185.172 210.866 191.102C209.94 193.06 208.74 194.798 207.335 196.293L203.677 192.842C204.73 191.72 205.63 190.417 206.323 188.948C208.424 184.503 208.163 179.545 206.049 175.499Z" fill="#06387F"/>
<path fill-rule="evenodd" clip-rule="evenodd" d="M198.227 168.468L200.068 163.781C200.481 163.946 200.894 164.125 201.302 164.319C205.405 166.263 208.546 169.421 210.5 173.161L206.049 175.499C204.585 172.694 202.23 170.326 199.154 168.868C198.847 168.723 198.538 168.589 198.227 168.468Z" fill="#0849A4"/>
<path fill-rule="evenodd" clip-rule="evenodd" d="M194.332 162.446C196.259 162.602 198.19 163.041 200.068 163.781L198.227 168.468C196.82 167.909 195.372 167.581 193.927 167.465L194.332 162.446Z" fill="#3B66DE"/>
<path opacity="0.837705" fill-rule="evenodd" clip-rule="evenodd" d="M352.728 82.8556V194.943C352.728 202.35 346.735 208.356 339.339 208.356H265.681V69.4448H339.339C346.735 69.4448 352.728 75.4478 352.728 82.8556Z" fill="#6F92F1"/>
<path opacity="0.948754" fill-rule="evenodd" clip-rule="evenodd" d="M339.797 90.9169H278.614C277.65 90.9169 276.867 90.1344 276.867 89.1681V85.6082C276.867 84.642 277.65 83.8584 278.614 83.8584H339.797C340.762 83.8584 341.544 84.642 341.544 85.6082V89.1681C341.544 90.1344 340.762 90.9169 339.797 90.9169Z" fill="#E3F2FF"/>
<path opacity="0.96789" fill-rule="evenodd" clip-rule="evenodd" d="M339.797 106.058H278.614C277.65 106.058 276.867 105.275 276.867 104.308V100.748C276.867 99.7821 277.65 98.9985 278.614 98.9985H339.797C340.762 98.9985 341.544 99.7821 341.544 100.748V104.308C341.544 105.275 340.762 106.058 339.797 106.058Z" fill="#5D82E9"/>
<path fill-rule="evenodd" clip-rule="evenodd" d="M335.671 196.18H282.741C279.496 196.18 276.867 193.547 276.867 190.296V122.246C276.867 118.997 279.496 116.363 282.741 116.363H335.671C338.914 116.363 341.544 118.997 341.544 122.246V190.296C341.544 193.547 338.914 196.18 335.671 196.18Z" fill="#5D82E9"/>
<path opacity="0.616467" fill-rule="evenodd" clip-rule="evenodd" d="M276.867 171.467C274.383 170.324 272.658 167.81 272.658 164.891V120.2C272.658 116.206 275.891 112.967 279.879 112.967H288.405C290.986 112.967 293.25 114.323 294.527 116.362H282.741C279.496 116.362 276.867 118.997 276.867 122.246V171.467Z" fill="#A3BBF6"/>
<path fill-rule="evenodd" clip-rule="evenodd" d="M288.405 172.124H279.879C278.804 172.124 277.785 171.889 276.867 171.467V122.246C276.867 118.997 279.496 116.363 282.741 116.363H294.527C295.223 117.475 295.626 118.79 295.626 120.2V164.892C295.626 168.886 292.393 172.124 288.405 172.124Z" fill="#A3BBF6"/>
<path opacity="0.384998" fill-rule="evenodd" clip-rule="evenodd" d="M123.095 64.0093H270.7V63.0269H123.095V64.0093Z" fill="#2E58D1"/>
<path fill-rule="evenodd" clip-rule="evenodd" d="M137.878 40.236C134.164 40.236 131.142 43.2617 131.142 46.9828C131.142 50.7028 134.164 53.7295 137.878 53.7295C141.592 53.7295 144.613 50.7028 144.613 46.9828C144.613 43.2617 141.592 40.236 137.878 40.236ZM137.878 54.9075C133.515 54.9075 129.966 51.352 129.966 46.9828C129.966 42.6125 133.515 39.0569 137.878 39.0569C142.24 39.0569 145.79 42.6125 145.79 46.9828C145.79 51.352 142.24 54.9075 137.878 54.9075Z" fill="#2E58D1"/>
<path fill-rule="evenodd" clip-rule="evenodd" d="M162.265 265.784H104.359C99.5867 265.784 95.7163 261.908 95.7163 257.128V199.123C95.7163 194.342 99.5867 190.465 104.359 190.465H147.158C150.206 192.382 154.286 192.829 157.43 192.829C158.215 192.829 158.941 192.801 159.579 192.761V194.943C159.579 201.648 164.49 207.205 170.907 208.198V257.128C170.907 261.908 167.038 265.784 162.265 265.784Z" fill="#8CA8F3"/>
<path fill-rule="evenodd" clip-rule="evenodd" d="M157.43 192.829C154.286 192.829 150.206 192.382 147.158 190.465H159.579V192.761C158.941 192.801 158.215 192.829 157.43 192.829Z" fill="#7C9CF5"/>
<path opacity="0.648577" fill-rule="evenodd" clip-rule="evenodd" d="M170.907 208.198C164.49 207.205 159.579 201.648 159.579 194.943V190.465H162.265C167.038 190.465 170.907 194.342 170.907 199.123V208.198Z" fill="#8CA8F3"/>
<path opacity="0.884324" fill-rule="evenodd" clip-rule="evenodd" d="M165.081 119.105C165.081 123.272 161.71 126.65 157.549 126.65H97.4214C93.2613 126.65 89.8888 123.272 89.8888 119.105V76.9902C89.8888 72.822 93.2613 69.4448 97.4214 69.4448H157.549C161.71 69.4448 165.081 72.822 165.081 76.9902V119.105Z" fill="#E3F2FF"/>
<path fill-rule="evenodd" clip-rule="evenodd" d="M163.399 209.638H137.725C136.75 209.638 135.959 208.846 135.959 207.869V203.306C135.959 202.329 136.75 201.536 137.725 201.536H163.399C164.374 201.536 165.166 202.329 165.166 203.306V207.869C165.166 208.846 164.374 209.638 163.399 209.638Z" fill="#E3F2FF"/>
<path fill-rule="evenodd" clip-rule="evenodd" d="M161.098 256.697H140.027C137.78 256.697 135.959 254.872 135.959 252.623V217.83C135.959 215.581 137.78 213.756 140.027 213.756H161.098C163.344 213.756 165.166 215.581 165.166 217.83V252.623C165.166 254.872 163.344 256.697 161.098 256.697Z" fill="#E3F2FF"/>
<path fill-rule="evenodd" clip-rule="evenodd" d="M106.846 211.499C106.888 208.274 108.435 205.423 110.809 203.606C112.539 202.283 114.706 201.508 117.05 201.537C121.359 201.592 125.001 204.35 126.391 208.183L126.393 208.188C126.723 209.099 126.926 210.071 126.981 211.083C126.993 211.305 126.996 211.531 126.994 211.759C126.965 214.04 126.18 216.132 124.886 217.807C123.016 220.222 120.078 221.762 116.791 221.718C115.706 221.704 114.664 221.52 113.689 221.188C109.665 219.827 106.789 215.987 106.846 211.499ZM112.611 224.38C113.91 224.82 115.301 225.068 116.747 225.086C121.131 225.143 125.05 223.091 127.545 219.871C129.274 217.638 130.318 214.845 130.355 211.802C130.36 211.499 130.353 211.198 130.338 210.9C130.266 209.548 129.994 208.25 129.552 207.032C127.7 201.923 122.841 198.245 117.094 198.169C113.997 198.129 111.132 199.141 108.838 200.876C105.632 203.298 103.54 207.124 103.485 211.456C103.409 217.438 107.242 222.56 112.611 224.38Z" fill="#E3F2FF"/>
<path fill-rule="evenodd" clip-rule="evenodd" d="M124.885 217.807L127.544 219.871C125.05 223.091 121.131 225.143 116.747 225.087C115.301 225.067 113.91 224.82 112.611 224.381L113.689 221.188C114.664 221.519 115.706 221.704 116.791 221.718C120.077 221.761 123.015 220.222 124.885 217.807Z" fill="#06387F"/>
<path fill-rule="evenodd" clip-rule="evenodd" d="M126.98 211.082L130.338 210.899C130.353 211.198 130.36 211.499 130.355 211.802C130.317 214.844 129.273 217.638 127.544 219.871L124.885 217.807C126.181 216.133 126.964 214.039 126.994 211.759C126.996 211.531 126.992 211.305 126.98 211.082Z" fill="#3B66DE"/>
<path fill-rule="evenodd" clip-rule="evenodd" d="M126.981 211.083C126.926 210.071 126.723 209.099 126.393 208.188L126.391 208.183L129.552 207.032C129.994 208.25 130.266 209.548 130.338 210.9L126.981 211.083Z" fill="#5D82E9"/>
<path fill-rule="evenodd" clip-rule="evenodd" d="M108.838 200.876C111.132 199.141 113.997 198.129 117.094 198.169C122.841 198.245 127.7 201.923 129.552 207.032L126.393 208.188L126.391 208.183C125.001 204.35 121.359 201.592 117.05 201.537C114.706 201.508 112.539 202.283 110.809 203.606L108.838 200.876Z" fill="#7599FD"/>
<path fill-rule="evenodd" clip-rule="evenodd" d="M17.9163 94.9335L34.1124 69.5845L25.8866 73.3206L17.9163 94.9335Z" fill="#4571EC"/>
<path fill-rule="evenodd" clip-rule="evenodd" d="M17.9163 94.9334L18.9056 79.6556L24.7889 76.2957L17.9163 94.9334Z" fill="#698EFF"/>
<path fill-rule="evenodd" clip-rule="evenodd" d="M30.3879 75.4133L32.4106 78.0843L17.9163 94.9335L30.3879 75.4133Z" fill="#1345D0"/>
<path fill-rule="evenodd" clip-rule="evenodd" d="M130.445 194.333C130.445 194.333 131.169 194.238 131.591 193.808C132.318 193.064 132.386 191.495 133.851 191.389C135.315 191.282 136.668 195.732 136.433 196.647C136.199 197.561 134.253 198.296 131.191 198.147C128.131 197.999 130.445 194.333 130.445 194.333Z" fill="#FDD5CF"/>
<path fill-rule="evenodd" clip-rule="evenodd" d="M88.3962 166.579C88.3962 166.579 83.4185 170.27 81.6845 173.655C79.9516 177.037 79.3604 181.067 79.3604 181.067L88.3962 166.579Z" fill="#A9ADBA"/>
<path fill-rule="evenodd" clip-rule="evenodd" d="M108.083 191.585C107.7 192.12 107.39 192.502 107.192 192.676C107.057 192.793 106.894 192.93 106.705 193.084L106.702 193.086L106.523 185.906C106.523 185.906 107.422 188.673 107.555 189.082C107.69 189.495 108.083 191.585 108.083 191.585Z" fill="#A9ADBA"/>
<path fill-rule="evenodd" clip-rule="evenodd" d="M113.534 146.673C113.534 146.673 107.121 142.106 107.086 157.68L113.534 146.673Z" fill="#E8734D"/>
<path opacity="0.864095" fill-rule="evenodd" clip-rule="evenodd" d="M165.081 76.9902L164.951 81.1788H89.7589L89.8887 76.9902C89.8887 72.822 93.2612 69.4448 97.4213 69.4448H157.549C161.71 69.4448 165.081 72.822 165.081 76.9902Z" fill="#9AB6FF"/>
<path fill-rule="evenodd" clip-rule="evenodd" d="M98.3463 85.6951C97.0393 85.6951 95.9771 86.7603 95.9771 88.0684V118.279C95.9771 119.588 97.0393 120.652 98.3463 120.652H113.475C114.782 120.652 115.844 119.588 115.844 118.279V88.0684C115.844 86.7603 114.782 85.6951 113.475 85.6951H98.3463ZM113.475 121.83H98.3463C96.3912 121.83 94.801 120.237 94.801 118.279V88.0684C94.801 86.11 96.3912 84.5171 98.3463 84.5171H113.475C115.43 84.5171 117.021 86.11 117.021 88.0684V118.279C117.021 120.237 115.43 121.83 113.475 121.83Z" fill="#9AB6FF"/>
<path fill-rule="evenodd" clip-rule="evenodd" d="M158.255 88.248H122.211C121.561 88.248 121.034 87.7202 121.034 87.0689V86.2864C121.034 85.635 121.561 85.1062 122.211 85.1062H158.255C158.906 85.1062 159.433 85.635 159.433 86.2864V87.0689C159.433 87.7202 158.906 88.248 158.255 88.248Z" fill="#9AB6FF"/>
<path fill-rule="evenodd" clip-rule="evenodd" d="M158.255 94.6303H122.211C121.561 94.6303 121.034 94.1025 121.034 93.4512V92.6687C121.034 92.0173 121.561 91.4885 122.211 91.4885H158.255C158.906 91.4885 159.433 92.0173 159.433 92.6687V93.4512C159.433 94.1025 158.906 94.6303 158.255 94.6303Z" fill="#9AB6FF"/>
<path fill-rule="evenodd" clip-rule="evenodd" d="M245.777 174.214H221.973C220.966 174.214 220.152 173.397 220.152 172.388V168.706C220.152 167.699 220.966 166.882 221.973 166.882H245.777C246.782 166.882 247.599 167.699 247.599 168.706V172.388C247.599 173.397 246.782 174.214 245.777 174.214Z" fill="#3B66DE"/>
<path fill-rule="evenodd" clip-rule="evenodd" d="M245.777 186.165H221.973C220.966 186.165 220.152 185.348 220.152 184.34V180.657C220.152 179.65 220.966 178.833 221.973 178.833H245.777C246.782 178.833 247.599 179.65 247.599 180.657V184.34C247.599 185.348 246.782 186.165 245.777 186.165Z" fill="#0849A4"/>
<path fill-rule="evenodd" clip-rule="evenodd" d="M245.777 198.116H221.973C220.966 198.116 220.152 197.299 220.152 196.291V192.61C220.152 191.601 220.966 190.784 221.973 190.784H245.777C246.782 190.784 247.599 191.601 247.599 192.61V196.291C247.599 197.299 246.782 198.116 245.777 198.116Z" fill="#06387F"/>
<path opacity="0.836961" fill-rule="evenodd" clip-rule="evenodd" d="M101.925 75.811C101.925 77.6189 100.461 79.0839 98.6564 79.0839C96.8526 79.0839 95.389 77.6189 95.389 75.811C95.389 74.0031 96.8526 72.5381 98.6564 72.5381C100.461 72.5381 101.925 74.0031 101.925 75.811Z" fill="#E3F2FF"/>
<path fill-rule="evenodd" clip-rule="evenodd" d="M347.714 188.957C347.714 188.957 360.998 193.251 364.064 192.496C365.685 192.095 368.22 189.792 370.575 187.309C370.964 186.898 371.348 186.481 371.725 186.069C374.322 183.207 376.443 180.479 376.443 180.479C376.443 180.479 382.877 172.926 377.715 169.56C377.715 169.56 375.437 169.775 373.714 171.622C371.993 173.47 370.378 176.415 369.928 177.401C369.477 178.386 363.158 187.516 362.83 187.721C362.503 187.925 359.742 187.199 357.528 187.015C353.917 186.713 348.516 184.87 348.516 184.87L347.714 188.957Z" fill="#7193F0"/>
<path fill-rule="evenodd" clip-rule="evenodd" d="M365.974 270.934C365.974 270.934 364.284 273.963 363.279 274.577C362.028 275.341 359.6 277.795 358.751 277.909C357.904 278.02 354.855 278.563 355.444 280.287C355.926 281.701 363.198 281.498 364.018 280.789C364.838 280.081 367.29 277.54 368.281 277.597C369.271 277.654 368.903 281.262 368.903 281.262H369.977C369.977 281.262 370.352 277.751 370.397 277.147C370.531 275.36 369.26 274.045 369.203 273.026C369.146 272.007 369.089 271.246 369.089 271.246L365.974 270.934Z" fill="#16202E"/>
<path fill-rule="evenodd" clip-rule="evenodd" d="M358.995 277.826C358.995 277.826 361.392 278.655 363.236 277.593C365.081 276.531 368.622 274.919 369.874 274.907C369.874 274.907 369.191 272.815 369.178 272.581C369.163 272.347 369.089 271.246 369.089 271.246L365.993 270.748C365.993 270.748 363.985 273.701 363.1 274.396C362.215 275.092 359.949 276.825 358.995 277.826Z" fill="#FDD5CF"/>
<path fill-rule="evenodd" clip-rule="evenodd" d="M395.201 273.784C395.201 273.784 394.9 275.88 394.575 276.451C394.249 277.023 393.352 279.937 392.944 280.481C392.536 281.025 391.639 285.109 392.944 285.598C394.249 286.088 397.32 286.905 398.352 285.273C399.385 283.638 399.521 282.005 399.358 280.753C399.194 279.501 397.955 273.754 397.972 273.184C397.989 272.615 395.201 273.784 395.201 273.784Z" fill="#FDD5CF"/>
<path fill-rule="evenodd" clip-rule="evenodd" d="M393.464 279.35C393.464 279.35 393.325 282.522 395.716 282.522C398.108 282.522 399.167 279.635 399.167 279.635C399.167 279.635 399.983 281.053 399.167 284.073C398.352 287.096 394.955 286.47 394.194 286.36C393.433 286.253 389.827 285.296 393.464 279.35Z" fill="#16202E"/>
<path fill-rule="evenodd" clip-rule="evenodd" d="M391.254 201.506C391.254 201.506 394.346 205.453 395.437 208.063C396.528 210.673 398.346 216.397 398.104 220.829C397.862 225.262 396.407 233.581 396.83 235.463C397.255 237.345 397.678 241.231 398.134 242.567C398.589 243.903 400.407 247.79 400.589 251.795C400.771 255.804 399.295 273.383 399.415 275.022C399.538 276.661 394.12 275.659 394.12 275.659C394.12 275.659 393.982 259.812 393.375 257.079C392.769 254.346 392.042 245.056 391.495 244.388C390.951 243.72 389.42 236.677 389.322 235.527C389.226 234.414 382.741 215.156 382.378 211.878C382.014 208.6 373.894 201.506 373.894 201.506C373.894 201.506 381.859 198.454 391.254 201.506Z" fill="#06387F"/>
<path fill-rule="evenodd" clip-rule="evenodd" d="M371.112 271.803C372.266 271.621 375.351 253.86 374.987 250.702C374.622 247.546 374.26 240.814 375.291 238.077C375.967 236.281 380.191 227.144 383.035 220.729C383.435 219.823 383.808 218.973 384.141 218.203C385.043 216.117 385.639 214.637 385.655 214.333C385.717 213.118 389.668 192.2 374.055 201.506C374.055 201.506 373.896 203.16 373.714 203.766C373.531 204.374 369.349 219.858 368.926 225.808C368.501 231.758 367.409 236.806 367.228 238.077C367.046 239.349 367.409 243.6 367.773 244.693C368.137 245.785 365.408 270.461 365.227 271.069C365.046 271.677 369.962 271.984 371.112 271.803Z" fill="#06387F"/>
<path fill-rule="evenodd" clip-rule="evenodd" d="M380.179 168.455C380.179 168.455 377.224 169.852 376.198 170.057C375.173 170.263 371.192 175.441 370.492 177.332C369.795 179.222 370.491 182.058 371.927 185.388C373.362 188.718 372.007 189.828 372.664 193.157C373.32 196.485 373.893 203.535 373.769 205.384C373.646 207.234 390.365 207.587 394.181 204.218C394.181 204.218 390.348 198.463 389.856 197.641C389.363 196.819 389.775 192.339 390.227 191.188C390.679 190.036 393.877 180.529 393.877 180.529C393.877 180.529 396.144 172.734 393.924 171.006C391.995 169.506 386.74 168.97 385.797 168.642C384.852 168.312 382.106 168.168 380.179 168.455Z" fill="#D6E6FA"/>
<path fill-rule="evenodd" clip-rule="evenodd" d="M379.233 175.052L377.439 172.946L378.999 167.401C378.999 167.401 379.522 170.489 379.233 175.052Z" fill="#C2D2E5"/>
<path fill-rule="evenodd" clip-rule="evenodd" d="M378.769 165.039C378.769 165.039 379.357 170.469 379.235 172.237C379.235 172.237 382.303 175.32 385.797 168.642C385.797 168.642 384.329 165.888 385.434 162.137C386.541 158.387 378.769 165.039 378.769 165.039Z" fill="#FDD5CF"/>
<path fill-rule="evenodd" clip-rule="evenodd" d="M379.235 172.237L379.233 175.052L382.767 172.409L379.235 172.237Z" fill="#FDD5CF"/>
<path fill-rule="evenodd" clip-rule="evenodd" d="M379.233 175.052L380.701 173.233L385.642 168.301L387.242 169.844L379.233 175.052Z" fill="#C2D2E5"/>
<path fill-rule="evenodd" clip-rule="evenodd" d="M384.909 208.052C386.3 214.723 396.365 207.301 396.365 207.301C396.365 207.301 389.839 196.317 392.435 187.537L392.498 187.33C392.663 186.775 392.829 186.247 392.994 185.746L393.082 185.476C393.649 183.75 394.112 182.322 394.488 181.148V181.147C395.648 177.534 395.984 176.344 395.984 176.344C395.984 176.344 395.487 170.719 392.714 170.102C389.93 169.483 386.989 168.901 386.989 168.901C386.989 168.901 382.182 175.076 381.982 177.851C381.784 180.624 383.518 201.379 384.909 208.052Z" fill="#7193F0"/>
<path fill-rule="evenodd" clip-rule="evenodd" d="M370.08 178.609C370.08 178.609 369.769 182.434 372.391 187.458C372.391 187.458 372.336 194.183 372.253 196.526C372.17 198.869 371.614 207.727 371.614 207.727L374.496 209.419C375.076 209.76 375.795 209.288 375.712 208.618C374.899 201.877 372.251 176.301 377.987 169.427L375.431 170.311C375.431 170.311 370.08 175.933 370.08 178.609Z" fill="#7193F0"/>
<path fill-rule="evenodd" clip-rule="evenodd" d="M377.439 172.946L375.176 173.571L378.999 167.401L377.439 172.946Z" fill="#E7F0FC"/>
<path fill-rule="evenodd" clip-rule="evenodd" d="M380.701 173.233L382.766 175.947L386.989 168.901L385.642 168.301L380.701 173.233Z" fill="#E7F0FC"/>
<path fill-rule="evenodd" clip-rule="evenodd" d="M380.908 147.516C378.747 147.308 373.888 148.17 372.875 153.888C372.875 153.888 372.975 155.447 373.294 156.684C373.61 157.92 372.351 161.461 372.626 161.652C372.901 161.842 374.066 162.125 374.066 162.125C374.066 162.125 375.145 166.109 376.521 166.142C377.899 166.174 383.157 165.344 385.842 160.578C388.526 155.812 389.639 148.357 380.908 147.516Z" fill="#FDD5CF"/>
<path fill-rule="evenodd" clip-rule="evenodd" d="M372.875 153.888C372.875 153.888 376.279 156.458 379.746 157.11C383.215 157.761 385.091 163.805 385.091 163.805C385.091 163.805 390.907 155.048 386.878 149.441C382.849 143.833 372.434 147.147 372.875 153.888Z" fill="#344052"/>
<path fill-rule="evenodd" clip-rule="evenodd" d="M381.206 157.017C381.257 156.341 382.058 155.361 383.122 156.339C384.185 157.317 382.543 160.464 381.65 160.106C380.758 159.747 381.154 157.717 381.206 157.017Z" fill="#FDD5CF"/>
<path fill-rule="evenodd" clip-rule="evenodd" d="M378.762 165.824C378.84 166.246 378.921 166.739 378.986 167.263C381.896 165.6 383.422 163.483 383.422 163.483C381.739 164.869 378.762 165.824 378.762 165.824Z" fill="#CDA9A4"/>
<path opacity="0.923689" fill-rule="evenodd" clip-rule="evenodd" d="M360.04 202.727C360.033 202.727 360.026 202.727 360.018 202.727L350.279 202.679C351.822 200.493 352.728 197.824 352.728 194.943V190.461C356.273 191.458 360.793 192.585 363.131 192.585C363.501 192.585 363.816 192.557 364.064 192.496C364.155 192.473 364.249 192.444 364.347 192.41L364.317 198.464C364.306 200.822 362.392 202.727 360.04 202.727ZM362.608 187.757C361.839 187.757 359.472 187.176 357.528 187.015C356.063 186.893 354.304 186.516 352.728 186.112V165.643C353.056 165.528 353.381 165.41 353.705 165.292L360.203 165.324C362.566 165.336 364.471 167.264 364.46 169.631L364.38 185.647C363.545 186.823 362.926 187.661 362.83 187.721C362.79 187.746 362.714 187.757 362.608 187.757Z" fill="#E4F2FE"/>
<path fill-rule="evenodd" clip-rule="evenodd" d="M352.728 165.643V165.287L353.705 165.291C353.381 165.41 353.056 165.528 352.728 165.643Z" fill="#DCEAF6"/>
<path opacity="0.610421" fill-rule="evenodd" clip-rule="evenodd" d="M350.279 202.679L316.879 202.513C314.516 202.501 312.612 200.574 312.623 198.208L312.633 196.18H335.671C338.914 196.18 341.544 193.547 341.544 190.296V165.231L352.728 165.287V186.112C350.424 185.521 348.516 184.87 348.516 184.87L347.714 188.957C347.714 188.957 349.913 189.669 352.728 190.461V194.943C352.728 197.824 351.822 200.492 350.279 202.679Z" fill="white"/>
<path opacity="0.612398" fill-rule="evenodd" clip-rule="evenodd" d="M335.671 196.18H312.633L312.765 169.374C312.777 167.014 314.69 165.111 317.042 165.111C317.05 165.111 317.057 165.111 317.063 165.111L341.544 165.231V190.296C341.544 193.547 338.914 196.18 335.671 196.18Z" fill="white"/>
<path fill-rule="evenodd" clip-rule="evenodd" d="M363.131 192.585C360.793 192.585 356.273 191.458 352.728 190.461C349.913 189.669 347.714 188.957 347.714 188.957L348.516 184.87C348.516 184.87 350.424 185.521 352.728 186.112C354.304 186.516 356.063 186.892 357.528 187.015C359.472 187.176 361.839 187.757 362.608 187.757C362.714 187.757 362.79 187.746 362.83 187.721C362.926 187.661 363.546 186.823 364.38 185.647L364.347 192.41C364.249 192.444 364.155 192.473 364.064 192.496C363.816 192.557 363.502 192.585 363.131 192.585Z" fill="#C5DFF5"/>
<path opacity="0.868234" fill-rule="evenodd" clip-rule="evenodd" d="M336.087 199.619L358.073 199.728C359.621 199.735 360.883 198.482 360.892 196.933L361.012 172.437C361.02 170.887 359.771 169.623 358.222 169.614L336.234 169.506C334.687 169.498 333.424 170.749 333.416 172.302L333.296 196.795C333.287 198.347 334.538 199.611 336.087 199.619Z" fill="#99B4FE"/>
<path opacity="0.918225" fill-rule="evenodd" clip-rule="evenodd" d="M318.161 199.608L330.868 199.671C331.303 199.673 331.659 199.322 331.661 198.886L331.675 195.87C331.677 195.433 331.326 195.077 330.891 195.076L318.184 195.013C317.748 195.011 317.394 195.362 317.392 195.799L317.376 198.815C317.375 199.251 317.724 199.606 318.161 199.608Z" fill="#7599FD"/>
<path opacity="0.907506" fill-rule="evenodd" clip-rule="evenodd" d="M317.81 193.625L331.236 193.691C331.473 193.692 331.666 193.502 331.667 193.264L331.669 192.763C331.67 192.525 331.479 192.332 331.242 192.331L317.816 192.264C317.58 192.262 317.386 192.455 317.385 192.692L317.383 193.194C317.381 193.431 317.573 193.624 317.81 193.625Z" fill="#7599FD"/>
<path fill-rule="evenodd" clip-rule="evenodd" d="M366.051 190.624C366.051 190.624 365.541 190.743 365.152 190.56C364.478 190.245 364.04 189.21 363.032 189.506C362.024 189.803 362.23 193.122 362.616 193.677C363.003 194.231 364.489 194.233 366.502 193.367C368.516 192.501 366.051 190.624 366.051 190.624Z" fill="#FDD5CF"/>
<path fill-rule="evenodd" clip-rule="evenodd" d="M363.388 189.454C363.388 189.454 361.808 189.263 360.031 189.256C358.471 189.251 356.666 189.524 356.548 189.819C356.416 190.149 358.115 190.048 359.664 190.152C361.09 190.25 360.801 190.46 360.801 190.46C360.801 190.46 360.879 190.395 359.312 190.578C357.628 190.775 355.928 191.138 355.83 191.505C355.782 191.683 355.862 191.78 356.489 191.805C356.128 191.863 356.098 191.968 356.115 192.115C356.202 192.875 358.736 192.957 359.743 192.988C358.969 192.968 358.402 193.032 358.773 193.475C359.198 193.982 362.781 193.942 364.07 194.046C365.476 194.158 363.388 189.454 363.388 189.454Z" fill="#FDD5CF"/>
<path fill-rule="evenodd" clip-rule="evenodd" d="M384.453 155.804C383.39 158.228 384.033 160.855 385.889 161.671C387.744 162.489 390.111 161.187 391.175 158.763C392.238 156.339 391.594 153.712 389.739 152.894C387.883 152.078 385.515 153.381 384.453 155.804Z" fill="#344052"/>
<path fill-rule="evenodd" clip-rule="evenodd" d="M393.281 170.311C393.281 170.311 390.528 170.819 389.166 172.947C387.804 175.073 386.411 178.101 386.144 179.15C385.878 180.201 380.715 189.844 380.428 190.105C380.143 190.366 377.295 190.148 375.086 190.365C371.479 190.718 365.835 189.878 365.835 189.878L365.78 194.043C365.78 194.043 379.619 195.876 382.499 194.579C386.021 192.993 394.543 181.071 394.543 181.071C394.543 181.071 398.964 172.693 393.281 170.311Z" fill="#7193F0"/>
<path fill-rule="evenodd" clip-rule="evenodd" d="M387.688 189.803L393.082 185.476C393.649 183.75 394.113 182.322 394.488 181.148C394.488 181.148 389.02 188.323 387.688 189.803Z" fill="#4E68B0"/>
<path fill-rule="evenodd" clip-rule="evenodd" d="M370.575 187.309C370.964 186.898 371.348 186.481 371.725 186.069C371.725 186.069 370.263 182.176 370.167 180.528C370.167 180.528 369.824 184.21 370.575 187.309Z" fill="#4E68B0"/>
<path opacity="0.897461" fill-rule="evenodd" clip-rule="evenodd" d="M325.292 179.641C323.387 180.324 321.333 179.707 320.094 178.249C319.799 177.901 319.55 177.507 319.361 177.071C319.319 176.973 319.28 176.874 319.244 176.774C318.884 175.766 318.885 174.715 319.183 173.765C319.611 172.396 320.653 171.236 322.106 170.715C322.585 170.543 323.075 170.454 323.557 170.44C325.552 170.38 327.445 171.599 328.154 173.582C329.034 176.046 327.753 178.76 325.292 179.641ZM329.641 173.05C328.696 170.402 326.171 168.778 323.51 168.858C322.866 168.878 322.214 168.996 321.573 169.226C319.635 169.92 318.246 171.467 317.675 173.294C317.278 174.561 317.276 175.961 317.757 177.307C317.805 177.44 317.856 177.573 317.912 177.7C318.165 178.283 318.497 178.812 318.891 179.274C320.541 181.22 323.283 182.042 325.825 181.13C329.106 179.955 330.815 176.337 329.641 173.05Z" fill="#7599FD"/>
<path fill-rule="evenodd" clip-rule="evenodd" d="M319.183 173.765L317.675 173.294C318.246 171.467 319.636 169.92 321.573 169.226C322.214 168.996 322.866 168.878 323.51 168.858L323.557 170.44C323.075 170.454 322.585 170.543 322.106 170.715C320.653 171.236 319.611 172.396 319.183 173.765Z" fill="#7599FD"/>
<path fill-rule="evenodd" clip-rule="evenodd" d="M319.361 177.07L317.912 177.7C317.856 177.572 317.805 177.44 317.757 177.307C317.276 175.961 317.278 174.561 317.675 173.293L319.183 173.765C318.885 174.714 318.884 175.766 319.244 176.774C319.28 176.874 319.319 176.973 319.361 177.07Z" fill="#7599FD"/>
<path fill-rule="evenodd" clip-rule="evenodd" d="M318.891 179.274C318.497 178.812 318.165 178.283 317.912 177.7L319.361 177.071C319.55 177.507 319.799 177.901 320.094 178.249L318.891 179.274Z" fill="#7599FD"/>
<path opacity="0.852679" fill-rule="evenodd" clip-rule="evenodd" d="M320.748 186.852C319.965 187.132 319.122 186.88 318.614 186.281C318.492 186.138 318.391 185.976 318.311 185.796L318.264 185.674C318.116 185.26 318.117 184.829 318.24 184.439C318.414 183.876 318.843 183.399 319.439 183.185C319.637 183.117 319.837 183.078 320.036 183.074C320.854 183.048 321.632 183.549 321.924 184.363C322.285 185.376 321.759 186.489 320.748 186.852ZM322.535 184.145C322.147 183.059 321.11 182.39 320.016 182.423C319.751 182.431 319.483 182.48 319.221 182.575C318.425 182.86 317.854 183.494 317.62 184.245C317.456 184.765 317.455 185.341 317.654 185.894L317.717 186.055C317.821 186.295 317.957 186.512 318.119 186.702C318.796 187.501 319.923 187.837 320.967 187.464C322.315 186.981 323.017 185.494 322.535 184.145Z" fill="#7599FD"/>
<path fill-rule="evenodd" clip-rule="evenodd" d="M318.239 184.439L317.62 184.245C317.854 183.494 318.425 182.86 319.221 182.575C319.483 182.48 319.751 182.431 320.016 182.423L320.036 183.074C319.837 183.078 319.637 183.117 319.439 183.185C318.843 183.399 318.414 183.877 318.239 184.439Z" fill="#7599FD"/>
<path fill-rule="evenodd" clip-rule="evenodd" d="M318.311 185.796L317.717 186.055L317.654 185.894C317.455 185.341 317.456 184.765 317.62 184.245L318.24 184.439C318.117 184.829 318.116 185.26 318.264 185.674L318.311 185.796Z" fill="#7599FD"/>
<path fill-rule="evenodd" clip-rule="evenodd" d="M318.119 186.702C317.957 186.512 317.821 186.295 317.717 186.055L318.311 185.796C318.391 185.976 318.492 186.138 318.614 186.281L318.119 186.702Z" fill="#7599FD"/>
<path fill-rule="evenodd" clip-rule="evenodd" d="M121.929 121.241H126.509V104.366H121.929V121.241Z" fill="#9AB6FF"/>
<path fill-rule="evenodd" clip-rule="evenodd" d="M128.447 121.241H133.026V102.664H128.447V121.241Z" fill="#9AB6FF"/>
<path fill-rule="evenodd" clip-rule="evenodd" d="M135.051 121.241H139.631V106.199H135.051V121.241Z" fill="#9AB6FF"/>
<path fill-rule="evenodd" clip-rule="evenodd" d="M141.656 121.241H146.236V99.2275H141.656V121.241Z" fill="#9AB6FF"/>
<path fill-rule="evenodd" clip-rule="evenodd" d="M148.587 121.241H153.167V101.42H148.587V121.241Z" fill="#9AB6FF"/>
<path fill-rule="evenodd" clip-rule="evenodd" d="M113.907 145.215C113.907 145.215 121.297 146.537 121.362 152.806C121.428 159.075 115.702 168.155 111.98 167.483C108.258 166.811 104.025 163.502 104.169 159.688C104.313 155.875 105.368 150.864 107.084 148.114C108.799 145.365 111.842 145.079 113.907 145.215Z" fill="#FDD5CF"/>
<path fill-rule="evenodd" clip-rule="evenodd" d="M104.427 156.785C104.427 156.785 104.441 158.064 106.983 159.077C109.525 160.091 114.194 158.672 115.367 158.907C116.539 159.142 116.887 158.576 116.887 158.576L116.968 159.827L117.962 160.503C117.962 160.503 118.659 157.172 120.746 156.882C122.834 156.592 124.575 147.032 115.571 145.223C115.571 145.223 108.906 143.409 107.187 146.798C105.467 150.186 104.105 154.399 104.427 156.785Z" fill="#38336C"/>
<path fill-rule="evenodd" clip-rule="evenodd" d="M130.591 191.494C130.591 191.494 132.567 190.471 134.892 189.59C136.932 188.818 139.454 188.268 139.728 188.62C140.337 189.4 137.957 189.95 135.98 190.848C134.159 191.673 134.472 191.541 134.472 191.541C134.472 191.541 134.337 191.496 136.478 190.968C138.78 190.4 141.186 190.044 141.493 190.475C141.642 190.686 141.91 191.418 140.945 191.387C141.447 191.289 141.369 191.212 141.418 191.412C141.675 192.451 138.395 193.801 137.093 194.336C138.096 193.931 138.869 193.736 138.6 194.498C138.293 195.371 133.579 197.077 131.942 197.844C130.155 198.68 130.591 191.494 130.591 191.494Z" fill="#FDD5CF"/>
<path fill-rule="evenodd" clip-rule="evenodd" d="M95.5925 163.676C95.5925 163.676 90.9754 163.341 87.7166 163.676C84.4579 164.009 79.9544 166.681 77.2289 167.452C74.5035 168.224 67.9259 172.651 68.104 173.257C68.2811 173.862 70.8295 181.067 75.54 186.92C79.5713 191.929 95.5925 163.676 95.5925 163.676Z" fill="#C0D1FD"/>
<path fill-rule="evenodd" clip-rule="evenodd" d="M89.4013 277.448C89.4013 277.448 90.8241 278.962 91.646 279.363C92.4679 279.764 102.288 281.455 102.956 282.256C103.622 283.058 103.622 286.218 101.089 286.218C98.5562 286.218 90.1127 286.173 88.6898 286.218C87.2681 286.262 81.2614 287.465 80.6433 286.218C80.0252 284.972 80.0821 279.155 81.1798 277.761C82.2786 276.366 89.4013 277.448 89.4013 277.448Z" fill="#718BD1"/>
<path fill-rule="evenodd" clip-rule="evenodd" d="M89.0987 275.681L89.4013 277.448C89.4013 277.448 86.7799 278.65 81.1798 277.761V275.935L89.0987 275.681Z" fill="#1E41A3"/>
<path fill-rule="evenodd" clip-rule="evenodd" d="M29.4572 272.552C29.4572 272.552 28.3574 273.832 27.8123 275.491C27.4647 276.552 25.8133 281.5 26.5236 282.702C27.235 283.905 32.834 284.082 35.6335 283.637C38.433 283.192 44.5213 284.126 45.1437 282.926C45.766 281.723 46.1212 279.97 44.2992 279.288C42.4772 278.607 38.3 276.826 37.5446 274.956C36.7892 273.086 29.4572 272.552 29.4572 272.552Z" fill="#718BD1"/>
<path fill-rule="evenodd" clip-rule="evenodd" d="M38.3215 272.953L37.5446 274.956C37.5446 274.956 29.5238 274.354 29.4573 272.552L31.9896 268.858L38.3215 272.953Z" fill="#1E41A3"/>
<path fill-rule="evenodd" clip-rule="evenodd" d="M104.181 160.264C104.181 160.264 99.7098 164.068 98.4372 163.758C97.1646 163.447 102.823 171.804 102.823 171.804C102.823 171.804 108.209 166.493 109.423 166.332C110.635 166.171 104.181 160.264 104.181 160.264Z" fill="#FDD5CF"/>
<path fill-rule="evenodd" clip-rule="evenodd" d="M104.485 175.285C102.962 176.208 102.707 176.503 102.885 180.866C103.062 185.228 104.869 188.744 105.002 189.946C105.136 191.148 107.555 203.07 108.221 203.737C108.888 204.405 116.854 202.85 118.466 202.35C120.878 201.601 131.087 198.137 131.087 198.137L128.841 193.447C128.841 193.447 115.954 196.326 115.539 195.317C115.125 194.309 114.116 185.835 113.76 183.995C113.405 182.155 114.024 179.263 111.829 174.898C109.865 170.99 104.485 175.285 104.485 175.285Z" fill="#C0D1FD"/>
<path fill-rule="evenodd" clip-rule="evenodd" d="M89.3734 209.03C89.3734 209.03 92.1042 211.941 92.8692 212.887C98.1013 219.364 105.224 231.257 106.112 233.335C107.001 235.411 101.71 250.102 99.5359 255.234C98.3953 257.927 90.8552 276.469 91.0923 276.884C91.3295 277.3 83.1155 277.574 79.4415 275.675C79.4415 275.675 84.724 259.999 85.8356 256.926C87.517 252.285 93.3424 239.43 93.5206 238.184C93.6976 236.936 84.1016 226.659 80.9019 224.7C77.7022 222.741 69.882 215.796 68.9925 214.906C68.104 214.016 63.0673 211.642 63.5416 207.131C64.0158 202.621 67.3626 199.06 67.3626 199.06L89.3734 209.03Z" fill="#1E41A3"/>
<path fill-rule="evenodd" clip-rule="evenodd" d="M75.0153 220.189C75.0153 220.189 74.5153 221.507 73.8135 223.355C72.3059 227.319 69.8713 233.718 69.4657 234.731C68.8744 236.215 65.9108 242.624 64.489 243.872C63.0662 245.118 39.6637 273.251 39.6025 273.487C39.5446 273.725 30.8339 269.214 30.3016 267.492C30.3016 267.492 42.9804 250.933 44.9354 248.501C46.8915 246.067 50.9797 242.447 52.3425 236.689C53.7063 230.932 63.4793 208.794 63.5093 207.962C63.5093 207.962 65.0824 201.138 67.3625 199.06C69.6438 196.983 77.9393 199.416 79.243 203.748C80.5467 208.082 75.0153 220.189 75.0153 220.189Z" fill="#1E41A3"/>
<path fill-rule="evenodd" clip-rule="evenodd" d="M98.0326 163.718L99.9222 162.971C99.9222 162.971 104.692 164.069 107.446 167.897L107.21 169.041C107.21 169.041 99.9361 167.461 98.0326 163.718Z" fill="#8CA6EB"/>
<path fill-rule="evenodd" clip-rule="evenodd" d="M75.0153 220.189C75.0153 220.189 74.5153 221.507 73.8136 223.355C72.2212 221.518 68.5858 214.578 68.5858 214.578C68.823 214.747 69.5837 215.462 69.7597 215.62C69.9335 215.781 75.0153 220.189 75.0153 220.189Z" fill="#142C6F"/>
<path fill-rule="evenodd" clip-rule="evenodd" d="M115.718 158.344C115.887 157.8 115.481 155.721 114.156 156.904C112.832 158.088 112.837 160.74 113.585 160.956C114.333 161.173 115.293 159.723 115.718 158.344Z" fill="#FDD5CF"/>
<path fill-rule="evenodd" clip-rule="evenodd" d="M105.315 191.585C104.932 192.12 104.622 192.502 104.425 192.676C104.289 192.793 104.126 192.93 103.937 193.083L103.934 193.086C102.125 194.536 98.0648 197.354 96.1891 198.374C94.115 199.503 90.1824 209.005 90.1824 209.005C90.1824 209.005 71.6289 207.752 67.3625 198.137C67.3625 198.137 70.3852 191.371 73.1407 187.365C75.8952 183.358 81.9384 168.935 85.1381 166.889C88.3379 164.841 91.0934 163.504 97.4038 163.683C103.714 163.862 107.21 168.877 107.21 168.877C107.21 168.877 112.01 174.04 112.483 176.771C112.892 179.119 107.681 188.283 105.315 191.585Z" fill="#C0D1FD"/>
</svg>
