<svg width="577" height="348" viewBox="0 0 577 348" fill="none" xmlns="http://www.w3.org/2000/svg">
<g opacity="0.863816">
<path fill-rule="evenodd" clip-rule="evenodd" d="M556.709 3.32483C557.863 3.99815 559.882 3.99815 561.036 3.32483C562.19 2.6515 562.19 1.49723 561.036 0.823903C559.882 0.150577 557.863 0.150577 556.709 0.823903C555.843 1.30485 555.555 2.07436 556.036 2.74769L489.104 41.3196V90.0876L472.852 99.5142V152.515L417.075 184.738L408.42 179.736L451.406 154.919V125.87L451.214 125.774L402.265 97.4942V87.6829L429.961 71.7155C431.115 72.1964 432.846 72.1002 433.904 71.5231C435.058 70.8498 435.058 69.6955 433.904 69.0222C432.75 68.3488 430.731 68.3488 429.577 69.0222C428.519 69.6955 428.423 70.6574 429.288 71.3307L401.592 87.2981V97.9752L401.784 98.0713L450.733 126.351V154.631L418.229 173.388V161.268L433.135 152.707C434.289 153.188 436.02 153.092 437.077 152.515C438.232 151.841 438.232 150.687 437.077 150.014C435.923 149.34 433.904 149.34 432.75 150.014C431.692 150.687 431.596 151.649 432.462 152.322L417.556 160.883V173.772L407.747 179.448L396.111 172.714V151.649L418.036 138.952V124.331L417.844 124.235L371.684 97.5904C372.55 96.8209 372.453 95.859 371.396 95.2819C370.242 94.6085 368.222 94.6085 367.068 95.2819C365.914 95.9552 365.914 97.1095 367.068 97.7828C368.126 98.4561 369.857 98.4561 371.011 97.9752L417.363 124.716V138.471L396.207 150.783V136.259L396.014 136.162L367.741 119.81C368.607 119.137 368.511 118.079 367.453 117.502C366.299 116.828 364.279 116.828 363.125 117.502C361.971 118.175 361.971 119.329 363.125 120.003C364.183 120.676 365.914 120.676 367.068 120.195L395.437 136.643V172.233L387.263 167.52L373.8 175.311L361.587 168.29V151.168L361.298 151.072L329.082 132.507V116.347C329.756 116.347 330.429 116.155 330.91 115.866C332.064 115.193 332.064 114.039 330.91 113.365C329.755 112.692 327.736 112.692 326.582 113.365C325.428 114.039 325.428 115.193 326.582 115.866C327.063 116.155 327.736 116.347 328.409 116.347V132.892L328.602 132.988L360.817 151.553V167.905L308.406 137.605V105.478L336.872 89.0295H362.933H363.029L407.843 63.1546C408.997 63.6356 410.728 63.5394 411.786 62.9622C412.94 62.2889 412.94 61.1346 411.786 60.4613C410.632 59.788 408.612 59.788 407.458 60.4613C406.4 61.1346 406.304 62.0965 407.17 62.7698L362.837 88.3562H338.122L420.344 40.8387C421.499 41.3196 423.23 41.2234 424.287 40.6463C425.441 39.973 425.441 38.8187 424.287 38.1454C423.133 37.472 421.114 37.472 419.96 38.1454C418.902 38.8187 418.806 39.7806 419.671 40.4539L307.733 105.189V138.086L307.926 138.182L373.031 175.792L359.952 183.391L248.783 119.137V80.8534L248.591 80.7573L210.797 58.9223C211.663 58.1528 211.567 57.1909 210.509 56.6137C209.355 55.9404 207.335 55.9404 206.181 56.6137C205.027 57.2871 205.027 58.4413 206.181 59.1147C207.239 59.788 208.97 59.788 210.124 59.307L248.11 81.2382V119.522L248.302 119.618L359.375 183.776L346.873 190.99L236.858 127.505H171.273L130.306 103.843V67.4831C130.691 67.3869 131.075 67.2907 131.46 67.0984C132.614 66.425 132.614 65.2708 131.46 64.5974C130.306 63.9241 128.286 63.9241 127.132 64.5974C125.978 65.2708 125.978 66.425 127.132 67.0984C127.805 67.4831 128.671 67.6755 129.536 67.5793V104.227L129.729 104.324L171.081 128.179H236.666L329.467 181.756H310.811L279.172 163.48H254.746H254.649L220.799 183.007C219.645 182.526 217.914 182.622 216.856 183.199C215.702 183.872 215.702 185.027 216.856 185.7C218.01 186.373 220.029 186.373 221.183 185.7C222.241 185.027 222.337 184.065 221.472 183.391L254.938 164.057H278.979L310.618 182.333H330.621L346.104 191.279L312.83 210.517L303.31 205.034V190.509L279.268 176.658C280.134 175.985 280.037 174.927 278.979 174.35C277.826 173.676 275.806 173.676 274.652 174.35C273.498 175.023 273.498 176.177 274.652 176.85C275.71 177.524 277.441 177.524 278.595 177.043L302.637 190.894V204.457L276.96 189.644H265.132H265.035L250.514 198.012C249.36 197.531 247.629 197.627 246.571 198.204C245.417 198.878 245.417 200.032 246.571 200.705C247.725 201.379 249.745 201.379 250.899 200.705C251.957 200.032 252.053 199.07 251.187 198.397L265.228 190.317H277.056L312.349 210.709L305.906 214.46L326.39 226.292L316.773 231.871H302.252L291.866 225.907C292.635 225.234 292.539 224.272 291.481 223.695C290.327 223.021 288.308 223.021 287.154 223.695C286 224.368 286 225.522 287.154 226.196C288.211 226.869 289.943 226.869 291.096 226.388L301.963 232.64H315.427L291 246.78L233.493 213.595H192.141H192.045L168.772 227.061C167.618 226.58 165.888 226.677 164.83 227.254C163.676 227.927 163.676 229.081 164.83 229.755C165.984 230.428 168.003 230.428 169.157 229.755C170.215 229.081 170.311 228.119 169.446 227.446L192.333 214.268H233.397L277.729 239.854H258.784L240.224 229.177C241.09 228.504 240.994 227.446 239.936 226.869C238.782 226.196 236.762 226.196 235.608 226.869C234.454 227.542 234.454 228.696 235.608 229.37C236.666 230.043 238.397 230.043 239.551 229.562L258.592 240.528H278.979L290.423 247.165L261.189 263.998H167.811L95.3012 222.156C96.1667 221.482 96.0705 220.424 95.0127 219.847C93.8587 219.174 91.8392 219.174 90.6852 219.847C89.5312 220.52 89.5312 221.675 90.6852 222.348C91.743 223.021 93.474 223.021 94.628 222.54L167.618 264.671H259.939L248.398 271.405H179.255H179.159L145.019 291.123C143.865 290.642 142.134 290.739 141.077 291.316C139.923 291.989 139.923 293.143 141.077 293.817C142.23 294.49 144.25 294.49 145.404 293.817C146.462 293.143 146.558 292.181 145.693 291.508L179.351 272.078H248.495H248.591L326.87 226.869L335.525 231.871L253.207 279.388H193.007H192.91L120.208 321.423H19.5219L0 310.169V310.938L19.3295 322.096H120.401H120.497L166.176 295.74V311.323L136.076 328.733C134.922 328.252 133.191 328.349 132.133 328.926C130.979 329.599 130.979 330.753 132.133 331.427C133.287 332.1 135.307 332.1 136.461 331.427C137.518 330.753 137.615 329.792 136.749 329.118L166.849 311.708V295.452H166.657L193.199 280.158H253.399H253.495L336.199 232.352L346.104 238.027L185.505 330.753V347.49H186.179V331.138L346.777 238.412L358.99 245.433L276.191 293.24V301.8L261.477 310.265V329.888L233.012 346.336C231.858 345.855 230.127 345.951 229.069 346.528C228.588 346.721 228.3 347.106 228.203 347.394H234.166C234.07 347.106 233.974 346.913 233.685 346.721L262.15 330.272V310.65L276.191 302.57V334.024L284.461 338.833L269.555 347.394H270.901L285.134 339.218L299.367 347.394H300.713L276.864 333.543V293.528L359.663 245.722L370.819 252.167L312.061 286.025C310.907 285.544 309.176 285.641 308.118 286.218C306.964 286.891 306.964 288.045 308.118 288.719C309.272 289.392 311.292 289.392 312.445 288.719C313.503 288.045 313.6 287.083 312.734 286.41L371.299 252.551L382.07 258.708L311.965 299.203H292.924C292.828 298.915 292.539 298.626 292.058 298.338C290.904 297.664 288.885 297.664 287.731 298.338C286.577 299.011 286.577 300.165 287.731 300.839C288.885 301.512 290.904 301.512 292.058 300.839C292.539 300.646 292.828 300.261 292.924 299.973H312.157H312.253L382.743 259.285L387.071 261.786L390.437 259.862L407.266 269.577V283.043L393.418 291.027H371.684H371.588L347.739 304.782C346.585 304.301 344.854 304.397 343.796 304.975C342.642 305.648 342.642 306.802 343.796 307.476C344.95 308.149 346.969 308.149 348.123 307.476C349.181 306.802 349.277 305.84 348.412 305.167L371.876 291.604H392.36L351.585 315.075C350.335 314.497 348.604 314.497 347.546 315.171C346.392 315.844 346.392 316.998 347.546 317.672C348.7 318.345 350.72 318.345 351.874 317.672C352.932 317.094 353.028 316.133 352.258 315.459L403.131 286.025V292.566L372.838 310.073V322.385L348.219 336.621C347.065 336.14 345.335 336.236 344.277 336.813C343.123 337.487 343.123 338.641 344.277 339.314C345.431 339.988 347.45 339.988 348.604 339.314C349.662 338.641 349.758 337.679 348.893 337.006L373.511 322.77V310.457L403.804 292.951V285.641L408.035 283.236V268.904L391.206 259.189L402.265 252.84L436.789 272.847V295.548L413.324 309.111C412.074 308.534 410.343 308.534 409.285 309.207C408.131 309.88 408.131 311.035 409.285 311.708C410.439 312.381 412.459 312.381 413.613 311.708C414.671 311.131 414.767 310.169 413.997 309.496L436.789 296.318V314.69L418.902 325.174V347.394H419.575V325.559L436.885 315.555V347.394H437.558V272.559L402.842 252.551L415.248 245.433L460.446 271.501V333.639L482.18 346.144V347.394H482.853V345.759L461.119 333.254V271.116L415.921 245.049L425.153 239.758L486.122 274.964V327.964L519.877 347.394H521.223L486.796 327.483V274.483L425.826 239.277L440.732 230.716L542.188 289.296V315.652L577 335.755V334.986L542.957 315.267V288.911L485.93 255.918H531.032L577 282.466V281.697L531.129 255.245H484.68L441.501 230.332L458.811 220.328L495.932 241.778H555.555L577 254.187V253.417L572.095 250.531H576.808V249.858H570.942L555.555 241.009H495.932L485.546 235.045H510.934H511.03L523.724 227.735H576.711L576.904 227.831V227.061H524.974L539.303 218.789C540.457 219.27 542.188 219.174 543.245 218.597C544.399 217.923 544.399 216.769 543.245 216.096C542.091 215.422 540.072 215.422 538.918 216.096C537.86 216.769 537.764 217.731 538.63 218.404L510.837 234.468H484.584L459.484 220.039L468.716 214.653L462.754 211.19H480.064L502.663 224.272C501.798 224.945 501.894 226.003 502.952 226.58C504.106 227.254 506.125 227.254 507.279 226.58C508.433 225.907 508.433 224.753 507.279 224.079C506.221 223.406 504.49 223.406 503.336 223.887L480.16 210.517H461.504L448.81 203.206L456.599 198.685H470.447L482.564 191.664H491.604L512.088 203.495C511.222 204.168 511.318 205.13 512.376 205.803C513.53 206.477 515.549 206.477 516.703 205.803C517.857 205.13 517.857 203.976 516.703 203.302C515.646 202.725 514.011 202.629 512.857 203.11L491.893 190.99H482.468L470.351 198.012H457.85L482.757 183.584H496.22L524.301 199.743H577V199.07H524.493L496.412 182.91H482.66H482.564L448.233 202.725L439.193 197.531L477.948 175.119H505.26L527.859 188.105H577V187.431H528.051L506.702 175.119H577V174.446L477.852 174.542H477.756L438.52 197.146L428.326 191.279L482.372 160.017H577V159.344H508.049L577 119.522V118.752L506.702 159.344H482.853L534.11 129.718V123.177L558.632 109.037C559.786 109.518 561.517 109.422 562.575 108.845C563.729 108.171 563.729 107.017 562.575 106.344C561.421 105.67 559.401 105.67 558.247 106.344C557.19 107.017 557.094 107.979 557.959 108.652L544.592 116.347V98.4561L577 79.7954V79.0258L543.919 98.0713V116.732L533.437 122.792V129.333L481.795 159.152L481.987 159.44L427.653 190.798L417.748 185.123L473.525 152.899V99.8989L577 40.1653V39.3958L489.873 89.6067V41.7044L556.613 3.22864C556.613 3.22864 556.613 3.32483 556.709 3.32483ZM307.156 214.557L387.263 168.29L467.37 214.557L387.263 260.824L307.156 214.557Z" fill="url(#paint0_radial)"/>
<path opacity="0.303055" fill-rule="evenodd" clip-rule="evenodd" d="M512.379 84.5922L526.115 76.7364V76.0658L511.899 84.209V110.65L385.494 183.46L375.889 177.904L441.108 140.349V133.643L452.635 127.033V111.608L475.015 98.3878C475.879 98.8668 477.224 98.771 478.089 98.292C479.049 97.8129 479.049 96.9507 478.089 96.3759C477.224 95.8011 475.687 95.8011 474.727 96.3759C473.862 96.8549 473.766 97.6213 474.439 98.1962L452.058 111.129V126.554L441.012 132.877V108.16L440.916 108.064L434.577 104.423L472.806 82.3888V57.6718L499.989 42.056C500.853 42.535 502.198 42.4392 503.062 41.9602C504.023 41.4812 504.023 40.619 503.062 40.0441C502.198 39.4693 500.661 39.4693 499.701 40.0441C498.836 40.5232 498.74 41.2896 499.412 41.8644L472.326 57.2886V82.0056L434.097 104.04L371.951 68.21V40.5232C372.527 40.5232 373.007 40.3315 373.391 40.1399C374.352 39.6609 374.352 38.7987 373.391 38.2239C372.527 37.6491 370.99 37.6491 370.03 38.2239C369.069 38.7029 369.069 39.5651 370.03 40.1399C370.414 40.3315 370.99 40.5232 371.47 40.5232V68.4974L371.566 68.5932L408.931 90.1488H381.652L359.656 77.5029C360.328 76.928 360.232 76.1616 359.368 75.6826C358.503 75.1078 356.966 75.1078 356.006 75.6826C355.045 76.1616 355.045 77.0238 356.006 77.5987C356.87 78.0777 358.119 78.0777 359.08 77.6945L381.46 90.6278H409.795L440.532 108.351V139.774L375.312 177.329L366.572 172.251L412.677 145.714C413.541 146.193 414.886 146.097 415.751 145.618C416.711 145.139 416.711 144.277 415.751 143.702C414.886 143.127 413.349 143.127 412.389 143.702C411.524 144.181 411.428 144.948 412.101 145.523L365.995 172.06L357.543 167.174L412.773 135.367H427.757C427.853 135.559 428.045 135.846 428.43 136.038C429.294 136.613 430.831 136.613 431.791 136.038C432.752 135.559 432.752 134.697 431.791 134.122C430.927 133.547 429.39 133.547 428.43 134.122C428.045 134.314 427.853 134.505 427.757 134.793H412.581H412.485L356.966 166.791L353.605 164.875L353.509 164.97L351.011 166.407L337.756 158.839V148.205L348.706 141.882H365.803L384.726 131.056C385.59 131.535 386.935 131.44 387.799 130.961C388.76 130.482 388.76 129.619 387.799 129.045C386.935 128.47 385.398 128.47 384.437 129.045C383.573 129.524 383.477 130.29 384.149 130.865L365.707 141.499H349.57L381.652 123.009C382.612 123.488 383.957 123.392 384.822 122.913C385.782 122.434 385.782 121.572 384.822 120.997C383.957 120.422 382.42 120.422 381.46 120.997C380.595 121.476 380.499 122.147 381.172 122.722L341.118 145.81V140.732L364.939 127.033V117.357L384.341 106.148C385.206 106.627 386.551 106.531 387.415 106.052C388.376 105.573 388.376 104.711 387.415 104.136C386.551 103.561 385.014 103.561 384.053 104.136C383.189 104.615 383.093 105.381 383.765 105.956L364.362 117.165V126.841L340.541 140.541V146.289L337.18 148.205V159.414L350.435 166.982L341.79 171.964L314.607 156.348V138.529L333.049 127.895C334.01 128.374 335.355 128.278 336.219 127.799C337.18 127.32 337.18 126.458 336.219 125.883C335.355 125.308 333.818 125.308 332.857 125.883C331.993 126.362 331.897 127.033 332.569 127.607L314.607 137.954V123.584L328.823 115.441V88.3285C329.399 88.3285 329.88 88.1369 330.264 87.9453C331.224 87.4663 331.224 86.6041 330.264 86.0293C329.399 85.4544 327.862 85.4544 326.902 86.0293C325.941 86.5083 325.941 87.3705 326.902 87.9453C327.286 88.1369 327.862 88.3285 328.343 88.3285V115.057L314.703 122.913V75.2036H314.127V156.731L341.31 172.443L331.512 178.095L295.973 157.594V108.83L278.876 98.9626V80.5685L263.795 71.8505C264.468 71.2757 264.372 70.5093 263.507 70.0303C262.643 69.4555 261.106 69.4555 260.145 70.0303C259.185 70.5093 259.185 71.3715 260.145 71.9463C261.01 72.4253 262.259 72.4253 263.219 72.0421L278.299 80.7601V99.1542L295.685 109.309V158.073L331.224 178.574L324.02 182.694L275.994 155.007V113.429L275.898 113.333L233.443 88.9033C234.115 88.3285 234.019 87.5621 233.155 87.0831C232.29 86.5083 230.753 86.5083 229.793 87.0831C228.832 87.5621 228.832 88.4243 229.793 88.9991C230.657 89.4781 231.906 89.4781 232.867 89.0949L275.514 113.62V155.199L275.61 155.294L323.444 182.885L311.726 189.592L231.906 143.606V122.913L231.81 122.817L164.957 84.3048C165.63 83.73 165.534 82.9636 164.669 82.4846C163.805 81.9098 162.268 81.9098 161.307 82.4846C160.347 82.9636 160.347 83.8258 161.307 84.4006C162.172 84.8796 163.421 84.8796 164.381 84.4964L231.33 123.105V144.564L231.426 144.66L276.186 170.431H240.647L199.536 146.768C200.209 146.193 200.113 145.427 199.248 144.948C198.384 144.373 196.847 144.373 195.886 144.948C194.926 145.427 194.926 146.289 195.886 146.864C196.655 147.343 197.999 147.343 198.96 146.96L240.455 170.91H277.051L310.981 190.412L353.701 165.833L416.807 202.142L353.701 238.451L290.594 202.142L297.334 198.264L268.214 181.448H221.244L167.839 150.696H138.255L126.152 143.702C126.824 143.127 126.728 142.361 125.864 141.882C125 141.307 123.463 141.307 122.502 141.882C121.542 142.361 121.542 143.223 122.502 143.798C123.367 144.277 124.615 144.277 125.576 143.894L138.063 151.079H167.647L207.989 174.263H173.122L156.313 164.587C156.985 164.012 156.889 163.246 156.024 162.767C155.16 162.192 153.623 162.192 152.663 162.767C151.702 163.246 151.702 164.108 152.663 164.683C153.527 165.162 154.776 165.162 155.736 164.779L172.93 174.646H208.853L220.956 181.64H267.926L276.09 186.334H256.111H256.015L246.026 192.082H204.339L192.62 185.28H168.992C168.896 185.089 168.703 184.801 168.319 184.61C167.455 184.035 165.918 184.035 164.957 184.61C163.997 185.089 163.997 185.951 164.957 186.526C165.822 187.101 167.359 187.101 168.319 186.526C168.703 186.334 168.896 186.143 168.992 185.855H192.428L204.147 192.657H245.065L233.827 199.172C232.963 198.693 231.618 198.789 230.753 199.268C229.793 199.747 229.793 200.609 230.753 201.184C231.618 201.758 233.155 201.758 234.115 201.184C234.98 200.705 235.076 199.938 234.403 199.363L256.303 186.718H277.051L296.741 198.118L289.441 202.333L289.826 202.525L294.148 205.016H280.509L262.643 194.765C263.315 194.19 263.219 193.424 262.355 192.945C261.49 192.37 259.953 192.37 258.993 192.945C258.032 193.424 258.032 194.286 258.993 194.861C259.857 195.34 261.106 195.34 262.066 194.957L280.316 205.495H295.013L305.002 211.243L298.855 214.788H288.001H287.905L278.395 220.248H271.288L255.151 210.956C255.919 210.381 255.823 209.614 254.959 209.135C254.094 208.56 252.557 208.56 251.597 209.135C250.636 209.614 250.636 210.476 251.597 211.051C252.461 211.53 253.71 211.626 254.67 211.243L271.191 220.727H278.588H278.684L288.193 215.267H297.99L278.395 226.571H267.83L245.738 213.83H179.173L137.871 190.071C138.639 189.496 138.543 188.729 137.678 188.25C136.814 187.676 135.277 187.676 134.317 188.25C133.356 188.729 133.356 189.592 134.317 190.166C135.181 190.645 136.43 190.741 137.39 190.358L179.077 214.404H245.642L267.734 227.146H278.684H278.78L305.77 211.626L312.878 215.746L282.334 233.277H260.818L243.048 223.027H197.423C197.327 222.835 197.135 222.548 196.751 222.356C195.886 221.781 194.349 221.781 193.389 222.356C192.428 222.835 192.428 223.697 193.389 224.272C194.253 224.847 195.79 224.847 196.751 224.272C197.135 224.08 197.327 223.889 197.423 223.601H242.856L259.665 233.277H195.406H195.31L134.124 268.533C133.26 268.054 131.915 268.149 131.051 268.629C130.09 269.108 130.09 269.97 131.051 270.545C131.915 271.119 133.452 271.119 134.413 270.545C135.277 270.066 135.373 269.299 134.701 268.724L195.598 233.661H282.43H282.526L313.359 215.937L321.427 220.536L278.876 245.061H203.955H203.859L138.255 282.807H61.7969L17.2285 257.132C17.9009 256.557 17.8048 255.791 16.9404 255.312C16.0759 254.737 14.539 254.737 13.5785 255.312C12.618 255.791 12.618 256.653 13.5785 257.228C14.443 257.707 15.6917 257.707 16.6522 257.324L61.6048 283.19H138.351H138.447L204.051 245.444H258.609L178.405 291.621V303.788L146.419 322.278C145.555 321.799 144.21 321.895 143.346 322.374C142.385 322.853 142.385 323.715 143.346 324.29C144.21 324.865 145.747 324.865 146.707 324.29C147.572 323.811 147.668 323.044 146.996 322.469L178.981 304.075V291.908L259.665 245.444H278.395L238.053 268.724V273.993L218.747 285.107C217.882 284.627 216.538 284.723 215.673 285.202C214.713 285.681 214.713 286.544 215.673 287.118C216.538 287.693 218.074 287.693 219.035 287.118C219.899 286.639 219.995 285.873 219.323 285.298L229.793 279.263V293.25L169.088 328.218C168.223 327.739 166.878 327.834 166.014 328.313C165.053 328.792 165.053 329.655 166.014 330.229C166.878 330.804 168.415 330.804 169.376 330.229C170.24 329.75 170.336 328.984 169.664 328.409L230.369 293.441V278.784L238.63 273.993V268.916L279.356 245.444L279.26 245.253L322.003 220.632L329.784 225.134L285.888 250.426V292.004L205.107 338.564H206.164L273.016 300.052V337.702L271.48 338.564H272.536L273.497 337.989V299.764L286.272 292.387V250.809L330.168 225.517L336.987 229.445L303.081 249.085V271.886L303.177 271.982L341.694 294.112V301.872L319.89 314.422C319.026 313.943 317.681 314.039 316.816 314.518C315.856 314.997 315.856 315.859 316.816 316.434C317.681 317.009 319.218 317.009 320.178 316.434C321.043 315.955 321.139 315.188 320.466 314.614L342.27 302.064V293.729L342.174 293.633L303.753 271.598V249.372L329.303 234.619V244.103L317.585 250.905C316.72 250.426 315.376 250.522 314.511 251.001C313.551 251.48 313.551 252.342 314.511 252.917C315.376 253.492 316.913 253.492 317.873 252.917C318.738 252.438 318.834 251.671 318.161 251.097L329.88 244.295V234.14L337.66 229.637L346.785 234.906V251.48L329.495 261.443V272.844L329.591 272.94L365.899 293.825C365.227 294.399 365.323 295.166 366.187 295.645C367.052 296.22 368.589 296.22 369.549 295.645C370.51 295.166 370.51 294.304 369.549 293.729C368.685 293.25 367.436 293.25 366.476 293.633L329.976 272.652V261.827L346.689 252.151V263.551L369.069 276.389C368.397 276.963 368.493 277.73 369.357 278.209C370.222 278.784 371.759 278.784 372.719 278.209C373.68 277.73 373.68 276.868 372.719 276.293C371.855 275.814 370.606 275.814 369.645 276.197L347.265 263.359V235.385L353.701 239.121L353.797 239.026L364.266 232.99L373.872 238.547V251.959L399.326 266.617V279.263C398.749 279.263 398.269 279.454 397.885 279.646C396.924 280.125 396.924 280.987 397.885 281.562C398.749 282.137 400.286 282.137 401.247 281.562C402.207 281.083 402.207 280.221 401.247 279.646C400.862 279.454 400.286 279.263 399.806 279.263V266.329L374.352 251.671V238.834L415.655 262.593V287.789L393.178 300.722H372.623H372.527L337.276 321.032C336.411 320.553 335.066 320.649 334.202 321.128C333.241 321.607 333.241 322.469 334.202 323.044C335.066 323.619 336.603 323.619 337.564 323.044C338.428 322.565 338.524 321.799 337.852 321.224L372.815 301.105H392.314L327.574 338.373C326.71 337.894 325.365 337.989 324.501 338.468H328.439L416.231 287.885V262.114L416.135 262.018L364.843 232.511L375.12 226.571L462.624 276.963V307.045L492.497 324.29C491.824 324.865 491.92 325.631 492.785 326.11C493.649 326.685 495.186 326.685 496.147 326.11C497.107 325.631 497.107 324.769 496.147 324.194C495.282 323.715 494.033 323.715 493.073 324.098L463.201 306.854V276.772L463.104 276.676L375.697 226.38L385.494 220.727L472.037 270.545H523.714L526.115 271.982V271.407L523.81 269.587H472.229L399.133 227.529H413.83L438.803 241.9H458.014H458.11L484.716 226.571C485.581 227.05 486.926 226.954 487.79 226.475C488.751 225.996 488.751 225.134 487.79 224.559C486.926 223.985 485.389 223.985 484.428 224.559C483.564 225.038 483.468 225.805 484.14 226.38L457.822 241.516H438.899L413.926 227.146H398.173L385.974 220.153L412.197 205.016L419.689 209.327V220.632L438.611 231.553C437.939 232.128 438.035 232.894 438.899 233.373C439.764 233.948 441.301 233.948 442.261 233.373C443.222 232.894 443.222 232.032 442.261 231.457C441.397 230.978 440.148 230.978 439.187 231.361L420.265 220.44V209.806L440.436 221.398H450.041H450.137L461.568 214.788C462.432 215.267 463.777 215.171 464.641 214.692C465.602 214.213 465.602 213.351 464.641 212.776C463.777 212.201 462.24 212.201 461.279 212.776C460.415 213.255 460.319 214.021 460.991 214.596L449.945 221.015H440.628L412.773 204.824L417.864 201.95L417.48 201.758L401.727 192.753L409.315 188.442H420.745L428.91 193.136C428.237 193.615 428.333 194.382 429.198 194.861C430.062 195.436 431.599 195.436 432.56 194.861C433.52 194.382 433.52 193.519 432.56 192.945C431.695 192.466 430.351 192.466 429.39 192.849L420.841 187.963H410.18L429.39 176.85L474.727 202.908H507.289H507.385L525.731 192.37C525.779 192.37 525.851 192.394 525.923 192.418C525.995 192.442 526.067 192.466 526.115 192.466V189.975C526.019 190.023 525.899 190.071 525.779 190.119C525.659 190.166 525.539 190.214 525.443 190.262C524.578 190.741 524.482 191.508 525.154 192.082L507.193 202.237H474.919L439.956 182.119H454.94L469.54 190.55C468.868 191.124 468.964 191.891 469.828 192.37C470.693 192.945 472.229 192.945 473.19 192.37C474.151 191.891 474.151 191.029 473.19 190.454C472.326 189.975 471.077 189.975 470.116 190.358L455.132 181.736H439.091L430.062 176.562L453.019 163.342H526.115V162.767H453.883L463.008 157.498H517.374H517.47L526.115 152.516V151.941L517.278 156.923H462.912H462.816L401.151 192.466L394.331 188.538L459.166 151.175H506.52H506.616L526.115 139.966V139.391L506.328 150.792H458.974H458.878L393.755 188.346L385.974 183.843L512.379 111.034V84.5922ZM297.334 198.264L310.981 190.412L311.053 190.454L297.414 198.31L297.334 198.264Z" fill="#D8E7FF"/>
</g>
<path opacity="0.569034" fill-rule="evenodd" clip-rule="evenodd" d="M380.036 269.096L274.152 208.025C271.157 206.298 271.532 203.281 274.991 201.286L347.09 159.716C350.548 157.721 355.781 157.504 358.776 159.232L464.66 220.301C467.655 222.029 467.28 225.047 463.821 227.042L391.722 268.612C388.263 270.607 383.031 270.823 380.036 269.096Z" fill="#BECFFF"/>
<path fill-rule="evenodd" clip-rule="evenodd" d="M466.711 97.4098L359.242 35.197C357.857 34.3966 356.586 34.2738 355.563 34.7007L355.568 34.6888L355.391 34.7709L355.348 34.7904L351.849 36.4429L355.648 38.3401L355.64 38.5502L355.673 127.127C355.675 131.561 358.409 136.736 361.779 138.687L466.382 199.239L466.977 204.18L470.796 202.352C472.054 201.61 472.851 199.933 472.851 197.545L472.818 108.969C472.816 104.536 470.081 99.3604 466.711 97.4098Z" fill="#143CAC"/>
<path fill-rule="evenodd" clip-rule="evenodd" d="M467.144 98.3698L359.27 36.1479C357.88 35.3474 356.604 35.2246 355.577 35.6515L355.582 35.6396L355.405 35.7218L355.361 35.7413L351.849 37.394L355.662 39.2915L355.655 39.5016L355.676 97.8878L404.769 136.672L471.427 103.13C470.322 101.077 468.812 99.3304 467.144 98.3698Z" fill="#0738C4"/>
<path fill-rule="evenodd" clip-rule="evenodd" d="M468.283 99.1147L457.666 103.504L465.682 109.574L472.376 106.773C471.794 103.899 470.251 101.009 468.283 99.1147Z" fill="#0A2C8C"/>
<path fill-rule="evenodd" clip-rule="evenodd" d="M463.412 204.386L355.633 142.188C352.253 140.238 349.511 135.063 349.509 130.632L349.476 42.0745C349.475 37.6415 352.215 35.6304 355.594 37.5814L463.373 99.7799C466.753 101.731 469.494 106.904 469.496 111.337L469.529 199.894C469.531 204.326 466.792 206.337 463.412 204.386Z" fill="#D5E9FB"/>
<path fill-rule="evenodd" clip-rule="evenodd" d="M460.153 198.268L359.836 140.09C356.754 138.301 354.253 133.556 354.252 129.494L354.221 48.294C354.22 44.2306 356.718 42.386 359.801 44.1755L460.117 102.353C463.2 104.142 465.702 108.886 465.702 112.949L465.733 194.149C465.735 198.212 463.236 200.056 460.153 198.268Z" fill="#FFFFFE"/>
<path fill-rule="evenodd" clip-rule="evenodd" d="M460.153 198.268L359.836 140.09C356.754 138.301 354.253 133.556 354.252 129.494L354.221 48.294C354.22 44.2306 356.718 42.386 359.801 44.1755L460.117 102.353C463.2 104.142 465.702 108.886 465.702 112.949L465.733 194.149C465.735 198.212 463.236 200.056 460.153 198.268Z" fill="#FFFFFE"/>
<path fill-rule="evenodd" clip-rule="evenodd" d="M465.256 207.163L450.782 205.247L357.35 151.154C354.355 149.42 349.122 149.638 345.664 151.64L279.458 189.956L270.706 188.797V193.777L270.715 193.777C270.657 194.929 271.311 196.036 272.724 196.854L378.61 258.157C381.606 259.891 386.837 259.674 390.296 257.671L462.396 215.942C464.342 214.816 465.312 213.364 465.256 212.001V207.163Z" fill="#0A3DD0"/>
<path fill-rule="evenodd" clip-rule="evenodd" d="M395.03 172.374L388.394 168.525H315.428L279.456 189.374L270.706 188.213V193.201L270.715 193.202C270.657 194.355 271.311 195.463 272.724 196.283L378.589 257.685C380.172 258.603 382.379 258.968 384.619 258.821L395.03 172.374Z" fill="#2154E5"/>
<path fill-rule="evenodd" clip-rule="evenodd" d="M274.503 189.027L270.706 188.492V193.674L270.715 193.675C270.659 194.872 271.297 196.024 272.678 196.875L274.503 198V189.027Z" fill="#4875F5"/>
<path fill-rule="evenodd" clip-rule="evenodd" d="M379.845 258.658C382.694 259.735 386.769 259.501 389.81 258.042V246.967H379.845V258.658Z" fill="#0D39BA"/>
<path fill-rule="evenodd" clip-rule="evenodd" d="M378.612 252.932L272.728 191.862C269.733 190.134 270.109 187.117 273.568 185.122L345.666 143.552C349.124 141.557 354.358 141.34 357.353 143.068L463.236 204.137C466.231 205.865 465.856 208.883 462.397 210.878L390.298 252.448C386.839 254.443 381.608 254.659 378.612 252.932Z" fill="#D5E9FB"/>
<path fill-rule="evenodd" clip-rule="evenodd" d="M462.402 209.066L390.3 250.636C386.84 252.631 381.608 252.848 378.612 251.12L272.722 190.051C271.74 189.485 271.128 188.778 270.86 188.016C270.392 189.431 270.989 190.863 272.722 191.863L378.612 252.932C381.608 254.659 386.84 254.443 390.3 252.448L462.402 210.879C464.728 209.538 465.653 207.736 465.105 206.173C464.763 207.204 463.861 208.225 462.402 209.066Z" fill="#FFFFFE"/>
<path fill-rule="evenodd" clip-rule="evenodd" d="M317.61 171.23L312.729 168.512C312.337 168.295 312.385 167.914 312.838 167.661L318.601 164.454C319.054 164.203 319.737 164.175 320.13 164.393L325.011 167.111C325.403 167.329 325.354 167.71 324.902 167.961L319.139 171.169C318.687 171.42 318.002 171.448 317.61 171.23Z" fill="#263764"/>
<path fill-rule="evenodd" clip-rule="evenodd" d="M324.728 175.509L319.846 172.791C319.454 172.573 319.503 172.192 319.957 171.941L325.718 168.733C326.17 168.481 326.855 168.453 327.247 168.672L332.129 171.389C332.521 171.607 332.472 171.988 332.019 172.241L326.257 175.448C325.805 175.699 325.12 175.727 324.728 175.509Z" fill="#263764"/>
<path fill-rule="evenodd" clip-rule="evenodd" d="M332.32 179.787L327.439 177.07C327.047 176.852 327.095 176.471 327.548 176.218L333.311 173.011C333.763 172.76 334.448 172.732 334.84 172.951L339.721 175.668C340.113 175.886 340.065 176.267 339.612 176.519L333.849 179.726C333.397 179.978 332.712 180.005 332.32 179.787Z" fill="#263764"/>
<path fill-rule="evenodd" clip-rule="evenodd" d="M342.749 176.458L337.877 173.725C337.486 173.506 337.536 173.122 337.987 172.869L342.814 170.16C343.266 169.907 343.949 169.879 344.34 170.099L349.212 172.832C349.603 173.051 349.554 173.435 349.102 173.689L344.276 176.397C343.824 176.651 343.14 176.678 342.749 176.458Z" fill="#263764"/>
<path fill-rule="evenodd" clip-rule="evenodd" d="M349.867 180.737L344.995 178.004C344.604 177.784 344.653 177.401 345.105 177.148L349.932 174.44C350.384 174.186 351.067 174.158 351.458 174.378L356.331 177.111C356.721 177.331 356.672 177.714 356.221 177.968L351.393 180.676C350.942 180.929 350.258 180.957 349.867 180.737Z" fill="#263764"/>
<path fill-rule="evenodd" clip-rule="evenodd" d="M357.459 185.016L352.587 182.282C352.196 182.063 352.245 181.68 352.697 181.426L357.523 178.718C357.976 178.464 358.659 178.437 359.05 178.657L363.922 181.389C364.313 181.609 364.264 181.992 363.812 182.246L358.985 184.955C358.533 185.208 357.85 185.235 357.459 185.016Z" fill="#263764"/>
<path fill-rule="evenodd" clip-rule="evenodd" d="M365.052 189.77L360.18 187.036C359.789 186.817 359.838 186.433 360.29 186.181L365.116 183.472C365.568 183.219 366.251 183.191 366.643 183.41L371.514 186.144C371.906 186.363 371.856 186.746 371.405 187L366.578 189.709C366.126 189.962 365.443 189.989 365.052 189.77Z" fill="#263764"/>
<path fill-rule="evenodd" clip-rule="evenodd" d="M372.169 193.573L367.298 190.84C366.907 190.62 366.955 190.237 367.407 189.983L372.234 187.275C372.686 187.022 373.368 186.994 373.759 187.214L378.632 189.946C379.024 190.166 378.975 190.549 378.522 190.803L373.695 193.512C373.244 193.766 372.56 193.792 372.169 193.573Z" fill="#263764"/>
<path fill-rule="evenodd" clip-rule="evenodd" d="M380.237 197.852L375.364 195.119C374.973 194.899 375.021 194.516 375.474 194.262L380.301 191.554C380.752 191.3 381.436 191.273 381.827 191.493L386.699 194.226C387.09 194.445 387.041 194.829 386.589 195.083L381.762 197.791C381.311 198.043 380.628 198.072 380.237 197.852Z" fill="#263764"/>
<path fill-rule="evenodd" clip-rule="evenodd" d="M386.879 202.131L382.008 199.397C381.617 199.178 381.665 198.795 382.117 198.541L386.944 195.833C387.396 195.579 388.078 195.552 388.47 195.771L393.342 198.504C393.733 198.725 393.685 199.107 393.233 199.361L388.405 202.069C387.954 202.323 387.27 202.35 386.879 202.131Z" fill="#263764"/>
<path fill-rule="evenodd" clip-rule="evenodd" d="M394.472 206.409L389.6 203.676C389.209 203.456 389.258 203.073 389.71 202.82L394.536 200.111C394.988 199.858 395.671 199.83 396.062 200.05L400.935 202.784C401.326 203.003 401.277 203.386 400.825 203.64L395.998 206.348C395.547 206.601 394.863 206.629 394.472 206.409Z" fill="#263764"/>
<path fill-rule="evenodd" clip-rule="evenodd" d="M401.589 210.687L396.718 207.955C396.327 207.735 396.375 207.352 396.827 207.098L401.655 204.39C402.106 204.136 402.789 204.109 403.18 204.329L408.052 207.062C408.443 207.282 408.395 207.664 407.943 207.918L403.115 210.626C402.664 210.88 401.98 210.908 401.589 210.687Z" fill="#263764"/>
<path fill-rule="evenodd" clip-rule="evenodd" d="M409.182 214.967L404.31 212.233C403.919 212.014 403.968 211.63 404.42 211.377L409.247 208.669C409.698 208.415 410.381 208.388 410.772 208.607L415.645 211.34C416.036 211.56 415.987 211.944 415.535 212.197L410.708 214.906C410.257 215.158 409.573 215.186 409.182 214.967Z" fill="#263764"/>
<path fill-rule="evenodd" clip-rule="evenodd" d="M353.664 174.557L348.791 171.823C348.4 171.604 348.449 171.221 348.901 170.967L353.728 168.259C354.179 168.005 354.863 167.978 355.254 168.198L360.126 170.931C360.517 171.151 360.468 171.534 360.016 171.786L355.189 174.495C354.738 174.749 354.055 174.776 353.664 174.557Z" fill="#3B6397"/>
<path fill-rule="evenodd" clip-rule="evenodd" d="M345.596 170.278L340.725 167.544C340.334 167.325 340.382 166.942 340.834 166.689L345.662 163.981C346.113 163.727 346.796 163.699 347.187 163.919L352.059 166.652C352.45 166.872 352.402 167.255 351.95 167.507L347.122 170.217C346.671 170.469 345.987 170.498 345.596 170.278Z" fill="#3B6397"/>
<path fill-rule="evenodd" clip-rule="evenodd" d="M339.107 165.997L328.856 160.005C328.473 159.782 328.521 159.392 328.962 159.133L333.679 156.377C334.121 156.119 334.788 156.091 335.171 156.315L345.422 162.306C345.804 162.53 345.756 162.92 345.315 163.177L340.599 165.934C340.157 166.192 339.489 166.22 339.107 165.997Z" fill="#263764"/>
<path fill-rule="evenodd" clip-rule="evenodd" d="M343.838 160.296L335.499 155.597C335.116 155.382 335.164 155.005 335.607 154.755L340.334 152.091C340.776 151.842 341.445 151.815 341.828 152.031L350.167 156.73C350.55 156.946 350.501 157.323 350.059 157.573L345.332 160.236C344.89 160.486 344.221 160.513 343.838 160.296Z" fill="#263764"/>
<path fill-rule="evenodd" clip-rule="evenodd" d="M361.256 178.836L356.384 176.102C355.992 175.882 356.041 175.499 356.493 175.246L361.321 172.537C361.772 172.284 362.456 172.257 362.847 172.476L367.718 175.21C368.109 175.429 368.061 175.812 367.609 176.066L362.781 178.774C362.33 179.027 361.647 179.055 361.256 178.836Z" fill="#3B6397"/>
<path fill-rule="evenodd" clip-rule="evenodd" d="M368.373 183.114L363.502 180.381C363.11 180.161 363.16 179.778 363.611 179.524L368.438 176.816C368.89 176.563 369.573 176.535 369.964 176.755L374.836 179.488C375.228 179.708 375.178 180.091 374.726 180.344L369.9 183.052C369.448 183.306 368.765 183.334 368.373 183.114Z" fill="#263764"/>
<path fill-rule="evenodd" clip-rule="evenodd" d="M375.49 187.393L370.619 184.66C370.228 184.44 370.277 184.057 370.728 183.803L375.557 181.095C376.008 180.841 376.691 180.814 377.082 181.034L381.954 183.767C382.345 183.986 382.296 184.37 381.845 184.624L377.017 187.332C376.565 187.584 375.882 187.613 375.49 187.393Z" fill="#263764"/>
<path fill-rule="evenodd" clip-rule="evenodd" d="M383.083 191.672L378.211 188.938C377.82 188.719 377.87 188.336 378.321 188.082L383.148 185.373C383.6 185.12 384.283 185.093 384.674 185.312L389.546 188.046C389.938 188.265 389.888 188.649 389.436 188.901L384.61 191.609C384.158 191.863 383.474 191.891 383.083 191.672Z" fill="#263764"/>
<path fill-rule="evenodd" clip-rule="evenodd" d="M390.675 195.475L385.804 192.741C385.413 192.522 385.462 192.138 385.913 191.886L390.74 189.177C391.192 188.924 391.876 188.896 392.267 189.115L397.138 191.849C397.529 192.068 397.48 192.452 397.029 192.705L392.202 195.414C391.75 195.667 391.066 195.694 390.675 195.475Z" fill="#263764"/>
<path fill-rule="evenodd" clip-rule="evenodd" d="M398.268 200.229L393.396 197.496C393.004 197.276 393.054 196.893 393.506 196.639L398.332 193.931C398.784 193.678 399.468 193.65 399.859 193.87L404.731 196.603C405.122 196.822 405.072 197.206 404.621 197.459L399.794 200.167C399.342 200.421 398.659 200.448 398.268 200.229Z" fill="#263764"/>
<path fill-rule="evenodd" clip-rule="evenodd" d="M405.385 204.508L400.514 201.774C400.123 201.555 400.172 201.171 400.623 200.918L405.45 198.21C405.903 197.956 406.586 197.929 406.977 198.148L411.848 200.881C412.24 201.101 412.191 201.485 411.739 201.738L406.912 204.447C406.46 204.699 405.776 204.727 405.385 204.508Z" fill="#263764"/>
<path fill-rule="evenodd" clip-rule="evenodd" d="M412.978 208.787L408.106 206.053C407.714 205.833 407.764 205.45 408.216 205.196L413.042 202.488C413.494 202.235 414.178 202.207 414.569 202.426L419.441 205.161C419.832 205.379 419.782 205.763 419.331 206.016L414.504 208.724C414.052 208.978 413.369 209.006 412.978 208.787Z" fill="#263764"/>
<path fill-rule="evenodd" clip-rule="evenodd" d="M420.095 213.065L415.224 210.332C414.833 210.112 414.882 209.729 415.333 209.475L420.16 206.767C420.613 206.514 421.296 206.486 421.687 206.705L426.558 209.439C426.95 209.658 426.901 210.042 426.449 210.296L421.621 213.004C421.17 213.257 420.486 213.284 420.095 213.065Z" fill="#263764"/>
<path fill-rule="evenodd" clip-rule="evenodd" d="M433.226 220.195L422.348 214.172C421.947 213.95 421.997 213.563 422.459 213.308L427.4 210.572C427.862 210.317 428.561 210.289 428.961 210.51L439.839 216.533C440.239 216.755 440.189 217.142 439.726 217.398L434.787 220.132C434.325 220.389 433.626 220.416 433.226 220.195Z" fill="#263764"/>
<path fill-rule="evenodd" clip-rule="evenodd" d="M448.021 212.121L438.952 207.311C438.557 207.101 438.607 206.735 439.063 206.493L443.942 203.906C444.399 203.663 445.089 203.637 445.485 203.847L454.552 208.656C454.947 208.866 454.898 209.232 454.441 209.474L449.563 212.063C449.107 212.304 448.416 212.331 448.021 212.121Z" fill="#263764"/>
<path fill-rule="evenodd" clip-rule="evenodd" d="M374.068 177.885L369.196 175.151C368.805 174.932 368.853 174.548 369.305 174.294L374.133 171.586C374.584 171.333 375.267 171.306 375.658 171.525L380.53 174.259C380.921 174.478 380.873 174.862 380.421 175.115L375.594 177.823C375.142 178.077 374.459 178.104 374.068 177.885Z" fill="#263764"/>
<path fill-rule="evenodd" clip-rule="evenodd" d="M366 173.606L361.129 170.873C360.738 170.653 360.787 170.27 361.238 170.016L366.065 167.308C366.518 167.054 367.199 167.027 367.591 167.246L372.464 169.98C372.855 170.199 372.806 170.582 372.354 170.836L367.526 173.544C367.075 173.798 366.391 173.825 366 173.606Z" fill="#263764"/>
<path fill-rule="evenodd" clip-rule="evenodd" d="M358.408 169.327L353.536 166.593C353.145 166.374 353.195 165.992 353.646 165.738L358.473 163.03C358.925 162.776 359.608 162.748 359.999 162.969L364.872 165.701C365.263 165.921 365.213 166.304 364.762 166.557L359.935 169.266C359.483 169.519 358.799 169.547 358.408 169.327Z" fill="#3B6397"/>
<path fill-rule="evenodd" clip-rule="evenodd" d="M351.291 164.573L346.419 161.84C346.027 161.62 346.076 161.237 346.529 160.984L351.356 158.276C351.807 158.022 352.491 157.994 352.882 158.214L357.753 160.947C358.144 161.167 358.096 161.55 357.644 161.804L352.817 164.512C352.365 164.765 351.682 164.793 351.291 164.573Z" fill="#263764"/>
<path fill-rule="evenodd" clip-rule="evenodd" d="M381.66 182.639L376.787 179.906C376.397 179.686 376.445 179.303 376.897 179.049L381.724 176.341C382.176 176.087 382.859 176.06 383.25 176.279L388.122 179.013C388.513 179.232 388.465 179.616 388.012 179.87L383.186 182.578C382.734 182.83 382.051 182.859 381.66 182.639Z" fill="#263764"/>
<path fill-rule="evenodd" clip-rule="evenodd" d="M388.778 185.967L383.906 183.233C383.515 183.014 383.563 182.631 384.016 182.377L388.843 179.668C389.294 179.415 389.977 179.388 390.368 179.607L395.241 182.341C395.631 182.561 395.583 182.944 395.131 183.196L390.304 185.904C389.853 186.158 389.169 186.186 388.778 185.967Z" fill="#263764"/>
<path fill-rule="evenodd" clip-rule="evenodd" d="M395.895 190.721L391.024 187.987C390.632 187.768 390.681 187.385 391.132 187.132L395.96 184.423C396.412 184.17 397.095 184.141 397.486 184.362L402.358 187.095C402.749 187.314 402.701 187.697 402.248 187.951L397.421 190.66C396.97 190.913 396.286 190.94 395.895 190.721Z" fill="#263764"/>
<path fill-rule="evenodd" clip-rule="evenodd" d="M403.488 194.999L398.616 192.266C398.224 192.047 398.273 191.663 398.726 191.409L403.553 188.701C404.004 188.448 404.688 188.42 405.079 188.64L409.951 191.373C410.342 191.593 410.292 191.976 409.841 192.229L405.014 194.937C404.562 195.191 403.88 195.219 403.488 194.999Z" fill="#263764"/>
<path fill-rule="evenodd" clip-rule="evenodd" d="M411.079 199.754L406.208 197.019C405.817 196.801 405.866 196.418 406.317 196.164L411.145 193.456C411.597 193.202 412.279 193.174 412.67 193.395L417.543 196.127C417.934 196.347 417.885 196.73 417.433 196.984L412.606 199.693C412.154 199.945 411.47 199.973 411.079 199.754Z" fill="#263764"/>
<path fill-rule="evenodd" clip-rule="evenodd" d="M418.197 203.557L413.325 200.823C412.934 200.603 412.984 200.22 413.435 199.967L418.263 197.259C418.714 197.006 419.397 196.978 419.789 197.197L424.661 199.931C425.052 200.15 425.002 200.533 424.551 200.786L419.724 203.495C419.272 203.749 418.589 203.776 418.197 203.557Z" fill="#263764"/>
<path fill-rule="evenodd" clip-rule="evenodd" d="M425.789 207.835L420.918 205.103C420.527 204.882 420.576 204.499 421.027 204.245L425.854 201.537C426.307 201.284 426.989 201.257 427.38 201.476L432.253 204.21C432.644 204.428 432.595 204.812 432.143 205.066L427.316 207.774C426.864 208.028 426.18 208.055 425.789 207.835Z" fill="#263764"/>
<path fill-rule="evenodd" clip-rule="evenodd" d="M433.382 212.114L428.51 209.381C428.119 209.161 428.169 208.778 428.62 208.524L433.446 205.816C433.899 205.563 434.582 205.535 434.973 205.755L439.845 208.488C440.236 208.708 440.186 209.091 439.735 209.344L434.909 212.052C434.456 212.306 433.773 212.334 433.382 212.114Z" fill="#263764"/>
<path fill-rule="evenodd" clip-rule="evenodd" d="M440.499 216.393L435.628 213.66C435.237 213.44 435.286 213.057 435.737 212.803L440.565 210.095C441.017 209.841 441.7 209.814 442.09 210.033L446.963 212.767C447.354 212.986 447.305 213.37 446.853 213.623L442.026 216.332C441.574 216.585 440.89 216.612 440.499 216.393Z" fill="#263764"/>
<path fill-rule="evenodd" clip-rule="evenodd" d="M369.796 167.425L364.925 164.692C364.534 164.473 364.583 164.089 365.034 163.836L369.862 161.128C370.314 160.874 370.997 160.847 371.388 161.066L376.26 163.799C376.651 164.019 376.602 164.403 376.15 164.656L371.323 167.364C370.871 167.618 370.187 167.645 369.796 167.425Z" fill="#263764"/>
<path fill-rule="evenodd" clip-rule="evenodd" d="M363.153 163.147L358.282 160.413C357.891 160.194 357.94 159.811 358.391 159.558L363.218 156.849C363.671 156.596 364.354 156.568 364.745 156.788L369.616 159.521C370.008 159.741 369.959 160.124 369.507 160.377L364.68 163.086C364.228 163.338 363.544 163.367 363.153 163.147Z" fill="#263764"/>
<path fill-rule="evenodd" clip-rule="evenodd" d="M355.086 158.868L350.215 156.135C349.824 155.915 349.873 155.532 350.324 155.279L355.152 152.57C355.604 152.316 356.287 152.29 356.678 152.509L361.55 155.242C361.941 155.461 361.892 155.844 361.44 156.098L356.613 158.807C356.161 159.061 355.477 159.087 355.086 158.868Z" fill="#263764"/>
<path fill-rule="evenodd" clip-rule="evenodd" d="M347.969 154.114L343.097 151.381C342.706 151.161 342.755 150.778 343.206 150.524L348.035 147.816C348.486 147.563 349.169 147.535 349.56 147.755L354.432 150.488C354.823 150.708 354.774 151.091 354.323 151.344L349.495 154.052C349.043 154.306 348.36 154.334 347.969 154.114Z" fill="#263764"/>
<path fill-rule="evenodd" clip-rule="evenodd" d="M355.7 150.313L351.146 147.63C350.781 147.414 350.827 147.038 351.249 146.79L352.741 145.91C353.163 145.662 353.801 145.635 354.167 145.851L358.72 148.534C359.085 148.749 359.04 149.126 358.618 149.374L357.126 150.253C356.704 150.502 356.065 150.529 355.7 150.313Z" fill="#263764"/>
<path fill-rule="evenodd" clip-rule="evenodd" d="M365.19 156.019L360.637 153.334C360.271 153.12 360.317 152.744 360.74 152.495L362.231 151.616C362.653 151.367 363.291 151.34 363.657 151.555L368.209 154.239C368.576 154.455 368.53 154.831 368.107 155.079L366.616 155.959C366.195 156.206 365.556 156.234 365.19 156.019Z" fill="#263764"/>
<path fill-rule="evenodd" clip-rule="evenodd" d="M372.783 159.822L368.23 157.138C367.864 156.923 367.909 156.547 368.331 156.298L369.823 155.42C370.245 155.17 370.883 155.143 371.249 155.358L375.802 158.042C376.168 158.257 376.122 158.633 375.7 158.883L374.209 159.761C373.787 160.01 373.148 160.037 372.783 159.822Z" fill="#263764"/>
<path fill-rule="evenodd" clip-rule="evenodd" d="M379.9 164.101L375.347 161.417C374.981 161.201 375.027 160.825 375.449 160.576L376.941 159.697C377.363 159.449 378.001 159.422 378.367 159.637L382.92 162.321C383.286 162.536 383.24 162.912 382.817 163.161L381.326 164.04C380.904 164.289 380.265 164.316 379.9 164.101Z" fill="#263764"/>
<path fill-rule="evenodd" clip-rule="evenodd" d="M387.018 168.379L382.464 165.696C382.099 165.48 382.145 165.104 382.567 164.855L384.059 163.976C384.481 163.728 385.12 163.7 385.485 163.916L390.038 166.599C390.403 166.815 390.358 167.192 389.936 167.44L388.445 168.319C388.022 168.568 387.384 168.595 387.018 168.379Z" fill="#263764"/>
<path fill-rule="evenodd" clip-rule="evenodd" d="M428.301 192.149L423.747 189.466C423.382 189.25 423.428 188.874 423.85 188.626L425.342 187.746C425.764 187.499 426.403 187.471 426.768 187.686L431.321 190.371C431.686 190.585 431.641 190.962 431.219 191.21L429.728 192.09C429.305 192.338 428.666 192.365 428.301 192.149Z" fill="#263764"/>
<path fill-rule="evenodd" clip-rule="evenodd" d="M435.419 196.428L430.865 193.746C430.5 193.53 430.546 193.153 430.968 192.904L432.459 192.026C432.882 191.777 433.52 191.75 433.886 191.965L438.439 194.648C438.804 194.864 438.758 195.24 438.337 195.49L436.845 196.368C436.423 196.617 435.784 196.644 435.419 196.428Z" fill="#263764"/>
<path fill-rule="evenodd" clip-rule="evenodd" d="M442.536 200.231L437.983 197.548C437.618 197.333 437.663 196.956 438.086 196.707L439.577 195.829C439.999 195.579 440.638 195.553 441.003 195.769L445.557 198.451C445.922 198.667 445.876 199.043 445.454 199.293L443.962 200.171C443.54 200.42 442.902 200.447 442.536 200.231Z" fill="#263764"/>
<path fill-rule="evenodd" clip-rule="evenodd" d="M450.128 204.51L445.576 201.826C445.21 201.611 445.255 201.235 445.678 200.986L447.169 200.107C447.591 199.859 448.229 199.832 448.596 200.047L453.149 202.731C453.514 202.946 453.468 203.323 453.046 203.57L451.554 204.45C451.133 204.698 450.494 204.726 450.128 204.51Z" fill="#263764"/>
<path fill-rule="evenodd" clip-rule="evenodd" d="M376.914 171.229L372.042 168.495C371.651 168.277 371.701 167.893 372.152 167.639L376.979 164.931C377.431 164.677 378.114 164.65 378.506 164.87L383.378 167.602C383.769 167.822 383.719 168.206 383.268 168.459L378.441 171.168C377.989 171.421 377.306 171.448 376.914 171.229Z" fill="#263764"/>
<path fill-rule="evenodd" clip-rule="evenodd" d="M384.981 175.508L380.109 172.774C379.718 172.555 379.767 172.172 380.219 171.919L385.046 169.21C385.498 168.956 386.182 168.929 386.573 169.148L391.444 171.882C391.835 172.101 391.786 172.485 391.335 172.737L386.507 175.445C386.055 175.699 385.372 175.727 384.981 175.508Z" fill="#263764"/>
<path fill-rule="evenodd" clip-rule="evenodd" d="M392.099 180.261L387.227 177.529C386.836 177.309 386.886 176.926 387.337 176.672L392.163 173.963C392.616 173.71 393.299 173.683 393.69 173.902L398.562 176.636C398.953 176.855 398.904 177.238 398.452 177.492L393.626 180.2C393.173 180.454 392.49 180.481 392.099 180.261Z" fill="#263764"/>
<path fill-rule="evenodd" clip-rule="evenodd" d="M399.691 184.54L394.819 181.807C394.428 181.587 394.477 181.204 394.929 180.951L399.756 178.243C400.208 177.989 400.892 177.961 401.283 178.181L406.154 180.914C406.545 181.134 406.496 181.517 406.045 181.771L401.217 184.479C400.765 184.732 400.082 184.76 399.691 184.54Z" fill="#263764"/>
<path fill-rule="evenodd" clip-rule="evenodd" d="M406.809 188.819L401.937 186.086C401.546 185.867 401.596 185.483 402.047 185.229L406.873 182.521C407.326 182.267 408.009 182.24 408.4 182.46L413.272 185.193C413.663 185.412 413.614 185.796 413.162 186.049L408.335 188.758C407.883 189.011 407.2 189.039 406.809 188.819Z" fill="#263764"/>
<path fill-rule="evenodd" clip-rule="evenodd" d="M414.875 193.098L410.004 190.364C409.613 190.144 409.662 189.761 410.113 189.509L414.941 186.8C415.393 186.546 416.075 186.519 416.467 186.738L421.339 189.472C421.73 189.691 421.681 190.074 421.23 190.328L416.401 193.036C415.95 193.29 415.266 193.317 414.875 193.098Z" fill="#263764"/>
<path fill-rule="evenodd" clip-rule="evenodd" d="M421.994 197.376L417.122 194.643C416.731 194.424 416.78 194.04 417.232 193.786L422.058 191.078C422.51 190.825 423.193 190.798 423.584 191.017L428.456 193.75C428.848 193.969 428.798 194.353 428.347 194.607L423.52 197.315C423.068 197.569 422.385 197.596 421.994 197.376Z" fill="#263764"/>
<path fill-rule="evenodd" clip-rule="evenodd" d="M429.586 201.655L424.714 198.922C424.323 198.702 424.371 198.319 424.823 198.066L429.651 195.358C430.102 195.104 430.786 195.076 431.177 195.296L436.048 198.029C436.44 198.249 436.391 198.632 435.939 198.886L431.112 201.594C430.66 201.847 429.977 201.875 429.586 201.655Z" fill="#263764"/>
<path fill-rule="evenodd" clip-rule="evenodd" d="M436.704 205.934L431.832 203.201C431.441 202.982 431.49 202.598 431.942 202.344L436.768 199.636C437.22 199.382 437.903 199.355 438.294 199.574L443.167 202.308C443.558 202.527 443.509 202.911 443.057 203.164L438.23 205.873C437.778 206.126 437.095 206.153 436.704 205.934Z" fill="#263764"/>
<path fill-rule="evenodd" clip-rule="evenodd" d="M335.302 172.175L321.264 163.863C320.881 163.638 320.929 163.242 321.371 162.979L326.094 160.183C326.535 159.922 327.204 159.894 327.586 160.12L341.626 168.431C342.009 168.658 341.96 169.054 341.518 169.316L336.796 172.112C336.353 172.373 335.685 172.402 335.302 172.175Z" fill="#263764"/>
<path fill-rule="evenodd" clip-rule="evenodd" d="M426.409 224.945L412.371 216.634C411.988 216.408 412.037 216.012 412.478 215.75L417.201 212.954C417.643 212.692 418.312 212.664 418.694 212.891L432.733 221.201C433.115 221.428 433.068 221.824 432.626 222.086L427.902 224.882C427.461 225.144 426.792 225.172 426.409 224.945Z" fill="#263764"/>
<path fill-rule="evenodd" clip-rule="evenodd" d="M396.38 216.869L391.498 214.152C391.106 213.934 391.156 213.553 391.609 213.3L397.37 210.093C397.822 209.842 398.507 209.814 398.899 210.033L403.781 212.75C404.173 212.968 404.124 213.349 403.671 213.601L397.909 216.808C397.457 217.06 396.772 217.087 396.38 216.869Z" fill="#263764"/>
<path fill-rule="evenodd" clip-rule="evenodd" d="M342.554 185.971L335.021 181.725C334.643 181.512 334.691 181.141 335.128 180.894L340.687 177.761C341.123 177.514 341.784 177.488 342.162 177.702L349.696 181.946C350.074 182.159 350.026 182.532 349.589 182.778L344.03 185.911C343.593 186.157 342.932 186.184 342.554 185.971Z" fill="#263764"/>
<path fill-rule="evenodd" clip-rule="evenodd" d="M389.057 212.594L381.525 208.349C381.146 208.135 381.193 207.763 381.63 207.517L387.19 204.384C387.627 204.138 388.287 204.111 388.665 204.324L396.198 208.569C396.576 208.783 396.529 209.155 396.093 209.401L390.532 212.534C390.096 212.78 389.435 212.807 389.057 212.594Z" fill="#263764"/>
<path fill-rule="evenodd" clip-rule="evenodd" d="M352.994 192.151L345.461 187.906C345.082 187.693 345.131 187.32 345.567 187.075L351.127 183.942C351.563 183.695 352.224 183.668 352.602 183.882L360.135 188.127C360.513 188.34 360.465 188.712 360.029 188.958L354.469 192.092C354.033 192.337 353.372 192.365 352.994 192.151Z" fill="#263764"/>
<path fill-rule="evenodd" clip-rule="evenodd" d="M352.93 183.738L386.18 202.718C386.592 202.953 386.592 203.335 386.18 203.57L380.424 206.856C380.011 207.092 379.343 207.092 378.93 206.856L345.68 187.876L352.93 183.738Z" fill="#263764"/>
<path fill-rule="evenodd" clip-rule="evenodd" d="M416.946 225.228L422.337 228.469C422.655 228.66 422.615 228.995 422.248 229.216L419.911 230.621C419.543 230.842 418.987 230.865 418.668 230.674L413.277 227.434C412.958 227.242 412.998 226.907 413.366 226.686L415.703 225.281C416.071 225.061 416.627 225.036 416.946 225.228Z" fill="#263764"/>
<path fill-rule="evenodd" clip-rule="evenodd" d="M409.828 220.474L415.219 223.715C415.537 223.906 415.498 224.24 415.129 224.462L412.793 225.867C412.425 226.087 411.869 226.111 411.55 225.92L406.158 222.679C405.841 222.488 405.88 222.152 406.248 221.932L408.585 220.527C408.953 220.306 409.509 220.282 409.828 220.474Z" fill="#263764"/>
<path fill-rule="evenodd" clip-rule="evenodd" d="M402.235 216.195L407.627 219.435C407.945 219.627 407.905 219.962 407.537 220.182L405.201 221.587C404.833 221.808 404.277 221.833 403.958 221.641L398.566 218.4C398.248 218.208 398.288 217.875 398.656 217.653L400.993 216.248C401.361 216.027 401.917 216.003 402.235 216.195Z" fill="#263764"/>
<path fill-rule="evenodd" clip-rule="evenodd" d="M414.098 218.097L419.49 221.337C419.808 221.529 419.768 221.864 419.4 222.084L417.064 223.489C416.696 223.71 416.139 223.734 415.82 223.543L410.429 220.302C410.111 220.11 410.151 219.776 410.519 219.554L412.855 218.149C413.223 217.929 413.779 217.905 414.098 218.097Z" fill="#263764"/>
<path fill-rule="evenodd" clip-rule="evenodd" d="M404.036 118.131C403.843 118.131 403.63 118.071 403.406 117.944L367.674 97.7275C366.796 97.2303 366.084 95.898 366.084 94.7511V67.2004C366.084 66.3467 366.478 65.8361 367.042 65.8361C367.236 65.8361 367.449 65.8959 367.674 66.0231L403.406 86.2397C404.283 86.7361 404.995 88.0684 404.995 89.2153V116.767C404.995 117.62 404.6 118.131 404.036 118.131Z" fill="#F1F8FA"/>
<path fill-rule="evenodd" clip-rule="evenodd" d="M378.774 99.3921L378.544 99.2498C377.69 98.7225 376.998 97.31 376.998 96.0938V82.971C376.998 81.7548 377.69 81.1963 378.544 81.7228L378.774 81.8651C379.627 82.3915 380.32 83.804 380.32 85.0211V98.143C380.32 99.3593 379.627 99.9186 378.774 99.3921Z" fill="#BEDFFE"/>
<path fill-rule="evenodd" clip-rule="evenodd" d="M385.418 102.716L385.187 102.571C384.333 102.036 383.641 100.6 383.641 99.3623V91.5531C383.641 90.3164 384.333 89.7477 385.187 90.2838L385.418 90.4286C386.271 90.9639 386.963 92.4001 386.963 93.6377V101.447C386.963 102.684 386.271 103.252 385.418 102.716Z" fill="#BEDFFE"/>
<path fill-rule="evenodd" clip-rule="evenodd" d="M392.535 107.474L392.305 107.331C391.451 106.803 390.759 105.385 390.759 104.165V85.8278C390.759 84.6079 391.451 84.0478 392.305 84.5758L392.535 84.7186C393.389 85.2466 394.081 86.6642 394.081 87.8841V106.221C394.081 107.441 393.389 108.002 392.535 107.474Z" fill="#264EBF"/>
<path fill-rule="evenodd" clip-rule="evenodd" d="M436.275 110.821L414.523 98.0298C413.715 97.5552 413.062 96.2833 413.062 95.1874C413.062 94.0923 413.715 93.5894 414.523 94.064L436.275 106.855C437.082 107.329 437.736 108.601 437.736 109.697C437.736 110.792 437.082 111.296 436.275 110.821Z" fill="#BEDFFE"/>
<path fill-rule="evenodd" clip-rule="evenodd" d="M422.549 110.353L414.964 105.959C414.175 105.502 413.536 104.277 413.536 103.223C413.536 102.167 414.175 101.682 414.964 102.139L422.549 106.533C423.337 106.99 423.975 108.216 423.975 109.27C423.975 110.325 423.337 110.809 422.549 110.353Z" fill="#BEDFFE"/>
<path fill-rule="evenodd" clip-rule="evenodd" d="M435.36 117.008L427.776 112.615C426.988 112.158 426.348 110.933 426.348 109.878C426.348 108.823 426.988 108.338 427.776 108.795L435.36 113.188C436.148 113.645 436.787 114.871 436.787 115.926C436.787 116.981 436.148 117.465 435.36 117.008Z" fill="#264EBF"/>
<path fill-rule="evenodd" clip-rule="evenodd" d="M451.914 127.46L440.642 120.871C439.824 120.394 439.16 119.116 439.16 118.014C439.16 116.914 439.824 116.407 440.642 116.884L451.914 123.473C452.732 123.95 453.395 125.229 453.395 126.331C453.395 127.431 452.732 127.937 451.914 127.46Z" fill="#BEDFFE"/>
<path fill-rule="evenodd" clip-rule="evenodd" d="M441.483 128.89L414.061 113.175C413.247 112.708 412.587 111.457 412.587 110.38C412.587 109.303 413.247 108.807 414.061 109.274L441.483 124.989C442.296 125.456 442.956 126.707 442.956 127.785C442.956 128.862 442.296 129.356 441.483 128.89Z" fill="#BEDFFE"/>
<path fill-rule="evenodd" clip-rule="evenodd" d="M452.875 143.151L414.056 120.802C413.244 120.334 412.587 119.076 412.587 117.993C412.587 116.91 413.244 116.412 414.056 116.881L452.875 139.231C453.687 139.7 454.344 140.957 454.344 142.039C454.344 143.122 453.687 143.62 452.875 143.151Z" fill="#264EBF"/>
<path fill-rule="evenodd" clip-rule="evenodd" d="M456.676 122.703L442.522 114.277C441.713 113.793 441.058 112.495 441.058 111.378C441.058 110.261 441.713 109.748 442.522 110.231L456.676 118.658C457.485 119.142 458.141 120.439 458.141 121.557C458.141 122.673 457.485 123.187 456.676 122.703Z" fill="#BEDFFE"/>
<path fill-rule="evenodd" clip-rule="evenodd" d="M373.202 122.727L366.084 118.607V126.847L373.202 130.967V122.727Z" fill="#264EBF"/>
<path fill-rule="evenodd" clip-rule="evenodd" d="M383.641 122.117L376.524 118.131V132.687L383.641 136.672V122.117Z" fill="#7895E6"/>
<path fill-rule="evenodd" clip-rule="evenodd" d="M394.555 133.018L387.438 129.066V139.376L394.555 143.328V133.018Z" fill="#7895E6"/>
<path fill-rule="evenodd" clip-rule="evenodd" d="M405.944 135.95L398.826 131.918V145.476L405.944 149.508V135.95Z" fill="#A4BAFA"/>
<path fill-rule="evenodd" clip-rule="evenodd" d="M416.858 143.05L409.74 139.049V151.688L416.858 155.689V143.05Z" fill="#264EBF"/>
<path fill-rule="evenodd" clip-rule="evenodd" d="M427.772 146.406L420.654 142.377V158.314L427.772 162.344V146.406Z" fill="#133492"/>
<path fill-rule="evenodd" clip-rule="evenodd" d="M438.211 151.111L431.093 147.131V164.545L438.211 168.525V151.111Z" fill="#A4BAFA"/>
<path fill-rule="evenodd" clip-rule="evenodd" d="M449.599 153.017L442.482 149.033V170.721L449.599 174.705V153.017Z" fill="#264EBF"/>
<path fill-rule="evenodd" clip-rule="evenodd" d="M391.708 229.852L377.473 221.771L363.237 229.852L377.473 237.934L391.708 229.852Z" fill="#163DAB"/>
<path fill-rule="evenodd" clip-rule="evenodd" d="M361.814 212.738L347.578 204.656L333.343 212.738L347.578 220.82L361.814 212.738Z" fill="#163DAB"/>
<path fill-rule="evenodd" clip-rule="evenodd" d="M331.919 196.099L317.683 188.016L303.448 196.099L317.683 204.18L331.919 196.099Z" fill="#163DAB"/>
<path fill-rule="evenodd" clip-rule="evenodd" d="M347.578 169.825L333.817 161.869V204.305L347.578 212.262V169.825Z" fill="#3D66DD"/>
<path fill-rule="evenodd" clip-rule="evenodd" d="M347.578 212.262V169.825L361.339 161.869V204.305L347.578 212.262Z" fill="#355BCB"/>
<path fill-rule="evenodd" clip-rule="evenodd" d="M347.578 154.984L333.817 162.888L347.578 169.895L361.339 161.869L347.578 154.984Z" fill="#698EFC"/>
<path fill-rule="evenodd" clip-rule="evenodd" d="M376.998 229.852V205.964L390.759 198V221.89L376.998 229.852Z" fill="#163DAB"/>
<path fill-rule="evenodd" clip-rule="evenodd" d="M376.998 205.964L363.237 198V221.89L376.998 229.852V205.964Z" fill="#355BCB"/>
<path fill-rule="evenodd" clip-rule="evenodd" d="M376.998 189.918L362.763 198.298L376.965 206.125L390.775 198.122L376.998 189.918Z" fill="#698EFC"/>
<path fill-rule="evenodd" clip-rule="evenodd" d="M318.158 196.098V137.109L331.919 129.066V188.054L318.158 196.098Z" fill="#698EFC"/>
<path fill-rule="evenodd" clip-rule="evenodd" d="M318.158 137.109L304.397 129.066V188.054L318.158 196.098V137.109Z" fill="#355BCB"/>
<path fill-rule="evenodd" clip-rule="evenodd" d="M317.683 120.984L303.448 129.066L318.134 137.132L331.919 129.066L317.683 120.984Z" fill="#5589BB"/>
<path fill-rule="evenodd" clip-rule="evenodd" d="M309.786 162.727C309.786 162.727 307.612 161.562 306.277 163.297C304.942 165.032 303.034 169.127 302.975 171.894C302.916 174.662 305.035 174.475 306.295 173.82C307.555 173.166 311.236 167.49 311.459 166.379C311.681 165.267 311.195 163.763 310.841 163.469C310.488 163.175 309.786 162.727 309.786 162.727Z" fill="#2147B2"/>
<path fill-rule="evenodd" clip-rule="evenodd" d="M310.462 161.442L310.565 163.712C310.586 164.195 310.342 164.655 309.92 164.894C309.536 165.11 308.978 165.277 308.223 165.156C306.565 164.891 306.416 164.419 306.298 162.15C306.179 159.88 310.462 161.442 310.462 161.442Z" fill="#D4EAF2"/>
<path fill-rule="evenodd" clip-rule="evenodd" d="M301.244 157.973C301.244 157.973 299.07 156.808 297.736 158.542C296.401 160.278 294.493 164.373 294.433 167.14C294.375 169.908 296.493 169.721 297.754 169.066C299.014 168.411 302.695 162.736 302.917 161.625C303.14 160.513 302.655 159.009 302.301 158.714C301.946 158.421 301.244 157.973 301.244 157.973Z" fill="#2147B2"/>
<path fill-rule="evenodd" clip-rule="evenodd" d="M302.396 157.163L302.498 159.433C302.519 159.916 302.275 160.376 301.853 160.614C301.469 160.832 300.91 160.998 300.156 160.878C298.498 160.612 298.35 160.14 298.231 157.871C298.113 155.601 302.396 157.163 302.396 157.163Z" fill="#D4EAF2"/>
<path fill-rule="evenodd" clip-rule="evenodd" d="M322.855 113.602C322.176 102.598 310.893 115.22 310.893 115.22L303.171 122.761L296.218 130.37C294.86 131.857 294.228 133.864 294.491 135.856L297.303 157.194C297.442 158.248 298.348 159.025 299.414 159.016C299.715 159.014 300.061 158.987 300.456 158.926C302.966 158.536 302.78 156.16 302.78 156.16L302.266 136.202L316.87 127.432C316.87 127.432 323.533 124.605 322.855 113.602Z" fill="#263764"/>
<path fill-rule="evenodd" clip-rule="evenodd" d="M330.922 117.405C330.243 106.402 318.96 119.023 318.96 119.023L311.237 126.565L304.285 134.174C302.926 135.66 302.295 137.667 302.558 139.659L305.371 160.997C305.509 162.051 306.414 162.829 307.481 162.82C307.783 162.818 308.128 162.79 308.523 162.729C311.032 162.339 310.847 159.963 310.847 159.963L310.333 140.006L324.937 131.236C324.937 131.236 331.599 128.408 330.922 117.405Z" fill="#263764"/>
<path fill-rule="evenodd" clip-rule="evenodd" d="M324.556 82.2825C333.038 85.8408 332.868 90.9137 332.868 90.9137C332.868 90.9137 331.207 109.513 331.774 121.936C332.011 127.129 304.509 127.525 308.61 113.672C313.446 97.3368 311.633 84.113 313.897 82.1179C316.161 80.1237 322.362 81.3627 324.556 82.2825Z" fill="#2147B2"/>
<path fill-rule="evenodd" clip-rule="evenodd" d="M327.098 86.902C326.659 88.6368 324.424 89.5506 322.107 88.9433C319.79 88.3369 318.269 86.4392 318.708 84.7045C319.148 82.9698 321.382 82.056 323.699 82.6632C326.016 83.2704 327.538 85.1682 327.098 86.902Z" fill="#F3BCA9"/>
<path fill-rule="evenodd" clip-rule="evenodd" d="M322.25 82.8291C320.666 82.8291 319.342 83.5809 319.036 84.7886C318.647 86.3301 320.065 88.0393 322.196 88.6001C324.326 89.1575 326.379 88.361 326.768 86.8187C326.95 86.0961 326.739 85.3065 326.17 84.596C325.572 83.8493 324.663 83.285 323.608 83.0081C323.147 82.8868 322.688 82.8291 322.25 82.8291ZM323.534 89.6066C323.035 89.6066 322.515 89.542 321.992 89.4044C319.426 88.7309 317.746 86.5667 318.247 84.5813C318.748 82.596 321.242 81.5268 323.812 82.2029C325.034 82.5238 326.095 83.187 326.802 84.0704C327.538 84.9908 327.807 86.0411 327.558 87.0269C327.158 88.6079 325.493 89.6066 323.534 89.6066Z" fill="#FFFFFE"/>
<path fill-rule="evenodd" clip-rule="evenodd" d="M320.603 81.8701C320.603 81.8701 320.675 82.2269 320.531 85.0435C320.485 85.9284 323.406 86.7554 324.162 85.9539C324.917 85.1525 324.615 84.3194 324.796 81.306C324.977 78.2917 320.603 81.8701 320.603 81.8701Z" fill="#F3BCA9"/>
<path fill-rule="evenodd" clip-rule="evenodd" d="M324.801 81.5246C324.801 81.5246 324.082 84.2737 320.531 85.3279L320.585 82.8295L324.801 81.5246Z" fill="#E09689"/>
<path fill-rule="evenodd" clip-rule="evenodd" d="M327.443 74.9269C328.328 78.3579 326.269 81.8582 322.846 82.7451C319.421 83.6319 315.927 81.5698 315.042 78.1387C314.156 74.7076 316.214 71.2073 319.639 70.3205C323.064 69.4337 326.557 71.4958 327.443 74.9269Z" fill="#F3BCA9"/>
<path fill-rule="evenodd" clip-rule="evenodd" d="M322.903 76.543C322.903 76.543 319.313 78.177 316.827 78.1966C314.34 78.2144 314.888 76.0027 314.888 76.0027L322.268 74.8688L322.903 76.543Z" fill="#E09689"/>
<path fill-rule="evenodd" clip-rule="evenodd" d="M316.055 76.3892C316.055 76.3892 319.169 75.098 321.901 75.6365C322.543 75.7628 323.138 76.0984 323.552 76.5954C323.687 76.7567 323.858 76.9041 324.051 76.9473C324.536 77.0548 325.328 75.0915 326.271 75.0467C327.212 75.0019 327.84 75.6528 327.068 76.8609C326.296 78.0674 326.557 79.419 326.913 79.6137C327.267 79.8067 331.035 76.988 327.712 70.5563C324.388 64.1254 315.946 67.5893 314.632 68.8919C314.632 68.8919 313.249 70.0699 312.124 69.0223C312.124 69.0223 310.863 78.2491 316.055 76.3892Z" fill="#142F7E"/>
<path fill-rule="evenodd" clip-rule="evenodd" d="M327.873 104.33V109.316C327.873 109.887 327.628 110.432 327.196 110.817L316.735 120.155L317.924 121.934L331.74 112.125C332.385 111.667 332.8 110.962 332.883 110.187L333.817 101.492L327.873 104.33Z" fill="#F3BCA9"/>
<path fill-rule="evenodd" clip-rule="evenodd" d="M332.201 88.1803C332.201 88.1803 335.453 92.8658 336.664 105.202C336.664 105.202 331.11 106.923 327.956 105.945C324.804 104.968 332.201 88.1803 332.201 88.1803Z" fill="#163EAE"/>
<path fill-rule="evenodd" clip-rule="evenodd" d="M328.598 94.3607C328.598 94.3607 327.251 101.115 327.175 104.289C327.154 105.162 327.722 105.95 328.598 106.246V94.3607Z" fill="#123494"/>
<path fill-rule="evenodd" clip-rule="evenodd" d="M324.801 127.024L322.506 126.726L307.695 118.313C307.219 118.044 306.39 118.077 305.842 118.389L295.345 124.348L293.958 124.168V125.526H293.96C293.95 125.706 294.053 125.878 294.278 126.005L311.065 135.539C311.54 135.809 312.369 135.775 312.918 135.464L324.348 128.973C324.656 128.799 324.81 128.573 324.801 128.361V127.024Z" fill="#5589BB"/>
<path fill-rule="evenodd" clip-rule="evenodd" d="M313.888 121.586L312.824 120.984H301.128L295.361 124.249L293.958 124.068V125.438H293.96C293.95 125.62 294.054 125.793 294.281 125.921L311.253 135.538C311.507 135.682 311.86 135.74 312.219 135.716L313.888 121.586Z" fill="#3B6397"/>
<path fill-rule="evenodd" clip-rule="evenodd" d="M294.234 124.406L293.207 124.311V125.922H293.21C293.194 126.135 293.366 126.339 293.74 126.489L294.234 126.689V124.406Z" fill="#5589BB"/>
<path fill-rule="evenodd" clip-rule="evenodd" d="M311.04 135.622C311.583 135.781 312.358 135.747 312.938 135.531V133.344H311.04V135.622Z" fill="#FFFFFE"/>
<path fill-rule="evenodd" clip-rule="evenodd" d="M311.065 133.637L294.278 124.061C293.803 123.791 293.864 123.318 294.411 123.005L305.842 116.488C306.39 116.175 307.22 116.142 307.695 116.412L324.481 125.986C324.955 126.257 324.896 126.73 324.348 127.043L312.918 133.561C312.369 133.874 311.54 133.908 311.065 133.637Z" fill="#FFFFFE"/>
<path fill-rule="evenodd" clip-rule="evenodd" d="M311.052 133.19L297.072 125.086C296.676 124.856 296.726 124.456 297.182 124.191L303.317 120.727C303.774 120.463 304.465 120.434 304.861 120.663L318.84 128.768C319.236 128.996 319.186 129.397 318.729 129.662L312.595 133.125C312.138 133.39 311.448 133.419 311.052 133.19Z" fill="#D4EAF2"/>
<path fill-rule="evenodd" clip-rule="evenodd" d="M306.568 116.793L306.391 117.915C306.242 118.87 306.267 119.845 306.467 120.792L306.677 121.781C306.795 122.339 307.256 122.771 307.841 122.872C308.298 122.953 308.73 122.645 308.782 122.204L309.062 119.804C309.062 119.804 309.703 120.609 310.013 120.609C310.322 120.609 309.666 118.208 308.966 116.848C308.265 115.489 306.568 116.793 306.568 116.793Z" fill="#F3BCA9"/>
<path fill-rule="evenodd" clip-rule="evenodd" d="M312.464 97.917L310.7 101.545C310.283 102.401 310.037 103.339 309.978 104.298L309.211 116.705L306.89 116.648L305.836 102.714C305.803 102.284 305.823 101.851 305.896 101.426L307.1 94.3607L312.464 97.917Z" fill="#F3BCA9"/>
<path fill-rule="evenodd" clip-rule="evenodd" d="M310.436 135.246L309.066 133.419L294.66 124.895C294.197 124.622 293.824 123.89 293.824 123.26L293.838 111.208L293.009 110.102L293.787 109.642L293.788 109.643C293.937 109.545 294.135 109.547 294.353 109.676L310.68 119.336C311.141 119.61 311.516 120.341 311.515 120.971L311.501 134.097C311.501 134.452 311.381 134.698 311.196 134.797L310.436 135.246Z" fill="#263764"/>
<path fill-rule="evenodd" clip-rule="evenodd" d="M300.089 127.639L299.052 127.041L293.366 117.186L293.373 110.713L292.534 109.621L293.322 109.166L293.323 109.167C293.474 109.07 293.674 109.072 293.895 109.2L310.418 118.746C310.665 118.888 310.886 119.158 311.04 119.472L300.089 127.639Z" fill="#3B6397"/>
<path fill-rule="evenodd" clip-rule="evenodd" d="M292.488 110.525L292.06 109.837L292.965 109.194L292.966 109.195C293.14 109.058 293.37 109.061 293.624 109.242L293.958 109.48L292.488 110.525Z" fill="#5589BB"/>
<path fill-rule="evenodd" clip-rule="evenodd" d="M310.354 119.082C310.719 119.39 311.001 119.969 311.04 120.506L309.437 121.459L308.668 120.084L310.354 119.082Z" fill="#2B4876"/>
<path fill-rule="evenodd" clip-rule="evenodd" d="M309.73 119.783L293.386 110.152C292.924 109.879 292.548 110.168 292.548 110.796L292.534 123.882C292.533 124.51 292.908 125.239 293.371 125.513L309.714 135.143C310.175 135.416 310.551 135.127 310.552 134.499L310.566 121.413C310.567 120.785 310.193 120.056 309.73 119.783Z" fill="#2147B2"/>
<path fill-rule="evenodd" clip-rule="evenodd" d="M318.633 122.158L318.356 122.668C318.037 123.255 317.536 123.747 316.913 124.089L315.197 125.029C314.664 125.321 313.988 125.345 313.446 125.065L313.387 125.034C312.843 124.73 312.793 124.035 313.241 123.625L315.034 121.987C315.034 121.987 314.028 122.673 313.746 122.397C313.538 122.194 314.722 121.207 315.63 121.174C316.539 121.142 317.418 120.508 317.418 120.508L318.633 122.158Z" fill="#F3BCA9"/>
<path fill-rule="evenodd" clip-rule="evenodd" d="M313.442 82C313.442 82 306.997 88.8221 304.397 95.0801C304.397 95.0801 306.601 98.9434 311.997 100.459C317.392 101.975 313.442 82 313.442 82Z" fill="#163EAE"/>
<path fill-rule="evenodd" clip-rule="evenodd" d="M311.932 100.066L312.939 90.082L310.566 99.4357C310.989 99.6616 311.446 99.8721 311.932 100.066Z" fill="#123494"/>
<path fill-rule="evenodd" clip-rule="evenodd" d="M318.412 80.1555L316.735 79.6229C316.735 79.6229 317.536 81.0789 318.704 81.4504C319.874 81.8218 320.056 80.6775 320.056 80.6775L318.412 80.1555Z" fill="#FFFFFE"/>
<path fill-rule="evenodd" clip-rule="evenodd" d="M291.818 273.608C286.579 276.638 278.086 276.638 272.846 273.608C267.608 270.579 267.608 265.667 272.846 262.637C278.085 259.607 286.578 259.608 291.818 262.637C297.057 265.667 297.057 270.58 291.818 273.608ZM302.967 256.19C291.571 249.598 273.093 249.598 261.697 256.189C250.3 262.78 250.3 273.467 261.697 280.057C273.093 286.647 291.572 286.648 302.968 280.057C314.364 273.467 314.364 262.78 302.967 256.19Z" fill="#9CB7FF"/>
<path fill-rule="evenodd" clip-rule="evenodd" d="M268.114 252.672C268.887 251.65 269.983 250.691 271.411 249.852C277.152 246.48 286.18 246.219 292.436 249.066L298.64 243.129L308.193 243.281C307.721 242.967 307.236 242.658 306.725 242.357C293.448 234.559 271.823 233.465 258.547 241.262C256.106 242.697 254.218 245.388 252.675 247.09L257.672 252.507L268.114 252.672Z" fill="#0F3090"/>
<path fill-rule="evenodd" clip-rule="evenodd" d="M308.193 243.164L298.703 243.015V227.951L308.193 228.062V243.164Z" fill="#3C68E9"/>
<path fill-rule="evenodd" clip-rule="evenodd" d="M292.534 233.288V248.393L298.703 242.58V227.475L292.534 233.288Z" fill="#0F3090"/>
<path fill-rule="evenodd" clip-rule="evenodd" d="M268.374 252.197L282.018 241.073L292.534 248.673V233.603L282.851 228.902C282.851 228.902 269.519 232.986 268.826 233.159C268.133 233.332 268.374 237.127 268.374 237.127V252.197Z" fill="#0F3090"/>
<path fill-rule="evenodd" clip-rule="evenodd" d="M257.895 252.036L268.334 252.197V237.145L257.895 236.984V252.036Z" fill="#0F3090"/>
<path fill-rule="evenodd" clip-rule="evenodd" d="M253.149 231.754V246.884L257.895 252.197V237.068L253.149 231.754Z" fill="#3C68E9"/>
<path fill-rule="evenodd" clip-rule="evenodd" d="M268.378 237.459C269.151 236.437 270.458 235.477 271.886 234.638C277.627 231.266 286.655 231.006 292.91 233.852L298.703 228.068H308.193C307.721 227.754 306.57 227.097 306.058 226.796C292.782 218.999 272.399 219.346 259.122 227.143C256.682 228.577 254.692 230.176 253.149 231.877L257.895 237.294L268.378 237.459Z" fill="#86A3F7"/>
<path fill-rule="evenodd" clip-rule="evenodd" d="M295.381 235.557V249.344L303.923 247.203C303.923 247.203 303.421 239.135 303.24 238.92C303.057 238.704 295.381 235.557 295.381 235.557Z" fill="#486CD6"/>
<path fill-rule="evenodd" clip-rule="evenodd" d="M288.738 249.82V264.945L289.683 265.984L295.856 262.318C295.856 262.318 294.899 250.772 294.786 250.54C294.673 250.309 288.738 249.82 288.738 249.82Z" fill="#0F3090"/>
<path fill-rule="evenodd" clip-rule="evenodd" d="M295.234 250.624C299.874 254.185 299.325 259.207 293.586 262.422C292.014 263.304 290.199 263.965 288.264 264.41L294.019 270.361L289.213 274.802C295.688 274.076 301.573 272.524 306.594 269.711C318.225 263.193 319.847 253.197 311.48 245.702L300.803 245.541L295.234 250.624Z" fill="#3156C4"/>
<path fill-rule="evenodd" clip-rule="evenodd" d="M289.213 274.792L301.707 270.221L316.735 255.972L316.677 239.836L300.78 252.36L289.213 260.053V274.792Z" fill="#325ACE"/>
<path fill-rule="evenodd" clip-rule="evenodd" d="M295.234 235.886C299.874 239.447 299.325 244.47 293.586 247.685C292.014 248.566 290.585 249.313 288.65 249.757L294.019 255.623L288.919 260.279C295.395 259.553 301.573 257.787 306.594 254.973C318.225 248.455 319.847 238.459 311.48 230.965L300.803 230.803L295.234 235.886Z" fill="#6285EC"/>
<path fill-rule="evenodd" clip-rule="evenodd" d="M284.69 265.114C280.05 265.393 275.239 264.52 271.683 262.493C268.01 260.399 266.498 257.541 267.14 254.817L255.239 254.634L250.663 249.82C246.661 256.603 249.39 264.394 258.87 269.797C265.835 273.768 274.527 276.059 283.651 275.88L289.687 270.371L284.69 265.114Z" fill="#2C56CE"/>
<path fill-rule="evenodd" clip-rule="evenodd" d="M283.518 275.875L248.879 256.453V241.262L254.006 243.342L283.993 260.784L283.518 275.875Z" fill="#2C56CE"/>
<path fill-rule="evenodd" clip-rule="evenodd" d="M289.213 255.525V270.781L283.518 275.967V260.711L289.213 255.525Z" fill="#0F3090"/>
<path fill-rule="evenodd" clip-rule="evenodd" d="M289.213 255.634L284.215 250.376C279.576 250.654 274.765 249.782 271.208 247.756C267.536 245.661 266.023 242.803 266.666 240.079L254.765 239.897L250.188 235.082C246.186 241.865 248.916 249.655 258.395 255.059C265.36 259.03 274.587 260.921 283.712 260.743L289.213 255.634Z" fill="#4A73E5"/>
<path fill-rule="evenodd" clip-rule="evenodd" d="M281.383 93.3228C277.803 93.3228 274.891 96.2408 274.891 99.8279C274.891 103.415 277.803 106.333 281.383 106.333C284.964 106.333 287.875 103.415 287.875 99.8279C287.875 96.2408 284.964 93.3228 281.383 93.3228ZM281.383 108.148C276.804 108.148 273.079 104.416 273.079 99.8279C273.079 95.24 276.804 91.5082 281.383 91.5082C285.963 91.5082 289.687 95.24 289.687 99.8279C289.687 104.416 285.963 108.148 281.383 108.148Z" fill="#698EFC"/>
<path fill-rule="evenodd" clip-rule="evenodd" d="M233.932 211.238C231.667 211.238 229.824 213.084 229.824 215.353C229.824 217.621 231.667 219.467 233.932 219.467C236.196 219.467 238.038 217.621 238.038 215.353C238.038 213.084 236.196 211.238 233.932 211.238ZM233.932 221.295C230.661 221.295 228 218.629 228 215.353C228 212.076 230.661 209.41 233.932 209.41C237.202 209.41 239.863 212.076 239.863 215.353C239.863 218.629 237.202 221.295 233.932 221.295Z" fill="#355BCB"/>
<path fill-rule="evenodd" clip-rule="evenodd" d="M267.954 148.72L270.394 153.693L275.357 151.247L272.916 146.275L267.954 148.72ZM269.553 156.164L265.487 147.877L273.757 143.803L277.824 152.09L269.553 156.164Z" fill="#163DAB"/>
<path fill-rule="evenodd" clip-rule="evenodd" d="M468.58 71.5627L464.763 73.4426L462.886 69.6185L466.704 67.7377L468.58 71.5627Z" fill="#BEDFFE"/>
<path fill-rule="evenodd" clip-rule="evenodd" d="M456.243 28.0402C456.243 30.2726 454.437 32.082 452.209 32.082C449.982 32.082 448.176 30.2726 448.176 28.0402C448.176 25.8086 449.982 24 452.209 24C454.437 24 456.243 25.8086 456.243 28.0402Z" fill="#A4BAFA"/>
<path fill-rule="evenodd" clip-rule="evenodd" d="M343.782 264.082C343.782 265.395 342.72 266.459 341.409 266.459C340.099 266.459 339.037 265.395 339.037 264.082C339.037 262.769 340.099 261.705 341.409 261.705C342.72 261.705 343.782 262.769 343.782 264.082Z" fill="#D4EAF2"/>
<path fill-rule="evenodd" clip-rule="evenodd" d="M442.482 263.369C442.482 266.126 440.25 268.361 437.499 268.361C434.747 268.361 432.517 266.126 432.517 263.369C432.517 260.612 434.747 258.377 437.499 258.377C440.25 258.377 442.482 260.612 442.482 263.369Z" fill="#D4EAF2"/>
<path fill-rule="evenodd" clip-rule="evenodd" d="M262.129 167.543L243.984 157.281C243.624 157.078 243.299 157.07 243.045 157.207L243.046 157.195L241.286 158.192C241.286 158.192 242.065 158.47 242.523 158.635V171.579C242.523 172.632 243.177 173.856 243.984 174.311L261.328 184.12V185.639L263.105 184.635L263.095 184.632C263.396 184.453 263.589 184.059 263.589 183.493V170.275C263.589 169.223 262.935 167.999 262.129 167.543Z" fill="#5277D9"/>
<path fill-rule="evenodd" clip-rule="evenodd" d="M260.717 185.938L242.734 175.345C241.935 174.875 241.286 173.612 241.286 172.525V158.883C241.286 157.796 241.935 157.296 242.734 157.768L260.717 168.359C261.517 168.83 262.165 170.093 262.165 171.18V184.822C262.165 185.909 261.517 186.408 260.717 185.938Z" fill="#9CB7FF"/>
<path fill-rule="evenodd" clip-rule="evenodd" d="M248.879 171.408C248.879 172.23 248.347 172.563 247.692 172.152C247.037 171.741 246.506 170.743 246.506 169.92C246.506 169.098 247.037 168.765 247.692 169.176C248.347 169.587 248.879 170.586 248.879 171.408Z" fill="#FFFFFE"/>
<path fill-rule="evenodd" clip-rule="evenodd" d="M252.675 173.309C252.675 174.132 252.144 174.464 251.489 174.054C250.834 173.643 250.302 172.643 250.302 171.822C250.302 171 250.834 170.667 251.489 171.078C252.144 171.488 252.675 172.488 252.675 173.309Z" fill="#FFFFFE"/>
<path fill-rule="evenodd" clip-rule="evenodd" d="M256.471 175.687C256.471 176.508 255.94 176.842 255.285 176.43C254.63 176.019 254.098 175.021 254.098 174.199C254.098 173.377 254.63 173.044 255.285 173.454C255.94 173.866 256.471 174.864 256.471 175.687Z" fill="#FFFFFE"/>
<path fill-rule="evenodd" clip-rule="evenodd" d="M433.904 45.8387L415.759 35.5767C415.4 35.3723 415.074 35.3656 414.82 35.5027L414.822 35.4909L413.062 36.4873C413.062 36.4873 413.841 36.7657 414.298 36.9296V49.8741C414.298 50.9269 414.952 52.1504 415.759 52.607L433.102 62.4167V63.9344L434.88 62.9321L434.87 62.9288C435.171 62.7488 435.364 62.3544 435.364 61.7877V48.5716C435.364 47.518 434.71 46.2945 433.904 45.8387Z" fill="#6592BD"/>
<path fill-rule="evenodd" clip-rule="evenodd" d="M432.019 64.2325L414.034 53.6407C413.234 53.1703 412.587 51.9075 412.587 50.82V37.1784C412.587 36.091 413.234 35.5919 414.034 36.0623L432.019 46.655C432.817 47.1254 433.466 48.3882 433.466 49.4748V63.1173C433.466 64.203 432.817 64.7038 432.019 64.2325Z" fill="#BEDFFE"/>
<path fill-rule="evenodd" clip-rule="evenodd" d="M420.179 48.752C420.179 49.5742 419.649 49.9066 418.994 49.4964C418.337 49.0854 417.807 48.0852 417.807 47.2639C417.807 46.4426 418.337 46.1092 418.994 46.5203C419.649 46.9305 420.179 47.9298 420.179 48.752Z" fill="#FFFFFE"/>
<path fill-rule="evenodd" clip-rule="evenodd" d="M423.975 51.1295C423.975 51.9508 423.444 52.2842 422.789 51.8731C422.134 51.462 421.603 50.4628 421.603 49.6406C421.603 48.8193 422.134 48.4868 422.789 48.897C423.444 49.3081 423.975 50.3083 423.975 51.1295Z" fill="#FFFFFE"/>
<path fill-rule="evenodd" clip-rule="evenodd" d="M427.772 53.0307C427.772 53.8528 427.241 54.1853 426.586 53.7751C425.93 53.364 425.399 52.3648 425.399 51.5426C425.399 50.7213 425.93 50.3879 426.586 50.799C427.241 51.2092 427.772 52.2094 427.772 53.0307Z" fill="#FFFFFE"/>
<path fill-rule="evenodd" clip-rule="evenodd" d="M432.991 269.787L443.43 263.607L453.87 269.787L443.43 275.967L432.991 269.787Z" fill="#9CB7FF"/>
<path fill-rule="evenodd" clip-rule="evenodd" d="M454.819 256.475L465.258 250.295L475.698 256.475L465.258 262.656L454.819 256.475Z" fill="#9CB7FF"/>
<path fill-rule="evenodd" clip-rule="evenodd" d="M476.647 243.639L487.086 237.459L497.525 243.639L487.086 249.82L476.647 243.639Z" fill="#9CB7FF"/>
<path fill-rule="evenodd" clip-rule="evenodd" d="M465.258 256.475V223.647L454.819 217.492V250.32L465.258 256.475Z" fill="#AF3C2B"/>
<path fill-rule="evenodd" clip-rule="evenodd" d="M465.258 223.647L475.698 217.492V250.32L465.258 256.475V223.647Z" fill="#698DF0"/>
<path fill-rule="evenodd" clip-rule="evenodd" d="M465.258 256.475V223.647L454.819 217.492V250.32L465.258 256.475Z" fill="#9CB7FF"/>
<path fill-rule="evenodd" clip-rule="evenodd" d="M443.431 269.787V251.602L432.991 245.541V263.726L443.431 269.787Z" fill="#9CB7FF"/>
<path fill-rule="evenodd" clip-rule="evenodd" d="M443.431 251.602L453.87 245.541V263.726L443.431 269.787V251.602Z" fill="#698DF0"/>
<path fill-rule="evenodd" clip-rule="evenodd" d="M432.991 245.541L443.43 239.361L453.87 245.541L443.43 251.721L432.991 245.541Z" fill="#B2C6FB"/>
<path fill-rule="evenodd" clip-rule="evenodd" d="M487.561 243.639V199.293L477.121 193.246V237.592L487.561 243.639Z" fill="#9CB7FF"/>
<path fill-rule="evenodd" clip-rule="evenodd" d="M487.561 199.293L498 193.246V237.592L487.561 243.639V199.293Z" fill="#698DF0"/>
<path fill-rule="evenodd" clip-rule="evenodd" d="M477.121 193.246L487.561 187.066L498 193.246L487.561 199.426L477.121 193.246Z" fill="#B2C6FB"/>
<path fill-rule="evenodd" clip-rule="evenodd" d="M454.819 217.492L465.258 211.311L475.698 217.492L465.258 223.672L454.819 217.492Z" fill="#B2C6FB"/>
<path fill-rule="evenodd" clip-rule="evenodd" d="M416.849 294.758L412.163 276.101L397.845 288.948L416.849 294.758ZM413.503 291.268L402.57 287.926L410.807 280.535L413.503 291.268Z" fill="#4C71DD"/>
<path fill-rule="evenodd" clip-rule="evenodd" d="M510.766 104.064L501.662 94.4774L497.245 106.938L510.766 104.064ZM507.559 103.096L499.781 104.749L502.322 97.5806L507.559 103.096Z" fill="#4C71DD"/>
<path fill-rule="evenodd" clip-rule="evenodd" d="M212.731 137.806L222.737 132.571L223.206 143.854L212.731 137.806ZM215.638 137.907L221.665 141.387L221.395 134.896L215.638 137.907Z" fill="#4C71DD"/>
<path fill-rule="evenodd" clip-rule="evenodd" d="M478.805 53.6285L484.683 49.4585L486.014 56.5414L478.805 53.6285ZM480.661 53.4413L484.809 55.1171L484.043 51.0423L480.661 53.4413Z" fill="#4C71DD"/>
<path fill-rule="evenodd" clip-rule="evenodd" d="M234.984 242.795L239.97 241.994L238.316 246.766L234.984 242.795ZM236.167 243.239L238.084 245.524L239.035 242.778L236.167 243.239Z" fill="#4C71DD"/>
<path fill-rule="evenodd" clip-rule="evenodd" d="M405.91 255.59L400.031 251.42L398.7 258.503L405.91 255.59ZM404.053 255.403L399.905 257.079L400.671 253.004L404.053 255.403Z" fill="#4C71DD"/>
<path fill-rule="evenodd" clip-rule="evenodd" d="M232.936 254.256L225.896 252.715L227.438 259.755L232.936 254.256ZM231.154 254.81L227.991 257.973L227.104 253.923L231.154 254.81Z" fill="#4C71DD"/>
<path fill-rule="evenodd" clip-rule="evenodd" d="M343.171 126.022L336.059 124.851L337.968 131.801L343.171 126.022ZM341.42 126.668L338.427 129.992L337.329 125.994L341.42 126.668Z" fill="#4C71DD"/>
<path fill-rule="evenodd" clip-rule="evenodd" d="M207.997 243.911L215.145 242.988L212.995 249.867L207.997 243.911ZM209.724 244.617L212.599 248.044L213.836 244.086L209.724 244.617Z" fill="#4C71DD"/>
<path fill-rule="evenodd" clip-rule="evenodd" d="M242.774 113.846L243.255 102.79L252.691 108.573L242.774 113.846ZM244.239 111.521L249.944 108.487L244.516 105.16L244.239 111.521Z" fill="#4C71DD"/>
<path fill-rule="evenodd" clip-rule="evenodd" d="M422.474 275.556L428.743 266.437L417.727 265.377L422.474 275.556ZM422.703 272.818L419.973 266.961L426.31 267.571L422.703 272.818Z" fill="#4C71DD"/>
<defs>
<radialGradient id="paint0_radial" cx="0" cy="0" r="1" gradientUnits="userSpaceOnUse" gradientTransform="translate(368.454 188.161) rotate(90) scale(347.171 577)">
<stop stop-color="#DCE8FE"/>
<stop offset="1" stop-color="#DCE8FE" stop-opacity="0.01"/>
</radialGradient>
</defs>
</svg>
