<svg width="458" height="353" viewBox="0 0 458 353" fill="none" xmlns="http://www.w3.org/2000/svg">
<path opacity="0.896275" fill-rule="evenodd" clip-rule="evenodd" d="M454.281 211.226C446.357 189.155 433.878 182.438 422.008 168.283C407.513 150.992 397.735 138.424 401.498 116.185C407.649 79.8448 410.282 -10.7871 313.977 1.0596C279.459 5.30667 252.183 31.7304 232.34 58.1087C215.454 80.5524 185.081 82.5324 160.632 87.7648C130.594 94.1935 99.9963 103.907 72.2037 118.137C14.9665 147.443 -2.12873 189.572 0.206143 243.477C0.910481 259.761 3.21863 285.415 30.7573 315.431C67.9255 355.945 121.938 361.371 186.945 342.764C201.826 338.505 215.891 331.825 230.53 326.797C245.737 321.573 261.56 318.14 277.567 316.594C291.177 315.279 304.968 315.311 318.735 315.342C342.736 315.397 366.662 315.45 389.424 308.374C408.363 302.486 425.756 291.71 439.452 277.378C456.561 259.478 462.645 234.522 454.281 211.226Z" fill="#F2F7FF"/>
<path fill-rule="evenodd" clip-rule="evenodd" d="M30.4861 294.522C30.4861 299.804 98.0956 304.09 181.504 304.09C264.901 304.09 332.511 299.804 332.511 294.522C332.511 289.236 264.901 284.952 181.504 284.952C98.0956 284.952 30.4861 289.236 30.4861 294.522Z" fill="#B5C9FF"/>
<path fill-rule="evenodd" clip-rule="evenodd" d="M122.653 306.571C122.653 309.899 105.513 312.596 84.3684 312.596C63.2244 312.596 46.0836 309.899 46.0836 306.571C46.0836 303.243 63.2244 300.546 84.3684 300.546C105.513 300.546 122.653 303.243 122.653 306.571Z" fill="#B5C9FF"/>
<path fill-rule="evenodd" clip-rule="evenodd" d="M441.693 307.281C441.693 309.825 412.967 311.888 377.531 311.888C342.095 311.888 313.368 309.825 313.368 307.281C313.368 304.736 342.095 302.673 377.531 302.673C412.967 302.673 441.693 304.736 441.693 307.281Z" fill="#B5C9FF"/>
<path fill-rule="evenodd" clip-rule="evenodd" d="M45.6894 229.018L43.2477 262.978H75.8607L73.6131 228.954L45.6894 229.018Z" fill="#86A2F3"/>
<path fill-rule="evenodd" clip-rule="evenodd" d="M53.5266 230.777C53.1286 230.778 52.8072 231.075 52.8072 231.435C52.8084 231.799 53.1311 232.093 53.5279 232.093H53.5291C53.9272 232.09 54.2498 231.795 54.2486 231.434C54.2473 231.07 53.9246 230.777 53.5279 230.777H53.5266ZM52.4644 231.437C52.4632 230.852 52.939 230.373 53.5254 230.371H53.5266C54.113 230.371 54.5901 230.846 54.5913 231.432C54.5926 232.017 54.1167 232.496 53.5304 232.498H53.5291C52.9428 232.498 52.4657 232.023 52.4644 231.437Z" fill="#E9E3EB"/>
<path fill-rule="evenodd" clip-rule="evenodd" d="M64.869 230.777C64.6455 230.778 64.4383 230.872 64.3002 231.037C64.2324 231.117 64.1508 231.252 64.1508 231.436C64.1533 231.799 64.476 232.093 64.8728 232.093H64.874C65.0724 232.093 65.2582 232.018 65.3963 231.885C65.5231 231.761 65.5922 231.601 65.5922 231.433C65.5909 231.071 65.2695 230.777 64.8728 230.777H64.869ZM63.808 231.438L63.9801 231.436L63.808 231.438C63.808 231.185 63.8959 230.942 64.0566 230.749C64.2588 230.51 64.5551 230.371 64.869 230.371H64.8728C65.4579 230.371 65.9337 230.845 65.935 231.432C65.9362 231.724 65.822 231.996 65.6135 232.198C65.4152 232.391 65.1528 232.498 64.874 232.498H64.8728C64.2877 232.498 63.8093 232.023 63.808 231.438Z" fill="#E9E3EB"/>
<path fill-rule="evenodd" clip-rule="evenodd" d="M58.1584 238.169L58.4797 238.164C60.5409 238.097 62.1142 237.455 63.1542 236.255C64.8741 234.27 64.4848 231.501 64.4674 231.383C64.4381 231.191 64.2514 231.051 64.0555 231.086C63.8555 231.113 63.7168 231.292 63.7448 231.484C63.7488 231.51 64.1035 234.066 62.5915 235.807C61.6916 236.843 60.2983 237.399 58.4544 237.459C56.6691 237.51 55.3372 237.062 54.4519 236.108C52.8439 234.379 53.2399 231.537 53.2439 231.508C53.2719 231.316 53.1333 231.137 52.9333 231.109C52.7413 231.08 52.5493 231.216 52.5213 231.408C52.5026 231.538 52.072 234.598 53.9066 236.576C54.8865 237.634 56.3158 238.169 58.1584 238.169Z" fill="#E9E3EB"/>
<path fill-rule="evenodd" clip-rule="evenodd" d="M61.329 237.526L57.4272 262.978L92.8762 262.895L89.2878 237.46L61.329 237.526Z" fill="#7190EA"/>
<path fill-rule="evenodd" clip-rule="evenodd" d="M47.856 292.306C45.9532 292.306 44.3995 290.768 44.3995 288.85C44.3995 286.948 45.9532 285.396 47.856 285.396C49.7739 285.396 51.3276 286.948 51.3276 288.85C51.3276 290.768 49.7739 292.306 47.856 292.306ZM47.856 281.408C43.7451 281.408 40.4117 284.74 40.4117 288.85C40.4117 292.96 43.7451 296.293 47.856 296.293C51.9669 296.293 55.3003 292.96 55.3003 288.85C55.3003 284.74 51.9669 281.408 47.856 281.408Z" fill="#426ADA"/>
<path fill-rule="evenodd" clip-rule="evenodd" d="M46.4388 292.306C44.5361 292.306 42.9825 290.768 42.9825 288.85C42.9825 286.948 44.5361 285.396 46.4388 285.396C48.3565 285.396 49.9087 286.948 49.9087 288.85C49.9087 290.768 48.3565 292.306 46.4388 292.306ZM46.4388 281.408C42.3283 281.408 38.9938 284.74 38.9938 288.85C38.9938 292.96 42.3283 296.293 46.4388 296.293C50.548 296.293 53.8824 292.96 53.8824 288.85C53.8824 284.74 50.548 281.408 46.4388 281.408Z" fill="#587FED"/>
<path fill-rule="evenodd" clip-rule="evenodd" d="M88.9761 292.306C87.0735 292.306 85.5212 290.768 85.5212 288.85C85.5212 286.948 87.0735 285.396 88.9761 285.396C90.8952 285.396 92.4474 286.948 92.4474 288.85C92.4474 290.768 90.8952 292.306 88.9761 292.306ZM88.9761 281.408C84.867 281.408 81.5325 284.74 81.5325 288.85C81.5325 292.96 84.867 296.293 88.9761 296.293C93.0867 296.293 96.4211 292.96 96.4211 288.85C96.4211 284.74 93.0867 281.408 88.9761 281.408Z" fill="#426ADA"/>
<path fill-rule="evenodd" clip-rule="evenodd" d="M87.5588 292.306C85.656 292.306 84.1036 290.768 84.1036 288.85C84.1036 286.948 85.656 285.396 87.5588 285.396C89.4767 285.396 91.0305 286.948 91.0305 288.85C91.0305 290.768 89.4767 292.306 87.5588 292.306ZM87.5588 281.408C83.4479 281.408 80.1146 284.74 80.1146 288.85C80.1146 292.96 83.4479 296.293 87.5588 296.293C91.6697 296.293 95.0031 292.96 95.0031 288.85C95.0031 284.74 91.6697 281.408 87.5588 281.408Z" fill="#587FED"/>
<path fill-rule="evenodd" clip-rule="evenodd" d="M143.923 199.183H121.93C119.267 199.183 116.793 200.529 115.386 202.743L102.093 223.654L103.806 224.701L117.099 203.789C118.138 202.154 119.965 201.161 121.93 201.161H143.923V199.183Z" fill="#587FED"/>
<path fill-rule="evenodd" clip-rule="evenodd" d="M43.9747 263.396V264.396H92.8567C95.9532 264.396 98.5905 262.157 99.0804 259.116L104.139 227.714C104.193 227.377 104.22 227.041 104.22 226.711C104.218 223.311 101.45 220.452 97.9144 220.448H38.9171C35.3815 220.452 32.613 223.311 32.613 226.711C32.6117 227.041 32.6385 227.377 32.6933 227.714L37.751 259.116C38.241 262.157 40.8783 264.396 43.9747 264.396V262.397C41.8649 262.397 40.067 260.872 39.7337 258.798L34.676 227.398C34.6385 227.165 34.6211 226.936 34.6198 226.711C34.6198 225.557 35.091 224.493 35.8661 223.712C36.6439 222.933 37.7069 222.448 38.9171 222.446H97.9144C99.1246 222.448 100.189 222.933 100.965 223.712C101.74 224.493 102.212 225.557 102.212 226.711C102.212 226.936 102.193 227.165 102.155 227.398L97.0978 258.798C96.7645 260.872 94.9666 262.397 92.8567 262.397H43.9747V263.396Z" fill="#587FED"/>
<path fill-rule="evenodd" clip-rule="evenodd" d="M68.0619 263.687H70.1888V221.157H68.0619V263.687Z" fill="#587FED"/>
<path fill-rule="evenodd" clip-rule="evenodd" d="M36.1579 243.131H100.675V241.004H36.1579V243.131Z" fill="#587FED"/>
<path fill-rule="evenodd" clip-rule="evenodd" d="M86.7894 221.157L82.9504 263.488L84.7845 263.687L88.6223 221.356" fill="#587FED"/>
<path fill-rule="evenodd" clip-rule="evenodd" d="M49.6285 221.341L53.3661 263.687L55.3003 263.504L51.564 221.157" fill="#587FED"/>
<path fill-rule="evenodd" clip-rule="evenodd" d="M96.4272 261.285L104.378 273.292C104.839 273.989 105.038 274.725 105.039 275.451C105.041 276.457 104.642 277.445 103.96 278.17C103.277 278.893 102.342 279.358 101.195 279.36H36.1579V281.408H101.195C102.901 281.41 104.392 280.686 105.421 279.581C106.454 278.479 107.054 277.002 107.056 275.451C107.057 274.335 106.737 273.183 106.052 272.15L98.1007 260.143L96.4272 261.285Z" fill="#587FED"/>
<path fill-rule="evenodd" clip-rule="evenodd" d="M199.932 284.952H267.285V266.522H199.932V284.952Z" fill="#2951C3"/>
<path fill-rule="evenodd" clip-rule="evenodd" d="M337.701 272.902H130.933C124.011 272.902 118.399 267.273 118.399 260.331V118.187C118.399 111.244 124.011 105.616 130.933 105.616H337.701C344.624 105.616 350.235 111.244 350.235 118.187V260.331C350.235 267.273 344.624 272.902 337.701 272.902Z" fill="#3D66DD"/>
<path fill-rule="evenodd" clip-rule="evenodd" d="M132.488 256.598C128.231 256.598 124.78 253.153 124.78 248.903V119.692C124.78 115.442 128.231 111.996 132.488 111.996H335.438C339.694 111.996 343.146 115.442 343.146 119.692V248.903C343.146 253.153 339.694 256.598 335.438 256.598H132.488Z" fill="#D8E7FF"/>
<path fill-rule="evenodd" clip-rule="evenodd" d="M296.353 294.167H171.573V292.602C171.573 287.203 175.965 282.825 181.383 282.825H286.544C291.962 282.825 296.353 287.203 296.353 292.602V294.167Z" fill="#3D66DD"/>
<path fill-rule="evenodd" clip-rule="evenodd" d="M322.997 224.701H292.277V208.404H299.485V205.804H292.277V200.389H299.485V197.789H292.277V182.997H318.69V181.802H292.277V179.284H318.69V178.091H292.277V175.573H318.69V174.38H292.277V171.862H318.69V170.668H292.277V168.149H318.69V166.956H292.277V164.438H318.69V163.245H292.277V160.727H318.69V159.534H292.277V157.016H300.573C300.288 157.235 300.144 157.537 300.241 157.953C300.337 158.363 302.268 159.239 305.065 159.426C305.171 159.434 305.294 159.437 305.427 159.437C306.283 159.437 307.587 159.295 308.258 159.117C309.301 158.84 310.248 158.03 310.248 158.03L310.679 158.606L314.065 157.788C314.065 157.788 314.064 157.483 314.057 157.016H318.69V155.822H314.038C314.01 154.764 313.313 153.767 313.313 153.767L313.324 153.303H318.69V152.111H313.353L313.36 151.835L315.237 151.613C315.237 151.613 315.478 150.829 315.867 149.592H318.69V148.399H316.245C317.491 144.476 319.592 138.02 320.797 135.22C320.904 134.974 321.011 134.729 321.119 134.484H329.675V170.701C325.847 175.594 319.925 184.063 325.769 187.879C326.813 188.561 328.298 188.836 329.675 188.967V196.762C328.927 197.139 328.231 197.956 328.45 198.574L328.496 198.696L328.523 198.911L329.675 202.174V218.001C329.675 221.701 326.685 224.701 322.997 224.701ZM308.47 209.113H317.981V206.513H308.47V209.113ZM302.653 209.113H307.213V204.539H302.653V209.113ZM308.47 201.098H317.981V198.498H308.47V201.098ZM302.653 201.098H307.213V196.524H302.653V201.098ZM305.516 156.531H291.568V154.012H294.254C294.793 154.107 295.465 154.17 296.235 154.17C296.739 154.17 297.285 154.143 297.863 154.082C297.992 154.067 298.144 154.044 298.308 154.012H307.723C307.697 154.13 307.678 154.206 307.665 154.24C307.382 154.985 306.633 155.931 305.516 156.531ZM307.963 152.819H301.627C301.797 152.696 301.953 152.567 302.092 152.444C302.455 152.401 302.811 152.326 303.136 152.191L303.249 152.298L306.443 150.903C306.443 150.903 306.401 150.661 306.335 150.301H308.42C308.243 151.311 308.087 152.165 307.963 152.819ZM292.821 152.819H291.568V150.301H297.462C296.145 151.121 294.605 151.667 293.089 152.004C293.064 152.149 293.089 152.272 293.133 152.387C292.989 152.517 292.88 152.66 292.821 152.819ZM306.511 149.108H306.106C306.013 148.647 305.911 148.183 305.818 147.827C305.765 147.626 305.69 147.47 305.607 147.334C305.918 146.486 306.222 145.632 306.517 144.779C306.538 146.256 306.537 147.701 306.511 149.108ZM298.996 149.108H291.568V148.061C291.568 144.361 288.578 141.361 284.889 141.361H176.536V129.329C176.536 125.628 179.526 122.629 183.215 122.629H291.745H183.215C179.526 122.629 176.536 125.628 176.536 129.329V135.193H296.177C296.555 136.215 296.929 137.211 297.294 138.171H186.637V140.902H298.344C298.687 141.778 299.016 142.609 299.33 143.387C300.056 143.72 300.668 143.875 301.177 143.917C301.103 144.883 300.936 145.836 300.584 146.729L300.529 146.726C300.497 146.725 300.468 146.724 300.443 146.724C300.083 146.724 300.255 146.907 300.103 147.699L300.092 147.737C299.784 148.242 299.415 148.698 298.996 149.108ZM328.966 129.329C328.966 125.881 326.372 123.042 323.033 122.67C326.372 123.042 328.966 125.881 328.966 129.329Z" fill="#F3F8FF"/>
<path fill-rule="evenodd" clip-rule="evenodd" d="M329.675 134.679H319.04C319.832 133.285 320.641 131.894 321.141 130.423C321.512 130.607 321.953 130.714 322.425 130.714C323.748 130.714 324.82 129.881 324.82 128.854C324.82 127.827 323.748 126.996 322.425 126.996C322.225 126.996 322.029 127.015 321.842 127.051C321.957 126.068 322.024 125.08 322.126 124.097C322.175 123.607 322.235 123.118 322.301 122.629C326.45 122.986 329.675 125.718 329.675 129.036V134.679ZM316.204 134.679H176.536V129.054C176.536 125.505 180.026 122.629 184.333 122.629H311.031C312.682 126.68 314.489 130.872 316.204 134.679Z" fill="#B5C9FF"/>
<path fill-rule="evenodd" clip-rule="evenodd" d="M142.105 247.383C138.41 247.383 135.415 244.399 135.415 240.717V180.332C135.758 179.861 136.034 179.385 136.235 178.94C136.725 177.847 135.988 177.4 135.954 176.879C135.936 176.608 136.287 175.025 136.235 174.821C136.152 174.452 135.834 174.377 135.415 174.285V170.518C136.553 169.589 137.314 168.732 137.314 168.343C137.314 168.213 137.218 168.158 137.053 168.158C136.721 168.158 136.107 168.385 135.415 168.706V151.792C135.415 149.325 136.758 147.172 138.756 146.02C138.597 146.589 138.513 147.19 138.513 147.81V236.736C138.513 240.417 141.508 243.401 145.201 243.401H284.498C285.718 243.401 286.861 243.077 287.845 242.508C287.061 245.32 284.472 247.383 281.4 247.383H142.105Z" fill="#A7BCF6"/>
<path fill-rule="evenodd" clip-rule="evenodd" d="M285.389 243.839H145.669C141.964 243.839 138.96 240.84 138.96 237.141V147.758C138.96 144.058 141.964 141.058 145.669 141.058H285.389C289.095 141.058 292.099 144.058 292.099 147.758V237.141C292.099 240.84 289.095 243.839 285.389 243.839Z" fill="#FFFFFE"/>
<path fill-rule="evenodd" clip-rule="evenodd" d="M153.848 232.498H160.229V215.486H153.848V232.498Z" fill="#3D66DD"/>
<path fill-rule="evenodd" clip-rule="evenodd" d="M168.737 232.498H175.118V201.309H168.737V232.498Z" fill="#B5C9FF"/>
<path fill-rule="evenodd" clip-rule="evenodd" d="M183.625 232.498H190.006V204.145H183.625V232.498Z" fill="#3D66DD"/>
<path fill-rule="evenodd" clip-rule="evenodd" d="M198.514 231.789H204.895V187.841H198.514V231.789Z" fill="#B5C9FF"/>
<path fill-rule="evenodd" clip-rule="evenodd" d="M168.737 232.498H171.573V201.309H168.737V232.498Z" fill="#9CB3F1"/>
<path fill-rule="evenodd" clip-rule="evenodd" d="M153.848 232.498H156.684V215.486H153.848V232.498Z" fill="#2950C1"/>
<path fill-rule="evenodd" clip-rule="evenodd" d="M198.514 231.789H201.35V187.841H198.514V231.789Z" fill="#9CB3F1"/>
<path fill-rule="evenodd" clip-rule="evenodd" d="M183.625 232.498H186.461V204.145H183.625V232.498Z" fill="#2950C1"/>
<path fill-rule="evenodd" clip-rule="evenodd" d="M209.149 236.751H149.594V179.335H150.503V235.848H209.149V236.751Z" fill="#CEDBFF"/>
<path fill-rule="evenodd" clip-rule="evenodd" d="M155.87 207.689L155.266 207.009L170.769 192.954L185.128 196.104L200.677 178.626L201.35 179.236L185.45 197.108L171.029 193.945L155.87 207.689Z" fill="#CEDBFF"/>
<path fill-rule="evenodd" clip-rule="evenodd" d="M202.198 182.171L197.805 178.002L203.477 176.5L202.198 182.171Z" fill="#CEDBFF"/>
<path fill-rule="evenodd" clip-rule="evenodd" d="M214.82 219.03H219.074V214.777H214.82V219.03Z" fill="#9CB3F1"/>
<path fill-rule="evenodd" clip-rule="evenodd" d="M214.82 226.827H219.074V222.574H214.82V226.827Z" fill="#3D66DD"/>
<path fill-rule="evenodd" clip-rule="evenodd" d="M219.783 226.827H234.672V223.992H219.783V226.827Z" fill="#8BA9FF"/>
<path fill-rule="evenodd" clip-rule="evenodd" d="M219.783 219.03H234.672V216.195H219.783V219.03Z" fill="#8BA9FF"/>
<path fill-rule="evenodd" clip-rule="evenodd" d="M241.762 219.03H246.015V214.777H241.762V219.03Z" fill="#9CB3F1"/>
<path fill-rule="evenodd" clip-rule="evenodd" d="M241.762 226.827H246.015V222.574H241.762V226.827Z" fill="#3D66DD"/>
<path fill-rule="evenodd" clip-rule="evenodd" d="M247.433 226.827H262.322V223.992H247.433V226.827Z" fill="#8BA9FF"/>
<path fill-rule="evenodd" clip-rule="evenodd" d="M247.433 219.03H262.322V216.195H247.433V219.03Z" fill="#8BA9FF"/>
<path fill-rule="evenodd" clip-rule="evenodd" d="M265.867 219.03H270.121V214.777H265.867V219.03Z" fill="#9CB3F1"/>
<path fill-rule="evenodd" clip-rule="evenodd" d="M265.867 226.827H270.121V222.574H265.867V226.827Z" fill="#3D66DD"/>
<path fill-rule="evenodd" clip-rule="evenodd" d="M271.539 226.827H280.755V223.992H271.539V226.827Z" fill="#8BA9FF"/>
<path fill-rule="evenodd" clip-rule="evenodd" d="M271.539 219.03H280.755V216.195H271.539V219.03Z" fill="#8BA9FF"/>
<path fill-rule="evenodd" clip-rule="evenodd" d="M214.82 172.171H280.755V170.905H214.82V172.171Z" fill="#8BA9FF"/>
<path fill-rule="evenodd" clip-rule="evenodd" d="M149.594 158.779H280.755V155.944H149.594V158.779Z" fill="#8BA9FF"/>
<path fill-rule="evenodd" clip-rule="evenodd" d="M214.82 175.715H280.755V174.449H214.82V175.715Z" fill="#8BA9FF"/>
<path fill-rule="evenodd" clip-rule="evenodd" d="M214.82 168.626H280.755V167.362H214.82V168.626Z" fill="#8BA9FF"/>
<path fill-rule="evenodd" clip-rule="evenodd" d="M214.82 179.259H280.755V177.994H214.82V179.259Z" fill="#8BA9FF"/>
<path fill-rule="evenodd" clip-rule="evenodd" d="M214.82 182.803H280.755V181.538H214.82V182.803Z" fill="#8BA9FF"/>
<path fill-rule="evenodd" clip-rule="evenodd" d="M214.82 186.348H280.755V185.082H214.82V186.348Z" fill="#8BA9FF"/>
<path fill-rule="evenodd" clip-rule="evenodd" d="M214.82 190.6H280.755V189.336H214.82V190.6Z" fill="#8BA9FF"/>
<path fill-rule="evenodd" clip-rule="evenodd" d="M214.82 194.144H280.755V192.88H214.82V194.144Z" fill="#8BA9FF"/>
<path fill-rule="evenodd" clip-rule="evenodd" d="M214.82 198.397H280.755V197.133H214.82V198.397Z" fill="#8BA9FF"/>
<path fill-rule="evenodd" clip-rule="evenodd" d="M223.328 201.942H280.755V200.676H223.328V201.942Z" fill="#8BA9FF"/>
<path fill-rule="evenodd" clip-rule="evenodd" d="M285.358 141.058H144.992C141.269 141.058 138.251 143.935 138.251 147.484V153.108H292.099V147.484C292.099 143.935 289.081 141.058 285.358 141.058Z" fill="#B5C9FF"/>
<path fill-rule="evenodd" clip-rule="evenodd" d="M272.248 147.083C272.248 148.062 271.454 148.855 270.475 148.855C269.497 148.855 268.703 148.062 268.703 147.083C268.703 146.105 269.497 145.311 270.475 145.311C271.454 145.311 272.248 146.105 272.248 147.083Z" fill="#8BA9FF"/>
<path fill-rule="evenodd" clip-rule="evenodd" d="M280.046 147.083C280.046 148.062 279.253 148.855 278.274 148.855C277.295 148.855 276.502 148.062 276.502 147.083C276.502 146.105 277.295 145.311 278.274 145.311C279.253 145.311 280.046 146.105 280.046 147.083Z" fill="#8BA9FF"/>
<path fill-rule="evenodd" clip-rule="evenodd" d="M287.845 147.083C287.845 148.062 287.051 148.855 286.073 148.855C285.094 148.855 284.3 148.062 284.3 147.083C284.3 146.105 285.094 145.311 286.073 145.311C287.051 145.311 287.845 146.105 287.845 147.083Z" fill="#8BA9FF"/>
<path fill-rule="evenodd" clip-rule="evenodd" d="M325.499 111.996H315.762C315.554 110.413 315.236 108.96 314.786 107.683C319.668 108.364 324.028 109.043 328.308 109.043C331.779 109.043 335.195 108.597 338.794 107.341C339.472 107.105 340.087 106.773 340.638 106.325C341.008 106.448 341.372 106.59 341.728 106.747C341.534 106.839 341.113 108.734 337.143 110.029C335.899 110.434 334.792 110.526 333.584 110.526C333.089 110.526 332.578 110.51 332.034 110.496C331.489 110.481 330.911 110.465 330.283 110.465C329.353 110.465 328.314 110.499 327.114 110.615C326.667 110.658 326.174 110.717 325.876 111.069C325.706 111.269 325.628 111.535 325.556 111.791C325.536 111.86 325.517 111.928 325.499 111.996ZM304.861 111.996H300.704C300.673 110.342 300.64 108.689 300.607 107.034C301.719 107.1 302.859 107.136 304.004 107.136C304.226 107.136 304.447 107.134 304.669 107.131C304.702 108.627 304.769 110.258 304.861 111.996Z" fill="#2F5AD5"/>
<path fill-rule="evenodd" clip-rule="evenodd" d="M323.394 122.629C323.145 122.599 322.89 122.585 322.632 122.585H315.655C315.906 118.767 315.914 115.128 315.495 111.996H325.421C324.444 115.468 323.765 119.032 323.394 122.629ZM305.57 122.629H302.086C301.885 121.009 301.663 119.414 301.414 117.872C301.383 115.913 301.349 113.955 301.316 111.996H304.938C305.092 115.219 305.324 118.825 305.57 122.629Z" fill="#B1C8ED"/>
<path fill-rule="evenodd" clip-rule="evenodd" d="M320.692 134.679H314.297C314.512 133.341 314.721 131.975 314.914 130.6C315.129 130.682 315.364 130.727 315.61 130.727C316.664 130.727 317.519 129.897 317.519 128.874C317.519 127.85 316.664 127.022 315.61 127.022C315.53 127.022 315.45 127.027 315.372 127.036C315.543 125.553 315.686 124.077 315.787 122.629H322.554C322.805 122.629 323.052 122.641 323.294 122.668C323.241 123.156 323.194 123.643 323.154 124.132C323.073 125.112 323.019 126.097 322.928 127.077C322.099 127.278 321.484 128.007 321.484 128.874C321.484 129.532 321.837 130.109 322.369 130.437C321.969 131.903 321.324 133.29 320.692 134.679ZM306.562 134.679H303.326C303.015 130.862 302.61 126.664 302.025 122.629H305.721C305.856 124.39 305.994 126.198 306.126 128.03C305.992 128.282 305.916 128.57 305.916 128.874C305.916 129.269 306.044 129.635 306.261 129.936C306.369 131.511 306.472 133.096 306.562 134.679Z" fill="#9CB3F0"/>
<path fill-rule="evenodd" clip-rule="evenodd" d="M306.464 129.717C306.231 129.382 306.094 128.973 306.094 128.532C306.094 128.193 306.176 127.872 306.319 127.59C306.367 128.297 306.417 129.006 306.464 129.717Z" fill="#9A95BD"/>
<path fill-rule="evenodd" clip-rule="evenodd" d="M343.146 153.304C345.504 150.231 347.865 147.127 350.235 143.894V186.689C349.92 186.797 349.658 186.892 349.343 186.986C347.308 187.585 345.205 188.232 343.146 188.73V153.304Z" fill="#3159CE"/>
<path fill-rule="evenodd" clip-rule="evenodd" d="M334.234 189.968C333.618 189.968 332.998 189.946 332.38 189.9C331.695 189.85 330.715 189.832 329.675 189.73V170.753C330.541 169.611 331.3 168.655 331.794 167.985C335.592 162.832 339.366 158.008 343.146 153.108V188.756C340.196 189.465 337.224 189.968 334.234 189.968Z" fill="#B8CEF1"/>
<path fill-rule="evenodd" clip-rule="evenodd" d="M329.675 189.708C328.294 189.576 326.805 188.85 325.758 188.162C319.898 184.311 325.837 175.659 329.675 170.722V189.259" fill="#CFDDF1"/>
<path fill-rule="evenodd" clip-rule="evenodd" d="M338.87 272.95H333.22H337.408C337.911 272.95 338.406 272.916 338.892 272.853L338.87 272.95Z" fill="#AFA8C7"/>
<path fill-rule="evenodd" clip-rule="evenodd" d="M118.399 185.453C120.927 184.004 123.259 182.784 124.78 181.898V185.615C124.727 185.648 120.681 187.855 118.399 189.259V185.453Z" fill="#403F84"/>
<path fill-rule="evenodd" clip-rule="evenodd" d="M124.78 185.715V181.877C125.803 181.238 126.435 180.843 126.461 180.834C127.048 181.062 127.617 181.163 128.163 181.163C130.72 181.163 132.744 178.951 133.481 177.272C133.883 176.359 133.28 175.986 133.253 175.552C133.243 175.393 133.382 174.69 133.45 174.229C133.549 174.222 133.652 174.214 133.76 174.205C134.038 174.183 134.34 174.163 134.634 174.163C134.911 174.163 135.18 174.182 135.415 174.237V180.474C134.301 182.157 132.422 183.784 130.178 183.784C129.563 183.784 128.92 183.663 128.259 183.386C128.217 183.403 126.837 184.337 124.78 185.715ZM132.728 173.311C132.487 173.249 132.197 173.229 131.899 173.229C131.621 173.229 131.336 173.247 131.072 173.264C130.808 173.282 130.568 173.299 130.381 173.299C130.356 173.299 130.332 173.299 130.31 173.299C130.861 172.325 131.463 171.38 132.021 170.748C132.274 170.461 134.007 169.378 135.415 168.703V170.538C134.995 170.892 134.523 171.256 134.018 171.61C133.389 172.052 132.984 172.744 132.728 173.311Z" fill="#918DB8"/>
<path fill-rule="evenodd" clip-rule="evenodd" d="M135.415 174.224C135.885 174.315 136.241 174.454 136.333 174.819C136.392 175.02 135.998 176.358 136.019 176.627C136.057 177.142 136.83 176.907 136.333 178.667C136.192 179.168 135.799 179.983 135.415 180.45V174.224ZM135.415 168.703C136.19 168.385 136.878 167.994 137.25 167.994C137.434 167.994 137.542 168.049 137.542 168.177C137.542 168.563 136.689 169.594 135.415 170.514V168.703Z" fill="#7977AA"/>
<path fill-rule="evenodd" clip-rule="evenodd" d="M420.3 309.052H348.233C343.074 309.052 338.892 304.9 338.892 299.777V214.128C338.892 209.006 343.074 204.853 348.233 204.853H420.3C425.459 204.853 429.641 209.006 429.641 214.128V299.777C429.641 304.9 425.459 309.052 420.3 309.052Z" fill="#A9C9FC"/>
<path fill-rule="evenodd" clip-rule="evenodd" d="M422.3 236.751H350.486C349.172 236.751 348.108 235.698 348.108 234.4V217.837C348.108 216.539 349.172 215.486 350.486 215.486H422.3C423.613 215.486 424.678 216.539 424.678 217.837V234.4C424.678 235.698 423.613 236.751 422.3 236.751Z" fill="#749EE1"/>
<path fill-rule="evenodd" clip-rule="evenodd" d="M366.273 256.598H351.215C349.89 256.598 348.817 255.494 348.817 254.13V244.891C348.817 243.527 349.89 242.422 351.215 242.422H366.273C367.596 242.422 368.669 243.527 368.669 244.891V254.13C368.669 255.494 367.596 256.598 366.273 256.598Z" fill="#5B8AD6"/>
<path fill-rule="evenodd" clip-rule="evenodd" d="M393.921 258.016H378.865C377.541 258.016 376.467 256.912 376.467 255.548V246.309C376.467 244.945 377.541 243.839 378.865 243.839H393.921C395.247 243.839 396.319 244.945 396.319 246.309V255.548C396.319 256.912 395.247 258.016 393.921 258.016Z" fill="#749EE1"/>
<path fill-rule="evenodd" clip-rule="evenodd" d="M422.281 258.016H407.224C405.9 258.016 404.827 256.912 404.827 255.548V246.309C404.827 244.945 405.9 243.839 407.224 243.839H422.281C423.604 243.839 424.678 244.945 424.678 246.309V255.548C424.678 256.912 423.604 258.016 422.281 258.016Z" fill="#749EE1"/>
<path fill-rule="evenodd" clip-rule="evenodd" d="M365.564 279.99H350.506C349.181 279.99 348.108 278.884 348.108 277.521V268.283C348.108 266.919 349.181 265.813 350.506 265.813H365.564C366.887 265.813 367.96 266.919 367.96 268.283V277.521C367.96 278.884 366.887 279.99 365.564 279.99Z" fill="#749EE1"/>
<path fill-rule="evenodd" clip-rule="evenodd" d="M392.332 277.155H376.2C374.782 277.155 373.632 276.049 373.632 274.685V265.447C373.632 264.084 374.782 262.978 376.2 262.978H392.332C393.752 262.978 394.901 264.084 394.901 265.447V274.685C394.901 276.049 393.752 277.155 392.332 277.155Z" fill="#749EE1"/>
<path fill-rule="evenodd" clip-rule="evenodd" d="M365.564 298.42H350.506C349.181 298.42 348.108 297.314 348.108 295.95V286.712C348.108 285.349 349.181 284.243 350.506 284.243H365.564C366.887 284.243 367.96 285.349 367.96 286.712V295.95C367.96 297.314 366.887 298.42 365.564 298.42Z" fill="#749EE1"/>
<path fill-rule="evenodd" clip-rule="evenodd" d="M392.504 298.42H377.447C376.123 298.42 375.05 297.314 375.05 295.95V286.712C375.05 285.349 376.123 284.243 377.447 284.243H392.504C393.829 284.243 394.901 285.349 394.901 286.712V295.95C394.901 297.314 393.829 298.42 392.504 298.42Z" fill="#749EE1"/>
<path fill-rule="evenodd" clip-rule="evenodd" d="M422.281 301.964H407.224C405.9 301.964 404.827 300.904 404.827 299.596V268.89C404.827 267.582 405.9 266.522 407.224 266.522H422.281C423.604 266.522 424.678 267.582 424.678 268.89V299.596C424.678 300.904 423.604 301.964 422.281 301.964Z" fill="#749EE1"/>
<path fill-rule="evenodd" clip-rule="evenodd" d="M346.69 216.195C346.962 215.378 347.881 214.777 348.971 214.777H420.339C421.352 214.777 422.215 215.295 422.551 216.024C422.293 215.944 422.013 215.901 421.721 215.901H350.354C350.194 215.901 350.038 215.914 349.888 215.938L346.69 216.195Z" fill="#9EBEF1"/>
<path fill-rule="evenodd" clip-rule="evenodd" d="M420.89 235.333H382.326L380.566 229.306L350.703 215.486L350.235 215.531C350.386 215.502 350.543 215.486 350.703 215.486H422.276C422.569 215.486 422.85 215.539 423.109 215.635C423.207 215.891 423.26 216.169 423.26 216.46V232.987C423.26 234.284 422.199 235.333 420.89 235.333Z" fill="#C1D7FA"/>
<path fill-rule="evenodd" clip-rule="evenodd" d="M348.817 255.181C347.989 254.844 347.399 253.977 347.399 252.96V244.085C347.399 242.775 348.378 241.713 349.585 241.713H352.362C352.352 242.164 352.341 242.627 352.33 243.1H350.865C349.656 243.1 348.679 244.163 348.679 245.473V254.349C348.679 254.642 348.727 254.923 348.817 255.181Z" fill="#9EBEF1"/>
<path fill-rule="evenodd" clip-rule="evenodd" d="M364.855 254.472H364.561L367.251 247.204V252.135C367.251 253.425 366.178 254.472 364.855 254.472ZM352.525 254.472H349.81C349.515 254.472 349.231 254.419 348.969 254.323C348.87 254.068 348.817 253.792 348.817 253.503V244.759C348.817 243.468 349.889 242.422 351.213 242.422H352.819C352.726 246.123 352.618 250.482 352.525 254.472Z" fill="#C1D7FA"/>
<path fill-rule="evenodd" clip-rule="evenodd" d="M394.192 245.257C393.942 245.167 393.67 245.118 393.385 245.118H384.655L384.266 243.839H392.041C393.026 243.839 393.865 244.429 394.192 245.257Z" fill="#9EBEF1"/>
<path fill-rule="evenodd" clip-rule="evenodd" d="M391.837 256.598H387.403L385.821 249.891L384.266 244.548H393.215C393.507 244.548 393.786 244.601 394.042 244.697C394.139 244.953 394.192 245.23 394.192 245.518V254.261C394.192 255.552 393.138 256.598 391.837 256.598Z" fill="#C1D7FA"/>
<path fill-rule="evenodd" clip-rule="evenodd" d="M404.976 256.598C404.06 256.26 403.409 255.393 403.409 254.376V245.502C403.409 244.193 404.491 243.13 405.825 243.13H420.998C422.034 243.13 422.917 243.77 423.26 244.669C422.996 244.571 422.71 244.518 422.411 244.518H407.238C405.904 244.518 404.822 245.58 404.822 246.89V255.765C404.822 256.058 404.876 256.339 404.976 256.598Z" fill="#9EBEF1"/>
<path fill-rule="evenodd" clip-rule="evenodd" d="M420.865 256.598H405.821C405.525 256.598 405.241 256.546 404.979 256.451C404.881 256.195 404.827 255.918 404.827 255.63V246.885C404.827 245.595 405.899 244.548 407.222 244.548H422.266C422.562 244.548 422.845 244.601 423.107 244.697C423.206 244.953 423.26 245.23 423.26 245.518V254.261C423.26 255.552 422.187 256.598 420.865 256.598Z" fill="#C1D7FA"/>
<path fill-rule="evenodd" clip-rule="evenodd" d="M348.257 278.572C347.342 278.235 346.69 277.367 346.69 276.351V267.477C346.69 266.165 347.772 265.104 349.106 265.104H351.661C351.652 265.606 351.644 266.07 351.636 266.492H350.521C349.185 266.492 348.105 267.554 348.105 268.864V277.739C348.105 278.032 348.158 278.313 348.257 278.572ZM366.542 266.642C366.279 266.545 365.993 266.492 365.694 266.492H361.315L361.296 265.104H364.28C365.315 265.104 366.198 265.744 366.542 266.642Z" fill="#9EBEF1"/>
<path fill-rule="evenodd" clip-rule="evenodd" d="M364.146 278.572H361.375L361.206 266.522H365.549C365.845 266.522 366.128 266.575 366.389 266.67C366.488 266.925 366.542 267.202 366.542 267.492V276.235C366.542 277.526 365.469 278.572 364.146 278.572ZM352.424 278.572H349.101C348.806 278.572 348.522 278.52 348.26 278.423C348.161 278.168 348.108 277.891 348.108 277.602V268.859C348.108 267.569 349.18 266.522 350.504 266.522H351.609C351.597 267.256 351.588 267.859 351.585 268.296C351.571 269.758 351.92 273.699 352.424 278.572Z" fill="#C1D7FA"/>
<path fill-rule="evenodd" clip-rule="evenodd" d="M375.199 275.737C374.283 275.4 373.632 274.531 373.632 273.516V264.641C373.632 264.482 373.648 264.327 373.678 264.177C374.149 266.015 374.61 267.733 375.045 269.234V274.903C375.045 275.196 375.099 275.477 375.199 275.737ZM393.483 263.806C393.22 263.71 392.934 263.657 392.634 263.657H388.973L388.643 262.269H391.221C392.257 262.269 393.14 262.909 393.483 263.806Z" fill="#9EBEF1"/>
<path fill-rule="evenodd" clip-rule="evenodd" d="M377.614 275.737H376.044C375.748 275.737 375.464 275.684 375.202 275.588C375.104 275.332 375.05 275.056 375.05 274.767V269.182C375.716 271.462 376.318 273.237 376.796 274.166C377.002 274.565 377.279 275.096 377.614 275.737ZM391.728 275.651L388.858 263.687H392.489C392.786 263.687 393.07 263.739 393.33 263.834C393.429 264.09 393.483 264.367 393.483 264.657V273.4C393.483 274.474 392.74 275.378 391.728 275.651Z" fill="#C1D7FA"/>
<path fill-rule="evenodd" clip-rule="evenodd" d="M348.257 297.002C347.342 296.665 346.69 295.798 346.69 294.781V285.906C346.69 284.597 347.772 283.534 349.106 283.534H353.348C353.4 283.996 353.452 284.459 353.504 284.922H350.521C349.185 284.922 348.105 285.984 348.105 287.294V296.169C348.105 296.463 348.158 296.744 348.257 297.002ZM366.542 285.073C366.279 284.975 365.993 284.922 365.694 284.922H361.618L361.599 283.534H364.28C365.315 283.534 366.198 284.174 366.542 285.073Z" fill="#9EBEF1"/>
<path fill-rule="evenodd" clip-rule="evenodd" d="M364.146 297.002H361.676L361.508 284.952H365.549C365.845 284.952 366.128 285.005 366.389 285.101C366.488 285.356 366.542 285.633 366.542 285.922V294.665C366.542 295.955 365.469 297.002 364.146 297.002ZM354.865 297.002H349.101C348.806 297.002 348.522 296.949 348.26 296.853C348.161 296.599 348.108 296.322 348.108 296.032V287.289C348.108 285.998 349.18 284.952 350.504 284.952H353.462C353.944 289.219 354.445 293.485 354.865 297.002Z" fill="#C1D7FA"/>
<path fill-rule="evenodd" clip-rule="evenodd" d="M375.101 297.002C374.242 296.664 373.632 295.797 373.632 294.78V285.906C373.632 284.596 374.646 283.534 375.897 283.534H381.453C381.679 283.992 381.908 284.453 382.139 284.922H377.222C375.971 284.922 374.956 285.984 374.956 287.293V296.167C374.956 296.462 375.008 296.743 375.101 297.002Z" fill="#9EBEF1"/>
<path fill-rule="evenodd" clip-rule="evenodd" d="M389.229 297.002H376.056C375.757 297.002 375.47 296.949 375.204 296.854C375.104 296.599 375.05 296.322 375.05 296.032V287.289C375.05 285.998 376.136 284.952 377.475 284.952H382.741C384.893 288.958 387.252 293.335 389.229 297.002Z" fill="#C1D7FA"/>
<path fill-rule="evenodd" clip-rule="evenodd" d="M420.863 300.546H405.806C404.482 300.546 403.409 299.486 403.409 298.179V267.471C403.409 266.163 404.482 265.104 405.806 265.104H420.863C422.186 265.104 423.26 266.163 423.26 267.471V298.179C423.26 299.486 422.186 300.546 420.863 300.546Z" fill="#3D66DD"/>
<path fill-rule="evenodd" clip-rule="evenodd" d="M404.822 299.733V269.507C404.822 268.22 405.904 267.176 407.239 267.176H422.416C422.715 267.176 422.996 267.235 423.26 267.33C422.917 266.445 422.04 265.813 421.003 265.813H405.825C404.491 265.813 403.409 266.856 403.409 268.144V298.37C403.409 299.37 404.066 300.215 404.982 300.546C404.883 300.292 404.822 300.02 404.822 299.733Z" fill="#688EFD"/>
<path fill-rule="evenodd" clip-rule="evenodd" d="M394.494 306.926C394.494 306.926 391.365 302.527 389.229 298.424L393.483 297.532C394.792 297.532 395.879 298.837 395.879 297.532V289.922L399.864 306.926H394.494ZM361.47 309.052H355.618C355.618 309.052 355.275 304.209 354.784 297.061H361.375L361.47 309.052ZM393.784 285.612C393.545 285.369 393.252 285.176 392.925 285.054C392.588 284.158 391.723 283.521 390.708 283.521H381.643C380.289 280.907 379.05 278.513 378.097 276.656H391.685L393.784 285.612ZM361.171 286.356H353.083C352.825 283.516 352.575 280.708 352.351 278.074H361.077L361.171 286.356ZM369.164 239.23L367.381 244.156C367.133 243.544 366.637 243.059 366.017 242.826C365.679 241.93 364.816 242.669 363.801 242.669L351.661 242.422C351.727 239.768 352.055 236.429 352.089 235.093H382.314L384.11 241.293H377.252C375.944 241.293 374.884 242.352 374.884 243.657V252.503C374.884 253.517 375.522 254.381 376.42 254.718C376.756 255.613 377.622 256.251 378.637 256.251H387.989L389.598 263.116H377.252C376.103 263.116 375.144 263.934 374.929 265.018C372.209 254.224 369.164 239.23 369.164 239.23ZM360.873 265.243H351.429C351.465 262.792 351.517 259.664 351.576 256.251H363.006L360.861 264.022L360.873 265.243ZM348.155 233.708H342.017L339.601 227.362V214.76L346.639 214.068C346.585 214.266 346.556 214.474 346.556 214.688L347.942 225.815V232.728C347.942 233.078 348.019 233.41 348.155 233.708Z" fill="#749EE1"/>
<path fill-rule="evenodd" clip-rule="evenodd" d="M382.139 236.751H352.213C352.236 235.875 352.249 235.376 352.249 235.376H348.319C348.184 235.079 348.108 234.75 348.108 234.403V227.536L349.08 235.376H381.743L382.139 236.751Z" fill="#5B8AD6"/>
<path fill-rule="evenodd" clip-rule="evenodd" d="M363.446 256.598H351.653C351.664 256.142 351.675 255.679 351.686 255.211H363.963L363.446 256.598ZM366.707 247.833V243.964C366.707 243.671 366.652 243.39 366.553 243.13C367.192 243.363 367.705 243.85 367.96 244.464L366.707 247.833Z" fill="#5B8AD6"/>
<path fill-rule="evenodd" clip-rule="evenodd" d="M387.811 258.016H378.642C377.646 258.016 376.798 257.426 376.467 256.598C376.722 256.687 376.997 256.737 377.283 256.737H387.494L387.811 258.016Z" fill="#65649E"/>
<path fill-rule="evenodd" clip-rule="evenodd" d="M360.87 279.99H352.498C352.452 279.51 352.406 279.036 352.362 278.572H360.852L360.87 279.99Z" fill="#749EE1"/>
<path fill-rule="evenodd" clip-rule="evenodd" d="M360.87 298.42H354.642C354.593 297.962 354.541 297.49 354.489 297.002H360.852L360.87 298.42Z" fill="#5B8AD6"/>
<path fill-rule="evenodd" clip-rule="evenodd" d="M348.186 228.245L346.69 217.13C346.69 216.916 346.722 216.708 346.78 216.511L350.235 216.195C349.066 216.412 348.186 217.366 348.186 218.512V228.245Z" fill="#8D8AB6"/>
<path fill-rule="evenodd" clip-rule="evenodd" d="M382.139 235.333H349.092L348.108 227.501V217.832C348.108 216.694 348.926 215.747 350.013 215.531L350.481 215.486L380.377 229.306L382.139 235.333Z" fill="#C1D7FA"/>
<path fill-rule="evenodd" clip-rule="evenodd" d="M367.251 243.131C366.99 243.041 366.709 242.991 366.415 242.991H353.071C353.083 242.555 353.095 242.128 353.106 241.713H365.022C366.042 241.713 366.911 242.302 367.251 243.131Z" fill="#5B8AD6"/>
<path fill-rule="evenodd" clip-rule="evenodd" d="M363.113 254.472H350.944C351.039 250.482 351.148 246.123 351.242 242.422H364.829C365.128 242.422 365.415 242.474 365.68 242.571C365.778 242.826 365.833 243.103 365.833 243.392V247.204L363.113 254.472Z" fill="#749EE1"/>
<path fill-rule="evenodd" clip-rule="evenodd" d="M376.52 256.598C375.661 256.26 375.05 255.393 375.05 254.376V245.502C375.05 244.193 376.065 243.13 377.317 243.13H383.883L384.266 244.518H378.643C377.391 244.518 376.376 245.58 376.376 246.89V255.765C376.376 256.058 376.427 256.339 376.52 256.598Z" fill="#5B8AD6"/>
<path fill-rule="evenodd" clip-rule="evenodd" d="M387.811 256.598H377.446C377.155 256.598 376.876 256.546 376.618 256.451C376.521 256.195 376.467 255.918 376.467 255.63V246.885C376.467 245.595 377.523 244.548 378.825 244.548H384.671L386.228 249.891L387.811 256.598Z" fill="#837EAF"/>
<path fill-rule="evenodd" clip-rule="evenodd" d="M360.87 266.522H351.653C351.661 266.092 351.669 265.617 351.678 265.104H360.852L360.87 266.522Z" fill="#5B8AD6"/>
<path fill-rule="evenodd" clip-rule="evenodd" d="M360.87 279.99H352.443C351.969 274.544 351.641 270.139 351.654 268.505C351.656 268.016 351.665 267.343 351.677 266.522H360.711L360.87 279.99Z" fill="#5B8AD6"/>
<path fill-rule="evenodd" clip-rule="evenodd" d="M360.87 297.002H354.404C354.005 293.485 353.529 289.219 353.071 284.952H360.71L360.87 297.002Z" fill="#5B8AD6"/>
<path fill-rule="evenodd" clip-rule="evenodd" d="M392.065 284.952C391.822 284.862 391.558 284.813 391.281 284.813H382.106C381.879 284.381 381.653 283.956 381.43 283.534H389.975C390.932 283.534 391.748 284.123 392.065 284.952Z" fill="#5B8AD6"/>
<path fill-rule="evenodd" clip-rule="evenodd" d="M391.528 298.42H389.264C387.093 294.321 384.503 289.429 382.139 284.952H393.086C393.417 284.952 393.732 285.011 394.022 285.118C394.132 285.404 394.192 285.713 394.192 286.036V295.808C394.192 297.25 392.999 298.42 391.528 298.42Z" fill="#5B8AD6"/>
<path fill-rule="evenodd" clip-rule="evenodd" d="M137.979 252.429L133.288 301.244L179.371 301.255L174.913 252.345L137.979 252.429Z" fill="#573DDD"/>
<path fill-rule="evenodd" clip-rule="evenodd" d="M147.819 255.721C147.158 255.723 146.621 256.118 146.621 256.6C146.624 257.082 147.161 257.474 147.822 257.474H147.825C148.486 257.473 149.025 257.079 149.023 256.596C149.02 256.113 148.482 255.721 147.822 255.721H147.819ZM146.05 256.602C146.048 255.82 146.84 255.183 147.818 255.181H147.821C148.797 255.181 149.592 255.814 149.594 256.595C149.596 257.375 148.802 258.013 147.826 258.016H147.823C146.847 258.016 146.051 257.383 146.05 256.602Z" fill="#D8E7FF"/>
<path fill-rule="evenodd" clip-rule="evenodd" d="M164.124 255.721C163.751 255.722 163.405 255.848 163.176 256.067C163.063 256.174 162.926 256.355 162.928 256.6C162.93 257.082 163.469 257.474 164.129 257.474H164.132C164.463 257.474 164.772 257.375 165.002 257.197C165.213 257.032 165.329 256.819 165.329 256.596C165.327 256.113 164.791 255.721 164.129 255.721H164.124ZM162.356 256.602L162.641 256.601L162.356 256.602C162.355 256.266 162.502 255.94 162.771 255.684C163.106 255.364 163.6 255.181 164.124 255.181H164.131C165.104 255.181 165.9 255.813 165.901 256.593C165.902 256.983 165.713 257.347 165.365 257.615C165.033 257.873 164.597 258.015 164.133 258.016H164.131C163.154 258.016 162.359 257.383 162.356 256.602Z" fill="#D8E7FF"/>
<path fill-rule="evenodd" clip-rule="evenodd" d="M156.176 266.522C156.337 266.522 156.499 266.52 156.667 266.514C159.821 266.415 162.226 265.451 163.816 263.652C166.447 260.673 165.852 256.52 165.825 256.345C165.78 256.056 165.494 255.846 165.194 255.897C164.889 255.939 164.677 256.206 164.721 256.494C164.726 256.534 165.27 260.368 162.956 262.98C161.579 264.534 159.45 265.369 156.628 265.458C153.897 265.534 151.862 264.863 150.507 263.433C148.048 260.838 148.653 256.574 148.66 256.531C148.702 256.243 148.491 255.974 148.185 255.933C147.891 255.891 147.598 256.091 147.555 256.381C147.526 256.575 146.867 261.167 149.672 264.135C151.173 265.72 153.359 266.522 156.176 266.522Z" fill="#FFFFFE"/>
<path fill-rule="evenodd" clip-rule="evenodd" d="M92.5271 141.685C94.3854 144.819 92.7807 149.102 94.6557 152.227C95.4068 153.478 96.6776 154.462 97.0393 155.868C97.3414 157.049 96.8716 158.385 95.8904 159.136C94.9079 159.887 93.4667 160.013 92.3649 159.442C92.1266 159.319 91.9007 159.166 91.6429 159.093C90.7158 158.827 89.876 159.631 89.0792 160.164C88.1022 160.817 86.8272 161.113 85.7034 160.746C84.2635 160.275 83.3738 158.858 82.8929 157.451C81.5515 153.518 82.5049 149.212 83.7438 145.247C84.3633 143.266 85.2779 141.068 87.2679 140.349" fill="#4A4488"/>
<path fill-rule="evenodd" clip-rule="evenodd" d="M133.494 175.382C133.523 175.81 134.182 176.179 133.743 177.081C132.767 179.093 129.724 181.88 126.085 180.599C125.927 180.655 105.981 192.094 104.444 192.094C102.908 192.094 92.4399 182.266 89.0164 170.105C88.1998 167.203 88.5176 163.791 91.2572 162.323C91.2572 162.323 93.5409 162.871 95.024 165.649C97.2916 169.895 104.082 183.958 105.587 184.489C107.463 183.249 116.596 180.556 123.993 177.439C125.641 176.726 126.274 176.124 126.86 175.061C127.415 173.985 128.776 171.482 129.933 170.308C130.329 169.906 134.706 167.58 134.706 168.344C134.707 168.785 133.421 169.956 131.746 171.01C130.888 171.549 130.489 172.549 130.322 172.976C130.203 173.211 130.733 173.167 131.411 173.123C132.353 173.063 133.578 173.002 133.743 173.684C133.791 173.852 133.479 175.158 133.494 175.382Z" fill="#FDD5CF"/>
<path fill-rule="evenodd" clip-rule="evenodd" d="M89.8312 160.906C92.5414 161.528 94.7742 163.238 96.0689 165.66C96.3989 166.276 96.6587 166.926 96.9185 167.575C98.0307 170.357 99.5614 172.874 100.675 175.655C99.1527 176.861 97.3117 177.416 95.7614 177.983C94.3094 178.514 92.7338 178.722 91.1891 178.586C90.9265 178.562 90.6583 178.528 90.4196 178.419C90.098 178.273 89.8523 178.006 89.6191 177.743C89.1431 177.206 88.6783 176.658 88.2289 176.1C87.8413 175.622 87.4566 175.119 87.2951 174.53C87.076 173.73 87.2951 172.884 87.5142 172.083L89.8312 160.906Z" fill="#3764E5"/>
<path fill-rule="evenodd" clip-rule="evenodd" d="M93.0392 178.608L93.0319 178.596L93.3415 173.022C93.0454 171.999 92.8875 170.929 92.8765 169.858C92.874 169.58 92.8838 169.288 93.0123 169.044C93.1151 168.851 93.3171 168.703 93.5166 168.703C93.568 168.703 93.6181 168.712 93.6671 168.733C93.7956 168.787 93.8898 168.905 93.9792 169.017C95.924 171.502 97.9238 174.163 98.548 177.305C97.9483 177.564 97.351 177.792 96.7978 178.013C96.788 178.017 96.777 178.021 96.766 178.026C95.7587 178.427 94.6842 178.626 93.6083 178.626C93.4186 178.626 93.2289 178.62 93.0392 178.608Z" fill="#2F57CC"/>
<path fill-rule="evenodd" clip-rule="evenodd" d="M85.0321 155.61C85.0321 155.61 84.9539 159.324 85.5153 159.567C86.6285 160.048 87.8762 160.309 87.8762 160.309L87.9133 167.994L77.8325 166.45L70.8978 162.526C70.8978 162.526 78.1057 160.097 78.1688 159.367C78.2319 158.636 77.7721 154.526 77.7721 154.526" fill="#FDD5CF"/>
<path fill-rule="evenodd" clip-rule="evenodd" d="M69.438 262.676L69.4324 262.704C66.6473 275.335 67.974 292.689 67.353 302.198C67.4985 302.236 71.1376 302.673 71.1376 302.673C71.1376 302.673 79.7521 262.591 81.3158 254.915C81.4212 254.378 81.4933 253.874 81.5141 253.428C81.8897 247.652 76.4471 247.358 73.3806 252.133C72.8732 252.915 72.4005 253.778 71.9777 254.71C71.8044 255.087 71.6436 255.469 71.4758 255.876L71.4731 255.889C70.9671 257.138 70.5165 258.487 70.1228 259.922L70.0909 260.068C69.9634 260.472 69.8594 260.882 69.7568 261.293L69.736 261.386C69.6293 261.81 69.535 262.236 69.438 262.676Z" fill="#FDD5CF"/>
<path fill-rule="evenodd" clip-rule="evenodd" d="M85.6412 216.472C85.5427 217.517 84.9838 222.492 84.3118 228.36C83.7382 233.294 83.1102 238.856 82.6205 243.26C82.2572 246.563 81.991 249.197 81.8793 250.437C81.8234 251.204 81.7249 251.902 81.5852 252.57V252.598C80.3263 258.368 76.3275 258.703 73.895 257.365C73.5583 257.198 73.2376 256.961 72.9715 256.738C72.4126 256.236 72.0347 255.622 71.9362 255.037V255.024C71.7832 253.838 71.6288 252.221 71.4891 250.298V250.27L71.4758 250.242L71.4612 250.201C71.1684 246.452 70.9156 241.629 70.692 236.932C70.4272 231.161 70.2582 225.6 70.2169 222.464C70.2023 222.283 70.2023 222.115 70.189 221.948C70.1464 212.332 79.0129 206.171 84.522 209.154L84.7177 209.251L84.9279 209.377C85.5573 209.795 85.7662 211.23 85.7809 212.875C85.8088 214.074 85.725 215.384 85.6412 216.472Z" fill="#FDD5CF"/>
<path fill-rule="evenodd" clip-rule="evenodd" d="M91.4688 264.858V264.886C91.2284 278.15 95.1269 293.747 96.1585 303.382C96.2838 303.386 99.3432 302.953 99.3432 302.953C99.3432 302.953 99.9254 262.315 99.9659 254.285C99.9659 253.724 99.9444 253.205 99.8887 252.754C99.2622 246.904 94.7446 247.907 92.9992 253.401C92.7093 254.302 92.4612 255.275 92.265 256.305C92.184 256.723 92.1131 257.142 92.0422 257.587L92.041 257.602C91.8283 258.968 91.6764 260.421 91.5853 261.945L91.5828 262.099C91.5435 262.533 91.5245 262.967 91.5068 263.4L91.5043 263.499C91.4853 263.947 91.4777 264.395 91.4688 264.858Z" fill="#FDD5CF"/>
<path fill-rule="evenodd" clip-rule="evenodd" d="M93.8086 259.255C93.4635 259.165 93.1465 259.021 92.8672 258.851C92.2628 258.49 91.8116 257.986 91.6357 257.417L91.637 257.403C91.2851 256.263 90.8661 254.672 90.4015 252.794L90.3921 252.763L90.3719 252.715C89.4681 249.067 88.395 244.332 87.3945 239.724C86.1657 234.053 85.051 228.56 84.4789 225.442C84.4346 225.273 83.939 223.003 83.9054 222.836C82.1891 213.172 89.8213 206.876 95.3678 208.717L95.5854 208.791C96.7001 209.233 97.0089 213.107 97.2601 215.725C97.5112 218.342 99.3968 245.478 99.8668 250.384C99.942 251.162 99.9756 251.89 99.9635 252.583C99.8306 258.649 96.2515 259.978 93.8086 259.255Z" fill="#FDD5CF"/>
<path fill-rule="evenodd" clip-rule="evenodd" d="M74.4307 198.184C74.4307 198.184 67.3913 207.396 68.1139 216.653C68.4141 220.505 68.8787 223.9 69.3039 227.777C69.3657 228.336 70.2094 236.475 69.9712 236.483C69.9712 236.483 84.4764 241.1 98.4894 235.051C98.4894 234.064 99.6108 215.12 92.041 197.056C82.9048 198.386 74.4307 198.184 74.4307 198.184Z" fill="#2951C3"/>
<path fill-rule="evenodd" clip-rule="evenodd" d="M97.1289 177.109C97.0732 179.712 95.6987 181.297 93.7286 183.491C93.4791 183.882 92.8675 189.685 92.6592 193.544C92.5504 195.552 93.4009 196.814 92.6592 196.978C89.8227 199.473 79.6018 201.493 74.9132 198.089C75.4041 193.892 73.5401 184.647 72.2824 179.946C72.086 179.222 71.9135 178.611 71.757 178.14C70.5855 174.57 68.4707 163.12 70.0362 162.621C70.348 162.522 70.8323 162.392 71.3935 162.222C73.8439 161.476 77.4645 160.197 77.4645 160.197C77.4645 160.197 79.5885 166.532 85.1103 167.298C88.1246 166.045 87.8592 162.202 87.8234 160.435C88.8091 160.709 89.243 160.982 92.2984 161.894C93.1541 163.14 92.4151 165.738 93.7989 169.612C94.1438 170.575 97.1966 173.938 97.1289 177.109Z" fill="#3D66DD"/>
<path fill-rule="evenodd" clip-rule="evenodd" d="M92.033 140.954C92.033 140.954 92.5931 147.87 91.425 151.496C90.5603 154.18 87.0097 156.686 84.0405 156.652C75.8671 156.652 74.4011 145.434 74.4436 144.891C74.4862 144.35 86.4989 139.641 86.4989 139.641L92.033 140.954Z" fill="#FDD5CF"/>
<path fill-rule="evenodd" clip-rule="evenodd" d="M107.197 307.301C104.249 307.809 101.099 307.015 99.8075 307.23C98.7399 307.404 95.9982 308.07 94.9725 307.187C93.9453 306.302 94.1111 303.185 95.2906 302.77C95.2906 302.77 95.5642 302.869 96.0562 302.946C96.7922 303.054 98.0174 303.105 99.546 302.673C101.789 303.557 101.873 303.943 104.421 304.437C105.532 304.654 106.821 305.007 107.67 305.38C108.77 305.862 108.857 307.016 107.197 307.301Z" fill="#3721A8"/>
<path fill-rule="evenodd" clip-rule="evenodd" d="M75.4769 308.301C72.7088 307.844 70.9565 306.335 69.7461 306.127C68.7468 305.952 66.2288 305.469 65.966 304.454C65.7689 303.697 66.5295 300.555 67.707 300.546C67.707 300.546 67.9142 300.722 68.3235 300.946C68.9376 301.272 70.0013 301.701 71.4922 301.786C73.1788 303.288 73.1245 303.663 75.2104 304.905C76.1188 305.449 77.1383 306.172 77.7637 306.776C78.5748 307.556 77.0372 308.562 75.4769 308.301Z" fill="#3721A8"/>
<path fill-rule="evenodd" clip-rule="evenodd" d="M33.322 172.797L35.9983 169.649L52.3275 184.083C52.3275 184.083 60.3005 173.593 62.4927 170.317C64.9043 166.715 67.0778 163.634 70.6041 163.032C71.4168 163.528 70.33 176.464 69.9057 176.777C64.9788 180.421 55.3922 192.174 52.3434 192.786C48.8225 193.49 33.322 172.797 33.322 172.797Z" fill="#FDD5CF"/>
<path fill-rule="evenodd" clip-rule="evenodd" d="M72.1341 162.323C72.1341 162.323 68.7391 162.366 67.2805 163.544C65.8205 164.723 58.8493 175.564 58.8493 175.564C58.8493 175.564 58.6707 177.612 60.6827 179.329C62.8355 181.166 65.7041 181.462 65.7041 181.462C65.7041 181.462 69.2032 178.045 71.1761 176.491C72.4047 175.522 72.5265 177.919 72.5265 177.919L78.6966 172.011L72.1341 162.323Z" fill="#3764E5"/>
<path fill-rule="evenodd" clip-rule="evenodd" d="M69.939 161.169C69.7551 161.073 69.5752 160.968 69.4007 160.865C68.4557 160.308 67.5872 159.722 67.1899 158.662C66.6167 157.134 66.3415 154.789 67.1429 153.307C67.6865 152.304 68.7067 151.648 69.4061 150.744C70.3726 149.494 70.6585 147.862 70.7404 146.292C70.8209 144.722 70.727 143.131 71.0612 141.595C71.6317 138.967 72.3901 136.465 74.4413 134.773C77.726 132.061 84.3102 130.455 87.8916 133.478C88.5427 134.029 88.6702 134.469 89.5494 134.554C90.7294 134.667 91.4945 134.815 92.555 135.421C93.7295 136.091 95.1551 137.036 94.99 138.559C94.8745 139.613 93.6624 141.281 92.7496 141.778C92.367 141.986 91.92 142.05 91.4838 142.058C90.0877 142.084 88.9293 141.189 87.5601 141.333C86.8902 141.405 86.2634 141.76 85.8405 142.275C85.3465 142.877 85.4136 143.715 84.8378 144.278C83.9129 145.18 82.4793 145.104 81.3839 145.691C81.2027 145.789 81.0161 145.899 80.9114 146.075C80.8094 146.247 80.8 146.455 80.7919 146.654C80.7704 147.224 80.749 147.794 80.7288 148.363C80.1852 148.127 80.1288 147.363 79.6805 146.979C79.2482 146.609 78.5435 146.71 78.1099 147.08C77.6763 147.448 77.4669 148.011 77.3528 148.565C77.2146 149.231 77.4508 149.936 77.6575 150.605C78.0159 151.766 79.024 152.812 79.8375 152.044C80.4281 152.902 79.7825 154.333 79.761 155.302C79.7435 156.071 79.7583 157.595 80.4859 158.1C81.1557 158.565 82.2162 158.213 82.2578 159.409C82.294 160.504 81.1839 161.36 80.0832 161.494C78.9811 161.628 77.8924 161.245 76.828 160.933C75.7648 160.621 74.5997 160.378 73.5647 160.776C72.9378 161.016 72.3969 161.481 71.7324 161.59C71.1122 161.692 70.5068 161.466 69.939 161.169Z" fill="#4A4488"/>
<path fill-rule="evenodd" clip-rule="evenodd" d="M39.7028 172.621C39.7028 172.621 35.9762 169.586 35.7219 168.755C35.4675 167.923 35.4132 167.034 35.1059 166.222C34.6579 165.035 33.6765 164.09 32.5209 163.607C31.5873 163.216 32.0444 162.895 31.0437 163.092C29.5342 163.388 28.8175 164.892 28.2145 166.068C25.6411 171.081 32.6887 172.031 32.9366 172.04C33.4506 172.061 36.0731 175.082 36.0731 175.082" fill="#FDD5CF"/>
<path fill-rule="evenodd" clip-rule="evenodd" d="M27.9546 170.468L30.4399 172.132C30.7656 172.349 31.2071 172.249 31.4071 171.913L36.8669 162.735L33.6307 160.906L27.7697 169.509C27.5547 169.824 27.6377 170.256 27.9546 170.468Z" fill="#5475D8"/>
<path fill-rule="evenodd" clip-rule="evenodd" d="M18.853 149.658L19.7534 150.273L23.3963 144.948L22.4945 144.331C21.214 143.454 19.3601 143.937 18.3537 145.408C17.3487 146.878 17.5711 148.781 18.853 149.658Z" fill="#9CB4F9"/>
<path fill-rule="evenodd" clip-rule="evenodd" d="M15.5975 156.193L32.3343 158.779L36.1579 153.109L27.7115 138.223L15.5975 156.193Z" fill="#86A2F3"/>
<path fill-rule="evenodd" clip-rule="evenodd" d="M15.5975 156.569L31.7505 158.779L33.322 156.654L19.7268 150.982L15.5975 156.569Z" fill="#6C90F5"/>
<path fill-rule="evenodd" clip-rule="evenodd" d="M39.1004 162.747C40.0249 163.318 41.3639 163.005 42.0915 162.047L42.7931 161.121C43.5194 160.165 43.358 158.925 42.4334 158.355C41.5075 157.785 40.1685 158.098 39.4423 159.055L38.7393 159.982C38.0131 160.939 38.1745 162.177 39.1004 162.747Z" fill="#86A2F3"/>
<path fill-rule="evenodd" clip-rule="evenodd" d="M39.3432 158.982L38.7016 159.923C38.035 160.901 38.185 162.161 39.0305 162.742C39.8772 163.323 41.1004 163.005 41.7658 162.029L42.4074 161.086L42.5387 160.864C41.8558 161.677 40.7477 161.911 39.9635 161.372C39.1794 160.834 38.9955 159.713 39.5008 158.779L39.3432 158.982Z" fill="#6C90F5"/>
<path fill-rule="evenodd" clip-rule="evenodd" d="M13.9422 156.468C14.4793 156.838 15.2553 156.634 15.6763 156.016L27.3865 138.779C27.8076 138.16 27.7145 137.359 27.1773 136.99C26.6416 136.62 25.8656 136.823 25.4445 137.443L13.7343 154.679C13.3133 155.297 13.4064 156.099 13.9422 156.468Z" fill="#6C90F5"/>
<path fill-rule="evenodd" clip-rule="evenodd" d="M27.4798 137.514L17.7259 151.722C17.3047 152.335 16.5286 152.536 15.9913 152.172C15.8658 152.085 15.7686 151.972 15.6916 151.846L13.7344 154.699C13.3132 155.311 13.4064 156.104 13.9423 156.47C14.4795 156.836 15.2556 156.635 15.6768 156.022L27.3894 138.96C27.7107 138.492 27.7282 137.921 27.4798 137.514Z" fill="#5475D8"/>
<path fill-rule="evenodd" clip-rule="evenodd" d="M33.2673 161.761L34.3166 162.493C35.8642 163.573 38.1036 162.979 39.3181 161.167L40.3609 159.614C41.5754 157.802 41.3051 155.458 39.7575 154.379L38.7082 153.648C37.1607 152.567 34.9213 153.161 33.7068 154.973L32.6639 156.527C31.4494 158.338 31.7198 160.682 33.2673 161.761Z" fill="#6C90F5"/>
<path fill-rule="evenodd" clip-rule="evenodd" d="M33.0074 155.944L31.4373 158.344C31.0506 158.935 31.1357 159.701 31.6294 160.054L36.5395 163.565C37.0319 163.918 37.746 163.723 38.1327 163.132L39.7028 160.731C39.3161 161.322 38.6019 161.517 38.1095 161.164L33.1995 157.653C32.7058 157.3 32.622 156.535 33.0074 155.944Z" fill="#5475D8"/>
<path fill-rule="evenodd" clip-rule="evenodd" d="M28.4222 168.056C28.2071 166.675 28.5468 165.358 29.3743 164.36C29.6593 164.016 30.0005 163.71 30.3457 163.41C30.5115 163.265 30.6868 163.117 30.9307 163.06C31.3102 162.969 31.7884 163.112 32.198 163.32C32.6405 163.543 33.0639 163.869 33.2365 164.256C33.5256 164.9 33.0337 165.435 32.4748 165.757L32.335 165.883L32.4309 166.175C32.6844 166.576 32.8844 167.013 32.8323 167.402C32.7789 167.791 32.4049 168.105 31.9021 168.033C31.6979 168.003 31.4253 167.931 31.3582 168.073L31.3541 168.233C31.4089 168.626 31.2965 168.999 31.0389 169.269L30.7882 169.412L30.5252 169.379C30.206 169.299 29.8909 169.172 29.599 169.006" fill="#FDD5CF"/>
<path fill-rule="evenodd" clip-rule="evenodd" d="M35.4489 169.003C35.3662 168.443 35.1891 167.527 35.1703 166.96C35.1195 165.427 34.3898 163.908 33.1997 163.139C33.1017 163.076 32.9907 163.015 32.8798 163.036C32.7381 163.064 32.6389 163.221 32.6188 163.379C32.5976 163.537 32.6377 163.697 32.6814 163.85C32.8196 164.333 33.4347 165.24 33.2446 165.738C32.96 166.482 32.7334 167.29 32.7582 168.106C32.7794 168.829 33.0817 170.002 33.8491 170.12" fill="#FDD5CF"/>
<path fill-rule="evenodd" clip-rule="evenodd" d="M16.3452 130.373L19.6309 137.934C19.7355 138.175 20.0195 138.287 20.2648 138.185C20.5114 138.083 20.6263 137.806 20.5217 137.565L17.236 130.005C17.1314 129.765 16.8474 129.653 16.6021 129.755C16.3555 129.857 16.2406 130.134 16.3452 130.373Z" fill="#9CB4F9"/>
<path fill-rule="evenodd" clip-rule="evenodd" d="M9.41365 137.73L16.2306 143.082C16.4476 143.252 16.7548 143.206 16.9169 142.98C17.0803 142.752 17.0358 142.431 16.8189 142.261L10.0006 136.908C9.78489 136.737 9.4777 136.784 9.3143 137.011C9.15221 137.237 9.19666 137.56 9.41365 137.73Z" fill="#9CB4F9"/>
<path fill-rule="evenodd" clip-rule="evenodd" d="M4.68526 147.876L12.9462 148.853C13.2085 148.883 13.4416 148.653 13.4683 148.337C13.4938 148.02 13.3015 147.739 13.0391 147.709L4.77823 146.732C4.5159 146.7 4.28158 146.931 4.25611 147.247C4.23064 147.563 4.42293 147.845 4.68526 147.876Z" fill="#9CB4F9"/>
<path fill-rule="evenodd" clip-rule="evenodd" d="M282.882 62.5649C282.882 62.5649 279.721 60.3359 279.608 59.4004C279.496 58.4635 277.292 54.6713 276.587 53.9161C275.883 53.1609 272.176 51.8783 271.386 51.7644C270.597 51.6519 266.06 52.0369 266.624 52.6552C267.189 53.2735 270.125 53.0484 270.689 53.3873C271.254 53.7249 271.254 53.7249 271.254 53.7249C271.254 53.7249 270.689 54.4896 270.914 54.9533C271.141 55.417 269.946 56.1302 270.397 56.9193C270.849 57.7097 270.214 57.6541 270.619 58.4784C271.286 59.8397 272.994 60.5976 273.446 60.2261C273.785 61.0315 275.081 62.6747 276.295 62.5622C277.511 62.4483 280.46 65.2128 280.46 65.2128L282.882 62.5649Z" fill="#F1B2A8"/>
<path fill-rule="evenodd" clip-rule="evenodd" d="M330.103 46.7831C330.21 48.9568 330.06 52.7418 330.665 53.3029C331.269 53.8627 333.22 53.7766 333.22 53.7766C333.22 53.7766 326.245 62.8563 325.621 62.3576C324.998 61.8576 316.748 54.9377 318.602 54.5794C320.456 54.2224 322.27 54.2988 322.218 53.3113C322.165 52.3237 322.112 51.3347 322.06 50.3472L330.103 46.7831Z" fill="#F1B2A8"/>
<path fill-rule="evenodd" clip-rule="evenodd" d="M337.67 94.0942C337.67 94.0942 324.371 95.6266 321.311 95.6909C318.25 95.7551 318.401 94.1317 318.401 94.1317C318.246 90.7109 317.675 82.65 317.041 79.9184C316.45 77.3675 316.188 76.4253 315.674 74.0016C314.53 68.6147 314.58 67.5855 313.368 60.9366L321.311 54.455C321.311 54.455 322.133 56.9349 325.462 56.9778C329.912 57.0353 331.296 53.8715 331.296 53.8715L342.129 61.1735L343.145 78.9361L341.85 93.5643L337.67 94.0942Z" fill="#A4BAF7"/>
<path fill-rule="evenodd" clip-rule="evenodd" d="M330.485 45.206C330.236 46.2703 329.913 47.3184 329.518 48.3381C328.793 50.2073 327.726 50.8799 325.734 50.9272C324.333 50.9596 322.933 50.9934 321.533 51.0258C320.458 51.0515 319.12 51.0879 318.253 50.3383C317.392 49.5955 317.373 48.3462 317.182 47.317C316.939 46.0015 316.739 44.6765 316.587 43.3475C316.286 40.7436 316.162 38.1193 316.217 35.4991C316.224 35.1385 316.234 34.7765 316.311 34.4254C316.342 34.2822 316.387 34.1336 316.49 34.031C316.621 33.9013 316.814 33.8662 316.995 33.8379C319.618 33.4273 322.281 33.2571 324.935 33.3327C326.811 33.3854 328.797 33.6028 330.282 34.7428C331.776 35.8894 332.484 37.7533 333.123 39.5185C333.225 39.8022 333.302 40.1803 333.054 40.3532" fill="#F1B2A8"/>
<path fill-rule="evenodd" clip-rule="evenodd" d="M301.316 142.159C301.316 142.159 301.749 144.746 302.095 145.63C302.441 146.513 305.355 145.699 305.547 145.127C305.74 144.555 304.63 140.349 304.63 140.349" fill="#E49679"/>
<path fill-rule="evenodd" clip-rule="evenodd" d="M306.371 145.684C306.643 146.681 306.988 148.596 306.988 148.596L303.84 149.917L303.324 149.45C303.324 149.45 302.545 150.362 301.578 150.792C300.862 151.112 299.318 151.524 298.533 151.607C295.785 151.891 293.764 151.393 293.602 151.027C292.919 149.492 296.565 149.08 297.288 148.897C299.365 148.369 300.519 146.67 300.74 145.561C300.901 144.758 300.694 144.616 301.16 144.642C301.16 144.642 301.568 144.62 301.947 144.998C302.529 145.575 303.404 145.839 304.183 145.498C304.628 145.304 305.05 145.018 305.298 144.602C305.298 144.602 306.099 144.686 306.371 145.684Z" fill="#322A65"/>
<path fill-rule="evenodd" clip-rule="evenodd" d="M314.093 106.848C309.374 107.768 303.451 107.835 298.683 107.21C299.35 109.107 300.984 111.537 301.607 114.206C303.663 123.025 304.377 134.871 304.899 142.198C304.899 142.198 303.912 144.079 300.748 142.647C296.022 131.066 287.769 107.595 287.846 102.503C287.944 96.0206 304.252 94.455 316.204 92.8574L314.093 106.848Z" fill="#2046B2"/>
<path fill-rule="evenodd" clip-rule="evenodd" d="M334.959 93.4209C338.692 96.2584 314.265 106.948 314.265 106.948C311.557 107.503 308.918 107.75 306.26 107.743C306.008 107.239 305.772 106.722 305.664 106.167C305.52 105.428 305.598 104.66 305.474 103.919C305.232 102.474 304.237 101.255 303.033 100.494C301.829 99.7341 300.431 99.3817 299.041 99.1486C295.738 98.5935 289.972 98.9821 289.972 98.9821C297.314 93.3488 312.334 92.612 319.33 92.1486C320.227 93.6873 326.693 93.5527 331.026 93.4195C333.163 93.3529 334.781 93.2863 334.959 93.4209Z" fill="#113394"/>
<path fill-rule="evenodd" clip-rule="evenodd" d="M309.115 148.008C309.115 148.008 309.093 150.781 309.269 151.765C309.445 152.748 312.282 152.432 312.554 151.871C312.826 151.311 312.487 146.729 312.487 146.729" fill="#E49679"/>
<path fill-rule="evenodd" clip-rule="evenodd" d="M313.994 152.883C314.083 153.9 314.077 155.819 314.077 155.819L310.785 156.585L310.365 156.044C310.365 156.044 309.446 156.804 308.431 157.062C307.678 157.254 306.104 157.402 305.325 157.351C302.606 157.176 300.73 156.357 300.636 155.974C300.246 154.368 303.861 154.569 304.597 154.51C306.709 154.34 308.132 152.877 308.543 151.835C308.843 151.079 308.667 150.907 309.116 151.008C309.116 151.008 309.516 151.056 309.817 151.485C310.28 152.144 311.083 152.545 311.902 152.341C312.368 152.225 312.829 152.018 313.144 151.655C313.144 151.655 313.907 151.868 313.994 152.883Z" fill="#322A65"/>
<path fill-rule="evenodd" clip-rule="evenodd" d="M342.441 93.5663C342.441 93.5663 334.851 94.3045 325.629 94.093C323.481 94.0917 307.24 97.0858 305.687 99.7885C303.132 104.235 307.354 130.221 306.963 148.826C306.963 148.826 308.91 150.422 312.354 148.921C313.21 139.782 318.708 118.223 314.914 108.158C323.868 109.325 331.092 110.484 339.23 107.834C341.136 107.215 342.56 105.892 343.417 103.473C344.276 101.045 343.828 95.737 342.441 93.5663Z" fill="#2951C3"/>
<path fill-rule="evenodd" clip-rule="evenodd" d="M321.876 53.8715C321.876 53.8715 319.944 53.9764 319.568 54.0069C317.956 54.1331 316.317 54.3429 314.792 54.902C312.602 55.7055 311.056 57.7242 309.273 59.3032C307.556 60.8225 298.657 69.2226 296.998 69.532C295.337 69.8428 280.767 59.95 280.767 59.95L277.21 63.4747C277.21 63.4747 293.021 77.9466 297.735 77.9718C300.022 77.9838 312.644 71.4019 316.683 68.8441L321.876 53.8715Z" fill="#A4BAF7"/>
<path fill-rule="evenodd" clip-rule="evenodd" d="M310.006 73.01C309.937 73.0047 309.865 73.0021 309.795 73.0021H303.443C308.452 69.9619 314.68 65.2128 314.68 65.2128L315.495 69.9998L314.134 70.7771C312.914 71.4631 311.494 72.2326 310.006 73.01Z" fill="#8EA6E9"/>
<path fill-rule="evenodd" clip-rule="evenodd" d="M292.099 73.01H288.234C282.738 68.8511 277.21 63.7732 277.21 63.7732L277.901 63.0863C279.09 63.9946 286.52 69.6381 292.099 73.01Z" fill="#8EA6E9"/>
<path fill-rule="evenodd" clip-rule="evenodd" d="M282.777 96.4016H318.331L311.859 74.9984C311.502 73.8157 310.426 73.01 309.206 73.01H277.594C276.383 73.01 275.518 74.1968 275.873 75.3701L282.073 95.8753C282.168 96.1886 282.453 96.4016 282.777 96.4016Z" fill="#726AA2"/>
<path fill-rule="evenodd" clip-rule="evenodd" d="M325.282 94.2751C323.41 94.2375 321.652 94.1073 320.458 93.7893C326.38 91.0449 328.931 87.451 335.076 85.026C335.577 79.1977 335.892 72.8165 337.664 64.6638L331.988 53.8715L332.244 54.0432L333.188 54.6807L342.837 61.1934L343.854 79.0044L342.856 90.2799C342.55 91.5656 342.281 92.3372 342.084 92.3922C341.676 92.5063 338.991 93.2619 335.564 94.1194C335.148 94.1355 334.718 94.1516 334.276 94.165C334.113 94.1476 333.869 94.1409 333.559 94.1409C332.855 94.1409 331.81 94.1771 330.594 94.2147C330.281 94.2241 329.955 94.2335 329.622 94.2415C329.572 94.2415 329.522 94.2415 329.471 94.2415C328.403 94.2415 327.298 94.2308 326.168 94.2039H326.166C325.978 94.2039 325.675 94.2281 325.282 94.2751Z" fill="#8EA6E9"/>
<path fill-rule="evenodd" clip-rule="evenodd" d="M320.616 95.1226C319.94 94.3646 318.707 94.2541 317.62 94.2779C316.816 94.2957 316.012 94.3527 315.214 94.449C314.851 94.4929 314.432 94.569 314.395 94.9194C314.356 95.2699 316.158 94.9194 317.103 95.163C315.253 95.3043 313.392 95.3483 311.535 95.2972C311.319 95.2913 311.095 95.2841 310.895 95.3554C310.693 95.4267 310.52 95.5978 310.533 95.7902C310.544 95.9411 310.663 96.067 310.788 96.168C311.307 96.5826 312.017 96.7478 312.703 96.8547C315.543 97.2966 318.527 97.2206 321.167 96.1894" fill="#F1B2A8"/>
<path fill-rule="evenodd" clip-rule="evenodd" d="M337.717 63.8683C337.568 72.6364 336.953 76.6492 337.121 85.4174C332.767 86.3584 326.739 91.342 320.574 94.1166C320.574 94.1166 320.208 95.3534 320.778 96.3971C321.248 96.5713 341.574 91.5688 343.19 90.0634C344.645 88.7078 346.569 72.2732 346.688 61.7647C346.704 60.2727 346.653 58.6525 345.729 57.4886C345.243 56.8756 344.562 56.4557 343.87 56.0979C339.85 54.02 336.871 53.4529 332.365 53.1626" fill="#A4BAF7"/>
<path fill-rule="evenodd" clip-rule="evenodd" d="M295.873 88.6044C294.373 88.6031 292.985 88.2153 291.915 87.5537C290.853 86.8974 290.068 85.9284 289.979 84.7519L289.972 84.5547C289.973 83.4158 290.669 82.4494 291.653 81.8151C292.644 81.1743 293.958 80.8085 295.415 80.8073C296.914 80.8085 298.303 81.1964 299.373 81.8579C300.435 82.5143 301.22 83.4833 301.308 84.6611L300.656 84.7065L301.308 84.6611L301.316 84.857C301.314 85.9959 300.619 86.9622 299.635 87.5966C298.643 88.2373 297.33 88.6031 295.873 88.6044ZM295.873 87.3086C295.876 87.3086 295.878 87.3086 295.882 87.3086C297.11 87.3086 298.188 86.9869 298.917 86.5108C299.654 86.027 300.006 85.4433 300.006 84.857L300.003 84.7506C299.963 84.1332 299.513 83.4768 298.678 82.9566C297.853 82.443 296.687 82.1044 295.423 82.1044C295.42 82.1044 295.417 82.1044 295.415 82.1044C295.412 82.1044 295.41 82.1044 295.406 82.1044C294.178 82.1044 293.1 82.4248 292.371 82.9009C291.634 83.3847 291.281 83.9684 291.281 84.5547L291.285 84.6611C291.323 85.2785 291.774 85.9362 292.61 86.4551C293.435 86.9687 294.6 87.3086 295.865 87.3086C295.868 87.3086 295.87 87.3086 295.873 87.3086Z" fill="#8681B0"/>
<path fill-rule="evenodd" clip-rule="evenodd" d="M299.185 84.7064C299.267 85.6849 297.906 86.4779 296.145 86.4779C294.385 86.4779 292.893 85.6849 292.811 84.7064C292.731 83.7267 294.092 82.9337 295.853 82.9337C297.613 82.9337 299.105 83.7267 299.185 84.7064Z" fill="#A09CC1"/>
<path fill-rule="evenodd" clip-rule="evenodd" d="M323.687 42.1211C323.536 43.1539 323.169 43.6504 322.169 43.7738C320.752 43.9493 320.479 43.3733 320.27 42.678C320.059 41.9826 319.989 41.4025 320.005 41.242C320.048 40.8073 320.345 40.7497 321.238 40.5741C322.13 40.3999 323.322 40.1873 323.498 40.3794C323.674 40.5714 323.818 41.2214 323.687 42.1211ZM318.498 42.907C318.462 43.6339 318.109 44.3004 317.325 44.4019C316.595 44.4966 316.261 44.0961 315.865 43.1347C315.523 42.2967 315.506 41.6302 315.63 41.3984C315.753 41.168 316.148 41.1762 317.053 41.1172C317.96 41.0582 318.263 41.0377 318.409 41.4491C318.464 41.6 318.534 42.1801 318.498 42.907ZM324.278 40.0392C324.21 39.706 323.493 39.6401 322.771 39.7334C322.05 39.8266 320.127 40.0763 319.733 40.3931C319.337 40.7099 319.361 40.9389 319.15 40.9622C318.943 40.9856 318.928 40.7634 318.469 40.5563C318.01 40.3506 316.9 40.4946 316.178 40.5878C315.458 40.6811 314.772 40.8457 314.787 41.1858C314.801 41.5245 314.928 42.117 315.076 42.2117C315.222 42.3063 315.222 42.2898 315.789 43.6325C316.106 44.3827 316.592 44.8134 317.526 44.6035C318.713 44.3375 318.787 42.9454 318.879 42.3639C318.971 41.7824 319.056 41.696 319.236 41.6727C319.42 41.648 319.541 41.7083 319.769 42.2487C319.998 42.7891 320.163 44.0344 321.379 44.1043C322.97 44.1962 323.66 43.6353 323.881 42.5847C324.18 41.1597 324.112 41.1542 324.232 41.0253L325.421 41.1296L325.394 40.7044L324.278 40.0392Z" fill="#3E367F"/>
<path fill-rule="evenodd" clip-rule="evenodd" d="M333.813 37.5663C333.726 36.8109 333.592 36.0759 333.41 35.3792C332.917 33.4736 331.761 31.8562 330.031 30.9136C327.826 29.7101 324.798 29.4629 322.384 30.1459C320.984 30.5407 320.465 31.2838 319.744 31.2633C319.191 31.2469 318.501 30.8726 317.786 30.6131C312.315 28.6309 313.232 34.0296 313.815 35.5117C314.074 36.1675 315.314 36.6442 315.479 36.9174C315.644 37.1906 315.627 38.5253 315.731 39.114C315.837 39.7014 316.413 39.9255 316.413 39.9255C316.413 39.9255 316.443 38.1878 316.47 37.9515C316.543 37.3327 316.745 36.6906 317.279 36.3245C317.836 35.9421 318.599 35.8819 319.246 35.7672C319.921 35.6484 323.062 36.2576 323.273 36.4393C324.294 37.3231 324.557 39.3394 324.845 40.5238C324.977 41.0784 325.117 41.45 325.34 41.4418C325.51 39.8093 326.072 39.7684 327.041 40.3257C327.558 40.6235 327.848 41.6576 327.865 42.5332C327.885 43.5701 327.311 44.7121 326.232 44.9443C325.846 45.0263 327.011 47.253 327.551 47.8089C327.728 47.992 327.903 48.1832 328.121 48.3144C328.323 48.4346 328.554 48.4988 328.78 48.5603C329.041 48.6313 329.302 48.7037 329.562 48.7747C329.914 48.8704 330.287 48.9673 330.636 48.8676C331.214 48.7037 331.519 48.0862 331.779 47.5412C332.206 46.6478 332.698 45.7817 333.047 44.8528C333.871 42.6658 334.095 40.0129 333.813 37.5663Z" fill="#3E367F"/>
<path fill-rule="evenodd" clip-rule="evenodd" d="M282.234 96.4016H318.331L311.858 74.9984C311.501 73.8157 310.425 73.01 309.207 73.01H277.594C276.384 73.01 275.518 74.1968 275.873 75.3701L282.234 96.4016Z" fill="#7190EA"/>
<path fill-rule="evenodd" clip-rule="evenodd" d="M332.055 54.2082L331.093 53.5348C331.519 53.5986 331.954 53.6099 332.227 53.6099C332.402 53.6099 332.511 53.6057 332.511 53.6057C332.511 53.6057 332.341 53.8297 332.055 54.2082Z" fill="#E89284"/>
<path fill-rule="evenodd" clip-rule="evenodd" d="M430.125 117.667H361.579L369.787 111.563V81.7649C369.787 79.2787 371.793 77.2631 374.266 77.2631H430.125C432.598 77.2631 434.604 79.2787 434.604 81.7649V113.165C434.604 115.651 432.598 117.667 430.125 117.667Z" fill="#587FED"/>
<path fill-rule="evenodd" clip-rule="evenodd" d="M397.737 85.7691H428.932V82.9337H397.737V85.7691Z" fill="#A4C7FF"/>
<path fill-rule="evenodd" clip-rule="evenodd" d="M397.737 90.731H428.932V87.8956H397.737V90.731Z" fill="#A4C7FF"/>
<path fill-rule="evenodd" clip-rule="evenodd" d="M397.737 94.9839H428.932V92.1486H397.737V94.9839Z" fill="#A4C7FF"/>
<path fill-rule="evenodd" clip-rule="evenodd" d="M397.737 99.237H428.932V96.4016H397.737V99.237Z" fill="#A4C7FF"/>
<path fill-rule="evenodd" clip-rule="evenodd" d="M397.737 104.199H419.715V101.363H397.737V104.199Z" fill="#A4C7FF"/>
<path fill-rule="evenodd" clip-rule="evenodd" d="M391.029 105.616H380.339C377.81 105.616 375.759 103.613 375.759 101.14V87.4115C375.759 84.9386 377.81 82.9337 380.339 82.9337H391.029C393.558 82.9337 395.61 84.9386 395.61 87.4115V101.14C395.61 103.613 393.558 105.616 391.029 105.616Z" fill="#B5C9FF"/>
<path fill-rule="evenodd" clip-rule="evenodd" d="M375.759 110.578H395.61V108.452H375.759V110.578Z" fill="#A4C7FF"/>
<path fill-rule="evenodd" clip-rule="evenodd" d="M387.029 97.8192H380.087C379.696 97.8192 379.353 97.5682 379.251 97.2074L377.916 92.4848C377.767 91.9579 378.182 91.4397 378.752 91.4397H388.362C388.934 91.4397 389.348 91.9579 389.198 92.4848L387.863 97.2074C387.761 97.5682 387.418 97.8192 387.029 97.8192Z" fill="#FFFFFE"/>
<path fill-rule="evenodd" clip-rule="evenodd" d="M388.995 99.2369H380.194L380.012 99.0645L380.194 98.8908H388.858L391.921 88.7298L392.096 88.6044H394.011L394.192 88.7768L394.011 88.9505H392.233L389.17 99.1115L388.995 99.2369Z" fill="#FFFFFE"/>
<path fill-rule="evenodd" clip-rule="evenodd" d="M381.43 100.3C381.43 100.888 380.954 101.363 380.366 101.363C379.779 101.363 379.303 100.888 379.303 100.3C379.303 99.7127 379.779 99.2369 380.366 99.2369C380.954 99.2369 381.43 99.7127 381.43 100.3Z" fill="#FFFFFE"/>
<path fill-rule="evenodd" clip-rule="evenodd" d="M388.52 100.3C388.52 100.888 388.044 101.363 387.456 101.363C386.869 101.363 386.393 100.888 386.393 100.3C386.393 99.7127 386.869 99.2369 387.456 99.2369C388.044 99.2369 388.52 99.7127 388.52 100.3Z" fill="#FFFFFE"/>
<path fill-rule="evenodd" clip-rule="evenodd" d="M177.269 76.5542H264.449L254.008 68.8501V21.275C254.008 18.1375 251.458 15.5944 248.311 15.5944H177.269C174.124 15.5944 171.573 18.1375 171.573 21.275V70.8723C171.573 74.0098 174.124 76.5542 177.269 76.5542Z" fill="#587FED"/>
<path fill-rule="evenodd" clip-rule="evenodd" d="M178.663 27.6446H218.365V24.1004H178.663V27.6446Z" fill="#A4C7FF"/>
<path fill-rule="evenodd" clip-rule="evenodd" d="M178.663 33.3152H218.365V29.7711H178.663V33.3152Z" fill="#A4C7FF"/>
<path fill-rule="evenodd" clip-rule="evenodd" d="M178.663 38.9859H218.365V35.4418H178.663V38.9859Z" fill="#A4C7FF"/>
<path fill-rule="evenodd" clip-rule="evenodd" d="M178.663 44.6566H218.365V41.1124H178.663V44.6566Z" fill="#A4C7FF"/>
<path fill-rule="evenodd" clip-rule="evenodd" d="M178.663 50.3273H218.365V46.7831H178.663V50.3273Z" fill="#A4C7FF"/>
<path fill-rule="evenodd" clip-rule="evenodd" d="M178.663 60.251H218.365V56.7068H178.663V60.251Z" fill="#A4C7FF"/>
<path fill-rule="evenodd" clip-rule="evenodd" d="M178.663 66.6305H246.724V63.0863H178.663V66.6305Z" fill="#A4C7FF"/>
<path fill-rule="evenodd" clip-rule="evenodd" d="M227.637 53.1627H240.998C244.161 53.1627 246.724 50.5946 246.724 47.4268V29.8363C246.724 26.6684 244.161 24.1004 240.998 24.1004H227.637C224.474 24.1004 221.91 26.6684 221.91 29.8363V47.4268C221.91 50.5946 224.474 53.1627 227.637 53.1627Z" fill="#B5C9FF"/>
<path fill-rule="evenodd" clip-rule="evenodd" d="M221.91 59.5421H246.724V56.7068H221.91V59.5421Z" fill="#A4C7FF"/>
<path fill-rule="evenodd" clip-rule="evenodd" d="M231.889 43.2389H240.999C241.512 43.2389 241.962 42.9044 242.097 42.4222L243.848 36.1273C244.044 35.4242 243.5 34.7329 242.752 34.7329H230.136C229.388 34.7329 228.844 35.4242 229.04 36.1273L230.792 42.4222C230.926 42.9044 231.376 43.2389 231.889 43.2389Z" fill="#FFFFFE"/>
<path fill-rule="evenodd" clip-rule="evenodd" d="M230.533 44.6566H241.534C241.661 44.6566 241.762 44.5541 241.762 44.427C241.762 44.2999 241.661 44.196 241.534 44.196H230.704L226.876 30.6467L226.658 30.4799H224.265C224.14 30.4799 224.037 30.5824 224.037 30.7096C224.037 30.8367 224.14 30.9406 224.265 30.9406H226.487L230.315 44.4899L230.533 44.6566Z" fill="#FFFFFE"/>
<path fill-rule="evenodd" clip-rule="evenodd" d="M238.926 46.075C238.926 46.8574 239.56 47.492 240.343 47.492C241.127 47.492 241.762 46.8574 241.762 46.075C241.762 45.2912 241.127 44.6566 240.343 44.6566C239.56 44.6566 238.926 45.2912 238.926 46.075Z" fill="#FFFFFE"/>
<path fill-rule="evenodd" clip-rule="evenodd" d="M229.709 46.075C229.709 46.8574 230.344 47.492 231.126 47.492C231.91 47.492 232.545 46.8574 232.545 46.075C232.545 45.2912 231.91 44.6566 231.126 44.6566C230.344 44.6566 229.709 45.2912 229.709 46.075Z" fill="#FFFFFE"/>
<path fill-rule="evenodd" clip-rule="evenodd" d="M416.17 322.874C416.17 325.028 399.03 326.773 377.885 326.773C356.741 326.773 339.601 325.028 339.601 322.874C339.601 320.721 356.741 318.976 377.885 318.976C399.03 318.976 416.17 320.721 416.17 322.874Z" fill="#CDDAFF"/>
<path fill-rule="evenodd" clip-rule="evenodd" d="M357.23 317.169C356.899 317.754 355.317 319.105 353.124 319.995C350.934 320.885 346.287 321.303 348.868 322.087C351.448 322.87 354.457 322.396 355.982 322.174C357.506 321.95 358.983 321.921 360.781 321.911C363.152 321.896 363.171 321.763 362.852 319.333C362.411 315.989 358.297 315.28 357.23 317.169Z" fill="#989BC1"/>
<path fill-rule="evenodd" clip-rule="evenodd" d="M399.27 315.696C399.142 316.386 400.164 318.478 398.336 320.013C396.509 321.546 392.356 323.165 395.108 323.225C397.86 323.286 400.499 322.674 401.901 322.012C403.299 321.349 402.183 320.305 403.919 319.781C406.205 319.089 405.733 317.476 404.545 316.479C403.022 313.194 399.682 313.464 399.27 315.696Z" fill="#989BC1"/>
<path fill-rule="evenodd" clip-rule="evenodd" d="M389.72 242.422C389.72 242.422 395.143 226.486 379.758 213.359C379.758 213.359 371.514 216.64 364.912 217.036C359.712 217.348 357.073 216.869 357.073 216.869C357.073 216.869 356.635 231.026 356.616 238.656L389.72 242.422Z" fill="#2951C3"/>
<path fill-rule="evenodd" clip-rule="evenodd" d="M355.915 269.571C355.627 262.344 363.124 263.291 365.889 268.69C371.607 279.854 363.78 305.566 362.746 317.749C361.671 318.184 359.869 318.523 358.788 318.006C358.042 317.651 357.638 316.677 357.638 316.677C357.804 301.732 356.224 277.298 355.915 269.571Z" fill="#2951C3"/>
<path fill-rule="evenodd" clip-rule="evenodd" d="M365.468 270.802C364.554 273.752 354.424 276.857 355.246 266.116C355.609 261.353 356.579 235.05 356.767 232.515C356.955 229.979 357.384 226.273 358.624 225.812C364.831 223.498 375.811 231.51 374.177 241.031C373.087 247.396 367.36 264.683 365.468 270.802Z" fill="#2951C3"/>
<path fill-rule="evenodd" clip-rule="evenodd" d="M381.18 274.932C378.726 268.088 386.702 266.877 391.225 271.093C401.819 280.967 402.23 304.234 404.827 316.243C403.353 317.24 401.013 317.598 400.195 317.555C399.327 317.508 398.932 316.916 398.932 316.916C394.628 302.527 383.807 282.249 381.18 274.932Z" fill="#2951C3"/>
<path fill-rule="evenodd" clip-rule="evenodd" d="M391.349 272.375C391.626 275.449 383.181 281.802 379.856 271.541C378.381 266.989 372.068 240.094 371.278 237.674C370.487 235.252 370.703 230.257 371.678 229.368C376.552 224.921 387.554 228.832 389.662 238.264C391.074 244.57 390.776 266 391.349 272.375Z" fill="#2951C3"/>
<path fill-rule="evenodd" clip-rule="evenodd" d="M348.817 154.401C349.089 154.092 349.361 153.784 349.603 153.449C351.492 150.853 351.767 148.551 353.517 145.538C353.77 145.104 354.121 143.955 354.789 142.923C355.489 141.843 357.188 140.668 357.629 140.42C358.447 139.961 357.744 141.898 357.744 141.898C357.744 141.898 358.438 140.816 359.109 140.893C359.37 140.923 359.416 142.575 359.42 142.857C359.453 145.126 358.956 147.401 357.986 149.416C357.758 149.888 357.499 150.373 357.498 150.905C358.12 150.891 358.643 150.428 359.146 150.033C359.649 149.639 360.281 149.277 360.87 149.493C360.787 149.763 360.662 150.015 360.538 150.268C359.792 151.773 358.954 153.375 357.521 154.107C356.664 154.543 355.673 154.621 354.836 155.1C353.325 155.963 352.59 157.962 351.056 158.779" fill="#F9C7C0"/>
<path fill-rule="evenodd" clip-rule="evenodd" d="M358.318 155.166L353.601 153.128C353.162 152.937 352.955 152.415 353.138 151.961L357.33 141.606C357.514 141.152 358.019 140.938 358.46 141.127L363.175 143.166C363.615 143.356 363.823 143.878 363.639 144.332L359.447 154.687C359.263 155.141 358.758 155.355 358.318 155.166Z" fill="#595795"/>
<path fill-rule="evenodd" clip-rule="evenodd" d="M358.845 154.526L353.78 152.407L357.933 142.476L362.997 144.595L358.845 154.526Z" fill="#AEADCB"/>
<path fill-rule="evenodd" clip-rule="evenodd" d="M362.997 164.911C362.997 164.911 359 165.118 355.434 166.189C350.053 167.805 348.202 170.298 346.343 171.328C349.955 166.739 353.98 157.006 353.98 157.006C353.98 157.006 349.125 153.018 348.567 153.962C348.009 154.906 327.633 178.756 328.272 182.618C328.535 184.21 330.894 185.784 332.979 185.713C338.756 185.514 345.465 183.411 352.5 181.109C355.591 180.097 356.545 182.278 356.545 182.278" fill="#3764E5"/>
<path fill-rule="evenodd" clip-rule="evenodd" d="M346.728 171.102C346.728 171.102 344.082 176.124 343.288 176.451C342.494 176.778 345.216 175.405 346.706 173.956C348.195 172.506 350.235 168.703 350.235 168.703C349.453 169.004 346.728 171.102 346.728 171.102Z" fill="#284DBB"/>
<path fill-rule="evenodd" clip-rule="evenodd" d="M354.683 146.02C354.918 146.189 354.98 146.509 355.025 146.796C355.191 147.888 355.35 149.046 354.932 150.066C354.659 150.726 354.164 151.269 353.631 151.74C353.028 152.273 352.362 152.733 351.653 153.108" fill="#F9C7C0"/>
<path fill-rule="evenodd" clip-rule="evenodd" d="M362.935 136.805C361.639 137.202 360.955 138.979 360.515 140.196C359.985 141.66 359.721 143.218 359.547 144.77C359.426 145.852 359.353 146.988 359.757 147.988C359.964 148.499 360.284 148.946 360.603 149.388C360.783 149.638 360.966 149.892 361.212 150.07C361.457 150.247 361.778 150.336 362.055 150.222C362.459 150.058 362.621 149.554 362.735 149.111C363.481 146.222 364.298 143.301 365.833 140.786" fill="#181639"/>
<path fill-rule="evenodd" clip-rule="evenodd" d="M361.579 146.367C361.55 145.442 360.553 144.839 359.69 145.796C358.975 146.588 358.785 148.091 358.745 149.203C358.695 150.535 359.754 150.795 360.622 150.982" fill="#F9C7C0"/>
<path fill-rule="evenodd" clip-rule="evenodd" d="M352.966 170.076C354.642 168.138 359.961 164.944 367.071 165.17C371.969 165.326 385.31 166.141 386.8 169.444C387.563 171.133 388.381 188.425 387.265 194.386C386.426 198.87 384.28 209.976 384.28 212.657C384.28 215.338 385.708 216.485 385.042 217.264C383.549 219.008 373.341 219.739 368.549 219.739C364.284 219.739 357.023 218.593 356.655 217.215C356.109 215.171 357.488 215.247 357.675 213.104C357.861 210.961 358.401 197.047 357.617 194.77C356.204 190.659 355.518 183.954 354.397 180.914C353.545 178.606 351.29 172.013 352.966 170.076Z" fill="#3764E5"/>
<path fill-rule="evenodd" clip-rule="evenodd" d="M383.599 182.989C384.121 184.054 387.668 189.64 387.668 189.64L387.811 190.309C387.724 191.465 387.607 192.486 387.451 193.293C386.589 197.769 384.384 208.856 384.384 211.532C384.384 214.208 385.789 215.306 385.167 216.132C383.958 217.737 364.186 221.346 365.159 216.865C365.247 216.46 381.754 204.121 381.842 203.708C382.602 200.168 383.266 197.616 383.599 195.034C384.402 188.821 383.078 181.924 383.599 182.989Z" fill="#2955D2"/>
<path fill-rule="evenodd" clip-rule="evenodd" d="M362.482 158.112C362.482 158.112 362.437 163.813 362.21 164.043C361.983 164.274 360.87 164.806 360.87 164.806C360.87 164.806 361.663 169.76 362.889 169.392C364.117 169.024 372.214 164.884 372.214 164.884C372.214 164.884 371.065 164.411 371.065 163.952C371.065 163.492 372.155 154.526 372.155 154.526" fill="#FDD5CF"/>
<path fill-rule="evenodd" clip-rule="evenodd" d="M368.383 137.514C367.166 137.839 363.963 137.189 363.079 138.487C362.194 139.784 361.421 142.92 361.089 143.785C360.429 145.506 359.999 147.347 359.52 149.122C358.895 151.435 357.865 155.672 360.178 157.607C360.843 158.164 361.14 158.348 361.962 158.494C363.058 158.687 364.147 158.907 365.242 159.099C366.94 159.397 368.819 159.744 370.505 159.209C372.757 158.494 373.991 155.464 374.571 153.408L377.885 141.622L368.383 137.514Z" fill="#FDD5CF"/>
<path fill-rule="evenodd" clip-rule="evenodd" d="M362.258 171.538C362.258 171.538 361.777 193.847 360.87 207.418L364.149 211.942L366.403 206.276C366.403 206.276 367.355 189.909 364.271 171.694L362.258 171.538Z" fill="#342B64"/>
<path fill-rule="evenodd" clip-rule="evenodd" d="M361.579 170.119L361.655 170.427C361.798 171.012 362.023 171.572 362.322 172.091L364.301 172.247C364.301 172.247 365.645 171.525 365.823 170.75C366.001 169.974 363.615 168.703 363.615 168.703L363.326 168.82C362.658 169.089 362.065 169.526 361.604 170.089L361.579 170.119Z" fill="#342B64"/>
<path fill-rule="evenodd" clip-rule="evenodd" d="M372.07 163.032C372.07 163.032 373.344 163.817 374.341 165.319C373.317 167.646 371.003 171.781 368.455 173.665C367.264 170.49 364.415 168.644 364.415 168.644C364.415 168.644 371.358 167.417 372.07 163.032Z" fill="#FFFFFE"/>
<path fill-rule="evenodd" clip-rule="evenodd" d="M364.415 168.734C364.415 168.734 361.819 169.655 360.278 172.247C360.278 172.247 359.78 168.739 360.84 165.727C360.84 165.727 362.543 163.781 363.133 163.741C362.89 166.221 364.415 168.734 364.415 168.734Z" fill="#FFFFFE"/>
<path fill-rule="evenodd" clip-rule="evenodd" d="M364.369 217.612C361.933 217.998 361.033 218.949 359.66 220.373C359.548 220.49 359.43 220.635 359.455 220.799C359.487 221.003 359.715 221.094 359.91 221.126C361.041 221.318 361.224 220.558 362.282 220.095C362.996 219.781 363.705 219.457 364.415 219.131" fill="#FDD5CF"/>
<path fill-rule="evenodd" clip-rule="evenodd" d="M355.73 199.641L364.351 227.394C364.582 228.138 364.162 228.781 363.438 228.786L345.448 230.371C344.803 230.377 344.147 229.868 343.94 229.205L334.67 201.874C334.439 201.13 335.508 200.065 336.232 200.059L354.221 198.474C354.866 198.469 355.523 198.976 355.73 199.641Z" fill="#B7CAFF"/>
<path fill-rule="evenodd" clip-rule="evenodd" d="M355.132 200.365L363.642 228.061C363.873 228.817 363.452 229.468 362.728 229.473L344.72 231.08C344.075 231.084 343.419 230.57 343.212 229.898L334.702 202.202C334.469 201.446 334.892 200.795 335.616 200.79L353.622 199.183C354.269 199.179 354.925 199.693 355.132 200.365Z" fill="#8BA9FF"/>
<path fill-rule="evenodd" clip-rule="evenodd" d="M341.019 199.849L341.668 202.018L350.235 201.342L349.53 199.183L341.019 199.849Z" fill="#FFFFFE"/>
<path fill-rule="evenodd" clip-rule="evenodd" d="M343.431 197.158C343.228 196.511 343.567 195.939 344.189 195.883C344.811 195.826 345.48 196.303 345.684 196.951C345.887 197.599 345.548 198.17 344.926 198.228C344.304 198.285 343.635 197.806 343.431 197.158ZM342.542 197.213C342.715 197.764 343.383 199.892 343.383 199.892L347.399 199.522L346.557 196.844C346.193 195.689 345.001 194.836 343.892 194.938C342.784 195.04 342.178 196.059 342.542 197.213Z" fill="#FFFFFE"/>
<path fill-rule="evenodd" clip-rule="evenodd" d="M371.293 216.195C369.378 216.585 364.275 218.077 363.739 218.325C363.099 218.621 360.985 220.191 360.485 220.681C358.565 222.567 359.547 223.448 358.79 226.008C358.751 226.139 358.744 226.275 358.743 226.413C358.742 226.68 359.111 226.91 359.482 226.661C359.682 226.991 360.275 226.787 360.563 226.427C360.557 226.683 360.924 226.844 361.51 226.526C361.827 226.354 361.771 226.37 362.504 225.729C363.028 225.27 363.637 224.907 364.58 224.49C365.216 224.21 366.025 223.958 366.607 223.583C367.382 223.084 368.766 222.965 369.447 220.797C369.598 220.317 370.078 220.022 370.512 219.755C371.551 219.116 372.592 218.477 373.632 217.838" fill="#FDD5CF"/>
<path fill-rule="evenodd" clip-rule="evenodd" d="M383.393 180.308C384.199 183.2 387.55 203.239 387.55 203.239L368.669 217.001L370.24 221.157C370.24 221.157 392.831 213.523 394.611 208.305C396.39 203.088 396.308 179.516 390.035 171.246C388.036 168.614 384.034 167.285 384.034 167.285" fill="#3764E5"/>
<path fill-rule="evenodd" clip-rule="evenodd" d="M363.706 223.283C363.706 223.283 363.518 223.454 363.234 223.709C362.941 223.964 362.559 224.257 362.258 224.653C361.943 225.033 361.626 225.426 361.351 225.694C361.082 225.967 360.87 226.118 360.87 226.118C360.87 226.118 361.333 225.216 362.019 224.452C362.35 224.052 362.824 223.775 363.14 223.581C363.479 223.403 363.706 223.283 363.706 223.283Z" fill="#E99B7B"/>
<path fill-rule="evenodd" clip-rule="evenodd" d="M362.288 221.865C362.288 221.865 362.027 222.063 361.752 222.461C361.604 222.648 361.441 222.877 361.278 223.126C361.194 223.25 361.109 223.378 361.023 223.509C360.934 223.651 360.868 223.752 360.809 223.91C360.302 225.117 359.452 226.118 359.452 226.118C359.452 226.118 359.561 225.811 359.762 225.371C359.957 224.929 360.244 224.358 360.516 223.783C360.828 223.166 361.278 222.706 361.624 222.35C361.982 222.005 362.288 221.865 362.288 221.865Z" fill="#E99B7B"/>
<path fill-rule="evenodd" clip-rule="evenodd" d="M361.579 221.157C361.579 221.157 361.419 221.419 361.136 221.776C361.001 221.958 360.818 222.155 360.667 222.381C360.548 222.598 360.434 222.903 360.319 223.168C360.092 223.721 359.886 224.279 359.724 224.701C359.568 225.124 359.452 225.41 359.452 225.41C359.452 225.41 359.448 225.101 359.532 224.649C359.608 224.197 359.781 223.603 360.041 223.049C360.177 222.766 360.293 222.507 360.485 222.249C360.678 222.022 360.867 221.839 361.037 221.685C361.379 221.384 361.579 221.157 361.579 221.157Z" fill="#E99B7B"/>
<path fill-rule="evenodd" clip-rule="evenodd" d="M375.646 151.625C374.907 151.188 374.34 150.726 373.859 151.443C373.604 151.823 373.449 152.348 373.014 152.478C372.58 152.608 372.132 152.213 372.025 151.769C371.918 151.325 372.054 150.86 372.188 150.424C372.485 149.456 372.781 148.49 373.078 147.522C373.37 146.576 373.657 145.535 373.286 144.617C373.098 144.153 372.757 143.77 372.381 143.444C371.157 142.381 369.561 141.865 367.98 141.539C366.401 141.212 364.782 141.045 363.244 140.554C362.598 140.348 361.957 140.079 361.44 139.636C360.606 138.919 360.173 137.791 360.161 136.684C360.149 135.577 360.526 134.489 361.087 133.539C361.202 133.919 361.362 134.287 361.559 134.63C361.752 134.121 362.047 133.653 362.423 133.261C362.883 135.858 373.689 134.99 376.213 136.136C377.964 136.93 379.411 137.449 379.358 140.319C379.409 140.506 379.56 140.644 379.7 140.775C381.251 142.217 381.923 143.971 382.118 146.574C382.356 149.761 380.523 153.209 378.726 155.836C378.275 156.497 378.023 156.965 377.391 157.451C376.76 157.937 375.66 158.176 374.88 158.026C374.102 157.875 372.566 157.942 372.551 157.14C372.541 156.565 373.754 155.541 374.09 155.078" fill="#342B64"/>
<path fill-rule="evenodd" clip-rule="evenodd" d="M373.654 154.77C373.654 154.77 373.534 155.277 373.848 155.676C374.124 156.026 374.684 155.975 375.069 155.849C376.166 155.492 376.922 154.419 377.128 153.31C377.372 152.003 376.672 150.697 375.483 151.037C374.787 151.235 374.352 152.028 374.36 152.756" fill="#F9C7C0"/>
<path fill-rule="evenodd" clip-rule="evenodd" d="M363.042 158.779L366.542 159.481C366.542 159.481 365.373 160.906 362.997 160.906" fill="#F9C7C0"/>
<path fill-rule="evenodd" clip-rule="evenodd" d="M84.3684 101.363C78.8865 101.363 74.4427 97.0789 74.4427 91.7941C74.4427 86.5094 78.8865 82.2249 84.3684 82.2249C89.849 82.2249 94.2941 86.5094 94.2941 91.7941C94.2941 94.0522 93.4827 96.1266 92.1252 97.764C91.4854 98.5354 90.7249 99.2095 89.8705 99.7589C88.2945 100.773 86.4032 101.363 84.3684 101.363ZM82.6408 87.933C82.2747 87.933 81.938 88.2331 81.938 88.651V95.4909C81.938 95.9101 82.2747 96.2088 82.6408 96.2088C82.7575 96.2088 82.8769 96.1787 82.9909 96.1115L88.7894 92.6916C89.2575 92.4162 89.2575 91.7256 88.7894 91.4502L82.9909 88.0303C82.8769 87.9631 82.7575 87.933 82.6408 87.933Z" fill="#86A2F3"/>
<path fill-rule="evenodd" clip-rule="evenodd" d="M82.2244 96.4016C81.8639 96.4016 81.5325 96.1201 81.5325 95.7251V89.2808C81.5325 88.8871 81.8639 88.6044 82.2244 88.6044C82.3392 88.6044 82.4568 88.6328 82.569 88.696L88.2767 91.9182C88.7375 92.1777 88.7375 92.8283 88.2767 93.0878L82.569 96.3099C82.4568 96.3732 82.3392 96.4016 82.2244 96.4016Z" fill="#FFFFFE"/>
<path fill-rule="evenodd" clip-rule="evenodd" d="M257.714 97.1104C253.603 97.1104 250.269 93.9372 250.269 90.0221C250.269 86.107 253.603 82.9337 257.714 82.9337C260.206 82.9337 262.411 84.0997 263.762 85.89C264.17 86.4303 264.5 87.0266 264.736 87.6649C265.009 88.4026 265.158 89.1962 265.158 90.0221C265.158 93.9372 261.825 97.1104 257.714 97.1104ZM258.308 85.2615C258.235 85.2615 258.161 85.2811 258.092 85.3273C257.8 85.5191 257.881 85.9964 257.896 86.2973C257.957 87.5473 257.282 88.8057 256.233 89.395C256.233 89.395 256.302 92.0587 256.287 93.4179C256.926 93.4291 257.569 93.4389 258.203 93.4389C259.021 93.4389 259.824 93.4221 260.584 93.3661C261.012 93.3353 261.379 92.6214 260.862 92.3947C261.08 92.2771 261.3 92.1637 261.396 91.9061C261.486 91.6626 261.378 91.3308 261.136 91.2679C261.173 91.2776 261.207 91.2818 261.241 91.2818C261.671 91.2818 261.818 90.5302 261.449 90.2754C261.658 90.0879 261.833 89.8387 261.877 89.5518C261.922 89.2648 261.811 88.9415 261.568 88.8015C261.41 88.7105 261.221 88.7077 261.039 88.7063C260.43 88.7007 259.821 88.6965 259.211 88.6909C259.376 87.6859 259.426 86.5899 258.942 85.7066C258.828 85.5009 258.566 85.2615 258.308 85.2615ZM253.54 93.4137H255.756V89.395H253.54V93.4137Z" fill="#86A2F3"/>
<path fill-rule="evenodd" clip-rule="evenodd" d="M297.855 43.9478L293.737 41.7223C292.05 42.8616 290.025 43.5299 287.845 43.5299C281.972 43.5299 277.211 38.7034 277.211 32.7512C277.211 26.799 281.972 21.9739 287.845 21.9739C293.72 21.9739 298.48 26.799 298.48 32.7512C298.48 35.2938 297.607 37.6254 296.155 39.4683L297.855 43.9478ZM285.178 29.0558C284.522 29.0558 283.867 29.3062 283.361 29.8085C282.336 30.8252 282.318 32.4912 283.322 33.5298L285.806 36.1009C286.315 36.6277 286.988 36.8917 287.663 36.8917C287.794 36.8917 287.927 36.8808 288.059 36.8604C288.577 36.7801 289.075 36.5406 289.478 36.1404L289.493 36.1227L292.018 33.6019C293.042 32.5824 293.054 30.9164 292.048 29.8806C291.539 29.3579 290.867 29.0952 290.197 29.0952C289.539 29.0952 288.881 29.3471 288.376 29.852L287.695 30.5312L287.033 29.8466C286.524 29.3198 285.851 29.0558 285.178 29.0558Z" fill="#86A2F3"/>
<path fill-rule="evenodd" clip-rule="evenodd" d="M287.821 36.8594C287.166 36.8594 286.512 36.5967 286.017 36.0725L283.603 33.5141C282.628 32.4807 282.645 30.823 283.641 29.8112C284.133 29.3115 284.77 29.0623 285.406 29.0623C286.06 29.0623 286.714 29.325 287.209 29.8492L287.852 30.5304L288.514 29.8546C289.005 29.3521 289.645 29.1015 290.284 29.1015C290.935 29.1015 291.588 29.3629 292.083 29.883C293.06 30.9137 293.049 32.5715 292.054 33.5859L289.6 36.0942L289.586 36.1118C289.194 36.51 288.71 36.7484 288.206 36.8283C288.078 36.8486 287.949 36.8594 287.821 36.8594Z" fill="white"/>
</svg>
