<svg width="812" height="502" viewBox="0 0 812 502" fill="none" xmlns="http://www.w3.org/2000/svg">
<path opacity="0.978702" fill-rule="evenodd" clip-rule="evenodd" d="M783.445 17.2339C785.069 18.1823 787.911 18.1823 789.535 17.2339C791.159 16.2855 791.159 14.6597 789.535 13.7113C787.911 12.7629 785.069 12.7629 783.445 13.7113C782.227 14.3887 781.821 15.4726 782.497 16.421L688.305 70.7506V139.442L665.434 152.719V227.371L586.941 272.759L574.761 265.714L635.255 230.759V189.842L634.984 189.707L566.099 149.874V136.054L605.075 113.564C606.699 114.241 609.135 114.106 610.624 113.293C612.248 112.345 612.248 110.719 610.624 109.77C609 108.822 606.158 108.822 604.534 109.77C603.045 110.719 602.91 112.074 604.128 113.022L565.152 135.513V150.551L565.423 150.687L634.307 190.52V230.352L588.565 256.772V239.701L609.541 227.642C611.165 228.32 613.601 228.184 615.09 227.371C616.714 226.423 616.714 224.797 615.09 223.849C613.466 222.9 610.624 222.9 609 223.849C607.511 224.797 607.376 226.152 608.594 227.101L587.617 239.159V257.314L573.813 265.307L557.438 255.823V226.152L588.294 208.268V187.674L588.023 187.539L523.063 150.009C524.281 148.926 524.146 147.571 522.657 146.758C521.033 145.809 518.191 145.809 516.567 146.758C514.943 147.706 514.943 149.332 516.567 150.28C518.056 151.229 520.492 151.229 522.116 150.551L587.347 188.216V207.591L557.573 224.933V204.474L557.303 204.339L517.515 181.307C518.733 180.358 518.597 178.868 517.109 178.055C515.485 177.106 512.643 177.106 511.019 178.055C509.395 179.003 509.395 180.629 511.019 181.577C512.507 182.526 514.943 182.526 516.567 181.848L556.491 205.016V255.146L544.987 248.507L526.041 259.481L508.853 249.591V225.475L508.447 225.339L463.111 199.191V176.429C464.058 176.429 465.005 176.158 465.682 175.752C467.306 174.803 467.306 173.177 465.682 172.229C464.058 171.281 461.216 171.281 459.592 172.229C457.968 173.177 457.968 174.803 459.592 175.752C460.269 176.158 461.216 176.429 462.163 176.429V199.732L462.434 199.868L507.771 226.017V249.049L434.014 206.371V161.119L474.073 137.951H510.748H510.883L573.949 101.506C575.573 102.183 578.009 102.048 579.497 101.235C581.121 100.286 581.121 98.6605 579.497 97.7121C577.873 96.7637 575.031 96.7637 573.407 97.7121C571.919 98.6605 571.783 100.015 573.001 100.964L510.613 137.003H475.832L591.542 70.0731C593.166 70.7506 595.602 70.6151 597.091 69.8022C598.715 68.8538 598.715 67.228 597.091 66.2796C595.467 65.3312 592.625 65.3312 591.001 66.2796C589.512 67.228 589.377 68.5828 590.595 69.5312L433.067 160.713V207.049L433.337 207.184L524.958 260.159L506.553 270.862L350.107 180.358V126.435L349.837 126.3L296.651 95.5444C297.869 94.4605 297.733 93.1056 296.245 92.2927C294.621 91.3443 291.779 91.3443 290.155 92.2927C288.531 93.2411 288.531 94.8669 290.155 95.8153C291.643 96.7637 294.079 96.7637 295.703 96.0863L349.16 126.977V180.9L349.431 181.036L505.741 271.404L488.147 281.566L333.326 192.145H241.029L183.377 158.816V107.603C183.918 107.467 184.459 107.332 185.001 107.061C186.625 106.112 186.625 104.486 185.001 103.538C183.377 102.59 180.535 102.59 178.911 103.538C177.287 104.486 177.287 106.112 178.911 107.061C179.858 107.603 181.076 107.874 182.294 107.738V159.358L182.565 159.493L240.758 193.094H333.055L463.652 268.559H437.397L392.873 242.817H358.498H358.363L310.725 270.32C309.101 269.643 306.665 269.778 305.177 270.591C303.553 271.54 303.553 273.165 305.177 274.114C306.801 275.062 309.643 275.062 311.267 274.114C312.755 273.165 312.891 271.811 311.673 270.862L358.769 243.63H392.602L437.127 269.372H465.276L487.065 281.972L440.239 309.069L426.841 301.346V280.888L393.008 261.378C394.226 260.43 394.091 258.94 392.602 258.127C390.978 257.178 388.136 257.178 386.512 258.127C384.888 259.075 384.888 260.701 386.512 261.649C388.001 262.598 390.437 262.598 392.061 261.92L425.894 281.43V300.533L389.76 279.669H373.114H372.979L352.543 291.456C350.919 290.779 348.483 290.914 346.995 291.727C345.371 292.675 345.371 294.301 346.995 295.25C348.619 296.198 351.461 296.198 353.085 295.25C354.573 294.301 354.709 292.946 353.491 291.998L373.249 280.617H389.895L439.563 309.34L430.495 314.624L459.321 331.289L445.788 339.147H425.353L410.737 330.747C411.819 329.798 411.684 328.443 410.195 327.631C408.571 326.682 405.729 326.682 404.105 327.631C402.481 328.579 402.481 330.205 404.105 331.153C405.594 332.102 408.03 332.102 409.654 331.424L424.947 340.231H443.893L409.519 360.147L328.589 313.405H270.396H270.261L237.51 332.373C235.886 331.695 233.45 331.831 231.961 332.643C230.337 333.592 230.337 335.218 231.961 336.166C233.585 337.115 236.427 337.115 238.051 336.166C239.54 335.218 239.675 333.863 238.457 332.914L270.667 314.353H328.454L390.843 350.392H364.182L338.063 335.353C339.281 334.405 339.145 332.914 337.657 332.102C336.033 331.153 333.191 331.153 331.567 332.102C329.943 333.05 329.943 334.676 331.567 335.624C333.055 336.573 335.491 336.573 337.115 335.895L363.911 351.34H392.602L408.707 360.689L367.565 384.399H236.157L134.115 325.463C135.333 324.514 135.198 323.024 133.709 322.211C132.085 321.263 129.243 321.263 127.619 322.211C125.995 323.16 125.995 324.785 127.619 325.734C129.108 326.682 131.544 326.682 133.168 326.005L235.886 385.347H365.806L349.566 394.831H252.261H252.126L204.083 422.606C202.459 421.928 200.023 422.064 198.534 422.877C196.91 423.825 196.91 425.451 198.534 426.399C200.158 427.348 203 427.348 204.624 426.399C206.113 425.451 206.248 424.096 205.03 423.148L252.397 395.78H349.701H349.837L459.998 332.102L472.178 339.147L356.333 406.076H271.614H271.479L169.167 465.284H27.4727L0 449.432V450.516L27.202 466.232H169.437H169.573L233.856 429.109V451.058L191.497 475.58C189.873 474.903 187.437 475.038 185.948 475.851C184.324 476.8 184.324 478.426 185.948 479.374C187.572 480.322 190.414 480.322 192.038 479.374C193.527 478.426 193.662 477.071 192.444 476.122L234.803 451.599V428.703H234.533L271.885 407.16H356.603H356.739L473.125 339.824L487.065 347.818L261.058 478.426V502H262.005V478.967L488.012 348.36L505.199 358.25L388.677 425.586V437.645L367.971 449.567V477.206L327.913 500.374C326.289 499.697 323.853 499.832 322.364 500.645C321.687 500.916 321.281 501.458 321.146 501.865H329.537C329.401 501.458 329.266 501.187 328.86 500.916L368.919 477.748V450.109L388.677 438.728V483.032L400.316 489.806L379.339 501.865H381.234L401.263 490.348L421.293 501.865H423.187L389.625 482.355V425.993L506.147 358.657L521.845 367.734L439.157 415.425C437.533 414.748 435.097 414.883 433.608 415.696C431.984 416.644 431.984 418.27 433.608 419.219C435.232 420.167 438.074 420.167 439.698 419.219C441.187 418.27 441.322 416.915 440.104 415.967L522.522 368.276L537.679 376.947L439.021 433.986H412.225C412.09 433.58 411.684 433.174 411.007 432.767C409.383 431.819 406.541 431.819 404.917 432.767C403.293 433.715 403.293 435.341 404.917 436.29C406.541 437.238 409.383 437.238 411.007 436.29C411.684 436.019 412.09 435.477 412.225 435.07H439.292H439.427L538.627 377.76L544.717 381.283L549.453 378.573L573.137 392.257V411.225L553.649 422.47H523.063H522.928L489.365 441.845C487.741 441.167 485.305 441.303 483.817 442.116C482.193 443.064 482.193 444.69 483.817 445.638C485.441 446.587 488.283 446.587 489.907 445.638C491.395 444.69 491.531 443.335 490.313 442.387L523.334 423.283H552.16L494.779 456.341C493.019 455.529 490.583 455.529 489.095 456.477C487.471 457.425 487.471 459.051 489.095 460C490.719 460.948 493.561 460.948 495.185 460C496.673 459.187 496.809 457.832 495.726 456.883L567.317 415.425V424.638L524.687 449.296V466.638L490.042 486.69C488.418 486.013 485.982 486.148 484.493 486.961C482.869 487.91 482.869 489.535 484.493 490.484C486.117 491.432 488.959 491.432 490.583 490.484C492.072 489.535 492.207 488.181 490.989 487.232L525.635 467.18V449.838L568.265 425.18V414.883L574.219 411.496V391.309L550.536 377.625L566.099 368.683L614.684 396.863V428.838L581.663 447.941C579.903 447.129 577.467 447.128 575.979 448.077C574.355 449.025 574.355 450.651 575.979 451.599C577.603 452.548 580.445 452.548 582.069 451.599C583.557 450.787 583.693 449.432 582.61 448.483L614.684 429.922V455.8L589.512 470.567V501.865H590.459V471.109L614.819 457.019V501.865H615.767V396.457L566.911 368.276L584.369 358.25L647.976 394.967V482.49L678.561 500.103V501.865H679.509V499.561L648.923 481.948V394.425L585.317 357.708L598.309 350.257L684.11 399.844V474.496L731.612 501.865H733.507L685.057 473.819V399.167L599.256 349.579L620.233 337.521L763.009 420.031V457.154L812 485.471V484.387L764.092 456.612V419.49L683.839 373.018H747.311L812 410.412V409.328L747.446 372.07H682.08L621.315 336.979L645.675 322.889L697.914 353.102H781.821L812 370.579V369.495L805.098 365.431H811.729V364.483H803.474L781.821 352.018H697.914L683.298 343.618H719.026H719.161L737.025 333.321H811.594L811.865 333.456V332.373H738.785L758.949 320.721C760.573 321.398 763.009 321.263 764.498 320.45C766.122 319.501 766.122 317.876 764.498 316.927C762.874 315.979 760.032 315.979 758.408 316.927C756.919 317.876 756.784 319.23 758.002 320.179L718.891 342.805H681.945L646.623 322.482L659.615 314.895L651.224 310.017H675.584L707.387 328.443C706.169 329.392 706.305 330.882 707.793 331.695C709.417 332.643 712.259 332.643 713.883 331.695C715.507 330.747 715.507 329.121 713.883 328.172C712.395 327.224 709.959 327.224 708.335 327.901L675.719 309.069H649.465L631.601 298.772L642.563 292.404H662.051L679.103 282.514H691.824L720.65 299.179C719.432 300.127 719.567 301.482 721.056 302.43C722.68 303.379 725.522 303.379 727.146 302.43C728.77 301.482 728.77 299.856 727.146 298.908C725.657 298.095 723.357 297.959 721.733 298.637L692.23 281.566H678.967L661.915 291.456H644.322L679.373 271.133H698.32L737.837 293.895H812V292.946H738.108L698.591 270.185H679.238H679.103L630.789 298.095L618.067 290.779L672.607 259.21H711.041L742.845 277.501H812V276.553H743.115L713.071 259.21H812V258.262L672.471 258.398H672.336L617.12 290.237L602.775 281.972L678.832 237.939H812V236.991H714.966L812 180.9V179.816L713.071 236.991H679.509L751.641 195.261V186.048L786.151 166.132C787.775 166.81 790.211 166.674 791.7 165.861C793.324 164.913 793.324 163.287 791.7 162.339C790.076 161.39 787.234 161.39 785.61 162.339C784.121 163.287 783.986 164.642 785.204 165.59L766.393 176.429V151.229L812 124.945V123.861L765.445 150.687V176.971L750.694 185.507V194.72L678.02 236.72L678.291 237.126L601.827 281.295L587.888 273.301L666.381 227.913V153.261L812 69.1247V68.0409L689.388 138.764V71.2925L783.309 17.0984C783.309 17.0984 783.309 17.2339 783.445 17.2339ZM432.255 314.759L544.987 249.591L657.72 314.759L544.987 379.928L432.255 314.759Z" fill="url(#paint0_radial)"/>
<path opacity="0.533296" fill-rule="evenodd" clip-rule="evenodd" d="M792.653 143.778L812 132.698V131.752L791.976 143.237V180.533L613.929 283.229L600.399 275.392L692.264 222.422V212.963L708.5 203.639V181.884L740.023 163.236C741.241 163.912 743.135 163.777 744.353 163.101C745.706 162.425 745.706 161.209 744.353 160.399C743.135 159.588 740.97 159.588 739.617 160.399C738.4 161.074 738.264 162.155 739.211 162.966L707.688 181.208V202.964L692.129 211.882V177.019L691.994 176.884L683.064 171.749L736.911 140.67V105.807L775.2 83.7815C776.417 84.4571 778.312 84.322 779.529 83.6463C780.882 82.9707 780.882 81.7546 779.529 80.9438C778.312 80.133 776.147 80.133 774.794 80.9438C773.576 81.6194 773.441 82.7005 774.388 83.5112L736.235 105.267V140.13L682.388 171.209L594.852 120.671V81.6194C595.664 81.6194 596.34 81.3492 596.881 81.0789C598.234 80.4033 598.234 79.1871 596.881 78.3764C595.664 77.5656 593.499 77.5656 592.146 78.3764C590.793 79.052 590.793 80.2682 592.146 81.0789C592.687 81.3492 593.499 81.6194 594.176 81.6194V121.077L594.311 121.212L646.94 151.615H608.517L577.534 133.779C578.481 132.968 578.346 131.887 577.128 131.211C575.911 130.4 573.746 130.4 572.393 131.211C571.04 131.887 571.04 133.103 572.393 133.914C573.611 134.589 575.37 134.589 576.723 134.049L608.246 152.291H648.158L691.452 177.289V221.611L599.587 274.581L587.276 267.419L652.217 229.989C653.435 230.665 655.329 230.53 656.546 229.854C657.899 229.178 657.899 227.962 656.546 227.151C655.329 226.341 653.164 226.341 651.811 227.151C650.593 227.827 650.458 228.908 651.405 229.719L586.464 267.149L574.558 260.258L652.352 215.395H673.458C673.594 215.666 673.864 216.071 674.405 216.341C675.623 217.152 677.788 217.152 679.141 216.341C680.494 215.666 680.494 214.449 679.141 213.639C677.923 212.828 675.758 212.828 674.405 213.639C673.864 213.909 673.594 214.179 673.458 214.585H652.082H651.946L573.746 259.717L569.011 257.015L568.875 257.15L565.358 259.177L546.687 248.502V233.502L562.111 224.584H586.193L612.846 209.315C614.064 209.99 615.958 209.855 617.176 209.179C618.529 208.504 618.529 207.288 617.176 206.477C615.958 205.666 613.793 205.666 612.44 206.477C611.223 207.153 611.087 208.234 612.034 209.044L586.058 224.043H563.328L608.517 197.964C609.87 198.64 611.764 198.504 612.982 197.829C614.334 197.153 614.334 195.937 612.982 195.126C611.764 194.316 609.599 194.316 608.246 195.126C607.029 195.802 606.893 196.748 607.84 197.559L551.422 230.124V222.962L584.976 203.639V189.991L612.305 174.182C613.523 174.857 615.417 174.722 616.634 174.046C617.987 173.371 617.987 172.155 616.634 171.344C615.417 170.533 613.252 170.533 611.899 171.344C610.682 172.02 610.546 173.101 611.493 173.911L584.164 189.721V203.369L550.611 222.692V230.8L545.875 233.502V249.312L564.546 259.987L552.37 267.014L514.081 244.988V219.855L540.058 204.855C541.411 205.531 543.305 205.396 544.522 204.72C545.875 204.045 545.875 202.829 544.522 202.018C543.305 201.207 541.14 201.207 539.787 202.018C538.569 202.693 538.434 203.639 539.381 204.45L514.081 219.044V198.775L534.105 187.289V149.048C534.916 149.048 535.593 148.778 536.134 148.507C537.487 147.832 537.487 146.616 536.134 145.805C534.916 144.994 532.752 144.994 531.399 145.805C530.046 146.48 530.046 147.697 531.399 148.507C531.94 148.778 532.752 149.048 533.428 149.048V186.748L514.216 197.829V130.535H513.405V245.529L551.693 267.69L537.893 275.662L487.834 246.745V177.965L463.751 164.047V138.103L442.51 125.806C443.457 124.995 443.322 123.914 442.104 123.239C440.887 122.428 438.722 122.428 437.369 123.239C436.016 123.914 436.016 125.13 437.369 125.941C438.587 126.617 440.346 126.617 441.698 126.076L462.94 138.373V164.317L487.428 178.641V247.42L537.487 276.338L527.34 282.148L459.693 243.096V184.451L459.557 184.316L399.757 149.859C400.704 149.048 400.569 147.967 399.351 147.291C398.134 146.48 395.969 146.48 394.616 147.291C393.263 147.967 393.263 149.183 394.616 149.994C395.834 150.669 397.592 150.669 398.945 150.129L459.016 184.721V243.367L459.151 243.502L526.528 282.418L510.022 291.877L397.592 227.016V197.829L397.457 197.694L303.292 143.373C304.239 142.562 304.104 141.481 302.886 140.805C301.668 139.994 299.504 139.994 298.151 140.805C296.798 141.481 296.798 142.697 298.151 143.508C299.368 144.183 301.127 144.183 302.48 143.643L396.781 198.099V228.368L396.916 228.503L459.963 264.852H409.904L351.998 231.475C352.945 230.665 352.81 229.584 351.592 228.908C350.375 228.097 348.21 228.097 346.857 228.908C345.504 229.584 345.504 230.8 346.857 231.611C347.939 232.286 349.833 232.286 351.186 231.746L409.634 265.528H461.181L508.973 293.035L569.146 258.366L658.035 309.579L569.146 360.792L480.257 309.579L489.751 304.109L448.734 280.392H382.575L307.351 237.016H265.68L248.633 227.151C249.58 226.341 249.445 225.26 248.227 224.584C247.009 223.773 244.845 223.773 243.492 224.584C242.139 225.26 242.139 226.476 243.492 227.287C244.709 227.962 246.468 227.962 247.821 227.422L265.409 237.556H307.08L363.904 270.257H314.792L291.115 256.609C292.063 255.798 291.927 254.717 290.71 254.042C289.492 253.231 287.327 253.231 285.974 254.042C284.621 254.717 284.621 255.934 285.974 256.744C287.192 257.42 288.951 257.42 290.304 256.879L314.521 270.797H365.122L382.169 280.662H448.328L459.828 287.283H431.687H431.551L417.481 295.391H358.763L342.257 285.797H308.974C308.839 285.526 308.568 285.121 308.027 284.851C306.81 284.04 304.645 284.04 303.292 284.851C301.939 285.526 301.939 286.742 303.292 287.553C304.51 288.364 306.674 288.364 308.027 287.553C308.568 287.283 308.839 287.013 308.974 286.607H341.986L358.492 296.201H416.128L400.298 305.39C399.081 304.714 397.186 304.85 395.969 305.525C394.616 306.201 394.616 307.417 395.969 308.228C397.186 309.038 399.351 309.038 400.704 308.228C401.922 307.552 402.057 306.471 401.11 305.66L431.957 287.824H461.181L488.916 303.904L478.634 309.849L479.175 310.12L485.263 313.633H466.051L440.887 299.174C441.834 298.363 441.698 297.282 440.481 296.607C439.263 295.796 437.098 295.796 435.745 296.607C434.393 297.282 434.393 298.499 435.745 299.309C436.963 299.985 438.722 299.985 440.075 299.444L465.781 314.308H486.481L500.552 322.416L491.893 327.416H476.604H476.469L463.075 335.118H453.063L430.334 322.011C431.416 321.2 431.281 320.119 430.063 319.443C428.845 318.633 426.681 318.633 425.328 319.443C423.975 320.119 423.975 321.335 425.328 322.146C426.545 322.821 428.304 322.957 429.657 322.416L452.928 335.794H463.346H463.481L476.875 328.091H490.675L463.075 344.036H448.193L417.075 326.065H323.316L265.139 292.553C266.221 291.742 266.086 290.661 264.868 289.986C263.651 289.175 261.486 289.175 260.133 289.986C258.78 290.661 258.78 291.877 260.133 292.688C261.351 293.364 263.109 293.499 264.462 292.958L323.18 326.875H416.94L448.057 344.847H463.481H463.616L501.634 322.957L511.646 328.767L468.622 353.495H438.316L413.287 339.037H349.022C348.886 338.766 348.616 338.361 348.075 338.091C346.857 337.28 344.692 337.28 343.339 338.091C341.986 338.766 341.986 339.983 343.339 340.793C344.557 341.604 346.722 341.604 348.075 340.793C348.616 340.523 348.886 340.253 349.022 339.847H413.016L436.693 353.495H346.18H346.045L259.862 403.222C258.645 402.547 256.751 402.682 255.533 403.357C254.18 404.033 254.18 405.249 255.533 406.06C256.751 406.871 258.915 406.871 260.268 406.06C261.486 405.384 261.621 404.303 260.674 403.492L346.451 354.036H468.757H468.893L512.322 329.037L523.687 335.523L463.751 370.116H358.222H358.086L265.68 423.356H157.985L95.2087 387.142C96.1558 386.331 96.0205 385.25 94.8029 384.575C93.5852 383.764 91.4205 383.764 90.0676 384.575C88.7146 385.25 88.7146 386.466 90.0676 387.277C91.2852 387.953 93.044 387.953 94.397 387.412L157.715 423.897H265.815H265.951L358.357 370.656H435.204L322.233 435.788V452.949L277.18 479.028C275.962 478.353 274.068 478.488 272.851 479.164C271.498 479.839 271.498 481.055 272.851 481.866C274.068 482.677 276.233 482.677 277.586 481.866C278.804 481.191 278.939 480.109 277.992 479.299L323.045 453.354V436.193L436.693 370.656H463.075L406.251 403.492V410.924L379.057 426.599C377.839 425.923 375.945 426.059 374.728 426.734C373.375 427.41 373.375 428.626 374.728 429.437C375.945 430.248 378.11 430.248 379.463 429.437C380.681 428.761 380.816 427.68 379.869 426.869L394.616 418.356V438.085L309.11 487.406C307.892 486.731 305.998 486.866 304.78 487.542C303.427 488.217 303.427 489.433 304.78 490.244C305.998 491.055 308.163 491.055 309.516 490.244C310.733 489.568 310.868 488.487 309.921 487.677L395.428 438.355V417.681L407.063 410.924V403.763L464.428 370.656L464.293 370.386L524.499 335.659L535.458 342.01L473.628 377.683V436.328L359.845 502H361.333L455.499 447.679V500.784L453.334 502H454.822L456.175 501.189V447.274L474.169 436.869V378.224L535.999 342.55L545.605 348.09L497.846 375.791V407.952L497.981 408.087L552.234 439.301V450.246L521.522 467.948C520.305 467.272 518.411 467.408 517.193 468.083C515.84 468.759 515.84 469.975 517.193 470.786C518.411 471.596 520.575 471.596 521.928 470.786C523.146 470.11 523.281 469.029 522.334 468.218L553.046 450.517V438.761L552.911 438.625L498.793 407.546V376.197L534.781 355.387V368.765L518.275 378.359C517.058 377.683 515.163 377.818 513.946 378.494C512.593 379.169 512.593 380.386 513.946 381.196C515.163 382.007 517.328 382.007 518.681 381.196C519.899 380.521 520.034 379.44 519.087 378.629L535.593 369.035V354.711L546.552 348.361L559.405 355.792V379.169L535.052 393.223V409.303L535.187 409.438L586.328 438.896C585.381 439.706 585.517 440.788 586.734 441.463C587.952 442.274 590.117 442.274 591.47 441.463C592.823 440.788 592.823 439.571 591.47 438.761C590.252 438.085 588.493 438.085 587.14 438.625L535.728 409.033V393.763L559.27 380.115V396.196L590.793 414.303C589.846 415.113 589.981 416.194 591.199 416.87C592.417 417.681 594.581 417.681 595.934 416.87C597.287 416.194 597.287 414.978 595.934 414.167C594.717 413.492 592.958 413.492 591.605 414.032L560.081 395.925V356.468L569.146 361.738L569.281 361.603L584.028 353.09L597.558 360.927V379.845L633.411 400.52V418.356C632.599 418.356 631.923 418.627 631.382 418.897C630.029 419.573 630.029 420.789 631.382 421.599C632.599 422.41 634.764 422.41 636.117 421.599C637.47 420.924 637.47 419.708 636.117 418.897C635.576 418.627 634.764 418.356 634.087 418.356V400.114L598.234 379.44V361.333L656.411 394.844V430.383L624.752 448.625H595.799H595.664L546.011 477.272C544.793 476.596 542.899 476.731 541.681 477.407C540.328 478.083 540.328 479.299 541.681 480.109C542.899 480.92 545.064 480.92 546.417 480.109C547.634 479.434 547.769 478.353 546.822 477.542L596.07 449.165H623.535L532.346 501.73C531.128 501.054 529.234 501.189 528.016 501.865H533.564L657.223 430.518V394.169L657.088 394.033L584.84 352.414L599.317 344.036L722.57 415.113V457.543L764.647 481.866C763.7 482.677 763.835 483.758 765.053 484.434C766.27 485.244 768.435 485.244 769.788 484.434C771.141 483.758 771.141 482.542 769.788 481.731C768.57 481.055 766.812 481.055 765.459 481.596L723.382 457.273V414.843L723.247 414.708L600.129 343.766L613.929 335.794L735.829 406.06H808.618L812 408.087V407.276L808.753 404.709H736.1L633.14 345.388H653.841L689.017 365.657H716.076H716.211L753.688 344.036C754.906 344.712 756.8 344.577 758.017 343.901C759.37 343.226 759.37 342.01 758.017 341.199C756.8 340.388 754.635 340.388 753.282 341.199C752.064 341.874 751.929 342.955 752.876 343.766L715.805 365.116H689.152L653.976 344.847H631.787L614.605 334.983L651.54 313.633L662.093 319.714V335.659L688.747 351.063C687.799 351.874 687.935 352.955 689.152 353.63C690.37 354.441 692.535 354.441 693.888 353.63C695.241 352.955 695.241 351.739 693.888 350.928C692.67 350.252 690.911 350.252 689.558 350.793L662.905 335.388V320.389L691.317 336.74H704.847H704.982L721.082 327.416C722.3 328.091 724.194 327.956 725.411 327.281C726.764 326.605 726.764 325.389 725.411 324.578C724.194 323.767 722.029 323.767 720.676 324.578C719.458 325.254 719.323 326.335 720.27 327.146L704.711 336.199H691.588L652.352 313.363L659.523 309.309L658.982 309.038L636.793 296.337L647.482 290.256H663.582L675.082 296.877C674.135 297.553 674.27 298.634 675.488 299.309C676.705 300.12 678.87 300.12 680.223 299.309C681.576 298.634 681.576 297.418 680.223 296.607C679.005 295.931 677.111 295.931 675.758 296.472L663.717 289.58H648.699L675.758 273.905L739.617 310.66H785.482H785.618L811.459 295.796C811.526 295.796 811.628 295.83 811.729 295.864C811.831 295.897 811.932 295.931 812 295.931V292.418C811.865 292.485 811.696 292.553 811.526 292.621C811.357 292.688 811.188 292.756 811.053 292.823C809.835 293.499 809.7 294.58 810.647 295.391L785.347 309.714H739.888L690.641 281.337H711.747L732.311 293.229C731.364 294.039 731.5 295.12 732.717 295.796C733.935 296.607 736.1 296.607 737.453 295.796C738.806 295.12 738.806 293.904 737.453 293.093C736.235 292.418 734.476 292.418 733.123 292.958L712.017 280.797H689.423L676.705 273.5L709.041 254.852H812V254.042H710.258L723.111 246.61H799.688H799.823L812 239.583V238.772L799.553 245.799H722.976H722.841L635.982 295.931L626.376 290.391L717.7 237.691H784.4H784.535L812 221.881V221.071L784.129 237.151H717.429H717.294L625.564 290.121L614.605 283.77L792.653 181.073V143.778ZM489.751 304.109L508.973 293.035L509.075 293.093L489.863 304.174L489.751 304.109Z" fill="url(#paint1_radial)"/>
<g opacity="0.67">
<path fill-rule="evenodd" clip-rule="evenodd" d="M540.285 428.457L768.893 296.348L540.285 164.103L311.677 296.348L540.285 428.457Z" fill="#D8E7FF"/>
</g>
<g opacity="0.67">
<path fill-rule="evenodd" clip-rule="evenodd" d="M540.285 407.977L733.41 296.348L540.285 184.584L347.16 296.348L540.285 407.977Z" fill="#87A0E9"/>
</g>
<g opacity="0.9">
<path fill-rule="evenodd" clip-rule="evenodd" d="M540.285 384.104L692.239 296.348L540.285 208.456L388.331 296.348L540.285 384.104Z" fill="#080344"/>
</g>
<path fill-rule="evenodd" clip-rule="evenodd" d="M548.461 394.235C546.433 395.321 543.73 396 541.162 396C539 396 536.972 395.593 535.486 394.778L373.433 300.826C371.811 299.876 371 298.654 371 297.296C371 295.667 372.216 294.038 374.244 292.816L534.539 199.814C538.324 197.642 544.136 197.37 547.514 199.271L709.567 293.223C711.189 294.173 712 295.395 712 296.753C712 298.382 710.784 300.012 708.756 301.233L548.461 394.235ZM547.109 199.95C545.757 199.135 543.865 198.728 541.838 198.728C539.54 198.728 536.972 199.271 535.08 200.493L374.784 293.495C373.027 294.581 371.946 295.938 371.946 297.296C371.946 298.382 372.757 299.468 373.973 300.147L536.026 394.099C539.135 395.864 544.541 395.593 548.19 393.556L708.486 300.555C710.243 299.468 711.324 298.111 711.324 296.753C711.324 295.667 710.513 294.581 709.297 293.902L547.109 199.95Z" fill="#4C71DD"/>
<path fill-rule="evenodd" clip-rule="evenodd" d="M712 283.231H702.242L547.328 193.276C544.075 191.368 538.383 191.64 534.723 193.821L380.487 283.367H371V291.273C371 292.499 371.678 293.59 373.169 294.407L535.672 388.724C538.925 390.632 544.617 390.36 548.277 388.179L708.883 294.953C710.916 293.726 712 292.227 712 290.727V283.231Z" fill="url(#paint2_linear)"/>
<path fill-rule="evenodd" clip-rule="evenodd" d="M535.608 381.711L373.192 287.401C369.941 285.493 370.347 282.222 374.14 280.041L534.795 186.821C538.588 184.641 544.141 184.368 547.392 186.276L709.808 280.586C713.059 282.494 712.653 285.765 708.86 287.946L548.205 381.302C544.548 383.347 538.859 383.619 535.608 381.711Z" fill="url(#paint3_linear)"/>
<path opacity="0.1" fill-rule="evenodd" clip-rule="evenodd" d="M536.089 373.828L385 286.1C382.024 284.332 382.43 281.34 385.812 279.3L535.143 192.661C538.659 190.621 543.799 190.485 546.911 192.117L698 279.844C700.976 281.612 700.57 284.604 697.188 286.645L547.857 373.284C544.341 375.324 539.201 375.596 536.089 373.828Z" fill="#09226B"/>
<path fill-rule="evenodd" clip-rule="evenodd" d="M708.974 287.65L548.278 380.247C544.484 382.41 538.929 382.681 535.677 380.788L373.219 287.244C372 286.568 371.187 285.487 371.051 284.541C370.78 285.893 371.593 287.244 373.219 288.191L535.677 381.734C538.929 383.627 544.62 383.357 548.278 381.194L708.974 288.596C711.278 287.244 712.226 285.622 711.955 284C711.82 285.352 710.871 286.568 708.974 287.65Z" fill="white"/>
<path fill-rule="evenodd" clip-rule="evenodd" d="M530.438 215.626C530.981 215.626 531.389 215.491 531.932 215.22C533.019 214.68 533.562 213.463 533.562 211.841V208.326C533.562 207.244 533.97 206.433 534.513 206.028C535.192 205.622 536.008 205.757 536.958 206.298L539.947 208.055C540.219 208.191 540.626 208.055 540.762 207.785C540.898 207.515 540.762 207.109 540.491 206.974L537.502 205.217C536.143 204.405 534.785 204.27 533.834 204.946C532.747 205.487 532.204 206.704 532.204 208.326V211.841C532.204 212.922 531.796 213.733 531.253 214.139C530.574 214.544 529.758 214.409 528.808 213.868L514.408 205.622C514.136 205.487 513.728 205.622 513.592 205.893C513.457 206.163 513.592 206.568 513.864 206.704L528.264 214.95C528.943 215.355 529.758 215.626 530.438 215.626Z" fill="#D8E7FF"/>
<path fill-rule="evenodd" clip-rule="evenodd" d="M524.868 218.735C525.411 218.735 525.819 218.6 526.362 218.33C527.449 217.789 527.992 216.572 527.992 214.95V211.435C527.992 210.354 528.4 209.543 528.943 209.137C529.623 208.732 530.438 208.867 531.389 209.407L534.377 211.165C534.649 211.3 535.057 211.165 535.192 210.894C535.328 210.624 535.192 210.219 534.921 210.083L531.932 208.326C530.574 207.515 529.215 207.38 528.264 208.056C527.313 208.596 526.634 209.813 526.634 211.435V214.95C526.634 216.032 526.226 216.843 525.683 217.248C525.004 217.654 524.189 217.519 523.102 216.978L508.702 208.732C508.43 208.596 508.023 208.596 507.887 209.002C507.751 209.272 507.887 209.678 508.158 209.813L522.558 218.059C523.374 218.6 524.053 218.735 524.868 218.735Z" fill="#D8E7FF"/>
<path fill-rule="evenodd" clip-rule="evenodd" d="M519.162 221.98C519.706 221.98 520.113 221.844 520.657 221.574C521.608 221.033 522.287 219.817 522.287 218.194V214.815C522.287 213.733 522.694 212.922 523.238 212.517C523.917 212.111 524.732 212.246 525.819 212.787L528.808 214.544C529.079 214.68 529.487 214.544 529.623 214.274C529.759 214.004 529.623 213.598 529.351 213.463L526.362 211.706C525.004 210.894 523.645 210.759 522.694 211.435C521.743 212.111 521.064 213.193 521.064 214.815V218.33C521.064 219.411 520.657 220.222 520.113 220.628C519.434 221.033 518.619 220.898 517.668 220.357L503.268 212.111C502.996 211.976 502.589 211.976 502.453 212.382C502.317 212.652 502.453 213.057 502.725 213.193L517.125 221.439C517.668 221.709 518.483 221.98 519.162 221.98Z" fill="#D8E7FF"/>
<path fill-rule="evenodd" clip-rule="evenodd" d="M513.592 225.224C514.136 225.224 514.543 225.089 515.087 224.818C516.038 224.278 516.717 223.061 516.717 221.439V217.924C516.717 216.843 517.125 216.031 517.668 215.626C518.347 215.22 519.162 215.355 520.113 215.896L523.102 217.654C523.374 217.789 523.781 217.654 523.917 217.383C524.053 217.113 523.917 216.707 523.645 216.572L520.657 214.815C519.298 214.004 517.94 213.868 516.989 214.544C515.902 215.085 515.358 216.302 515.358 217.924V221.439C515.358 222.52 514.951 223.331 514.408 223.737C513.728 224.143 512.913 224.007 511.962 223.467L497.562 215.22C497.291 215.085 496.883 215.085 496.747 215.491C496.611 215.761 496.747 216.167 497.019 216.302L511.419 224.548C512.098 224.954 512.913 225.224 513.592 225.224Z" fill="#D8E7FF"/>
<path fill-rule="evenodd" clip-rule="evenodd" d="M508.023 228.469C508.566 228.469 508.974 228.333 509.517 228.063C510.468 227.522 511.147 226.306 511.147 224.683V221.169C511.147 220.087 511.555 219.276 512.098 218.87C512.777 218.465 513.592 218.6 514.543 219.141L517.532 220.898C517.804 221.033 518.211 220.898 518.347 220.628C518.483 220.358 518.347 219.952 518.075 219.817L515.087 218.059C513.728 217.248 512.37 217.113 511.419 217.789C510.468 218.33 509.789 219.546 509.789 221.169V224.683C509.789 225.765 509.381 226.576 508.838 226.982C508.158 227.387 507.343 227.252 506.257 226.711L491.857 218.465C491.585 218.33 491.177 218.465 491.041 218.735C490.906 219.006 491.041 219.411 491.313 219.546L505.713 227.793C506.528 228.198 507.208 228.469 508.023 228.469Z" fill="#D8E7FF"/>
<path fill-rule="evenodd" clip-rule="evenodd" d="M502.317 231.713C502.86 231.713 503.268 231.578 503.811 231.307C504.762 230.767 505.441 229.55 505.441 227.928V224.413C505.441 223.332 505.849 222.52 506.392 222.115C507.072 221.709 507.887 221.844 508.974 222.385L511.962 224.143C512.234 224.278 512.641 224.143 512.777 223.872C512.913 223.602 512.777 223.196 512.506 223.061L509.517 221.304C508.158 220.493 506.8 220.357 505.849 221.033C504.898 221.574 504.219 222.791 504.219 224.413V227.928C504.219 229.009 503.811 229.82 503.268 230.226C502.589 230.632 501.774 230.496 500.823 229.956L486.423 221.709C486.151 221.574 485.743 221.574 485.608 221.98C485.472 222.25 485.608 222.656 485.879 222.791L500.279 231.037C500.823 231.443 501.638 231.713 502.317 231.713Z" fill="#D8E7FF"/>
<path fill-rule="evenodd" clip-rule="evenodd" d="M496.747 234.822C497.291 234.822 497.698 234.687 498.242 234.417C499.328 233.876 499.872 232.659 499.872 231.037V227.522C499.872 226.441 500.279 225.63 500.823 225.224C501.502 224.818 502.317 224.954 503.268 225.494L506.257 227.252C506.528 227.387 506.936 227.252 507.072 226.981C507.208 226.711 507.072 226.305 506.8 226.17L503.811 224.413C502.453 223.602 501.094 223.467 500.143 224.142C499.192 224.683 498.513 225.9 498.513 227.522V231.037C498.513 232.118 498.106 232.93 497.562 233.335C496.883 233.741 496.068 233.605 495.117 233.065L480.717 224.818C480.445 224.683 480.038 224.683 479.902 225.089C479.766 225.359 479.902 225.765 480.174 225.9L494.574 234.146C495.253 234.687 496.068 234.822 496.747 234.822Z" fill="#D8E7FF"/>
<path fill-rule="evenodd" clip-rule="evenodd" d="M491.177 238.067C491.721 238.067 492.128 237.932 492.672 237.661C493.758 237.12 494.302 235.904 494.302 234.282V230.767C494.302 229.685 494.709 228.874 495.253 228.469C495.932 228.063 496.747 228.198 497.698 228.739L500.687 230.496C500.958 230.632 501.366 230.496 501.502 230.226C501.638 229.956 501.502 229.55 501.23 229.415L498.242 227.657C496.883 226.846 495.525 226.711 494.574 227.387C493.487 227.928 492.943 229.145 492.943 230.767V234.282C492.943 235.363 492.536 236.174 491.992 236.58C491.313 236.985 490.498 236.85 489.547 236.309L475.147 228.063C474.875 227.928 474.468 228.063 474.332 228.333C474.196 228.604 474.332 229.009 474.604 229.145L489.004 237.391C489.683 237.796 490.362 238.067 491.177 238.067Z" fill="#D8E7FF"/>
<path fill-rule="evenodd" clip-rule="evenodd" d="M485.472 241.311C486.015 241.311 486.423 241.176 486.966 240.906C487.917 240.365 488.596 239.148 488.596 237.526V234.011C488.596 232.93 489.004 232.119 489.547 231.713C490.226 231.307 491.042 231.443 491.992 231.983L494.981 233.741C495.253 233.876 495.66 233.741 495.796 233.47C495.932 233.2 495.796 232.794 495.525 232.659L492.536 230.902C491.177 230.091 489.819 229.956 488.868 230.632C487.917 231.172 487.238 232.389 487.238 234.011V237.526C487.238 238.607 486.83 239.419 486.287 239.824C485.608 240.23 484.792 240.094 483.706 239.554L469.306 231.307C469.034 231.172 468.626 231.307 468.491 231.578C468.355 231.848 468.491 232.254 468.762 232.389L483.162 240.635C483.977 241.041 484.792 241.311 485.472 241.311Z" fill="#D8E7FF"/>
<path fill-rule="evenodd" clip-rule="evenodd" d="M479.902 244.556C480.445 244.556 480.853 244.42 481.396 244.15C482.347 243.609 483.026 242.393 483.026 240.77V237.256C483.026 236.174 483.434 235.363 483.977 234.957C484.657 234.552 485.472 234.687 486.558 235.228L489.547 236.985C489.819 237.12 490.226 236.985 490.362 236.715C490.498 236.444 490.362 236.039 490.091 235.904L487.102 234.146C485.743 233.335 484.385 233.2 483.434 233.876C482.483 234.417 481.804 235.633 481.804 237.256V240.77C481.804 241.852 481.396 242.663 480.853 243.068C480.174 243.474 479.358 243.339 478.408 242.798L464.008 234.552C463.736 234.417 463.328 234.417 463.192 234.822C463.057 235.093 463.192 235.498 463.464 235.633L477.864 243.88C478.408 244.285 479.223 244.556 479.902 244.556Z" fill="#D8E7FF"/>
<path fill-rule="evenodd" clip-rule="evenodd" d="M474.196 247.665C474.74 247.665 475.147 247.53 475.691 247.259C476.777 246.718 477.321 245.502 477.321 243.88V240.5C477.321 239.418 477.728 238.607 478.272 238.202C478.951 237.796 479.766 237.931 480.717 238.472L483.706 240.23C483.977 240.365 484.385 240.23 484.521 239.959C484.657 239.689 484.521 239.283 484.249 239.148L481.26 237.391C479.902 236.58 478.543 236.444 477.592 237.12C476.641 237.661 475.962 238.878 475.962 240.5V244.015C475.962 245.096 475.555 245.907 475.011 246.313C474.332 246.718 473.517 246.583 472.566 246.043L458.166 237.796C457.894 237.661 457.487 237.796 457.351 238.067C457.215 238.337 457.351 238.743 457.623 238.878L472.023 247.124C472.838 247.53 473.517 247.665 474.196 247.665Z" fill="#D8E7FF"/>
<path fill-rule="evenodd" clip-rule="evenodd" d="M468.626 250.909C469.17 250.909 469.577 250.774 470.121 250.504C471.208 249.963 471.751 248.746 471.751 247.124V243.609C471.751 242.528 472.158 241.717 472.702 241.311C473.381 240.906 474.196 241.041 475.147 241.582L478.136 243.339C478.408 243.474 478.815 243.339 478.951 243.069C479.087 242.798 478.951 242.393 478.679 242.257L475.691 240.5C474.332 239.689 472.974 239.554 472.023 240.23C471.072 240.77 470.392 241.987 470.392 243.609V247.124C470.392 248.206 469.985 249.017 469.441 249.422C468.762 249.828 467.947 249.693 466.996 249.152L452.596 240.906C452.325 240.77 451.917 240.77 451.781 241.176C451.645 241.446 451.781 241.852 452.053 241.987L466.453 250.233C467.132 250.774 467.947 250.909 468.626 250.909Z" fill="#D8E7FF"/>
<path fill-rule="evenodd" clip-rule="evenodd" d="M463.057 254.154C463.6 254.154 464.008 254.018 464.551 253.748C465.638 253.207 466.181 251.991 466.181 250.368V246.854C466.181 245.772 466.589 244.961 467.132 244.556C467.811 244.15 468.626 244.285 469.713 244.826L472.702 246.583C472.974 246.718 473.381 246.583 473.517 246.313C473.653 246.043 473.517 245.637 473.245 245.502L470.257 243.744C468.898 242.933 467.54 242.798 466.589 243.474C465.638 244.015 464.958 245.231 464.958 246.854V250.368C464.958 251.45 464.551 252.261 464.008 252.667C463.328 253.072 462.513 252.937 461.426 252.396L447.026 244.15C446.755 244.015 446.347 244.15 446.211 244.42C446.075 244.691 446.211 245.096 446.483 245.231L460.883 253.478C461.562 253.883 462.377 254.154 463.057 254.154Z" fill="#D8E7FF"/>
<path fill-rule="evenodd" clip-rule="evenodd" d="M457.351 257.398C457.894 257.398 458.302 257.263 458.845 256.992C459.796 256.452 460.475 255.235 460.475 253.613V250.098C460.475 249.017 460.883 248.205 461.426 247.8C462.106 247.394 462.921 247.53 463.872 248.07L466.86 249.828C467.132 249.963 467.54 249.828 467.675 249.557C467.811 249.287 467.675 248.881 467.404 248.746L464.415 246.989C463.057 246.178 461.698 246.042 460.747 246.718C459.66 247.259 459.117 248.476 459.117 250.098V253.613C459.117 254.694 458.709 255.505 458.166 255.911C457.487 256.317 456.672 256.181 455.721 255.641L441.321 247.394C441.049 247.259 440.642 247.259 440.506 247.665C440.37 247.935 440.506 248.341 440.777 248.476L455.177 256.722C455.992 257.128 456.672 257.398 457.351 257.398Z" fill="#D8E7FF"/>
<path fill-rule="evenodd" clip-rule="evenodd" d="M451.781 260.643C452.325 260.643 452.732 260.507 453.275 260.237C454.362 259.696 454.906 258.48 454.906 256.857V253.343C454.906 252.261 455.313 251.45 455.857 251.045C456.536 250.639 457.351 250.774 458.302 251.315L461.291 253.072C461.562 253.207 461.97 253.072 462.106 252.802C462.241 252.532 462.106 252.126 461.834 251.991L458.845 250.233C457.487 249.422 456.128 249.287 455.177 249.963C454.091 250.504 453.547 251.72 453.547 253.343V256.857C453.547 257.939 453.14 258.75 452.596 259.156C451.917 259.561 451.102 259.426 450.151 258.885L435.751 250.639C435.479 250.504 435.072 250.504 434.936 250.909C434.8 251.18 434.936 251.585 435.208 251.72L449.608 259.967C450.287 260.372 451.102 260.643 451.781 260.643Z" fill="#D8E7FF"/>
<path fill-rule="evenodd" clip-rule="evenodd" d="M446.211 263.752C446.755 263.752 447.162 263.617 447.706 263.346C448.792 262.806 449.336 261.589 449.336 259.967V256.452C449.336 255.37 449.743 254.559 450.287 254.154C450.966 253.748 451.781 253.883 452.732 254.424L455.721 256.181C455.992 256.317 456.4 256.181 456.536 255.911C456.672 255.641 456.536 255.235 456.264 255.1L453.275 253.343C451.917 252.531 450.558 252.396 449.608 253.072C448.657 253.613 447.977 254.83 447.977 256.452V259.967C447.977 261.048 447.57 261.859 447.026 262.265C446.347 262.67 445.532 262.535 444.445 261.994L430.045 253.748C429.774 253.613 429.366 253.748 429.23 254.018C429.094 254.289 429.23 254.694 429.502 254.83L443.902 263.076C444.717 263.617 445.532 263.752 446.211 263.752Z" fill="#D8E7FF"/>
<path fill-rule="evenodd" clip-rule="evenodd" d="M440.506 266.996C441.049 266.996 441.457 266.861 442 266.591C443.087 266.05 443.63 264.833 443.63 263.211V259.696C443.63 258.615 444.038 257.804 444.581 257.398C445.26 256.992 446.075 257.128 447.162 257.668L450.151 259.426C450.423 259.561 450.83 259.426 450.966 259.155C451.102 258.885 450.966 258.48 450.694 258.344L447.706 256.587C446.347 255.776 444.989 255.641 444.038 256.317C442.951 256.857 442.408 258.074 442.408 259.696V263.211C442.408 264.292 442 265.104 441.457 265.509C440.777 265.915 439.962 265.78 438.875 265.239L424.475 256.992C424.204 256.857 423.796 256.857 423.66 257.263C423.525 257.533 423.66 257.939 423.932 258.074L438.332 266.32C439.147 266.726 439.826 266.996 440.506 266.996Z" fill="#D8E7FF"/>
<path fill-rule="evenodd" clip-rule="evenodd" d="M434.936 270.241C435.479 270.241 435.887 270.106 436.43 269.835C437.517 269.295 438.06 268.078 438.06 266.456V262.941C438.06 261.859 438.468 261.048 439.011 260.643C439.691 260.237 440.506 260.372 441.457 260.913L444.445 262.67C444.717 262.806 445.125 262.67 445.26 262.4C445.396 262.13 445.26 261.724 444.989 261.589L442 259.832C440.641 259.02 439.283 258.885 438.332 259.561C437.245 260.102 436.702 261.319 436.702 262.941V266.456C436.702 267.537 436.294 268.348 435.751 268.754C435.072 269.159 434.257 269.024 433.306 268.483L418.906 260.237C418.634 260.102 418.226 260.102 418.091 260.507C417.955 260.778 418.091 261.183 418.362 261.319L432.762 269.565C433.441 269.97 434.257 270.241 434.936 270.241Z" fill="#D8E7FF"/>
<path fill-rule="evenodd" clip-rule="evenodd" d="M429.366 273.485C429.909 273.485 430.317 273.35 430.86 273.08C431.947 272.539 432.491 271.322 432.491 269.7V266.185C432.491 265.104 432.898 264.293 433.441 263.887C434.121 263.482 434.936 263.617 435.887 264.157L438.875 265.915C439.147 266.05 439.555 265.915 439.691 265.644C439.826 265.374 439.691 264.969 439.419 264.833L436.43 263.076C435.072 262.265 433.713 262.13 432.762 262.806C431.675 263.346 431.132 264.563 431.132 266.185V269.7C431.132 270.782 430.725 271.593 430.181 271.998C429.502 272.404 428.687 272.269 427.736 271.728L413.336 263.482C413.064 263.346 412.657 263.482 412.521 263.752C412.385 264.022 412.521 264.428 412.792 264.563L427.192 272.809C427.872 273.215 428.551 273.485 429.366 273.485Z" fill="#D8E7FF"/>
<path fill-rule="evenodd" clip-rule="evenodd" d="M423.66 276.73C424.204 276.73 424.611 276.594 425.155 276.324C426.242 275.783 426.785 274.567 426.785 272.944V269.43C426.785 268.348 427.192 267.537 427.736 267.131C428.415 266.726 429.23 266.861 430.181 267.402L433.17 269.159C433.442 269.294 433.849 269.159 433.985 268.889C434.121 268.618 433.985 268.213 433.713 268.078L430.725 266.32C429.366 265.509 428.008 265.374 427.057 266.05C426.106 266.591 425.426 267.807 425.426 269.43V272.944C425.426 274.026 425.019 274.837 424.475 275.243C423.796 275.648 422.981 275.513 421.894 274.972L407.494 266.726C407.223 266.591 406.815 266.591 406.679 266.996C406.543 267.267 406.679 267.672 406.951 267.807L421.351 276.054C422.166 276.459 422.981 276.73 423.66 276.73Z" fill="#D8E7FF"/>
<path fill-rule="evenodd" clip-rule="evenodd" d="M551.454 216.033C552.135 216.033 552.951 215.763 553.768 215.358L568.196 207.13C568.469 206.995 568.605 206.591 568.469 206.321C568.332 206.051 567.924 205.916 567.652 206.051L553.224 214.279C552.271 214.819 551.318 214.953 550.774 214.549C550.093 214.144 549.821 213.335 549.821 212.256V208.749C549.821 207.13 549.276 206.051 548.187 205.377C547.235 204.837 545.873 204.837 544.512 205.647L541.518 207.4C541.245 207.535 541.109 207.94 541.245 208.209C541.382 208.479 541.79 208.614 542.062 208.479L545.057 206.726C546.009 206.186 546.962 206.051 547.507 206.456C548.187 206.86 548.46 207.67 548.46 208.749V212.256C548.46 213.874 549.004 214.953 550.093 215.628C550.501 215.898 551.046 216.033 551.454 216.033Z" fill="#D8E7FF"/>
<path fill-rule="evenodd" clip-rule="evenodd" d="M557.171 219.135C557.852 219.135 558.668 218.865 559.485 218.46L573.913 210.233C574.185 210.098 574.322 209.693 574.185 209.423C574.049 209.153 573.641 209.019 573.369 209.153L558.941 217.381C557.988 217.921 557.035 218.056 556.49 217.651C555.81 217.246 555.538 216.437 555.538 215.358V211.851C555.538 210.233 554.993 209.153 553.904 208.479C552.951 207.94 551.59 207.94 550.229 208.749L547.235 210.502C546.962 210.637 546.826 211.042 546.962 211.312C547.098 211.581 547.507 211.716 547.779 211.581L550.774 209.828C551.726 209.288 552.679 209.153 553.224 209.558C553.904 209.963 554.176 210.772 554.176 211.851V215.358C554.176 216.977 554.721 218.056 555.81 218.73C556.082 219 556.627 219.135 557.171 219.135Z" fill="#D8E7FF"/>
<path fill-rule="evenodd" clip-rule="evenodd" d="M562.752 222.372C563.432 222.372 564.249 222.102 565.066 221.698L579.494 213.47C579.766 213.335 579.902 212.93 579.766 212.661C579.63 212.391 579.222 212.256 578.949 212.391L564.521 220.619C563.568 221.158 562.616 221.293 561.935 220.888C561.254 220.484 560.982 219.674 560.982 218.595V215.088C560.982 213.47 560.438 212.391 559.349 211.716C558.26 211.177 557.035 211.177 555.674 211.986L552.679 213.74C552.407 213.874 552.271 214.279 552.407 214.549C552.543 214.819 552.951 214.954 553.224 214.819L556.218 213.065C557.171 212.526 558.124 212.391 558.668 212.795C559.349 213.2 559.621 214.009 559.621 215.088V218.595C559.621 220.214 560.166 221.293 561.254 221.968C561.799 222.237 562.207 222.372 562.752 222.372Z" fill="#D8E7FF"/>
<path fill-rule="evenodd" clip-rule="evenodd" d="M568.332 225.609C569.013 225.609 569.83 225.339 570.646 224.935L585.075 216.707C585.347 216.572 585.483 216.167 585.347 215.898C585.211 215.628 584.802 215.493 584.53 215.628L570.102 223.856C569.149 224.395 568.196 224.53 567.516 224.126C566.835 223.721 566.563 222.912 566.563 221.832V218.326C566.563 216.707 566.019 215.628 564.93 214.953C563.977 214.414 562.616 214.414 561.254 215.223L558.26 216.977C557.988 217.112 557.852 217.516 557.988 217.786C558.124 218.056 558.532 218.191 558.804 218.056L561.799 216.302C562.752 215.763 563.705 215.628 564.385 216.032C565.066 216.437 565.338 217.246 565.338 218.326V221.832C565.338 223.451 565.882 224.53 566.971 225.205C567.38 225.474 567.924 225.609 568.332 225.609Z" fill="#D8E7FF"/>
<path fill-rule="evenodd" clip-rule="evenodd" d="M574.049 228.846C574.73 228.846 575.547 228.577 576.363 228.172L590.792 219.944C591.064 219.809 591.2 219.405 591.064 219.135C590.928 218.865 590.519 218.73 590.247 218.865L575.819 227.093C574.866 227.632 573.913 227.767 573.369 227.363C572.688 226.958 572.416 226.149 572.416 225.07V221.698C572.416 220.079 571.871 219 570.783 218.325C569.694 217.786 568.469 217.786 567.107 218.595L564.113 220.349C563.841 220.484 563.705 220.888 563.841 221.158C563.977 221.428 564.385 221.563 564.657 221.428L567.652 219.674C568.605 219.135 569.558 219 570.102 219.405C570.783 219.809 571.055 220.619 571.055 221.698V225.205C571.055 226.823 571.599 227.902 572.688 228.577C572.96 228.712 573.505 228.846 574.049 228.846Z" fill="#D8E7FF"/>
<path fill-rule="evenodd" clip-rule="evenodd" d="M579.63 231.949C580.311 231.949 581.127 231.679 581.944 231.274L596.372 223.047C596.645 222.912 596.781 222.507 596.645 222.237C596.508 221.967 596.1 221.833 595.828 221.967L581.4 230.195C580.447 230.735 579.494 230.87 578.813 230.465C578.133 230.06 577.861 229.251 577.861 228.172V224.665C577.861 223.047 577.316 221.967 576.227 221.293C575.138 220.753 573.913 220.753 572.552 221.563L569.558 223.316C569.285 223.451 569.149 223.856 569.285 224.126C569.421 224.395 569.83 224.53 570.102 224.395L573.097 222.642C574.049 222.102 575.002 221.967 575.547 222.372C576.227 222.777 576.499 223.586 576.499 224.665V228.172C576.499 229.791 577.044 230.87 578.133 231.544C578.677 231.949 579.086 231.949 579.63 231.949Z" fill="#D8E7FF"/>
<path fill-rule="evenodd" clip-rule="evenodd" d="M585.211 235.186C585.891 235.186 586.708 234.916 587.525 234.512L601.953 226.284C602.225 226.149 602.361 225.744 602.225 225.475C602.089 225.205 601.681 225.07 601.409 225.205L586.98 233.433C586.028 233.972 585.075 234.107 584.53 233.702C583.85 233.298 583.577 232.488 583.577 231.409V227.902C583.577 226.284 583.033 225.205 581.944 224.53C580.991 223.991 579.63 223.991 578.269 224.8L575.274 226.554C575.002 226.688 574.866 227.093 575.002 227.363C575.138 227.633 575.547 227.768 575.819 227.633L578.813 225.879C579.766 225.34 580.719 225.205 581.4 225.609C582.08 226.014 582.352 226.823 582.352 227.902V231.409C582.352 233.028 582.897 234.107 583.986 234.781C584.258 235.051 584.802 235.186 585.211 235.186Z" fill="#D8E7FF"/>
<path fill-rule="evenodd" clip-rule="evenodd" d="M590.928 238.423C591.608 238.423 592.425 238.153 593.242 237.749L607.67 229.521C607.942 229.386 608.078 228.981 607.942 228.712C607.806 228.442 607.398 228.307 607.125 228.442L592.697 236.67C591.744 237.209 590.792 237.344 590.247 236.939C589.567 236.535 589.294 235.726 589.294 234.646V231.139C589.294 229.521 588.75 228.442 587.661 227.767C586.572 227.228 585.347 227.228 583.986 228.037L580.991 229.791C580.719 229.926 580.583 230.33 580.719 230.6C580.855 230.87 581.263 231.005 581.536 230.87L584.53 229.116C585.483 228.577 586.436 228.442 586.98 228.846C587.661 229.251 587.933 230.06 587.933 231.139V234.646C587.933 236.265 588.478 237.344 589.567 238.019C589.839 238.288 590.383 238.423 590.928 238.423Z" fill="#D8E7FF"/>
<path fill-rule="evenodd" clip-rule="evenodd" d="M596.508 241.66C597.189 241.66 598.006 241.391 598.822 240.986L613.251 232.758C613.523 232.623 613.659 232.219 613.523 231.949C613.387 231.679 612.978 231.544 612.706 231.679L598.278 239.907C597.325 240.447 596.372 240.581 595.828 240.177C595.147 239.772 594.875 238.963 594.875 237.884V234.377C594.875 232.758 594.331 231.679 593.242 231.005C592.153 230.465 590.928 230.465 589.567 231.274L586.572 233.028C586.3 233.163 586.164 233.567 586.3 233.837C586.436 234.107 586.844 234.242 587.116 234.107L590.111 232.354C591.064 231.814 592.017 231.679 592.561 232.084C593.242 232.488 593.514 233.298 593.514 234.377V237.884C593.514 239.502 594.058 240.581 595.147 241.256C595.556 241.526 595.964 241.66 596.508 241.66Z" fill="#D8E7FF"/>
<path fill-rule="evenodd" clip-rule="evenodd" d="M602.225 244.898C602.906 244.898 603.723 244.628 604.539 244.223L618.968 235.995C619.24 235.86 619.376 235.456 619.24 235.186C619.104 234.916 618.695 234.781 618.423 234.916L603.995 243.144C603.042 243.684 602.089 243.818 601.409 243.414C600.728 243.009 600.456 242.2 600.456 241.121V237.614C600.456 235.995 599.911 234.916 598.822 234.242C597.733 233.702 596.508 233.702 595.147 234.512L592.153 236.265C591.88 236.4 591.744 236.805 591.88 237.074C592.017 237.344 592.425 237.479 592.697 237.344L595.692 235.591C596.645 235.051 597.597 234.916 598.142 235.321C598.822 235.725 599.095 236.535 599.095 237.614V241.121C599.095 242.739 599.639 243.818 600.728 244.493C601.136 244.763 601.681 244.898 602.225 244.898Z" fill="#D8E7FF"/>
<path fill-rule="evenodd" clip-rule="evenodd" d="M607.806 248C608.487 248 609.303 247.73 610.12 247.326L624.548 239.098C624.821 238.963 624.957 238.558 624.821 238.288C624.684 238.019 624.276 237.884 624.004 238.019L609.576 246.247C608.623 246.786 607.67 246.921 607.125 246.516C606.445 246.112 606.173 245.302 606.173 244.223V240.716C606.173 239.098 605.628 238.019 604.539 237.344C603.45 236.805 602.225 236.805 600.864 237.614L597.87 239.368C597.597 239.502 597.461 239.907 597.597 240.177C597.733 240.447 598.142 240.581 598.414 240.447L601.409 238.693C602.361 238.154 603.314 238.019 603.995 238.423C604.675 238.828 604.948 239.637 604.948 240.716V244.223C604.948 245.842 605.492 246.921 606.581 247.595C606.853 247.865 607.262 248 607.806 248Z" fill="#D8E7FF"/>
<path fill-rule="evenodd" clip-rule="evenodd" d="M613.387 251.237C614.067 251.237 614.884 250.967 615.701 250.563L630.129 242.335C630.401 242.2 630.537 241.795 630.401 241.526C630.265 241.256 629.857 241.121 629.585 241.256L615.156 249.484C614.203 250.023 613.251 250.158 612.706 249.753C612.026 249.349 611.753 248.539 611.753 247.46V243.953C611.753 242.335 611.209 241.256 610.12 240.581C609.031 240.042 607.806 240.042 606.445 240.851L603.45 242.605C603.178 242.739 603.042 243.144 603.178 243.414C603.314 243.684 603.723 243.819 603.995 243.684L606.989 241.93C607.942 241.391 608.895 241.256 609.439 241.66C610.12 242.065 610.392 242.874 610.392 243.953V247.46C610.392 249.079 610.937 250.158 612.026 250.833C612.434 251.102 612.842 251.237 613.387 251.237Z" fill="#D8E7FF"/>
<path fill-rule="evenodd" clip-rule="evenodd" d="M619.104 254.474C619.784 254.474 620.601 254.205 621.418 253.8L635.846 245.572C636.118 245.437 636.254 245.032 636.118 244.763C635.982 244.493 635.574 244.358 635.301 244.493L620.873 252.721C619.92 253.26 618.968 253.395 618.423 252.991C617.742 252.586 617.47 251.777 617.47 250.698V247.326C617.47 245.707 616.926 244.628 615.837 243.953C614.748 243.414 613.523 243.414 612.162 244.223L609.167 245.977C608.895 246.112 608.759 246.516 608.895 246.786C609.031 247.056 609.439 247.191 609.712 247.056L612.706 245.302C613.659 244.763 614.612 244.628 615.156 245.032C615.701 245.437 616.109 246.246 616.109 247.326V250.832C616.109 252.451 616.654 253.53 617.742 254.205C618.015 254.339 618.559 254.474 619.104 254.474Z" fill="#D8E7FF"/>
<path fill-rule="evenodd" clip-rule="evenodd" d="M624.684 257.712C625.365 257.712 626.182 257.442 626.998 257.037L641.427 248.809C641.699 248.674 641.835 248.27 641.699 248C641.563 247.73 641.154 247.595 640.882 247.73L626.454 255.958C625.501 256.498 624.548 256.632 624.004 256.228C623.323 255.823 623.051 255.014 623.051 253.935V250.428C623.051 248.809 622.507 247.73 621.418 247.056C620.329 246.516 619.104 246.516 617.742 247.325L614.748 249.079C614.476 249.214 614.34 249.619 614.476 249.888C614.612 250.158 615.02 250.293 615.292 250.158L618.287 248.405C619.24 247.865 620.193 247.73 620.873 248.135C621.554 248.539 621.826 249.349 621.826 250.428V253.935C621.826 255.553 622.37 256.632 623.459 257.307C623.732 257.577 624.14 257.712 624.684 257.712Z" fill="#D8E7FF"/>
<path fill-rule="evenodd" clip-rule="evenodd" d="M630.265 260.949C630.946 260.949 631.762 260.679 632.579 260.274L647.007 252.047C647.28 251.912 647.416 251.507 647.28 251.237C647.143 250.967 646.735 250.833 646.463 250.967L632.035 259.195C631.082 259.735 630.129 259.87 629.585 259.465C628.904 259.06 628.632 258.251 628.632 257.172V253.665C628.632 252.047 628.087 250.967 626.998 250.293C625.909 249.753 624.684 249.753 623.323 250.563L620.329 252.316C620.056 252.451 619.92 252.856 620.056 253.126C620.193 253.395 620.601 253.53 620.873 253.395L623.868 251.642C624.82 251.102 625.773 250.967 626.318 251.372C626.998 251.777 627.271 252.586 627.271 253.665V257.172C627.271 258.791 627.815 259.87 628.904 260.544C629.312 260.814 629.721 260.949 630.265 260.949Z" fill="#D8E7FF"/>
<path fill-rule="evenodd" clip-rule="evenodd" d="M635.982 264.051C636.663 264.051 637.479 263.781 638.296 263.377L652.724 255.149C652.996 255.014 653.133 254.609 652.996 254.339C652.86 254.07 652.452 253.935 652.18 254.07L637.751 262.298C636.799 262.837 635.846 262.972 635.301 262.567C634.621 262.163 634.349 261.353 634.349 260.274V256.767C634.349 255.149 633.804 254.07 632.715 253.395C631.626 252.856 630.401 252.856 629.04 253.665L626.046 255.419C625.773 255.553 625.637 255.958 625.773 256.228C625.909 256.498 626.318 256.633 626.59 256.498L629.585 254.744C630.537 254.205 631.49 254.07 632.035 254.474C632.715 254.879 632.987 255.688 632.987 256.767V260.274C632.987 261.893 633.532 262.972 634.621 263.646C634.893 263.916 635.438 264.051 635.982 264.051Z" fill="#D8E7FF"/>
<path fill-rule="evenodd" clip-rule="evenodd" d="M641.563 267.288C642.243 267.288 643.06 267.019 643.877 266.614L658.305 258.386C658.577 258.251 658.713 257.847 658.577 257.577C658.441 257.307 658.033 257.172 657.76 257.307L643.332 265.535C642.379 266.074 641.427 266.209 640.746 265.805C640.065 265.4 639.793 264.591 639.793 263.512V260.005C639.793 258.386 639.249 257.307 638.16 256.633C637.207 256.093 635.846 256.093 634.485 256.902L631.49 258.656C631.218 258.791 631.082 259.195 631.218 259.465C631.354 259.735 631.762 259.87 632.035 259.735L635.029 257.981C635.982 257.442 636.935 257.307 637.479 257.712C638.16 258.116 638.432 258.926 638.432 260.005V263.512C638.432 265.13 638.977 266.209 640.065 266.884C640.61 267.154 641.018 267.288 641.563 267.288Z" fill="#D8E7FF"/>
<path fill-rule="evenodd" clip-rule="evenodd" d="M647.143 270.525C647.824 270.525 648.641 270.256 649.457 269.851L663.886 261.623C664.158 261.488 664.294 261.084 664.158 260.814C664.022 260.544 663.613 260.409 663.341 260.544L648.913 268.772C647.96 269.312 647.007 269.446 646.463 269.042C645.782 268.637 645.51 267.828 645.51 266.749V263.242C645.51 261.623 644.966 260.544 643.877 259.87C642.788 259.33 641.563 259.33 640.202 260.139L637.207 261.893C636.935 262.028 636.799 262.432 636.935 262.702C637.071 262.972 637.479 263.107 637.751 262.972L640.746 261.219C641.699 260.679 642.652 260.544 643.332 260.949C644.013 261.353 644.285 262.163 644.285 263.242V266.749C644.285 268.367 644.83 269.446 645.918 270.121C646.191 270.391 646.735 270.525 647.143 270.525Z" fill="#D8E7FF"/>
<path fill-rule="evenodd" clip-rule="evenodd" d="M652.86 273.763C653.541 273.763 654.358 273.493 655.174 273.088L669.603 264.86C669.875 264.726 670.011 264.321 669.875 264.051C669.739 263.781 669.33 263.647 669.058 263.781L654.63 272.009C653.677 272.549 652.724 272.684 652.18 272.279C651.499 271.874 651.227 271.065 651.227 269.986V266.479C651.227 264.86 650.682 263.781 649.594 263.107C648.505 262.567 647.28 262.567 645.918 263.377L642.924 265.13C642.652 265.265 642.516 265.67 642.652 265.94C642.788 266.209 643.196 266.344 643.468 266.209L646.463 264.456C647.416 263.916 648.369 263.781 648.913 264.186C649.594 264.591 649.866 265.4 649.866 266.479V269.986C649.866 271.605 650.41 272.684 651.499 273.358C651.771 273.628 652.316 273.763 652.86 273.763Z" fill="#D8E7FF"/>
<path fill-rule="evenodd" clip-rule="evenodd" d="M658.441 276.865C659.122 276.865 659.938 276.595 660.755 276.191L675.183 267.963C675.456 267.828 675.592 267.423 675.456 267.153C675.319 266.884 674.911 266.749 674.639 266.884L660.211 275.112C659.258 275.651 658.305 275.786 657.761 275.381C657.08 274.977 656.808 274.167 656.808 273.088V269.581C656.808 267.963 656.263 266.884 655.174 266.209C654.085 265.67 652.86 265.67 651.499 266.479L648.505 268.233C648.232 268.367 648.096 268.772 648.232 269.042C648.369 269.312 648.777 269.446 649.049 269.312L652.044 267.558C652.996 267.019 653.949 266.884 654.494 267.288C655.174 267.693 655.447 268.502 655.447 269.581V273.088C655.447 274.707 655.991 275.786 657.08 276.46C657.488 276.865 657.897 276.865 658.441 276.865Z" fill="#D8E7FF"/>
<path fill-rule="evenodd" clip-rule="evenodd" d="M651.729 269.999V282.697L541.135 346.46L430.541 282.697V269.999H651.729Z" fill="url(#paint4_linear)"/>
<path fill-rule="evenodd" clip-rule="evenodd" d="M541.135 333.626L430.541 269.999L541.135 206.236L651.729 269.999L541.135 333.626Z" fill="#D8E7FF"/>
<path fill-rule="evenodd" clip-rule="evenodd" d="M541.135 332.14L431.895 269.188L430.541 269.999L541.135 333.626L651.729 269.999L650.376 269.188L541.135 332.14Z" fill="white"/>
<path fill-rule="evenodd" clip-rule="evenodd" d="M541.135 319.036L456.126 269.999L541.135 220.961L626.145 269.999L541.135 319.036Z" fill="#0F2C82"/>
<path opacity="0.5" fill-rule="evenodd" clip-rule="evenodd" d="M541.135 319.036L456.126 269.999L541.135 220.961L626.145 269.999L541.135 319.036Z" fill="url(#paint5_linear)"/>
<path opacity="0.5" fill-rule="evenodd" clip-rule="evenodd" d="M541.135 208.668L626.145 257.57V269.999L541.135 220.961V208.668Z" fill="url(#paint6_linear)"/>
<path opacity="0.5" fill-rule="evenodd" clip-rule="evenodd" d="M541.135 220.961L456.126 269.999V257.57L541.135 208.668V220.961Z" fill="url(#paint7_linear)"/>
<path opacity="0.5" fill-rule="evenodd" clip-rule="evenodd" d="M541.135 306.608L456.126 257.57L541.135 208.668L626.145 257.57L541.135 306.608Z" fill="url(#paint8_linear)"/>
<path opacity="0.5" fill-rule="evenodd" clip-rule="evenodd" d="M541.135 277.158L507.159 257.57L541.135 237.982L575.112 257.57L541.135 277.158Z" fill="#D8E7FF"/>
<path opacity="0.5" fill-rule="evenodd" clip-rule="evenodd" d="M541.135 239.874L573.623 258.516L575.112 257.57L541.135 237.982L507.159 257.57L508.648 258.516L541.135 239.874Z" fill="#D8E7FF"/>
<path opacity="0.5" fill-rule="evenodd" clip-rule="evenodd" d="M541.135 306.608V319.036L626.145 269.999V257.57L541.135 306.608Z" fill="url(#paint9_linear)"/>
<path opacity="0.5" fill-rule="evenodd" clip-rule="evenodd" d="M456.126 257.571V269.999L541.135 319.036V306.608L456.126 257.571Z" fill="url(#paint10_linear)"/>
<path opacity="0.8" fill-rule="evenodd" clip-rule="evenodd" d="M541.135 305.257L457.209 256.895L456.126 257.57L541.135 306.608L626.145 257.57L625.062 256.895L541.135 305.257Z" fill="#E5EFFF"/>
<path fill-rule="evenodd" clip-rule="evenodd" d="M567.924 361.734C568.06 361.734 568.332 361.596 568.469 361.458C568.605 361.183 568.469 360.77 568.196 360.632L553.768 352.236C551.454 350.86 549.685 347.694 549.685 345.079V341.501C549.685 338.473 547.643 334.756 545.057 333.242L542.062 331.453C541.79 331.315 541.382 331.453 541.245 331.728C541.109 332.003 541.245 332.416 541.518 332.554L544.512 334.343C546.826 335.72 548.596 338.885 548.596 341.501V345.079C548.596 348.107 550.637 351.824 553.224 353.338L567.652 361.734C567.788 361.734 567.788 361.734 567.924 361.734Z" fill="#D8E7FF"/>
<path fill-rule="evenodd" clip-rule="evenodd" d="M573.505 358.43C573.641 358.43 573.913 358.292 574.049 358.155C574.185 357.879 574.049 357.467 573.777 357.329L559.349 348.933C557.035 347.557 555.265 344.391 555.265 341.776V338.197C555.265 335.169 553.224 331.453 550.637 329.939L547.643 328.149C547.371 328.012 546.962 328.149 546.826 328.425C546.69 328.7 546.826 329.113 547.098 329.251L550.093 331.04C552.407 332.416 554.176 335.582 554.176 338.197V341.776C554.176 344.804 556.218 348.52 558.804 350.034L573.233 358.43C573.369 358.43 573.505 358.43 573.505 358.43Z" fill="#D8E7FF"/>
<path fill-rule="evenodd" clip-rule="evenodd" d="M579.222 355.127C579.358 355.127 579.63 354.989 579.766 354.852C579.902 354.576 579.766 354.163 579.494 354.026L565.066 345.63C562.752 344.253 560.982 341.088 560.982 338.473V334.894C560.982 331.866 558.94 328.15 556.354 326.636L553.36 324.846C553.088 324.709 552.679 324.846 552.543 325.122C552.407 325.397 552.543 325.81 552.815 325.947L555.81 327.737C558.124 329.113 559.893 332.279 559.893 334.894V338.473C559.893 341.501 561.935 345.217 564.521 346.731L578.949 355.127C578.949 355.127 579.086 355.127 579.222 355.127Z" fill="#D8E7FF"/>
<path fill-rule="evenodd" clip-rule="evenodd" d="M584.802 351.823C584.939 351.823 585.211 351.686 585.347 351.548C585.483 351.273 585.347 350.86 585.075 350.722L570.646 342.326C568.332 340.95 566.563 337.784 566.563 335.169V331.59C566.563 328.562 564.521 324.846 561.935 323.332L558.94 321.543C558.668 321.405 558.26 321.543 558.124 321.818C557.988 322.093 558.124 322.506 558.396 322.644L561.391 324.433C563.705 325.81 565.474 328.975 565.474 331.59V335.169C565.474 338.197 567.516 341.913 570.102 343.427L584.53 351.823C584.666 351.823 584.666 351.823 584.802 351.823Z" fill="#D8E7FF"/>
<path fill-rule="evenodd" clip-rule="evenodd" d="M590.519 348.52C590.655 348.52 590.928 348.383 591.064 348.245C591.2 347.97 591.064 347.557 590.792 347.419L576.363 339.023C574.049 337.647 572.28 334.481 572.28 331.866V328.287C572.28 325.259 570.238 321.543 567.652 320.029L564.657 318.24C564.385 318.102 563.977 318.24 563.841 318.515C563.705 318.79 563.841 319.203 564.113 319.341L567.107 321.13C569.421 322.506 571.191 325.672 571.191 328.287V331.866C571.191 334.894 573.233 338.61 575.819 340.124L590.247 348.52C590.247 348.52 590.383 348.52 590.519 348.52Z" fill="#D8E7FF"/>
<path fill-rule="evenodd" clip-rule="evenodd" d="M596.1 345.354C596.236 345.354 596.508 345.217 596.645 345.079C596.781 344.804 596.645 344.391 596.372 344.253L581.944 335.857C579.63 334.481 577.861 331.315 577.861 328.7V325.121C577.861 322.093 575.819 318.377 573.233 316.863L570.238 315.074C569.966 314.936 569.558 314.936 569.421 315.349C569.285 315.624 569.421 316.037 569.694 316.175L572.688 317.964C575.002 319.341 576.772 322.506 576.772 325.121V328.7C576.772 331.728 578.813 335.444 581.4 336.958L595.828 345.354C595.828 345.217 595.964 345.354 596.1 345.354Z" fill="#D8E7FF"/>
<path fill-rule="evenodd" clip-rule="evenodd" d="M601.681 342.051C601.817 342.051 602.089 341.914 602.225 341.776C602.361 341.501 602.225 341.088 601.953 340.95L587.525 332.554C585.211 331.178 583.441 328.012 583.441 325.397V321.818C583.441 318.79 581.4 315.074 578.813 313.56L575.819 311.771C575.547 311.633 575.138 311.633 575.002 312.046C574.866 312.321 575.002 312.734 575.274 312.872L578.269 314.661C580.583 316.037 582.352 319.203 582.352 321.818V325.397C582.352 328.425 584.394 332.141 586.98 333.655L601.409 342.051C601.545 342.051 601.545 342.051 601.681 342.051Z" fill="#D8E7FF"/>
<path fill-rule="evenodd" clip-rule="evenodd" d="M607.398 338.748C607.534 338.748 607.806 338.61 607.942 338.472C608.078 338.197 607.942 337.784 607.67 337.647L593.242 329.251C590.928 327.874 589.158 324.708 589.158 322.093V318.515C589.158 315.487 587.116 311.77 584.53 310.256L581.536 308.467C581.263 308.329 580.855 308.467 580.719 308.742C580.583 309.018 580.719 309.431 580.991 309.568L583.986 311.358C586.3 312.734 588.069 315.9 588.069 318.515V322.093C588.069 325.121 590.111 328.838 592.697 330.352L607.125 338.748C607.125 338.748 607.262 338.748 607.398 338.748Z" fill="#D8E7FF"/>
<path fill-rule="evenodd" clip-rule="evenodd" d="M612.978 335.444C613.115 335.444 613.387 335.307 613.523 335.169C613.659 334.894 613.523 334.481 613.251 334.343L598.822 325.947C596.508 324.571 594.739 321.405 594.739 318.79V315.212C594.739 312.183 592.697 308.467 590.111 306.953L587.116 305.164C586.844 305.026 586.436 305.026 586.3 305.439C586.164 305.714 586.3 306.127 586.572 306.265L589.567 308.054C591.88 309.431 593.65 312.596 593.65 315.212V318.79C593.65 321.818 595.692 325.534 598.278 327.048L612.706 335.444C612.706 335.444 612.842 335.444 612.978 335.444Z" fill="#D8E7FF"/>
<path fill-rule="evenodd" clip-rule="evenodd" d="M618.559 332.141C618.695 332.141 618.968 332.003 619.104 331.866C619.24 331.59 619.104 331.178 618.831 331.04L604.403 322.644C602.089 321.268 600.32 318.102 600.32 315.487V311.908C600.32 308.88 598.278 305.164 595.692 303.65L592.697 301.86C592.425 301.723 592.017 301.86 591.881 302.136C591.744 302.411 591.881 302.824 592.153 302.962L595.147 304.751C597.461 306.127 599.231 309.293 599.231 311.908V315.487C599.231 318.515 601.272 322.231 603.859 323.745L618.287 332.141C618.423 332.141 618.559 332.141 618.559 332.141Z" fill="#D8E7FF"/>
<path fill-rule="evenodd" clip-rule="evenodd" d="M624.276 328.838C624.412 328.838 624.684 328.7 624.821 328.562C624.957 328.287 624.821 327.874 624.548 327.737L610.12 319.341C607.806 317.964 606.037 314.799 606.037 312.183V308.605C606.037 305.577 603.995 301.861 601.409 300.346L598.414 298.557C598.142 298.42 597.733 298.42 597.597 298.832C597.461 299.108 597.597 299.521 597.87 299.658L600.864 301.448C603.178 302.824 604.948 305.99 604.948 308.605V312.183C604.948 315.212 606.989 318.928 609.576 320.442L624.004 328.838C624.004 328.838 624.14 328.838 624.276 328.838Z" fill="#D8E7FF"/>
<path fill-rule="evenodd" clip-rule="evenodd" d="M629.857 325.672C629.993 325.672 630.265 325.534 630.401 325.397C630.537 325.121 630.401 324.708 630.129 324.571L615.701 316.175C613.387 314.798 611.617 311.633 611.617 309.018V305.301C611.617 302.273 609.576 298.557 606.989 297.043L603.995 295.254C603.723 295.116 603.314 295.254 603.178 295.529C603.042 295.804 603.178 296.217 603.45 296.355L606.445 298.144C608.759 299.521 610.528 302.686 610.528 305.301V308.88C610.528 311.908 612.57 315.624 615.156 317.138L629.585 325.534C629.721 325.534 629.721 325.672 629.857 325.672Z" fill="#D8E7FF"/>
<path fill-rule="evenodd" clip-rule="evenodd" d="M635.438 322.369C635.574 322.369 635.846 322.231 635.982 322.093C636.118 321.818 635.982 321.405 635.71 321.268L621.281 312.872C618.968 311.495 617.198 308.33 617.198 305.714V302.136C617.198 299.108 615.156 295.392 612.57 293.877L609.576 292.088C609.303 291.951 608.895 292.088 608.759 292.363C608.623 292.639 608.759 293.052 609.031 293.189L612.026 294.979C614.34 296.355 616.109 299.521 616.109 302.136V305.714C616.109 308.743 618.151 312.459 620.737 313.973L635.165 322.369C635.301 322.369 635.438 322.369 635.438 322.369Z" fill="#D8E7FF"/>
<path fill-rule="evenodd" clip-rule="evenodd" d="M641.154 319.065C641.291 319.065 641.563 318.928 641.699 318.79C641.835 318.515 641.699 318.102 641.427 317.964L626.998 309.431C624.684 308.054 622.915 304.888 622.915 302.273V298.695C622.915 295.667 620.873 291.95 618.287 290.436L615.292 288.647C615.02 288.509 614.612 288.647 614.476 288.922C614.34 289.198 614.476 289.61 614.748 289.748L617.742 291.537C620.056 292.914 621.826 296.08 621.826 298.695V302.273C621.826 305.301 623.868 309.018 626.454 310.532L640.882 318.928C640.882 319.065 641.018 319.065 641.154 319.065Z" fill="#D8E7FF"/>
<path fill-rule="evenodd" clip-rule="evenodd" d="M646.735 315.762C646.871 315.762 647.143 315.624 647.28 315.487C647.416 315.212 647.28 314.799 647.007 314.661L632.579 306.265C630.265 304.889 628.496 301.723 628.496 299.108V295.529C628.496 292.501 626.454 288.785 623.868 287.271L620.873 285.481C620.601 285.344 620.193 285.344 620.056 285.757C619.92 286.032 620.056 286.445 620.329 286.583L623.323 288.372C625.637 289.748 627.407 292.914 627.407 295.529V299.108C627.407 302.136 629.448 305.852 632.035 307.366L646.463 315.762C646.599 315.762 646.599 315.762 646.735 315.762Z" fill="#D8E7FF"/>
<path fill-rule="evenodd" clip-rule="evenodd" d="M652.316 312.459C652.452 312.459 652.724 312.321 652.86 312.183C652.996 311.908 652.86 311.495 652.588 311.358L638.16 302.962C635.846 301.585 634.076 298.419 634.076 295.804V292.226C634.076 289.198 632.035 285.481 629.448 283.967L626.454 282.178C626.182 282.04 625.773 282.04 625.637 282.453C625.501 282.729 625.637 283.141 625.909 283.279L628.904 285.068C631.218 286.445 632.987 289.611 632.987 292.226V295.804C632.987 298.832 635.029 302.549 637.615 304.063L652.044 312.459C652.18 312.459 652.316 312.459 652.316 312.459Z" fill="#D8E7FF"/>
<path fill-rule="evenodd" clip-rule="evenodd" d="M658.033 309.155C658.169 309.155 658.441 309.018 658.577 308.88C658.713 308.605 658.577 308.192 658.305 308.054L643.877 299.658C641.563 298.282 639.793 295.116 639.793 292.501V288.922C639.793 285.894 637.751 282.178 635.165 280.664L632.171 278.875C631.899 278.737 631.49 278.875 631.354 279.15C631.218 279.425 631.354 279.838 631.626 279.976L634.621 281.765C636.935 283.142 638.704 286.307 638.704 288.922V292.501C638.704 295.529 640.746 299.245 643.332 300.759L657.76 309.155C657.76 309.155 657.897 309.155 658.033 309.155Z" fill="#D8E7FF"/>
<path fill-rule="evenodd" clip-rule="evenodd" d="M663.613 305.99C663.75 305.99 664.022 305.852 664.158 305.714C664.294 305.439 664.158 305.026 663.886 304.889L649.457 296.493C647.143 295.116 645.374 291.95 645.374 289.335V285.757C645.374 282.729 643.332 279.012 640.746 277.498L637.751 275.709C637.479 275.571 637.071 275.709 636.935 275.984C636.799 276.26 636.935 276.672 637.207 276.81L640.202 278.599C642.516 279.976 644.285 283.142 644.285 285.757V289.335C644.285 292.363 646.327 296.08 648.913 297.594L663.341 305.99C663.477 305.852 663.477 305.99 663.613 305.99Z" fill="#D8E7FF"/>
<path fill-rule="evenodd" clip-rule="evenodd" d="M669.194 302.686C669.33 302.686 669.603 302.549 669.739 302.411C669.875 302.136 669.739 301.723 669.466 301.585L655.038 293.189C652.724 291.813 650.955 288.647 650.955 286.032V282.453C650.955 279.425 648.913 275.709 646.327 274.195L643.332 272.406C643.06 272.268 642.652 272.406 642.516 272.681C642.379 272.956 642.516 273.369 642.788 273.507L645.782 275.296C648.096 276.673 649.866 279.838 649.866 282.453V286.032C649.866 289.06 651.908 292.776 654.494 294.29L668.922 302.686C669.058 302.686 669.194 302.686 669.194 302.686Z" fill="#D8E7FF"/>
<path fill-rule="evenodd" clip-rule="evenodd" d="M674.911 299.383C675.047 299.383 675.319 299.245 675.456 299.108C675.592 298.832 675.456 298.419 675.183 298.282L660.755 289.886C658.441 288.509 656.672 285.344 656.672 282.729V279.15C656.672 276.122 654.63 272.406 652.044 270.892L649.049 269.102C648.777 268.965 648.369 268.965 648.232 269.378C648.096 269.653 648.232 270.066 648.505 270.203L651.499 271.993C653.813 273.369 655.583 276.535 655.583 279.15V282.729C655.583 285.757 657.624 289.473 660.211 290.987L674.639 299.383C674.639 299.383 674.775 299.383 674.911 299.383Z" fill="#D8E7FF"/>
<path fill-rule="evenodd" clip-rule="evenodd" d="M514.136 362.088C514.273 362.088 514.273 362.088 514.409 361.952L528.864 353.614C531.455 352.111 533.5 348.557 533.5 345.414V341.86C533.5 339.263 535.409 335.983 537.591 334.753L540.591 332.976C540.864 332.839 541 332.429 540.864 332.156C540.727 331.882 540.318 331.746 540.045 331.882L537.045 333.659C534.455 335.163 532.409 338.716 532.409 341.86V345.414C532.409 348.01 530.5 351.291 528.318 352.521L513.864 360.858C513.591 360.995 513.455 361.405 513.591 361.678C513.727 361.952 514 362.088 514.136 362.088Z" fill="#D8E7FF"/>
<path fill-rule="evenodd" clip-rule="evenodd" d="M508.545 358.808C508.682 358.808 508.682 358.808 508.818 358.671L523.273 350.334C525.864 348.831 527.909 345.277 527.909 342.133V338.58C527.909 335.983 529.818 332.703 532 331.472L535 329.696C535.273 329.559 535.409 329.149 535.273 328.876C535.136 328.602 534.727 328.466 534.455 328.602L531.455 330.379C528.864 331.882 526.818 335.436 526.818 338.58V342.133C526.818 344.73 524.909 348.01 522.727 349.241L508.273 357.578C508 357.715 507.864 358.125 508 358.398C508.136 358.671 508.273 358.808 508.545 358.808Z" fill="#D8E7FF"/>
<path fill-rule="evenodd" clip-rule="evenodd" d="M502.818 355.528C502.955 355.528 502.955 355.528 503.091 355.391L517.545 347.054C520.136 345.55 522.182 341.997 522.182 338.853V335.299C522.182 332.703 524.091 329.422 526.273 328.192L529.273 326.415C529.545 326.279 529.682 325.869 529.545 325.595C529.409 325.322 529 325.185 528.727 325.322L525.727 327.099C523.136 328.602 521.091 332.156 521.091 335.299V338.853C521.091 341.45 519.182 344.73 517 345.96L502.545 354.298C502.273 354.434 502.136 354.844 502.273 355.118C502.409 355.391 502.682 355.528 502.818 355.528Z" fill="#D8E7FF"/>
<path fill-rule="evenodd" clip-rule="evenodd" d="M497.227 352.247C497.364 352.247 497.364 352.247 497.5 352.111L511.955 343.773C514.545 342.27 516.591 338.716 516.591 335.573V332.019C516.591 329.422 518.5 326.142 520.682 324.912L523.682 323.135C523.955 322.998 524.091 322.588 523.955 322.315C523.818 322.042 523.409 321.905 523.136 322.042L520.136 323.818C517.545 325.322 515.5 328.876 515.5 332.019V335.573C515.5 338.17 513.591 341.45 511.409 342.68L496.955 351.017C496.682 351.154 496.545 351.564 496.682 351.837C496.818 352.111 496.955 352.247 497.227 352.247Z" fill="#D8E7FF"/>
<path fill-rule="evenodd" clip-rule="evenodd" d="M491.636 348.967C491.773 348.967 491.773 348.967 491.909 348.83L506.364 340.493C508.955 338.99 511 335.436 511 332.292V328.739C511 326.142 512.909 322.862 515.091 321.632L518.091 319.855C518.364 319.718 518.5 319.308 518.364 319.035C518.227 318.761 517.818 318.625 517.545 318.761L514.545 320.538C511.955 322.042 509.909 325.595 509.909 328.739V332.292C509.909 334.889 508 338.17 505.818 339.4L491.364 347.737C491.091 347.874 490.955 348.284 491.091 348.557C491.227 348.967 491.364 348.967 491.636 348.967Z" fill="#D8E7FF"/>
<path fill-rule="evenodd" clip-rule="evenodd" d="M485.909 345.824C486.045 345.824 486.045 345.824 486.182 345.687L500.636 337.35C503.227 335.846 505.273 332.293 505.273 329.149V325.595C505.273 322.998 507.182 319.718 509.364 318.488L512.364 316.711C512.636 316.575 512.773 316.165 512.636 315.891C512.5 315.618 512.091 315.481 511.818 315.618L508.818 317.395C506.227 318.898 504.182 322.452 504.182 325.595V329.149C504.182 331.746 502.273 335.026 500.091 336.256L485.636 344.594C485.364 344.73 485.227 345.14 485.364 345.414C485.5 345.687 485.773 345.824 485.909 345.824Z" fill="#D8E7FF"/>
<path fill-rule="evenodd" clip-rule="evenodd" d="M480.318 342.543C480.455 342.543 480.455 342.543 480.591 342.407L495.045 334.069C497.636 332.566 499.682 329.012 499.682 325.869V322.315C499.682 319.718 501.591 316.438 503.773 315.208L506.773 313.431C507.045 313.294 507.182 312.884 507.045 312.611C506.909 312.338 506.5 312.201 506.227 312.338L503.227 314.114C500.636 315.618 498.591 319.171 498.591 322.315V325.869C498.591 328.466 496.682 331.746 494.5 332.976L480.045 341.313C479.773 341.45 479.636 341.86 479.773 342.133C479.909 342.407 480.045 342.543 480.318 342.543Z" fill="#D8E7FF"/>
<path fill-rule="evenodd" clip-rule="evenodd" d="M474.727 339.263C474.864 339.263 474.864 339.263 475 339.126L489.455 330.789C492.045 329.286 494.091 325.732 494.091 322.588V319.035C494.091 316.438 496 313.158 498.182 311.928L501.182 310.151C501.455 310.014 501.591 309.604 501.455 309.331C501.318 309.057 500.909 308.921 500.636 309.057L497.636 310.834C495.045 312.338 493 315.891 493 319.035V322.588C493 325.185 491.091 328.466 488.909 329.696L474.455 338.033C474.182 338.17 474.045 338.58 474.182 338.853C474.318 339.126 474.455 339.263 474.727 339.263Z" fill="#D8E7FF"/>
<path fill-rule="evenodd" clip-rule="evenodd" d="M469 335.983C469.136 335.983 469.136 335.983 469.273 335.846L483.727 327.509C486.318 326.005 488.364 322.452 488.364 319.308V315.754C488.364 313.158 490.273 309.877 492.455 308.647L495.455 306.87C495.727 306.734 495.864 306.324 495.727 306.05C495.591 305.777 495.182 305.64 494.909 305.777L491.909 307.554C489.318 309.057 487.273 312.611 487.273 315.754V319.308C487.273 321.905 485.364 325.185 483.182 326.415L468.727 334.753C468.455 334.889 468.318 335.299 468.455 335.573C468.591 335.846 468.864 335.983 469 335.983Z" fill="#D8E7FF"/>
<path fill-rule="evenodd" clip-rule="evenodd" d="M463.409 332.703C463.545 332.703 463.545 332.703 463.682 332.566L478.136 324.229C480.727 322.725 482.773 319.171 482.773 316.028V312.474C482.773 309.877 484.682 306.597 486.864 305.367L489.864 303.59C490.136 303.453 490.273 303.043 490.136 302.77C490 302.497 489.591 302.36 489.318 302.497L486.318 304.274C483.727 305.777 481.682 309.331 481.682 312.474V316.028C481.682 318.625 479.773 321.905 477.591 323.135L463.136 331.472C462.864 331.609 462.727 332.019 462.864 332.292C463 332.566 463.136 332.703 463.409 332.703Z" fill="#D8E7FF"/>
<path fill-rule="evenodd" clip-rule="evenodd" d="M457.818 329.422C457.955 329.422 457.955 329.422 458.091 329.286L472.545 320.948C475.136 319.445 477.182 315.891 477.182 312.748V309.194C477.182 306.597 479.091 303.317 481.273 302.087L484.273 300.31C484.545 300.173 484.682 299.763 484.545 299.49C484.409 299.216 484 299.08 483.727 299.216L480.727 300.993C478.136 302.497 476.091 306.05 476.091 309.194V312.748C476.091 315.344 474.182 318.625 472 319.855L457.545 328.192C457.273 328.329 457.136 328.739 457.273 329.012C457.409 329.422 457.545 329.422 457.818 329.422Z" fill="#D8E7FF"/>
<path fill-rule="evenodd" clip-rule="evenodd" d="M452.091 326.279C452.227 326.279 452.227 326.279 452.364 326.142L466.818 317.805C469.409 316.301 471.455 312.748 471.455 309.604V306.05C471.455 303.454 473.364 300.173 475.545 298.943L478.545 297.166C478.818 297.03 478.955 296.62 478.818 296.346C478.682 296.073 478.273 295.936 478 296.073L475 297.85C472.409 299.353 470.364 302.907 470.364 306.05V309.604C470.364 312.201 468.455 315.481 466.273 316.711L451.818 325.049C451.545 325.185 451.409 325.595 451.545 325.869C451.682 326.142 451.955 326.279 452.091 326.279Z" fill="#D8E7FF"/>
<path fill-rule="evenodd" clip-rule="evenodd" d="M446.5 322.998C446.636 322.998 446.636 322.998 446.773 322.862L461.227 314.524C463.818 313.021 465.864 309.467 465.864 306.324V302.77C465.864 300.173 467.773 296.893 469.955 295.663L472.955 293.886C473.227 293.749 473.364 293.339 473.227 293.066C473.091 292.793 472.682 292.656 472.409 292.793L469.409 294.569C466.818 296.073 464.773 299.627 464.773 302.77V306.324C464.773 308.921 462.864 312.201 460.682 313.431L446.227 321.768C445.955 321.905 445.818 322.315 445.955 322.588C446.091 322.862 446.227 322.998 446.5 322.998Z" fill="#D8E7FF"/>
<path fill-rule="evenodd" clip-rule="evenodd" d="M440.773 319.718C440.909 319.718 440.909 319.718 441.045 319.581L455.5 311.244C458.091 309.741 460.136 306.187 460.136 303.043V299.49C460.136 296.893 462.045 293.613 464.227 292.383L467.227 290.606C467.5 290.469 467.636 290.059 467.5 289.786C467.364 289.512 466.955 289.376 466.682 289.512L463.682 291.289C461.091 292.793 459.045 296.346 459.045 299.49V303.043C459.045 305.64 457.136 308.921 454.955 310.151L440.5 318.488C440.227 318.625 440.091 319.035 440.227 319.308C440.364 319.581 440.636 319.718 440.773 319.718Z" fill="#D8E7FF"/>
<path fill-rule="evenodd" clip-rule="evenodd" d="M435.182 316.438C435.318 316.438 435.318 316.438 435.455 316.301L449.909 307.964C452.5 306.46 454.545 302.907 454.545 299.763V296.21C454.545 293.613 456.455 290.332 458.636 289.102L461.636 287.326C461.909 287.189 462.045 286.779 461.909 286.505C461.773 286.232 461.364 286.095 461.091 286.232L458.091 288.009C455.5 289.512 453.455 293.066 453.455 296.21V299.763C453.455 302.36 451.545 305.64 449.364 306.87L434.909 315.208C434.636 315.344 434.5 315.754 434.636 316.028C434.773 316.301 435.045 316.438 435.182 316.438Z" fill="#D8E7FF"/>
<path fill-rule="evenodd" clip-rule="evenodd" d="M429.591 313.158C429.727 313.158 429.727 313.158 429.864 313.021L444.318 304.684C446.909 303.18 448.955 299.627 448.955 296.483V292.929C448.955 290.332 450.864 287.052 453.045 285.822L456.045 284.045C456.318 283.909 456.455 283.499 456.318 283.225C456.182 282.952 455.773 282.815 455.5 282.952L452.5 284.729C449.909 286.232 447.864 289.786 447.864 292.929V296.483C447.864 299.08 445.955 302.36 443.773 303.59L429.318 311.928C429.045 312.064 428.909 312.474 429.045 312.748C429.182 313.158 429.318 313.158 429.591 313.158Z" fill="#D8E7FF"/>
<path fill-rule="evenodd" clip-rule="evenodd" d="M423.864 309.877C424 309.877 424 309.877 424.136 309.741L438.591 301.403C441.182 299.9 443.227 296.346 443.227 293.203V289.649C443.227 287.052 445.136 283.772 447.318 282.542L450.318 280.765C450.591 280.628 450.727 280.218 450.591 279.945C450.455 279.672 450.045 279.535 449.773 279.672L446.773 281.448C444.182 282.952 442.136 286.505 442.136 289.649V293.203C442.136 295.8 440.227 299.08 438.045 300.31L423.591 308.647C423.318 308.784 423.182 309.194 423.318 309.467C423.455 309.877 423.727 309.877 423.864 309.877Z" fill="#D8E7FF"/>
<path fill-rule="evenodd" clip-rule="evenodd" d="M418.273 306.734C418.409 306.734 418.409 306.734 418.545 306.597L433 298.26C435.591 296.756 437.636 293.203 437.636 290.059V286.505C437.636 283.909 439.545 280.628 441.727 279.398L444.727 277.621C445 277.485 445.136 277.075 445 276.801C444.864 276.528 444.455 276.391 444.182 276.528L441.182 278.305C438.591 279.808 436.545 283.362 436.545 286.505V290.059C436.545 292.656 434.636 295.936 432.455 297.166L418 305.504C417.727 305.64 417.591 306.05 417.727 306.324C417.864 306.597 418.136 306.734 418.273 306.734Z" fill="#D8E7FF"/>
<path fill-rule="evenodd" clip-rule="evenodd" d="M412.682 303.454C412.818 303.454 412.818 303.454 412.955 303.317L427.409 294.979C430 293.476 432.045 289.922 432.045 286.779V283.225C432.045 280.628 433.955 277.348 436.136 276.118L439.136 274.341C439.409 274.204 439.545 273.794 439.409 273.521C439.273 273.248 438.864 273.111 438.591 273.248L435.591 275.025C433 276.528 430.955 280.082 430.955 283.225V286.779C430.955 289.376 429.045 292.656 426.864 293.886L412.409 302.223C412.136 302.36 412 302.77 412.136 303.043C412.273 303.317 412.409 303.454 412.682 303.454Z" fill="#D8E7FF"/>
<path fill-rule="evenodd" clip-rule="evenodd" d="M406.955 300.173C407.091 300.173 407.091 300.173 407.227 300.037L421.682 291.699C424.273 290.196 426.318 286.642 426.318 283.499V280.082C426.318 277.485 428.227 274.204 430.409 272.974L433.409 271.198C433.682 271.061 433.818 270.651 433.682 270.378C433.545 270.104 433.136 269.967 432.864 270.104L429.864 271.881C427.273 273.384 425.227 276.938 425.227 280.082V283.635C425.227 286.232 423.318 289.512 421.136 290.743L406.682 299.08C406.409 299.217 406.273 299.627 406.409 299.9C406.545 300.037 406.818 300.173 406.955 300.173Z" fill="#D8E7FF"/>
<path fill-rule="evenodd" clip-rule="evenodd" d="M553.6 180.605L557.958 163.14L571.338 175.182L553.6 180.605ZM556.721 177.341L566.925 174.221L559.228 167.293L556.721 177.341Z" fill="#4C71DD"/>
<path fill-rule="evenodd" clip-rule="evenodd" d="M543.753 106.176L552.259 97.1923L556.375 108.859L543.753 106.176ZM546.748 105.267L554.009 106.81L551.641 100.099L546.748 105.267Z" fill="#4C71DD"/>
<path fill-rule="evenodd" clip-rule="evenodd" d="M499.412 131.006L490.057 126.094L489.634 136.652L499.412 131.006ZM496.696 131.097L491.071 134.345L491.315 128.271L496.696 131.097Z" fill="#4C71DD"/>
<path fill-rule="evenodd" clip-rule="evenodd" d="M560.854 31.7544L551.499 26.842L551.076 37.3996L560.854 31.7544ZM558.138 31.8455L552.513 35.0931L552.756 29.0194L558.138 31.8455Z" fill="#4C71DD"/>
<path fill-rule="evenodd" clip-rule="evenodd" d="M525.362 174.621L519.868 170.711L518.633 177.34L525.362 174.621ZM523.628 174.444L519.757 176.008L520.468 172.194L523.628 174.444Z" fill="#4C71DD"/>
<path fill-rule="evenodd" clip-rule="evenodd" d="M527.659 165.952L522.993 165.195L524.548 169.658L527.659 165.952ZM526.553 166.365L524.763 168.497L523.869 165.93L526.553 166.365Z" fill="#4C71DD"/>
<path fill-rule="evenodd" clip-rule="evenodd" d="M494.716 158.953L491.152 157.572L491.496 161.379L494.716 158.953ZM493.753 159.096L491.9 160.492L491.702 158.302L493.753 159.096Z" fill="#4C71DD"/>
<path fill-rule="evenodd" clip-rule="evenodd" d="M495.174 162.06L492.467 161.795L493.892 164.111L495.174 162.06ZM494.606 162.31L493.868 163.491L493.049 162.158L494.606 162.31Z" fill="#4C71DD"/>
<path fill-rule="evenodd" clip-rule="evenodd" d="M531.019 211.16L536.513 207.249L537.749 213.879L531.019 211.16ZM532.753 210.982L536.625 212.546L535.914 208.733L532.753 210.982Z" fill="#4C71DD"/>
<path fill-rule="evenodd" clip-rule="evenodd" d="M580.733 136.028L587.318 134.575L585.866 141.16L580.733 136.028ZM582.399 136.542L585.351 139.495L586.187 135.706L582.399 136.542Z" fill="#4C71DD"/>
<path fill-rule="evenodd" clip-rule="evenodd" d="M562.185 69.4469L568.77 67.9939L567.317 74.5791L562.185 69.4469ZM563.85 69.9612L566.803 72.9137L567.639 69.1253L563.85 69.9612Z" fill="#4C71DD"/>
<path fill-rule="evenodd" clip-rule="evenodd" d="M514.505 52.0701L521.061 53.651L516.868 58.9327L514.505 52.0701ZM515.776 53.2624L517.136 57.2104L519.548 54.1719L515.776 53.2624Z" fill="#4C71DD"/>
<path fill-rule="evenodd" clip-rule="evenodd" d="M505.909 123.832L512.561 122.726L510.765 129.226L505.909 123.832ZM507.545 124.433L510.339 127.536L511.372 123.797L507.545 124.433Z" fill="#4C71DD"/>
<path fill-rule="evenodd" clip-rule="evenodd" d="M546.337 140.536L539.651 139.662L541.672 146.096L546.337 140.536ZM544.723 141.193L542.039 144.392L540.876 140.691L544.723 141.193Z" fill="#4C71DD"/>
<path fill-rule="evenodd" clip-rule="evenodd" d="M495.587 196.896L485.912 192.648L486.227 203.21L495.587 196.896ZM492.884 197.176L487.499 200.808L487.318 194.733L492.884 197.176Z" fill="#4C71DD"/>
<path fill-rule="evenodd" clip-rule="evenodd" d="M601.821 191.91L601.386 181.563L592.564 186.988L601.821 191.91ZM600.456 189.736L595.131 186.904L600.206 183.783L600.456 189.736Z" fill="#4C71DD"/>
<path fill-rule="evenodd" clip-rule="evenodd" d="M585.648 177.437L586.379 174.609L583.489 175.04L585.648 177.437ZM585.448 176.695L584.207 175.315L585.869 175.067L585.448 176.695Z" fill="#4C71DD"/>
<path fill-rule="evenodd" clip-rule="evenodd" d="M569.518 145.77L570.249 142.942L567.36 143.373L569.518 145.77ZM569.319 145.028L568.078 143.649L569.74 143.401L569.319 145.028Z" fill="#4C71DD"/>
<path fill-rule="evenodd" clip-rule="evenodd" d="M588.186 180.504L588.409 178.492L586.416 178.854L588.186 180.504ZM587.969 179.984L586.951 179.035L588.097 178.826L587.969 179.984Z" fill="#4C71DD"/>
<path fill-rule="evenodd" clip-rule="evenodd" d="M582.264 181.482L581.782 178.601L584.623 179.282L582.264 181.482ZM582.527 180.76L583.884 179.494L582.25 179.102L582.527 180.76Z" fill="#4C71DD"/>
<path fill-rule="evenodd" clip-rule="evenodd" d="M552.034 193.63L551.552 190.748L554.393 191.43L552.034 193.63ZM552.297 192.908L553.654 191.642L552.019 191.25L552.297 192.908Z" fill="#4C71DD"/>
<path fill-rule="evenodd" clip-rule="evenodd" d="M557.679 62.0916L557.197 59.2101L560.038 59.8916L557.679 62.0916ZM557.942 61.3693L559.299 60.1037L557.665 59.7116L557.942 61.3693Z" fill="#4C71DD"/>
<path fill-rule="evenodd" clip-rule="evenodd" d="M497.195 162.775L496.713 159.894L499.554 160.575L497.195 162.775ZM497.458 162.053L498.815 160.788L497.181 160.395L497.458 162.053Z" fill="#4C71DD"/>
<path fill-rule="evenodd" clip-rule="evenodd" d="M514.13 135.981L513.649 133.099L516.49 133.781L514.13 135.981ZM514.393 135.258L515.751 133.993L514.116 133.601L514.393 135.258Z" fill="#4C71DD"/>
<path fill-rule="evenodd" clip-rule="evenodd" d="M540.743 97.8182L540.262 94.9367L543.102 95.6182L540.743 97.8182ZM541.006 97.0959L542.364 95.8302L540.729 95.4382L541.006 97.0959Z" fill="#4C71DD"/>
<path fill-rule="evenodd" clip-rule="evenodd" d="M531.872 69.3992L531.391 66.5177L534.231 67.1992L531.872 69.3992ZM532.135 68.6769L533.493 67.4113L531.858 67.0192L532.135 68.6769Z" fill="#4C71DD"/>
<path fill-rule="evenodd" clip-rule="evenodd" d="M565.306 207.822L559.427 199.296L569.737 198.32L565.306 207.822ZM565.088 205.263L567.637 199.797L561.706 200.359L565.088 205.263Z" fill="#4C71DD"/>
<path opacity="0.5" fill-rule="evenodd" clip-rule="evenodd" d="M456 257.777V0H625V257.777L540.5 307L456 257.777Z" fill="url(#paint11_linear)"/>
<defs>
<radialGradient id="paint0_radial" cx="0" cy="0" r="1" gradientUnits="userSpaceOnUse" gradientTransform="translate(540.186 279.902) rotate(90) scale(272.397 452.323)">
<stop stop-color="#E5EFFF"/>
<stop offset="1" stop-color="#E5EFFF" stop-opacity="0.564595"/>
</radialGradient>
<radialGradient id="paint1_radial" cx="0" cy="0" r="1" gradientUnits="userSpaceOnUse" gradientTransform="translate(540.271 265.94) rotate(90) scale(256.147 436.509)">
<stop stop-color="#D8E7FF"/>
<stop offset="1" stop-color="#D8E7FF" stop-opacity="0.01"/>
</radialGradient>
<linearGradient id="paint2_linear" x1="656.664" y1="663.483" x2="484.476" y2="285.996" gradientUnits="userSpaceOnUse">
<stop stop-color="#385BC0"/>
<stop offset="0.1779" stop-color="#3457BB"/>
<stop offset="0.3876" stop-color="#4A78C0"/>
<stop offset="0.6134" stop-color="#6FA1F1"/>
<stop offset="0.849" stop-color="#ACCAFB"/>
<stop offset="1" stop-color="#D8E7FF"/>
</linearGradient>
<linearGradient id="paint3_linear" x1="112.661" y1="121.837" x2="671.228" y2="121.837" gradientUnits="userSpaceOnUse">
<stop stop-color="#D8E7FF"/>
<stop offset="0.2938" stop-color="#BFD6FA"/>
<stop offset="0.6399" stop-color="#B3D0FF"/>
<stop offset="1" stop-color="#D8E7FF"/>
</linearGradient>
<linearGradient id="paint4_linear" x1="375.873" y1="259.22" x2="659.29" y2="259.22" gradientUnits="userSpaceOnUse">
<stop stop-color="#4C71DD"/>
<stop offset="0.1645" stop-color="#5679E0"/>
<stop offset="0.4051" stop-color="#8EA6EF"/>
<stop offset="0.6924" stop-color="#8EB6F7"/>
<stop offset="1" stop-color="#C0D7FC"/>
</linearGradient>
<linearGradient id="paint5_linear" x1="456.08" y1="220.922" x2="626.195" y2="220.922" gradientUnits="userSpaceOnUse">
<stop stop-color="#D8E7FF"/>
<stop offset="0.1507" stop-color="#98BCF5"/>
<stop offset="0.3285" stop-color="#508DEE"/>
<stop offset="0.5199" stop-color="#5079BB"/>
<stop offset="0.7209" stop-color="#4C71DD"/>
<stop offset="0.9274" stop-color="#2F56C8"/>
<stop offset="1" stop-color="#042DA4"/>
</linearGradient>
<linearGradient id="paint6_linear" x1="541.136" y1="208.621" x2="626.195" y2="208.621" gradientUnits="userSpaceOnUse">
<stop stop-color="#D8E7FF"/>
<stop offset="0.1507" stop-color="#D0E2FF"/>
<stop offset="0.3285" stop-color="#AECAF8"/>
<stop offset="0.5199" stop-color="#8FAAFC"/>
<stop offset="0.7209" stop-color="#7597FC"/>
<stop offset="0.9274" stop-color="#4C71DD"/>
<stop offset="1" stop-color="#3C63D6"/>
</linearGradient>
<linearGradient id="paint7_linear" x1="456.08" y1="208.62" x2="541.139" y2="208.62" gradientUnits="userSpaceOnUse">
<stop stop-color="#D8E7FF"/>
<stop offset="0.1507" stop-color="#BFD7FD"/>
<stop offset="0.3285" stop-color="#9DC2FF"/>
<stop offset="0.5199" stop-color="#D8E7FF"/>
<stop offset="0.7209" stop-color="#A0C2F8"/>
<stop offset="0.9274" stop-color="#4C71DD"/>
<stop offset="1" stop-color="#3E65D7"/>
</linearGradient>
<linearGradient id="paint8_linear" x1="456.08" y1="208.631" x2="626.195" y2="208.631" gradientUnits="userSpaceOnUse">
<stop stop-color="#D8E7FF"/>
<stop offset="0.1507" stop-color="#C4DAFC"/>
<stop offset="0.3285" stop-color="#ADCCFF"/>
<stop offset="0.5199" stop-color="#8CB6F9"/>
<stop offset="0.7209" stop-color="#6C90F7"/>
<stop offset="0.9274" stop-color="#4C71DD"/>
<stop offset="1" stop-color="#2A5BEA"/>
</linearGradient>
<linearGradient id="paint9_linear" x1="541.139" y1="257.561" x2="626.195" y2="257.561" gradientUnits="userSpaceOnUse">
<stop stop-color="#D8E7FF"/>
<stop offset="0.1507" stop-color="#C8DDFD"/>
<stop offset="0.3285" stop-color="#B4CFFC"/>
<stop offset="0.5199" stop-color="#7DAEFB"/>
<stop offset="0.7209" stop-color="#6C8DEF"/>
<stop offset="0.9274" stop-color="#4C71DD"/>
<stop offset="1" stop-color="#2454E1"/>
</linearGradient>
<linearGradient id="paint10_linear" x1="456.08" y1="257.56" x2="541.139" y2="257.56" gradientUnits="userSpaceOnUse">
<stop stop-color="#D8E7FF"/>
<stop offset="0.1507" stop-color="#A0C0F4"/>
<stop offset="0.3285" stop-color="#98BEFC"/>
<stop offset="0.5199" stop-color="#5C84F9"/>
<stop offset="0.7209" stop-color="#3D5EC1"/>
<stop offset="0.9274" stop-color="#1A4DE1"/>
<stop offset="1" stop-color="#7A96E7"/>
</linearGradient>
<linearGradient id="paint11_linear" x1="455.976" y1="307.028" x2="455.976" y2="-0.0656389" gradientUnits="userSpaceOnUse">
<stop stop-color="#D8E7FF"/>
<stop offset="0.1055" stop-color="#B2CEFC"/>
<stop offset="0.2197" stop-color="#87B1F5" stop-opacity="0.463004"/>
<stop offset="0.338" stop-color="#94B7EE" stop-opacity="0.557971"/>
<stop offset="0.4587" stop-color="#D8E7FF" stop-opacity="0.59508"/>
<stop offset="0.5824" stop-color="#D8E7FF" stop-opacity="0.513644"/>
<stop offset="0.7105" stop-color="#D8E7FF" stop-opacity="0.01"/>
<stop offset="0.8458" stop-color="#D8E7FF" stop-opacity="0.01"/>
<stop offset="1" stop-color="#D8E7FF" stop-opacity="0.01"/>
</linearGradient>
</defs>
</svg>
