<svg width="204" height="21" viewBox="0 0 204 21" fill="none" xmlns="http://www.w3.org/2000/svg">
<path fill-rule="evenodd" clip-rule="evenodd" d="M34.6228 20.1212C33.5676 20.1212 32.5563 19.953 31.589 19.6166C30.6217 19.2803 29.8742 18.8363 29.3466 18.2846L29.9351 17.1343C30.4492 17.6455 31.1324 18.0593 31.9847 18.3754C32.837 18.6916 33.7164 18.8497 34.6228 18.8497C35.8946 18.8497 36.8483 18.6176 37.4842 18.1534C38.1201 17.6893 38.438 17.0872 38.438 16.3472C38.438 15.7821 38.2655 15.3313 37.9205 14.995C37.5755 14.6586 37.1527 14.3996 36.6522 14.218C36.1516 14.0363 35.4549 13.8379 34.562 13.6226C33.4932 13.3535 32.6409 13.0945 32.005 12.8456C31.3691 12.5967 30.8246 12.2166 30.3714 11.7053C29.9182 11.1941 29.6915 10.5012 29.6915 9.62662C29.6915 8.91352 29.8809 8.26435 30.2598 7.67907C30.6386 7.0938 31.2203 6.62626 32.005 6.27644C32.7897 5.92662 33.7637 5.75171 34.9272 5.75171C35.739 5.75171 36.5338 5.86271 37.3117 6.08471C38.0896 6.30671 38.7627 6.6128 39.3309 7.00298L38.8236 8.19371C38.2283 7.80353 37.5924 7.51089 36.916 7.3158C36.2395 7.12071 35.5766 7.02316 34.9272 7.02316C33.6826 7.02316 32.7457 7.26198 32.1166 7.73962C31.4875 8.21726 31.173 8.8328 31.173 9.58625C31.173 10.1513 31.3455 10.6054 31.6904 10.9485C32.0354 11.2916 32.4684 11.554 32.9892 11.7356C33.5101 11.9173 34.2102 12.1157 35.0896 12.331C36.1313 12.5866 36.9735 12.8389 37.6161 13.0878C38.2587 13.3367 38.8033 13.7134 39.2497 14.218C39.6962 14.7225 39.9194 15.4053 39.9194 16.2664C39.9194 16.9795 39.7266 17.6287 39.341 18.214C38.9555 18.7993 38.3636 19.2634 37.5654 19.6065C36.7672 19.9496 35.7863 20.1212 34.6228 20.1212ZM49.177 20.1212C47.77 20.1212 46.4949 19.8083 45.3517 19.1827C44.2085 18.5571 43.3156 17.6994 42.673 16.6095C42.0303 15.5197 41.709 14.2954 41.709 12.9364C41.709 11.5775 42.0303 10.3532 42.673 9.26335C43.3156 8.17352 44.2085 7.3158 45.3517 6.69016C46.4949 6.06452 47.77 5.75171 49.177 5.75171C50.584 5.75171 51.8523 6.06116 52.982 6.68007C54.1117 7.29898 55.0012 8.1567 55.6506 9.25325C56.3 10.3498 56.6247 11.5775 56.6247 12.9364C56.6247 14.2954 56.3 15.5231 55.6506 16.6196C55.0012 17.7162 54.1117 18.5739 52.982 19.1928C51.8523 19.8117 50.584 20.1212 49.177 20.1212ZM49.177 18.7892C50.2999 18.7892 51.3146 18.5369 52.221 18.0323C53.1275 17.5278 53.8377 16.8282 54.3518 15.9334C54.8659 15.0387 55.123 14.0397 55.123 12.9364C55.123 11.8332 54.8659 10.8342 54.3518 9.93944C53.8377 9.0447 53.1275 8.34507 52.221 7.84053C51.3146 7.33598 50.2999 7.08371 49.177 7.08371C48.0541 7.08371 47.0361 7.33598 46.1229 7.84053C45.2097 8.34507 44.4926 9.0447 43.9718 9.93944C43.4509 10.8342 43.1905 11.8332 43.1905 12.9364C43.1905 14.0397 43.4509 15.0387 43.9718 15.9334C44.4926 16.8282 45.2097 17.5278 46.1229 18.0323C47.0361 18.5369 48.0541 18.7892 49.177 18.7892ZM71.6456 5.8728V20.0001H70.4077L61.2757 8.5368V20.0001H59.774V5.8728H61.0119L70.1642 17.3361V5.8728H71.6456ZM76.0531 5.8728H81.8367C83.3385 5.8728 84.6643 6.17216 85.8142 6.77089C86.9642 7.36962 87.8571 8.20379 88.493 9.27344C89.1288 10.3431 89.4468 11.5641 89.4468 12.9364C89.4468 14.3088 89.1288 15.5298 88.493 16.5994C87.8571 17.6691 86.9642 18.5033 85.8142 19.102C84.6643 19.7007 83.3385 20.0001 81.8367 20.0001H76.0531V5.8728ZM81.7556 18.7084C83.0002 18.7084 84.0893 18.4629 85.0228 17.9718C85.9563 17.4807 86.6801 16.8013 87.1942 15.9334C87.7083 15.0656 87.9653 14.0666 87.9653 12.9364C87.9653 11.8062 87.7083 10.8073 87.1942 9.93944C86.6801 9.07161 85.9563 8.39217 85.0228 7.90107C84.0893 7.40998 83.0002 7.16444 81.7556 7.16444H77.5548V18.7084H81.7556ZM102.641 18.7084V20.0001H92.596V5.8728H102.337V7.16444H94.0977V12.1897H101.444V13.4612H94.0977V18.7084H102.641ZM115.653 20.0001L112.406 15.4592C112.041 15.4995 111.662 15.5197 111.27 15.5197H107.455V20.0001H105.953V5.8728H111.27C113.083 5.8728 114.503 6.30334 115.531 7.16444C116.56 8.02553 117.074 9.20952 117.074 10.7164C117.074 11.8197 116.793 12.7514 116.231 13.5116C115.67 14.2718 114.868 14.8201 113.827 15.1564L117.297 20.0001H115.653ZM111.229 14.2483C112.636 14.2483 113.712 13.9388 114.456 13.3199C115.2 12.701 115.572 11.8332 115.572 10.7164C115.572 9.57279 115.2 8.69489 114.456 8.08271C113.712 7.47052 112.636 7.16444 111.229 7.16444H107.455V14.2483H111.229ZM125.503 5.8728H131.287C132.788 5.8728 134.114 6.17216 135.264 6.77089C136.414 7.36962 137.307 8.20379 137.943 9.27344C138.579 10.3431 138.897 11.5641 138.897 12.9364C138.897 14.3088 138.579 15.5298 137.943 16.5994C137.307 17.6691 136.414 18.5033 135.264 19.102C134.114 19.7007 132.788 20.0001 131.287 20.0001H125.503V5.8728ZM131.206 18.7084C132.45 18.7084 133.539 18.4629 134.473 17.9718C135.406 17.4807 136.13 16.8013 136.644 15.9334C137.158 15.0656 137.415 14.0666 137.415 12.9364C137.415 11.8062 137.158 10.8073 136.644 9.93944C136.13 9.07161 135.406 8.39217 134.473 7.90107C133.539 7.40998 132.45 7.16444 131.206 7.16444H127.005V18.7084H131.206ZM142.046 5.8728H143.548V20.0001H142.046V5.8728ZM157.96 12.9364H159.401V18.325C158.738 18.9035 157.953 19.3475 157.047 19.657C156.14 19.9664 155.186 20.1212 154.185 20.1212C152.765 20.1212 151.486 19.8117 150.35 19.1928C149.213 18.5739 148.321 17.7162 147.671 16.6196C147.022 15.5231 146.697 14.2954 146.697 12.9364C146.697 11.5775 147.022 10.3498 147.671 9.25325C148.321 8.1567 149.213 7.29898 150.35 6.68007C151.486 6.06116 152.772 5.75171 154.206 5.75171C155.288 5.75171 156.282 5.92325 157.189 6.26635C158.095 6.60944 158.86 7.11734 159.482 7.79007L158.548 8.73862C157.426 7.63534 155.998 7.08371 154.267 7.08371C153.117 7.08371 152.078 7.33598 151.151 7.84053C150.225 8.34508 149.498 9.0447 148.97 9.93944C148.442 10.8342 148.179 11.8332 148.179 12.9364C148.179 14.0397 148.442 15.0353 148.97 15.9233C149.498 16.8114 150.221 17.511 151.141 18.0223C152.061 18.5335 153.096 18.7892 154.246 18.7892C155.707 18.7892 156.945 18.4259 157.96 17.6993V12.9364ZM163.423 5.8728H164.924V20.0001H163.423V5.8728ZM172.092 7.16444H167.1V5.8728H178.586V7.16444H173.594V20.0001H172.092V7.16444ZM188.959 16.2261H181.045L179.34 20.0001H177.778L184.272 5.8728H185.753L192.247 20.0001H190.664L188.959 16.2261ZM188.411 15.0152L185.002 7.4268L181.593 15.0152H188.411ZM194.382 5.8728H195.883V18.7084H203.838V20.0001H194.382V5.8728Z" fill="black"/>
<path fill-rule="evenodd" clip-rule="evenodd" d="M12.4872 0.90918L24.0051 20.0001H0.96936L2.61477 17.2728H7.60675V17.2661H19.1133L12.4872 6.2833L7.26737 14.9352H4.02512L12.4872 0.90918Z" fill="#2E58D1"/>
</svg>
