<svg width="66" height="25" fill="none" xmlns="http://www.w3.org/2000/svg"><path d="M20.79 2.746l.14.11.168.146c2.922 2.486 4.598 5.972 4.598 9.558 0 6.815-5.656 12.355-12.613 12.355-2.342 0-5.008-.719-6.597-1.757l-.22-.15-.121-.092 3.68-5.293h.683l2.594-3.485 2.51 3.476.379.005 2.195.004-3.783-5.274 3.615-4.889h-.553l3.324-4.714zM12.773.076c2.284 0 5.142.806 6.795 1.888l.35.24-3.886 5.155h-.675l-2.593 3.486-2.51-3.477-1.758-.009H7.68l3.783 5.274-3.614 4.89.552.018-3.324 4.714-.14-.11-.169-.147c-2.93-2.485-4.606-5.97-4.606-9.567C.162 5.617 5.817.076 12.774.076zm8.352 7.375c-1.845 0-2.808.704-2.88 2.103l-.004.172.01 1.852 2.21-1.577.009-.844c0-.385.215-.569.646-.569.451 0 .701.167.743.494l.006.103v1.119c0 .252-.275.62-.826 1.089l-.157.13-1.714 1.303c-.561.5-.868.985-.919 1.455l-.008.14v2.45h5.815l-.01-1.302-3.557-.01-.01-.67c0-.433.256-.89.766-1.361l.161-.143 1.714-1.284c.57-.467.877-.926.928-1.364l.008-.13V9.211c0-1.174-.974-1.761-2.93-1.761zm-16.33-.055h-2.2V8.45h.59c.562 0 .86.234.903.703l.005.122v7.586h2.762V9.469c0-1.385-.692-2.073-2.06-2.073zm25.61.266c.695 0 1.233.231 1.613.68l.1.127.056-.67h1.835l.02.065-.019.58c-.006.278-.009.613-.01 1.041v3.699c0 1.357-.337 2.265-1.011 2.843-.609.514-1.508.78-2.631.78-.801 0-1.579-.141-2.136-.39l-.215-.106.422-1.595.075.036c.393.22 1.086.459 1.826.459.564 0 1.522-.185 1.604-1.405l.006-.173v-.257c-.374.459-1.011.716-1.704.716-1.62 0-2.772-1.275-2.772-3.091 0-1.936 1.236-3.34 2.94-3.34zm31.92-.01c.695 0 1.233.232 1.613.68l.1.128.056-.67h1.845l.018.065-.014.278c-.009.248-.012.54-.013.915v4.127c0 1.357-.347 2.265-1.021 2.843-.6.514-1.508.78-2.631.78-.801 0-1.579-.142-2.136-.39l-.215-.106.422-1.596.075.037c.393.22 1.086.459 1.825.459.574 0 1.532-.185 1.615-1.405l.005-.173v-.257c-.374.459-1.011.716-1.704.716-1.62 0-2.78-1.275-2.78-3.091 0-1.936 1.235-3.34 2.94-3.34zm-25.3 0c1.794 0 2.79.885 2.86 2.564l.005.198v2.174c0 .595.014 1.096.07 1.419l.023.112-.01.11h-1.91l-.102-.623c-.431.467-1.058.688-1.807.688-1.377 0-2.098-1.019-2.098-1.973 0-1.505 1.24-2.36 3.516-2.434l.248-.005v-.019c0-.34-.224-.752-1.133-.752-.598 0-1.242.186-1.638.39l-.122.069-.066.046-.393-1.367.047-.028c.243-.137 1.152-.568 2.51-.568zm10.86.01c1.368-.01 2.21 1.027 2.21 2.76v3.798h-2.06v-3.513c0-.908-.299-1.367-.88-1.367-.561 0-.786.44-.86.633a1.507 1.507 0 00-.038.356v3.891h-2.06v-3.632c0-.468-.122-1.248-.871-1.248-.459 0-.74.34-.861.652-.066.156-.047.34-.047.477v3.76h-2.06V9.863c0-.752-.047-1.403-.066-1.99l-.018-.064h1.797l.075.78c.328-.44.908-.927 1.91-.927.806 0 1.461.385 1.77 1.027.243-.312.515-.55.805-.715a2.568 2.568 0 011.255-.312zm4.739.128v6.421h-2.06v-6.42h2.06zm4.307-.137c1.46.018 2.34 1.036 2.34 2.752v3.806h-2.06v-3.577c0-.853-.336-1.294-.954-1.294-.618 0-.88.477-.965.688-.03.081-.036.191-.037.34v3.834h-2.154V9.836l-.005-.72c-.008-.46-.023-.88-.041-1.27V7.78h1.835l.084.807c.225-.302.833-.935 1.957-.935zM37.84 11.212c-1.124.009-1.732.32-1.732.917 0 .422.262.679.711.679.431 0 .843-.285.974-.67.019-.061.034-.13.041-.202l.006-.11v-.614zm-7.032-1.963c-.74 0-1.236.688-1.236 1.706 0 .954.496 1.596 1.227 1.596.468 0 .908-.294 1.02-.734a1.44 1.44 0 00.097-.382l.006-.123v-.917c0-.11-.047-.229-.075-.34-.14-.513-.543-.806-1.039-.806zm31.93 0c-.74 0-1.237.688-1.237 1.706 0 .954.497 1.596 1.227 1.596.459 0 .861-.294.983-.734.028-.09.046-.21.053-.353l.003-.152v-.917c0-.11 0-.229-.028-.34-.15-.513-.505-.806-1.002-.806zM51.585 5.13c.574 0 1.039.456 1.039 1.019 0 .562-.465 1.018-1.04 1.018-.574 0-1.039-.456-1.039-1.018 0-.563.465-1.019 1.04-1.019z" fill="#696969"/></svg>
