<svg width="152" height="47" xmlns="http://www.w3.org/2000/svg"><defs><linearGradient x1="22.779%" y1="4.414%" x2="77.307%" y2="95.728%" id="a"><stop stop-color="#9E1C20" offset="0%"/><stop stop-color="#DB1F26" offset="86.16%"/></linearGradient><linearGradient x1="24.118%" y1="84.911%" x2="71.073%" y2="21.576%" id="b"><stop stop-color="#9E1C20" offset="49.69%"/><stop stop-color="#E01F26" offset="68.51%"/></linearGradient><linearGradient x1="71.382%" y1="81.627%" x2="28.68%" y2="18.691%" id="e"><stop stop-color="#FFF" offset="0%"/><stop stop-color="#AFB8B7" offset="0%"/><stop stop-color="#FFF" offset="64.88%"/><stop stop-color="#FFF" offset="100%"/><stop stop-color="#FFF" offset="100%"/></linearGradient><linearGradient x1="53.672%" y1="85.677%" x2="46.283%" y2="13.678%" id="f"><stop stop-color="#FFF" offset="0%"/><stop stop-color="#AFB8B7" offset="0%"/><stop stop-color="#FFF" offset="64.88%"/><stop stop-color="#FFF" offset="100%"/><stop stop-color="#FFF" offset="100%"/></linearGradient><linearGradient x1="39.179%" y1="39.114%" x2="65.867%" y2="65.964%" id="g"><stop stop-color="#9E1C20" offset="0%"/><stop stop-color="#DB1F26" offset="52.15%"/></linearGradient><radialGradient cx="49.999%" cy="49.997%" fx="49.999%" fy="49.997%" r="53.042%" gradientTransform="scale(-1 -.98582) rotate(-18.277 -3.13 3.104)" id="c"><stop stop-color="#EE332F" offset="39.68%"/><stop stop-color="#B41F24" offset="100%"/></radialGradient><radialGradient cx="99.113%" cy="34.069%" fx="99.113%" fy="34.069%" r="121.888%" gradientTransform="matrix(.8426 0 0 1 .156 0)" id="d"><stop stop-color="#B41F24" offset="17.91%"/><stop stop-color="#DB1F26" offset="100%"/></radialGradient><radialGradient cx="12.738%" cy="62.943%" fx="12.738%" fy="62.943%" r="81.806%" gradientTransform="matrix(.88002 0 0 1 .015 0)" id="h"><stop stop-color="#F15858" offset="19.32%"/><stop stop-color="#D52027" offset="84.98%"/></radialGradient></defs><g fill="none" fill-rule="evenodd"><g opacity=".37" fill-rule="nonzero"><path d="M25.1 4.007c-.175-1.453-1.452-2.73-2.906-2.818L9.688.309C8.235.22 6.253 1.012 5.24 2.068L1.585 5.99C.617 7.046-.088 9.116.088 10.569l1.321 12.33c.176 1.453 1.453 2.73 2.907 2.818l12.506.881c1.453.088 3.435-.704 4.448-1.761l3.655-3.92c.969-1.056 1.673-3.126 1.497-4.58l-1.321-12.33z" fill="url(#a)" transform="translate(39.193 5.165)"/><path d="M62.532 22.604v-.132c-.088-1.013.176-2.114.617-2.51.396-.353.792.132.88 1.056v.132c.088 1.013-.176 2.158-.616 2.51-.396.353-.749-.132-.88-1.056M56.455 9.305h-.132c-.969-.088-1.365-.529-.88-.97.44-.396 1.54-.66 2.465-.616h.132c.97.088 1.366.529.881.97-.44.395-1.541.66-2.466.616" fill="#FFF"/></g><g opacity=".357" fill-rule="nonzero"><path d="M18.32 1.41C17.173.131 15.104-.177 13.65.704L3.655 6.782C2.202 7.662.837 9.776.617 11.45l-.573 4.447c-.22 1.674.528 4.096 1.63 5.373l7.662 8.63c1.145 1.278 3.214 1.586 4.668.706l9.952-6.078c1.453-.88 2.818-2.994 3.038-4.667l.573-4.448c.22-1.674-.528-4.096-1.63-5.373L18.32 1.41z" fill="url(#b)" transform="translate(33.468 2.963)"/><path d="M58.128 13.884c-.616-.704-1.189-.836-1.32-.352-.133.529.308 1.585.968 2.378.044.044.044.088.088.088.617.705 1.19.837 1.321.352.132-.528-.308-1.585-.968-2.378 0-.044-.045-.044-.089-.088m-6.165-1.981c-.616-.705-1.189-.837-1.32-.353-.133.529.307 1.586.968 2.378.044.044.044.089.088.089.617.704 1.19.836 1.321.352.132-.529-.308-1.63-.969-2.378-.044 0-.044-.044-.088-.088m1.85 12.814c-.66-.748-1.85-.968-2.73-.44-.881.484-1.057 1.541-.397 2.29.66.749 1.894.969 2.73.44.881-.528 1.057-1.54.397-2.29" fill="#FFF"/></g><g opacity=".627"><path d="M3.039 30.297c1.981 3.039 6.561 5.945 10.172 6.43l11.494 1.54c3.61.485 7.442-1.937 8.587-5.416l3.61-11.185c1.102-3.435.397-8.763-1.585-11.802l-.924-1.409C32.41 5.417 27.83 2.51 24.22 2.025L12.77.486C9.16 0 5.285 2.421 4.184 5.9L.573 17.086C-.529 20.521.175 25.85 2.157 28.888l.88 1.41z" fill="url(#c)" fill-rule="nonzero" transform="translate(16.294 .761)"/><path d="M21.798 24.497l10.877 1.453c3.48.485 7.222-1.893 8.323-5.24l3.391-10.525c1.1-3.346-.88-6.473-4.36-6.957L29.196 1.774c-3.479-.484-7.222 1.894-8.323 5.24l-3.39 10.525c-1.101 3.391.836 6.518 4.315 6.958"/><path d="M36.99 10.758c1.366.22 2.863-.705 3.304-2.026.44-1.321-.309-2.554-1.674-2.774-1.365-.22-2.862.704-3.303 2.025-.44 1.322.309 2.555 1.674 2.775m12.506 22.238l3.391-10.524c1.101-3.347 1.057-7.53-.132-9.292l-3.611-5.55C48 5.87 46.15 7.147 45.094 10.538l-3.391 10.524c-1.101 3.347-1.057 7.53.132 9.292l3.61 5.549c1.146 1.761 2.951.44 4.052-2.907"/><path d="M51.655 20.226c.396-1.233.396-2.819 0-3.567-.44-.793-1.145-.397-1.585.88 0 .044-.044.133-.044.177-.397 1.233-.397 2.818 0 3.567.44.792 1.145.396 1.629-.881-.044-.088-.044-.132 0-.176m-6.825 7.09c.396-1.233.396-2.819 0-3.567-.441-.793-1.146-.397-1.586.88 0 .044-.044.132-.044.177-.396 1.233-.396 2.818 0 3.566.44.793 1.145.397 1.63-.88-.045-.044-.045-.088 0-.176" fill="#FFF" fill-rule="nonzero"/><path d="M29.637 37.224l10.877 1.453c3.479.484 5.372-.616 4.227-2.378l-3.61-5.549c-1.146-1.761-4.933-3.61-8.412-4.05l-10.877-1.454c-3.479-.44-5.416.616-4.227 2.378l3.61 5.548c1.146 1.762 4.933 3.567 8.412 4.052"/></g><path d="M42.628 16.042c-.925-3.523-4.36-7.706-7.619-9.292L21.446.145c-3.303-1.585-7.707-.484-9.864 2.466L2.554 14.897C.396 17.847-.572 23.088.352 26.611l.97 3.655c.924 3.523 4.359 7.706 7.617 9.292l13.564 6.605c3.258 1.586 7.706.485 9.864-2.422l9.027-12.33c2.158-2.906 3.127-8.19 2.202-11.714l-.968-3.655z"/><g fill-rule="nonzero"><path d="M31.222 6.517l-11.273-5.46c-3.611-1.762-8.5-.529-10.877 2.73L1.629 13.916C-.749 17.174.264 21.27 3.831 22.987l11.274 5.46c3.61 1.762 8.499.53 10.877-2.73l7.486-10.128c2.378-3.215 1.365-7.31-2.246-9.072" fill="url(#d)" transform="translate(6.606 16.615)"/><path d="M28.712 11.582c-1.41-.705-3.347-.265-4.316 1.012-.968 1.278-.616 2.863.793 3.612 1.41.704 3.347.264 4.316-1.013 1.012-1.277.616-2.863-.793-3.611" fill="url(#e)" transform="translate(6.606 16.615)"/><path d="M9.864 15.985c-1.409-.704-3.347-.264-4.315 1.013-.97 1.277-.617 2.863.792 3.611 1.41.705 3.347.264 4.316-1.013.969-1.277.616-2.906-.793-3.61" fill="url(#f)" transform="translate(6.606 16.615)"/></g><g fill-rule="nonzero"><path d="M10.877 3.259L3.435 13.43C1.057 16.69-.396 21.226.22 23.56l1.938 7.266c.616 2.334 3.082 1.585 5.46-1.674l7.443-10.172c2.378-3.259 3.83-7.795 3.214-10.129l-1.937-7.266C15.72-.749 13.255 0 10.878 3.26" fill="url(#g)" transform="translate(0 .761)"/><path d="M11.89 6.486c-.88 1.233-1.453 2.907-1.277 3.875.176 1.013 1.1.837 2.07-.352.044-.044.088-.132.132-.176.88-1.233 1.453-2.906 1.277-3.875-.176-1.013-1.101-.837-2.07.352-.044.044-.088.132-.132.176M5.68 24.145c-.88 1.189-1.452 2.906-1.276 3.875.176 1.013 1.1.837 2.07-.352.043-.044.087-.132.132-.176.88-1.19 1.453-2.907 1.277-3.875-.177-1.013-1.101-.837-2.07.352-.044.044-.088.132-.132.176" fill="#FFF"/></g><g fill-rule="nonzero"><path d="M17.218 6.694L5.945 1.189C2.334-.572-.088-.088.528 2.246l1.938 7.266c.617 2.334 4.051 5.637 7.662 7.398l11.274 5.46c3.61 1.762 6.033 1.278 5.416-1.056l-1.937-7.222c-.617-2.334-4.052-5.681-7.663-7.398" fill="url(#h)" transform="translate(16.734 -.12)"/><path d="M35.097 9.569c-1.365-.66-2.29-.529-2.158.308.133.88 1.41 2.202 2.863 2.95a.334.334 0 00.176.089c1.365.66 2.29.528 2.158-.309-.132-.88-1.41-2.201-2.863-2.95-.044 0-.088-.044-.176-.088m-10.304.881c-1.321-.661-2.29-.529-2.158.308.132.88 1.409 2.202 2.862 2.95a.334.334 0 00.176.088c1.321.66 2.29.529 2.158-.308-.132-.88-1.409-2.202-2.862-2.95-.044-.044-.132-.044-.176-.088" fill="#FFF"/></g><path d="M88.426 25.246c-.309-.044-2.202-.088-4.712-.132a522.623 522.623 0 00-8.764-.088h-.968l-.397-.925c1.85-1.673 7.75-6.253 7.75-9.864 0-3.48-4.139-4.096-6.56-4.184l.836-4.447c8.587.704 11.978 3.963 11.978 7.354 0 4.095-3.92 6.561-5.064 7.398v.22l5.857-.308.044 4.976h0zm6.121-13.079c0-.793-.044-5.549-.132-6.121 3.875 0 5.9.044 8.235.308 5.548.705 6.297 2.907 6.297 4.404 0 .969-.529 2.642-3.347 3.963v.176c1.85.353 4.183 1.586 4.183 4.14 0 3.038-4.05 6.165-12.858 6.165H94.37c.132-1.453.132-9.556.132-10.04v-2.995h.044zm5.548 1.938c1.145 0 3.039-1.057 3.039-3.039 0-1.761-1.938-2.07-3.039-1.982v5.02zm0 7.794c1.454 0 3.7-1.189 3.7-2.686 0-1.718-1.85-2.598-3.7-2.51v5.196zm16.382 3.127c.044-.617.132-3.435.132-3.787v-1.19c0-3.434-1.497-6.209-3.479-7.53a11.486 11.486 0 00-3.038-1.409l2.07-5.504c1.805.572 3.655 1.453 5.02 2.818.968.969 1.937 2.378 2.598 4.448h.22c.572-1.806 1.673-3.215 2.95-4.448 1.278-1.233 2.95-2.246 5.02-2.818l1.674 5.504c-1.189.22-2.818.969-4.051 1.982-1.586 1.32-2.995 3.83-2.995 6.87v1.717c0 .352.088 2.73.132 3.303l-6.253.044h0zm29.857.22c-.308-.044-2.202-.088-4.712-.132a522.623 522.623 0 00-8.763-.088h-.97l-.395-.925c1.85-1.673 7.794-6.253 7.794-9.864 0-3.48-4.14-4.096-6.561-4.184l.836-4.447c8.587.704 11.978 3.963 11.978 7.354 0 4.095-3.919 6.561-5.064 7.398v.22l5.857-.308v4.976h0z" fill="#FFF" fill-rule="nonzero" stroke="#000" stroke-width=".661"/><path d="M78.077 39.602V38.28h6.562v7.838h-1.982v-1.453c-.485.484-1.101.837-1.806 1.101a6.343 6.343 0 01-2.245.396c-.265 0-.573 0-.97-.044a6.899 6.899 0 01-1.232-.264c-.44-.132-.837-.396-1.277-.705a3.776 3.776 0 01-1.145-1.32c-.353-.573-.617-1.234-.837-2.114-.22-.881-.308-1.894-.308-3.083 0-1.497.132-2.774.44-3.787.264-1.057.705-1.894 1.19-2.51.527-.66 1.144-1.145 1.893-1.41.748-.308 1.585-.44 2.554-.44.836 0 1.541.088 2.114.308.616.22 1.1.485 1.497.881.396.397.704.837.88 1.321.177.485.309 1.057.309 1.63h-1.982a2.57 2.57 0 00-.088-1.013c-.088-.352-.264-.617-.484-.925-.22-.264-.529-.484-.881-.66-.352-.177-.793-.265-1.277-.265a4.11 4.11 0 00-1.718.353c-.484.22-.88.528-1.145.88-.308.353-.528.793-.704 1.233a8.916 8.916 0 00-.396 1.454c-.089.484-.133.968-.177 1.453 0 .484-.044.88-.044 1.277 0 .352 0 .748.044 1.189 0 .44.088.925.132 1.409.089.484.22.925.353 1.41.132.484.396.88.66 1.232.309.353.66.66 1.101.88.44.221.97.31 1.586.31.484 0 .924-.089 1.409-.221.484-.132.88-.396 1.277-.749a4.39 4.39 0 00.925-1.32c.22-.53.352-1.19.352-1.938v-1.013h-4.58zm21.313 6.209h-2.157l-1.717-4.448h-5.857l-1.718 4.448h-2.158l6.782-16.382 6.826 16.382zm-9.203-5.769h4.888l-2.466-6.12-2.422 6.12zm20.565-9.336h1.982v15.105h-1.982V34.317h-.044l-3.963 7.399-3.92-7.399-.043.044v11.45H100.8V30.706h1.938l4.051 7.53zm11.054 1.322h-2.599V44.49h2.599v1.321h-7.223V44.49h2.599V32.028h-2.599v-1.322h7.223zm2.114-1.322h2.333l5.857 11.318h.088V30.706h1.982v15.281h-1.894L125.99 33.79l-.044.044v12.022h-1.982v-15.15zm17.218 8.896V38.28h6.561v7.838h-1.982v-1.453c-.484.484-1.1.837-1.805 1.101a6.343 6.343 0 01-2.246.396c-.264 0-.572 0-.969-.044a6.899 6.899 0 01-1.233-.264c-.44-.132-.836-.396-1.277-.705-.44-.308-.793-.748-1.145-1.32-.352-.573-.616-1.234-.836-2.114-.22-.837-.309-1.894-.309-3.083 0-1.497.132-2.774.44-3.787.265-1.057.705-1.894 1.19-2.51.528-.66 1.145-1.145 1.893-1.41.749-.308 1.586-.44 2.554-.44.837 0 1.542.088 2.114.308.617.22 1.101.485 1.497.881.397.397.705.837.881 1.321.176.485.308 1.057.308 1.63h-1.981a2.57 2.57 0 00-.088-1.013c-.088-.352-.265-.617-.485-.925-.22-.264-.528-.484-.88-.66-.353-.177-.793-.265-1.278-.265-.66 0-1.233.132-1.717.353-.484.22-.88.528-1.145.88-.308.353-.528.793-.705 1.233a8.916 8.916 0 00-.396 1.454 16.31 16.31 0 00-.176 1.453c0 .484-.044.88-.044 1.277 0 .352 0 .748.044 1.189 0 .44.088.925.132 1.409.088.484.22.925.352 1.41.132.484.397.88.66 1.232.31.353.661.66 1.102.88.44.221.969.31 1.585.31.485 0 .925-.089 1.41-.221.484-.132.88-.396 1.276-.749a4.39 4.39 0 00.925-1.32c.22-.53.352-1.19.352-1.938v-1.013h-4.58z" fill="#ED1C24" fill-rule="nonzero"/><path d="M147.259 8.584l-.236-.235V8.32h.471v.029l-.235.235zm-.236-1.994v-.56h.471v.56h-.471zm1.337-.5v.44h-.5v-.44h.5zm-2.158.44v-.44h.5v.44h-.5z" fill="#FFF" fill-rule="nonzero" stroke="#000"/></g></svg>
