<svg width="90" height="48" xmlns="http://www.w3.org/2000/svg"><g fill="none" fill-rule="evenodd"><path d="M12.684 34.1l-2.819-8.799-.515.002L6.569 34.1h6.115zm6.525 7.328c-.183.067-.222.094-.261.094-1.206-.002-2.688.417-3.538-.135-.804-.523-1.003-2.048-1.358-3.167-.235-.74-.637-.947-1.364-.935a142.49 142.49 0 01-6.116-.003c-.769-.02-1.167.265-1.321.98-.026.121-.07.239-.108.357C4.115 41.825 3.62 42.097 0 41.361c.754-2.108 1.502-4.201 2.252-6.294 1.454-4.057 2.933-8.105 4.35-12.174.43-1.238 1.145-1.772 2.486-1.746 2.857.055 2.86.003 3.83 2.696 2.011 5.574 4.021 11.148 6.029 16.723.096.267.166.544.262.862zm34.497-6.888c.124.828.061.547.251 1.349.371 1.56 1.658 2.608 3.201 2.698 1.523.09 2.73-.714 3.344-2.288.657-1.686.622-3.412.13-5.127-.493-1.717-1.69-2.608-3.375-2.582-1.785.027-2.772.394-3.547 2.476-.237.639-.134.952-.134 2.363m.134 11.28c.046 2.767.096 3.389-3.643 3.009-.02-.376-.061-.775-.061-1.174.002-4.579-.005-9.158.02-13.737.024-4.748 2.397-7.123 7.13-7.182 5.001-.063 7.464 2.298 7.473 7.336.003 1.64-.065 3.364-.553 4.907-1.359 4.296-6.585 5.382-9.708 2.13-.11-.114-.505-.315-.662-.234-.05 2.472-.023 3.297.004 4.945zm-27.376-6.047c1.64.037 2.75-.64 3.325-2.113.723-1.852.695-3.74.053-5.602-.506-1.466-1.574-2.158-3.147-2.162-1.667-.005-2.889 1.101-3.235 2.196-.346 1.095-.473 1.243-.473 3.405.786 3.614 1.94 4.241 3.477 4.276zm3.626-17.333c3.063-.504 3.824.12 3.801 3.015-.031 3.951.061 7.912-.193 11.85-.221 3.424-2.319 5.279-5.759 5.56-.99.08-2.014.104-2.987-.06-3.755-.638-5.697-2.885-5.83-6.917-.054-1.6.15-3.245.495-4.813 1.088-4.958 7.598-5.87 9.941-2.86.113.146.113.146.532.716v-6.49zM45.24 33.38v-.236c-.026-.58-.096-.772-.197-1.251-.1-.48-.21-.649-.304-.964-.093-.316-1.001-2.152-2.556-2.152-1.817 0-2.864.793-3.297 1.803-.844 1.97-.8 4.142.05 6.192.515 1.243 1.507 1.858 2.834 1.854 1.291-.004 2.077-.52 2.546-1.43.466-.903.727-1.544.903-3.518m3.324 3.518c-1.04 3.77-3.734 4.865-7.222 4.714-5.794-.25-6.761-4.29-6.713-8.827.01-.822.179-1.65.347-2.46.842-4.04 3.822-5.125 7.514-5.069 4.528.07 6.433 2.867 6.54 8.202-.148 1.149-.162 2.334-.466 3.44z" fill="#FFA902"/><path d="M77.71 12.89V41.6h-3.692v-1.412c.008-8.157.068-16.314-.007-24.47-.025-2.749 1.016-3.42 3.699-2.828" fill="#9F9F9F"/><path d="M71.805 38.746c.265 2.805.15 2.932-2.533 2.756-.538-.035-1.072-.144-1.61-.198-1.238-.124-1.88-.829-1.9-2.043-.033-1.832-.007-3.665-.007-5.497V21.422c2.475-.788 3.639-.008 3.646 2.37.005 1.67.005 1.67 2.327 2.026.268 1.446-.173 2.115-1.46 2.5-.347.104-.819.587-.826.905-.06 2.623-.048 5.248-.007 7.872.018 1.157.281 1.304 2.37 1.651" fill="#FFA902"/><path d="M79.786 21.214c1.412-.157 2.73-.224 3.22 1.07.391 1.032.288 2.252.418 3.51l2.152.11c.306 1.508-.094 1.97-2.238 2.596 0 2.969-.024 5.956.016 8.943.01.756.482 1.207 1.308 1.18.324-.012.649.032 1.048.056v2.624c-1.338 0-2.663.107-3.96-.033-1.122-.12-1.944-.85-1.95-2.064-.03-5.976-.014-11.952-.014-17.992m-3.674-10.931c-1.661-.021-2.854-1.26-2.834-2.942.018-1.589 1.397-2.948 2.94-2.9 1.545.047 2.94 1.489 2.906 3-.035 1.562-1.415 2.863-3.012 2.842M64.182 0c-2.387 4.604-2.6 9.314-.705 14.126C60.985 10.782 61.36 3.328 64.182 0" fill="#9F9F9F"/><path d="M65.635 13.37c-2.091-2.722-1.88-9.174.454-12.147-.417 1.841-1.21 3.947-1.288 6.079-.079 2.118.56 4.263.834 6.067m22.386.757C90.513 10.782 90.138 3.328 87.316 0c2.387 4.604 2.6 9.314.705 14.126zM85.193 1.223c.417 1.841 1.209 3.947 1.288 6.079.078 2.118-.56 4.263-.834 6.067 2.091-2.72 1.88-9.173-.454-12.146zm-2.415 1.794c1.904 2.675 1.772 7.185-.299 9.461 1.627-3.11 1.577-6.255.299-9.461m-14.109.531c-1.149 3.006-1.014 5.963.42 9.161-1.985-2.095-2.125-7.213-.42-9.161m11.388 7.65c1.071-2.533 1.045-5.016-.342-7.455 1.884 1.857 2.036 5.315.342 7.455m-8.348-6.661c-.85 2.367-.785 4.668.495 6.881-1.76-1.507-2.013-5.05-.495-6.88" fill="#9F9F9F"/></g></svg>
