<svg width="106" height="25" fill="none" xmlns="http://www.w3.org/2000/svg"><path d="M105.03 23.754v.722H0v-.722h105.03zm-1.347-18.386l.296 5.319h-.443v-.017c-.115-1.379-.558-2.495-1.314-3.3-.755-.82-1.74-1.23-2.922-1.23-1.56 0-2.708.69-3.447 2.052-.739 1.362-1.116 3.398-1.116 6.073 0 1.248.115 2.315.328 3.218.23.903.542 1.625.969 2.216.426.575.935 1.002 1.543 1.264.607.263 1.28.394 2.019.394.985 0 1.822-.246 2.512-.755.673-.509 1.313-1.297 1.887-2.38l.394.197c-1.165 2.511-3.004 3.775-5.483 3.775-.87 0-1.723-.164-2.56-.508a6.659 6.659 0 01-2.217-1.51c-.656-.674-1.182-1.495-1.576-2.496-.394-.985-.59-2.134-.59-3.447 0-1.28.18-2.446.525-3.53.36-1.083.853-2.019 1.494-2.807a7.126 7.126 0 012.249-1.855c.87-.443 1.822-.657 2.84-.657a5.491 5.491 0 012.331.493l.738.345c.214.098.394.147.542.147a.418.418 0 00.378-.23c.082-.147.147-.41.197-.771h.426zM10.736.131l6.5 18.353.277.731c.144.37.274.681.397.927.197.394.41.69.64.87.23.181.493.296.772.345.279.05.623.066 1.034.066v.525h-8.077v-.525c.739 0 1.264-.099 1.56-.28.295-.18.443-.492.443-.935 0-.164-.017-.345-.066-.509l-.084-.295c-.047-.16-.11-.357-.195-.591l-1.313-3.661h-5.96l-1.345 4.12c-.132.444-.18.756-.18.92 0 .41.163.722.492.935.328.214.919.296 1.805.28v.525H1.001v-.525c.41 0 .788-.05 1.1-.132.312-.082.591-.23.821-.46.23-.213.443-.525.624-.902.18-.378.377-.87.558-1.461L10.178.132h.558zM86.118 5.73v.378c-.41 0-.755.016-1.034.065-.279.05-.492.148-.64.312a1.456 1.456 0 00-.328.657c-.066.279-.082.64-.082 1.1v11.031c0 .493.032.87.114 1.15.083.279.197.492.345.656a1.1 1.1 0 00.64.28l.347.037c.19.016.402.028.638.028v.394h-6.5v-.394a5.91 5.91 0 001.05-.082c.28-.05.476-.164.64-.329.148-.164.247-.377.312-.656.066-.28.082-.64.082-1.067V8.257c0-.46-.032-.82-.082-1.1-.065-.279-.164-.492-.328-.656-.164-.164-.377-.263-.64-.312a6.186 6.186 0 00-1.034-.066V5.73h6.5zm-58.047-.05l4.35 11.902h.05l4.35-11.885h3.956v.394c-.344 0-.64.033-.853.099a1.07 1.07 0 00-.526.328c-.13.148-.213.378-.262.657-.05.279-.066.624-.066 1.05v11.032c0 .443.033.804.082 1.083.05.28.148.51.28.657a.862.862 0 00.524.312c.23.05.51.082.838.082v.394h-5.992v-.394c.394 0 .722-.016.985-.066.263-.049.476-.147.624-.295.147-.148.262-.361.328-.657.066-.279.099-.656.099-1.132V8.405h-.05l-4.875 13.396h-.28L26.776 8.7h-.05v10.555c0 .476.033.854.082 1.133.05.279.165.492.312.656.148.148.361.247.608.296.262.05.574.066.985.066v.393h-4.794v-.393c.378 0 .69-.033.936-.083a1.14 1.14 0 00.59-.312c.149-.147.247-.36.296-.656.05-.28.082-.657.082-1.116V8.208c0-.427-.016-.772-.065-1.05a1.422 1.422 0 00-.28-.657c-.13-.164-.344-.263-.59-.329-.247-.065-.575-.098-.969-.098V5.68h4.153zm24.493-.344h.394l4.662 13.839c.18.542.345.952.476 1.248.148.295.296.525.46.656.164.148.345.23.542.263.197.033.443.05.738.05v.393h-5.778v-.394c.525 0 .903-.066 1.116-.213.214-.148.328-.378.328-.706 0-.132-.016-.263-.049-.394l-.074-.269a19.46 19.46 0 00-.123-.404l-.935-2.758h-4.269l-.968 3.119-.09.497c-.016.095-.025.169-.025.225 0 .312.115.558.345.706.23.164.656.23 1.297.213v.395h-4.58v-.394c.295 0 .558-.033.787-.099.23-.066.41-.18.575-.345.164-.164.312-.394.443-.69.105-.236.21-.514.315-.843l4.413-14.095zm21.997.378v3.644h-.394c-.032-1.001-.262-1.724-.689-2.134-.427-.41-1.133-.624-2.15-.624h-1.79v12.657c0 .476.033.854.099 1.133.065.279.18.492.328.656.164.148.377.247.673.296.295.05.657.066 1.1.066v.393h-6.73v-.393c.369 0 .693-.012.952-.044l.147-.022c.296-.033.51-.132.673-.28.164-.147.263-.377.329-.656.065-.295.098-.673.098-1.149V6.599h-1.756c-.51 0-.952.05-1.297.148-.361.098-.64.246-.87.476-.23.213-.394.509-.493.854-.115.344-.164.771-.18 1.297h-.394V5.713H74.56zm-22.44 4.317h-.05l-1.74 5.746h3.694l-1.904-5.746zM9.538 6.337h-.066l-2.43 7.6h5.171l-2.675-7.6z" fill="#696969"/></svg>
