<svg width="137" height="44" xmlns="http://www.w3.org/2000/svg" xmlns:xlink="http://www.w3.org/1999/xlink"><defs><linearGradient x1="91.512%" y1="18.025%" x2="34.34%" y2="65.532%" id="b"><stop stop-color="#FCE38A" offset="0%"/><stop stop-color="#F38181" offset="100%"/></linearGradient><linearGradient x1="97.064%" y1="13.786%" x2="17.967%" y2="100%" id="d"><stop stop-color="#F48682" offset="0%"/><stop stop-color="#FF018B" offset="100%"/></linearGradient><path id="a" d="M.089.426h39.603v40.425H.089z"/></defs><g fill="none" fill-rule="evenodd"><g transform="translate(15.32 .19)"><mask id="c" fill="#fff"><use xlink:href="#a"/></mask><path d="M.089 9.532c2.116-2.16 4.05-4.547 6.386-6.435 4.564-3.686 10.157-3.62 14.28.597 2.92 2.987 5.443 6.553 7.4 10.253 3.964 7.5 7.387 15.285 11.117 22.911.909 1.859.31 2.5-1.49 3.036-8.677 2.584-16.25-.058-21.03-8.014-3.184-5.3-5.787-10.953-8.597-16.474-1.619-3.18-3.376-6.059-7.833-5.09l-.233-.784z" fill="url(#b)" mask="url(#c)"/></g><path d="M0 38.62c0-1.347 5.174-9.209 7.126-12.8 1.951-3.591 3.148-5.95 4.773-8.516 1.51-2.383 3.905-2.607 5.439-.301 2.713 4.08 5.22 8.335 7.303 12.79.362.772-.637 2.054-.707 2.186-1.425 2.69-3.217 4.787-6.022 6.64-4.703 2.76-16.26 3.23-17.912 0z" fill="url(#d)"/><path d="M67.083 15l1.626-4.09h6.253L76.568 15h2.264L73.067.24h-2.074L65.138 15h1.945zm7.27-5.645h-5.036l2.523-6.363 2.514 6.363zm9.645 5.894c1.49 0 2.756-.761 3.8-2.284V15h1.965V4.169h-1.965v7.021c-1.064 1.576-2.194 2.364-3.391 2.364-.552 0-.946-.171-1.182-.514-.236-.342-.354-.919-.354-1.73V4.169h-1.965v7.78c0 1.01.28 1.813.838 2.408.559.595 1.31.892 2.254.892zm13.374 3.93c1.809 0 3.142-.456 4-1.366.485-.52.816-1.186.992-2 .176-.815.264-2.07.264-3.765v-7.88h-1.974v1.238c-.871-.984-1.912-1.476-3.122-1.476-1.383 0-2.51.518-3.381 1.555-.871 1.038-1.307 2.38-1.307 4.03 0 1.602.383 2.875 1.147 3.82.765.944 1.796 1.416 3.092 1.416 1.656 0 2.846-.758 3.57-2.274v1.705c0 2.347-1.106 3.52-3.32 3.52-1.104 0-2.225-.268-3.362-.807l-.229 1.705c1.157.386 2.367.579 3.63.579zm.07-6.144c-1.669 0-2.503-1.187-2.503-3.56 0-1.264.256-2.258.768-2.982.512-.725 1.22-1.087 2.124-1.087 1.017 0 1.958.448 2.823 1.346v4.498c-1.004 1.19-2.075 1.785-3.212 1.785zm11.968 2.214c1.49 0 2.756-.761 3.8-2.284V15h1.965V4.169h-1.965v7.021c-1.064 1.576-2.194 2.364-3.39 2.364-.553 0-.947-.171-1.183-.514-.236-.342-.354-.919-.354-1.73V4.169h-1.965v7.78c0 1.01.28 1.813.838 2.408.559.595 1.31.892 2.254.892zm12.577 0c1.17 0 2.13-.306 2.882-.917.751-.612 1.127-1.393 1.127-2.344 0-.751-.223-1.378-.668-1.88-.446-.502-1.204-.979-2.274-1.431l-.948-.4c-.957-.405-1.436-.903-1.436-1.495 0-.918.632-1.376 1.895-1.376.645 0 1.516.162 2.613.488V4.26l-.409-.08c-.89-.166-1.639-.25-2.244-.25-1.163 0-2.08.271-2.747.813-.669.542-1.003 1.285-1.003 2.23 0 1.323.848 2.337 2.543 3.041l1.147.489c1.044.439 1.566.994 1.566 1.666 0 .458-.186.84-.558 1.146-.373.306-.841.46-1.407.46-.95 0-2.067-.32-3.35-.958v1.805c1.283.419 2.373.628 3.27.628zm10.79 0c.446 0 .972-.083 1.577-.249v-1.356c-.373.086-.688.13-.948.13-1.223 0-1.835-.709-1.835-2.125V5.645h2.833V4.169h-2.833V2.015l-1.965.19v1.964h-1.356v1.476h1.356v6.363c0 1.017.28 1.812.838 2.384.559.571 1.337.857 2.334.857zM70.19 39.37c1.33 0 2.889-.256 4.677-.768v-5.974h-2.084v4.807c-.811.246-1.566.37-2.264.37-1.702 0-3.025-.541-3.97-1.621-.944-1.08-1.416-2.595-1.416-4.543 0-1.968.44-3.494 1.322-4.578.88-1.084 2.12-1.626 3.715-1.626 1.084 0 2.643.346 4.677 1.037V24.54c-1.622-.446-3.184-.669-4.687-.669-2.294 0-4.076.68-5.346 2.04-1.27 1.36-1.905 3.263-1.905 5.71 0 2.493.627 4.408 1.88 5.744 1.254 1.337 3.054 2.005 5.4 2.005zm15.748-.12a3.38 3.38 0 001.476-.319l-.14-1.087c-.166.027-.292.04-.379.04-.691 0-1.037-.562-1.037-1.686v-4.906c0-1.15-.288-1.998-.863-2.544-.575-.545-1.467-.817-2.678-.817-1.156 0-2.396.269-3.72.807v1.626c1.204-.638 2.324-.957 3.361-.957 1.29 0 1.935.628 1.935 1.885v1.306h-.468c-1.856 0-3.28.318-4.274.953-.994.635-1.491 1.544-1.491 2.727 0 .858.296 1.568.888 2.13.591.561 1.336.842 2.234.842 1.09 0 2.224-.542 3.4-1.625.253 1.083.838 1.625 1.756 1.625zm-4.598-1.605a1.67 1.67 0 01-1.217-.49 1.611 1.611 0 01-.498-1.196c0-.665.332-1.202.997-1.61.665-.41 1.536-.614 2.613-.614l.658.02v2.803c-.884.724-1.735 1.087-2.553 1.087zM91.842 39v-7.26c1.13-1.45 2.19-2.175 3.182-2.175.997 0 1.496.622 1.496 1.865V39h1.974v-7.26c1.117-1.443 2.185-2.165 3.202-2.165.977 0 1.466.618 1.466 1.855V39h1.975v-7.879c0-1.01-.263-1.797-.788-2.359-.526-.562-1.267-.842-2.224-.842-1.49 0-2.7.76-3.63 2.283-.526-1.515-1.513-2.273-2.963-2.273-1.502 0-2.732.758-3.69 2.273V28.17h-1.965V39h1.965zm19.07-12.796V24.24h-1.966v1.965h1.965zm0 12.796V28.169h-1.966V39h1.965zm5.903 0v-7.011c1.064-1.576 2.198-2.364 3.401-2.364.546 0 .936.171 1.172.514.236.342.354.916.354 1.72V39h1.965v-7.78c0-1.003-.28-1.803-.838-2.398-.558-.595-1.306-.892-2.244-.892-1.502 0-2.772.758-3.81 2.273V28.17h-1.964V39h1.964zm14.382 4.179c1.809 0 3.142-.456 4-1.367.485-.518.816-1.185.992-2 .176-.814.264-2.069.264-3.764v-7.88h-1.975v1.238c-.87-.984-1.911-1.476-3.121-1.476-1.383 0-2.51.518-3.381 1.555-.871 1.038-1.307 2.38-1.307 4.03 0 1.602.383 2.875 1.147 3.82.765.944 1.795 1.416 3.092 1.416 1.655 0 2.846-.758 3.57-2.274v1.705c0 2.347-1.107 3.52-3.32 3.52-1.104 0-2.225-.268-3.362-.807l-.23 1.705c1.158.386 2.368.579 3.631.579zm.07-6.144c-1.669 0-2.503-1.187-2.503-3.56 0-1.264.256-2.258.768-2.982.512-.725 1.22-1.087 2.124-1.087 1.017 0 1.958.448 2.822 1.346v4.498c-1.004 1.19-2.074 1.785-3.211 1.785z" fill="#7F2049" fill-rule="nonzero"/></g></svg>
