<svg width="98" height="48" xmlns="http://www.w3.org/2000/svg"><path d="M36.033 27.975v.764c0 1.21-.398 2.373-1.194 3.488-.669.956-1.624 1.816-2.866 2.58a12.923 12.923 0 01-3.01 1.41c-1.052.334-1.96.501-2.724.501-1.37 0-2.42-.175-3.154-.525-.733-.35-1.235-.789-1.505-1.314a3.459 3.459 0 01-.406-1.6c0-.701.247-1.314.74-1.84.494-.525 1.076-.74 1.744-.645.574.063 1.012.294 1.315.693.303.398.486.9.549 1.504 0 .701-.112 1.227-.334 1.578 1.943-.35 3.583-1.131 4.921-2.342 1.338-1.21 2.006-2.627 2.006-4.252v-.287c0-.955-.398-1.959-1.194-3.01a325.726 325.726 0 01-2.675-3.487c0-1.147 1.226-2.246 3.678-3.297 3.76-1.625 6.037-2.724 6.833-3.297 2.453-1.72 3.679-3.966 3.679-6.738 0-3.885-2.692-5.828-8.075-5.828-2.548 0-5.072.494-7.573 1.48-2.5.988-5.073 2.549-7.717 4.684-2.134 1.72-4.188 3.726-6.163 6.02-1.974 2.293-3.678 4.65-5.112 7.07-1.433 2.421-2.437 4.651-3.01 6.69-.351 1.338-.526 2.532-.526 3.583 0 1.242.127 2.325.382 3.249.637 2.07 1.96 3.105 3.966 3.105.955 0 1.855-.262 2.7-.788.844-.525 1.664-1.298 2.46-2.317 1.306-1.72 2.58-3.997 3.823-6.832l2.962-6.832.86-1.769c1.656-3.09 2.85-5.191 3.584-6.306 1.784-2.708 3.408-4.475 4.873-5.304a15.47 15.47 0 012.412-1.099c.813-.287 1.521-.43 2.127-.43.574 0 .876.16.908.478.032.255-.622.78-1.96 1.576-.923.574-1.783 1.354-2.579 2.342-1.401 1.752-3.297 5.272-5.686 10.56l-1.004 2.197-2.054 4.587a297.53 297.53 0 00-1.29 2.723 29.71 29.71 0 01-2.58 4.109 14.034 14.034 0 01-2.006 2.293c-1.147 1.052-2.302 1.825-3.465 2.318a9.033 9.033 0 01-3.559.74 8.669 8.669 0 01-4.85-1.457 8.974 8.974 0 01-3.321-3.894A8.822 8.822 0 01.15 31.08c0-.286.032-.684.096-1.194l.334-1.91c.254-1.148.581-2.294.98-3.441a28.101 28.101 0 011.41-3.344C5.965 15.042 10.679 9.946 17.113 5.9 23.197 2.079 29.122.168 34.887.168c3.95 0 7.024.716 9.221 2.15 2.198 1.433 3.297 3.599 3.297 6.498 0 3.567-1.736 6.307-5.208 8.218L30.92 20.76l.095.382c1.497.891 2.707 1.839 3.631 2.842.924 1.004 1.386 2.334 1.386 3.99zm30.723-9.747a90.591 90.591 0 003.679-6.976c1.305-2.771 1.958-4.619 1.958-5.542 0-.383-.127-.575-.382-.575-.573 0-1.631.885-3.177 2.653-1.545 1.768-2.78 3.512-3.703 5.232-.924 1.72-1.577 2.994-1.96 3.823a45.855 45.855 0 00-1.766 4.348 30.834 30.834 0 00-1.386 5.924c1.975-2.07 3.599-4.045 4.873-5.924l1.864-2.963zm11.418 1.194a80.936 80.936 0 002.008-4.109c.764-1.72 1.146-2.882 1.146-3.488 0-.478-.175-.717-.525-.717-.51 0-1.386.797-2.629 2.39-1.083 1.401-2.15 2.994-3.2 4.778l-1.433 2.915c-.447.986-.797 1.91-1.052 2.77-.255.86-.494 1.96-.717 3.297a27.524 27.524 0 003.106-2.915 20.254 20.254 0 002.341-3.152l.955-1.769zM92.7 27.975l-3.345 6.832-4.92 10.13c-.51 1.051-.956 1.784-1.338 2.198-.478.542-.972.812-1.481.812-.224 0-.447-.063-.67-.19-.636-.384-.955-.894-.955-1.53 0-.51.175-1.099.525-1.768l5.16-9.652.86-1.577a9.13 9.13 0 01-2.15 1.577c-1.146.605-2.15.908-3.01.908-.892 0-1.593-.303-2.102-.908-.382-.446-.7-1.098-.955-1.959-.51.637-1.195 1.29-2.055 1.959-.7.51-1.41.916-2.126 1.219-.717.302-1.41.453-2.079.453-1.305 0-2.404-.557-3.297-1.672a8.096 8.096 0 01-.86-1.337c-.19.222-.413.469-.669.74a4 4 0 01-.764.645 14.43 14.43 0 01-2.938 1.696c-1.068.463-2.031.694-2.89.694-.86 0-1.61-.215-2.247-.646-.637-.43-1.194-1.027-1.671-1.792l-.479-.812-.908.812c-1.88 1.656-3.743 2.484-5.59 2.484-.86 0-1.608-.223-2.245-.668-.637-.446-1.18-1.051-1.625-1.816l-.43-.86-.86.86c-.765.7-1.497 1.202-2.198 1.505-.701.303-1.481.454-2.34.454-1.498 0-2.518-.653-3.06-1.96-.382-.828-.573-1.815-.573-2.96 0-1.053.32-2.342.957-3.87a21.54 21.54 0 012.078-3.56 20.924 20.924 0 012.89-3.225c1.37-1.243 2.81-2.23 4.324-2.963 1.513-.733 3.082-1.1 4.707-1.1 1.975 0 2.962.797 2.962 2.39.064.605-.19 1.162-.764 1.673a1.82 1.82 0 01-1.1.477c-.541 0-.963-.048-1.265-.143a1.941 1.941 0 01-.741-.406c-.192-.176-.32-.423-.383-.741-.064-.318-.151-.494-.262-.526a1.485 1.485 0 00-.406-.048c-.764 0-1.736.462-2.915 1.387-1.019.796-1.982 1.783-2.89 2.962a16.881 16.881 0 00-2.198 3.75c-.558 1.322-.837 2.556-.836 3.703 0 .51.071.955.215 1.338.143.382.501.574 1.075.574.7 0 1.577-.59 2.627-1.769.829-.923 1.737-2.181 2.724-3.774.477-.765.971-1.601 1.481-2.509.51-.908.908-1.633 1.195-2.174.16-.223.748-.334 1.767-.334.638 0 1.163.056 1.577.167.414.111.589.279.526.502l-1.912 4.348c-.446 1.02-.733 1.704-.86 2.055a24.37 24.37 0 00-.716 2.054c-.064.255-.096.43-.096.525 0 .32.135.55.406.694.27.143.629.215 1.075.215.478 0 1.227-.375 2.246-1.123 1.02-.749 1.656-1.298 1.911-1.65v-1.36c0-.43.032-.9.096-1.41 0-1.115.128-2.19.382-3.225.255-1.035.621-2.222 1.098-3.56.255-.637.518-1.282.79-1.935.27-.653.565-1.33.883-2.03 1.816-3.823 3.982-7.183 6.499-10.082 2.77-3.185 5.111-4.778 7.023-4.778.924 0 1.585.263 1.983.788.398.526.597 1.266.597 2.222 0 1.624-.526 3.71-1.576 6.26-.765 1.846-1.77 3.821-3.011 5.924-.35.605-.693 1.17-1.027 1.696-.334.526-.757 1.17-1.267 1.936a48.957 48.957 0 01-2.556 3.415 47.109 47.109 0 01-3.081 3.37l-2.58 2.388c-.001.796.254 1.52.764 2.174.51.653 1.242.98 2.198.98.637 0 1.449-.32 2.437-.957.796-.51 1.464-1.05 2.006-1.624l.335-2.962c.35-2.262 1.067-4.523 2.15-6.784l1.003-1.96c1.498-2.803 3.393-5.4 5.686-7.788 2.293-2.39 4.045-3.584 5.255-3.584.797 0 1.363.223 1.698.67.334.446.501 1.114.501 2.006 0 1.37-.39 3.034-1.17 4.993a36.932 36.932 0 01-2.844 5.663 51.854 51.854 0 01-2.436 3.488c-1.051 1.337-2.055 2.436-3.01 3.296a18.42 18.42 0 01-2.58 1.959 2.518 2.518 0 00-.049.573c0 .605.167 1.115.502 1.53.334.413.931.62 1.792.62.765 0 1.561-.366 2.39-1.098.828-.733 1.671-1.927 2.53-3.584l.288-.574a56.221 56.221 0 011.767-3.344A85.627 85.627 0 0183 21.191l1.96-3.202c.063-.096.31-.191.74-.287.43-.096.837-.143 1.219-.143.605 0 1.083.056 1.433.167.35.112.461.31.334.597-.031.096-.142.319-.334.669-.35.638-.764 1.37-1.242 2.199a91.883 91.883 0 00-1.864 3.297c-.764 1.4-1.353 2.563-1.767 3.487-.669 1.433-1.003 2.516-1.003 3.25 0 .604.255.906.764.906.764 0 1.496-.286 2.197-.86.701-.573 1.593-1.671 2.676-3.296a53.275 53.275 0 002.103-3.417 102.938 102.938 0 001.815-3.367l1.339-2.772c.127-.192.381-.311.764-.359.382-.047.796-.071 1.242-.071.636 0 1.146.055 1.529.167.382.111.51.278.382.502l-1.242 2.533-3.345 6.784z" fill="red"/></svg>
