<svg width="136" height="25" fill="none" xmlns="http://www.w3.org/2000/svg"><path fill-rule="evenodd" clip-rule="evenodd" d="M72.045 2.927v15.761h5.733v2.373h-5.686v3.557H85.13V2.927H72.045zm3.719 12.035h1.974V6.555h-1.974v8.407zM50.495 18.572H52.6V6.535h-2.106v12.037zM59.862.385v21.858h-13V2.855h5.655l.36-2.47h6.985zM7.221 18.534H9.39V6.508H7.221v12.026zM0 .364h6.987l.208 2.332h5.784v19.558H0V.364zM116.53 18.576h2.035v-5.835h-2.035v5.835zm9.337-15.687v19.399h-12.984V8.946h5.695l.112-2.42h-5.802V2.89h12.979zM22.806 12.456h2.244v-5.87h-2.244v5.87zM15.6 22.235V2.915h13.002v13.259h-5.76v2.42h5.743v3.64H15.599zM107.496 18.559l2.82.218v3.424H100.2V6.577c-1.063-.087-1.969-.16-2.947-.241v-3.48l2.805-.175.172-2.294h6.997l.227 2.283 2.856.19v3.494l-2.814.16V18.56zM41.417 6.525v12.02l2.766.218v3.473H34.155V6.547l-2.864-.178V2.863l2.698-.175.192-2.285h6.98l.335 2.285 2.743.182v3.474l-2.822.18zM128.399 22.259h7.056V.415h-7.056V22.26zM62.466 22.237h7V6.59h-7v15.648zM87.662 22.23h7.014V6.56h-7.014v15.67zM87.692 3.792h6.99V.382h-6.99v3.41zM62.47 3.837h7.013V.4H62.47v3.437z" fill="#696969"/></svg>
