<svg width="79" height="25" fill="none" xmlns="http://www.w3.org/2000/svg"><path d="M1.786 0c.64.176 1.188.748 1.18 1.428.008 1.16 0 2.311 0 3.47.505-.755 1.246-1.386 2.148-1.604 1.053-.252 2.207-.168 3.159.37.943.529 1.626 1.428 2.055 2.411.573 1.311.649 2.773.531 4.176-.135 1.311-.581 2.647-1.508 3.63-.716.731-1.744 1.042-2.73 1.202a7.42 7.42 0 01-3.934-.538c-.648-.294-1.305-.639-1.743-1.218-.691-.9-.902-2.059-.927-3.16 0-3.386 0-6.78.008-10.167h1.761zm3.083 5.815a2.14 2.14 0 00-1.423 1.067c-.48.865-.523 1.89-.464 2.857.06.756.202 1.571.725 2.16.867 1.041 2.73.974 3.513-.135.547-.748.665-1.706.682-2.605.009-.992-.185-2.067-.91-2.798-.53-.572-1.381-.706-2.123-.546zM11.558.042c.548.008 1.095-.008 1.643 0 .7.017 1.356.597 1.39 1.31.017 4.522-.008 9.042.017 13.563-1.02.017-2.03.017-3.05 0 .009-4.958 0-9.915 0-14.873zM33.293 3.479a4.374 4.374 0 012.553 2.168c.7 1.319.8 2.84.733 4.302h-7.532c.026.764.203 1.58.776 2.117.648.63 1.684.681 2.502.404.43-.126.716-.488 1.019-.79.236-.244.59-.311.91-.311.724 0 1.449-.008 2.182 0-.194.655-.455 1.302-.877 1.848-.783 1.034-2.021 1.681-3.302 1.85-1.424.176-2.982.033-4.17-.85-1.238-.899-1.895-2.394-2.047-3.882-.169-1.596-.084-3.302.69-4.739a4.549 4.549 0 013.084-2.294 6.883 6.883 0 013.48.177zM29.78 6.2c-.514.446-.699 1.143-.733 1.798 1.475.009 2.949-.008 4.423.009-.025-.504-.134-1.025-.396-1.462-.244-.42-.682-.706-1.154-.815-.733-.16-1.575-.05-2.14.47zM15.35 3.42c1.01.008 2.013 0 3.024 0v7.42c0 .554.185 1.16.665 1.495.86.647 2.19.546 2.932-.235.328-.361.43-.865.43-1.336.008-1.992 0-3.975.008-5.966.008-.706.615-1.344 1.323-1.37.547-.016 1.103 0 1.65-.008v6.831c.01.992-.117 2.025-.597 2.908a2.81 2.81 0 01-.977 1.033c-1.298.782-2.873 1.118-4.373.874a6.813 6.813 0 01-2.645-1.008c-.607-.404-.994-1.067-1.188-1.756a6.517 6.517 0 01-.253-1.891c-.008-2.328 0-4.655 0-6.991zM55.744.042c.547 0 1.086-.008 1.634 0 .733.008 1.39.656 1.407 1.387.008.327 0 .664.008.991-1.01.009-2.03 0-3.04.009-.01-.799.008-1.589-.01-2.387zM70.475 12.774V.042h1.567c.547-.008 1.044.361 1.288.832.144.269.144.588.144.882-.009.564.008 1.135-.009 1.698.598 0 1.196-.008 1.786.008 0 .522.05 1.11-.32 1.53-.337.445-.927.588-1.457.538v6.48c-.017.327.26.596.572.638.396.05.8.017 1.205.025-.009.748.008 1.505-.009 2.261a22.03 22.03 0 01-3.158-.05c-.48-.042-.977-.252-1.255-.664-.286-.42-.354-.942-.354-1.446zM44.306 3.412c.935.269 1.861.765 2.409 1.597.867 1.252 1.154 2.815 1.111 4.32-.025 1.554-.42 3.176-1.465 4.37-.674.798-1.66 1.336-2.704 1.42-1.103.1-2.324-.11-3.141-.9-.253-.226-.422-.512-.632-.78.017 1.428 0 2.857.008 4.277.009.74-.64 1.412-1.381 1.445-.522.017-1.036-.008-1.558.009-.017-2.359-.011-4.718-.008-7.077V8.556c-.009-1.067.109-2.168.64-3.118A3.403 3.403 0 0138.89 4.16c1.609-.95 3.613-1.286 5.416-.748zm-2.544 2.362c-.581.117-1.078.52-1.381 1.033-.421.74-.489 1.614-.489 2.446 0 .874.135 1.824.716 2.521.792 1.059 2.611 1.118 3.454.076.657-.79.8-1.858.775-2.85-.034-.94-.211-1.957-.893-2.655-.548-.58-1.424-.723-2.182-.571zM61 4.328a6.753 6.753 0 013.546-1.168 6.526 6.526 0 013.604 1.059c.683.462 1.096 1.227 1.29 2.008.269 1.017.21 2.068.218 3.11v5.597c-.556 0-1.112.009-1.668-.008a1.387 1.387 0 01-1.238-.891c-.118-.294-.092-.622-.092-.933V7.639c0-.479-.084-1-.405-1.37-.825-.907-2.442-.924-3.242.017-.413.496-.388 1.177-.38 1.782 0 2.286-.008 4.572.01 6.858-1.02.025-2.03 0-3.05.008.008-2.202 0-4.404 0-6.606-.008-.907.067-1.848.421-2.697.202-.513.54-.984.986-1.303zM51.398 3.975c1.095-.454 2.29-.588 3.461-.563v3.076c-.876.017-1.836-.118-2.61.395-.666.437-.86 1.277-.868 2.017v6.026c-1.02-.009-2.03.008-3.05-.009.018-1.47 0-2.95.01-4.42-.017-1.437-.051-2.958.631-4.27.489-1.016 1.381-1.823 2.426-2.252zM55.752 3.412c.548.008 1.087-.008 1.634 0 .758.017 1.424.698 1.407 1.454v10.06c-1.02-.009-2.03.017-3.05-.009.018-3.832.01-7.664.01-11.505zM75.512 16.077c.345-.008.69-.008 1.036 0v.193h-.413c.009.614-.008 1.227.009 1.84-.05 0-.16 0-.21.01.008-.614 0-1.236 0-1.85h-.422v-.193zM76.758 16.069h.304c.244.588.454 1.185.716 1.765.227-.589.463-1.177.699-1.765h.303v2.05c-.05 0-.152-.008-.202-.008 0-.588.008-1.168 0-1.757-.27.58-.48 1.177-.716 1.765-.076-.017-.202 0-.22-.1-.243-.547-.42-1.127-.681-1.665-.009.58 0 1.169.008 1.757-.05 0-.16 0-.21-.009.008-.672 0-1.353 0-2.033zM43.784 17.96c.9-.202 1.895-.11 2.678.411.547.362.927.916 1.196 1.505-.514-.009-1.02.016-1.533-.009-.219-.168-.404-.386-.657-.504-.733-.353-1.684-.227-2.257.361-.817.748-.842 2.169-.067 2.959.564.613 1.524.798 2.282.445.447-.193.775-.58.994-1-.86-.008-1.71-.008-2.569 0 0-.361 0-.731-.008-1.093h4.076c0 .328 0 .656-.076.984-.303 1.462-1.693 2.622-3.209 2.597h-.219c-1.263-.026-2.434-.858-2.922-2.009-.405-.933-.388-2.059.11-2.958.462-.815 1.254-1.48 2.18-1.69zM69.532 18.859c1.07-1.135 2.981-1.311 4.27-.462.54.353.901.907 1.17 1.487-.521.008-1.035 0-1.557 0a1.915 1.915 0 00-1.559-.706c-.934-.017-1.768.748-1.928 1.656-.144.706.092 1.487.64 1.966.64.605 1.693.681 2.425.194.329-.202.565-.521.733-.866h-2.569c0-.361.009-.723 0-1.084 1.356-.017 2.713 0 4.077-.009.16 1.513-.893 3.034-2.358 3.455-1.079.302-2.317.092-3.159-.664-.766-.648-1.196-1.648-1.18-2.648 0-.865.38-1.714.995-2.32zM51.002 17.993c.842 2.16 1.66 4.337 2.501 6.505H52.13a88.753 88.753 0 00-.513-1.361h-2.4c-.178.445-.346.907-.506 1.36-.447.01-.893 0-1.33 0l2.526-6.495c.362 0 .724.008 1.095-.009zm-.564 1.874c-.287.673-.523 1.37-.8 2.06.513.008 1.035-.01 1.558.016-.245-.697-.514-1.387-.758-2.076zM53.832 18.002h1.693l1.642 4.698c.573-1.555 1.095-3.135 1.66-4.698h1.684c0 2.168-.008 4.328 0 6.496-.421.008-.842 0-1.272 0 .009-1.555.05-3.11.026-4.664-.54 1.554-1.078 3.118-1.626 4.664-.32-.009-.64 0-.96 0-.548-1.555-1.087-3.11-1.634-4.673-.009 1.555.017 3.11.042 4.665-.43.008-.85 0-1.272 0 .025-2.16.017-4.329.017-6.488zM61.143 17.993c.43.009.85 0 1.28.009 0 2.16-.017 4.328.008 6.488-.43.008-.859 0-1.288.008.008-2.168 0-4.337 0-6.505zM63.046 18.002h1.213c.901 1.37 1.769 2.765 2.687 4.118a333.87 333.87 0 010-4.127c.413.009.834.009 1.247 0 .008 2.168 0 4.337.008 6.505-.396 0-.8 0-1.196-.009-.893-1.42-1.786-2.84-2.704-4.244v4.253c-.42 0-.842.008-1.263-.009.025-2.16.008-4.328.008-6.487z" fill="#696969"/></svg>
