<svg width="75" height="25" fill="none" xmlns="http://www.w3.org/2000/svg"><path d="M17.127 18.866H21v4.595a5.715 5.715 0 01-1.782.889 6.923 6.923 0 01-1.975.274c-.894 0-1.71-.143-2.446-.422a5.614 5.614 0 01-1.886-1.163 5.131 5.131 0 01-1.212-1.76 5.678 5.678 0 01-.428-2.216c0-.812.137-1.557.406-2.237a5.058 5.058 0 011.152-1.76 5.242 5.242 0 011.815-1.153c.707-.274 1.502-.41 2.38-.41.455 0 .877.037 1.278.109.4.076.768.175 1.102.307.335.131.642.285.921.46.28.181.527.373.746.582l-.73 1.113a.72.72 0 01-.443.324c-.181.038-.379-.006-.587-.137a7.67 7.67 0 00-.565-.313 3.292 3.292 0 00-.543-.214 3.9 3.9 0 00-.581-.12 5.21 5.21 0 00-.686-.039c-.471 0-.9.082-1.278.252-.378.165-.702.4-.965.708a3.1 3.1 0 00-.614 1.097c-.143.427-.214.9-.214 1.42 0 .576.082 1.091.241 1.541.16.45.384.828.675 1.135.29.307.642.543 1.047.708.406.159.856.241 1.35.241.301 0 .58-.027.828-.088.246-.06.488-.137.718-.24v-1.652h-1.075a.528.528 0 01-.373-.126.43.43 0 01-.137-.323v-1.382h-.01zM32.29 24.503h-1.957c-.22 0-.395-.049-.532-.153a.954.954 0 01-.307-.395l-.642-1.898h-4.14l-.636 1.903a.944.944 0 01-.297.379.841.841 0 01-.526.17h-1.974l4.212-10.886h2.588l4.212 10.88zm-4.008-4.157l-1.01-2.978a12.106 12.106 0 01-.24-.669c-.083-.257-.17-.532-.253-.833-.076.301-.153.587-.241.844a10.09 10.09 0 01-.241.675l-.993 2.961h2.978zM45.387 13.623v10.886H43.16v-6.263c0-.143.006-.302.012-.472.005-.17.021-.34.038-.515l-2.89 5.594a.907.907 0 01-.362.394 1.025 1.025 0 01-.521.138h-.346a.987.987 0 01-.52-.138.907.907 0 01-.363-.394l-2.89-5.61c.017.18.028.356.038.526.011.17.017.329.017.471v6.258h-2.227V13.623h1.925c.11 0 .203 0 .285.005a.866.866 0 01.22.044c.066.022.12.066.175.115a.903.903 0 01.154.22l2.813 5.522c.1.192.198.384.285.593.094.202.181.41.264.625.082-.22.175-.434.263-.642.093-.208.192-.406.296-.598l2.792-5.5a.804.804 0 01.153-.22.442.442 0 01.176-.115.679.679 0 01.219-.044c.082-.005.176-.005.285-.005h1.936zM50.032 15.564v2.54h3.422v1.87h-3.422v2.593h4.47v1.942h-7.009V13.623h7.009v1.941h-4.47zM62.07 15.833a.972.972 0 01-.236.269.52.52 0 01-.318.087.778.778 0 01-.367-.11c-.132-.07-.28-.153-.45-.24a3.725 3.725 0 00-.57-.242 2.327 2.327 0 00-.735-.11c-.472 0-.828.1-1.059.302-.23.203-.345.472-.345.817 0 .22.071.4.208.543.137.143.324.269.549.373a5.3 5.3 0 00.778.285c.291.088.587.187.894.29.302.11.604.231.894.38.29.142.549.328.779.553.225.225.411.5.548.817.138.324.209.708.209 1.163 0 .505-.088.976-.263 1.41a3.317 3.317 0 01-.757 1.145c-.33.324-.74.582-1.223.768-.488.187-1.037.28-1.657.28-.34 0-.685-.033-1.036-.104a6.414 6.414 0 01-1.02-.296 6.312 6.312 0 01-.927-.45 3.948 3.948 0 01-.757-.581l.746-1.18a.811.811 0 01.236-.213.644.644 0 01.318-.088.85.85 0 01.45.142c.153.094.323.198.515.313.192.115.412.22.664.313.247.093.543.142.883.142.46 0 .812-.098 1.07-.301.252-.203.378-.521.378-.96a.92.92 0 00-.209-.62 1.604 1.604 0 00-.548-.395 4.679 4.679 0 00-.774-.274c-.29-.082-.586-.17-.888-.263a6.82 6.82 0 01-.888-.357 2.604 2.604 0 01-1.322-1.426c-.137-.345-.208-.773-.208-1.283 0-.406.082-.806.246-1.195.165-.39.406-.735.724-1.037a3.554 3.554 0 011.174-.73c.46-.18.992-.273 1.59-.273.335 0 .658.027.977.076a5.027 5.027 0 011.695.598c.246.143.465.302.663.483l-.631 1.179zM4.009.115c.751 0 1.393.071 1.92.209.526.137.96.334 1.294.592.334.258.576.565.73.927.153.362.23.767.23 1.217 0 .247-.034.477-.105.708a2.131 2.131 0 01-.329.636c-.148.197-.34.378-.576.543a3.682 3.682 0 01-.844.428c.718.175 1.245.455 1.59.844.346.39.516.894.516 1.508 0 .46-.088.894-.269 1.294-.181.4-.444.746-.79 1.042-.345.297-.773.527-1.283.697a5.633 5.633 0 01-1.739.252H.005V.115H4.01zm-1.48 1.892v2.687h1.315c.28 0 .532-.021.757-.06.225-.038.417-.11.57-.208a.932.932 0 00.357-.412c.082-.175.12-.394.12-.658 0-.257-.032-.471-.098-.647a.966.966 0 00-.296-.417 1.28 1.28 0 00-.51-.224 3.58 3.58 0 00-.735-.066h-1.48v.005zm1.776 7.091c.335 0 .609-.044.817-.126a1.24 1.24 0 00.5-.329 1.09 1.09 0 00.246-.455c.044-.17.066-.34.066-.516 0-.197-.028-.378-.077-.537a.927.927 0 00-.269-.406 1.32 1.32 0 00-.504-.252 2.906 2.906 0 00-.79-.088H2.528V9.1h1.777zM46.577.115v10.886h-2.226V4.744c0-.143.005-.302.01-.472.006-.17.023-.34.039-.515L41.51 9.35a.906.906 0 01-.362.394 1.024 1.024 0 01-.521.138h-.346a.987.987 0 01-.52-.138.907.907 0 01-.363-.394l-2.89-5.61c.017.18.028.356.039.526.01.17.016.329.016.471v6.258h-2.227V.116h1.925c.11 0 .203 0 .286.005a.864.864 0 01.219.044c.066.027.12.065.175.115a.9.9 0 01.154.22l2.802 5.522c.1.192.198.384.286.592.093.203.18.411.263.625.082-.22.175-.433.263-.642.093-.208.192-.405.296-.597L43.797.5a.805.805 0 01.153-.22.443.443 0 01.176-.115.678.678 0 01.22-.044c.081-.006.175-.006.284-.006h1.947zM51.228 11.001h-2.54V.115h2.54v10.886zM62.832.115v10.886h-1.316c-.192 0-.356-.033-.488-.093a1.211 1.211 0 01-.395-.323L55.5 4.09c.022.192.033.384.038.565.006.181.011.351.011.51v5.835h-2.226V.115h1.327c.11 0 .203.006.274.017a.732.732 0 01.203.054c.06.028.115.066.17.116.055.049.115.115.187.203l5.177 6.537a10.139 10.139 0 01-.071-1.163V.121h2.242V.115zM70.17 5.364h3.872v4.595a5.716 5.716 0 01-1.782.889 6.923 6.923 0 01-1.975.274c-.894 0-1.71-.143-2.446-.422a5.612 5.612 0 01-1.886-1.163 5.132 5.132 0 01-1.212-1.76 5.677 5.677 0 01-.428-2.216c0-.812.137-1.558.406-2.238a5.057 5.057 0 011.152-1.76A5.242 5.242 0 0167.686.411C68.393.137 69.188 0 70.066 0c.455 0 .877.038 1.278.11.4.076.768.175 1.102.307.335.131.642.285.921.46.28.181.527.373.746.582l-.73 1.119a.72.72 0 01-.443.323c-.181.039-.379-.005-.587-.137a7.652 7.652 0 00-.565-.313 3.285 3.285 0 00-.543-.213 3.9 3.9 0 00-.581-.121 5.203 5.203 0 00-.686-.038c-.471 0-.9.082-1.278.252-.378.164-.702.4-.965.707-.269.302-.472.67-.614 1.097-.143.428-.214.9-.214 1.42 0 .576.082 1.092.241 1.542.16.45.384.828.675 1.135.29.307.642.543 1.047.707.406.16.856.242 1.35.242.301 0 .58-.028.828-.088.246-.06.488-.137.718-.242v-1.65h-1.075a.529.529 0 01-.373-.126.43.43 0 01-.137-.324V5.364h-.01zM30.646 6.098a3.499 3.499 0 01-3.444 2.863h-.077c-.247-.005-.51 0-1.168-.28-.653-.28-.796-.444-1.273-.817-.274-.214-.669-.625-1.058-.97-.384.416-1.256 1.382-1.333 1.458.335.362 1.152 1.075 1.48 1.328l-.048-.044a5.39 5.39 0 003.394 1.256 5.433 5.433 0 005.314-3.954l-1.787-.84z" fill="#696969"/><path d="M24.558 3.159a3.496 3.496 0 014.848-.422l-.833.597L32.417 5.1 32.022.888l-.992.702A5.391 5.391 0 0027.201.016a5.415 5.415 0 00-4.185 1.975v.005c-.038.05-3.05 3.73-4.288 4.947-.066.066-.138.126-.209.186-.01.011-.027.022-.038.033a9.587 9.587 0 01-.56.461c-.022.016-.044.033-.06.05-.055.043-.11.082-.16.12-.021.017-.043.033-.06.05a6.82 6.82 0 00-.274.192.369.369 0 01-.06.038l-.197.131c-.017.011-.033.022-.055.033-.06.039-.115.072-.17.104-.022.011-.044.028-.066.039a4.95 4.95 0 01-1.07.488c-.252.077-.45.115-.85.115a3.51 3.51 0 01-3.328-3.762c.126-1.722 1.535-3.115 3.257-3.23 1.103-.072 2.073.4 2.797 1.108a39.66 39.66 0 011.31 1.431c.374-.4 1.268-1.453 1.3-1.492-.175-.23-.915-1.009-.965-1.064C18.218.795 16.7.027 14.994.05c-2.836.039-5.205 2.304-5.358 5.134a5.451 5.451 0 005.067 5.736c.104.005.57.022.817-.005.253-.028.477-.083.67-.127.306-.07.619-.235.624-.235.017-.006.033-.017.05-.022.06-.028.126-.055.192-.088a.66.66 0 00.088-.044c.065-.033.137-.066.208-.104.027-.011.05-.028.077-.039.192-.104.4-.219.609-.35l.087-.055.236-.154c.033-.022.071-.05.11-.071.076-.055.159-.11.241-.17.033-.028.066-.05.104-.077.082-.06.165-.126.247-.186a.582.582 0 00.06-.05c.017-.01.028-.022.044-.033.12-.093.241-.197.368-.301.027-.022.06-.05.087-.077l.291-.252c.044-.039.082-.077.126-.11.017-.017.039-.033.055-.05l.22-.202c.043-.039 1.14-1.114 1.88-2.013.74-.9 1.542-1.974 2.364-2.945z" fill="#696969"/></svg>
