<svg width="103" height="25" fill="none" xmlns="http://www.w3.org/2000/svg"><path d="M9.38.023c5.957-.328 11.586 4.433 12.406 10.272.516 3.33-.258 6.918-2.415 9.545-2.252 2.908-5.816 4.854-9.545 4.76-3.47.188-6.918-1.313-9.24-3.869-.563-.586-.281-1.735.54-1.946.75-.329 1.243.422 1.712.867 2.134 2.064 5.23 2.979 8.137 2.533 2.791-.281 5.3-2.017 6.895-4.268 1.5-2.11 2.017-4.855 1.548-7.387-.375-2.369-1.76-4.503-3.612-5.98-3.611-3.073-9.544-2.885-12.968.422-.47.351-.798 1.055-1.454.961C.446 5.98-.141 4.713.469 4.01 2.72 1.524 6.027 0 9.381.023zM29.056 3.87c.633.093 1.173.633 1.173 1.29a43.558 43.558 0 01-.024 3.916c.821-.821 1.9-1.454 3.096-1.454 1.43-.094 2.838.656 3.682 1.805 1.337 1.642 1.548 3.987.868 5.934-.657 1.782-2.322 3.4-4.339 3.353-1.266.07-2.439-.563-3.283-1.454.117.821-.563 1.642-1.407 1.571-.774.024-1.384-.726-1.313-1.5V5.183c-.024-.798.773-1.43 1.547-1.313zm3.12 6.027c-2.416 1.055-2.51 4.995-.352 6.378.703.399 1.641.282 2.204-.305 1.243-1.149 1.407-3.142.727-4.62-.422-.984-1.477-1.876-2.58-1.453z" fill="#696969"/><path d="M6.191 5.699c.235-1.15 2.134-1.032 2.252.117.07 1.384.023 2.744 0 4.127.938-.375 1.993-.61 3.001-.398 2.275.398 4.034 2.65 3.893 4.948.07 2.556-2.251 4.878-4.807 4.854-1.08 0-2.181-.023-3.26-.047-.774.024-1.43-.938-1.055-1.641.164-.422.61-.657 1.031-.68 1.243-.094 2.51-.047 3.753-.14 1.806-.493 2.392-3.096 1.008-4.34-1.383-1.43-3.564-.398-5.253-.844-.61-.281-.704-1.008-.68-1.594.094-1.43 0-2.908.117-4.362zM43.01 7.927c.633-.188 1.313-.352 1.946-.188.774.234 1.103 1.313.54 1.923-.493.68-1.454.258-2.064.75-1.876 1.29-1.853 4.41 0 5.723.633.492 1.688.093 2.134.89.563.751-.117 1.947-1.055 1.853-2.885.047-5.277-2.697-5.23-5.487-.047-2.392 1.478-4.714 3.729-5.464zM58.347 13.11c.188 3.025-2.533 5.91-5.581 5.721-3.049.047-5.558-2.954-5.277-5.933.117-2.274 1.736-4.409 3.963-5.042 3.307-1.079 6.989 1.853 6.895 5.253zm-6.191-3.096c-2.51 1.149-2.462 5.51.14 6.52 2.064.539 3.448-1.9 3.167-3.683-.047-1.618-1.548-3.494-3.307-2.837zM60.763 7.762c2.087-.422 4.104 1.009 5.089 2.791 1.102 2.087.82 4.901-.868 6.613-1.008 1.126-2.51 1.853-4.034 1.665-.914-.14-1.22-1.43-.586-2.04.516-.54 1.384-.234 1.946-.656 1.83-1.267 1.9-4.339.118-5.676-.516-.445-1.267-.281-1.853-.539-.797-.446-.704-1.853.188-2.158zM68.338 8.935c0-.985 1.266-1.524 2.04-1.008.398.21.54.633.727 1.008.774-.797 1.829-1.36 2.978-1.29 1.97-.07 3.846 1.642 3.87 3.635.023 2.017 0 4.057 0 6.074.093.82-.704 1.595-1.501 1.477-.633-.023-1.22-.61-1.22-1.242-.023-1.877 0-3.753 0-5.652.07-1.22-1.126-2.298-2.322-2.134-.938.093-1.829.938-1.829 1.923-.047 1.97.024 3.94-.023 5.91-.07 1.008-1.407 1.594-2.205.984-.492-.304-.539-.938-.539-1.477.024-2.767-.023-5.488.024-8.208zM87.45 9.052c.047-1.102 1.43-1.735 2.252-1.008.516.352.54 1.008.516 1.571-.024 2.908 0 5.793 0 8.7 0 1.736-1.196 3.237-2.65 4.058-2.44 1.383-5.934.656-7.411-1.783-.469-.89.469-1.993 1.43-1.712.751.4 1.08 1.314 1.9 1.666 1.243.633 2.861.187 3.659-.939.539-.633.28-1.5.351-2.25-.914.96-2.228 1.547-3.564 1.406-1.806-.094-3.284-1.524-3.94-3.119-1.009-2.415-.399-5.487 1.688-7.106 1.665-1.36 4.339-1.102 5.77.516zm-3.166.962c-2.18 1.196-2.274 4.878-.234 6.261.704.47 1.688.305 2.275-.281 1.5-1.43 1.477-4.104.023-5.558-.492-.54-1.36-.75-2.064-.422zM99.551 8.231c1.806.985 3.072 3.002 2.932 5.113.094 2.884-2.51 5.581-5.418 5.487-2.907.094-5.487-2.603-5.44-5.487-.094-2.416 1.547-4.784 3.893-5.488 1.313-.375 2.814-.281 4.033.375zm-3.095 1.736c-2.463.961-2.627 4.948-.47 6.332.728.445 1.76.375 2.393-.211 1.641-1.36 1.665-4.151.14-5.605-.516-.516-1.336-.75-2.063-.516z" fill="#696969"/><path d="M7.364 13.438c.727-.563 1.923-.047 1.946.89.117.962-1.196 1.736-1.946 1.056-.657-.446-.657-1.5 0-1.946z" fill="#696969"/></svg>
