<svg width="223" height="48" xmlns="http://www.w3.org/2000/svg" xmlns:xlink="http://www.w3.org/1999/xlink"><defs><path id="a" d="M0 .18h17.35v13.745H0z"/><path id="c" d="M.078.073h21.117v8.743H.078z"/></defs><g fill="none" fill-rule="evenodd"><path d="M66.58 11.226h14.71V5.032H66.58v6.194zm14.71 5.032H66.194V24h-4.87c-.074-.235-.194-.531-.195-.828-.01-6.12-.051-12.24.012-18.36.027-2.657 1.965-4.671 4.63-4.72A507.759 507.759 0 0182.004.087c2.628.039 4.665 1.976 4.692 4.441.066 6.248.022 12.498.013 18.746 0 .243-.173 1.114-.173 1.114H81.29v-8.129zM151.355 24V0h23.613v5.032h-18.194c.013.431 0 .705 0 .875v3.77h14.323v5.033h-14.323v4.258h3.732c4.012 0 8.026.072 12.036-.032.8-.021 1.921.032 2.426.032V24h-23.613zm-60 .399V.258c1.708 0 3.313-.107 4.89.057.575.06 1.166.689 1.612 1.183 4.19 4.636 8.35 9.3 12.526 13.95.237.265.531.477 1.1.98V.389h5.42v23.829c-1.827.245-3.396 0-5.026-.168-.393.168-1.494-.447-2.795-2.131-3.395-4.397-7.423-8.313-11.158-12.453-.353-.392-.6-.878-.888-1.328l-.649.196v11.759c0 2.163-.143 4.165-.143 4.306 0 .14-2.358.14-4.89.099v-.1zM51.201.387h4.928V24h-5.032v-9.29H35.613V24h-5.42V0h5.352c0 2.811.067 5.373-.028 7.928-.05 1.376.446 1.781 1.776 1.76a369.31 369.31 0 0112.181-.001c1.366.023 1.797-.46 1.752-1.796C51.14 5.386 51.2 2.876 51.2.387m92.315 24c-5.38 0-10.76.032-16.138-.011-4.04-.033-5.978-1.976-6.008-5.965a818.03 818.03 0 01-.002-12.443c.032-4.053 1.923-5.88 6.023-5.884 5.897-.006 11.795-.004 17.693.002.633 0 1.266.053 2.014.086v4.86h-11.122c-2.528 0-5.057.048-7.582-.02-1.502-.04-1.605.451-1.625 2.727-.03 3.41-.005 5.976-.03 8.832-.02 2.394.257 2.798 1.857 2.782 5.314-.052 10.629-.023 15.943-.019 2.684.002 2.684.007 2.68 2.785-.002.644 0 1.288 0 2.268h-3.703zM25.952.117c.049.589.103.97.108 1.35.012 1.103.004 2.205.004 3.565H5.806v14.323h20.13v5.029c-.6.038-1.164.103-1.727.103-5.885.008-11.768.02-17.653 0-4.38-.015-6.21-1.884-6.21-6.275-.001-4.358-.02-8.717.007-13.075C.37 2.365 2.278.343 5.006.13c.45-.035.905-.012 1.357-.012h19.59" fill="#F6171F"/><path d="M86.372 37.161c0-1.358.052-2.624-.038-3.88-.021-.296-.516-.796-.8-.8-3.493-.055-6.987-.036-10.437-.036v4.716h11.275zm.577 3.988c1.22 2.192 3.843 3.323 4.161 6.042-2.653.356-4.985.569-6.407-1.98-.244-.438-.777-.726-1.024-1.163-1.888-3.344-4.945-3.553-8.582-2.847v6.025h-4.258V28.258h2.849c4.247 0 8.493-.013 12.74.005 3.14.014 4.582 1.426 4.607 4.458.01 1.148.004 2.295.002 3.442-.007 3.123-.808 4.12-4.088 4.986zm10.986-3.988h11.33c0-1.346.065-2.56-.041-3.758-.032-.354-.547-.946-.85-.952-3.444-.068-6.89-.043-10.439-.043v4.753zm15.538 10.065h-4.312v-5.807H97.935v5.807h-4.258v-3.193c.128-3.736.093-7.473.14-11.21.04-3.181 1.487-4.574 4.657-4.585 3.672-.014 7.344-.028 11.016.007 2.12.021 3.865 1.124 3.923 2.972.168 5.382.06 16.009.06 16.009zM198.58 32.13v3.483h11.226v4.258h-10.838v3.484h13.548v3.87H194.71V28.259h17.806v3.871zM49.935 47.613V28.258H68.13v3.871H54.194v3.484h11.225v4.258H54.194v3.484h13.935v4.258zm-28.645-7.22V28.258h4.258v18.887c-2.359.443-4.328.416-6.077-1.862-2.812-3.659-6.034-7.011-9.406-10.865v12.808H5.806V28.3c2.356-.282 4.403-.446 6.187 1.938 2.71 3.62 5.885 6.896 8.863 10.317l.434-.162m115.355-12.149v3.885h-15.484v11.226h15.097v4.258h-5.662c-3.03-.071-6.06-.039-9.09-.08-3.16-.045-4.604-1.526-4.611-4.646-.01-3.546-.03-7.092.009-10.637.025-2.249 1.48-3.943 3.636-3.978 5.276-.086 16.105-.028 16.105-.028m42.665 14.092c2.428-4.106 4.8-7.865 6.896-11.774.993-1.853 2.166-2.703 4.232-2.342.555.097 1.14.014 2.014.014-.619 1.068-1.114 1.939-1.624 2.8-2.982 5.043-5.961 10.086-8.954 15.122-1.192 2.006-3.904 2.06-5.073.098-3.516-5.902-7.016-11.814-10.698-18.018 1.561 0 2.838-.121 4.072.055.551.079 1.179.658 1.495 1.178 2.529 4.173 4.992 8.386 7.64 12.867m-20.987-14.078v3.871h-7.742v15.097h-4.258V32.129h-7.742v-3.87zM35.613 47.226V32.129H27.87v-3.87h19.355v3.87H39.87v15.097zm125.032 0h3.871V28.258h-3.87zM0 47.226h3.871V28.258H0z" fill="#000"/><path d="M193.21 11.65l.148.491c.439.506.339.563.895.777.776.3 1.196-.473 1.521-1.086.12-.226.184-.487.244-.738.182-.755-.359-1.903-1.013-2.012-.905-.15-1.29.512-1.602 1.173-.151.319-.118.62-.214.964m7.516 0c-.318-.513-.558-.82-1.096-.892-.538-.072-1.268.455-1.49 1.104-.19.558-.3 1.225-.162 1.777.104.42.392 1.04 1.022 1.04s.856-.304 1.102-.626c.34-.443.8-1.091.624-2.396m-7.482 7.314c-.979-2.475-1.926-4.962-2.932-7.425-.36-.88-.34-1.55.423-2.26 2.408-2.238 4.75-4.542 7.126-6.813.744-.712.853-.681 1.231.271 1.318 3.317 2.622 6.64 3.957 9.95.325.807.277 1.455-.35 2.138-2.353 2.563-4.658 5.168-6.985 7.753-.171.191-.377.353-.737.685-.625-1.549-1.188-2.92-1.733-4.3z" fill="#F6171F"/><g transform="translate(176.903 9.677)"><mask id="b" fill="#fff"><use xlink:href="#a"/></mask><path d="M5.701 8.242c-.724-.007-1.363.585-1.355 1.254.012.929 1.426 2.284 2.377 2.276.659-.005 1.282-.672 1.266-1.355-.023-1.019-1.229-2.164-2.288-2.175m4.433-1.092c-.02-1.04-1.196-2.183-2.248-2.186-.753-.003-1.346.548-1.345 1.251.001.942 1.397 2.283 2.359 2.267.74-.013 1.248-.562 1.234-1.332m-.025-5.709c-.691.001-1.343.637-1.333 1.3.014.999 1.244 2.174 2.294 2.191.773.014 1.316-.513 1.307-1.267-.012-1.03-1.231-2.225-2.268-2.224m7.204 12.484c-1.365-.163-2.694-.307-4.019-.481-2.447-.322-4.887-.718-7.341-.967-.938-.095-1.405-.492-1.717-1.306C2.968 7.86 1.672 4.56.385 1.257.28.989.167.724 0 .313.406.263.77.173 1.13.181c3.362.063 6.724.167 10.087.203.79.008 1.206.321 1.47 1.011 1.545 4.04 3.104 8.077 4.655 12.115.02.054-.007.126-.03.415" fill="#F6171F" mask="url(#b)"/></g><g transform="translate(176.903)"><mask id="d" fill="#fff"><use xlink:href="#c"/></mask><path d="M12.155 4.16c.231-.169.453-.733.345-.901a1.614 1.614 0 00-.99-.654c-.992-.168-1.875.227-2.568.915-.286.284-.61.881-.492 1.141.176.387.73.602 1.284 1.008.876-.534 1.685-.97 2.421-1.509zM20.674.59c-2.563 2.722-4.826 4.943-7.428 7.625-.346.356-.987.61-1.486.6-3.804-.068-7.606-.213-11.41-.339-.05-.002-.102-.063-.272-.175.3-.267.574-.513.85-.756 2.436-2.15 4.885-4.285 7.3-6.457.75-.675 1.538-.972 2.568-.95 3.15.066 6.302.03 9.454.033h.945c-.08-.033-.123.165-.203.132" fill="#F6171F" mask="url(#d)"/></g><path d="M213.551 15.713c-1.266-.003-2.489.833-2.462 1.496.028.704.551.969 1.218.993.978.036 2.268-.824 2.094-1.5-.114-.445-.663-.784-.85-.989m-.68 5.824c1.288-.02 2.545-.874 2.485-1.502-.068-.7-.638-.934-1.288-.954-1.002-.03-2.27.854-2.069 1.525.13.434.69.748.873.931m-6.203-1.367c1.153-.069 2.211-.687 2.296-1.3.04-.29-.209-.77-.475-.922-.776-.44-1.6-.246-2.213.313-.334.303-.68.924-.567 1.263.116.351.777.536.959.646m4.43-5.463c1.11.015 2.272-.608 2.376-1.249.05-.313-.201-.843-.482-1.002-.827-.468-1.599-.121-2.29.407-.026.02-.059.04-.07.068-.155.362-.526.826-.408 1.066.178.366.696.578.874.71m6.504 1.836c.673-.402 1.293-.659 1.755-1.077.632-.572.479-1.147-.321-1.508-.854-.385-1.576.006-2.168.53-.29.255-.6.847-.48 1.091.195.39.741.614 1.214.964m-14.377 3.742l5.736-6.866c.021-.025.05-.046.064-.075 1.15-2.18 2.81-2.553 5.147-1.682 2.162.805 4.466 1.256 6.708 1.862.554.15.726.368.299.875-2.108 2.498-4.168 5.034-6.312 7.502-.3.345-1.014.615-1.467.537-3.153-.54-6.288-1.176-9.426-1.794-.212-.042-.402-.189-.75-.359m11.912-12.351c.11-.21.482-.586.451-.924-.074-.798-1.473-1.915-2.242-1.9-.564.01-.925.284-.792.935.168.827 1.463 1.902 2.583 1.89M206.336.386c3.296 1.163 6.494 2.273 9.672 3.436.354.13.69.507.89.857 1.523 2.666 3.01 5.353 4.502 8.038.04.072.005.189.005.443-1.129-.304-2.224-.58-3.308-.895-2.03-.588-4.062-1.176-6.076-1.82-.39-.124-.835-.43-1.026-.784-1.583-2.934-3.114-5.898-4.654-8.857-.038-.073-.005-.185-.005-.418m-1.351 5.011c-.662-.307-1.092.301-1.394.876-.104.2-.181.428-.218.653-.131.806.128 1.567.862 1.755.355.09.923-.465 1.304-.83.227-.218.278-.633.504-1.2-.328-.411-.602-1.043-1.058-1.254zm1.27-3.01c1.237 2.352 2.461 4.714 3.708 7.063.355.669.303 1.22-.173 1.82-2.158 2.717-4.285 5.459-6.43 8.186-.744.945-.734.886-1.306-.119-.598-1.05-.489-1.781.368-2.642 1-1.004 2.03-2.04 2.375-3.558.196-.861-.026-.974-.605-2.127-.58-1.152-.768-1.333-1.143-2.225-.375-.893-.583-1.308-.888-2.408-.305-1.1-.214-1.31.305-1.925.958-1.137 1.843-2.342 2.882-3.678.376.667.654 1.133.906 1.612z" fill="#000"/><path d="M216.065 32.935v-3.64h1.2v-.78h-3.338v.78h1.2v3.64h.938zm2.719 0V30.88c0-.236-.02-.707-.058-1.412h.028l1.064 3.468h.859l1.14-3.462h.027c-.024.556-.038.899-.04 1.028-.004.129-.005.243-.005.342v2.092h.874v-4.42h-1.276l-1.11 3.38h-.018l-1.047-3.38h-1.276v4.42h.838z" fill="#000" fill-rule="nonzero"/></g></svg>
