<svg width="51" height="25" fill="none" xmlns="http://www.w3.org/2000/svg"><path fill-rule="evenodd" clip-rule="evenodd" d="M29.94.87l-.097-.024c-.733-.279-1.5-.45-2.24-.706h.622c.02.116.117.103.198.115 2.445.377 4.872.844 7.27 1.45 3.038.769 6.013 1.718 8.826 3.117 1.63.81 3.176 1.75 4.473 3.05.67.672 1.24 1.414 1.586 2.31.59 1.527.342 2.95-.526 4.295-.351.546-.798 1.004-1.26 1.46-1.493 1.48-3.309 2.442-5.183 3.316-2.01.939-4.108 1.641-6.239 2.246a68.74 68.74 0 01-6.034 1.399 89.851 89.851 0 01-5.792.89c-1.803.219-3.612.382-5.424.506-3.43.235-6.863.306-10.3.231a114.182 114.182 0 01-8.803-.545C.645 23.943.27 23.92 0 23.843c1.965.035 4.028.088 6.091.035 2.63-.068 5.255-.204 7.874-.458a92.462 92.462 0 005.917-.754c3.53-.573 7.012-1.343 10.41-2.47 2.474-.822 4.88-1.804 7.1-3.192 1.445-.904 2.777-1.942 3.758-3.365.755-1.095 1.161-2.292.992-3.64-.131-1.05-.585-1.96-1.218-2.791a10.293 10.293 0 00-1.817-1.84c-1.407-1.113-2.952-2-4.583-2.74-.582-.263-1.173-.505-1.76-.759-.087-.037-.172-.081-.272-.076v.002c-.802-.374-1.638-.651-2.487-.894v.006c-.01-.033-.033-.043-.065-.036z" fill="#696969"/><path fill-rule="evenodd" clip-rule="evenodd" d="M33.323 7.627c.345-.296.663-.622 1.06-.859 2.556-1.533 5.843-.2 6.594 2.68.683 2.612-1.176 5.248-3.877 5.5-2.01.186-3.912-.996-4.573-2.891-.53-1.52-.296-2.943.674-4.237.046-.061.113-.11.123-.194l-.001.001zM17.526 5.956h.936c.076.016.151.035.227.047 1.083.184 1.993.65 2.637 1.574.118.17.12.25-.067.35-.357.19-.712.39-1.054.608-.187.12-.28.09-.412-.084-.288-.383-.639-.7-1.122-.825l-.023-.013-.025.003c-.94-.371-2.477.03-3.176.83l.002-.001c-.176.102-.3.255-.411.42l-.001.001a1.05 1.05 0 00-.315.412c-.35.454-.54.976-.627 1.537-.067.43-.095.86.11 1.268.134.46.413.806.825 1.047l-.001-.003c.245.197.521.307.837.312l.012.008.012-.009c.092.064.199.05.3.053 1.095.027 1.974-.423 2.686-1.229.09-.102.215-.193.237-.372h-.433c-.65 0-1.298-.003-1.947.003-.17.002-.238-.032-.178-.22.111-.354.215-.711.298-1.072.046-.2.139-.253.337-.251 1.272.009 2.544.004 3.816.004.294 0 .302.016.23.315-.097.412-.26.802-.388 1.204h.001c-.032.05-.07.098-.096.15-.942 1.93-2.886 3.219-5.288 2.973-.804-.082-1.522-.36-2.102-.95-.378-.383-.618-.846-.823-1.333v-.005c-.001-.025.004-.053-.002-.077-.318-1.192-.106-2.319.417-3.408.295-.612.737-1.115 1.192-1.607l.006-.003c.031.001.048-.014.048-.047l.003-.006c.153-.101.293-.219.414-.359l.001-.001c.157-.079.289-.19.414-.31l.002-.002c.766-.482 1.59-.812 2.491-.932zM6.716 10.11l.016-.09c.032-.08.07-.157.094-.239.33-1.118.657-2.236.983-3.355.043-.148.082-.259.285-.258 1.418.01 2.837.004 4.255.006.079 0 .182-.034.207.093l-.013.104c-.148.351-.23.722-.33 1.088-.052.187-.128.279-.352.274-.847-.017-1.695 0-2.543-.012-.194-.003-.27.065-.318.247-.108.417-.227.833-.367 1.242-.084.247-.005.288.227.285.821-.012 1.643-.002 2.464-.009.196-.001.294.022.215.257-.113.335-.207.677-.29 1.02-.046.19-.13.265-.333.262-.847-.01-1.695.002-2.542-.01-.187-.002-.274.042-.325.233a35.1 35.1 0 01-.524 1.79c-.074.227-.008.258.198.256.848-.008 1.695 0 2.543-.008.194-.002.246.062.19.241-.118.37-.234.741-.342 1.115-.035.123-.1.159-.223.158-1.505-.005-3.01-.005-4.515-.007l-.005-.01c.194-.68.386-1.36.582-2.04.253-.878.509-1.755.763-2.633zM23.17 6.271l.073-.101 4.774.004c.457 0 .456 0 .335.433-.016.057-.017.119-.025.178-.113.197-.156.421-.195.637-.044.251-.159.32-.401.31-.405-.02-.813.007-1.219-.01-.22-.01-.32.056-.373.279-.102.427-.242.845-.365 1.268l-.757 2.607-.015.094c-.03.07-.068.14-.09.213-.24.812-.484 1.622-.715 2.437-.037.131-.083.184-.221.181a39.687 39.687 0 00-1.22 0c-.16.002-.21-.035-.158-.21.28-.935.546-1.874.817-2.811l.751-2.611.007-.083c.188-.39.243-.824.39-1.227.051-.14-.055-.133-.142-.133h-1.346c-.312 0-.308.001-.22-.311.107-.38.246-.753.315-1.144z" fill="#696969"/></svg>
