<svg width="63" height="25" fill="none" xmlns="http://www.w3.org/2000/svg"><path d="M19.916 1.988v3.437H7.246s-.38-.023-.61.232c-.217.242-.2.573-.2.573v.472h13.456v3.363H6.43l.003.461s.012.34.216.52c.28.248.538.222.538.222h12.728v3.437H5.372s-1.532.113-2.499-.908c-.937-.992-.91-2.242-.91-2.242l.003-6.278s-.094-1.386.905-2.47c.802-.871 2.262-.824 2.262-.824l14.783.005zM3.285 24.483c1.193 0 1.63-.663 1.63-1.3 0-1.65-2.618-1.08-2.618-2.074 0-.418.385-.703.909-.703.483 0 .947.16 1.279.53l.331-.404c-.37-.391-.895-.623-1.564-.623-.875 0-1.525.504-1.525 1.233 0 1.578 2.619.941 2.619 2.081 0 .345-.252.77-1.04.77a1.824 1.824 0 01-1.386-.637l-.332.424c.365.41.935.703 1.697.703zM12.644 24.403v-3.93h1.405v-.491h-3.354v.49h1.4v3.931h.55zM21.884 24.483c1.2 0 1.81-.703 1.81-1.803v-2.698h-.557v2.691c0 .809-.438 1.32-1.253 1.32s-1.246-.511-1.246-1.32v-2.691h-.557v2.704c0 1.088.61 1.797 1.803 1.797M31.541 19.982c1.38 0 2.267.961 2.267 2.214 0 1.26-.888 2.207-2.267 2.207h-1.51v-4.421h1.51zm0 .49h-.96v3.44h.96c1.074 0 1.697-.768 1.697-1.716 0-.955-.603-1.724-1.697-1.724zM39.972 24.403h.55v-4.42h-.55v4.42zM48.874 19.909c1.306 0 2.2.981 2.2 2.287s-.894 2.287-2.2 2.287-2.194-.981-2.194-2.287.888-2.287 2.194-2.287zm0 .49c-.994 0-1.624.763-1.624 1.797 0 1.027.63 1.796 1.624 1.796.988 0 1.63-.769 1.63-1.796 0-1.034-.642-1.797-1.63-1.797zM58.664 24.483c1.193 0 1.63-.663 1.63-1.3 0-1.65-2.618-1.08-2.618-2.074 0-.418.385-.703.909-.703.483 0 .947.16 1.279.53l.331-.404c-.37-.391-.895-.623-1.564-.623-.875 0-1.525.504-1.525 1.233 0 1.578 2.619.941 2.619 2.081 0 .345-.252.77-1.04.77a1.824 1.824 0 01-1.386-.637l-.332.424c.365.41.935.703 1.697.703zM20.956 1.963H25.4v9.28h13.649v3.461H20.956V1.963zM51.569 2.037h5.303l-7.512 6.21 7.634 6.408h-5.572L44.24 8.64l-.012 6.015h-4.345V2.037h4.345l-.025 5.278" fill="#696969"/><path d="M27.363 0v9.28H37.92V.074h8.281l-.016 3.406L50.938.074h11.389l-9.9 8.185 9.96 8.36H50.708l-4.513-3.78-.007 3.78h-5.176l-19.133.048v.001l-16.647.004c-.704 0-2.482-.15-3.785-1.526C.162 13.787.014 12.172.001 11.649v-.108l.002-6.217c-.021-.55.032-2.335 1.424-3.847C2.673.125 4.547.02 5.092.02L27.362 0zm-.982.981l-21.289.02c-.444 0-1.968.082-2.943 1.14C.966 3.428.97 4.987.985 5.304l-.003 6.244c-.003.226.025 1.706 1.178 2.924 1.041 1.1 2.495 1.219 3.072 1.219.073 0 .13-.002.167-.004h15.499l19.132-.05h5.178l.01-4.896 5.847 4.897h8.626l-8.798-7.384L59.6 1.055h-8.345l-6.06 4.343.021-4.343h-6.313v9.206h-12.52V.98z" fill="#696969"/><path d="M19.916 1.988v3.437H7.246s-.38-.023-.61.232c-.217.242-.2.573-.2.573v.472h13.456v3.363H6.43l.003.461s.012.34.216.52c.28.248.538.222.538.222h12.728v3.437H5.372s-1.532.113-2.499-.908c-.937-.992-.91-2.242-.91-2.242l.003-6.278s-.094-1.386.905-2.47c.802-.871 2.262-.824 2.262-.824l14.783.005zM20.956 1.963H25.4v9.28h13.649v3.461H20.956V1.963zM51.569 2.037h5.303l-7.512 6.21 7.634 6.408h-5.572L44.24 8.64l-.012 6.015h-4.345V2.037h4.345l-.025 5.278" fill="#696969"/></svg>
