<svg width="51" height="25" fill="none" xmlns="http://www.w3.org/2000/svg"><path d="M3.93 7.89l5.65 2.63c-.13-.08-2.82-1.9-3.65-3.33-.85-1.46-.8-2.55-.07-3.6.72-1.05 2.5-1.71 5.2-1.54 2.72.18 5.7 1 7.93 3.01 0 0-1.9-3.39-6.76-4.34C7.38-.22 3.64 1.7 1.5 3.65a2.84 2.84 0 00-.96 1.49c.04 1.45 3.4 2.75 3.4 2.75z" fill="url(#paint0_linear)"/><path d="M5.86 21c-.72-1.05-.78-2.13.07-3.6.85-1.47 3.65-3.33 3.65-3.33L3.93 16.7S.57 18.01.53 19.45c.1.48.39.97.96 1.5a12.24 12.24 0 0010.74 2.92c4.86-.95 6.76-4.34 6.76-4.34-2.23 2.01-5.21 2.84-7.92 3.01-2.71.17-4.49-.49-5.21-1.54z" fill="url(#paint1_linear)"/><path d="M3.93 16.7l5.65-2.63s1.61-.86 1.61-1.71v-.06-.06c0-.85-1.6-1.71-1.6-1.71h-.01L3.93 7.89S.57 6.6.53 5.14c-.27 1.32.97 2.45 2 3.42 1.37 1.3 1.98 2.58 1.97 3.74.01 1.16-.6 2.44-1.97 3.74-1.02.97-2.27 2.1-2 3.42.04-1.45 3.4-2.76 3.4-2.76zM15.85 10.7c.23 0 .44.04.63.11s.35.17.49.29a1.28 1.28 0 01.43 1c0 .14-.04.25-.12.33a.62.62 0 01-.35.15l-1.61.24.03.08c.06.1.14.19.26.25.15.07.32.1.51.1a1.82 1.82 0 00.9-.22c.07.04.12.1.17.18.05.08.07.16.07.25 0 .2-.09.34-.27.43-.14.08-.3.13-.47.15a3.3 3.3 0 01-.49.04c-.26 0-.5-.03-.71-.1a1.5 1.5 0 01-.96-.86c-.1-.23-.14-.48-.14-.77 0-.29.04-.54.14-.74a1.46 1.46 0 01.89-.8c.2-.07.4-.1.6-.1zm0 .82c-.1 0-.2.02-.27.05a.55.55 0 00-.3.32.75.75 0 00-.04.2l1.12-.18-.02-.07a.56.56 0 00-.13-.2c-.08-.08-.2-.12-.36-.12zM20.81 14.03a2.1 2.1 0 00.5-.06v-2.04c0-.38-.14-.68-.4-.9a1.76 1.76 0 00-1.14-.32c-.27 0-.52.03-.74.1-.23.06-.41.15-.56.25a.8.8 0 00-.2.2.5.5 0 00-.08.3v1.95c0 .1.01.2.04.26.03.07.07.12.12.16.05.04.12.07.2.08l.25.02a2.1 2.1 0 00.5-.06v-2.26a.65.65 0 01.22-.1c.08-.02.17-.03.25-.03.13 0 .24.03.31.1.08.05.12.15.12.29v1.54c0 .1.01.2.04.26.03.07.07.12.12.16.05.04.12.07.2.08l.25.02zM24.77 9.66l.26.02c.07.02.14.04.19.08.05.04.09.1.12.16.02.07.04.16.04.27v3.09l-.01.1a.57.57 0 01-.28.39 2.3 2.3 0 01-1.18.31 2.3 2.3 0 01-.76-.11 1.46 1.46 0 01-.92-.87c-.08-.21-.12-.45-.12-.7 0-.3.04-.54.13-.75a1.43 1.43 0 01.9-.84 2.14 2.14 0 01.92-.08l.2.06V9.73l.06-.01a2.55 2.55 0 01.45-.06zm-.81 1.92c-.24 0-.42.06-.54.2-.13.13-.2.34-.2.61 0 .27.07.48.18.61.12.14.3.2.51.2a.6.6 0 00.36-.1v-1.45l-.07-.03a.64.64 0 00-.24-.04zM27.9 10.7c.25 0 .48.05.69.13a1.5 1.5 0 01.89.87c.08.21.12.44.12.7 0 .26-.04.5-.12.71a1.46 1.46 0 01-.89.86c-.2.08-.44.11-.7.11-.26 0-.49-.04-.7-.11a1.5 1.5 0 01-.89-.87 1.9 1.9 0 01-.12-.7c0-.26.04-.5.13-.7a1.5 1.5 0 01.88-.87c.21-.08.44-.12.7-.12zm0 .88a.49.49 0 00-.43.2c-.1.15-.15.35-.15.61 0 .27.05.47.15.61.1.14.25.21.43.21s.32-.07.42-.21c.1-.14.15-.35.15-.6 0-.27-.05-.47-.15-.61a.49.49 0 00-.43-.21zM31 14.03a2.1 2.1 0 00.5-.06v-2.22l.2-.07a5.33 5.33 0 01.83-.11c.02-.05.05-.1.06-.16a.63.63 0 00.03-.18c0-.18-.06-.31-.18-.4a.89.89 0 00-.5-.11 2.47 2.47 0 00-.74.1l-.33.13c-.1.04-.2.1-.26.15a.6.6 0 00-.16.2.56.56 0 00-.06.25v1.96c0 .1.02.2.05.26.02.07.06.12.12.16.05.04.11.07.19.08l.26.02zM34.72 10.7c.26 0 .5.04.73.11a1.44 1.44 0 01.96.84c.08.2.13.46.13.75 0 .28-.04.52-.12.73-.08.2-.19.38-.33.53-.15.14-.32.24-.52.31s-.43.1-.68.1c-.18 0-.36-.02-.52-.08v1.08l-.05.02a2.66 2.66 0 01-.45.05c-.1 0-.18 0-.26-.02a.44.44 0 01-.2-.08.35.35 0 01-.1-.16.74.74 0 01-.05-.26V11.4c.02-.08.04-.15.08-.2a.8.8 0 01.2-.2c.14-.1.3-.16.5-.21.2-.06.43-.08.68-.08zm.04.88a.77.77 0 00-.4.1v1.43l.09.04.08.03.2.02c.45 0 .67-.27.67-.8 0-.28-.05-.49-.16-.62-.11-.14-.27-.2-.48-.2zM39.97 14.03a2.1 2.1 0 00.5-.06V12c0-.42-.13-.74-.37-.96a1.46 1.46 0 00-1-.32c-.15 0-.27.01-.39.04-.11.03-.2.05-.26.08v-.64a.7.7 0 00-.04-.27.38.38 0 00-.12-.16.44.44 0 00-.2-.08 1.54 1.54 0 00-.53 0l-.22.04v3.79c0 .1.02.2.05.26.02.07.06.12.12.16.05.04.11.07.19.08l.26.02a2.1 2.1 0 00.5-.06V11.7a.92.92 0 01.44-.11.5.5 0 01.32.1c.09.08.13.2.13.38v1.45c0 .1.02.2.05.26.02.07.06.12.12.16.05.04.11.07.19.08l.26.02zM41.98 10.51a.57.57 0 00.6-.59.57.57 0 00-.6-.58.57.57 0 00-.6.59.57.57 0 00.6.58zM42.04 14.03c.1 0 .19 0 .28-.02l.22-.04v-2.65a.7.7 0 00-.05-.27.38.38 0 00-.12-.16.44.44 0 00-.19-.08 1.53 1.53 0 00-.54 0l-.21.04v2.66c0 .1.01.2.04.26.03.07.07.12.12.16.05.04.12.07.2.08l.25.02zM46.11 14.03a2.1 2.1 0 00.5-.06v-2.04c0-.38-.13-.68-.4-.9a1.76 1.76 0 00-1.13-.32c-.28 0-.53.03-.75.1-.22.06-.41.15-.56.25a.8.8 0 00-.2.2.5.5 0 00-.08.3v1.95c0 .1.02.2.04.26.03.07.07.12.12.16.06.04.12.07.2.08l.25.02a2.1 2.1 0 00.5-.06v-2.26a.65.65 0 01.22-.1c.08-.02.17-.03.26-.03.13 0 .23.03.3.1.08.05.12.15.12.29v1.54c0 .1.02.2.04.26.03.07.07.12.12.16.06.04.12.07.2.08l.25.02zM48.85 10.7c.24 0 .45.03.65.08.19.05.35.12.5.22.13.1.23.22.3.37.08.15.12.33.12.53v1.55a.38.38 0 01-.1.2.94.94 0 01-.22.18c-.28.17-.68.25-1.2.25-.23 0-.43-.02-.62-.06-.18-.05-.34-.11-.48-.2a.9.9 0 01-.4-.8c0-.3.08-.53.26-.7.18-.15.45-.25.83-.3l.85-.08V11.82a.27.27 0 00-.16-.2 1.12 1.12 0 00-.48-.08 2.22 2.22 0 00-.91.18.57.57 0 01-.2-.43c0-.11.02-.2.08-.27a.63.63 0 01.25-.17 3.87 3.87 0 01.93-.14zm.5 1.97l-.47.04-.12.01a.61.61 0 00-.18.06.21.21 0 00-.12.2c0 .09.03.16.1.21.07.06.18.08.34.08.08 0 .16 0 .25-.02a.6.6 0 00.2-.06v-.52z" fill="#696969"/><defs><linearGradient id="paint0_linear" x1="18.99" y1="4.01" x2="3.5" y2="12.44" gradientUnits="userSpaceOnUse"><stop stop-color="#696969"/><stop offset="1" stop-color="#696969" stop-opacity=".5"/></linearGradient><linearGradient id="paint1_linear" x1=".53" y1="17.6" x2="16.02" y2="26.04" gradientUnits="userSpaceOnUse"><stop stop-color="#696969" stop-opacity=".5"/><stop offset="1" stop-color="#696969"/></linearGradient></defs></svg>
