<svg width="75" height="25" fill="none" xmlns="http://www.w3.org/2000/svg"><path fill-rule="evenodd" clip-rule="evenodd" d="M18.947.333h8.11l.2 2.684h-.48c-.19-1.103-.214-1.33-.626-1.77-.413-.44-1.227-.389-1.889-.389H22.19a.503.503 0 00-.379.134.565.565 0 00-.128.406v3.423h.906c.452.014.887-.174 1.18-.512.306-.34.469-.864.49-1.57h.493V7.54h-.49c-.024-.795-.19-1.364-.496-1.707-.307-.343-.725-.515-1.253-.515h-.828v3.85a.407.407 0 00.153.344c.102.08.272.12.511.119h1.638c1.776 0 2.802-.569 3.073-2.794h.515l-.178 3.32h-8.45v-.525h.446c.282 0 .479-.048.595-.144a.513.513 0 00.171-.417V1.399a.512.512 0 00-.15-.406.698.698 0 00-.471-.134h-.59V.333z" fill="#696969"/><path fill-rule="evenodd" clip-rule="evenodd" d="M26.89 3.59h3.665v.48c-.439.008-.719.046-.84.111a.318.318 0 00-.183.291c0 .107.025.212.072.309l1.777 3.876L33 4.898a.577.577 0 00.035-.196c0-.34-.343-.553-1.03-.637v-.477h2.776v.481a1.355 1.355 0 00-.674.225 1.178 1.178 0 00-.386.49l-2.457 5.568h-.387L28.243 4.63a.95.95 0 00-.343-.43c-.137-.083-.712-.125-1.001-.13l-.009-.48zM37.363 3.894c-.534 0-.973.237-1.317.712-.343.474-.515 1.222-.514 2.243 0 1.042.17 1.804.512 2.286.341.481.781.722 1.32.722.559 0 1.01-.24 1.356-.722.346-.482.52-1.27.52-2.362 0-1.014-.171-1.748-.512-2.201a1.623 1.623 0 00-1.365-.68v.002zm0-.498a3.026 3.026 0 012.273.957c.61.638.916 1.478.916 2.52 0 .72-.137 1.333-.411 1.84-.269.5-.676.917-1.174 1.201-.496.29-1.063.441-1.64.438a2.91 2.91 0 01-2.207-.967c-.604-.645-.906-1.481-.906-2.51-.001-1.028.302-1.867.909-2.516a2.95 2.95 0 012.24-.963z" fill="#696969"/><path fill-rule="evenodd" clip-rule="evenodd" d="M42.785.214V9.19a.376.376 0 00.122.302.686.686 0 00.436.14h.43v.525H40.53v-.525h.396a.684.684 0 00.49-.155.572.572 0 00.16-.434V1.6a.629.629 0 00-.192-.512.973.973 0 00-.651-.224h-.598V.333l2.65-.119zM46.183 3.471v4.353c0 .534.137.945.41 1.234.272.29.66.449 1.06.435a1.75 1.75 0 001.361-.635 2.31 2.31 0 00.561-1.588V4.81a.616.616 0 00-.247-.523c-.165-.123-.48-.192-.948-.207v-.49l2.355-.12v5.385a.742.742 0 00.215.573.849.849 0 00.6.2h.423v.468l-2.254.05-.144-1.29c-.34.412-.748.766-1.208 1.047-.37.224-.794.345-1.229.35a2.101 2.101 0 01-1.522-.595c-.414-.393-.622-1.06-.622-1.999V4.81a.64.64 0 00-.308-.575c-.143-.093-.436-.145-.88-.154v-.49l2.377-.119zM53.331.912h.479V3.59h4.077v.645H53.81v4.21c0 .364.088.643.265.838a.87.87 0 00.673.29c.334-.004.644-.17.83-.442.23-.294.363-.78.401-1.458h.48c-.03.873-.232 1.522-.608 1.945-.366.418-.906.651-1.468.634-.553 0-.986-.15-1.298-.449a1.536 1.536 0 01-.466-1.159V4.235h-1.17v-.491c.535-.09.94-.306 1.213-.652.412-.52.635-1.246.669-2.18z" fill="#696969"/><path fill-rule="evenodd" clip-rule="evenodd" d="M58.31.486c.214 0 .418.085.565.238a.763.763 0 01.007 1.108.814.814 0 01-1.133-.011.774.774 0 01.011-1.11.81.81 0 01.55-.225zM56.45 3.59l2.668-.077v5.65a.415.415 0 00.115.33.618.618 0 00.416.14h.482v.525h-3.262v-.525h.432a.62.62 0 00.458-.15.602.602 0 00.146-.44v-4.01a.742.742 0 00-.229-.592c-.152-.134-.38-.2-.68-.2h-.55l.004-.65zM63.499 3.894c-.534 0-.973.237-1.316.712-.343.474-.515 1.222-.515 2.243 0 1.042.17 1.804.512 2.286.34.481.78.722 1.319.722.558 0 1.01-.24 1.356-.722.346-.482.519-1.27.519-2.362 0-1.014-.17-1.748-.511-2.201a1.623 1.623 0 00-1.364-.68v.002zm0-.498a3.025 3.025 0 012.272.957c.611.638.917 1.478.917 2.52 0 .72-.138 1.333-.412 1.84-.268.5-.675.915-1.174 1.2a3.216 3.216 0 01-1.64.439 2.909 2.909 0 01-2.207-.967c-.604-.645-.906-1.481-.906-2.51 0-1.028.304-1.867.91-2.516a2.95 2.95 0 012.24-.963z" fill="#696969"/><path fill-rule="evenodd" clip-rule="evenodd" d="M66.55 3.59l2.225-.133c.1.476.167.958.2 1.444.261-.437.626-.805 1.064-1.073a2.69 2.69 0 011.384-.358c.39-.013.774.075 1.117.256.32.191.572.474.723.81.185.388.278.812.271 1.24v3.197c0 .239.055.408.165.508.11.1.294.15.552.15h.195v.526h-2.978v-.525h.06c.315 0 .534-.05.658-.147.13-.11.2-.274.187-.442v-2.81c0-.612-.096-1.066-.287-1.36-.267-.42-.672-.631-1.216-.631a1.694 1.694 0 00-1.349.637c-.36.425-.54.979-.54 1.662v2.432c0 .239.056.408.168.508.112.1.297.15.554.15h.19v.526h-3v-.525h.187a.863.863 0 00.533-.14.426.426 0 00.183-.35V4.9a.83.83 0 00-.229-.639.946.946 0 00-.669-.217h-.343l-.005-.455zM30.426 12.319l.585-1.037h.48l.265 4.136h-.465c-.358-1.19-.78-2.05-1.266-2.58-.619-.674-1.33-1.01-2.13-1.01a2.803 2.803 0 00-1.65.51c-.487.342-.86.853-1.12 1.535-.26.68-.389 1.37-.389 2.607 0 1.2.13 1.867.39 2.544.258.678.618 1.176 1.075 1.496.47.323 1.03.49 1.604.48.833 0 1.478-.23 1.933-.689.455-.458.684-1.05.687-1.773v-.974a.408.408 0 00-.182-.358c-.122-.085-.322-.127-.598-.126h-.895v-.491h4.16v.491h-.324c-.267 0-.458.046-.572.137a.477.477 0 00-.172.396v3.958h-.473a40.757 40.757 0 00-.536-1.773c-.31.527-.75.971-1.277 1.293a3.276 3.276 0 01-1.676.429 4.804 4.804 0 01-4.282-2.57c-.442-.815-.662-1.465-.662-2.494 0-1.028.22-1.682.665-2.504a5.151 5.151 0 011.821-1.948c.77-.482 1.55-.723 2.337-.722.438 0 .873.075 1.284.225.5.2.966.475 1.383.812zM37.528 17.833c-1.212.164-2.071.43-2.576.8-.377.28-.565.677-.564 1.192 0 .36.098.64.293.844.198.205.477.316.765.305a1.985 1.985 0 001.462-.627 2.15 2.15 0 00.62-1.57v-.944zm2.492 2.969l.115.193c0 .37-.458.33-.88.33-.325 0-.974-.017-1.2-.184-.244-.18-.315-.357-.482-.791-.454.467-.852.779-1.196.935-.39.166-.812.246-1.237.235-.687 0-1.21-.145-1.568-.435a1.373 1.373 0 01-.536-1.115c0-.682.41-1.248 1.228-1.7.819-.45 1.907-.75 3.266-.897v-.995a1.165 1.165 0 00-.436-.911 1.633 1.633 0 00-1.109-.38 2.169 2.169 0 00-1.073.253c-.214.127-.322.25-.322.371a.677.677 0 00.172.33.88.88 0 01.207.498.683.683 0 01-.207.515.75.75 0 01-.544.2.81.81 0 01-.598-.238.822.822 0 01-.239-.61c0-.463.267-.886.802-1.269.534-.383 1.232-.574 2.093-.574.797 0 1.405.168 1.825.505.396.294.63.753.63 1.24v3.59c-.012.218.043.433.159.619.084.132.22.224.374.257.251.026.504.036.756.028z" fill="#696969"/><path fill-rule="evenodd" clip-rule="evenodd" d="M39.791 14.757l1.919-.12c.1.461.17.927.207 1.396.363-.511.726-.872 1.09-1.081.361-.21.775-.318 1.196-.314.412-.016.817.11 1.145.355.301.238.533.625.696 1.16.265-.452.629-.84 1.065-1.14.378-.247.824-.379 1.279-.376.61 0 1.069.177 1.374.533.391.467.587 1.07.587 1.808v3.254c0 .196.05.33.15.4.173.119.383.176.594.16h.336v.526h-3.373v-.525h.336c.287 0 .486-.046.602-.14a.511.511 0 00.172-.422v-3.26c0-.486-.122-.862-.365-1.13a1.23 1.23 0 00-.957-.4 1.468 1.468 0 00-.813.236c-.252.166-.451.4-.573.673-.204.416-.307.77-.307 1.06v2.826a.536.536 0 00.158.425.73.73 0 00.487.137h.458v.525h-3.421v-.525h.386a.875.875 0 00.544-.14.436.436 0 00.179-.358v-3.03c0-.64-.115-1.104-.344-1.395a1.135 1.135 0 00-.934-.434c-.506 0-.895.168-1.168.505a2.572 2.572 0 00-.58 1.668v2.621c0 .201.046.34.137.414.179.112.39.163.602.147h.343v.525h-3.38v-.525h.508a.63.63 0 00.44-.14.461.461 0 00.153-.358v-4.302a.7.7 0 00-.186-.533c-.124-.116-.372-.191-.744-.224l.002-.482z" fill="#696969"/><path fill-rule="evenodd" clip-rule="evenodd" d="M53.156 11.652c.213 0 .418.086.564.238a.761.761 0 01.008 1.108.814.814 0 01-1.133-.012.774.774 0 01.011-1.11.81.81 0 01.55-.225v.001zm-1.584 3.105l2.392-.078v5.65c-.012.121.03.242.115.33a.62.62 0 00.416.14h.758v.526H51.16v-.526h.986a.619.619 0 00.458-.15.602.602 0 00.147-.437v-4.138a.745.745 0 00-.23-.593c-.152-.133-.38-.2-.68-.2h-.274l.004-.524z" fill="#696969"/><path fill-rule="evenodd" clip-rule="evenodd" d="M55.057 14.757l2.225-.134c.1.477.167.959.2 1.444.261-.436.626-.805 1.064-1.072.419-.242.898-.366 1.384-.358a2.23 2.23 0 011.116.255c.32.192.573.474.724.81.185.389.278.813.271 1.241v3.197c0 .238.055.408.165.508.114.1.293.15.55.15h.196v.525h-2.978v-.525h.06c.314 0 .533-.05.658-.147a.528.528 0 00.185-.44v-2.812c0-.612-.095-1.065-.286-1.36-.268-.42-.674-.63-1.217-.63a1.695 1.695 0 00-1.35.638c-.36.425-.54.979-.539 1.662v2.432c0 .239.056.408.168.508.113.1.297.15.555.15h.188v.526h-3.274v-.526h.465a.864.864 0 00.533-.14.427.427 0 00.183-.351v-4.24a.83.83 0 00-.229-.638.943.943 0 00-.669-.218h-.343l-.005-.455zM66.15 15.005a1.358 1.358 0 00-1.052.46c-.276.306-.415.734-.416 1.285 0 .59.139 1.046.416 1.371a1.406 1.406 0 002.114.014c.274-.316.411-.768.411-1.357 0-.546-.14-.979-.418-1.296a1.348 1.348 0 00-1.056-.477zm.422 6.323c-.878 0-1.504.12-1.879.358-.373.238-.561.526-.562.862a.85.85 0 00.423.75c.372.243.901.365 1.588.365.821 0 1.439-.134 1.853-.4.415-.266.623-.563.623-.89a.857.857 0 00-.193-.537 1.195 1.195 0 00-.615-.378 4.464 4.464 0 00-1.238-.13zm1.46-6.204c.477-.473 1.809-1.164 2.236-1.18.288-.012.524.036.687.185.163.15-.126.486-.126.703a.605.605 0 01-.16.43.5.5 0 01-.376.172c-.272 0-.456-.163-.551-.49-.038-.14-.102-.21-.194-.21-.162 0-.984.46-1.176.673.173.22.315.462.423.72.077.21.116.431.114.655.008.38-.096.753-.3 1.076-.2.31-.533.585-.998.823a2.93 2.93 0 01-1.335.358h-.78c-.553 0-.92.056-1.101.168a.571.571 0 00-.273.512.475.475 0 00.222.42c.148.098.427.147.837.148l1.768-.035c.892 0 1.535.146 1.928.439.388.28.609.73.59 1.201a1.79 1.79 0 01-.672 1.416c-.625.542-1.557.814-2.798.814-1.025 0-1.786-.185-2.283-.555-.39-.29-.586-.614-.586-.974.008-.293.145-.57.376-.757.25-.229.67-.4 1.26-.511-.473-.113-.829-.278-1.067-.495a1.051 1.051 0 01-.357-.81 1.152 1.152 0 01.29-.785c.193-.224.528-.415 1.005-.572a2.476 2.476 0 01-.916-.795 1.898 1.898 0 01-.307-1.07 2.01 2.01 0 01.765-1.598c.51-.43 1.173-.644 1.99-.644a3.32 3.32 0 011.865.568z" fill="#696969"/><path fill-rule="evenodd" clip-rule="evenodd" d="M70.519 13.986a.78.78 0 01.564.238.758.758 0 01.008 1.107.813.813 0 01-1.133-.011.774.774 0 01.011-1.111.81.81 0 01.55-.224v.001zM14.57 18.982c-.758 0-1.374.603-1.374 1.346 0 .744.616 1.346 1.374 1.346.76 0 1.375-.602 1.375-1.346 0-.743-.615-1.346-1.375-1.346zm0 2.42c-.604 0-1.094-.48-1.094-1.073 0-.592.49-1.072 1.094-1.072.605 0 1.095.48 1.095 1.072 0 .593-.49 1.073-1.095 1.073zm.566-1.35a.416.416 0 00-.158-.343c-.123-.099-.25-.099-.438-.1h-.453v1.389h.265v-.516h.236l.282.516h.297l-.316-.56a.381.381 0 00.28-.382l.005-.005zm-.52.215h-.266v-.433h.12c.095-.011.191-.001.281.029a.196.196 0 01.115.185.218.218 0 01-.248.214M15.774 10.333C3.544 11.274 2.072 5.88.024 1.364c6.594-3.449 15.11.189 15.75 8.969z" fill="#696969"/><path fill-rule="evenodd" clip-rule="evenodd" d="M.024 20.191c6.594 3.45 15.11-.188 15.75-8.97-12.23-.94-13.702 4.455-15.75 8.97z" fill="#696969"/></svg>
