<svg width="212" height="48" xmlns="http://www.w3.org/2000/svg" xmlns:xlink="http://www.w3.org/1999/xlink"><defs><path id="a" d="M0 .418h73.089V46.34H0z"/><path id="c" d="M.35.032h17.59v21.944H.35z"/><path id="e" d="M.193.534h6.172v6.149H.193z"/></defs><g fill="none" fill-rule="evenodd"><g transform="translate(0 .16)"><mask id="b" fill="#fff"><use xlink:href="#a"/></mask><path d="M6.759 13.07c.146.385.29.771.437 1.156.016.043.045.08.07.12a29.951 29.951 0 006.108 7.297c2.941 2.545 6.272 4.342 10.08 5.204.236.054.609.016.745-.135.13-.144.097-.513.022-.746a31.054 31.054 0 00-.796-2.136c-.832-2.036-2.077-3.806-3.646-5.327-1.781-1.726-3.794-3.12-6.098-4.102-1.836-.782-3.714-1.349-5.894-1.634l-1.028.303zm22.842 26.164v6.106c0 .911-.081.99-.977.984-.879-.005-1.758 0-2.637.002-.761 0-.927-.153-.935-.936-.01-.902-.001-1.804.003-2.706.016-3.26.035-6.52.052-9.781.002-.543-.205-.948-.775-1.078-.45-.103-.9-.209-1.356-.282-1.834-.293-3.547-.937-5.254-1.652-2.123-.89-4.049-2.088-5.863-3.472-2.626-2.001-4.857-4.389-6.803-7.058-1.9-2.607-3.306-5.475-4.561-8.428-.178-.42-.383-.837-.488-1.276-.04-.17.107-.488.263-.58.29-.174.642-.277.98-.329 2.72-.418 5.412-.8 8.198-.28 1.87.348 3.724.722 5.466 1.433 4.255 1.734 7.913 4.276 10.643 8.076 1.475 2.054 2.502 4.293 3.277 6.668.192.59.242 1.226.386 1.835.118.502.63.81 1.136.707 1.486-.3 2.996-.54 4.436-.995 1.46-.461 2.869-1.106 4.255-1.764 2.31-1.097 4.315-2.65 6.183-4.38a27.573 27.573 0 005.905-7.804c1.774-3.505 2.918-7.22 2.926-11.206 0-.57.278-.738 1.184-.543a5.716 5.716 0 002.35-.005c.824-.169 1.188-.056 1.206.53.153 4.953 2.598 8.796 6.767 11.768 1.957 1.396 4.314 2.066 6.715 2.192.621.033.858.203.796.867-.089.963-.03 1.94-.034 2.911-.005.828-.129.99-.95 1.003-2.815.042-5.457.972-7.885 2.31-2.19 1.205-4.162 2.774-5.897 4.573a30.234 30.234 0 00-5.472 7.849 30.033 30.033 0 00-2.954 11.022c-.05.69-.263.776-1.136.8-.873.025-1.535.025-2.254-.008-.72-.033-1.17-.155-1.152-.827.068-2.504.476-4.942 1.14-7.366 1.614-5.884 4.62-10.932 8.907-15.226 2.042-2.047 4.323-3.803 6.937-5.089a2.12 2.12 0 00.66-.495c.278-.32.237-.61-.171-.842-2.147-1.224-3.812-2.96-5.197-4.977-.308-.45-.788-.423-1.047.056a29.429 29.429 0 00-.955 1.982c-1.443 3.21-3.471 6.018-5.875 8.574-1.846 1.962-3.879 3.715-6.175 5.106-1.644.997-3.422 1.775-5.156 2.619-2.475 1.205-5.168 1.63-7.84 2.114-.88.16-.983.288-.983 1.192v6.106h.011z" fill="#FF8000" mask="url(#b)"/></g><path d="M169.707 38.816c0-1.896-.018-3.793.004-5.689.036-3.046 1.187-5.564 3.79-7.223 3.269-2.085 7.012-1.794 10.03.69.514.42.783.372 1.272-.041 2.49-2.104 5.339-2.609 8.356-1.436 3.608 1.403 5.32 4.184 5.33 8.029.012 4.07.008 8.14.01 12.21.001.898-.161 1.058-1.038 1.053-.81-.004-1.62.003-2.428-.001-.929-.004-1.046-.121-1.045-1.032.002-3.03.009-6.059.005-9.089-.002-1.225-.003-2.45-.05-3.674-.078-1.95-1.949-3.627-3.93-3.498-2.047.133-3.597 1.773-3.609 3.93-.022 4.025-.008 8.049-.002 12.073a1.284 1.284 0 01-1.288 1.288c-.74-.004-1.479.004-2.218.002-.957-.002-1.067-.116-1.066-1.083.003-4.024-.007-8.048.014-12.072.008-1.473-.495-2.67-1.726-3.505-2.258-1.532-5.33-.152-5.782 2.594-.06.362-.064.736-.064 1.105-.003 3.932 0 7.863.002 11.794 0 1.025-.148 1.173-1.148 1.166-.813-.004-1.627.006-2.44.001a.999.999 0 01-.988-1c-.002-2.198-.001-4.395-.001-6.592h.01zm-65.725 3.912c3.627.003 6.715-3.088 6.73-6.735.015-3.738-3.036-6.825-6.766-6.817-3.792.008-6.696 3.07-6.754 6.776-.056 3.612 3.164 6.773 6.79 6.776m-.05 4.635c-3.121-.054-5.78-1.266-7.964-3.424-2.216-2.19-3.297-4.925-3.297-8.056 0-6.2 5.064-11.274 11.238-11.273 6.337.002 11.3 4.972 11.317 11.303.008 3.174-1.093 5.892-3.35 8.093-2.19 2.137-4.828 3.309-7.944 3.357" fill="#525559"/><path d="M117.505 25.433c.509 0 1.026.06 1.524-.013.876-.127 1.41.256 1.908.934 1.297 1.77 2.66 3.49 3.981 5.241.368.488.66.389.98-.03 1.31-1.702 2.66-3.374 3.919-5.113.71-.981 1.39-1.016 3.056-1.007.843.005 1.488.026 2.386 0 .278-.008.53.08.793.16-.074.201-.104.435-.228.597a1173.17 1173.17 0 01-6.994 9.042c-.418.534-.419.89.014 1.44 2.158 2.737 4.264 5.517 6.39 8.281.21.274.444.533.637.818.27.397.169.69-.33.694-1.503.013-3.007.022-4.507-.039-.284-.01-.623-.293-.82-.542-1.42-1.791-2.81-3.607-4.21-5.414-.332-.43-.874-.427-1.203.006-1.36 1.785-2.74 3.553-4.103 5.336-.447.585-.552.623-1.872.619-1.321-.005-1.917.034-3.208.028-.264-.002-.521-.112-.782-.186.073-.231.09-.506.228-.687 2.138-2.783 4.291-5.554 6.442-8.328.042-.054.094-.102.138-.156.926-1.165.897-1.142-.029-2.327-2.248-2.874-4.467-5.77-6.69-8.664-.1-.13-.215-.402-.159-.47a.774.774 0 01.52-.237c.739-.025 1.479-.01 2.219-.01v.027z" fill="#525559"/><g transform="translate(148.048 25.607)"><mask id="d" fill="#fff"><use xlink:href="#c"/></mask><path d="M17.928 7.427c0 1.965-.011 3.93.003 5.895.025 3.454-2.482 6.897-5.952 8.144a8.395 8.395 0 01-4.39.373c-1.577-.284-3.072-1.06-4.31-2.2C1.328 17.84.396 15.596.375 12.98.34 8.934.37 4.887.35.84.348.199.69.045 1.217.043 2.142.04 3.067.036 3.99.045c.776.008.91.153.91.952l-.004 11.515c0 1.498.381 2.842 1.61 3.814 1.246.987 2.623 1.371 4.14.705 1.628-.714 2.695-1.931 2.721-3.759.058-4.023.026-8.046.026-12.07 0-1.163-.007-1.158 1.148-1.152.856.005 1.712.024 2.566-.016.606-.028.835.209.831.803-.015 2.196-.005 4.393-.005 6.59h-.006z" fill="#525559" mask="url(#d)"/></g><path d="M82.249 38.238c0-2.307-.003-4.614.001-6.92.003-1.102-.117-1.234-1.21-1.252-.828-.013-.922-.111-.917-.912.006-.876.004-1.752.004-2.63-.002-.956.039-.997 1.026-1.009h.07c.907-.011 1.051-.139 1.054-1.04.008-2.67 1.096-4.87 2.978-6.692 1.545-1.494 3.456-2.25 5.563-2.54.56-.076.886.131.885.743-.001.978-.027 1.957.009 2.934.023.606-.31.845-.843.957-1.718.361-2.979 1.339-3.666 2.955-.246.58-.324 1.24-.422 1.871-.083.54.203.822.757.82 1.061-.006 2.123-.006 3.184-.01.87-.006 1.014.132 1.015.98.001.9-.024 1.801.014 2.699.027.642-.266.883-.86.88-.991-.003-1.983.005-2.976-.007-.992-.01-1.14.113-1.14 1.086-.002 4.707 0 9.412.005 14.119.002 1.226-.014 1.25-1.208 1.249-.807-.002-1.618-.038-2.421.016-.693.047-.92-.29-.923-.892-.006-1.06 0-2.122 0-3.183v-4.222h.021zm61.858-2.313v9.567c0 .842-.133.97-.944.962-.924-.008-1.85-.04-2.772.015-.628.037-.845-.24-.85-.796-.001-.37.019-.739.019-1.109-.002-6.124-.002-12.248-.019-18.373-.001-.693.254-.749 1.162-.772.885-.023 1.433 0 2.185.012.92.015 1.224.03 1.22.718-.012 3.258-.005 6.517-.005 9.776h.004z" fill="#525559"/><g transform="translate(204.723 18.506)"><mask id="f" fill="#fff"><use xlink:href="#e"/></mask><path d="M6.365 6.034c.004.216.102.498-.008.616-.073.078-.297.034-.482.033-.207 0-.579 0-.614-.033-.034-.033-.003-.41 0-.628.011-.786.06-1.573.035-2.357-.008-.26.07-1.11-.035-1.367-.176.18-.646.931-.786 1.136-.286.418-.531.865-.804 1.294-.283.445-.554.42-.827-.025a30.486 30.486 0 00-.979-1.511c-.092-.133-.515-.795-.657-.894-.084.17-.039 1.14-.04 1.31-.009.832 0 1.435 0 2.385-.01.245 0 .623 0 .623s-.297.04-.504.034c-.186-.006-.488.025-.48-.023.034-.178.008-1.067.01-1.291.008-1.434-.018-2.32.024-3.753C.228 1.265.228.576.25.576c.171 0 .878.045.919.045.04 0 .04 0 .45.625.378.58.737 1.037 1.103 1.624.168.27.541.739.558.739.018 0 .274-.508.437-.74.345-.49.629-1.024.98-1.508.197-.27.565-.74.569-.74.272 0 1.088-.042 1.1-.043 0 0-.012.441-.008.668.012.81.002 1.619.004 2.429 0 .786-.008 1.572.004 2.359z" fill="#525559" mask="url(#f)"/></g><path d="M201.959 22.745c0 .577.007 1.153 0 1.73-.009.688.007.688-.567.688s-.572 0-.572-.71c0-1.107.022-2.214.022-3.323 0-1.16.19-1.044-.993-1.034-.046 0-.909.064-.909.007 0-.017.016-.009 0-.491-.018-.567-.046-.483.303-.493.6-.018 1.7.002 2.3 0a38.817 38.817 0 001.799-.037c.39-.022.442.022.433.515-.009.484.066.526-.314.5a23.78 23.78 0 00-.76-.01c-.742 0-.75.012-.748.72.003.646-.003 1.292-.003 1.938h.01z" fill="#525559"/></g></svg>
