<svg width="94" height="48" xmlns="http://www.w3.org/2000/svg" xmlns:xlink="http://www.w3.org/1999/xlink"><defs><path id="a" d="M.022.001h28.196v31.715H.022z"/></defs><g fill="none" fill-rule="evenodd"><ellipse fill="#546269" cx="46.825" cy="24" rx="35.748" ry="24"/><g transform="translate(18.797 5.034)"><mask id="b" fill="#fff"><use xlink:href="#a"/></mask><path d="M8.314 21.793c-.06-.092-.112-.19-.182-.274-.313-.38-.668-.732-.943-1.136-1.8-2.648-1.976-5.386-.356-8.175 1.016-1.748 2.49-3.04 4.254-4.002 1.95-1.065 4.03-1.676 6.264-1.714.155-.003.309-.088.463-.135-.086-.14-.144-.312-.263-.412-1.228-1.023-2.518-1.954-3.912-2.748-1.451-.826-2.942-1.588-4.57-1.94C7.334.88 5.556.696 3.794.438c-.101-.015-.217.063-.326.097.04.118.058.25.125.35.493.745 1.079 1.444 1.478 2.236.56 1.113.782 2.226-.18 3.235-.406.424-.945 1.007-1.298 1.479C2.577 9.189 1.87 10.5 1.604 12.208c-.192 1.231-.192 2.609.339 3.65.813 1.598 1.649 2.57 3.127 3.888.96.855 1.524 1.065 2.58 1.773.191.128.348.299.56.398l.104-.124zm6.989 9.923c-.428-.003-.534-.254-.534-.487 0-1.873.036-3.662 0-5.514-.01-.56-.171-.631-.728-.809-3.179-1.013-6.266-2.226-8.995-4.205a2.03 2.03 0 01-.157-.126c-.47-.417-.955-.816-1.402-1.256-1.123-1.105-2.264-2.203-2.816-3.932-.552-1.73-.237-3.543.6-5.395.837-1.852 1.67-2.903 2.906-4.277.58-.643.706-1.336.45-2.121C4.258 2.467 3.601 1.51 2.819.632c-.08-.09-.18-.166-.245-.265C2.431.153 2.471.003 2.756 0 5.18-.008 7.57.231 9.91.917c1.515.444 2.943 1.074 4.334 1.805C16.796 4.062 19 5.82 20.752 8.124c.032.043.073.08.1.126.665 1.115 1.66 1.489 2.933 1.478 1.285-.012 2.571.144 3.857.227.12.008.253-.009.357.037.094.041.232.169.218.228-.024.105-.133.213-.235.27-.084.047-.21.03-.316.029-1.88-.007-3.758-.024-5.638-.015-.384.002-.665-.116-.909-.406-.638-.76-1.296-1.503-1.934-2.262-.273-.325-.575-.481-1.024-.482-2.474-.003-4.782.596-6.911 1.853-2.03 1.199-3.649 2.77-4.43 5.062-.542 1.592-.419 3.148.337 4.646 1.24 2.458 3.323 3.937 5.803 4.942.36.146.725.284 1.095.403.4.129.714.479.714-.808 0-1.286.034-2.561 0-3.997-.01-.385.114-.528.423-.54.33-.013.596.135.598.54.006 1.195 0 10.58 0 11.774-.004.171-.06.49-.487.487z" fill="#DF601D" mask="url(#b)"/></g><path d="M34.205 16.119c-.494-.014-.952-.493-.93-.972.024-.489.508-.945.983-.927.49.019.951.5.936.977-.016.48-.503.935-.989.922" fill="#DF601D"/><path d="M38.32 28.579c.58 0 1.087-.212 1.52-.636l.075.54h.472v-2.947h-.635v1.98c-.453.329-.871.494-1.255.494-.409 0-.694-.153-.857-.458-.162-.305-.244-.834-.244-1.588 0-.59.05-1.036.148-1.336.099-.3.247-.501.447-.602.2-.101.493-.151.882-.151.463 0 .901.02 1.315.059l.066-.488a5.812 5.812 0 00-1.418-.155c-.797 0-1.351.188-1.661.565-.31.377-.465 1.065-.465 2.064 0 .926.126 1.6.38 2.023.253.424.663.636 1.23.636zm3.315-.096l.502-1.596h2.098l.502 1.596h.672l-1.64-4.919c-.03-.118-.11-.177-.243-.177h-.68c-.133 0-.214.06-.243.177l-1.64 4.919h.672zm2.422-2.157h-1.742l.642-2.023.126-.414h.206c.04.148.082.286.126.414l.642 2.023zm2.614 2.157l.178-4.557h.147l1.138 3.759c.044.148.142.222.295.222h.583c.148 0 .242-.074.281-.222l1.137-3.759h.155l.185 4.557h.65l-.214-4.823c0-.182-.089-.273-.266-.273h-.731c-.148 0-.242.074-.28.222l-.954 3.094c-.03.093-.065.22-.107.38-.041.16-.07.267-.085.321h-.132l-.078-.291a7.404 7.404 0 00-.114-.395l-.953-3.11c-.044-.147-.135-.22-.273-.22h-.739c-.172 0-.263.09-.273.272l-.2 4.823h.65zm6.868.007c1.004 0 1.733-.015 2.186-.044l-.03-.503H53.65c-.295 0-.443-.164-.443-.494v-1.396h2.2v-.524h-2.2V24.42c0-.325.148-.487.443-.487h2.045l.03-.51a37.752 37.752 0 00-2.186-.044c-.3 0-.538.08-.712.24-.175.16-.265.375-.27.646v3.338c.005.27.095.486.27.646.174.16.412.24.712.24zm3.833-.007v-2.356h2.127v-.524h-2.127V24.42c0-.172.04-.297.118-.373.079-.076.204-.114.377-.114h1.912l.037-.503c-.438-.034-1.142-.051-2.112-.051-.3 0-.539.08-.716.24-.177.16-.266.385-.266.675v4.188h.65zm3.995 0v-5.096h-.65v5.096h.65zm2.703.088c.63 0 1.072-.09 1.325-.273.254-.182.38-.554.38-1.115 0-.409-.076-.726-.228-.953-.153-.226-.419-.386-.798-.48l-1.034-.258c-.236-.06-.402-.145-.498-.259-.096-.113-.144-.305-.144-.576 0-.187.016-.333.048-.44a.37.37 0 01.195-.232.867.867 0 01.303-.088c.104-.01.264-.015.48-.015.483 0 .963.012 1.44.037l.044-.473a7.878 7.878 0 00-1.513-.147c-.31 0-.558.014-.743.044-.184.03-.352.09-.502.18a.735.735 0 00-.317.407c-.062.18-.093.417-.093.713 0 .398.078.712.233.941.155.229.412.388.772.476l1.056.266c.236.06.402.144.498.255.096.11.144.306.144.587 0 .34-.07.561-.21.665-.14.103-.413.155-.816.155-.212.005-.731-.008-1.558-.037l-.045.48a8.91 8.91 0 001.58.14zm3.374-.088v-2.445h2.349v2.445h.65v-5.096h-.65v2.09h-2.349v-2.09h-.65v5.096h.65zM38.32 36.579c.581 0 1.088-.212 1.522-.636l.074.54h.472v-2.947h-.635v1.98c-.453.329-.871.494-1.255.494-.409 0-.694-.153-.857-.458-.162-.305-.244-.834-.244-1.588 0-.59.05-1.036.148-1.336.099-.3.247-.501.447-.602.2-.101.493-.151.882-.151.463 0 .901.02 1.315.059l.066-.488a5.812 5.812 0 00-1.418-.155c-.797 0-1.351.188-1.661.565-.31.377-.465 1.065-.465 2.064 0 .926.126 1.6.38 2.023.253.424.663.636 1.23.636zm6.179-.09c.886 0 1.543-.016 1.971-.05l-.03-.503h-1.838c-.33 0-.495-.162-.495-.487v-4.062h-.642v4.143c0 .64.344.96 1.034.96zm6.429.09c.748 0 1.27-.194 1.566-.58.295-.387.443-1.075.443-2.064 0-.99-.148-1.678-.443-2.064-.296-.387-.818-.58-1.566-.58-.748 0-1.273.195-1.573.584-.295.384-.443 1.07-.443 2.06s.149 1.677.447 2.064c.298.386.82.58 1.569.58zm0-.584c-.502 0-.85-.149-1.041-.447-.192-.297-.288-.835-.288-1.613s.096-1.316.288-1.614c.192-.298.539-.446 1.041-.446.502 0 .85.15 1.041.45.192.295.288.832.288 1.61 0 .778-.096 1.316-.288 1.613-.192.298-.539.447-1.041.447zm6.939.547c.6 0 1.021-.094 1.263-.281.24-.187.361-.537.361-1.049 0-.423-.077-.747-.232-.97-.155-.225-.417-.354-.787-.388v-.03c.3-.03.52-.139.658-.329.137-.19.206-.468.206-.838 0-.517-.124-.867-.373-1.052-.248-.185-.69-.277-1.325-.277-.714 0-1.265.02-1.654.06v5.095a22.75 22.75 0 001.883.059zm-.155-2.947h-1.093v-1.713h.99c.423 0 .712.057.867.17.155.113.233.34.233.68 0 .334-.072.56-.214.679-.143.118-.404.18-.783.184zm.051 2.393c-.56 0-.942-.003-1.144-.008v-1.89h1.1c.424.01.715.084.875.221.16.138.24.402.24.79 0 .355-.075.591-.225.71-.15.118-.432.177-.846.177zm4.85.495l.502-1.596h2.097l.502 1.596h.672l-1.64-4.919c-.029-.118-.11-.177-.243-.177h-.68c-.132 0-.214.06-.243.177l-1.64 4.919h.672zm2.422-2.157H63.29l.642-2.023.126-.414h.207c.039.148.08.286.125.414l.643 2.023zm5.033 2.164c.886 0 1.544-.017 1.972-.052l-.03-.502h-1.838c-.33 0-.495-.162-.495-.487v-4.062h-.643v4.143c0 .64.345.96 1.034.96z" fill="#DD5F1D" fill-rule="nonzero"/><path d="M.973 44.937V43.43h.451c.493 0 .872-.104 1.137-.313.265-.21.397-.508.397-.896 0-.744-.479-1.117-1.437-1.117H.527v3.834h.446zm.401-1.89H.973v-1.558h.498c.352 0 .61.062.776.186.166.124.25.313.25.566 0 .282-.089.486-.265.614-.177.128-.463.191-.858.191zm2.756 1.89v-1.542c0-.281.083-.517.248-.705a.766.766 0 01.597-.284c.09 0 .195.014.314.04l.06-.404a1.703 1.703 0 00-.343-.032.867.867 0 00-.496.153c-.15.101-.278.245-.385.432h-.021l-.05-.532h-.36v2.874h.436zm2.971.053c.194 0 .36-.015.497-.044.138-.029.283-.076.437-.143v-.388c-.302.13-.608.194-.918.194-.294 0-.521-.087-.683-.262-.162-.175-.247-.43-.256-.768h1.98v-.276c0-.388-.105-.7-.314-.937-.21-.237-.495-.356-.855-.356-.385 0-.691.137-.92.41-.228.272-.342.64-.342 1.104 0 .46.123.819.369 1.077.245.26.58.389 1.005.389zm.59-1.765H6.19c.024-.266.105-.474.242-.624a.71.71 0 01.552-.226c.228 0 .402.073.525.219.122.146.183.356.183.63zm1.645 1.712V43.43c0-.372.063-.64.19-.804.127-.163.326-.245.599-.245.208 0 .361.057.459.172.098.115.147.286.147.515v1.87h.435v-1.605c0-.323.065-.563.194-.718.13-.156.33-.234.6-.234.207 0 .36.057.457.172.098.115.147.286.147.515v1.87h.435v-1.875c0-.367-.08-.634-.242-.801-.162-.167-.406-.25-.73-.25-.209 0-.394.043-.557.13a.916.916 0 00-.372.357h-.021c-.138-.325-.432-.488-.881-.488-.186 0-.353.04-.502.118a.856.856 0 00-.348.328h-.02l-.072-.393H8.9v2.874h.436zm4.78-3.362c.07 0 .13-.024.181-.072.05-.048.076-.121.076-.219s-.025-.17-.076-.218a.256.256 0 00-.18-.07.257.257 0 00-.184.07c-.05.045-.074.118-.074.218 0 .098.025.171.074.22.049.047.11.071.183.071zm.215 3.362v-2.874h-.435v2.874h.435zm1.938.053c.203 0 .384-.038.542-.113a.868.868 0 00.37-.325h.024l.063.385h.36v-2.874h-.436v1.51c0 .373-.07.641-.208.805-.14.165-.359.247-.66.247-.227 0-.394-.058-.5-.173-.107-.115-.16-.29-.16-.525v-1.864h-.441v1.88c0 .366.087.631.26.797.175.166.437.25.786.25zm2.717-.053V43.43c0-.372.063-.64.19-.804.127-.163.327-.245.6-.245.207 0 .36.057.458.172.098.115.147.286.147.515v1.87h.435v-1.605c0-.323.065-.563.194-.718.13-.156.33-.234.601-.234.206 0 .358.057.456.172.098.115.147.286.147.515v1.87h.435v-1.875c0-.367-.08-.634-.242-.801-.162-.167-.405-.25-.73-.25-.208 0-.394.043-.556.13a.916.916 0 00-.373.357h-.02c-.139-.325-.433-.488-.882-.488-.185 0-.353.04-.502.118a.856.856 0 00-.347.328h-.021l-.071-.393h-.354v2.874h.435zm6.176-3.362a.25.25 0 00.18-.072c.051-.048.077-.121.077-.219s-.026-.17-.076-.218a.256.256 0 00-.181-.07.257.257 0 00-.184.07c-.049.045-.073.118-.073.218 0 .098.024.171.073.22.05.047.11.071.184.071zm.215 3.362v-2.874h-.436v2.874h.436zm2.63.053c.276 0 .52-.017.729-.05a4.19 4.19 0 00.619-.147v-1.865h-1.303v.399h.857v1.18a3.308 3.308 0 01-.779.092c-.49 0-.86-.134-1.113-.401-.253-.268-.379-.66-.379-1.178 0-.493.131-.878.393-1.156.263-.278.627-.417 1.094-.417.32 0 .653.073 1 .22l.172-.393a2.888 2.888 0 00-1.143-.226c-.404 0-.756.08-1.057.237-.3.159-.531.388-.691.687-.16.3-.24.65-.24 1.048 0 .622.162 1.106.485 1.452.324.345.776.518 1.356.518zm2.9 0c.214 0 .392-.032.534-.096.142-.064.285-.186.429-.366h.02l.087.41h.323v-1.962c0-.336-.083-.58-.248-.732-.165-.152-.42-.228-.762-.228a2.046 2.046 0 00-.973.247l.134.332c.302-.147.573-.22.813-.22.213 0 .368.054.465.161.097.108.146.274.146.5v.178l-.488.016c-.928.028-1.392.332-1.392.912 0 .271.08.48.242.627.162.147.385.22.67.22zm.087-.36c-.171 0-.305-.04-.4-.123-.095-.082-.143-.202-.143-.36 0-.2.077-.348.23-.444.152-.095.402-.149.748-.161l.436-.018v.26c0 .267-.078.475-.233.623-.154.149-.367.223-.638.223zm2.638.307V43.43c0-.372.063-.64.19-.804.127-.163.327-.245.6-.245.207 0 .36.057.458.172.098.115.147.286.147.515v1.87h.435v-1.605c0-.323.065-.563.194-.718.13-.156.33-.234.601-.234.206 0 .358.057.456.172.098.115.147.286.147.515v1.87h.435v-1.875c0-.367-.08-.634-.242-.801-.162-.167-.405-.25-.73-.25-.208 0-.394.043-.556.13a.916.916 0 00-.373.357h-.02c-.139-.325-.433-.488-.882-.488-.185 0-.353.04-.502.118a.856.856 0 00-.348.328h-.02l-.071-.393h-.354v2.874h.435zm4.78-3.362c.07 0 .13-.024.182-.072.05-.048.076-.121.076-.219s-.026-.17-.076-.218a.256.256 0 00-.181-.07.257.257 0 00-.184.07c-.049.045-.073.118-.073.218 0 .098.024.171.073.22.049.047.11.071.184.071zm.216 3.362v-2.874h-.436v2.874h.436zm1.358 0V43.43c0-.374.07-.642.21-.805.14-.162.36-.244.66-.244.228 0 .395.058.502.173.106.116.16.29.16.525v1.86h.435v-1.876c0-.367-.088-.634-.262-.801-.175-.167-.436-.25-.782-.25-.197 0-.377.038-.537.116a.889.889 0 00-.375.33h-.021l-.071-.394h-.354v2.874h.435zm3.677 1.29c.49 0 .861-.083 1.117-.25a.816.816 0 00.383-.728c0-.25-.084-.44-.25-.572-.168-.13-.407-.196-.718-.196h-.509c-.157 0-.268-.019-.333-.057a.188.188 0 01-.097-.174c0-.149.093-.272.278-.37.075.014.156.021.241.021.336 0 .6-.084.792-.252.193-.167.289-.392.289-.673a.915.915 0 00-.189-.575l.532-.063v-.275h-.994a1.46 1.46 0 00-.406-.053c-.346 0-.614.086-.802.256-.19.17-.284.413-.284.728 0 .189.047.357.14.503a.776.776 0 00.364.312.882.882 0 00-.265.229.463.463 0 00-.084.275.41.41 0 00.075.244.46.46 0 00.185.155.855.855 0 00-.472.26.666.666 0 00-.168.453c0 .255.102.453.305.592.204.14.494.21.87.21zm.125-2.633c-.202 0-.36-.051-.474-.154-.114-.103-.17-.256-.17-.457 0-.216.054-.38.165-.49.11-.11.267-.165.472-.165.43 0 .645.216.645.648 0 .412-.213.618-.638.618zm-.12 2.3c-.245 0-.433-.04-.564-.12a.39.39 0 01-.197-.354c0-.177.055-.312.166-.407.11-.094.264-.141.461-.141h.522c.266 0 .447.03.543.09.096.06.144.168.144.324 0 .187-.088.335-.264.444-.175.11-.446.164-.811.164zm4.382-.904c.42 0 .752-.095.996-.284.245-.189.367-.452.367-.789 0-.262-.075-.476-.226-.64-.152-.164-.428-.318-.83-.461a3.08 3.08 0 01-.534-.235.691.691 0 01-.248-.234.647.647 0 01-.073-.326c0-.18.066-.32.199-.422.133-.102.317-.152.553-.152.3 0 .607.066.923.199l.14-.388c-.32-.14-.671-.21-1.052-.21-.366 0-.66.087-.881.262a.851.851 0 00-.333.706c0 .281.076.51.23.684.152.175.407.326.764.454.255.09.445.172.57.244.125.071.214.15.267.234a.6.6 0 01.08.327.555.555 0 01-.225.47c-.15.113-.374.17-.671.17-.182 0-.366-.02-.551-.058a2.762 2.762 0 01-.514-.157v.43c.245.117.594.176 1.049.176zm3.23 0c.417 0 .743-.132.979-.395s.354-.63.354-1.098c0-.456-.119-.818-.356-1.085-.236-.268-.556-.402-.958-.402-.416 0-.741.131-.976.393-.234.26-.351.626-.351 1.094 0 .303.054.567.163.792.108.226.262.399.461.52.2.12.428.18.685.18zm.011-.365c-.285 0-.5-.096-.648-.288-.146-.193-.22-.472-.22-.84 0-.37.073-.65.218-.836.145-.187.36-.28.645-.28.288 0 .506.094.654.284.148.19.222.467.222.832 0 .37-.074.65-.222.84-.148.192-.364.288-.649.288zm2.649.312v-2.536h.731v-.338h-.731v-.186c0-.242.039-.417.118-.526.078-.11.2-.164.364-.164.12 0 .262.027.43.081l.113-.348a1.905 1.905 0 00-.535-.092c-.617 0-.926.353-.926 1.06v.16l-.514.157v.196h.514v2.536h.436zm2.121.053c.074 0 .156-.008.248-.023a.796.796 0 00.208-.056v-.333a1.443 1.443 0 01-.393.052.429.429 0 01-.338-.139c-.082-.092-.123-.225-.123-.398V42.4h.834v-.338h-.834v-.666h-.252l-.184.613-.411.181v.21h.411v1.71c0 .586.278.879.834.879zm1.917-.053l.543-1.68c.052-.167.114-.403.184-.709h.02c.091.365.153.6.187.703l.527 1.686h.516l.795-2.874h-.451c-.334 1.28-.516 1.985-.547 2.116a2.78 2.78 0 00-.056.291h-.021a5.567 5.567 0 00-.2-.758l-.513-1.65h-.472l-.528 1.65a6.545 6.545 0 00-.111.377 5.632 5.632 0 00-.093.387h-.021a6.683 6.683 0 00-.167-.764l-.423-1.65h-.456l.784 2.875h.503zm3.989.053a1.3 1.3 0 00.533-.096c.143-.064.286-.186.43-.366h.02l.087.41h.322v-1.962c0-.336-.082-.58-.248-.732-.165-.152-.419-.228-.761-.228a2.046 2.046 0 00-.973.247l.133.332c.303-.147.574-.22.813-.22.214 0 .369.054.466.161.097.108.145.274.145.5v.178l-.487.016c-.929.028-1.393.332-1.393.912 0 .271.081.48.243.627.161.147.385.22.67.22zm.086-.36c-.171 0-.304-.04-.4-.123-.095-.082-.143-.202-.143-.36 0-.2.077-.348.23-.444.153-.095.402-.149.749-.161l.435-.018v.26c0 .267-.077.475-.232.623-.155.149-.368.223-.639.223zm2.638.307v-1.542c0-.281.083-.517.248-.705a.766.766 0 01.597-.284c.09 0 .196.014.315.04l.06-.404a1.703 1.703 0 00-.344-.032.862.862 0 00-.495.153c-.15.101-.28.245-.386.432h-.02l-.05-.532h-.36v2.874h.435zm2.972.053c.194 0 .36-.015.497-.044.137-.029.282-.076.436-.143v-.388c-.302.13-.608.194-.918.194-.293 0-.521-.087-.683-.262-.162-.175-.247-.43-.255-.768h1.98v-.276c0-.388-.105-.7-.315-.937-.21-.237-.495-.356-.855-.356-.385 0-.691.137-.92.41-.227.272-.342.64-.342 1.104 0 .46.123.819.369 1.077.246.26.58.389 1.006.389zm.59-1.765H66.75c.024-.266.105-.474.243-.624a.71.71 0 01.552-.226c.227 0 .402.073.524.219.122.146.184.356.184.63zm3.469 1.765c.42 0 .752-.095.997-.284.244-.189.367-.452.367-.789 0-.262-.076-.476-.227-.64-.151-.164-.428-.318-.83-.461a3.08 3.08 0 01-.534-.235.691.691 0 01-.248-.234.647.647 0 01-.073-.326.5.5 0 01.2-.422c.132-.102.317-.152.553-.152.299 0 .606.066.923.199l.139-.388c-.32-.14-.67-.21-1.052-.21-.365 0-.659.087-.881.262a.851.851 0 00-.333.706c0 .281.076.51.23.684.152.175.407.326.764.454.255.09.445.172.57.244.125.071.214.15.268.234a.61.61 0 01.08.327.555.555 0 01-.226.47c-.15.113-.374.17-.671.17a2.72 2.72 0 01-.55-.058 2.762 2.762 0 01-.515-.157v.43c.245.117.594.176 1.049.176zm3.23 0c.417 0 .743-.132.979-.395s.354-.63.354-1.098c0-.456-.118-.818-.355-1.085-.237-.268-.557-.402-.959-.402-.416 0-.741.131-.975.393-.235.26-.352.626-.352 1.094 0 .303.054.567.163.792.108.226.262.399.461.52.2.12.428.18.685.18zm.011-.365c-.285 0-.5-.096-.647-.288-.147-.193-.22-.472-.22-.84 0-.37.072-.65.217-.836.145-.187.36-.28.645-.28.289 0 .507.094.654.284.148.19.222.467.222.832 0 .37-.074.65-.222.84-.147.192-.364.288-.649.288zm2.52.312v-4.08h-.435v4.08h.435zm1.938.053c.203 0 .384-.038.542-.113a.868.868 0 00.37-.325h.025l.062.385h.36v-2.874h-.436v1.51c0 .373-.07.641-.208.805-.14.165-.359.247-.66.247-.227 0-.394-.058-.5-.173-.107-.115-.16-.29-.16-.525v-1.864h-.441v1.88c0 .366.087.631.26.797.175.166.437.25.786.25zm3.147 0c.074 0 .156-.008.248-.023a.796.796 0 00.208-.056v-.333a1.443 1.443 0 01-.393.052.429.429 0 01-.338-.139c-.082-.092-.123-.225-.123-.398V42.4h.833v-.338h-.833v-.666h-.252l-.184.613-.411.181v.21h.411v1.71c0 .586.278.879.834.879zm1.251-3.415c.07 0 .13-.024.181-.072.05-.048.076-.121.076-.219s-.025-.17-.076-.218a.256.256 0 00-.18-.07.257.257 0 00-.185.07c-.048.045-.073.118-.073.218 0 .098.025.171.073.22.05.047.11.071.184.071zm.215 3.362v-2.874H83.6v2.874h.435zm2.072.053c.416 0 .742-.132.978-.395s.354-.63.354-1.098c0-.456-.119-.818-.355-1.085-.237-.268-.557-.402-.959-.402-.416 0-.741.131-.975.393-.235.26-.352.626-.352 1.094 0 .303.054.567.163.792.108.226.262.399.461.52.2.12.428.18.685.18zm.01-.365c-.285 0-.5-.096-.647-.288-.147-.193-.22-.472-.22-.84 0-.37.072-.65.217-.836.145-.187.36-.28.645-.28.288 0 .507.094.654.284.148.19.222.467.222.832 0 .37-.074.65-.222.84-.147.192-.364.288-.649.288zm2.52.312V43.43c0-.374.07-.642.21-.805.14-.162.36-.244.661-.244.227 0 .394.058.5.173.108.116.16.29.16.525v1.86h.436v-1.876c0-.367-.087-.634-.262-.801-.175-.167-.435-.25-.782-.25-.197 0-.376.038-.537.116a.889.889 0 00-.375.33h-.021l-.07-.394H88.2v2.874h.435zm3.577.053c.36 0 .64-.073.84-.218.199-.145.298-.352.298-.619 0-.19-.06-.349-.18-.475-.119-.126-.35-.25-.69-.375a4.249 4.249 0 01-.504-.212.582.582 0 01-.19-.155.326.326 0 01-.059-.196.3.3 0 01.157-.268c.105-.065.261-.097.467-.097.235 0 .496.06.784.178l.155-.354a2.294 2.294 0 00-.907-.189c-.332 0-.594.068-.784.204a.645.645 0 00-.286.554.66.66 0 00.082.339.78.78 0 00.252.253c.113.074.303.161.57.26.282.109.471.203.568.283a.36.36 0 01.146.287.36.36 0 01-.184.331c-.122.073-.297.11-.524.11-.147 0-.3-.02-.458-.061a2.156 2.156 0 01-.444-.165v.404c.213.12.51.18.891.18z" fill="#FFF" fill-rule="nonzero"/></g></svg>
