<svg width="256" height="47" xmlns="http://www.w3.org/2000/svg" xmlns:xlink="http://www.w3.org/1999/xlink"><defs><path id="a" d="M.014.497h33.52v33.19H.014z"/><path id="c" d="M0 46.955h255.266V0H0z"/></defs><g fill="none" fill-rule="evenodd"><path d="M8.62 12.07l.292 18.083h1.824V40.68c-.39.294-10.598-6.89-10.598-6.89.1-1.493 0-20.297 0-28.071C5.446 4.42 13.418 2.529 24.054.04c5.128 2.754 8.348 4.647 9.66 5.679-5.252 1.304-13.617 3.42-25.094 6.351zm69.514 2.503H57.802v16.012H73.67v-5.22H63.463v-4.868h15.638v15.23c-7.827 0-15.544.183-23.232-.189-1.209-.058-3.174-2.571-3.274-4.048-.386-5.697-.213-11.434-.13-17.155.038-2.674 1.464-4.524 4.307-4.571 7.01-.117 14.026-.039 21.362-.039v4.848z" fill="#000"/><g transform="translate(11.463 13.269)"><mask id="b" fill="#fff"><use xlink:href="#a"/></mask><path d="M24.914 22.166c4.228 2.716 7.101 4.638 8.62 5.767-4.083 1.038-12.173 2.931-24.268 5.681L0 27.696a92.917 92.917 0 01.018-3.491C.224 16.534.088 8.853.088.497c1.84 1.355 4.616 3.55 8.329 6.586v18.84c3.138-.795 8.638-2.047 16.497-3.757z" fill="#FF1A00" mask="url(#b)"/></g><path d="M133.918 35.63h-4.08V24.467l-5.921 11.222h-5.335c-.454-1.013-.788-1.688-1.004-2.026-1.62-2.535-2.812-5.332-4.8-7.974v9.884h-3.973V15.59h3.763c4.007 7.497 6.867 12.922 8.578 16.277 1.684-3.213 4.649-8.667 8.894-16.362 1.45-.05 2.744-.05 3.878 0V35.63z" fill="#000"/><path d="M238.828 31.583h11.752v-3.669h-11.707l-.045 3.669zm0-8.015h12.199v-3.774h-12.199v3.774zm-4.232-8.183c5.763 0 11.346-.122 16.918.06 2.219.073 3.712 1.458 3.707 3.887-.002 1.235.17 3.082-.164 4.341-.147.554-.478 1.186-.992 1.895.607.6.938 1.06.992 1.383.303 1.825.145 3.693 0 5.528-.092 1.155-1.79 3.068-2.832 3.123-5.8.306-11.627.147-17.63.147V15.385z" fill="#FF1A00"/><mask id="d" fill="#fff"><use xlink:href="#c"/></mask><path d="M87.78 23.629h12.42v-3.856H87.78v3.856zm-.299 4.433v7.583h-3.813c0-5.769-.219-11.445.183-17.079.082-1.145 2.42-2.892 3.862-3.044 4-.42 8.077-.223 12.12-.116 2.609.069 4.373 1.59 4.466 4.097.198 5.326.06 10.664.06 16.125h-3.846v-7.566H87.481z" fill="#000" mask="url(#d)"/><path d="M213.874 23.673h11.957v-3.906h-11.957v3.906zm-.195 12.13l-3.908-.197c0-5.638-.08-11.107.035-16.572.054-2.547 1.751-3.658 4.264-3.659 3.816 0 7.637-.117 11.446.041 2.588.107 4.61 1.217 4.628 4.187.028 5.24.007 10.481.007 15.941h-3.95v-7.558H213.68v7.817z" fill="#FF1A00" mask="url(#d)"/><path d="M176.218 15.373v4.14h-13.56v4.28c3.465 0 6.878-.033 10.29.01 3.883.048 4.877 1.378 4.86 6.347-.014 4.559-.855 5.586-4.753 5.614-4.623.035-9.245.009-14.036.009v-3.575h14.253v-4.506c-3.126 0-6.291.033-9.454-.008-4.625-.061-5.37-.993-5.353-6.514.015-4.443 1.253-5.763 5.524-5.791 4.028-.028 8.056-.006 12.23-.006m-37.929.173h16.069v3.92h-12.165v4.257h12.088v3.881h-12.016v4.442h12.057v3.543H138.29z" fill="#000" mask="url(#d)"/><path fill="#FF1A00" mask="url(#d)" d="M189.202 30.883h16.365v4.602h-21.413V9.988h5.048z"/><path d="M21.062 36.507v-8.15l4.053-1.337v-8.5l8.481-2.095v16.958l-12.534 3.125" fill="#000" mask="url(#d)"/></g></svg>
