<svg width="55" height="25" fill="none" xmlns="http://www.w3.org/2000/svg"><path d="M13.662 13.744c-.812 0-1.514.702-1.514 1.514 0 .811.702 1.514 1.514 1.514.811 0 1.514-.703 1.514-1.514a1.51 1.51 0 00-1.514-1.514zM3.821 1.797c-1.049 0-1.897.893-1.897 2.115 0 1.168.848 2.08 1.897 2.08 1.05 0 1.897-.93 1.897-2.08 0-1.167-.848-2.115-1.897-2.115zm3.785 5.408c0 2.444-1.46 3.967-3.821 3.967C2.015 11.182.492 10.16.21 8.6h2.06c.247.593.995.812 1.515.812 1.331 0 1.933-.876 1.933-2.189v-.32c-.556.539-1.313.822-2.152.822-1.943 0-3.53-1.724-3.53-3.84C.036 1.76 1.596.01 3.821.01c2.216 0 3.776 1.742 3.776 3.876v3.32h.01zM12.978 1.842c-1.204-.21-2.007.429-2.007 1.478v4.268h-1.87V3.32c0-2.089 1.45-3.557 3.886-3.247v1.77h-.01zM18.796 2.353c-.346-.42-.857-.666-1.459-.666-1.085 0-1.952.857-2.006 2.116l3.465-1.45zm2.116 2.882c-.428 1.496-1.733 2.517-3.566 2.517-2.088 0-3.775-1.724-3.775-3.849S15.258.027 17.346.027c1.77 0 3.256 1.122 3.612 3.083L15.74 5.299c.365.501.93.784 1.578.784.61 0 1.24-.274 1.56-.857h2.033v.009zM27.068 2.353c-.346-.42-.857-.666-1.459-.666-1.085 0-1.952.857-2.006 2.116l3.465-1.45zm2.116 2.882c-.429 1.496-1.733 2.517-3.566 2.517-2.088 0-3.776-1.724-3.776-3.849S23.53.027 25.618.027c1.77 0 3.256 1.122 3.612 3.083L24.03 5.299c.365.501.93.784 1.578.784.611 0 1.24-.274 1.56-.857h2.015v.009zM33.762.027c2.061 0 3.274 1.368 3.274 3.293v4.268H35.14V3.283c0-.42-.146-1.404-1.386-1.404-.82 0-1.423.574-1.423 1.404v4.305h-1.897V3.32c.01-1.88 1.323-3.293 3.33-3.293zM29.102 18.149c-2.162.237-3.31-1.067-3.31-3.083V8.928h1.896v1.87h1.332v1.669h-1.332v2.608c0 1.03.465 1.414 1.414 1.368v1.706zM33.671 18.331c-2.061 0-3.274-1.368-3.274-3.292v-4.241h1.897v4.305c0 .42.146 1.404 1.386 1.404.821 0 1.423-.593 1.423-1.404v-4.305H37v4.25c-.018 1.87-1.332 3.283-3.329 3.283zM42.253 12.385c-1.049 0-1.897.948-1.897 2.116 0 1.14.848 2.08 1.897 2.08s1.897-.895 1.897-2.08c-.018-1.213-.848-2.116-1.897-2.116zm0 5.946c-2.234 0-3.785-1.723-3.785-3.848V7.524h1.906v3.967c.557-.593 1.295-.857 2.153-.857 1.942 0 3.52 1.733 3.52 3.848-.018 2.144-1.578 3.85-3.794 3.85zM52.103 12.932c-.347-.42-.858-.666-1.46-.666-1.085 0-1.951.858-2.006 2.116l3.466-1.45zm2.124 2.891c-.428 1.496-1.732 2.517-3.565 2.517-2.089 0-3.776-1.723-3.776-3.848s1.687-3.876 3.776-3.876c1.769 0 3.255 1.121 3.611 3.082l-5.198 2.18c.364.502.93.784 1.578.784.61 0 1.24-.273 1.559-.857h2.015v.018zM2.973 15.258c0-.876-.638-1.514-1.46-1.514-.81 0-1.513.702-1.513 1.514 0 .811.702 1.514 1.514 1.514.82.009 1.46-.693 1.46-1.514zM5.545 13.744c-.812 0-1.514.702-1.514 1.514 0 .811.638 1.514 1.514 1.514.812 0 1.514-.703 1.514-1.514 0-.876-.702-1.514-1.514-1.514zM9.622 16.78c.811 0 1.459-.702 1.459-1.513 0-.876-.639-1.514-1.46-1.514-.875 0-1.513.702-1.513 1.514.009.811.647 1.514 1.514 1.514zM19.252 15.258c0-.876-.702-1.514-1.514-1.514-.811 0-1.514.702-1.514 1.514 0 .811.703 1.514 1.514 1.514.812.009 1.514-.693 1.514-1.514zM21.824 13.744c-.812 0-1.514.702-1.514 1.514 0 .811.639 1.514 1.514 1.514.821 0 1.514-.703 1.514-1.514 0-.876-.693-1.514-1.514-1.514zM54.227 21.478H.082v.173h54.145v-.173zM19.28 22.736h.447l.684 1.35v-1.35h.346v1.824h-.447l-.684-1.35v1.35h-.346v-1.824zM22.107 22.709c.565 0 .884.383.884.93s-.319.948-.884.948c-.575 0-.885-.392-.885-.948 0-.556.301-.93.885-.93zm0 1.587c.365 0 .502-.329.502-.666 0-.32-.146-.648-.502-.648s-.502.329-.502.648c-.009.346.128.666.502.666zM23.274 22.736h.392l.465 1.423.456-1.423h.356l-.61 1.824h-.448l-.61-1.824zM26.129 22.709c.565 0 .884.383.884.93s-.319.948-.884.948c-.575 0-.885-.392-.885-.948 0-.556.301-.93.885-.93zm0 1.587c.365 0 .501-.329.501-.666 0-.32-.145-.648-.501-.648s-.502.329-.502.648c-.018.346.128.666.502.666zM27.479 22.736h.574l.429 1.377.428-1.377h.575v1.824h-.347v-1.495l-.492 1.495h-.347l-.492-1.495v1.486h-.347l.019-1.815zM30.588 22.736h.402l.711 1.824H31.3l-.164-.42h-.739l-.164.42h-.365l.72-1.824zm.192.365l-.274.748h.53l-.256-.748zM32.194 23.028h-.52v-.283h1.404v.283h-.52v1.523h-.364v-1.523zM33.407 22.736h.364v1.815h-.364v-1.815zM35.614 24.524a1.61 1.61 0 01-.42.063c-.593 0-.994-.291-.994-.912 0-.629.383-.966.994-.966.119 0 .283.027.401.073l-.027.31a.785.785 0 00-.392-.1c-.365 0-.611.282-.611.665 0 .365.237.648.61.648.147 0 .31-.037.393-.073l.046.292zM37.812 22.736h.446l.684 1.35v-1.35h.347v1.824h-.438l-.684-1.35v1.35h-.346v-1.824h-.01zM51.054 22.736h.392l.465 1.423.456-1.423h.356l-.611 1.824h-.447l-.611-1.824zM45.363 22.736h.401l.711 1.824h-.4l-.165-.42h-.739l-.164.42h-.383l.739-1.824zm.2.365l-.273.748h.529l-.256-.748zM40.137 23.019h-.52v-.283h1.405v.283h-.52v1.523h-.365v-1.523zM49.002 23.019h-.52v-.283h1.404v.283h-.52v1.523h-.364v-1.523zM36.909 22.736h.364v1.815h-.364v-1.815zM50.306 22.736h.365v1.815h-.365v-1.815zM48.09 24.524a1.61 1.61 0 01-.42.063c-.593 0-.994-.291-.994-.912 0-.629.383-.966.994-.966.119 0 .283.027.401.073l-.027.31a.785.785 0 00-.392-.1c-.365 0-.611.282-.611.665 0 .365.237.648.611.648.146 0 .31-.037.392-.073l.046.292zM43.065 22.736h.392c.392 0 .857-.009.857.493 0 .21-.146.392-.365.42.1.008.164.108.2.181l.293.712h-.401l-.22-.566c-.045-.136-.1-.182-.255-.182h-.118v.748h-.365l-.018-1.806zm.374.766h.118c.182 0 .383-.027.383-.255 0-.22-.21-.237-.383-.237h-.118v.492zM42.5 23.74h-.73v.528h.811v.274h-1.158v-1.824h1.122v.273h-.766v.466h.73v.282h-.01zM54.2 23.74h-.73v.528h.812v.274h-1.158v-1.824h1.122v.273h-.775v.466h.73v.282z" fill="#696969"/></svg>
