<svg width="117" height="25" fill="none" xmlns="http://www.w3.org/2000/svg"><path d="M6.653.162c.325-.243.892.081.811.487 0 .406-.486.649-.811.406a.48.48 0 010-.893zM8.762.73c.244-.081.487-.081.65.162.162.244.08.487.08.73V2.84c-.08.325-.486.568-.81.406-.163-.081-.325-.325-.325-.487V1.217c.162-.162.243-.406.405-.487zM6.734 2.11c.325-.163.73.08.73.486v1.622c0 .325-.405.568-.73.406-.243-.081-.324-.325-.324-.487v-1.46c-.082-.243.08-.487.324-.568zM10.872 4.137c.406-.243.892.163.811.568-.08.406-.568.568-.892.325-.244-.244-.244-.73.081-.893z" fill="#696969"/><path d="M8.52 4.786c0-.324.324-.568.567-.487.243 0 .487.244.487.487V7.22c0 .243.162.487.487.568.243 0 .405-.163.568-.325.08-.405 0-.811 0-1.135 0-.244.243-.487.568-.406.324 0 .567.243.567.568V8.76c0 .406.487.65.812.406.243-.162.162-.568.405-.811.244-.244.812-.082.893.243.081.487 0 .973 0 1.46 0 .162.162.325.324.406.244.08.568 0 .65-.244.08-.243 0-.567.162-.73.162-.324.649-.324.892 0 .162.163.081.406.081.568v9.816c-2.515 1.46-7.626 4.462-7.95 4.624 0 0-5.437-3.164-8.033-4.624V9.654c.162-.406.73-.487.974-.082.162.406 0 .893.162 1.298.081.244.406.406.649.244.243-.081.324-.325.324-.568V7.95c0-.406.65-.568.893-.325.243.244.162.568.162.812 0 .243-.08.568.162.81.163.244.487.244.73.082a.876.876 0 00.244-.568V5.516c0-.324.244-.568.487-.568s.568.163.568.487v2.272c0 .162.162.324.324.405.244.162.65-.08.73-.405.082-.568 0-1.217 0-1.866.082-.325.73-.487.974-.081.244.405-.08.973.244 1.379.243.324.892.162.892-.325 0-.568-.081-1.298 0-2.028zm-4.301 7.301v6.003h2.515v-1.947H9.25v1.947h2.515v-5.922H9.25v2.028H6.734v-2.028c-.892-.08-1.704-.08-2.515-.08zM105.474 9.005c.893.08 1.785.162 2.597.567.405.244.811.568.973.974.325.649.487 1.379.568 2.028.081.973.081 2.028 0 3.002-.081.892-.243 1.784-.568 2.595-.243.568-.73.974-1.298 1.136-.974.325-2.028.406-3.002.406-.811 0-1.623 0-2.434-.244-.568-.162-1.136-.324-1.623-.81-.568-.569-.811-1.299-.892-2.029-.081-.892 0-1.703-.081-2.596 0-.811 0-1.541.162-2.352.081-.65.406-1.38.892-1.785.325-.325.812-.487 1.299-.65l1.46-.242a7.819 7.819 0 011.947 0zm-.522 2.433h-.127c-.487 0-1.055 0-1.46.244a.974.974 0 00-.406.405 6.184 6.184 0 00-.243 1.704c0 .973-.081 1.947.162 2.84.081.324.406.567.73.648.568.162 1.217.081 1.866 0 .406-.081.893-.243 1.055-.649.325-.811.243-1.703.243-2.596 0-.73 0-1.46-.324-2.109-.372-.446-1.017-.483-1.496-.487zM24.908 9.005h2.84v4.056h3.65V9.086h2.922v10.546h-2.921v-4.138h-3.651v4.219h-2.921c.081-3.57.081-7.139.081-10.708zM42.92 9.086c.324.81.568 1.703.811 2.596.812 2.677 1.623 5.435 2.434 8.03h-2.92c-.163-.648-.406-1.216-.569-1.865h-3.813c-.162.649-.324 1.217-.487 1.866-.973-.081-1.947-.081-3.002-.081 1.055-3.57 2.11-7.058 3.246-10.546h4.3zm-2.11 2.19c-.405 1.46-.81 3.002-1.298 4.543h2.597c-.406-1.542-.893-3.083-1.299-4.543zM53.305 9.005c.811 0 1.623.162 2.272.649.568.486.649 1.216.649 1.865 0 .65 0 1.298-.325 1.947-.243.487-.892.568-1.379.73.568.082 1.136.244 1.46.73.406.73.406 1.542.325 2.353-.081.73-.243 1.541-.974 1.866-.81.487-1.866.405-2.758.405H47.22V9.005h6.085zm-.974 6.327h-2.19v2.028h2.11c.324 0 .648 0 .973-.162.243-.162.325-.568.325-.892 0-.244 0-.65-.244-.812-.325-.162-.649-.162-.974-.162zm.163-3.975c-.812.081-1.542.081-2.353.081v1.866h1.704c.405 0 .892 0 1.217-.162.243-.081.324-.406.324-.65 0-.324 0-.648-.162-.892-.162-.162-.487-.243-.73-.243zM64.258 9.005c1.055 3.569 2.19 7.057 3.246 10.545h-2.921c-.163-.567-.325-1.216-.568-1.865h-3.813c-.163.568-.325 1.216-.487 1.784-.974.163-2.029.163-3.002.163 1.054-3.57 2.11-7.058 3.164-10.627h4.381zm-2.11 2.271c-.486 1.46-.892 3.002-1.298 4.543h2.597c-.406-1.542-.893-3.083-1.298-4.543zM68.234 9.005h4.787c.973 2.677 1.947 5.272 2.92 7.868 0 .082.082.163.163.244 0-2.677-.081-5.435-.081-8.031h2.84v10.627h-4.869c-.973-2.758-2.028-5.436-3.002-8.113h-.162c.081 2.678.081 5.436.162 8.032h-2.84c.082-3.489.082-7.058.082-10.627zM80.242 19.632V9.005h7.707v2.352h-4.868v1.866h4.544v1.947c-1.542.081-3.002 0-4.544 0v2.028h4.95v2.352c-2.516.082-5.112.082-7.79.082zM95.414 9.005c.73.08 1.541.162 2.19.567.487.325.73.974.893 1.542a7.42 7.42 0 010 2.677c-.081.405-.163.892-.487 1.136-.406.324-.974.405-1.46.649.567.08 1.135.162 1.541.648.487.568.487 1.298.487 1.947v1.46h-2.921c0-.73.081-1.46-.162-2.19-.081-.405-.487-.568-.893-.568H92.33v2.84h-2.84c-.08-3.57-.08-7.139-.08-10.708h6.004zm-3.084 2.514v2.92h2.434c.325 0 .65-.08.812-.324.162-.486.162-1.054.162-1.622 0-.244-.081-.406-.162-.568-.243-.243-.568-.243-.811-.325-.893-.08-1.704-.08-2.434-.08zM111.316 9.167h1.947v.568h-.649v1.947h-.649V9.735h-.649v-.568zM113.669 9.167h1.055c.162.487.324 1.054.486 1.541.244-.487.325-1.054.487-1.541h1.136v2.515h-.649c0-.65.081-1.217 0-1.866-.243.649-.406 1.217-.649 1.866h-.568c-.243-.65-.406-1.298-.649-1.866 0 .649.081 1.217.081 1.866h-.649c-.081-.812-.081-1.623-.081-2.515z" fill="#696969"/></svg>
