<svg width="117" height="25" fill="none" xmlns="http://www.w3.org/2000/svg"><path d="M44.712.126c-1.349 3.111-2.733 6.187-4.065 9.299 2.465.215 5 1.15 6.655 3.04 1.062 1.187 1.565 2.787 1.565 4.352.036 2.284-.81 4.64-2.536 6.168-1.529 1.404-3.651 2.033-5.719 1.98a6.525 6.525 0 01-4.73-1.854c-.45-.431-.864-.917-1.242-1.402h-7.176c.018-1.906.018-3.813.018-5.72.612 0 1.205 0 1.816.018.019-1.277-.017-2.572.019-3.849l4.477.008c.744 0 1.488-.002 2.231-.008.072 1.277.018 2.572.018 3.85h2.159l.007-6.777c0-1.13-.002-2.259-.007-3.386H36.06l-.008 2.77c0 .462.002.923.008 1.385-2.248.037-4.496 0-6.745.018-.018-1.385 0-2.788.018-4.173-.611 0-1.223 0-1.852.019l.008-3.83c0-.637-.002-1.273-.008-1.908l11.48-.008c1.915 0 3.832.002 5.75.008zm20.99 0c.017 1.925.017 3.849.017 5.773l-4.545-.008c-.758 0-1.516.002-2.27.008-1.53.018-2.987.792-3.922 1.979-.882 1.007-1.007 2.464-.863 3.74.161 1.673 1.294 3.166 2.806 3.886.773.323 1.618.431 2.445.431l6.403.036v5.72c-3.705.072-7.428 0-11.133.018-1.547-.018-3.094.036-4.64-.037 1.33-1.492 1.87-3.542 2.015-5.485.161-2.32-.252-4.82-1.763-6.672-1.475-1.853-3.777-2.915-6.097-3.166.45-1.151.935-2.284 1.366-3.435 2.519.018 5.019-.018 7.519-.018.48-.908.954-1.82 1.42-2.735 3.742-.07 7.5 0 11.242-.035zm27.085 6.385c.343.342.379.863.504 1.295l1.979 8.111c-.63-.018-1.259 0-1.906 0l-1.386-6.672-3.255 6.276c-.396.612-1.385.684-1.745-.017a207.95 207.95 0 01-3.291-6.277l-1.385 6.672h-1.924c.618-2.244 1.156-4.535 1.715-6.826l.425-1.717c.108-.503.45-1.079 1.025-1.115.576-.018.881.557 1.133.99 1.043 2.067 2.122 4.1 3.148 6.168.575-1.09 1.135-2.182 1.7-3.278l.854-1.65c.359-.665.63-1.385 1.097-1.96.323-.414.953-.324 1.313 0zm16.835-.09h6.565v1.673l-7.047.001-.165-.001c-.36 0-1.133.287-1.169.863-.09.594.503 1.061 1.061 1.043 1.565.018 3.112 0 4.676.018.99.018 2.051.36 2.68 1.169.792 1.17.737 2.932-.306 3.939-.611.612-1.51.845-2.356.845h-7.392V14.3l3.545-.012c.624 0 1.268.002 1.875.007l1.648.023c.72.017 1.583-.18 1.907-.9.198-.36.09-.791-.108-1.097-.278-.409-.809-.58-1.322-.594h-4.901c-.953 0-1.924-.449-2.464-1.24-.414-.612-.485-1.403-.324-2.105.234-.935.99-1.6 1.853-1.834.557-.18 1.151-.126 1.744-.126zM1.798 6.312v3.94h6.89V6.313h1.708l-.018 9.64h-1.69V11.96h-6.89v3.993H.126v-9.64h1.672zm72.573.99c1.708 2.878 3.38 5.774 5.108 8.651H77.32c-.557-.881-1.079-1.78-1.618-2.68-1.53.018-3.04-.018-4.569.018a33.29 33.29 0 011.061-1.69c.846.018 1.69 0 2.518 0-.576-.864-1.079-1.78-1.636-2.662-.144.126-.234.288-.342.431l-4.01 6.565H66.6l3.323-5.558c.555-.928 1.108-1.858 1.66-2.787.306-.54.737-1.133 1.402-1.205.612-.054 1.098.432 1.386.917zm30.449-.899v1.69h-6.601v6.188h6.601v1.672h-8.292v-9.55h8.292zm-78.83-.072l-.037 1.709-4.6-.013-.742-.006c-.899-.036-1.852.288-2.463.99-.828.863-.99 2.212-.63 3.327.414 1.133 1.583 1.889 2.77 1.925 1.547.018 3.111 0 4.658 0v-2.087H20.36v-1.547h6.295v5.324h-6.206c-1.222 0-2.445-.432-3.327-1.295-1.924-1.852-2.032-5.27-.107-7.104.953-.9 2.302-1.241 3.596-1.223l2.935.007c1.31-.001 2.443-.007 2.443-.007zm-12.033-.019v9.641h-1.69v-9.64h1.69zm51.798 1.746v2.014c-2.265-.018-4.532 0-6.798-.018v2.14c1.78-.018 3.543 0 5.324 0v1.6c-1.547.019-3.076 0-4.623 0-1.187-.017-2.464-.52-3.093-1.582-.486-.899-.396-2.05.108-2.914.611-.916 1.78-1.204 2.823-1.223l6.26-.017zm33.148 2.212h5.467l.008 1.12c0 .189-.002.378-.008.57h-5.45c-.017-.557-.017-1.115-.017-1.69z" fill="#696969"/></svg>
