<svg xmlns="http://www.w3.org/2000/svg" width="99" height="48"><g fill="#696969" fill-rule="evenodd"><path d="M0 21.2C2.5 9.3 23.6 0 49 0c27 0 49.2 10.6 49.2 23.6a12.1 12.1 0 01-.9 4.5l.3-2.4c0-13-22.2-23.6-49.3-23.6C24.4 2 4.3 10.3 0 21.2z"/><path d="M98.8 26.1c-2.5 11.9-23.6 21.2-49 21.2C22.8 47.3.6 36.8.6 23.7c0-1.5.3-3 .9-4.5l-.3 2.4c0 13 22.2 23.6 49.3 23.6 24 0 44-8.2 48.3-19.2v.1z"/><path fill-rule="nonzero" d="M7 30.6V30h.6c.4 0 .9 0 1.3-.4.3-.4.5-1 .6-1.6l2.6-11.8.2-.6v-.5a1 1 0 00-.2-.8 1.2 1.2 0 00-.7-.2h-.8v-.5h9l-.1.5h-.6c-.5 0-1 0-1.3.4a3.4 3.4 0 00-.6 1.6l-2.6 12-.1.6v.4a.9.9 0 00.2.7c.3.2.5.2.8.2h.7v.5H7zm23-11.2l-2.5 10.4-.8 3a6.2 6.2 0 01-.8 1.6 5 5 0 01-1.8 1.5 5.5 5.5 0 01-2.4.5 3.8 3.8 0 01-2.5-.7 2.6 2.6 0 01-.9-2c0-.6.1-1 .4-1.4a1.4 1.4 0 012.2 0c.2.3.4.8.3 1.3 0 .4 0 .8-.3 1.2a1 1 0 01-.9.4h-.5c.1.3.3.5.6.7l.9.2c1 0 2-1.8 2.9-5.5l.3-1.6.4-1.4a8.6 8.6 0 01-1.6 2.5 2.5 2.5 0 01-1.8.8 2.2 2.2 0 01-2-1.2 5.3 5.3 0 01-.7-3 9.5 9.5 0 01.5-3.1c.4-1 .9-2 1.6-2.7a5.5 5.5 0 011.6-1.2 3.7 3.7 0 011.6-.5 1.6 1.6 0 011.4.7c.4.6.6 1.3.6 2l.6-2.4H30zm-6.4 2.3L22 28.4v.5a1.2 1.2 0 000 .3.6.6 0 000 .4.4.4 0 00.4.2c.2 0 .4-.1.7-.4l.8-1.3a15 15 0 001.7-6.1 3.8 3.8 0 00-.2-1.4c-.2-.4-.4-.6-.6-.6a.7.7 0 00-.6.4l-.6 1.3zm7 8.9l2.2-9.1v-.3a1.7 1.7 0 000-.3.6.6 0 00-.1-.4.3.3 0 00-.3-.1c-.2 0-.4.3-.8 1a15.7 15.7 0 00-1 2.7l-.2-.1a12.7 12.7 0 011.6-3.7 2.4 2.4 0 012-1.1 1.6 1.6 0 011.3.7c.4.6.6 1.3.5 2v1l-.1 1.5a20.4 20.4 0 011.7-4.3 1.9 1.9 0 011.6-.9c.5 0 1 .2 1.2.6.3.5.4 1.1.4 1.7a3.2 3.2 0 01-.6 1.7 1.3 1.3 0 01-1.1.7 1.2 1.2 0 01-1-.6 3.2 3.2 0 01-.3-2.4l.3-.7c-.3 0-.9 1-1.6 3a52.3 52.3 0 00-2 7.4h-3.7zm15.8-11.4a4.4 4.4 0 013.4 1.5 5.3 5.3 0 011.4 3.7 6.5 6.5 0 01-1.7 4.5 5.4 5.4 0 01-4.2 2 4.4 4.4 0 01-3.4-1.5 5.5 5.5 0 01-1.3-3.8 6.5 6.5 0 011.7-4.5 5.4 5.4 0 014.1-1.9zm1.3 2.6l.1-.7a1.5 1.5 0 000-.3 1.2 1.2 0 00-.2-.8.9.9 0 00-.7-.3 1 1 0 00-.8.4l-.5 1.3-1.6 6.9a1.6 1.6 0 000 .1 4.1 4.1 0 00-.1.9c0 .3 0 .6.2.8.2.2.4.3.7.3a1 1 0 00.8-.4c.3-.4.4-.9.5-1.3l1.6-6.9zm5.5 7.4c.2.4.6.7 1 .8.6.3 1.2.4 1.8.4.5 0 1-.1 1.4-.4.3-.4.5-.9.4-1.3 0-.7-.5-1.4-1.6-2l-.8-.6a5.9 5.9 0 01-1.8-1.4A2.8 2.8 0 0153 23a3.5 3.5 0 011.3-2.8 4.8 4.8 0 013.2-1.1 4.5 4.5 0 012.8.8 2.5 2.5 0 011.1 2.1c0 .4 0 .8-.3 1a1.2 1.2 0 01-1 .4 1.6 1.6 0 01-1.1-.4 1.6 1.6 0 01-.4-1.2c0-.3 0-.7.3-1a1 1 0 01.8-.4h.5a2 2 0 00-1-.6 3.6 3.6 0 00-1.3-.3 1.8 1.8 0 00-1.3.5 1.6 1.6 0 00-.5 1.2c0 .7.6 1.4 1.7 2.1l.5.3a6.4 6.4 0 011.8 1.6c.3.5.5 1.1.5 1.8a3.4 3.4 0 01-1.2 2.7 5.3 5.3 0 01-6.2.2 2.7 2.7 0 01-1.1-2.3 1.8 1.8 0 01.3-1.1c.3-.3.7-.5 1-.5a1.5 1.5 0 011.7 1.6 2 2 0 01-.4 1.2 1 1 0 01-.9.4h-.6l-.1-.1zm14.9-10a4.4 4.4 0 013.4 1.5 5.3 5.3 0 011.3 3.7 6.5 6.5 0 01-1.7 4.5 5.4 5.4 0 01-4.1 2 4.3 4.3 0 01-3.4-1.5 5.5 5.5 0 01-1.3-3.8A6.4 6.4 0 0164 21a5.3 5.3 0 014-1.8zm1.3 2.6l.1-.7v-.3a1.2 1.2 0 00-.3-.8.9.9 0 00-.6-.3 1 1 0 00-.8.4c-.3.4-.4.8-.5 1.3l-1.6 6.9a1.6 1.6 0 000 .1 4.1 4.1 0 00-.2.9c0 .3 0 .6.3.8.1.2.4.3.6.3a1 1 0 00.8-.4c.3-.4.5-.8.6-1.3l1.6-6.9zm9.7-1.7c-.5 3.4-1.1 6.4-1.6 9L76 36.4h-4.7l.1-.4a.9.9 0 00.8-.5c.3-.8.6-1.5.7-2.3l3.4-13h-2l.2-.8h2a11.9 11.9 0 012-4.2 3.6 3.6 0 012.8-1.4 2.2 2.2 0 011.6.7c.4.4.7 1 .7 1.6a2 2 0 01-.4 1.2 1.1 1.1 0 01-1 .5 1.2 1.2 0 01-.9-.4 1.9 1.9 0 01-.4-1.2 2.1 2.1 0 01.4-1.3 1 1 0 01.8-.4 1.8 1.8 0 00-.3-.1 1.1 1.1 0 00-.4 0c-.4 0-.8.3-1 .9a21.8 21.8 0 00-1 4.3h2.1l-.2.6h-2z"/><path fill-rule="nonzero" d="M83.5 20.1h-1.7l.1-.7h1.7L85 14h3.5l-1.3 5.4H89l-.1.7H87l-2 8v.6a1.8 1.8 0 000 .3l.1.5.3.2c.3 0 .7-.3 1-1a17.6 17.6 0 001.2-3l.3.2a11 11 0 01-1.6 3.8 2.8 2.8 0 01-2.3 1.1 2 2 0 01-1.6-.6 2.7 2.7 0 01-.5-1.8v-1.1c0-.5.2-1 .4-1.6l1.2-5.6zM93.3.5c.8 0 1.5.2 2.2.6A4.1 4.1 0 0197 2.7c.4.7.6 1.5.6 2.2a4.6 4.6 0 01-.6 2.2 4 4 0 01-1.6 1.6 4.4 4.4 0 01-4.4 0 4 4 0 01-1.6-1.6 4.4 4.4 0 01-.6-2.2c0-.7.2-1.5.6-2.2A4 4 0 0191 1.1a4.6 4.6 0 012.2-.6zm0 .8a3.8 3.8 0 00-1.8.5A3.4 3.4 0 0090 3a3.7 3.7 0 00-.5 1.9c0 .6.2 1.3.5 1.8a3.6 3.6 0 001.4 1.4 3.8 3.8 0 001.8.5 3.8 3.8 0 001.8-.5 3.5 3.5 0 001.4-1.4c.3-.5.5-1.2.5-1.8a3.8 3.8 0 00-.5-1.8 3.5 3.5 0 00-1.4-1.4 3.8 3.8 0 00-1.8-.5zm-2 6.1V2.6H93a3.8 3.8 0 011.2.2c.5.2.8.6.8 1.1 0 .4-.1.7-.4 1-.2.2-.6.4-1 .4l.4.2.8 1 .5 1h-.9l-.4-.8c-.2-.5-.5-.8-.8-1.1a1 1 0 00-.7-.2h-.4v2h-.7zm.8-2.6h1a1.6 1.6 0 00.9-.2.6.6 0 00.2-.5.6.6 0 000-.4.7.7 0 00-.4-.2 2 2 0 00-.8-.1h-.9v1.4z"/></g></svg>
