<svg width="131" height="25" fill="none" xmlns="http://www.w3.org/2000/svg"><g clip-path="url(#clip0)" fill="#696969"><path d="M127.345 22.367c-.121.06-.254.157-.338.265-.073.085-.157.254-.157.507 0 .447.277.749.688.749a.465.465 0 00.386-.17c.133-.132.205-.301.278-.47l.193-.435c.108-.265.229-.506.422-.688.23-.229.495-.326.809-.326.821 0 1.376.616 1.376 1.413 0 .29-.06.664-.362.965a1.63 1.63 0 01-.797.41l-.132-.482c.229-.036.434-.145.567-.266a.853.853 0 00.253-.64c0-.615-.434-.893-.881-.893a.66.66 0 00-.519.218c-.121.133-.205.302-.314.53l-.193.4c-.084.168-.169.398-.374.59-.193.194-.398.314-.724.314-.688 0-1.147-.53-1.147-1.255 0-.277.048-.495.205-.712.121-.181.302-.338.495-.435l.266.41zM126.934 19.337h3.996v.495h-3.996v1.086h-.47v-2.667h.47v1.086zM129.204 16.356c.374 0 .784 0 1.086-.35.157-.181.253-.495.253-.737 0-.241-.096-.555-.253-.736-.302-.35-.712-.35-1.086-.35h-2.74v-.495h2.872c.375 0 .737.036 1.075.278.374.265.603.736.603 1.303 0 .568-.229 1.038-.603 1.304-.338.241-.7.277-1.075.277h-2.872v-.494h2.74zM128.697 8.461c.941 0 1.436.46 1.714.785.35.41.519.833.519 1.63v.905h-4.466v-.905c0-.447.048-1.087.519-1.654.338-.41.905-.76 1.714-.76zm0 .507c-1.075 0-1.775.749-1.775 1.883v.435h3.537v-.434c0-.35-.036-.845-.398-1.28-.278-.338-.725-.604-1.364-.604zM126.464 6.313h4.466v.495h-4.466v-.495zM128.709.012c1.327 0 2.305 1.026 2.305 2.33 0 1.303-.99 2.33-2.305 2.33-1.328 0-2.306-1.039-2.306-2.33 0-1.292.978-2.33 2.306-2.33zm0 .531c-1.026 0-1.847.809-1.847 1.81 0 1.003.821 1.811 1.847 1.811s1.846-.808 1.846-1.81-.82-1.81-1.846-1.81zM12.3.736v23.152H6.953V.736H12.3zM5.347.7v23.188H0V.7h5.347zM36.755.23c3.609 0 6.59 1.17 8.968 3.367 1.22 1.123 10.08 11.08 10.08 11.08V.689h5.202v23.2h-4.539l-7.52-8.607a11.752 11.752 0 01-3.259 5.734c-2.148 2.088-5.057 3.404-8.944 3.404-4.334 0-7.279-1.738-9.017-3.404-2.22-2.088-3.609-5.203-3.609-8.606 0-3.332 1.497-6.7 3.573-8.776C29.26 2.064 32.144.23 36.755.23zm-.024 4.924c-2.016 0-3.827.736-5.07 1.98-1.014.977-2.052 2.667-2.052 5.238 0 2.113.688 3.815 2.112 5.203 1.497 1.424 3.163 1.907 4.961 1.907 2.354 0 4.02-.87 5.13-1.98.906-.869 2.016-2.498 2.028-5.166 0-2.39-.977-4.164-2.015-5.202-1.135-1.11-2.982-1.98-5.094-1.98z"/><path d="M18.733 14.4a7.317 7.317 0 003.223-1.762c1.497-1.46 1.799-3.26 1.799-4.708 0-2.57-1.038-4.26-2.016-5.202C20.63 1.69 18.794.676 15.837.676H6.904V4.78h7.424c.7 0 2.076.012 2.945.676.447.35 1.074 1.135 1.074 2.45 0 1.147-.483 1.823-.869 2.197-.905.905-2.22.954-3.186.954H13.06v3.742l6.265 9.053h6.518l-7.11-9.452zM111.544 0c2.764 0 5.734.495 8.341 3.187.845.88 1.521 1.943 2.052 3.066l-4.551 2.208c-.494-1.4-1.364-2.16-1.52-2.28-.532-.46-1.751-1.268-4.068-1.268-1.787 0-3.332.458-4.732 1.822-1.75 1.714-2.366 3.827-2.643 5.492.277 1.666.893 3.79 2.643 5.493 1.4 1.364 2.945 1.822 4.732 1.822 2.317 0 3.536-.796 4.068-1.255.169-.145 1.219-1.038 1.677-2.764h-5.745v-4.37l11.636.012v.254c0 2.836-.978 7.146-3.573 9.85-2.595 2.691-5.528 3.186-8.305 3.186-2.812 0-5.818-.459-8.558-3.259a11.288 11.288 0 01-1.195-1.436l-.012.012v-.024l-.024-.037a8.16 8.16 0 01-1.098 1.34c-2.354 2.281-5.408 3.404-9.053 3.404-4.66 0-7.569-1.859-9.15-3.44a14.9 14.9 0 01-1.195-1.4c-.23.277-.47.543-.724.796-3.223 3.271-7.254 3.513-9.222 3.513H63.71V.567h7.435c3.09 0 6.35.435 9.222 3.211.35.338.676.676.978 1.05l.048.085a6.542 6.542 0 011.074-1.473C84.048 1.86 86.956 0 91.616 0c3.657 0 6.699 1.123 9.041 3.404.398.386.76.833 1.098 1.34l.024-.036v-.025l.012.012c.423-.591.833-1.062 1.195-1.436C105.726.46 108.744 0 111.544 0zM91.579 4.985c-2.027 0-3.85.736-5.117 2.004a6.758 6.758 0 00-.737.857h.012s-1.086 1.557-1.786 4.381c.7 2.825 1.786 4.382 1.786 4.382h-.012c.242.326.483.616.737.857 1.255 1.268 3.078 2.004 5.117 2.004 2.137 0 3.996-.881 5.155-2.004.41-.398.796-.905 1.122-1.509.302-.507.881-1.545 1.22-2.957.06-.254.12-.507.168-.76-.048-.254-.108-.507-.169-.76a10.48 10.48 0 00-1.219-2.982 6.91 6.91 0 00-1.122-1.51c-1.16-1.122-3.018-2.003-5.154-2.003zm-21.002.073h-1.473v14.255h1.614c1.177-.009 3.514-.143 5.194-1.557 1.4-1.171 2.04-3.344 2.257-3.96.085-.24.193-.567.302-.965l-.109-.724c-.362-2.45-1.183-4.116-2.1-5.034-1.762-1.75-4.032-2.015-5.685-2.015z"/></g><defs><clipPath id="clip0"><path fill="#fff" d="M0 0h131v25H0z"/></clipPath></defs></svg>
