<svg width="232" height="45" xmlns="http://www.w3.org/2000/svg"><g fill="none"><path d="M11.381 44.89c2.491 0 4.588-.561 6.29-1.683 1.702-1.122 2.98-2.73 3.836-4.821.856-2.092 1.284-5.277 1.284-9.556V2.36H15.86v27.012c0 3.5-.343 5.758-1.027 6.775-.685 1.017-1.75 1.526-3.195 1.526-1.483 0-2.596-.704-3.337-2.11-.552-1.028-.866-2.768-.942-5.22l-6.532.912c.02 4.564.96 7.977 2.824 10.24 1.864 2.263 4.44 3.395 7.73 3.395z" fill="#0073CD"/><path d="M37.082 44.176v-17.77h14.347v-7.074H37.082V9.434h16.6V2.36H30.18v41.816h6.903zm36.939 0V9.434h10.154V2.36h-27.24v7.074h10.183v34.742h6.903zm26.984 0l6.788-31.262 6.846 31.262H122l8.329-41.816h-6.96l-5.277 29.209-6.019-29.21h-8.243l-6.276 28.725L92.42 2.36h-7.103l8.187 41.816h7.502zM141.25 17.59c.997 0 1.835-.225 2.516-.674.68-.448 1.192-1.091 1.535-1.928.342-.837.513-2.11.513-3.822V.578h-2.772v10.805c0 1.4-.137 2.302-.411 2.71-.274.406-.7.61-1.278.61-.593 0-1.038-.282-1.335-.844-.22-.411-.346-1.107-.377-2.088l-2.612.365c.007 1.825.384 3.19 1.13 4.096.745.905 1.775 1.358 3.091 1.358zm13.11 0c1.377 0 2.485-.31 3.326-.93.84-.62 1.38-1.43 1.62-2.43.24-1 .36-2.623.36-4.867V.578h-2.773l-.001 9.627c-.01 1.455-.085 2.416-.221 2.883a2.143 2.143 0 01-.828 1.187c-.403.285-.924.428-1.563.428-.753 0-1.36-.202-1.82-.605-.46-.403-.75-.974-.873-1.711-.068-.426-.102-1.343-.102-2.75V.577h-2.761V9.5c0 2.503.18 4.22.542 5.151.36.932.943 1.655 1.745 2.168.803.514 1.919.77 3.349.77zm13.133.01c1.901 0 3.299-.494 4.193-1.482.893-.99 1.34-2.21 1.34-3.663 0-1.004-.163-1.858-.49-2.561a4.33 4.33 0 00-1.42-1.723c-.62-.445-1.627-.87-3.019-1.272-1.316-.373-2.156-.715-2.521-1.027-.365-.312-.548-.696-.548-1.153 0-.464.202-.852.605-1.163.403-.312.977-.468 1.723-.468.745 0 1.32.178 1.723.536.403.357.665.985.787 1.883l2.772-.149c-.053-1.628-.532-2.879-1.437-3.754-.905-.874-2.164-1.312-3.777-1.312-1.072 0-1.974.187-2.704.56a4.067 4.067 0 00-1.717 1.654c-.415.73-.622 1.552-.622 2.464 0 .784.162 1.516.485 2.197.323.68.759 1.23 1.306 1.648.548.419 1.411.807 2.59 1.164 1.316.403 2.145.69 2.488.862.342.17.597.39.764.656.168.266.251.59.251.97 0 .646-.24 1.188-.719 1.625-.479.438-1.137.656-1.973.656-1.69 0-2.686-1.068-2.99-3.206l-2.704.32c.38 3.826 2.252 5.739 5.614 5.739zm13.714-.296V3.407h4.062V.577h-10.896v2.83h4.073v13.897h2.761zm13.966 0v-7.108h5.739v-2.83h-5.74V3.407h6.641V.577h-9.401v16.727h2.76zm15.038.286c1.97 0 3.53-.696 4.678-2.088 1.308-1.575 1.962-3.762 1.962-6.561 0-2.769-.618-4.902-1.854-6.4-1.236-1.5-2.835-2.249-4.798-2.249-1.354 0-2.506.316-3.457.947-.95.632-1.72 1.592-2.31 2.881-.59 1.29-.885 2.93-.885 4.924 0 2.746.655 4.906 1.963 6.48 1.148 1.377 2.715 2.066 4.7 2.066zm0-2.887c-1.08 0-1.986-.481-2.716-1.443-.73-.963-1.095-2.406-1.095-4.33 0-1.963.354-3.412 1.061-4.348.707-.935 1.624-1.403 2.75-1.403 1.125 0 2.036.464 2.732 1.392.696.928 1.044 2.362 1.044 4.301 0 1.978-.357 3.444-1.072 4.399-.715.955-1.617 1.432-2.704 1.432zm11.57 2.601v-6.982h.57c.639 0 1.103.062 1.392.188.289.125.563.353.821.684.259.331.75 1.155 1.472 2.47l2.008 3.64h3.298l-1.666-3.263c-.67-1.308-1.198-2.215-1.586-2.721a6.919 6.919 0 00-1.472-1.398c1.156-.205 2.048-.707 2.675-1.506.628-.799.942-1.852.942-3.16 0-1.035-.206-1.923-.616-2.665-.411-.741-.936-1.262-1.575-1.563-.639-.3-1.704-.45-3.195-.45h-5.83v16.726h2.761zm2.053-9.652h-2.054V3.407l2.468.001c1.061.006 1.71.048 1.948.125.365.121.654.344.867.667.213.323.32.751.32 1.284 0 .555-.107 1-.32 1.335-.213.334-.49.557-.833.667-.342.11-1.141.166-2.396.166zm-79.891 36.476V30.23h4.062V27.4h-10.896v2.83h4.073v13.897h2.761zm8.626 0v-7.314h5.43v7.314h2.773V27.4H158v6.584h-5.431V27.4h-2.761v16.727h2.76zm21.496 0V41.31h-7.668v-4.553h6.892V33.94h-6.892v-3.71h7.417V27.4h-10.178v16.727h10.429zm12.607 0l2.716-12.505 2.738 12.505h2.944l3.332-16.727h-2.784l-2.111 11.684-2.408-11.684h-3.297l-2.51 11.49-2.054-11.49h-2.84l3.274 16.727h3zm15.826 0V27.4h-2.761v16.727h2.76zm5.26 0V33.22l5.522 10.908h2.784V27.4h-2.579v11.17l-5.613-11.17h-2.693v16.727h2.579z" fill="#FF1C19"/></g></svg>
