<svg width="105" height="48" xmlns="http://www.w3.org/2000/svg"><defs><linearGradient x1="50%" y1="8.142%" x2="50%" y2="99.477%" id="a"><stop stop-color="#FE9600" offset="0%"/><stop stop-color="#FFDF04" offset="27.236%"/><stop stop-color="#FFDF04" offset="37.825%"/><stop stop-color="#E24C00" offset="57.163%"/><stop stop-color="#FFDF04" offset="65.968%"/><stop stop-color="#FFDF04" offset="80.759%"/><stop stop-color="#FFDF04" offset="100%"/></linearGradient></defs><g fill="none" fill-rule="evenodd"><rect fill="url(#a)" x=".082" y=".157" width="104.762" height="47.619" rx=".866"/><path d="M75.756 18.71c.541-.084.985-.2 1.431-.213.659-.019.82-.105.827-.757.006-.537-.082-1.075-.097-1.614-.018-.613-.002-1.227-.001-1.84 0-.327-.132-.5-.49-.483-.432.019-.868-.02-1.297.02-.133.012-.355.202-.357.314-.024 1.493-.016 2.987-.016 4.574zm11.043-.008c.521-.08.975-.188 1.433-.21.732-.037.845-.104.832-.837-.016-.933-.084-1.864-.098-2.797-.017-1.227.053-1.043-1.035-1.05-1.133-.006-1.133 0-1.132 1.145v3.749zm10.824-13.23l-.074.017c.08.328.056.84.256.953.92.514 1.06 1.37 1.1 2.253.027.56.379.702.777.787.572.122 1.368-.208 1.37-.582.003-.797.087-1.664-.19-2.375-.431-1.108-1.054-2.198-2.56-2.131-.448.02-.744.119-.681.646.017.142.002.288.002.432zM47.461 16.407v-.006c-.776 0-1.551.01-2.326-.005-.33-.007-.457.117-.444.443.016.414 0 .83.005 1.244.007.524.192.662.71.577.316-.051.638-.1.955-.094.775.017 1.55.092 2.324.1 1.567.017 1.535.002 1.672-1.6.048-.561-.199-.654-.625-.657-.757-.006-1.514-.002-2.271-.002zm27.552-9.886c.032-.541.073-1.043.085-1.546.007-.27-.076-.485-.426-.49-1.838-.024-3.676-.074-5.514-.073-.188 0-.516.258-.538.428-.07.544-.026 1.102-.026 1.68h6.42zm13.931-1.855c-.21.082-.375.11-.492.2-.368.281-.727.224-1.096.023-.497-.271-.555-.238-.557.347-.002 1.318 0 2.637 0 3.955v3.295c0 1.205 0 1.205 1.223 1.205.921 0 .935-.008.938-.928.01-2.503.017-5.005.022-7.508 0-.172-.021-.344-.038-.59zm-13.1-.022c0 1.311.011 2.49-.003 3.67-.017 1.38-.067 2.761-.083 4.142-.015 1.235-.003 1.236 1.24 1.235.862 0 .887-.024.919-.898.002-.072.002-.144.002-.216.002-2.448.004-4.896.003-7.345 0-.167-.025-.335-.048-.638-.708.587-1.366.544-2.03.05zm21.885 6.812c0 .445.02.874-.007 1.3-.023.365.082.532.474.506.524-.035.756.245.727.76-.03.538-.074 1.076-.077 1.615-.002.547-.25.86-.766 1.026-.143.047-.33.253-.332.387-.004.491.057.983.115 1.472.004.033.197.062.301.06.504-.003 1.009-.005 1.512-.032.303-.017.606-.067.905-.124.478-.09.545-.434.528-1.224-.031-1.436.053-2.874.047-4.31-.003-.563.286-1.254-.483-1.566-.944.505-1.936-.025-2.944.13zm-37.302-.105c-.366.07-.648.167-.93.168-.467.003-.934-.057-1.4-.089-.732-.05-.732-.05-.734.656 0 .216.018.435-.008.649-.05.409.124.555.52.525.505-.039.721.224.702.717-.017.433-.044.866-.026 1.297.03.693-.124 1.236-.894 1.44-.127.035-.286.277-.282.419.015.469.094.936.166 1.4.005.03.166.048.253.047.559-.008 1.118-.014 1.676-.04.25-.012.498-.067.746-.108.5-.082.614-.385.602-1.192-.023-1.53-.004-3.06.008-4.589.004-.505.188-1.057-.399-1.3zM46.96 16.286c0-1.181.01-2.294-.01-3.407-.002-.18-.139-.355-.198-.536-.057-.176-.16-.37-.128-.535.283-1.511.26-3.031.178-4.556-.033-.627-.228-1.263.129-1.88.133-.23-.34-.787-.601-.761-.338.034-.68.11-1.014.088-.445-.03-.535.138-.531.557.019 1.93-.003 3.86 0 5.791 0 .641.05 1.283.036 1.924-.022 1.026-.084 2.052-.11 3.079-.003.077.141.224.22.226.661.018 1.322.01 2.03.01zm25.873-3.567c0-1.46.007-2.921-.005-4.382-.004-.494.125-1.181-.139-1.43-.276-.26-.95-.084-1.448-.13-.507-.046-.69.12-.686.662.023 3.48.012 6.96.012 10.44 0 .144-.045.326.024.423.11.153.289.334.455.353.432.049.874-.007 1.309.023.389.027.488-.126.485-.496-.016-1.821-.007-3.642-.007-5.463zm21.729-1.356c0 1.298-.052 2.598.02 3.89.04.7.19 1.433.48 2.064.212.462.678.885 1.135 1.131.321.173.856.117 1.225-.022.315-.119.222-1.486-.092-1.75-.461-.388-.665-.897-.679-1.463-.053-2.231-.116-4.463-.085-6.694.008-.59.233-1.25.564-1.74.236-.347.416-.622.387-1.035a4.178 4.178 0 01.002-.756c.046-.412-.122-.528-.521-.512-1.187.05-2.414 1.39-2.432 2.726-.018 1.387-.004 2.774-.004 4.161zM83.864 4.806v12.559c0 1.386 0 1.386 1.387 1.38.636-.003.767-.096.78-.74.013-.663-.063-1.326-.065-1.99-.005-2.058.01-4.117.01-6.176 0-1.615-.021-3.23-.01-4.845.003-.475-.25-.557-.62-.494-.465.08-.925.19-1.482.306zM63.426 18.457c.215-.675.306-13.17.109-13.856-.51 0-1.03.02-1.55-.006-.385-.02-.489.13-.495.5-.074 4.235.175 8.473-.119 12.706-.018.26.05.526.078.79.202-.045.402-.12.606-.128.449-.02.899-.006 1.371-.006zm-12.123-6.822v6.383c0 .68.001.677.651.577.122-.02.253-.026.374-.004.816.148 1.234-.174 1.23-1.007-.004-.591-.101-1.182-.096-1.772.017-1.85.09-3.7.09-5.549 0-1.751-.061-3.503-.097-5.254-.01-.472-.248-.63-.696-.498-.283.083-.582.186-.867.17-.495-.03-.604.163-.599.625.023 2.11.01 4.22.01 6.33zm14.37 6.87c.525.058 1.012.141 1.5.159.706.026.802-.087.802-.81.003-2.576.001-5.153.001-7.73 0-1.729.002-3.458-.002-5.187 0-.24.076-.532-.357-.485a7.874 7.874 0 01-1.087.023c-.577-.018-.736.118-.737.68v4.939l-1.876.153c0 .592.02 1.148-.007 1.702-.019.372.133.468.473.45.422-.024.846-.006 1.29-.006v6.111zM57.208 6.35c.8.258 1.164.861 1.3 1.633.038.21.049.43.045.645-.008.373.174.598.497.758.429.212.998.068 1.409-.188.417-.26.19-.613.27-.912.255-.963.037-1.85-.529-2.652-.525-.745-1.151-1.397-2.16-1.21-.574.107-1.141-.017-1.697.087-1.04.195-2.123 1.544-2.126 2.636-.007 2.794-.02 5.589.008 8.383.01.894.313 1.735.89 2.43.206.25.532.497.835.544.392.061.853.002 1.212-.163.242-.11.096-1.466-.15-1.668-.537-.438-.71-1.043-.732-1.672-.065-1.98-.133-3.964-.097-5.944.018-.997.05-2.071 1.025-2.707zm23.525-1.741v7.568a.792.792 0 01-.218-.383c-.612-2.053-1.219-4.108-1.843-6.158-.058-.193-.222-.354-.336-.53l-.15.083c-.016.12-.045.239-.046.358a897.63 897.63 0 00.005 4.923c0 .23-.006.475.066.687a539.485 539.485 0 002.188 6.331c.327.925.35.917 1.336.916.816 0 .946-.102.954-.913.016-1.648.005-3.297.005-4.946 0-1.64-.008-3.282.007-4.922.003-.277.223-.593.142-.82-.251-.714-.18-1.394.075-2.194h-2.185zM89.4 5.1l-.152.068c-.022.116-.061.232-.062.348a758.774 758.774 0 000 4.76c.002.281-.018.58.07.839a483.96 483.96 0 002.191 6.33c.342.966.362.959 1.358.958.786 0 .97-.16.973-.962.006-1.596-.021-3.192-.021-4.788 0-1.673.008-3.346.03-5.02.003-.278.14-.556.133-.832-.02-.697-.087-1.392-.143-2.202-.312 0-.756.003-1.2 0-.89-.008-.792-.069-.793.83-.003 2.248-.001 4.496-.001 6.744a1.18 1.18 0 01-.231-.47c-.605-2.017-1.203-4.037-1.819-6.051-.06-.2-.22-.369-.333-.552zM.877 43.615l8.577-12.388c-.928 0-1.74.035-2.546-.017-.303-.02-.736-.166-.849-.387-.11-.218.026-.664.198-.908 2.131-3.018 4.289-6.018 6.439-9.024.106-.148.206-.302.26-.383h-2.87c-2.58 0-5.158.002-7.737-.001-.546 0-1.168.151-1.315-.741l-.157.122v23.727zm22.295-26.128L44.05.82l-.051-.113h-.359c-7.27 0-14.538.004-21.807-.012-.408 0-.565.207-.741.49-3.573 5.74-7.149 11.479-10.722 17.218-.05.079-.072.174-.135.33h4.833l-8.514 11.85h4.135l-9.27 13.368.074.065 21.958-15.333-.037-.11H16.18l13.347-11.086h-6.354zm8.008 2.81c.259.634-.229.953-.674 1.307-2.046 1.628-4.088 3.26-6.13 4.894-.555.445-1.103.898-1.737 1.414.198.013.284.033.365.022.642-.09 1.044.181 1.338.757.277.543.635 1.049.991 1.547.44.614.402.942-.228 1.378-6.713 4.651-13.427 9.3-20.136 13.957-.35.243-.671.284-1.06.128-1.03-.416-2.067-.812-3.087-1.21v2.269H103.71V19.826c-.515.682-.515.682-1.374.682-6.816 0-13.631.003-20.447-.005-.538 0-1.075-.092-1.614-.117-.965-.046-1.933-.121-2.897-.091-.745.023-1.513.364-2.22.25-1.09-.176-2.16-.207-3.25-.17-.279.01-.565-.137-.84-.116-.588.044-1.171.213-1.758.223-1.98.034-3.962.025-5.944.026-5.303.002-10.607 0-15.91 0-4.997 0-9.994.005-14.992-.008-.395-.001-.79-.122-1.284-.204zm21.132 26.988H1.28c-1.008 0-1.008 0-1.008-.986.003-12.393.005-24.786.01-37.179 0-2.724.014-5.447.022-8.17C.306.236.38.162 1.123.162L43.876.16h59.368l.487.001c.42.001.612.188.61.63-.012 1.804 0 3.608 0 5.412.009 13.421.016 26.842.022 40.264 0 .767-.056.817-.91.817h-51.14z" fill="#00054C"/><path d="M81.202 21.368c.154.18.27.432.308.667a9.67 9.67 0 01.136 1.504c.012 2.958.006 5.915.006 8.872h-.011c0 3.048.005 6.095-.007 9.143-.001.392-.057.79-.143 1.173-.14.622-.764 1.042-1.523 1.05-2.2.02-4.4.044-6.6.043-2.606-.001-5.213-.033-7.819-.037-.534-.001-1.009-.136-1.377-.512-.163-.166-.314-.426-.322-.648-.04-1.252-.04-2.505-.045-3.758-.018-5.211-.034-10.422-.046-15.633 0-.36.048-.719.055-1.079.02-.916.318-1.438 1.464-1.5 1.633-.09 3.277.013 4.916.023.23.002.462-.078.693-.08 1.034-.011 2.07-.052 3.102.004.804.043 1.59.126 2.407.03.96-.114 1.948.015 2.916-.063.805-.065 1.4.228 1.89.8zm-10.506 3.924c-.5-.01-.597.194-.592.638.022 2.199.02 4.398.023 6.597.003 1.98 0 3.961 0 6.08 1.482 0 2.86-.023 4.237.012.541.014.66-.182.654-.685-.038-3.64-.05-7.28-.07-10.921-.003-.532-.001-1.064-.001-1.71-1.502 0-2.877.019-4.251-.01zm-20.718-4.126c.119.044.28-.05.424-.055l.445-.018c2.624-.111 5.265-.322 7.712.986 1.877 1.002 3.189 2.456 3.215 4.703.02 1.74-.605 3.28-1.822 4.552-.112.117-.235.222-.39.368 4.382 2.598 2.91 8.976-.176 10.867-1.237.759-2.608 1.011-3.997 1.234-1.845.297-3.68.268-5.543.034-1.329-.167-2.697-.013-4.048-.009l-.27-.001c-1.29-.015-1.417-.21-1.421-1.617v-.07l-.011-19.096c0-.36-.038-.722-.01-1.08.046-.61.292-.882.898-.959.39-.05.787-.07 1.18-.055l.168.008c1.214.074 2.45-.228 3.646.208zm.668 13.054c-.13-.002-.374.244-.377.378-.015.767-.019 1.535-.02 2.33l.003 2.166c1.004-.09 1.934-.135 2.85-.276.411-.064.815-.284 1.184-.499.733-.425.982-1.108.922-1.93-.057-.77-.432-1.31-1.123-1.653-.866-.43-1.788-.494-2.714-.509zm-.388-8.644c0 1.418-.005 2.712.01 4.006.002.096.156.274.234.272 1.153-.034 2.32-.028 3.346-.679.811-.514 1.044-1.122.836-2.144-.12-.591-.778-1.202-1.522-1.282-.927-.1-1.864-.115-2.904-.173zm42.035.33c.791-1.27 1.554-2.445 2.262-3.651.437-.746 1.035-1.094 1.892-1.116 1.496-.037 2.99-.12 4.486-.181 1.124-.046 1.614.53 1.24 1.585-.218.618-.622 1.17-.944 1.751-.25.45-.502.9-.757 1.347a1.003 1.003 0 01-.187.26c-1.218 1.078-1.937 2.493-2.673 3.902-.398.763-.858 1.493-1.347 2.335-.017-.087-.02-.026.005.014 1.66 2.616 3.316 5.234 4.992 7.84.29.452.691.833.997 1.277.632.92.387 1.78-.66 2.158-.62.224-1.286.355-1.943.44-.785.102-1.584.095-2.374.165-.56.05-.955-.141-1.29-.601-1.135-1.56-2.299-3.099-3.453-4.644-.085-.115-.177-.224-.308-.39-.628 1.011-1.22 1.997-1.845 2.959a22.03 22.03 0 01-1.294 1.794c-.342.425-.816.565-1.365.405-.144-.042-.338-.059-.463.004-.794.397-1.616.275-2.441.182a15.63 15.63 0 00-1.183-.098c-1.145-.043-1.476-.654-.9-1.636 1.825-3.108 3.63-6.228 5.465-9.33.248-.419.232-.748-.008-1.137a799.965 799.965 0 01-3.543-5.807c-.568-.942-1.143-1.882-1.645-2.859-.522-1.013-.078-1.73 1.05-1.833.521-.048 1.037-.158 1.557-.183.568-.027 1.14.014 1.71.022.158.002.326.023.475-.019.927-.263 1.676.08 2.174.81.545.797.95 1.69 1.413 2.544.297.548.589 1.099.905 1.691" fill="#00054C"/></g></svg>
