<svg width="101" height="25" fill="none" xmlns="http://www.w3.org/2000/svg"><path d="M12.381 0C5.576 0 0 5.417 0 12.23c0 1.231.164 2.38.574 3.53.246-.329.492-.657.656-.986.902-1.23 1.722-2.544 2.542-3.775l.574-.985c.164-.329.41-.657.574-.985.41-.657.82-1.313 1.148-1.97.164-.328.328-.657.574-.985.246-.328.328-.657.574-.985.246-.328.328-.657.492-.985l.492-.903.082-.082c.246-.575.902-.739 1.476-.492.41.246.656.656.656 1.149 0 .574-.082 1.23-.165 1.805-.082.575-.082 1.232-.082 1.806-.082 1.231-.082 2.38-.082 3.53 0 1.149.082 2.38.164 3.447l.246 1.724c.083.492.247.985.492 1.477.082.164.164.246.246.41.082.083 0 0 .082 0h.246l.082-.082.492-.492c.328-.41.738-.82.984-1.313.328-.493.574-.985.902-1.478.574-1.067 1.148-2.134 1.64-3.2.246-.575.492-1.068.738-1.642.246-.575.492-1.15.738-1.642.246-.575.902-.82 1.476-.575.328.165.574.493.656.821 0 .164 0 .328.082.493l.082.492c.082.328.082.657.164.985.082.657.246 1.395.41 2.052.164.657.41 1.313.656 1.97a5.826 5.826 0 001.066 1.806c.082.164.082.328-.082.41a.25.25 0 01-.328 0 9.223 9.223 0 01-1.476-1.641c-.41-.575-.82-1.232-1.148-1.888-.246-.493-.41-.903-.574-1.396-.164.247-.246.575-.41.821-.574 1.15-1.066 2.216-1.722 3.283-.328.575-.656 1.15-.984 1.642a7.803 7.803 0 01-1.23 1.642c-.246.328-.574.574-.82.82-.082.082-.164.165-.328.165l-.164.082-.082.082h-.246c-.082 0-.082.082-.164.082-.164 0-.246.082-.41.082-.328 0-.574 0-.902-.082-.328-.082-.492-.247-.738-.41-.327-.329-.655-.657-.82-1.068-.327-.656-.573-1.313-.655-2.052-.164-.656-.246-1.313-.328-1.887-.164-1.232-.164-2.545-.164-3.694V9.357c-.246.41-.492.82-.656 1.231-.164.329-.328.657-.574.985l-.574.985c-.738 1.396-1.558 2.709-2.378 3.94a44.325 44.325 0 01-1.64 2.545c3.772 5.581 11.397 7.223 17.137 3.447 5.74-3.612 7.298-11.245 3.526-16.826C20.417 2.134 16.563 0 12.38 0zM35.422 16.58V8.454h-.164l-2.624 8.126h-.656l-2.623-8.126h-.247v8.126h-1.065V7.716h1.968l2.295 7.14 2.296-7.14h1.968v9.028l-1.148-.164zM38.128 8.865v-1.15h1.148v1.15h-1.148zm0 7.715V9.685h1.148v6.895h-1.148zM46.328 14.364c0 1.395-.492 2.38-2.788 2.38-2.87 0-3.034-1.641-3.034-3.53 0-1.887.164-3.529 3.034-3.529 2.296 0 2.788 1.067 2.788 2.38h-1.066c0-1.148-.41-1.64-1.722-1.64-1.804 0-1.886.984-1.886 2.872s.082 2.873 1.886 2.873c1.312 0 1.722-.575 1.722-1.642h1.066v-.164zM48.542 10.424c.573-.328 1.23-.82 1.886-.82h.983l-.082.82h-.901c-.575 0-1.23.493-1.722.739v5.417h-1.148V9.685h.902l.082.74zM57.807 13.133c0 1.97-.164 3.53-3.034 3.53-2.87 0-3.034-1.642-3.034-3.53s.164-3.53 3.034-3.53c2.87 0 3.034 1.56 3.034 3.53zm-5.002 0c0 1.888.082 2.873 1.886 2.873 1.804 0 1.886-.903 1.886-2.873 0-1.97-.082-2.873-1.886-2.873-1.722.082-1.886.985-1.886 2.873zM59.939 18.222c.41.082.984.082 1.64.082 1.804 0 1.968-.493 2.05-2.298-.492.328-1.23.656-1.968.656-2.542.082-2.706-1.313-2.706-3.447 0-2.134.164-3.53 2.624-3.53.82 0 1.64.41 2.214.74l.082-.658h.902v6.157c0 2.544-.574 3.2-2.87 3.2-.656 0-1.394-.081-2.05-.163l.082-.74zm3.608-7.305c-.492-.329-1.148-.657-1.722-.657-1.722 0-1.804.985-1.804 2.873 0 1.888.082 2.708 1.804 2.708.574 0 1.23-.328 1.722-.574v-4.35zM71.008 16.58l-.082-.656c-.573.328-1.311.738-2.132.738-2.541.082-2.705-1.395-2.705-3.53 0-2.133.164-3.529 2.706-3.529.82 0 1.558.41 2.131.74l.082-.576h.902v6.895h-.902v-.082zm-.245-5.663c-.493-.247-1.148-.575-1.723-.575-1.721 0-1.803.985-1.803 2.873 0 1.888.082 2.873 1.803 2.873.575 0 1.23-.329 1.722-.657v-4.514zM74.288 10.26c.492-.328 1.23-.739 1.968-.739 1.148-.082 1.804.247 2.05.739.574-.328 1.23-.739 2.05-.739 2.378-.082 2.542 1.15 2.542 2.873v4.186H81.75v-4.104c0-1.477-.082-2.134-1.64-2.134-.574 0-1.148.328-1.64.657.082.492.164.985.164 1.56v4.103h-.984v-4.104c0-1.477-.082-2.134-1.64-2.134-.574 0-1.148.329-1.558.575v5.663h-1.148V9.768h.902l.082.492zM84.456 8.865v-1.15h1.148v1.15h-1.148zm0 7.715V9.685h1.148v6.895h-1.148zM88.064 10.26c.574-.328 1.312-.739 2.132-.739 2.541-.082 2.705 1.15 2.705 2.873v4.186h-1.148v-4.104c0-1.477-.082-2.134-1.803-2.134-.575 0-1.23.328-1.722.575v5.663H87.08V9.685h.902l.082.575zM95.197 18.222c.41.082.984.082 1.64.082 1.804 0 1.968-.493 2.05-2.298-.492.328-1.23.656-1.968.656-2.542.082-2.706-1.313-2.706-3.447 0-2.134.164-3.53 2.624-3.53.82 0 1.64.41 2.214.74l.082-.658h.902v6.157c0 2.544-.574 3.2-2.87 3.2-.656 0-1.394-.081-2.05-.163l.082-.74zm3.608-7.305c-.492-.329-1.148-.657-1.722-.657-1.722 0-1.804.985-1.804 2.873 0 1.888.082 2.708 1.804 2.708.574 0 1.23-.328 1.722-.574v-4.35z" fill="#696969"/></svg>
