<svg width="67" height="25" fill="none" xmlns="http://www.w3.org/2000/svg"><path d="M57.118 5.213h9.572v2.773h-3.339v11.758h-2.894V7.986h-3.339V5.213zM44.764 5.213h2.56l5.677 8.874V5.213h2.893v14.53h-2.56l-5.676-8.873v8.874h-2.894V5.214zM35.638 5.213h7.568v2.773H36.53v3.106h5.676v2.773h-5.676v3.106h6.677v2.773h-7.568v4.88h-.556V0h.556v5.213zM12.623 5.202h9.523v2.78h-6.533v3.113h5.647v2.78h-5.647v3.114h6.533v2.78h-9.523V5.202zM0 5.202h2.658l5.536 8.896V5.202h2.879V19.77H8.526L2.88 10.873v8.896H0V5.202zM23.475 5.202h9.523v2.78h-3.322V19.77h-2.88V7.982h-3.321v-2.78z" fill="#696969"/></svg>
