<svg width="92" height="25" fill="none" xmlns="http://www.w3.org/2000/svg"><path fill-rule="evenodd" clip-rule="evenodd" d="M16.194 21.68v-.013c-.003-1.352 1.07-2.46 2.54-2.463.874-.001 1.401.229 1.908.65l-.671.795c-.375-.305-.708-.481-1.27-.48-.776 0-1.392.674-1.391 1.482v.014c.001.87.613 1.507 1.473 1.506.387-.001.734-.097 1.004-.287v-.68l-1.075.002-.002-.903 2.108-.003.003 2.064a3.186 3.186 0 01-2.071.757c-1.512.003-2.554-1.035-2.556-2.44zM30.596 22.032l-.647-1.54-.642 1.542 1.29-.002zm-1.127-2.797l.984-.001 2.088 4.785-1.116.001-.446-1.065-2.052.003-.442 1.067-1.088.002 2.072-4.792zM39.246 19.255l1.151-.002 1.28 2.008 1.272-2.012 1.15-.002.008 4.755-1.06.001-.005-3.104-1.363 2.033h-.028l-1.355-2.008.005 3.083-1.047.002-.008-4.755zM51.277 19.236l1.068-.001.008 4.754-1.069.001-.007-4.754zM59.522 19.224l.985-.002 2.278 2.924-.004-2.927 1.054-.002.007 4.755-.908.001-2.355-3.019.005 3.022-1.054.002-.008-4.754zM70.752 21.597v-.013c-.002-1.352 1.07-2.46 2.541-2.463.874-.001 1.4.229 1.907.65l-.67.795c-.375-.305-.709-.481-1.27-.48-.777 0-1.393.674-1.391 1.483v.013c0 .87.612 1.507 1.472 1.506.388-.001.735-.097 1.005-.287l-.002-.68-1.074.002-.001-.903 2.107-.003.003 2.065a3.19 3.19 0 01-2.071.757c-1.512.002-2.553-1.036-2.556-2.442zM.021 14.002L0 .546 3.57.54l6.61 8.218L10.165.53 13.72.525l.021 13.457-3.553.005L3.58 5.77l.013 8.227-3.57.005zM24.054 3.472l-4.245.006.003 2.249 4.009-.006.004 2.963-4.008.006.004 2.32 4.245-.006.004 2.962-7.816.012L16.233.521 24.049.51l.005 2.963zM47.433 3.437l.017 10.495-3.571.005-.017-10.494-2.933.004-.005-2.962L50.362.47l.005 2.963-2.934.004zM58.552 6.383l7.087-.01c0 .713-.029 1.362-.088 1.945a6.793 6.793 0 01-.362 1.625 6.435 6.435 0 01-1.036 1.866 6.033 6.033 0 01-1.537 1.359 7.316 7.316 0 01-1.939.833 8.482 8.482 0 01-2.222.289c-1.07.001-2.044-.17-2.926-.514a6.604 6.604 0 01-2.27-1.45 6.576 6.576 0 01-1.48-2.247c-.353-.874-.53-1.84-.532-2.9-.002-1.047.17-2.008.515-2.883a6.317 6.317 0 011.472-2.242A6.728 6.728 0 0155.536.605c.898-.346 1.9-.52 3.006-.522 1.433-.002 2.69.3 3.773.904 1.081.606 1.939 1.544 2.573 2.817L61.5 5.183c-.317-.737-.728-1.266-1.232-1.587a3.135 3.135 0 00-1.723-.479c-.535 0-1.02.1-1.457.297a3.15 3.15 0 00-1.119.84c-.309.364-.551.801-.726 1.313a5.243 5.243 0 00-.262 1.714c0 .571.078 1.1.23 1.588.153.488.38.91.685 1.266.305.357.681.633 1.131.828.45.196.972.293 1.568.292.352 0 .692-.04 1.02-.117a2.72 2.72 0 00.883-.376c.26-.173.476-.396.645-.67.17-.274.285-.608.345-1l-2.933.004-.004-2.713zM75.344 3.395l-4.244.007.003 2.248 4.008-.006.005 2.963-4.008.006.003 2.32 4.246-.006.004 2.963-7.816.011L67.524.444 75.34.432l.004 2.963zM77.93 13.885L77.908.43 81.48.423l6.608 8.218-.013-8.228 3.552-.005.022 13.457-3.553.005-6.608-8.218.013 8.228-3.571.005zM35.604 7.494l4.617 6.449-4.38.006-2.275-3.619 2.038-2.836zm-5.38-1.716L26.57.43l4.433-.007 1.324 2.47M29.837 13.958l-4.343.007L35.184.418l4.433-.007-9.78 13.547z" fill="#696969"/></svg>
