<svg width="89" height="25" fill="none" xmlns="http://www.w3.org/2000/svg"><path d="M36.3 19.3h-1V24h1v-4.8zM51.2 24h-1v-4h-1.3v-.7h3.6v.8h-1.3v4zM21.2 20a1 1 0 00-1 .5c-.1.3-.3.7-.3 1.2 0 1.1.4 1.6 1.3 1.6.3 0 .7 0 1.2-.2v.8a3 3 0 01-1.3.3c-.7 0-1.3-.2-1.6-.7-.4-.4-.6-1-.6-1.8 0-.5.1-1 .3-1.3.1-.4.4-.7.7-.8a3 3 0 012.7 0l-.3.8-.6-.2c-.2-.2-.3-.2-.5-.2zM66.6 21.2l1-2h1.1l-1.6 3V24h-1v-1.8l-1.6-3h1.1l1 2zM69 6.4h-1.2c-.2 0-.2 0-.2-.2 0-.4-.2-.9-.4-1.3-.4-1-1.2-1.5-2.2-1.6l-1.8.1c-.8.3-1.3.8-1.7 1.6a3 3 0 00-.3 1.2v.2h-2.5l-.1-.1-.1-.5c-.1-.5-.3-1-.6-1.4a2.8 2.8 0 00-2.2-1.2l-1.2.1c-1 .2-1.7.8-2 1.8l-.3 1c0 .3 0 .3-.2.3h-2.4l-.1-.2v-.5c.2-1 .5-2 1.1-2.8.9-1.3 2-2 3.5-2.3l1.4-.1c1.1 0 2.2.4 3.1 1A12.3 12.3 0 0160 3h.1l.2-.3c.4-.4.7-.8 1.2-1.1.9-.7 2-1.1 3-1.1a5.5 5.5 0 014.8 2.4c.6.8 1 1.7 1.1 2.7l.1.6c0 .2 0 .2-.2.2H69zM15.3 7.2h1.2l.2.1V8c0 .5 0 1 .2 1.4.4.7.9 1.4 1.7 1.8.5.3 1 .4 1.5.5a6 6 0 001.9 0 3.7 3.7 0 002.8-2.8L25 8v-.7l.1-.1h2.5v.1c.1.8 0 1.6-.1 2.5-.3.8-.7 1.7-1.2 2.4-.7 1-1.7 1.6-2.9 2a9.1 9.1 0 01-4.7.1 6 6 0 01-4.2-3.6c-.3-.7-.5-1.3-.5-2V7.3v-.1h.6c.4-.2.6-.1.8-.1zM25 6.4l-.1-.2c-.3-1.3-1-2.2-2.2-2.6l-1.5-.3c-.7 0-1.4 0-2 .2-.9.2-1.6.7-2 1.5a4 4 0 00-.6 1.3c0 .1 0 .2-.2.2H14c-.1 0-.2-.1-.1-.2v-.6c.3-1 .7-1.9 1.2-2.6A6 6 0 0118.3.8l2-.3c.9 0 1.8 0 2.6.3 1.1.3 2.2.8 3 1.7.6.8 1 1.6 1.4 2.6a6.6 6.6 0 01.3 1.2l-.2.1h-2.3-.1zM3 .6h2.2A6.9 6.9 0 019.1 2c1 .8 1.7 1.8 2 3.1v1.1c0 .2 0 .2-.2.2H8.5v-.1l-.1-.7A2.7 2.7 0 006 3.3l-.8-.1H3v2.9c0 .3 0 .3-.3.3H0L0 6.3V.9C0 .6 0 .6.3.6H3zM35 14.5h-4.1l-.1-.1v-7c0-.3 0-.3.3-.3h2.3v4.3c0 .4 0 .4.4.4H39c.4 0 .4 0 .4.3v2.3l-.1.1h-4.3zM84.1.5h4.5l.1.1v2.6h-2.9c-.2 0-.2 0-.2.3v2.8l-.2.1H83l-.1-.1V3.4l-.2-.1H80c-.5 0-.4 0-.4-.5V.6h4.4zM73.7 10.8V7.4c0-.3 0-.3.2-.3h2.3l.1.1v7c0 .3 0 .3-.2.3h-2.3c-.1 0-.2 0-.2-.2v-3.5zM67.6 10.8V7.4c0-.3 0-.3.3-.3h2.3v7.3h-2.5-.1V10.8zM61.2 10.8v3.4c0 .3 0 .3-.3.3h-2.3-.1v-7c0-.4 0-.4.3-.4H61v3.7zM42.8 10.8V7.4c0-.3 0-.3.3-.3h2.4v7.1l-.1.3h-2.5l-.1-.2v-.2-3.3zM2.3 14.5H0l-.1-.2v-7L.1 7h2.5l.1.1v7.2l-.1.1h-.3zM11.2 10.9v3.4c0 .2 0 .2-.2.2H8.5v-7c0-.2 0-.2.2-.2H11l.1.1V11zM49.3 10.8V7.2H52.1v7.1l-.1.1h-2.5l-.2-.1v-3.5zM85.5 10.8v3.3c0 .4 0 .4-.3.4h-2.3l-.1-.1V7.5c0-.4 0-.4.4-.4h2.2v3.7zM76.4 3.4v2.8c0 .2 0 .2-.2.2h-2.4c-.2 0-.2 0-.2-.2V.6l.1-.1h2.4c.2 0 .2 0 .2.2v2.7zM42.8 3.4V.8c0-.3 0-.3.3-.3h2.4v5.6c0 .4 0 .4-.2.4h-2.4V3.4zM33.5 3.4v2.7c0 .3 0 .3-.3.3H31V.8c0-.4-.1-.3.3-.3H33.5v2.9z" fill="#696969"/></svg>
