<svg width="58" height="47" xmlns="http://www.w3.org/2000/svg"><g fill="none" fill-rule="evenodd"><path d="M38.734 6.91h17.272c.194 0 .394.03.581-.006.536-.103.996-.28 1.024-.956.028-.66-.13-1.153-.878-1.248a6.595 6.595 0 00-.825-.06c-6.41-.005-12.82-.006-19.23-.005-.249 0-.54-.052-.736.055-.363.199-.874.451-.947.767-.083.36.121.956.413 1.205 2.783 2.378 4.008 5.313 3.527 8.962-.585 4.43-4.094 7.862-8.76 8.28-3.376.303-6.292-.886-8.435-3.581-2.428-3.052-2.778-6.419-1.331-9.995.587-1.452 1.592-2.6 2.709-3.684.284-.275.53-.86.426-1.187-.109-.34-.648-.566-1.03-.789-.146-.085-.38-.03-.573-.03-6.41-.001-12.82-.002-19.23.004-.357 0-.74-.01-1.063.112-.27.102-.566.348-.682.605-.389.858.216 1.549 1.326 1.55 5.55.003 11.1 0 16.65 0h.96c-.268.384-.522.645-.655.958-.264.618-.695.744-1.339.737-3.274-.035-6.549-.018-9.823-.012-.301 0-.604.042-.904.083-.707.097-1.135.5-1.043 1.215.088.686.558 1.009 1.28.998 1.36-.02 2.72-.006 4.08-.006h6.3l-.407 1.812c-2.138 0-4.218-.003-6.297.001-.89.002-1.338.385-1.314 1.105.022.673.477 1.051 1.297 1.054 1.471.006 2.942.002 4.413.002 1.724 0 1.724 0 2.053 1.64.007.035-.035.08-.07.157-.626 0-1.263-.007-1.9.002-.86.011-1.258.338-1.29 1.04-.033.733.382 1.157 1.253 1.2.747.036 1.5-.023 2.246.03.23.017.504.215.656.409.96 1.223 1.756 2.604 2.858 3.68 2.643 2.581 5.969 3.505 9.575 3.02 4.178-.56 7.222-2.886 9.17-6.597.204-.39.396-.57.86-.545a14.6 14.6 0 002.16-.039c.702-.067 1.123-.48 1.031-1.225-.084-.677-.525-.978-1.198-.975-.627.003-1.255 0-1.853 0 .026-.29.071-.509.059-.724-.043-.755.174-1.132 1.062-1.094 1.718.072 3.44.022 5.16.02.836 0 1.472-.495 1.442-1.118-.028-.609-.618-1.043-1.424-1.043h-6.175l-.408-1.812h1.004c3.164 0 6.327-.011 9.49.01.733.004 1.207-.34 1.318-.987.122-.706-.35-1.104-1.036-1.225a4.771 4.771 0 00-.818-.088c-2.941-.006-5.885-.074-8.823.027-1.414.049-2.572-.08-3.156-1.545-.01-.02-.002-.048-.002-.164z" fill="#C0B59B"/><path d="M29.434 7.57c-.603.082-1 .401-.98 1.019.02.608.414.973 1.03.95.572-.021.934-.39.94-.959.006-.614-.382-.937-.99-1.01zm1.342-2.114c.02-.706-.564-1.33-1.276-1.363a1.346 1.346 0 00-1.384 1.25 1.344 1.344 0 001.31 1.404 1.358 1.358 0 001.35-1.291zM26.68 16.153c-2.164-1.506-2.563-5.04-.779-6.272-.389-1.907-.51-3.83.196-5.721.582-1.559 1.436-2.915 2.943-3.739.24-.13.708-.139.917.01 2.033 1.45 3.32 3.347 3.313 5.924-.003.986-.103 1.97-.138 2.957-.007.202.01.527.129.593 1.515.843 1.322 2.222.963 3.483-.268.942-.924 1.777-1.426 2.65-.048.084-.229.094-.362.143l-.546-2.86c-.408.552-.69.858-.874 1.214-.105.202-.135.52-.052.727.686 1.71-.01 2.897-1.429 3.828-1.603-.935-1.981-1.773-1.608-3.587.116-.565.116-.565-.634-1.861-.803.66-.352 1.64-.613 2.511z" fill="#9D070B"/><path d="M20.469 15.163c1.149.046 1.572.88 2.046 1.629 1.648-.938 3.626.623 3.297 2.558l1.269.682c1.12-.798 1.764-.725 2.752.365.742-1.172 1.319-1.365 2.827-.946.528-2.415 1.476-3.172 3.223-2.684.262-.427.43-.924.778-1.19.25-.191.773-.168 1.106-.05.153.053.26.592.191.86-.893 3.442-2.973 5.742-6.526 6.606-4.89 1.189-9.913-1.988-10.955-6.835-.061-.286-.008-.597-.008-.995" fill="#9D070B"/><path d="M11.683 35.512c1.128.104 2.214-.704 2.242-2.08.027-1.337-.92-2.196-2.228-2.214-1.386-.02-2.156 1.054-2.221 2.155-.071 1.195.954 2.134 2.207 2.14m3.625-2.881v-2.68h1.282v5.652h1.631v1.197h-2.913v-2.868c-.888 2.18-2.508 3.276-4.17 2.893-1.665-.384-3.03-1.847-2.864-3.835.117-1.407 1.556-2.941 3.04-3.1 1.78-.191 3.278.869 3.994 2.74m10.808 7.239c0 1.887.002 3.728-.003 5.57 0 .131-.032.272-.084.393-.312.716-1.308 1.003-2.658.777-.726-.122-1.252-.715-1.263-1.495-.018-1.345-.005-2.69-.005-4.084H20.82v5.61l-1.19.116V41.02l-1.282-.069v-1.096h5.102c0 1.6.02 3.215-.01 4.83-.012.581.197.764.77.766.565.002.724-.23.72-.741-.016-1.594-.006-3.189-.006-4.842h1.193zm17.998-4.358c1.32 0 2.148-.833 2.14-2.152-.007-1.251-.873-2.125-2.118-2.136-1.29-.011-2.193.872-2.2 2.152-.008 1.294.852 2.137 2.178 2.136m3.481-2.139c.002 1.913-1.524 3.476-3.41 3.475-2.096 0-3.53-1.505-3.56-3.432-.03-1.849 1.329-3.47 3.477-3.517 1.95-.043 3.491 1.522 3.493 3.474m-10.585 2.14c1.324-.005 2.132-.822 2.125-2.149-.007-1.271-.906-2.153-2.182-2.14-1.252.013-2.191.957-2.177 2.187.015 1.233.944 2.107 2.235 2.102m-3.414-2.15c-.337-1.904 1.955-3.517 3.439-3.5 1.466.018 3.502 1.555 3.461 3.567-.039 1.963-1.957 3.47-3.473 3.432-1.975-.048-3.428-1.486-3.427-3.5m2.933 12.071c1.209.004 2.23-1.009 2.233-2.214.003-1.111-1.077-2.208-2.194-2.23-1.168-.022-2.276 1.088-2.244 2.248.034 1.191 1.038 2.193 2.204 2.196m-.08 1.23c-1.807.021-3.517-1.69-3.365-3.757.122-1.675 1.775-3.221 3.554-3.179 1.904.045 3.573 1.773 3.46 3.62-.113 1.876-1.758 3.42-3.65 3.316M19.806 35.481c1.815-.47 2.25-1.062 1.966-2.592-.214-1.146-.897-1.696-1.966-1.56v4.152zm-1.349 1.315V31.28c-.302-.037-.56-.067-.821-.1.357-1.336 1.061-1.664 2.694-1.222 2.416.655 3.198 2.3 2.725 4.478-.141.648-.85 1.266-1.442 1.707-.875.651-1.94.843-3.156.654zm9.689 4.224v4.317c1.422-.208 2.091-.808 2.125-1.88.046-1.467-.473-2.079-2.125-2.438m-1.187 5.558V41.1l-.79-.218c.322-.402.527-.926.88-1.055 1.563-.575 3.759.467 4.33 2.068.62 1.74.248 3.32-1.714 4.29-.854.421-1.7.57-2.706.393" fill="#C0B59B"/><path d="M34.627 36.757c-1.03.314-1.619.012-1.998-.925-.332-.82-.842-1.569-1.273-2.35l-.239.01V35.7c0 1.197 0 1.197-1.291 1.111v-6.863h1.248l.08 1.352c.627-.872 1.087-1.873 2.437-1.283-.371.539-.74 1.098-1.134 1.639-.282.384-.31.693-.038 1.143.771 1.276 1.46 2.602 2.208 3.957m-9.65-2.025l1.202-.326c.095.222.149.47.289.654.357.466.829.643 1.362.303.537-.344.654-.853.206-1.307-.49-.498-1.148-.839-1.614-1.354-.36-.398-.8-1.002-.729-1.437.08-.48.624-1.02 1.105-1.273.88-.463 1.843.36 1.718 1.582l-1.352-.561-.234.446c.773.632 1.552 1.147 2.173 1.808.708.755.7 1.557.19 2.4-.51.847-1.456 1.32-2.36 1.183-.912-.14-1.65-.873-1.849-1.83-.016-.08-.057-.155-.107-.288m18.904 6.607c-.59-.126-1.162.317-1.385-.444-.003-.008-.315.073-.482.113.065.206.065.49.205.604.548.446 1.19.784 1.705 1.26 1.01.936 1.034 2.275.13 3.166-1.009.993-2.472.956-3.404-.141-.266-.313-.56-.807-.485-1.136.059-.256.673-.386.968-.535.164.114.244.141.248.176.06.598.386.992.982 1.005.281.006.725-.174.821-.39.236-.528.124-1.064-.4-1.447-.486-.353-.969-.71-1.43-1.093-.56-.465-.822-1.086-.494-1.751.32-.651.908-1.024 1.692-.903.77.12 1.026.705 1.33 1.516m-25.932.132c-.364-.175-.724-.363-1.097-.516-.125-.051-.286-.016-.43-.02.017.213-.048.523.068.62.35.293.776.495 1.162.748 1.076.708 1.585 1.7 1.28 2.78-.256.902-.967 1.426-1.885 1.64-.972.228-2.46-.735-2.56-1.703-.018-.175.257-.45.462-.56.281-.152.595-.374.866.162.175.344.603.636.983.77.187.066.75-.283.746-.436-.01-.445-.108-.977-.379-1.307-.37-.453-.939-.74-1.406-1.119-.585-.474-.869-1.066-.523-1.797.292-.617.793-.974 1.509-.913.85.073 1.195.646 1.368 1.37l-.164.28m31.146-5.849h1.605v1.164h-2.883v-6.777c1.167-.29 1.277-.21 1.278.948v4.665M31.801 46.625h1.11v-6.78H31.8zM30.776 5.456a1.357 1.357 0 01-1.35 1.291 1.344 1.344 0 01-1.31-1.405A1.346 1.346 0 0129.5 4.093c.712.033 1.297.657 1.276 1.363M29.434 7.57c.608.073.996.396.99 1.01-.006.568-.368.938-.94.96-.616.022-1.01-.343-1.03-.951-.02-.618.377-.937.98-1.019" fill="#C0B59B"/></g></svg>
