<svg width="106" height="25" fill="none" xmlns="http://www.w3.org/2000/svg"><g clip-path="url(#clip0)" fill="#696969"><path d="M57.41 4.444c-.183.43-.367.798-.49 1.227-1.227 3.803-3.496 10.06-4.048 14.046 0 .184-.061.368-.061.552l-48.456.062c-2.33 0-3.496-1.166-3.987-2.515a4.6 4.6 0 010-2.576l1.717-6.257c.491-1.656 1.963-4.477 5.46-4.477l49.866-.062zM30.485 7.082h-2.33c-1.473 0-2.822.92-3.313 2.27l-2.392 7.36h2.515l.797-2.393h2.27l-.675 2.393h2.453l2.454-7.3c.245-1.226-.43-2.33-1.779-2.33zm-16.745 0H8.955l-3.128 9.63h2.515l.797-2.393h2.208c1.472 0 2.76-.92 3.251-2.269.307-.736.859-2.576.859-2.576.43-1.41-.368-2.392-1.718-2.392zm36.434 2.821h-2.392c-1.472 0-2.76.92-3.25 2.27l-1.411 4.539h2.576l1.288-4.355h2.27l-1.228 4.355h2.515l1.35-4.417c.245-1.288-.43-2.392-1.718-2.392zm-13.74-2.821H33.92l-1.595 4.968c-.306 1.288.368 2.392 1.656 2.392l-.674 2.27h2.514l.736-2.27c1.411-.061 2.638-.92 3.129-2.27l1.594-5.09h-2.514l-1.657 4.845h-2.146l1.472-4.845zm-16.683 0h-2.576l-3.067 9.63h7.36l1.596-4.846h-2.454l-.736 2.392h-2.27l2.147-7.176zm9.814 2.392l-.797 2.392h-2.392l.858-2.392h2.331zm-16.56 0l-.798 2.392H9.814l.797-2.392h2.392zM45.88 7.327h-3.251l-1.043 2.883h3.312l.982-2.883zM99.365 4.444h2.392c3.251 0 4.723 2.27 4.171 4.723-.368 1.779-1.84 6.563-1.84 6.563-.552 2.699-2.822 4.54-6.011 4.54h-3.374c.062-.124.123-.246.123-.369 1.165-3.496 3.067-9.568 4.294-13.433.184-.613.245-1.349.245-2.024zM92.863.028H87.22c-3.802-.061-7.237 2.33-8.525 5.95l-2.883 9.078c-3.19 7.912.859 9.2 3.68 9.2h4.723c3.496 0 7.299-2.515 8.28-5.704L96.421 6.1c1.104-2.882-.614-6.072-3.558-6.072zm-6.317 18.278h-5.46L84.89 6.223h5.46l-3.803 12.083zM65.63 15.24h3.005l-.981 3.067h-5.888l.797-2.576.123-.43 1.962-6.01.982-3.006h11.286l.061-.184L78.633.335H67.777c-4.11-.062-7.422 3.067-8.158 5.581l-2.883 9.078c-3.619 8.465 1.166 9.2 3.68 9.2h4.723a8.58 8.58 0 008.28-5.888l2.638-9.077h-8.464l-1.963 6.01z"/></g><defs><clipPath id="clip0"><path fill="#fff" d="M0 0h106v25H0z"/></clipPath></defs></svg>
