<svg width="109" height="25" fill="none" xmlns="http://www.w3.org/2000/svg"><path d="M25.15 9.05c-.017-.041-.027-.081-.044-.124-1.03-2.526-4.945-3.291-9.458-2.137l-.74-.461c2.221-.959 4.434-1.46 6.288-1.322 2.766.21 4.118 1.783 3.954 4.044zm-4.012 5.306c-2.894 3.684-8.123 6.234-11.681 5.97-3.553-.268-4.091-3.47-1.197-7.154.058-.076.12-.15.18-.226l.01 4.619c-.02 1.174 1.111 1.725 1.924 1.259l10.639-6.488c.832-.54.744-1.745-.04-2.209L16.66 7.644c1.166-.35 2.285-.515 3.28-.442 3.555.27 4.09 3.47 1.198 7.154zM7.607 22.31c-3.266-.246-4.568-2.398-3.718-5.33-.005.49.072.958.253 1.393 1.276 3.137 7.005 3.562 12.794.957.119-.053.237-.111.354-.164-3.25 2.098-6.871 3.352-9.683 3.144zm3.761-16.402l7.142 4.501c.528.316.591 1.14.03 1.506l-7.215 4.399c-.55.317-1.323-.06-1.308-.863l-.035-8.735c.032-.73.753-1.17 1.386-.808zM27.9 7.527C26.403 3.85 20.187 3.04 13.46 5.42l-2.985-1.87c-.93-.532-1.991.115-2.043 1.19l.002 3.038C2.637 11.252-.725 16.253.707 19.773c1.658 4.066 9.088 4.623 16.596 1.242 7.509-3.38 12.253-9.42 10.597-13.487zM33.867 12.829l-.648 2.388c-.097.364-.172.695-.231.98-.062.3-.087.515-.087.648 0 .255.07.45.212.598.149.146.346.217.589.217.38 0 .776-.214 1.186-.643.408-.43.799-1.045 1.18-1.85a23 23 0 001.117-3.06c.277-1.003.423-1.793.423-2.355 0-.408-.085-.737-.25-.982-.164-.248-.376-.375-.624-.375-.565 0-1.08.366-1.552 1.085-.472.727-.91 1.84-1.315 3.349zM29.792 7.28a58.611 58.611 0 002.88-.303 41.288 41.288 0 002.64-.42l-.714 2.56c.713-.99 1.393-1.718 2.045-2.165.64-.462 1.304-.682 2.003-.682.95 0 1.689.3 2.202.899.52.604.775 1.462.775 2.572 0 .937-.174 1.926-.53 2.958a11.589 11.589 0 01-1.487 2.888c-.738 1.037-1.517 1.814-2.35 2.33-.837.518-1.718.78-2.658.78-.386 0-.745-.054-1.087-.17a3.138 3.138 0 01-.912-.501l-.731 2.776c-.05.166-.09.344-.109.518-.028.17-.035.343-.035.515 0 .333.095.575.293.71.198.134.6.217 1.201.255v.648h-6.816v-.676a.574.574 0 00.1-.011.459.459 0 01.097-.016c.424 0 .74-.108.951-.331.214-.222.43-.799.659-1.74l2.713-11.051c.047-.176.084-.357.113-.528.027-.165.043-.3.043-.392 0-.304-.091-.507-.269-.619-.183-.125-.523-.181-1.017-.181V7.28z" fill="#696969"/><path d="M42.3 1.185a48.37 48.37 0 002.937-.328 33.32 33.32 0 002.668-.48l-3.743 14.82a7.14 7.14 0 00-.085.307 1.75 1.75 0 00-.067.38c0 .174.032.313.1.409.073.1.175.148.307.148.134 0 .287-.093.462-.283.173-.186.51-.677 1.01-1.472l.597.454c-.751 1.258-1.475 2.172-2.156 2.738-.68.565-1.388.846-2.127.846-.652 0-1.161-.18-1.513-.548-.355-.367-.53-.897-.53-1.58 0-.337.183-1.23.542-2.676l.036-.146 2.485-9.645.094-.393c.158-.635.227-1.044.227-1.22 0-.243-.081-.42-.25-.537-.166-.114-.423-.175-.781-.175H42.3v-.619z" fill="#696969"/><path d="M54.02 8.86c0-.355-.075-.636-.23-.847a.718.718 0 00-.606-.314c-.357 0-.7.174-1.032.526-.332.357-.713.945-1.149 1.769-.51.982-.91 1.938-1.196 2.882-.295.952-.441 1.757-.441 2.425 0 .405.081.719.242.956a.776.776 0 00.656.338c.402 0 .812-.239 1.237-.727.424-.486.825-1.17 1.204-2.052.4-.982.713-1.94.954-2.852.239-.92.36-1.62.36-2.104zm4.516-2.175l-1.997 7.33v.027c-.305 1.129-.458 1.785-.458 1.974 0 .174.03.313.101.422.066.11.151.157.266.157.323 0 .745-.389 1.252-1.17.153-.222.27-.398.351-.521l.58.457c-.651 1.144-1.3 1.99-1.964 2.529-.662.54-1.378.808-2.14.808-.636 0-1.122-.141-1.449-.42-.337-.29-.502-.7-.502-1.25 0-.162.012-.373.048-.62.029-.25.081-.575.15-.97-.602 1.102-1.26 1.923-1.97 2.453a3.807 3.807 0 01-2.37.807c-.9 0-1.607-.28-2.128-.842-.523-.568-.784-1.339-.784-2.32 0-1.129.247-2.317.754-3.574.5-1.241 1.17-2.352 2.018-3.306.668-.766 1.359-1.355 2.078-1.768.724-.413 1.416-.617 2.081-.617.637 0 1.13.155 1.498.463.367.312.608.786.723 1.418l.368-1.467h3.494z" fill="#696969"/><path d="M57.372 7.7v-.678a78.76 78.76 0 002.962-.394c.996-.153 1.539-.226 1.614-.226.401 0 .926 1.763 1.562 5.297.257 1.406.469 2.539.635 3.387.758-1.536 1.275-2.657 1.555-3.358.28-.697.416-1.216.416-1.547 0-.257-.234-.57-.699-.925-.464-.36-.702-.772-.702-1.229 0-.528.161-.954.49-1.278.32-.318.75-.478 1.288-.478.53 0 .95.16 1.25.478.295.324.448.776.448 1.351 0 .723-.348 1.888-1.035 3.49-.69 1.6-1.633 3.401-2.827 5.415-1.35 2.297-2.583 3.964-3.689 5.02-1.107 1.054-2.172 1.578-3.197 1.578-.68 0-1.213-.15-1.603-.454-.388-.305-.583-.722-.583-1.254 0-.483.166-.875.505-1.193.336-.316.76-.472 1.279-.472.404 0 .84.162 1.304.482.462.324.777.477.93.477.28 0 .594-.233.95-.7.365-.472.547-.915.547-1.345 0-.314-.03-.713-.084-1.193a39.548 39.548 0 00-.255-1.778 119.94 119.94 0 00-.712-4.114c-.244-1.232-.46-2.205-.655-2.916-.171-.61-.344-1.007-.518-1.194-.174-.185-.456-.277-.859-.277h-.031a2.198 2.198 0 01-.286.027" fill="#696969"/><path d="M72.947 15.383c-.752 1.061-1.491 1.875-2.212 2.437-.713.568-1.364.85-1.957.85-.477 0-.85-.158-1.125-.464-.274-.312-.414-.73-.414-1.253 0-.185.019-.39.055-.619.033-.231.087-.488.158-.76L69.6 7.18h-2.26l.21-.722a5.324 5.324 0 002.581-1.393c.746-.72 1.424-1.714 2.02-2.987h.771l-1.01 4.215h2.067l-.209.887h-2.13l-2.06 8.11a5.863 5.863 0 00-.11.497c-.017.148-.033.284-.033.4 0 .27.059.473.18.618.112.144.282.213.489.213.27 0 .587-.157.963-.486.374-.323.849-.852 1.418-1.583l.461.435z" fill="#696969"/><path d="M75.056 12.62c1.662-.08 3.063-.535 4.186-1.356 1.132-.834 1.69-1.77 1.69-2.831 0-.356-.09-.623-.27-.802-.174-.172-.445-.26-.809-.26-1.007 0-1.943.455-2.799 1.386-.857.937-1.52 2.222-1.998 3.863zm-.196.889a7.04 7.04 0 00-.162.869 4.922 4.922 0 00-.053.75c0 .703.17 1.24.52 1.61.345.37.854.644 1.517.644.652 0 1.403-.31 2.228-.758.837-.445 1.776-1.12 2.812-2.021l.546.828c-1.235 1.113-2.399 1.937-3.492 2.463-1.09.537-2.158.799-3.206.799-1.026 0-1.832-.312-2.397-.923-.57-.62-.853-1.486-.853-2.617 0-1.081.221-2.181.664-3.295A10.054 10.054 0 0174.8 8.89c.743-.827 1.56-1.454 2.439-1.893.892-.435 1.801-.66 2.738-.66.863 0 1.54.203 2.039.604.498.398.75.947.75 1.646 0 1.258-.733 2.35-2.186 3.27-1.455.916-3.361 1.463-5.72 1.652" fill="#696969"/><path d="M91.097 13.681l-.032 1.59c-.782 1.145-1.63 1.999-2.554 2.569a5.685 5.685 0 01-3.024.846c-1.195 0-2.172-.4-2.922-1.21-.748-.796-1.12-1.858-1.12-3.176 0-.97.211-1.957.634-2.965a8.87 8.87 0 011.757-2.71c.686-.722 1.455-1.286 2.308-1.672a6.091 6.091 0 012.6-.597c.933 0 1.674.218 2.227.644.552.427.83.994.83 1.709 0 .424-.142.792-.432 1.094a1.346 1.346 0 01-1.02.454c-.323 0-.584-.102-.785-.316-.2-.212-.299-.486-.299-.828 0-.239.078-.512.242-.83.158-.313.235-.509.235-.587 0-.147-.078-.265-.244-.357-.165-.091-.383-.137-.666-.137-.575 0-1.157.176-1.757.538a5.407 5.407 0 00-1.564 1.494 9.493 9.493 0 00-1.26 2.434 7.749 7.749 0 00-.436 2.512c0 .93.234 1.675.707 2.218.477.544 1.117.912 1.928.912.64 0 1.268-.299 1.886-.698.621-.406 1.65-1.213 2.761-2.93" fill="#696969"/><path d="M89.688 18.7l4.23-15.322c.024-.094.04-.189.05-.291.017-.094.021-.192.021-.27 0-.273-.07-.46-.201-.566-.134-.094-.518-.145-1.144-.145h-.963l.149-.7a14.347 14.347 0 002.177-.254c.669-.141 1.31-.322 1.903-.559h.764l-2.927 10.583c1.499-1.528 2.88-2.71 4.136-3.562 1.253-.837 2.254-1.262 3-1.262.394 0 .679.094.868.28.185.194.284.487.284.881 0 .123-.02.27-.056.445a9.213 9.213 0 01-.133.597l-2.136 7.209a4.623 4.623 0 00-.1.461c-.03.161-.044.328-.044.49 0 .092.044.173.12.247.077.07.17.197.271.197.209 0 .502-.23.868-.514.368-.284.755-.673 1.164-1.164l.435.373c-.735.913-1.444 1.616-2.124 2.094-.683.484-1.313.728-1.888.728-.375 0-.671-.093-.888-.274-.22-.186-.325-.431-.325-.753 0-.113.009-.234.034-.364.022-.13.064-.27.116-.423l2.194-7.456c.04-.164.067-.288.081-.373.013-.082.017-.163.017-.232 0-.19-.051-.335-.162-.438-.105-.094-.258-.144-.46-.144-.311 0-.773.195-1.38.59-.612.393-1.31.956-2.114 1.684-.718.645-1.249 1.194-1.582 1.648a4.785 4.785 0 00-.728 1.416L91.758 18.7c-.166-.025-.754-.045-.925-.056-.17-.012.078-.012-.098-.012-.178 0-.357 0-.529.012-.167.012-.34.03-.519.056zM64.57 22.914v.2a.907.907 0 00.039.286c.06.242.257.363.592.363.125 0 .238-.018.34-.053.228-.07.344-.242.351-.51a.495.495 0 00-.225-.43 3.282 3.282 0 00-.38-.206l-.441-.2a2.501 2.501 0 01-.438-.24c-.243-.17-.366-.413-.366-.731.003-.349.14-.595.41-.74.201-.11.475-.167.827-.17.427 0 .736.08.924.243.15.13.226.386.226.766v.072h-.607v-.086l-.012-.185c-.038-.278-.218-.414-.54-.407-.41 0-.616.164-.62.492 0 .208.128.378.383.51.16.083.338.164.538.249.201.082.365.162.49.238.292.179.44.447.44.808-.007.652-.439.98-1.299.98-.368.006-.652-.057-.85-.182a.782.782 0 01-.38-.637l-.008-.287v-.142h.607zM66.906 21.69c.002-.295.03-.51.082-.646.083-.216.26-.37.537-.46.2-.068.414-.101.644-.101.227 0 .442.033.644.1.272.09.45.245.533.46.051.135.08.352.084.646v1.2c0 .216-.012.404-.036.56-.067.472-.47.712-1.208.714-.534 0-.893-.11-1.075-.332-.14-.166-.208-.482-.205-.942v-1.2zm.609 1.195c.002.301.024.499.065.586.041.089.121.161.234.214a.866.866 0 00.355.077c.11 0 .217-.02.318-.065a.465.465 0 00.318-.41c.01-.112.015-.245.017-.402v-1.199c.004-.26-.026-.443-.087-.547-.095-.17-.286-.255-.566-.253a.833.833 0 00-.307.053.462.462 0 00-.332.416 2.215 2.215 0 00-.015.331v1.199zM69.98 20.534h.607v2.388l.006.316c.02.347.223.522.606.524.384 0 .594-.163.63-.491.014-.115.022-.23.024-.349v-2.388h.607v2.427c-.002.198-.01.351-.021.46a.662.662 0 01-.203.418c-.221.216-.56.322-1.018.324-.474-.002-.817-.107-1.025-.318a.683.683 0 01-.198-.423 4.962 4.962 0 01-.015-.461v-2.427zM74.043 20.534h.362c.14 0 .27.013.386.033.448.071.675.356.682.859 0 .264-.06.46-.177.6-.115.13-.34.218-.669.266v-.002c.205.02.354.051.444.094a.44.44 0 01.244.31c.021.094.033.206.04.332l.025.421a2.002 2.002 0 00.14.665h-.632l-.062-.229a1.213 1.213 0 01-.033-.247l-.024-.32-.02-.336c-.029-.256-.152-.411-.37-.462a1.594 1.594 0 00-.318-.029h-.42v1.623h-.61v-3.578h1.012zm-.402.403v1.148h.434c.13 0 .239-.008.336-.022.186-.03.315-.104.386-.224.047-.08.069-.212.069-.397 0-.199-.068-.338-.204-.414-.099-.059-.28-.089-.553-.09h-.468zM77.758 21.478l-.003-.166c-.015-.286-.184-.428-.51-.426-.29 0-.479.076-.567.225a.447.447 0 00-.079.22l-.005.294v1.412c.002.256.027.421.073.494.101.154.274.231.521.231.321-.002.505-.154.545-.457l.025-.23v-.124h.607v.125l-.005.224c-.02.267-.11.471-.275.614a.855.855 0 01-.353.184 1.973 1.973 0 01-.526.065 2.121 2.121 0 01-.466-.042c-.5-.094-.752-.427-.755-1.003v-1.425a2.56 2.56 0 01.03-.434.807.807 0 01.163-.407c.193-.241.54-.365 1.041-.37.7.005 1.078.227 1.131.667.01.084.015.178.015.282v.139h-.607v-.092zM78.895 20.534h1.988v.403h-1.38v1.134h1.294v.403h-1.294v1.234h1.418v.404h-2.026v-3.578zM82.496 21.69c0-.295.027-.51.08-.646.081-.216.26-.37.536-.46.2-.068.414-.101.645-.101.226 0 .442.033.645.1.27.09.449.245.533.46.052.135.08.352.084.646v1.2c0 .216-.012.404-.034.56-.072.472-.472.712-1.211.714-.536 0-.894-.11-1.075-.332-.139-.166-.206-.482-.203-.942v-1.2zm.606 1.195c.003.301.025.499.068.586a.451.451 0 00.232.214.862.862 0 00.355.077c.112 0 .216-.02.32-.065a.466.466 0 00.314-.41c.011-.112.017-.245.019-.402v-1.199c.004-.26-.025-.443-.086-.547-.097-.17-.287-.255-.567-.253-.11 0-.21.016-.306.053a.46.46 0 00-.332.416c-.013.095-.019.206-.017.331v1.199zM87.509 20.534v.403H86.18v1.131h1.279v.402H86.18v1.642h-.608v-3.578h1.937zM89.53 22.914v.2a.85.85 0 00.036.286c.06.242.259.363.591.363.125 0 .239-.018.342-.053.226-.07.343-.242.351-.51a.493.493 0 00-.226-.43 3.302 3.302 0 00-.38-.206l-.442-.2a2.686 2.686 0 01-.439-.24c-.24-.17-.363-.413-.363-.731.005-.349.14-.595.41-.74.2-.11.476-.167.826-.17.427 0 .735.08.926.243.15.13.224.386.224.766v.072h-.606v-.086l-.013-.185c-.038-.278-.217-.414-.54-.407-.411 0-.615.164-.62.492 0 .208.13.378.384.51.158.083.338.164.538.249.2.082.364.162.49.238.291.179.44.447.44.808-.008.652-.44.98-1.299.98-.37.006-.653-.057-.85-.182a.774.774 0 01-.379-.637l-.01-.287v-.142h.609zM91.886 20.534h.607v2.388l.005.316c.02.347.225.522.606.524.384 0 .594-.163.632-.491.012-.115.019-.23.02-.349v-2.388h.61v2.427c-.003.198-.01.351-.024.46a.648.648 0 01-.2.418c-.223.216-.563.322-1.019.324-.474-.002-.818-.107-1.027-.318a.691.691 0 01-.195-.423 5.39 5.39 0 01-.014-.461v-2.427zM96.73 21.478l-.002-.166c-.014-.286-.186-.428-.513-.426-.289 0-.476.076-.565.225a.467.467 0 00-.08.22l-.005.294v1.412c.004.256.028.421.077.494.098.154.272.231.518.231.322-.002.504-.154.547-.457l.024-.23v-.124h.607v.125l-.006.224c-.017.267-.11.471-.275.614a.862.862 0 01-.353.184 1.982 1.982 0 01-.525.065 2.1 2.1 0 01-.466-.042c-.5-.094-.752-.427-.753-1.003v-1.425a2.45 2.45 0 01.027-.434c.02-.163.074-.3.163-.407.194-.241.54-.365 1.042-.37.7.005 1.079.227 1.131.667.01.084.015.178.015.282v.139h-.607v-.092zM99.664 21.478l-.003-.166c-.015-.286-.184-.428-.512-.426-.29 0-.477.076-.566.225a.424.424 0 00-.078.22l-.007.294v1.412c.002.256.029.421.075.494.1.154.274.231.52.231.323-.002.504-.154.545-.457l.026-.23v-.124h.607v.125l-.005.224c-.02.267-.112.471-.275.614a.853.853 0 01-.355.184c-.159.044-.336.065-.525.065a2.1 2.1 0 01-.466-.042c-.5-.094-.751-.427-.754-1.003v-1.425c-.003-.157.008-.3.03-.434a.786.786 0 01.16-.407c.195-.241.543-.365 1.044-.37.7.005 1.077.227 1.131.667.01.084.015.178.015.282v.139h-.608v-.092zM100.8 20.534h1.987v.403h-1.379v1.134h1.293v.403h-1.293v1.234h1.418v.404H100.8v-3.578zM103.718 22.914v.2a.888.888 0 00.038.286c.061.242.257.363.59.363.125 0 .24-.018.342-.053.226-.07.344-.242.353-.51a.501.501 0 00-.227-.43 3.325 3.325 0 00-.38-.206l-.441-.2a2.564 2.564 0 01-.438-.24c-.242-.17-.365-.413-.365-.731.004-.349.139-.595.41-.74.199-.11.474-.167.826-.17.427 0 .735.08.926.243.15.13.224.386.224.766v.072h-.607v-.086l-.012-.185c-.037-.278-.219-.414-.541-.407-.408 0-.615.164-.619.492 0 .208.128.378.382.51.159.083.34.164.54.249.201.082.363.162.49.238.291.179.44.447.44.808-.007.652-.438.98-1.3.98-.37.006-.652-.057-.85-.182a.77.77 0 01-.377-.637l-.011-.287v-.142h.607zM106.534 22.914v.2a.888.888 0 00.036.286c.061.242.259.363.591.363.126 0 .239-.018.34-.053.228-.07.345-.242.354-.51a.499.499 0 00-.227-.43 3.242 3.242 0 00-.38-.206l-.44-.2a2.564 2.564 0 01-.438-.24c-.244-.17-.366-.413-.366-.731.004-.349.141-.595.41-.74.201-.11.474-.167.827-.17.428 0 .734.08.925.243.15.13.226.386.226.766v.072h-.607v-.086l-.014-.185c-.036-.278-.218-.414-.541-.407-.407 0-.614.164-.618.492 0 .208.127.378.384.51.157.083.338.164.537.249.202.082.364.162.489.238.293.179.441.447.441.808-.007.652-.439.98-1.298.98-.369.006-.652-.057-.85-.182a.77.77 0 01-.379-.637l-.011-.287v-.142h.609z" fill="#696969"/></svg>
