<svg width="121" height="25" fill="none" xmlns="http://www.w3.org/2000/svg"><path d="M93.773 0v8.188l8.998-4.095L93.773 0zM102.771 4.093v8.188l8.995-4.093-8.995-4.095z" fill="#696969"/><path d="M102.771 12.279v8.19l8.995-4.095-8.995-4.095zM111.766 8.188v8.186l8.996-4.095-8.996-4.09zM93.773 8.188v8.186l8.998-4.095-8.998-4.09z" fill="#696969"/><path d="M93.773 16.374v8.188l8.998-4.093-8.998-4.095zM9.71 3.148c.285-.002.567.054.83.166.252.106.483.256.683.444.196.182.353.403.461.648.111.251.167.523.165.798V8.4a1.954 1.954 0 01-.626 1.449c-.2.186-.431.336-.683.443a2.07 2.07 0 01-.83.166H2.14a1.438 1.438 0 01-.364-.022v4.095H.003V3.148H9.71zm.361 2.054a.33.33 0 00-.106-.244.355.355 0 00-.255-.102H2.14a.35.35 0 00-.254.102.324.324 0 00-.11.244v3.195c0 .093.04.183.11.246a.35.35 0 00.255.102H9.71a.355.355 0 00.255-.102.33.33 0 00.106-.246V5.202zM12.705 3.115h1.777v9.694h10.071v1.708H12.705V3.115zM35.25 3.132a2.16 2.16 0 011.513.6c.195.19.352.415.461.665.11.252.166.524.165.798v9.33h-1.775v-3.992h-8.297v3.993h-1.775v-9.34a1.971 1.971 0 01.165-.798c.108-.25.265-.476.461-.666.407-.389.95-.604 1.513-.599l7.569.01zm.362 5.693V5.187a.33.33 0 00-.107-.244.362.362 0 00-.255-.105h-7.571a.357.357 0 00-.255.105.33.33 0 00-.107.244v3.638h8.295zM50.34 3.132l-5.464 7.115v4.27h-1.777v-4.27l-5.464-7.115h2.09l4.261 5.187 4.246-5.187h2.107zM62.319 5.852h-1.775v-.665a.33.33 0 00-.106-.244.353.353 0 00-.256-.105H52.62a.353.353 0 00-.255.105.331.331 0 00-.107.244v2.44a.33.33 0 00.107.246c.068.066.16.103.255.102h7.569c.285-.002.567.052.832.158a2.125 2.125 0 011.142 1.109c.112.251.168.523.165.798v2.44c.003.275-.053.548-.165.8-.107.25-.264.476-.461.665a2.126 2.126 0 01-1.513.6h-7.57a2.15 2.15 0 01-1.514-.6 2.059 2.059 0 01-.462-.666 1.958 1.958 0 01-.164-.798v-.666h1.775v.666a.33.33 0 00.106.246.35.35 0 00.255.102h7.57a.35.35 0 00.255-.102.33.33 0 00.106-.246v-2.44a.33.33 0 00-.106-.247.35.35 0 00-.255-.102H52.62a2.176 2.176 0 01-1.515-.601 2.085 2.085 0 01-.462-.666 1.965 1.965 0 01-.164-.798v-2.44a1.973 1.973 0 01.164-.8c.11-.249.266-.475.462-.665.407-.39.951-.604 1.515-.599h7.569c.285-.002.568.051.832.158a2.121 2.121 0 011.142 1.11c.111.25.167.523.165.798l-.01.663zM73.098 3.132a2.161 2.161 0 011.515.6 2.066 2.066 0 01.626 1.463v7.277a1.92 1.92 0 01-.167.796c-.106.25-.263.477-.46.666a2.15 2.15 0 01-1.514.6h-7.57a2.15 2.15 0 01-1.515-.6 2.017 2.017 0 01-.459-.666 1.918 1.918 0 01-.164-.796V5.195a1.936 1.936 0 01.164-.798c.108-.25.264-.476.46-.666.407-.39.95-.604 1.515-.599h7.569zm0 9.677a.35.35 0 00.255-.102.33.33 0 00.106-.244V5.187a.33.33 0 00-.106-.244.353.353 0 00-.255-.105h-7.57a.353.353 0 00-.254.105.33.33 0 00-.107.244v7.276a.33.33 0 00.107.244.35.35 0 00.255.102h7.569zM86.459 3.132h1.777v11.385h-2.105l-7.964-9.109v9.109H76.39V3.132h2.105l7.964 9.107V3.132zM20.806 22.046v-.281c-.419.22-.882.344-1.355.363-.932 0-1.158-.528-1.158-1.35v-2.192h.443v2.191c0 .74.182.994.792.994a3.33 3.33 0 001.271-.337v-2.848h.444v3.46h-.437zM24.65 22.046v-2.194c0-.738-.175-.994-.785-.994-.44.028-.871.141-1.269.333v2.855h-.457v-3.46h.457v.28a3.042 3.042 0 011.311-.371c.983 0 1.207.472 1.207 1.357v2.194h-.463zM26 17.909v-.79h.47v.79H26zm0 4.137v-3.46h.463v3.46h-.464zM29.717 23.377v-1.466c-.358.145-.742.22-1.129.222-.954 0-1.389-.444-1.389-1.664v-.255c0-1.331.533-1.715 1.69-1.715.43 0 .86.028 1.285.084v4.799l-.457-.005zm0-4.48a15.29 15.29 0 00-.834-.032c-.84 0-1.226.21-1.226 1.344v.256c0 .982.272 1.295 1.002 1.295.361-.006.719-.07 1.058-.193v-2.67zM33.542 22.046v-.281c-.42.22-.882.344-1.356.363-.933 0-1.158-.528-1.158-1.35v-2.192h.444v2.191c0 .74.182.994.792.994a3.33 3.33 0 001.271-.337v-2.848h.455v3.46h-.448zM35.157 20.458v.075c0 .79.24 1.23 1.278 1.23.436-.004.872-.036 1.304-.096V22a6.653 6.653 0 01-1.318.126c-1.297 0-1.719-.528-1.719-1.681V20.2c0-1.083.484-1.709 1.58-1.709 1.095 0 1.584.613 1.584 1.755v.209l-2.71.002zm2.232-.406c0-.619-.189-1.194-1.11-1.194-.92 0-1.109.593-1.109 1.194v.055h2.232l-.014-.055zM41.06 23.442a9.404 9.404 0 01-1.331-.11v-.305c.415.033.87.057 1.331.057.834 0 1.01-.255 1.01-.911v-.171a3.97 3.97 0 01-.912.126c-1.059 0-1.607-.419-1.607-1.593v-.443c0-1.092.49-1.595 1.69-1.595.43.007.86.037 1.285.09v3.588c0 .82-.295 1.267-1.466 1.267zm1.01-4.533a7.044 7.044 0 00-.828-.057c-.919 0-1.236.37-1.236 1.238v.443c0 .93.33 1.236 1.158 1.236.305-.005.61-.045.905-.12v-2.74zM45.614 22.046v-.248c-.389.216-.826.33-1.27.33-.744 0-1.137-.306-1.137-.994v-.095c0-.887.626-1.058 1.74-1.058h.645v-.293c0-.676-.16-.836-1.01-.836-.37.003-.74.027-1.108.07v-.305a6.22 6.22 0 011.15-.122c1.214 0 1.438.377 1.438 1.193v2.358h-.448zm-.022-1.741h-.645c-.919 0-1.283.115-1.283.734v.12c0 .48.293.645.772.645.405-.01.801-.118 1.156-.312v-1.187zM51.187 22.046v-2.313c0-.549-.049-.875-.666-.875a2.405 2.405 0 00-1.073.326c.036.18.053.365.048.549v2.313h-.461v-2.313c0-.562-.035-.875-.632-.875a2.442 2.442 0 00-1.06.326v2.862h-.455v-3.46h.454v.272a2.239 2.239 0 011.158-.363c.457 0 .71.148.85.39.366-.24.791-.375 1.229-.39 1.023 0 1.072.665 1.072 1.238v2.313h-.464zM52.533 17.909v-.79h.47v.79h-.47zm0 4.137v-3.46h.464v3.46h-.464zM56.422 22.046v-2.194c0-.738-.175-.994-.785-.994-.441.028-.873.14-1.271.333v2.855h-.457v-3.46h.457v.28a3.05 3.05 0 011.313-.371c.98 0 1.207.472 1.207 1.357v2.194h-.464zM59.075 23.442a9.4 9.4 0 01-1.33-.11v-.305c.414.033.869.057 1.33.057.834 0 1.01-.255 1.01-.911v-.171a3.97 3.97 0 01-.912.126c-1.06 0-1.606-.419-1.606-1.593v-.443c0-1.092.49-1.595 1.69-1.595.43.007.858.037 1.285.09v3.588c0 .82-.295 1.267-1.467 1.267zm1.01-4.533a7.047 7.047 0 00-.828-.057c-.918 0-1.235.37-1.235 1.238v.443c0 .93.33 1.236 1.158 1.236a3.96 3.96 0 00.905-.12v-2.74zM63.643 22.128a6.174 6.174 0 01-1.22-.126v-.326c.4.054.803.086 1.207.095.716 0 .94-.222.94-.572s-.168-.48-.856-.735l-.273-.095c-.73-.268-1.067-.541-1.067-1.031 0-.575.444-.843 1.36-.843.373-.002.745.04 1.11.122v.32a10.051 10.051 0 00-1.094-.079c-.633 0-.921.102-.921.48 0 .323.197.465.787.68l.273.103c.85.326 1.13.548 1.13 1.071.006.49-.302.936-1.376.936zM67.068 22.128c-1.08 0-1.586-.56-1.586-1.63v-.37c0-1.066.506-1.633 1.586-1.633s1.586.567 1.586 1.632v.37c0 1.07-.505 1.631-1.586 1.631zm1.13-1.996c0-.888-.338-1.263-1.13-1.263-.792 0-1.129.378-1.129 1.263v.37c0 .888.337 1.267 1.13 1.267.791 0 1.128-.382 1.128-1.267v-.37zM69.39 22.046V17.12h.458v4.927h-.457zM73.237 22.046v-.281c-.419.22-.882.344-1.355.363-.932 0-1.158-.528-1.158-1.35v-2.192h.444v2.191c0 .74.182.994.792.994a3.33 3.33 0 001.27-.337v-2.848h.465v3.46h-.457zM75.862 22.128c-.646 0-.863-.221-.863-.86v-2.332l-.828-.033v-.317H75v-.937h.457v.932h1.094v.35h-1.094v2.314c0 .444.062.542.455.542.19 0 .47-.014.639-.031v.293a3.966 3.966 0 01-.688.08zM77.097 17.909v-.79h.47v.79h-.47zm0 4.137v-3.46h.464v3.46h-.464zM79.89 22.128c-1.08 0-1.586-.56-1.586-1.63v-.37c0-1.066.506-1.633 1.587-1.633 1.08 0 1.586.567 1.586 1.632v.37c0 1.07-.506 1.631-1.587 1.631zm1.13-1.996c0-.888-.338-1.263-1.13-1.263-.791 0-1.129.378-1.129 1.263v.37c0 .888.335 1.267 1.13 1.267.794 0 1.129-.382 1.129-1.267v-.37zM84.698 22.046v-2.194c0-.738-.176-.994-.786-.994-.44.028-.873.14-1.27.333v2.855h-.458v-3.46h.457v.28a3.05 3.05 0 011.313-.371c.981 0 1.207.472 1.207 1.357v2.194h-.463zM87.07 22.128a6.174 6.174 0 01-1.221-.126v-.326a11 11 0 001.207.095c.716 0 .94-.222.94-.572s-.168-.48-.856-.735l-.273-.095c-.73-.268-1.067-.541-1.067-1.031 0-.575.444-.843 1.36-.843.373-.002.745.04 1.11.122v.32a10.051 10.051 0 00-1.094-.079c-.633 0-.919.102-.919.48 0 .323.195.465.785.68l.273.103c.85.326 1.13.548 1.13 1.071.006.49-.302.936-1.376.936z" fill="#696969"/></svg>
