<svg width="56" height="25" fill="none" xmlns="http://www.w3.org/2000/svg"><path fill-rule="evenodd" clip-rule="evenodd" d="M1.049 15.573h.27c.212 0 .36-.015.443-.046a.394.394 0 00.196-.15.44.44 0 00.07-.254c0-.173-.066-.298-.2-.378-.097-.058-.277-.088-.54-.088H1.05v.916zm-.85-1.744h.902c.487 0 .838.045 1.053.135.216.09.386.236.51.437s.187.442.187.723c0 .312-.082.57-.245.776-.162.207-.383.35-.662.431-.164.047-.462.07-.895.07v1.89h-.85v-4.462zM4.396 15.573h.266c.27 0 .456-.036.558-.107.102-.07.152-.188.152-.352a.419.419 0 00-.278-.41c-.084-.031-.24-.047-.465-.047h-.233v.916zm-.85-1.744h.9c.493 0 .844.044 1.053.132.21.088.377.234.505.438.127.205.19.446.19.725 0 .293-.07.539-.21.736-.14.197-.353.346-.636.447l1.057 1.984h-.928L4.474 16.4h-.078v1.89h-.85v-4.462zM9.073 15.012l-.599 1.532h1.194l-.595-1.532zm-.436-1.183h.861l1.716 4.462h-.883l-.349-.92h-1.82l-.363.92h-.883l1.72-4.462zM15.655 14.557l-.598.591c-.378-.4-.82-.6-1.323-.6-.44 0-.807.145-1.104.437a1.432 1.432 0 00-.444 1.061c0 .43.153.796.461 1.095.308.3.687.45 1.139.45.293 0 .54-.063.742-.186.202-.123.364-.316.487-.58h-1.292v-.797h2.245l.006.188c0 .39-.101.76-.303 1.11-.203.35-.464.617-.786.8-.322.185-.698.277-1.131.277-.463 0-.877-.1-1.24-.302a2.207 2.207 0 01-.86-.86 2.397 2.397 0 01-.318-1.204c0-.59.195-1.104.586-1.54.463-.52 1.065-.78 1.807-.78.389 0 .752.072 1.09.215.284.121.563.33.836.625zM17.134 13.829h.827l1.035 3.112 1.043-3.112h.827l.749 4.462h-.821l-.479-2.818-.948 2.818h-.748l-.94-2.818-.49 2.818h-.828l.773-4.462zM24.284 15.012l-.599 1.532h1.194l-.595-1.532zm-.436-1.183h.861l1.716 4.462h-.882l-.35-.92h-1.82l-.363.92h-.883l1.721-4.462zM26.334 13.829H28.8v.837h-.813v3.625h-.861v-3.625h-.792v-.837zM29.465 18.291h.843v-4.462h-.843v4.462zM35.301 14.613l-.594.566c-.404-.427-.859-.64-1.364-.64-.426 0-.785.145-1.077.437-.292.291-.438.65-.438 1.078 0 .297.065.562.194.792.13.23.312.412.549.544.236.131.499.197.788.197.246 0 .471-.046.675-.138.204-.092.428-.26.673-.503l.576.601c-.33.322-.641.545-.934.67a2.553 2.553 0 01-1.004.186c-.694 0-1.261-.22-1.703-.66-.442-.44-.663-1.003-.663-1.69 0-.446.1-.84.302-1.187a2.25 2.25 0 01.864-.834 2.44 2.44 0 011.212-.315c.368 0 .722.078 1.063.233.34.155.634.377.881.663zM38.993 15.628h.265c.208 0 .353-.015.434-.045a.386.386 0 00.191-.147.434.434 0 00.07-.25c0-.168-.065-.291-.196-.369-.095-.058-.271-.086-.529-.086h-.235v.897zm-.831-1.708h.882c.478 0 .822.044 1.033.132.21.088.377.23.499.428.122.197.183.433.183.708 0 .306-.08.559-.24.761-.16.202-.376.343-.649.422-.16.046-.453.068-.877.068v1.852h-.831V13.92zM41.295 13.92h.832v3.577h1.212v.794h-2.044V13.92zM45.933 15.079l-.586 1.5h1.169l-.583-1.5zm-.427-1.16h.844l1.68 4.372h-.864l-.342-.9h-1.783l-.356.9h-.865l1.686-4.371zM47.419 13.92h.893l.816 1.572.811-1.572h.882l-1.28 2.478v1.893h-.837v-1.893L47.42 13.92zM53.46 15.485h-.298V14.23h-.274v-.29h.854v.29h-.281v1.255zm1.9 0l-.165-.976-.328.976h-.26l-.325-.976-.17.976h-.286l.268-1.545h.286l.358 1.077.361-1.077h.287l.259 1.545h-.285zM45.484 9.659c-2.612.162-1.44 3.564 1.449 3.384 2.824-.175 1.335-3.557-1.45-3.384z" fill="#696969"/><path fill-rule="evenodd" clip-rule="evenodd" d="M44.38 23.506a7.531 7.531 0 110-15.063 7.531 7.531 0 010 15.063zm0-15.949a8.417 8.417 0 100 16.835 8.417 8.417 0 000-16.835zM44.127 1.682c-1.998 1.51-1.65 3.827-1.65 3.827S41.22 2.249 39.59.256c-.22 2.565.584 5.965.584 5.965s-1.022-2.108-3.523-2.226c2.075 1.195 2.88 3.342 3.064 3.919a8.368 8.368 0 014.104-1.242c-.164-.538-.746-2.8.308-4.99z" fill="#696969"/></svg>
