<svg width="46" height="25" fill="none" xmlns="http://www.w3.org/2000/svg"><path d="M2.915.349l.318.002C4.583.37 5.57.509 6.19.768c.67.28 1.198.733 1.584 1.358.387.626.58 1.375.58 2.249 0 .968-.253 1.773-.759 2.414-.506.641-1.193 1.087-2.06 1.339-.51.144-1.436.217-2.782.217v5.874H.114V.349h2.8zm.584 2.583h-.745v2.839h.84c.66 0 1.119-.048 1.376-.142.258-.094.46-.25.608-.467.148-.217.222-.479.222-.787 0-.534-.207-.924-.622-1.17-.302-.181-.861-.273-1.679-.273zM15.55 14.568c.767 0 1.44-.121 2.017-.363a4.18 4.18 0 001.533-1.118c.443-.502.743-1.024.9-1.565.157-.54.236-1.508.236-2.904V.348h-2.65v8.647c0 .93-.064 1.56-.193 1.89-.129.33-.361.603-.698.816-.336.214-.737.32-1.202.32-.44 0-.816-.095-1.127-.287a1.633 1.633 0 01-.67-.768c-.134-.32-.202-.868-.202-1.64V.348h-2.65v8.27c0 1.652.16 2.826.481 3.52.321.695.854 1.274 1.599 1.736.745.462 1.62.693 2.626.693zM26.563 14.568c1.263 0 2.288-.371 3.074-1.113.785-.742 1.178-1.681 1.178-2.82a3.88 3.88 0 00-.335-1.616c-.223-.494-.602-1.01-1.136-1.551-.214-.22-.823-.751-1.83-1.594-1.074-.911-1.718-1.505-1.932-1.782a1.075 1.075 0 01-.236-.66c0-.232.11-.441.33-.627.22-.185.503-.278.849-.278.71 0 1.408.478 2.093 1.433l1.952-1.725C29.84 1.386 29.163.8 28.538.48A4.273 4.273 0 0026.563 0c-1.075 0-1.979.344-2.711 1.032-.733.689-1.099 1.514-1.099 2.476 0 .666.22 1.334.66 2.003.44.67 1.415 1.62 2.923 2.852.792.648 1.305 1.129 1.537 1.443.233.314.35.629.35.943 0 .346-.155.65-.463.915-.308.264-.688.396-1.14.396-.868 0-1.635-.613-2.302-1.839l-2.215 1.339c.521 1.037 1.148 1.798 1.88 2.282.733.484 1.593.726 2.58.726zM36.01 14.219V8.137h4.64v6.082h2.668V.349H40.65v5.233h-4.64V.349h-2.677v13.87h2.677zM3.866 24.578c.692 0 1.295-.147 1.809-.442a3.39 3.39 0 001.256-1.28c.323-.56.485-1.151.485-1.775l-.01-.301H3.817v1.276h2.066c-.197.42-.456.729-.778.926-.322.197-.717.296-1.186.296-.721 0-1.327-.24-1.819-.718a2.351 2.351 0 01-.737-1.75c0-.667.237-1.233.71-1.698.474-.466 1.062-.699 1.764-.699.805 0 1.51.32 2.114.96l.956-.945c-.437-.473-.883-.806-1.339-1a4.403 4.403 0 00-1.741-.344c-1.187 0-2.15.416-2.89 1.247A3.579 3.579 0 000 20.795c0 .688.169 1.33.507 1.925a3.53 3.53 0 001.377 1.375c.58.322 1.241.483 1.982.483zM12.213 17.264l2.745 7.134h-1.411l-.558-1.47h-2.91l-.582 1.47H8.085l2.75-7.134h1.378zm-.679 1.891l-.95 2.45h1.896l-.946-2.45zM16.792 24.398l.78-4.506 1.5 4.506h1.197l1.519-4.506.766 4.506h1.31l-1.203-7.134h-1.31l-1.673 4.976-1.65-4.976H16.7l-1.232 7.134h1.324zM26.201 24.398v-7.134h-1.348v7.134H26.2zM29.092 24.398v-4.68l3.056 4.68h1.304v-7.134h-1.358v4.695l-3.06-4.695h-1.3v7.134h1.358zM38.623 24.578c.692 0 1.295-.147 1.809-.442a3.39 3.39 0 001.256-1.28c.324-.56.485-1.151.485-1.775l-.01-.301h-3.589v1.276h2.067c-.198.42-.457.729-.779.926-.322.197-.717.296-1.186.296-.72 0-1.327-.24-1.819-.718a2.351 2.351 0 01-.737-1.75c0-.667.237-1.233.71-1.698.474-.466 1.062-.699 1.764-.699.805 0 1.51.32 2.114.96l.956-.945c-.437-.473-.883-.806-1.339-1a4.403 4.403 0 00-1.74-.344c-1.188 0-2.151.416-2.892 1.247a3.579 3.579 0 00-.936 2.464c0 .688.17 1.33.507 1.925a3.53 3.53 0 001.377 1.375c.581.322 1.241.483 1.982.483zM43.386 18.678V17.36h.296v-.304h-.896v.304h.288v1.317h.312zM44.07 18.678l.178-1.024.34 1.024h.272l.345-1.024.174 1.024h.297l-.273-1.62h-.297l-.38 1.13-.375-1.13h-.301l-.28 1.62h.3z" fill="#696969"/></svg>
