<svg width="97" height="25" fill="none" xmlns="http://www.w3.org/2000/svg"><path d="M53.596.42a1.41 1.41 0 00-.843-.281c-.461 0-.917.229-1.201.655l-7.908 11.778c-.467.694-.307 1.653.357 2.14.257.189.55.28.843.28.462 0 .916-.227 1.202-.652l7.906-11.78c.467-.693.307-1.652-.356-2.14zM96.45 19.477L88.005 1.075A1.464 1.464 0 0086.68.2c-.212 0-.428.049-.634.152-.73.367-1.039 1.284-.688 2.05l8.444 18.405c.252.551.777.872 1.325.872.213 0 .428-.049.635-.152.73-.367 1.04-1.284.688-2.05zM78.008 7.69c.011-.08.024-.16.024-.244V5.712c0-.057-.011-.111-.016-.167l.002-.032c0-2.93-2.276-5.313-5.072-5.313-.008 0-.016.003-.023.003-.01 0-.016-.003-.025-.003h-3.65c-.811 0-1.467.689-1.467 1.537 0 .85.656 1.537 1.467 1.537h3.655l.021-.001.022.001c1.178 0 2.137 1.005 2.137 2.239 0 .057.01.11.016.166l-.003.033v1.626c-.005.044-.014.087-.014.133 0 1.233-.958 2.238-2.136 2.238l-.022.001-.02-.001h-3.656c-.811 0-1.468.687-1.468 1.536s.657 1.537 1.468 1.537h3.65c.008 0 .016-.004.023-.004.01 0 .016.004.025.004 2.726 0 4.95-2.265 5.062-5.092zM60.243.2c-2.796 0-5.072 2.384-5.072 5.313 0 .848.658 1.536 1.468 1.536.81 0 1.468-.688 1.468-1.536 0-1.234.959-2.239 2.136-2.239 1.179 0 2.138 1.005 2.138 2.239 0 .848.657 1.536 1.468 1.536.81 0 1.468-.688 1.468-1.536C65.317 2.583 63.04.2 60.244.2zM63.849 14.837c-.811 0-1.468.689-1.468 1.538 0 1.233-.96 2.237-2.138 2.237s-2.136-1.004-2.136-2.237c0-.849-.657-1.538-1.468-1.538-.81 0-1.468.689-1.468 1.538 0 2.927 2.276 5.31 5.072 5.31 2.798 0 5.074-2.383 5.074-5.31 0-.849-.657-1.538-1.468-1.538zM5.073.2C2.277.2 0 2.584 0 5.513c0 .848.657 1.536 1.468 1.536.81 0 1.468-.688 1.468-1.536 0-1.234.959-2.239 2.137-2.239S7.21 4.28 7.21 5.513c0 .848.657 1.536 1.468 1.536.811 0 1.468-.688 1.468-1.536C10.146 2.583 7.87.2 5.073.2zM8.678 14.837c-.811 0-1.468.689-1.468 1.538 0 1.233-.959 2.237-2.137 2.237s-2.137-1.004-2.137-2.237c0-.849-.658-1.538-1.468-1.538-.811 0-1.468.689-1.468 1.538 0 2.927 2.277 5.31 5.073 5.31.403 0 .794-.055 1.172-.146l1.127 2.163c.26.498.745.785 1.25.8l.04.001c.24 0 .479-.061.702-.188.713-.408.975-1.341.586-2.085l-1.17-2.243a5.421 5.421 0 001.366-3.612c0-.849-.657-1.538-1.468-1.538zM39.966 14.837c-.81 0-1.468.689-1.468 1.538 0 1.233-.959 2.237-2.137 2.237s-2.137-1.004-2.137-2.237c0-.849-.656-1.538-1.468-1.538-.81 0-1.468.689-1.468 1.538 0 2.927 2.276 5.31 5.073 5.31 2.797 0 5.074-2.383 5.074-5.31 0-.849-.658-1.538-1.469-1.538zM21.434 14.837c-.81 0-1.467.689-1.467 1.538 0 1.233-.96 2.237-2.138 2.237s-2.136-1.004-2.136-2.237c0-.849-.657-1.538-1.468-1.538-.81 0-1.469.689-1.469 1.538 0 2.927 2.276 5.31 5.073 5.31 2.796 0 5.073-2.383 5.073-5.31 0-.849-.657-1.538-1.468-1.538zM36.361.2c-2.797 0-5.073 2.384-5.073 5.313 0 .848.658 1.536 1.468 1.536.812 0 1.468-.688 1.468-1.536 0-1.234.96-2.239 2.137-2.239 1.178 0 2.137 1.005 2.137 2.239 0 .848.659 1.536 1.468 1.536.811 0 1.469-.688 1.469-1.536 0-2.93-2.277-5.313-5.074-5.313z" fill="#696969"/><path d="M56.64 7.923c-.086 0-.17-.007-.255-.015l5.248 7.818c.273-1.015 1.161-1.763 2.216-1.763.065 0 .131.006.198.01L58.839 6.22c-.288.986-1.165 1.704-2.2 1.704zM46.313 7.077v-5.34C46.313.89 45.655.2 44.844.2c-.81 0-1.468.689-1.468 1.537v9.712l2.937-4.372zM32.756 13.963c.558 0 1.07.21 1.47.556V7.367c-.4.346-.912.556-1.47.556a2.232 2.232 0 01-1.466-.553v7.148c.398-.346.91-.555 1.466-.555zM96.619 17.828V1.738c0-.85-.656-1.538-1.467-1.538-.812 0-1.469.689-1.469 1.537v9.693l2.936 6.398zM69.248 8.834h1.471V4.149h-1.471a2.238 2.238 0 01-1.465-.552v5.788c.4-.343.91-.551 1.465-.551zM81.396.2c-.811 0-1.469.689-1.469 1.537v18.408c0 .85.658 1.537 1.47 1.537.811 0 1.466-.687 1.466-1.537V1.737C82.863.89 82.208.2 81.396.2zM44.844 15.866c-.477 0-.934-.152-1.324-.438-.05-.036-.096-.078-.144-.118v4.835c0 .85.658 1.537 1.468 1.537.811 0 1.469-.687 1.469-1.537V15.31a2.25 2.25 0 01-1.47.556zM27.092.2c-.81 0-1.467.689-1.467 1.537v18.408c0 .85.658 1.537 1.467 1.537.811 0 1.469-.687 1.469-1.537V1.737C28.561.89 27.903.2 27.092.2zM49.853 10.187l-1.94 2.887 3.51 7.728c.252.555.778.877 1.327.877.21 0 .425-.048.63-.148.732-.365 1.042-1.282.694-2.049l-4.22-9.295zM85.214 4.105v16.04c0 .85.657 1.537 1.468 1.537.81 0 1.467-.687 1.467-1.537v-9.642l-2.935-6.398zM69.248 13.656a2.252 2.252 0 01-1.465-.55v7.04c0 .849.657 1.536 1.468 1.536.81 0 1.468-.687 1.468-1.537v-6.489h-1.471zM14.225 13.963c.558 0 1.07.21 1.47.556V1.737c0-.848-.66-1.537-1.47-1.537-.81 0-1.469.689-1.469 1.537v12.78a2.24 2.24 0 011.47-.554zM21.434 13.963c.557 0 1.069.21 1.467.555V1.738c0-.85-.656-1.538-1.467-1.538s-1.467.689-1.467 1.537V14.52c.399-.347.91-.556 1.467-.556zM1.468 13.963c.557 0 1.071.21 1.47.556V7.367a2.232 2.232 0 01-1.47.556A2.23 2.23 0 01.001 7.37v7.148c.399-.346.91-.555 1.467-.555zM8.678 7.923c-.558 0-1.07-.21-1.468-.556v7.152c.398-.347.91-.556 1.468-.556.557 0 1.068.21 1.467.555V7.37a2.24 2.24 0 01-1.467.553z" fill="#696969"/></svg>
