<svg width="176" height="48" xmlns="http://www.w3.org/2000/svg" xmlns:xlink="http://www.w3.org/1999/xlink"><defs><path id="a" d="M0 0h46.164v48H0z"/><path id="c" d="M.09.103h17.966v27.43H.09z"/><path id="e" d="M.078.11h18.686v27.41H.078z"/></defs><g fill="none" fill-rule="evenodd"><mask id="b" fill="#fff"><use xlink:href="#a"/></mask><path fill="#000" mask="url(#b)" d="M6 23h34v12H6z"/><path d="M27.598 34.214l.067.11c.173-.038.348-.07.52-.116 2.06-.555 4.117-1.124 6.181-1.662.518-.135.895-.397 1.159-.854.317-.55.644-1.092.966-1.638.883-1.493 1.767-2.986 2.648-4.48.08-.136.143-.283.215-.425l-.095-.076c-3.95 2.967-7.807 6.051-11.661 9.141m-9.035.118l.03-.063c-.119-.106-.234-.218-.358-.317-2.117-1.695-4.226-3.399-6.354-5.078-1.526-1.203-3.077-2.373-4.62-3.554-.118-.091-.225-.231-.462-.207.175.317.319.597.479.867 1.1 1.855 2.22 3.699 3.299 5.567.318.553.742.893 1.337 1.052 2.105.562 4.21 1.124 6.315 1.684.108.029.222.033.334.049M.152.087c.41.416.822.828 1.227 1.248 2.364 2.455 4.726 4.91 7.088 7.366.846.88 1.7 1.753 2.533 2.647.25.27.466.322.82.19a31.679 31.679 0 018.647-1.902c4.776-.374 9.419.224 13.916 1.9.326.121.536.098.786-.164 1.756-1.846 3.529-3.676 5.296-5.512 1.547-1.608 3.093-3.217 4.642-4.824C45.428.703 45.76.38 46.138 0c.01.17.022.283.022.396.002 8.678.001 17.356.004 26.035 0 .863-.325 1.62-.738 2.348-.897 1.582-1.989 3.028-3.147 4.42-1.6 1.924-3.26 3.8-4.867 5.719-1.161 1.387-2.28 2.81-3.414 4.22-.635.79-1.316 1.533-2.084 2.195-1.515 1.305-3.288 2.055-5.237 2.372-2.483.404-4.97.402-7.449-.065-2.437-.46-4.483-1.625-6.116-3.494-.823-.942-1.573-1.947-2.377-2.905a579.384 579.384 0 00-4.42-5.21c-1.77-2.06-3.538-4.119-5.013-6.41-.5-.777-.968-1.57-1.167-2.487a4.947 4.947 0 01-.133-1.03C-.003 18.756.001 11.408.005 4.06.006 2.911.02 1.762.027.613V.128L.152.087" fill="#FFD400" mask="url(#b)"/><path d="M60.33 16.799v7.82c1.662-.698 3.05-1.47 3.97-2.894.374-.58.344-1.215.011-1.815-.856-1.54-2.298-2.303-3.98-3.111m12.577 20.868c-2.574 0-4.92-.005-7.268.005-.539.002-.753-.352-.967-.75-1-1.86-2.005-3.717-3.013-5.572-.353-.65-.72-1.291-1.213-1.907-.284 1.345-.179 2.674-.198 3.996-.02 1.346-.004 2.692-.004 4.206-2.62.052-5.106.046-7.75.003-.12-9.1.092-18.082.055-27.166.544-.034.93-.08 1.314-.08 3.35-.006 6.699-.027 10.047.017a5.09 5.09 0 011.943.445c2.283 1.014 4.054 2.645 5.396 4.746 1.551 2.429 1.651 4.965.37 7.499-.643 1.271-1.483 2.453-2.323 3.61-.484.668-.538 1.229-.205 1.972 1.14 2.544 2.225 5.113 3.325 7.675.153.358.276.728.491 1.301M106.2 26.532c-.022 1.922-.048 3.672.016 5.637 1.253-.632 2.217-1.278 2.94-2.247.272-.363.242-.762-.02-1.11-.724-.955-1.619-1.695-2.937-2.28m.07-9.887v5.594c1.211-.587 2.149-1.279 2.88-2.24.273-.36.27-.75.01-1.111-.713-.988-1.682-1.633-2.89-2.243m7.68 8.005c.778.914 1.486 1.72 2.164 2.551.326.4.631.824.881 1.273.744 1.337.687 2.656-.133 3.956-.91 1.439-2.148 2.56-3.455 3.61-2.019 1.623-2.025 1.614-4.644 1.614h-9.384c-.275-.98-.346-25.742-.1-27.307.272-.04.574-.123.876-.124a1031.4 1031.4 0 0110.522.009c.41.003.894.115 1.217.35 2.004 1.462 3.556 3.295 4.435 5.651.634 1.701.61 3.355-.315 4.949-.659 1.133-1.34 2.253-2.064 3.468m-30.502 2.405c1.394.033 2.544.21 3.79-.144a66.423 66.423 0 00-1.776-5.616c-.226.48-.342.676-.412.886-.512 1.539-1.014 3.08-1.602 4.874M81.67 10.293h6.005c.547 0 .728.368.877.817.439 1.323.908 2.637 1.357 3.957 2.4 7.056 4.799 14.112 7.194 21.169.138.407.242.826.38 1.303-.276.06-.46.135-.645.136-2.034.007-4.068.011-6.102-.003-.964-.007-.978-.022-1.24-.919-.235-.802-.47-1.609-.634-2.427-.121-.607-.39-.904-1.032-.897-1.755.02-3.51.02-5.265.007-.565-.004-.876.225-1.013.78-.277 1.116-.591 2.222-.904 3.383h-7.045c.758-3.118 1.775-6.076 2.636-9.076.867-3.026 1.807-6.031 2.708-9.048.899-3.013 1.788-6.029 2.723-9.182m67.03 11.242l-.3.003a67.639 67.639 0 00-1.778 5.483c1.328.115 2.478.186 3.788-.06l-1.71-5.426m11.936 16.067h-7.8l-1.1-4.083c-.525-.033-.993-.084-1.461-.087-1.515-.008-3.03.016-4.546-.003-.62-.009-.943.249-1.087.848-.26 1.082-.565 2.154-.872 3.308h-7.074c.114-.461.19-.835.298-1.2 2.437-8.168 4.878-16.337 7.318-24.505.057-.191.104-.385.167-.574.323-.98.34-1.013 1.323-1.023 1.828-.018 3.657-.005 5.585-.005l9.249 27.324" fill="#FFD400"/><g transform="translate(118.06 10.167)"><mask id="d" fill="#fff"><use xlink:href="#c"/></mask><path d="M17.961.25v6.737c-.466.027-.853.067-1.24.068-1.755.007-3.51.011-5.265 0-.537-.004-.99.091-1.41.49-2.56 2.424-4.175 8.706-.384 12.631.588.609 1.208.938 2.093.904 1.633-.065 3.27-.019 4.906-.019h1.153c.288.97.33 4.975.07 6.353-.35.031-.732.093-1.115.094-3.072.011-6.144-.006-9.215.026-.807.008-1.448-.227-2.06-.756C1.708 23.506.008 19.33.092 14.387c.054-3.15.683-6.172 2.174-8.982A15.94 15.94 0 015.879.833c.49-.43 1.013-.734 1.71-.73 3.151.02 6.303.006 9.454.014.272.001.543.076.918.133" fill="#FFD400" mask="url(#d)"/></g><g transform="translate(156.368 10.167)"><mask id="f" fill="#fff"><use xlink:href="#e"/></mask><path d="M18.764.258v7.787h-5.423c-.174 6.506-.063 12.865-.281 19.386-2.431.15-4.794.074-7.292.047-.037-.545-.094-1.004-.097-1.464-.032-5.42-.055-10.84-.086-16.261-.003-.51-.053-1.02-.089-1.67H.276c-.079-.428-.18-.728-.183-1.028a327.595 327.595 0 01-.004-5.74C.1.245.21.12 1.247.118c5.5-.014 11-.009 16.501-.001.307 0 .613.083 1.016.141" fill="#FFD400" mask="url(#f)"/></g></g></svg>
