<svg width="155" height="25" fill="none" xmlns="http://www.w3.org/2000/svg"><path fill-rule="evenodd" clip-rule="evenodd" d="M147 2l5 1 1 2-2 1c-3-2-6-1-9 0-3 3-4 8-1 12 2 2 7 3 10 1l2 1-1 2c-3 2-7 2-10 0-3-1-4-3-5-5-3-6 0-14 8-15h2zM55 13l2 2-2 2h-5l2 1h3l1 1v4h-2l-5-3-2-1-4-3v-1l1-2h11zM81 3v18l-1 2c-1 0-2 0-2-2a4998 4998 0 011-19l2 1zm47-1l2 1v19a2 2 0 01-4 0V3l2-1zM11 14l4 7-1 2c-1 1-2 0-2-1l-5-7 2-1h2zM23 2h8l2 1v1l-1 1h-5v1l3 3 2 1 1 2-2 1h-6v6l1 1a157 157 0 017 0l1 2-2 1h-8c-2 0-2 0-2-2a2683 2683 0 012-11h3-1l-2-3-3-2V3l2-1zm86 0h9l1 1 1 2-1 1h-7l2 1v1l1 2v11l-1 2-2-2v-5a341 341 0 01-1-7l-4-3V3l2-1zM96 2l3 1 1 2-3 1-3-1-2 2 1 2h1l4 2c5 2 5 8 2 10-2 2-3 2-5 2h-3c-3-1-5-4-4-7l1-3 3-1v2l-1 2c-1 2 0 3 2 4l4-1c2 0 2-3 0-4l-1-1-1-1-2-2h-2v-1h-1V4c2-2 4-3 6-2zM11 4c2 0 3 2 3 4l-2 4c-2 2-4 2-6 2l-1 2v5l-2 2-1-2a656 656 0 011-10h5c2 0 3-1 3-3l-1-1-3-1H6l2 4H5L2 6C1 4 2 3 3 3l8 1zm31 12l3 2-2 4-2 1-1-2 2-5zM64 2l2 2v15l1 1h3l2 1-1 2h-7l-2-2a26217 26217 0 012-19zm30 12l2 2v2h-3l-1-1 2-2v-1zM49 2l1 2 3 8v1h-1-2v-1l-1-3-2 3-1 1h-3l2-5 2-5 2-1z" fill="#696969"/><path fill-rule="evenodd" clip-rule="evenodd" d="M49 0l3 3 3 8v1c2 0 3 1 3 2 1 1 0 2-1 3v1l1 3-1 3h-4l-6-4h-1l-1 1v1l-4 3c-2-1-3-3-2-5l1-4 5-13c1-2 2-3 4-3zm79 0c2 0 3 2 3 4a8163 8163 0 01-1 21l-4-1-1-2v-9-9c0-2 1-4 3-4zm19 0l6 2c2 1 2 3 1 4-1 2-2 2-4 1s-5-1-7 1c-2 1-3 4-2 7 1 2 3 3 5 3h4c1-1 3-1 4 1 1 1 1 3-1 4l-5 2c-5 0-11-2-13-8-3-7 1-15 10-17h2zM81 1l2 2v18c0 2-1 4-3 4s-4-2-4-4V4c0-3 3-4 5-3zM23 1h9l3 2-2 4h-2v1l2 1c1 1 2 3 1 4l-3 2h-4v3h5c2 0 4 2 4 4 0 1-2 3-4 3h-9c-2 0-3-2-3-4v-8c0-2 0-4 3-4l-3-3-1-3c1-2 2-2 4-2zM11 2c5 2 6 8 2 11v2l3 5c1 2 0 3-1 4-2 1-4 1-5-1l-3-6H6v5c0 2-1 3-3 3-1 0-3-1-3-3V12c0-1 1-2 3-2L1 7V6L0 5c0-2 1-3 3-4l8 1zm107-1c2 0 4 1 4 3s-2 3-4 3h-2l1 5v9c0 3-2 4-4 4l-3-3V11v-1l-4-4-1-3 4-2h9zm-18 1c2 1 2 3 1 4-1 2-3 2-4 1h-1-2l1 1h1l4 2c3 3 4 6 3 9s-4 5-7 6l-4-1c-5-1-7-5-5-10l1-3v-1c-2-4 0-9 6-10l6 2zM64 0c2 0 3 2 3 4v14h3c2 0 3 1 3 2 1 2 0 3-1 4h-8c-2 0-3-1-3-3V4c0-2 1-4 3-4zm81 2a11 11 0 00-3 20c3 2 7 2 10 0l1-2-2-1c-3 2-8 1-10-1-3-3-2-9 1-12 3-1 6-2 9 0l2-1c1-1 0-1-1-2l-5-1h-2zM55 13H44l-1 2v1l4 3 7 4h2v-2-2l-2-1h-2l-2-1h5l2-2-2-2zM79 2l-1 2a4998 4998 0 002 19l1-2V7a632 632 0 00-2-5zm49 0l-2 1v19l2 1 2-1V12 3l-2-1zM10 14l-2 1 2 4 2 3c0 1 1 2 2 1l1-2a262 262 0 00-5-7zM23 2l-2 1v2l5 5h1-3c-2 0-2 1-2 2a2682 2682 0 002 11h8l2-1-1-2h-7l-1-1v-5-1h6l2-1-1-2-5-4V5h5l1-1V3l-2-1h-8zm89 0h-3l-2 1v3l2 1 2 2 1 2v10l2 2 1-2V10l-1-2-2-2h7l1-1-1-2-1-1h-6zM90 4v6l1 1h2c0 2 1 2 3 3l1 1c2 1 2 4 0 4l-4 1c-2-1-3-2-2-4l1-2v-2l-3 1-1 3c-1 3 1 6 4 7h3c2 0 3 0 5-2 3-2 3-8-2-10l-5-2-1-2 2-2 3 1 3-1-1-2h-1l-2-1c-2-1-4 0-6 2zM3 3C2 3 1 4 2 6a166 166 0 003 4h3L6 6h2l2 1 1 1c0 2-1 3-3 3H3l-1 2a667 667 0 001 10c1 0 2 0 2-2v-6l1-1c2 0 4 0 6-2l2-4c0-2-1-4-3-4L3 3zm39 13l-2 5 1 2 2-1 2-4-3-2zM64 2c-1 0-2 0-2 2v17l2 2a156 156 0 007 0l1-2-2-1h-3l-1-1v-8-7l-2-2zm30 12l-1 3v1h3l1-2-3-2zM47 3l-2 5-2 5h3l1-1 2-3v2l1 1v1h4l-1-1-1-4a352 352 0 01-3-6l-2 1z" fill="#484848"/></svg>
