<svg width="40" height="25" fill="none" xmlns="http://www.w3.org/2000/svg"><path fill-rule="evenodd" clip-rule="evenodd" d="M18.68 11.54c.27-.08.48-.1.66-.2.42-.23.68-.86.58-1.34a.72.72 0 00-.79-.57c-.05 0-.12.09-.14.15-.04.16-.06.33-.09.5l-.22 1.46zm-2.9 4.38l.36-2.32.89-5.73c.01-.1 0-.22.17-.21l2.97.07c.14 0 .28.03.42.07 1.15.26 1.73 1.06 1.57 2.24-.05.36-.12.72-.24 1.06-.23.63-.48.86-1.39 1.4l1.12 3.42H19.5c-.2.01-.27-.03-.31-.24l-.6-2.96c-.01-.06-.04-.12-.08-.22l-.33 2.27-.16.98c-.01.07-.09.16-.13.16-.7.02-1.39.01-2.11.01zM3.34 11.52c.22-.04.4-.05.56-.12.46-.2.77-.81.7-1.35a.66.66 0 00-.53-.6c-.36-.1-.4-.06-.46.3l-.03.18-.24 1.6zm2.96 4.4H4.13c-.17 0-.24-.04-.28-.22-.18-.96-.38-1.91-.58-2.87a.74.74 0 00-.11-.29l-.5 3.36H.44l1.27-8.19.06-.03c1.12 0 2.25-.1 3.37.1 1.18.22 1.74.9 1.67 2.1-.03.44-.13.9-.28 1.31-.23.62-.7 1.04-1.36 1.28l1.13 3.45zM12.06 13.94c.49 0 .8-.24 1.01-.58.56-.93.7-1.94.51-2.99a.78.78 0 00-.53-.62c-.27-.1-.33-.06-.38.23l-.39 2.5-.22 1.46zm-2.51 1.94l.3-1.94.93-6c.03-.21.1-.29.3-.28.66.02 1.3 0 1.96.02 1.75.1 2.81 1.15 2.9 2.89a6.27 6.27 0 01-.73 3.3 3.58 3.58 0 01-2.97 2c-.86.07-1.73.03-2.6.04l-.1-.03zM33.79 7.67l-.68 1.12c-.52.87-1.04 1.75-1.57 2.61a.56.56 0 00-.07.51c.4 1.24.78 2.49 1.17 3.73l.07.26-.23.02h-1.9c-.2.01-.27-.07-.3-.25l-.67-3.21a.53.53 0 00-.11-.24l-.25 1.54-.3 1.98c-.02.07-.12.17-.18.17-.66.02-1.32.01-1.98 0l-.09-.02.21-1.36c.34-2.2.69-4.41 1.02-6.62.03-.2.1-.26.3-.26.56.02 1.12 0 1.68 0l.29.02-.53 3.38.05.01.1-.17 1.5-3c.1-.19.2-.24.4-.24.6.02 1.2 0 1.79 0l.28.02z" fill="#696969"/><path fill-rule="evenodd" clip-rule="evenodd" d="M24.38 9.75h-.04l-1.02 3.35h.94l.12-3.35zm1.7-2.05l.47 8.2h-2.3v-1.04l-1.42.01c-.05 0-.12.1-.14.16-.1.24-.16.5-.26.73-.03.07-.14.16-.2.15-.08 0-.2-.08-.23-.15l-.8-2.4c-.01-.06-.03-.14 0-.2.15-.35.24-.74.53-1.05.58-.6.78-1.37.83-2.2 0-.14.04-.3.09-.43.2-.55.42-1.09.64-1.63.04-.08.14-.18.22-.18H26c.01 0 .03 0 .07.03zM38.43 7.68l-.28 1.79c0 .05-.14.12-.21.12h-1.72l-.18 1.17h1.71c-.07.48-.13.93-.21 1.38-.1.56-.1.56-.68.56h-1.13l-.2 1.28h1.91l-.28 1.92h-4.14l.16-1.05 1.08-6.97c.02-.13.03-.23.21-.23h3.78l.18.03zM7.55 13.99h1.9c-.09.62-.17 1.21-.27 1.8 0 .05-.1.12-.14.12h-2.2c-.06 0-.15-.05-.17-.1l-.98-3c-.02-.05.03-.16.08-.19C7 11.94 7.4 10.26 7.15 9.1c-.1-.48-.35-.87-.74-1.18-.05-.04-.07-.12-.1-.18.05-.02.1-.07.16-.07h3.83l.14.03-.28 1.9c-.55 0-1.07.02-1.6 0-.26-.02-.36.07-.38.33-.03.27-.08.54-.13.85h1.72l-.3 1.93h-1c-.24 0-.54-.06-.7.06-.13.12-.1.44-.14.66l-.08.57zM20.73 17.5l1.77.55 3.42 1.04c.14.04.28.11.4.2 1.55 1.17 3.1 2.35 4.63 3.53.1.08.2.2.25.33.18.45.34.9.52 1.4l-.22-.08-10-5.23c-.07-.05-.17-.12-.2-.2-.2-.49-.37-.98-.57-1.53zM36.7 6.33c-.32-.95-1.54-1.5-2.5-1.31l.14-.22c.68-1.03 1.38-2.04 2.05-3.08a.98.98 0 01.99-.49c.6.05 1.12.3 1.51.77.29.35.29.63.04 1l-2.08 3.12-.15.21z" fill="#696969"/><path fill-rule="evenodd" clip-rule="evenodd" d="M33.1 6.77c.03-.1.06-.2.11-.28.2-.3.4-.58.58-.88.19-.33.48-.46.83-.46a2.1 2.1 0 011.68.81c.15.2.25.43.16.68-.02.07-.13.17-.2.17h-3.1l-.07-.04zM26.89 19.47l-.87-.64.82-1.23c.17-.25.3-.58.53-.7.23-.13.58-.05.88-.05h.4l-1.76 2.62zM39.32 2.42c-.26-.84-1.36-1.53-2.5-1.33.14-.22.26-.45.43-.62.12-.12.3-.22.47-.24.76-.1 1.4.18 1.88.77.28.34.27.6.02.97l-.3.45zM5.76 18.05l-.25 1.32c-.01.06-.07.12-.1.18-.03 0-.05-.02-.08-.03v-.16l.35-1.94c.01-.08.1-.14.15-.2l.09.04.14 1.75.05.02.18-.4c.17-.41.33-.82.51-1.22.04-.08.13-.13.2-.2l.09.06-.42 2.22c0 .02-.08.02-.17.05l.26-1.52L6.7 18l-.65 1.55-.1-.02-.12-1.47h-.07zM31.95 24.6l-.58-1.56c.46-.29 1.06-.26 1.36.04.11.12.15.21.04.36l-.76 1.12-.06.04zM11.63 18.04l-.22 1.26c-.02.1-.09.17-.13.25l-.1-.04.18-1.02.2-1.09c.02-.16.1-.19.24-.12l.14 1.5H12l.19-1.04c.02-.12.02-.23.06-.35.01-.06.07-.1.1-.16l.09.03-.17.97c-.06.37-.12.74-.2 1.1-.02.08-.1.14-.14.2-.04-.07-.12-.13-.13-.2l-.09-1.18c0-.04-.02-.07-.03-.1h-.05zM.9 17.92c.02-.14.04-.21.03-.27l-.14-.25c-.1.05-.2.1-.28.16-.04.03-.04.1-.05.17l-.24 1.35c-.02.13-.02.28.14.29.1 0 .27-.11.29-.2.04-.24.23-.49.02-.74l.27-.16.08.07c-.07.32-.11.65-.2.96-.07.23-.35.32-.61.25-.25-.07-.22-.26-.19-.44l.26-1.48c.04-.22.15-.4.4-.4.14-.01.35.02.41.12.07.12.02.31 0 .47 0 .03-.1.06-.18.1zM15.07 18.3l-.15.84c-.06.33-.25.46-.59.42-.2-.02-.31-.13-.28-.33.1-.57.19-1.15.31-1.71.06-.28.46-.41.7-.27.22.14.12.35.1.53-.01.05-.1.08-.16.13l-.05-.06c.01-.05.04-.11.02-.16-.03-.1-.08-.2-.12-.29-.1.06-.25.1-.3.2-.07.12-.07.28-.1.43l-.18 1.03c-.02.14-.03.31.15.3.1 0 .26-.11.28-.2.04-.23.15-.45.05-.73-.08-.23.18-.08.32-.14zM3.27 18.77l.06.1c.12-.06.35-.1.36-.16.03-.43.02-.86.02-1.34l-.44 1.4zm.41.28c-.45-.07-.45-.07-.6.32-.02.07-.1.12-.15.18l-.07-.05.06-.23c.19-.59.4-1.17.57-1.76.07-.23.17-.32.44-.23v.42c-.01.51-.02 1.03-.05 1.54 0 .1-.07.2-.11.29l-.09-.27v-.21zM9.3 17.29l-.37 2.06c-.01.07-.07.13-.11.2l-.1-.04.1-.62.27-1.5c0-.06.09-.1.13-.16l.08.06zM21.01 17.42c.4-.28 1.02-.23 1.3.1.05.05.06.14.08.21-.07.02-.15.06-.22.04-.36-.1-.71-.2-1.07-.32l-.09-.03z" fill="#696969"/></svg>
