<svg width="94" height="25" fill="none" xmlns="http://www.w3.org/2000/svg"><path d="M25 14v-1 2l-1 3v1l-1 1-1 1v-1l1-2 1-3h-1v-1-2l1-1-1 1v1l-1 1v-1 4h-1v2l-1 1v-1-1l1-1v-1-1h-1v-1h-1l-1-1h3l1-1h-2v-1h2v-1h-1l1-2 1-1V5v1h1l1-1h-1V4l1-1V2 1 0h-1l-2 1-3 1h-1l-3-1h-5L8 2H6L2 0H1L0 1v1l1 2 1 1H1v1h1l1-1v3l1 1v1h0v1h1v1H4v1h4-1l-2 1v5l-1-2v-1s-1 0 0 0v-1-1l-1-1v-1l-1-1v1l1 2v1H2l1 2 1 3v1l-1-1-1-1v-1l-1-3v-1-1H0v5l1 1 1 1 1 3h1l1 2v-1-1-1h1v2h1l1-1h2a3 3 0 00-2 0H7v-1l1-1v-1l-1-2H6v-2l1-2h1l1 1H8l-1-1 1 1 1 1v0H7l1 1H7v1h2l3-1h1v-1l-1-1-2-1-1-1 1-1-1-1v-1H8V9L6 8 5 7V6 5v1l1 1h2l1 1 1 1 1 1V9 8l-1-1-1-1H8h1l1-1H8 6V4h3a18 18 0 002-1H9 8l2-1h7l1 1h-3l1 1h3l-1 1h-3l1 1h2-2-1 1v1h-1v3l1-1V8l1-1h2l1-1 1-1v2l-2 2-2 1-1 1v3l-2 1-1 1v1h1l2 1v1l1-1h1v-1h-1l1-1-2 1v-1h1l1-1v-1l-1 1h-1l2-1a4 4 0 011 2v2l-1 2v3h-1a2 2 0 00-1 0h2l1 1v-1-1h1v3h1v-1l1-1 1-1 1-2 1-2 1-2-1-2zM6 2H3l1 1h1-1v2a9 9 0 002 4l1 1H6L5 9 4 7 3 5V4 3 2h3zm13 8l1-1V8h1l1-3V4 3h-1l1-1h-2-1 4v2l-1 1v2l-2 2-1 1zM8 8h1v1H8 7V8h1zm10 0v1h-1V8h1zm-7 4v1h2a6 6 0 001 0l1-1v1l-1 1h-2l-1-1h-1l1-1zm2 7h2l1 1 2 2h-1l-1-1v1l-2 1h-1v-1 1h-3v-1H9v-1l-1 1v-1l2-2h3zM73 7l3 1 1 1v1h-1l-1 1-1-1h-3l-1 1v2l1 2h3l1-1h-1-1v-1-1a589 589 0 004 2l-1 2-3 1h-1l-3-1-1-2v-2l1-3 4-2zM39 8h4v2h-2-1v1h3v2h-2-1v2h3v2h-5V8h1zM57 8h6v2h-2v7h-2v-7h-2V8zM66 8v9h-2V8h2zM80 8h4v2h-2-1v1h3v2h-2-1v2h3v2h-5V8h1zM31 8h3l2 1v3l-2 1 1 1 2 3h-2-1l-1-3-1-1v4h-2V8s-1 0 0 0h1zm1 1v3h1l1-1v-1l-2-1zM87 8h4l1 1v3l-2 1 1 1 1 1 1 2h-3l-2-4v4h-3V8h2zm1 1v3h1l1-2-1-1h-1zM45 8h4l2 1 1 1 1 1a5 5 0 01-2 5l-1 1h-5v-1-8zm3 2h-1v5l2-1 1-1 1-1-1-1-2-1h-1 1z" fill="#696969"/></svg>
