<svg width="78" height="25" fill="none" xmlns="http://www.w3.org/2000/svg"><path d="M4.48 21.71c0 .9-.23 1.5-.75 1.94-.3.3-.75.38-1.34.38-.75 0-1.27-.3-1.72-.82a2.69 2.69 0 01-.52-1.65c0-.74.15-1.34.6-1.86.22-.22.44-.45.67-.6.3-.15.6-.22.97-.22s.67.07 1.04.15c.3.07.52.22.67.45.08.07.08.14.08.22 0 .07 0 .15-.08.22-.07.08-.15.08-.22.08s-.15 0-.22-.08c-.23-.15-.38-.3-.53-.37-.22-.07-.37-.15-.67-.15-.52 0-.97.22-1.27.67-.22.38-.37.82-.37 1.35 0 .74.22 1.26.6 1.71.22.23.52.37.9.37.22 0 .52-.07.74-.14.52-.23.82-.75.82-1.42v-.23h-.9c-.14 0-.3-.07-.3-.3 0-.22.08-.3.3-.3H4.1c.23 0 .38.23.38.53v.07zM77.23 21.71c0 .9-.22 1.5-.75 1.94-.3.3-.74.38-1.34.38-.75 0-1.27-.3-1.72-.82a2.69 2.69 0 01-.52-1.65c0-.74.15-1.34.6-1.86.22-.22.45-.45.67-.6.3-.15.6-.22.97-.22s.67.07 1.05.15c.3.07.52.22.67.45.07.07.07.14.07.22 0 .07 0 .15-.07.22-.08.08-.15.08-.23.08-.07 0-.15 0-.22-.08-.22-.15-.37-.3-.52-.37-.23-.07-.38-.15-.67-.15-.53 0-.97.22-1.27.67-.23.38-.38.82-.38 1.35 0 .74.23 1.26.6 1.71.22.23.52.37.9.37.22 0 .52-.07.74-.14.52-.23.82-.75.82-1.42v-.23h-.9c-.14 0-.3-.07-.3-.3 0-.22.08-.3.3-.3h1.13c.3 0 .44.16.44.45v.15h-.07zM35.3 23.65c0 .3-.08.45-.3.45-.15 0-.3-.07-.3-.3l-.6-4.1-1.2 4.1c-.07.15-.14.23-.3.23-.14 0-.29-.08-.29-.23l-1.2-4.1-.6 4.1c0 .23-.14.3-.36.3-.15 0-.3-.15-.3-.37v-.15l.74-4.25c0-.15.08-.23.15-.3a.57.57 0 01.3-.15c.15 0 .23 0 .3.07.07.08.15.15.15.23l1.04 3.65 1.05-3.73c0-.07.07-.15.15-.22.07-.08.15-.08.3-.08s.22 0 .3.08c.07.07.14.15.14.3l.82 4.47zM46.93 23.73c0 .22-.07.37-.3.37-.22 0-.3-.07-.3-.3v-4.47c0-.23.08-.3.3-.3.23 0 .3.07.3.3v4.4zM61.93 23.73c0 .22-.07.3-.3.3-.14 0-.22-.08-.37-.23L58.58 20v3.65c0 .23-.08.3-.3.3-.23 0-.3-.07-.3-.3v-4.47c0-.23.07-.3.22-.3s.23.07.38.22l2.6 3.8v-3.65c0-.07 0-.15.08-.22.08-.08.15-.08.23-.08.22 0 .3.08.3.3v4.48h.14zM19.25 23.8c0 .15-.07.23-.3.23-.07 0-.15 0-.22-.08-.08 0-.08 0-.08-.07l-.3-.9h-2.3l-.45.9c-.08.15-.15.22-.3.22s-.3-.07-.3-.22V23.73l1.64-4.33c.07-.15.07-.22.15-.3.07-.07.15-.07.22-.07.08 0 .15 0 .3.07.08.08.15.15.15.3l1.64 4.33c.15 0 .15.07.15.07zm-1.12-1.41l-.97-2.77-1.04 2.77h2.01zM64.77 4.03a2.01 2.01 0 100-4.03 2.01 2.01 0 000 4.03zM77.3 2.01a2 2 0 01-2.01 2.02A2 2 0 0173.27 2 2 2 0 0175.3 0a2 2 0 012.01 2.01zM64.77 13.88a2.01 2.01 0 100-4.03 2.01 2.01 0 000 4.03zM77.3 11.86a2 2 0 01-2.01 2.02 2 2 0 01-2.02-2.02 2 2 0 012.02-2.01 2 2 0 012.01 2.01zM72.08 6.94a2 2 0 01-2.01 2.01 2 2 0 01-2.02-2.01 2 2 0 012.02-2.02 2 2 0 012.01 2.02zM59.4 13.43L53.8.23c-.07-.16-.15-.23-.3-.23h-2.39c-.15 0-.22.07-.3.22l-5.67 13.21v.08c0 .15.08.22.23.22h2.53c.15 0 .23-.07.3-.22l1.2-3.06h5.97l1.2 3.06c.07.15.14.22.29.22h2.54c.15 0 .22-.07.22-.22-.15 0-.15-.08-.22-.08zm-9.18-5.37l2.09-5.3 2.09 5.3h-4.18zM19.62 4.25c.15-.52.38-.74.38-.74s.3-.53.97-.82c.67-.3 1.27-.3 1.27-.3h5c.14 0 .3-.15.3-.3V.29c0-.14-.16-.29-.3-.29H21.7c-3.06 0-5.52 2.69-5.52 5.97V7.9c0 3.28 2.46 5.97 5.52 5.97h5.53c.14 0 .3-.15.3-.3v-1.86c0-.15-.16-.3-.3-.3h-5s-.68 0-1.27-.3c-.67-.3-.97-.82-.97-.82s-.23-.3-.38-.75c-.14-.52-.14-1.2-.14-1.2v-.3h7.76c.14 0 .3-.14.3-.29V5.89c0-.14-.16-.3-.3-.3h-7.76v-.14l.14-1.2zM36.79 13.73h4.55c.15 0 .22-.15.22-.3v-1.86c0-.15-.07-.3-.22-.3h-4.1s-.53 0-1.05-.3-.82-.82-.82-.82-.3-.3-.3-.82V.22c0-.15-.07-.22-.22-.22h-2.4c-.14 0-.29.15-.29.3V9.4a4.55 4.55 0 004.63 4.33zM12.31 13.43l-3.2-5.37c1.63-.37 2.75-1.5 2.75-3.96C11.94.82 9.7.07 6.94 0H.3C.15 0 0 .15 0 .3v13.2c0 .16.15.3.3.3h2.39c.15 0 .3-.14.3-.3V8.37h3.35l2.99 5.22c.07.15.22.22.37.22h2.54c.15 0 .22-.07.22-.22-.15-.07-.15-.15-.15-.15zM7.01 5.9l-.74.08H2.9v-3.5H7.01c1.57 0 2.02.74 2.02 1.7C8.95 5.16 8.5 5.9 7 5.9z" fill="#696969"/></svg>
