<svg width="100" height="48" xmlns="http://www.w3.org/2000/svg"><g fill="none"><path d="M56.853 27.455c-3.106 5.315-8.82 8.885-15.38 8.885-9.85 0-17.838-8.055-17.838-17.987C23.635 8.42 31.624.365 41.473.365c6.743 0 12.606 3.77 15.645 9.335l-5.099 3.106C50.026 8.969 46.057 6.36 41.473 6.36c-6.56 0-11.892 5.365-11.892 11.992 0 6.627 5.331 11.992 11.892 11.992 4.401 0 8.254-2.425 10.297-6.013l5.083 3.123zm2.574-11.793H41.506v5.996h17.921v-5.996z" fill="#005795"/><path d="M29.863 22.638c-.415-1.146-1.046-2.242-1.91-3.106-1.977-2.06-5.315-3.438-7.972-4.235-1.694-.498-3.405-.997-5.1-1.512-1.394-.415-2.89-.747-4.152-1.511-.465-.282-.93-.648-1.212-1.13-.532-.946-.365-1.494-.2-2.142.482-1.412 2.143-2.275 3.505-2.524 1.727-.316 3.339-.167 5.05.315 1.411.399 2.657 1.13 3.853 1.977.182.132.548.415.93.764a1.46 1.46 0 01.1-.167c.83-1.76 1.91-3.404 3.172-4.85-.798-.697-1.844-1.411-2.89-2.026-1.28-.747-2.541-1.345-3.97-1.71-3.056-.764-6.278-.798-9.201.315C7.042 2.176 4.5 4.451 3.554 7.374c-.465 1.462-.614 3.405-.249 4.9.382 1.511 1.512 3.289 2.707 4.318 1.528 1.33 3.904 2.508 5.963 3.14 1.611.498 3.222.98 4.833 1.478 1.296.398 2.658.73 3.92 1.229 1.296.515 2.143.913 2.674 2.259.548 1.362.116 2.557-.88 3.52-1.196 1.147-2.525 1.728-4.468 2.127-1.694.348-3.521.133-5.215-.25-2.84-.63-5.382-2.424-7.126-4.783-.249-.332-.465-.68-.68-1.046L.1 27.47c1.71 2.79 4.185 5.299 7.075 6.843 3.571 1.91 7.74 2.558 11.676 1.827a17.416 17.416 0 006.378-2.59c4.07-2.824 6.195-6.545 4.634-10.913" fill="#005795"/><path fill="#000" d="M62.5.083h6.295v6.295H62.5zm0 7.557h6.295v6.295H62.5zm0 7.574h6.295v6.295H62.5zm0 7.557h6.295v6.295H62.5zm0 7.557h6.295v6.295H62.5z"/><path fill="#575756" d="M70.057.083h6.295v6.295h-6.295zm0 7.557h6.295v6.295h-6.295zm0 7.574h6.295v6.295h-6.295zm0 7.557h6.295v6.295h-6.295zm0 7.557h6.295v6.295h-6.295z"/><path fill="#878787" d="M77.614.083h6.295v6.295h-6.295zm0 7.557h6.295v6.295h-6.295zm0 7.574h6.295v6.295h-6.295z"/><path fill="#E62A32" d="M77.614 22.771h6.295v6.295h-6.295z"/><path fill="#878787" d="M77.614 30.328h6.295v6.295h-6.295z"/><path fill="#005795" d="M85.171.083h6.295v6.295h-6.295z"/><path fill="#B2B2B2" d="M85.171 7.64h6.295v6.295h-6.295zm0 7.574h6.295v6.295h-6.295zm0 7.557h6.295v6.295h-6.295zm0 7.557h6.295v6.295h-6.295z"/><path fill="#C6C6C6" d="M92.728.083h6.295v6.295h-6.295zm0 7.557h6.295v6.295h-6.295z"/><path fill="#005795" d="M92.728 15.214h6.295v6.295h-6.295z"/><path fill="#C6C6C6" d="M92.728 22.771h6.295v6.295h-6.295z"/><path fill="#E62A32" d="M92.728 30.328h6.295v6.295h-6.295z"/><path d="M.2 46.77l.88-1.245a3.293 3.293 0 002.375 1.013c.88 0 1.295-.398 1.295-.83 0-1.296-4.302-.399-4.302-3.206 0-1.245 1.08-2.275 2.84-2.275 1.196 0 2.176.365 2.907 1.046l-.88 1.196c-.598-.565-1.412-.814-2.176-.814-.664 0-1.046.3-1.046.748 0 1.179 4.285.382 4.285 3.172 0 1.362-.98 2.392-2.99 2.392C1.943 47.95.913 47.469.2 46.77m6.809-2.69c0-2.308 1.744-3.87 3.986-3.87 1.644 0 2.591.88 3.123 1.827l-1.362.665c-.316-.598-.98-1.08-1.744-1.08-1.362 0-2.359 1.047-2.359 2.458 0 1.412.98 2.458 2.359 2.458.764 0 1.428-.481 1.744-1.08l1.362.665c-.532.93-1.479 1.844-3.123 1.844-2.259-.017-3.986-1.578-3.986-3.887m8.055-3.737h1.594v7.474h-1.594zm3.09 7.474v-7.474h5.281v1.395h-3.687v1.578h3.62v1.395h-3.62v1.711h3.687v1.395zm11.792 0l-3.57-4.866v4.866h-1.579v-7.474h1.628l3.471 4.7v-4.7h1.578v7.474zm4.567 0v-6.079h-2.192v-1.395h5.963v1.395h-2.176v6.08zm4.601-7.474h1.594v7.474h-1.594zm3.089 7.474v-7.474h5.299v1.395h-3.704v1.578h3.62v1.395h-3.62v3.106zm6.412-7.474h1.594v7.474h-1.594zm2.707 3.737c0-2.308 1.744-3.87 3.986-3.87 1.644 0 2.591.88 3.122 1.827l-1.361.665c-.316-.598-.98-1.08-1.744-1.08-1.362 0-2.359 1.047-2.359 2.458 0 1.412.98 2.458 2.359 2.458.764 0 1.428-.481 1.744-1.08l1.361.665c-.531.93-1.478 1.844-3.122 1.844-2.259-.017-3.986-1.578-3.986-3.887m10.58 0c0-2.358 1.794-3.87 3.986-3.87 1.545 0 2.524.781 3.09 1.678l-1.313.714c-.349-.531-.98-.98-1.777-.98-1.362 0-2.359 1.047-2.359 2.458 0 1.412.98 2.458 2.359 2.458.664 0 1.279-.299 1.578-.564v-.897h-1.977v-1.395h3.571v2.873c-.764.847-1.827 1.395-3.172 1.395-2.192 0-3.986-1.511-3.986-3.87m13.486 3.737l-.465-1.262h-3.205l-.465 1.262h-1.827l2.873-7.474h1.993l2.873 7.474h-1.777zm-2.076-5.88L72.15 45.16h2.326l-1.163-3.222zm11.062 5.88V42.42l-2.11 5.398h-.697l-2.11-5.398v5.398h-1.594v-7.474h2.242l1.81 4.667 1.811-4.667h2.242v7.474zm3.122 0v-7.474h5.282v1.395H89.09v1.578h3.62v1.395h-3.62v1.711h3.687v1.395zm6.079-1.047l.88-1.245a3.293 3.293 0 002.375 1.013c.88 0 1.296-.398 1.296-.83 0-1.296-4.302-.399-4.302-3.206 0-1.245 1.08-2.275 2.84-2.275 1.196 0 2.176.365 2.907 1.046l-.88 1.196c-.598-.565-1.412-.814-2.176-.814-.664 0-1.046.3-1.046.748 0 1.179 4.285.382 4.285 3.172 0 1.362-.98 2.392-2.99 2.392-1.462-.017-2.491-.498-3.189-1.196" fill="#000"/></g></svg>
