<svg width="168" height="47" xmlns="http://www.w3.org/2000/svg"><defs><linearGradient x1="50.007%" y1=".237%" x2="50.007%" y2="77.009%" id="g"><stop stop-color="#435257" offset="0%"/><stop stop-color="#010101" offset="100%"/></linearGradient><linearGradient x1="50.009%" y1="97.465%" x2="50.009%" y2="31.649%" id="a"><stop stop-color="#6A1010" offset="0%"/><stop stop-color="#E52128" offset="100%"/></linearGradient><linearGradient x1="49.994%" y1="3.958%" x2="49.994%" y2="95.356%" id="c"><stop stop-color="#6A1010" offset="0%"/><stop stop-color="#E52128" offset="100%"/></linearGradient><linearGradient x1="50.006%" y1="98.56%" x2="50.006%" y2="34.259%" id="d"><stop stop-color="#6A1010" offset="0%"/><stop stop-color="#E52128" offset="100%"/></linearGradient><linearGradient x1="49.988%" y1="2.173%" x2="49.988%" y2="97.812%" id="e"><stop stop-color="#6A1010" offset="0%"/><stop stop-color="#E52128" offset="100%"/></linearGradient><linearGradient x1="49.994%" y1=".966%" x2="49.994%" y2="99.259%" id="f"><stop stop-color="#6A1010" offset="0%"/><stop stop-color="#E52128" offset="100%"/></linearGradient><linearGradient x1="49.992%" y1="2.182%" x2="49.992%" y2="98.227%" id="b"><stop stop-color="#6A1010" offset="0%"/><stop stop-color="#E52128" offset="100%"/></linearGradient><linearGradient x1="49.993%" y1="98.582%" x2="49.993%" y2="3.278%" id="h"><stop stop-color="#BBBDBF" offset="0%"/><stop stop-color="#8D8D8F" offset="3.31%"/><stop stop-color="#6A6969" offset="6.91%"/><stop stop-color="#4E4D4D" offset="10.81%"/><stop stop-color="#383838" offset="14.95%"/><stop stop-color="#272828" offset="19.42%"/><stop stop-color="#191919" offset="24.32%"/><stop stop-color="#0C0D0D" offset="29.91%"/><stop stop-color="#030303" offset="36.74%"/><stop offset="48.47%"/><stop stop-color="#020202" offset="64.28%"/><stop stop-color="#0B0B0B" offset="71.55%"/><stop stop-color="#171717" offset="77.08%"/><stop stop-color="#242525" offset="81.73%"/><stop stop-color="#343434" offset="85.82%"/><stop stop-color="#474747" offset="89.52%"/><stop stop-color="#605F60" offset="92.93%"/><stop stop-color="#808081" offset="96.12%"/><stop stop-color="#A8A9AB" offset="99%"/><stop stop-color="#BBBDBF" offset="100%"/></linearGradient><linearGradient x1="50.01%" y1="3.048%" x2="50.01%" y2="77.818%" id="i"><stop stop-color="#435257" offset="0%"/><stop stop-color="#010101" offset="100%"/></linearGradient><linearGradient x1="49.997%" y1="97.734%" x2="49.997%" y2="1.816%" id="j"><stop stop-color="#BBBDBF" offset="0%"/><stop stop-color="#8D8D8F" offset="3.31%"/><stop stop-color="#6A6969" offset="6.91%"/><stop stop-color="#4E4D4D" offset="10.81%"/><stop stop-color="#383838" offset="14.95%"/><stop stop-color="#272828" offset="19.42%"/><stop stop-color="#191919" offset="24.32%"/><stop stop-color="#0C0D0D" offset="29.91%"/><stop stop-color="#030303" offset="36.74%"/><stop offset="48.47%"/><stop stop-color="#020202" offset="64.28%"/><stop stop-color="#0B0B0B" offset="71.55%"/><stop stop-color="#171717" offset="77.08%"/><stop stop-color="#242525" offset="81.73%"/><stop stop-color="#343434" offset="85.82%"/><stop stop-color="#474747" offset="89.52%"/><stop stop-color="#605F60" offset="92.93%"/><stop stop-color="#808081" offset="96.12%"/><stop stop-color="#A8A9AB" offset="99%"/><stop stop-color="#BBBDBF" offset="100%"/></linearGradient><linearGradient x1="49.988%" y1=".193%" x2="49.988%" y2="96.336%" id="k"><stop stop-color="#BBBDBF" offset="0%"/><stop stop-color="#8D8D8F" offset="3.49%"/><stop stop-color="#6A6969" offset="7.28%"/><stop stop-color="#4E4D4D" offset="11.38%"/><stop stop-color="#383838" offset="15.73%"/><stop stop-color="#272828" offset="20.44%"/><stop stop-color="#191919" offset="25.6%"/><stop stop-color="#0C0D0D" offset="31.48%"/><stop stop-color="#030303" offset="38.68%"/><stop offset="51.01%"/><stop stop-color="#020202" offset="66.04%"/><stop stop-color="#0B0B0B" offset="72.96%"/><stop stop-color="#171717" offset="78.21%"/><stop stop-color="#242525" offset="82.63%"/><stop stop-color="#343434" offset="86.52%"/><stop stop-color="#474747" offset="90.04%"/><stop stop-color="#605F60" offset="93.28%"/><stop stop-color="#808081" offset="96.31%"/><stop stop-color="#A8A9AB" offset="99.05%"/><stop stop-color="#BBBDBF" offset="100%"/></linearGradient><linearGradient x1="49.981%" y1="3.3%" x2="49.981%" y2="95.845%" id="l"><stop stop-color="#BBBDBF" offset="0%"/><stop stop-color="#8D8D8F" offset="3.49%"/><stop stop-color="#6A6969" offset="7.28%"/><stop stop-color="#4E4D4D" offset="11.38%"/><stop stop-color="#383838" offset="15.73%"/><stop stop-color="#272828" offset="20.44%"/><stop stop-color="#191919" offset="25.6%"/><stop stop-color="#0C0D0D" offset="31.48%"/><stop stop-color="#030303" offset="38.68%"/><stop offset="51.01%"/><stop stop-color="#020202" offset="66.04%"/><stop stop-color="#0B0B0B" offset="72.96%"/><stop stop-color="#171717" offset="78.21%"/><stop stop-color="#242525" offset="82.63%"/><stop stop-color="#343434" offset="86.52%"/><stop stop-color="#474747" offset="90.04%"/><stop stop-color="#605F60" offset="93.28%"/><stop stop-color="#808081" offset="96.31%"/><stop stop-color="#A8A9AB" offset="99.05%"/><stop stop-color="#BBBDBF" offset="100%"/></linearGradient></defs><g fill="none" fill-rule="evenodd"><path d="M21.59 6.957a13.313 13.313 0 00-3.43-1.64c-1.227-.384-2.42-.577-3.575-.577-1.607 0-2.9.4-3.888 1.202-.987.802-1.481 1.848-1.481 3.137 0 .583.15 1.129.457 1.64.304.51.75 1.036 1.337 1.58.585.542 1.545 1.27 2.878 2.181a71.675 71.675 0 012.517 1.84 15.52 15.52 0 012.299 2.159c.69.793 1.253 1.677 1.685 2.653.434.977.649 2.092.649 3.35 0 1.73-.441 3.314-1.324 4.753-.884 1.44-2.128 2.56-3.732 3.361-1.607.802-3.452 1.203-5.539 1.203-3.451 0-7.49-1.715-10.443-3.509l1.655-4.44c1.62 1.117 3.166 1.935 4.635 2.454 1.47.52 2.805.78 4.01.78.866 0 1.677-.162 2.431-.484.755-.323 1.36-.782 1.818-1.38.457-.597.685-1.296.685-2.1 0-.66-.144-1.263-.434-1.805a6.702 6.702 0 00-1.168-1.556 14.355 14.355 0 00-1.673-1.44c-.626-.463-1.276-.94-1.95-1.426-1.879-1.32-3.223-2.42-4.032-3.302a10.767 10.767 0 01-1.902-2.82c-.457-.998-.685-2.118-.685-3.36 0-1.744.493-3.339 1.48-4.776.988-1.438 2.355-2.57 4.104-3.397C10.724.412 12.626 0 14.68 0c1.317 0 2.66.172 4.032.52 1.372.344 2.613.801 3.719 1.368l-.841 5.069zm19.937 26.416h-5.321l2.07-14.576c.049-.298.074-.605.074-.92 0-.833-.213-1.5-.638-2.004-.425-.504-1.008-.755-1.746-.755-1.671 0-3.724 1.368-6.165 4.104l-2.023 14.151h-5.344L27.177.425h5.321l-2.07 14.198h.095c1.157-1.18 2.384-2.075 3.685-2.689 1.3-.613 2.592-.92 3.877-.92 1.78 0 3.165.557 4.153 1.675.987 1.117 1.48 2.626 1.48 4.527 0 .41-.038.952-.12 1.628l-2.071 14.53zm5.888-21.793h5.273l-1.71 12.123c-.162 1.117-.253 1.843-.276 2.18-.025.339-.037.697-.037 1.073 0 .802.206 1.46.615 1.97.41.511.967.766 1.673.766.69 0 1.573-.327 2.65-.978 1.074-.652 2.262-1.71 3.563-3.173l2.023-13.963h5.273l-3.107 21.793H58.06l.506-3.466c-1.301 1.258-2.57 2.214-3.804 2.866-1.236.652-2.496.978-3.78.978-1.189 0-2.213-.262-3.07-.79a5.204 5.204 0 01-1.975-2.17c-.457-.92-.686-1.992-.686-3.22 0-1.117.112-2.42.336-3.915l1.829-12.074zm39.838-5.942c-1.509-.739-2.858-1.108-4.046-1.108-1.797 0-3.202.589-4.213 1.768-1.01 1.18-1.613 2.94-1.805 5.285h4.381l-.578 4.15h-4.455l-3.719 27.13h-5.225l3.721-27.131h-3.997l.6-4.152h3.998c.323-3.616 1.406-6.45 3.25-8.501C77.01 1.028 79.478 0 82.559 0c.914 0 1.8.092 2.66.27.86.18 1.77.447 2.734.791l-.7 4.577z" fill="#000" fill-rule="nonzero"/><path d="M102.651 5.638c-1.508-.739-2.857-1.108-4.045-1.108-1.797 0-3.203.589-4.213 1.768-1.01 1.18-1.614 2.94-1.806 5.285h4.382l-.578 4.15h-4.455l-3.719 27.13h-5.223l3.72-27.13h-3.999l.602-4.15h3.997c.323-3.616 1.406-6.451 3.25-8.502C92.41 1.03 94.876 0 97.958 0c.914 0 1.8.092 2.66.27.86.18 1.77.447 2.734.791l-.7 4.577zm17.749 5.376c1.67 0 3.157.38 4.466 1.144 1.31.764 2.32 1.843 3.033 3.242.714 1.4 1.072 2.98 1.072 4.74 0 .786-.08 1.62-.24 2.501h-14.157a8.836 8.836 0 00-.144 1.51c0 1.164.237 2.18.71 3.054a4.874 4.874 0 001.987 2.004c.85.463 1.806.696 2.866.696 1.045 0 2.192-.215 3.442-.65 1.25-.434 2.672-1.088 4.261-1.97l-.891 4.6c-2.567 1.383-5.088 2.075-7.562 2.075-2.006 0-3.776-.432-5.31-1.296-1.533-.865-2.712-2.107-3.538-3.726-.827-1.62-1.238-3.475-1.238-5.567 0-2.248.498-4.328 1.492-6.238.997-1.91 2.357-3.408 4.08-4.493a10.475 10.475 0 015.671-1.626zm3.442 8.396v-.378c0-1.258-.317-2.257-.95-2.996-.634-.739-1.539-1.108-2.71-1.108-2.31 0-3.972 1.493-4.982 4.48h8.642v.002zM110.34.466l-4.69 32.746h-5.312L105.054.466zm-5.449 46.422v-5.727l-2.52 3.748h-.051l-2.496-3.71v5.69h-1.931v-8.773h2.123l2.354 3.71 2.355-3.71h2.123v8.772zm13.599 0l-.82-1.968h-3.787l-.818 1.968h-2.009l3.838-8.835h1.817l3.838 8.835h-2.06zm-2.714-6.518l-1.189 2.846h2.38l-1.191-2.846zm12.037 6.644a5.77 5.77 0 01-3.8-1.404l1.164-1.366c.807.652 1.65 1.066 2.674 1.066.807 0 1.292-.314 1.292-.826v-.025c0-.488-.306-.739-1.804-1.115-1.803-.45-2.969-.94-2.969-2.683v-.024c0-1.592 1.305-2.645 3.134-2.645 1.305 0 2.418.401 3.326 1.116l-1.024 1.453c-.793-.54-1.573-.865-2.33-.865-.754 0-1.151.339-1.151.764v.025c0 .575.384.763 1.931 1.153 1.817.463 2.841 1.104 2.841 2.63v.025c.005 1.742-1.35 2.72-3.284 2.72zm11.691-7.118v6.992h-1.97v-6.992h-2.725v-1.78h7.42v1.78zm7.061 6.992v-8.772h6.754v1.717h-4.798v1.78h4.222v1.717h-4.222v1.843h4.862v1.718h-6.818zm16.834 0l-1.92-2.807h-1.548v2.807h-1.97v-8.772h4.094c2.112 0 3.378 1.09 3.378 2.895v.024c0 1.418-.78 2.307-1.92 2.72l2.188 3.133h-2.302zm.039-5.776c0-.827-.588-1.254-1.548-1.254h-1.956v2.519h1.995c.96 0 1.509-.502 1.509-1.24v-.025z" fill="#000" fill-rule="nonzero"/><path d="M15.71 14.171c0 .667-.553 1.21-1.235 1.21H1.42a1.223 1.223 0 01-1.234-1.21V1.381C.185.715.738.173 1.42.173h13.056c.682 0 1.235.542 1.235 1.21v12.79z" fill="url(#a)" transform="translate(151.543 17.689)"/><path d="M14.478 15.508H1.422c-.752 0-1.365-.6-1.365-1.337V1.381C.057.646.67.046 1.422.046h13.056c.752 0 1.364.6 1.364 1.337v12.79a1.354 1.354 0 01-1.364 1.336zM1.422.302C.814.302.318.788.318 1.384v12.79c0 .595.496 1.08 1.104 1.08h13.056c.608 0 1.101-.485 1.101-1.08V1.381A1.094 1.094 0 0014.478.3H1.422v.002z" fill="url(#b)" fill-rule="nonzero" transform="translate(151.543 17.689)"/><path d="M159.474 30.156l-.036-.065c-.73-1.35-2.105-2.998-3.774-4.523-.055-.05-.107-.099-.16-.146l-.032-.029.032-.029.16-.145c1.669-1.525 3.045-3.173 3.774-4.523l.036-.065.035.065c.729 1.352 2.105 3 3.773 4.523.055.049.108.098.163.145l.032.03-.032.028-.163.146c-1.666 1.522-3.042 3.173-3.773 4.523l-.035.065" fill="#FFF" fill-rule="nonzero"/><path d="M7.931 12.854l-.198-.367c-.723-1.334-2.085-2.966-3.738-4.476a9.415 9.415 0 00-.16-.145l-.18-.164.18-.16c.053-.048.108-.097.16-.146C5.648 5.884 7.01 4.254 7.733 2.92l.198-.367.2.365c.722 1.332 2.082 2.964 3.736 4.475.053.05.108.097.16.146l.181.163-.18.162c-.053.049-.108.096-.16.145-1.653 1.512-3.015 3.142-3.735 4.476l-.202.37zm-3.73-5.152l.048.043c1.589 1.45 2.917 3.018 3.682 4.341.766-1.323 2.094-2.89 3.683-4.341l.045-.043a.617.617 0 01-.045-.042c-1.589-1.451-2.917-3.02-3.683-4.342-.765 1.324-2.093 2.89-3.682 4.342l-.048.042z" fill="url(#c)" fill-rule="nonzero" transform="translate(151.543 17.689)"/><path d="M15.822 14.2c0 .67-.553 1.211-1.237 1.211H1.506a1.224 1.224 0 01-1.236-1.21V1.387C.27.718.823.177 1.506.177h13.08c.68 0 1.236.542 1.236 1.211V14.2z" fill="url(#d)" transform="translate(133.714 .448)"/><path d="M14.587 15.54H1.51c-.755 0-1.367-.6-1.367-1.34V1.388C.142.65.757.05 1.509.05h13.078c.755 0 1.367.6 1.367 1.34V14.2a1.357 1.357 0 01-1.367 1.34zM1.507.306A1.097 1.097 0 00.4 1.39v12.812c0 .596.496 1.082 1.106 1.082h13.08c.607 0 1.103-.486 1.103-1.082V1.388c0-.598-.496-1.083-1.104-1.083H1.506v.002z" fill="url(#e)" fill-rule="nonzero" transform="translate(133.714 .448)"/><path d="M141.813 12.129l-.03-.027-.007-.007c-.288-.246-.553-.476-.81-.698-.46-.4-.897-.78-1.425-1.21-1.303-1.054-2.579-2.344-2.183-3.92.28-1.12 1.463-2.03 2.637-2.03.144 0 .29.013.43.042.558.112 1.036.38 1.394.607.36-.227.837-.495 1.395-.605.14-.027.28-.042.427-.042 1.175 0 2.357.913 2.636 2.035.393 1.576-.887 2.866-2.19 3.918a55.04 55.04 0 00-1.426 1.205c-.256.222-.524.452-.814.698l-.005.003-.03.031" fill="#FFF" fill-rule="nonzero"/><path d="M141.822 12.337l-.16-.136c-.281-.24-.535-.46-.78-.672l-.039-.034c-.459-.398-.893-.777-1.421-1.204-1.347-1.09-2.665-2.43-2.247-4.104.3-1.196 1.563-2.17 2.816-2.17.158 0 .313.016.466.045.542.107 1.004.351 1.358.568.356-.217.818-.46 1.358-.566.15-.03.306-.045.464-.045 1.254 0 2.516.974 2.816 2.172.416 1.675-.906 3.012-2.252 4.1-.53.427-.962.804-1.42 1.202-.255.224-.523.455-.813.701l-.146.143zM139.99 4.38c-1.093 0-2.197.848-2.457 1.894-.37 1.478.864 2.718 2.12 3.737.533.432.97.81 1.432 1.213l.039.034c.217.19.44.385.683.589.256-.22.494-.423.725-.625.461-.4.896-.779 1.43-1.209 1.26-1.016 2.496-2.257 2.128-3.735-.26-1.045-1.362-1.896-2.457-1.896-.132 0-.263.013-.39.038-.533.105-.99.365-1.33.58l-.101.063-.099-.065c-.338-.215-.797-.475-1.33-.583a2.291 2.291 0 00-.393-.035z" fill="url(#f)" fill-rule="nonzero"/><path d="M15.73 14.184c0 .67-.553 1.212-1.236 1.212H1.406a1.224 1.224 0 01-1.237-1.212V1.364A1.224 1.224 0 011.406.152h13.088c.683 0 1.236.542 1.236 1.212v12.82z" fill="url(#g)" transform="translate(151.543 .448)"/><path d="M.041 14.184V1.364c0-.74.615-1.34 1.367-1.34h13.088c.754 0 1.367.6 1.367 1.34v12.82c0 .74-.613 1.342-1.367 1.342H1.408C.654 15.523.041 14.92.041 14.184zM15.6 1.364C15.6.766 15.104.28 14.494.28H1.406C.796.28.299.766.299 1.364v12.82c0 .598.496 1.084 1.107 1.084h13.088c.61 0 1.106-.486 1.106-1.084V1.364z" fill="url(#h)" fill-rule="nonzero" transform="translate(151.543 .448)"/><path d="M15.83 14.184c0 .668-.552 1.21-1.233 1.21H1.54c-.682 0-1.235-.54-1.235-1.21V1.394C.306.729.86.187 1.541.187h13.056c.68 0 1.234.542 1.234 1.209v12.79z" fill="url(#i)" transform="translate(133.714 17.689)"/><path d="M.178 14.184V1.394C.178.659.791.059 1.543.059h13.056c.752 0 1.364.6 1.364 1.337v12.79c0 .736-.612 1.336-1.364 1.336H1.543c-.752 0-1.365-.6-1.365-1.337zm15.523-12.79c0-.595-.494-1.08-1.104-1.08H1.54A1.093 1.093 0 00.437 1.393v12.79c0 .596.493 1.082 1.104 1.082h13.056c.608 0 1.104-.484 1.104-1.082V1.394z" fill="url(#j)" fill-rule="nonzero" transform="translate(133.714 17.689)"/><path d="M142.894 30.017a3.038 3.038 0 00-1.148-.21c-.38 0-.747.06-1.065.179l-.043-.065c.354-.385.594-1.03.64-1.727.004-.065.007-.127.007-.194a3.155 3.155 0 01-.78.273 1.91 1.91 0 01-.395.04c-1.081 0-2.172-.84-2.43-1.874-.363-1.451.814-2.64 2.011-3.612.49-.396.892-.745 1.317-1.117.235-.204.478-.416.743-.643l.027-.024.032.02.003.002.75.645c.424.37.827.719 1.314 1.11 1.2.97 2.379 2.159 2.016 3.61-.259 1.034-1.347 1.874-2.43 1.874-.133 0-.265-.013-.393-.038a3.24 3.24 0 01-.814-.289c0 .072.005.141.01.21.047.72.299 1.378.671 1.758l-.043.072" fill="#FFF" fill-rule="nonzero"/><path d="M142.96 30.24l-.14-.057a2.84 2.84 0 00-1.076-.197 2.93 2.93 0 00-1.001.168l-.135.049-.208-.3.098-.105c.309-.336.524-.894.585-1.51a3.229 3.229 0 01-.541.162c-.14.026-.286.042-.432.042-1.161 0-2.332-.902-2.61-2.01-.39-1.55.831-2.788 2.075-3.796.489-.396.887-.743 1.312-1.11l.046-.04c.221-.193.45-.392.699-.605l.13-.112.17.107c.274.233.518.446.756.65.425.37.825.714 1.31 1.106 1.245 1.005 2.466 2.243 2.08 3.793-.277 1.11-1.447 2.013-2.61 2.013-.147 0-.29-.014-.43-.043a3.192 3.192 0 01-.576-.175c.06.643.285 1.219.612 1.552l.105.108-.219.31zm-1.214-.613c.27 0 .535.03.782.088-.245-.406-.405-.939-.443-1.507a7.04 7.04 0 01-.01-.22l-.004-.3.272.137c.267.134.519.222.766.273.116.022.235.034.356.034 1.001 0 2.012-.78 2.25-1.738.338-1.357-.8-2.494-1.955-3.428-.49-.394-.891-.745-1.319-1.115-.21-.181-.425-.367-.658-.566a55.1 55.1 0 00-.608.526l-.046.04c-.425.37-.827.719-1.321 1.12-1.154.936-2.29 2.075-1.95 3.43.24.956 1.248 1.735 2.252 1.735.12 0 .242-.011.359-.036.24-.047.48-.132.733-.255l.272-.134-.004.297c0 .068-.005.137-.01.202-.036.56-.194 1.088-.434 1.493.229-.051.471-.076.72-.076z" fill="url(#k)" fill-rule="nonzero"/><path d="M160.83 12.711c-.403-.166-.912-.257-1.433-.257-.524 0-1.034.091-1.436.257l-.05-.065c.683-.638 1.152-1.692 1.152-2.79 0-.257-.092-.676-.092-.676s-.105 1.843-2.19 1.843c-1.138 0-2.063-.84-2.063-1.874 0-1.032.925-1.874 2.064-1.874.473 0 1.115.076 1.115.076s-.567-.853-.567-1.498c0-1.032.926-1.872 2.064-1.872 1.136 0 2.062.84 2.062 1.872 0 .643-.757 1.587-.757 1.587s.832-.168 1.308-.168c1.138 0 2.062.84 2.062 1.875 0 1.032-.926 1.874-2.062 1.874-1.138 0-2.142-.86-2.142-1.892 0 0-.08.49-.08.745 0 1.097.407 2.132 1.09 2.77l-.045.067" fill="#FFF" fill-rule="nonzero"/><path d="M160.891 12.913l-.132-.054c-.38-.157-.864-.242-1.362-.242-.501 0-.983.085-1.363.242l-.132.054-.238-.307.121-.112c.615-.573.994-1.493 1.031-2.48-.361.691-1.136 1.172-2.032 1.172-1.241 0-2.25-.922-2.25-2.055s1.009-2.056 2.25-2.056c.366 0 .725.083 1.042.236a1.961 1.961 0 01-.679-1.474c0-1.133 1.01-2.055 2.25-2.055 1.238 0 2.249.922 2.249 2.055 0 .562-.247 1.09-.68 1.474a2.44 2.44 0 011.045-.236c1.242 0 2.25.923 2.25 2.056s-1.008 2.055-2.25 2.055c-.893 0-1.613-.479-1.974-1.173.036.99.358 1.908.973 2.481l.121.112-.24.307zm1.054-2.011c1.036 0 1.943-.84 1.943-1.771 0-.934-.905-1.771-1.94-1.771-1.089 0-1.518.25-1.518.25s.845-.595.845-1.77c0-.934-.843-1.691-1.876-1.691-1.036 0-1.879.759-1.879 1.69 0 1.16.81 1.774.81 1.774s-.577-.235-1.535-.235c-1.035 0-1.888.821-1.888 1.755 0 .932.896 1.749 1.93 1.749 1.979 0 2.12-1.91 2.12-1.91s.126.484.126.913c0 .943-.185 1.819-.688 2.481a4.646 4.646 0 012.003 0c-.503-.662-.631-1.574-.631-2.516 0-.424.13-.878.13-.878s.108 1.93 2.048 1.93z" fill="url(#l)" fill-rule="nonzero"/></g></svg>
