<svg width="49" height="25" fill="none" xmlns="http://www.w3.org/2000/svg"><path fill-rule="evenodd" clip-rule="evenodd" d="M2.5 5.3V.13h14.37V.8c0 4.45 0 8.9.02 13.34 0 .31.16.66.35.93 2.4 3.58.32 8.6-4.1 9.51a6.64 6.64 0 003.02-2.73 6.2 6.2 0 00-.74-7.2c-1.12-1.26-2.58-2.03-3.99-2.88-1.26-.76-2.54-1.52-3.74-2.38-.82-.6-1.08-1.51-.78-2.52.3-.97 1.3-1.47 2.26-1.06.58.25 1.12.6 1.82.97 0-.55.04-1-.02-1.45-.08-.58.17-.69.7-.65 1.2.1 2.38.28 3.43.93l.35.13c0-1.09.02-2.11-.02-3.14 0-.13-.23-.33-.4-.38-2.68-.8-5.39-1.05-8.12-.2a6.11 6.11 0 00-3.26 2.4c-.27.38-.66.67-1 1l-.16-.11z" fill="#696969"/><path fill-rule="evenodd" clip-rule="evenodd" d="M3.06 10.03c1.22 2.85 3.96 3.87 6.34 5.34.99.6 2 1.26 2.78 2.1 1.3 1.38.62 3.48-1.25 4.07v-2.03c-.35.2-.6.31-.83.46-2.46 1.53-5.15.67-6.55-1.65a10 10 0 01-.5-8.29z" fill="#696969"/><path fill-rule="evenodd" clip-rule="evenodd" d="M4.2 23.1c1.69.36 3.36.5 5.07.3a7.2 7.2 0 003.24-1.13 3.86 3.86 0 00.58-5.87c-1.03-1.13-2.37-1.82-3.67-2.58-1.13-.67-2.31-1.28-3.35-2.07-2.65-2.03-2.77-5.63-.3-7.66a6.3 6.3 0 014.68-1.24c.93.07 1.84.35 2.72.67-.83-.08-1.66-.22-2.49-.24a5.58 5.58 0 00-4.47 2.01 3.44 3.44 0 00-.01 4.49c.69.75 1.55 1.39 2.43 1.96 1.3.84 2.71 1.55 4.04 2.38 1.4.87 2.48 2 2.81 3.68a4.9 4.9 0 01-3.24 5.64 12 12 0 01-7.4-.03c-.22-.07-.42-.2-.64-.3z" fill="#696969"/><path fill-rule="evenodd" clip-rule="evenodd" d="M9.48 21.24c-1.46 1.14-3.85 1.18-5.62.17A7.23 7.23 0 01.4 16.58c-.7-2.82-.5-5.56.88-8.16.35-.65.85-1.22 1.37-1.79-.09.86-.02 1.67-.38 2.52-1.5 3.48-1.4 6.93.71 10.17 1.42 2.17 3.86 2.86 6.32 1.91l.19.01z" fill="#696969"/><path d="M19.66 13.64c.56 0 1-.14 1.31-.44.32-.29.47-.7.47-1.2 0-.31-.06-.58-.18-.8a2.46 2.46 0 00-.45-.6 4.49 4.49 0 00-.57-.47l-.58-.43a2.45 2.45 0 01-.45-.45.88.88 0 01-.18-.54.8.8 0 01.23-.59c.16-.15.4-.23.72-.23.26 0 .5.03.7.08.2.05.35.11.46.18l.21-.58a2.07 2.07 0 00-.56-.2c-.24-.06-.5-.08-.8-.08-.49 0-.88.11-1.18.35-.3.24-.45.6-.45 1.1 0 .3.06.56.18.78.12.21.27.4.44.57.18.17.38.32.58.46.2.13.4.28.58.42.18.14.33.3.45.47.12.17.18.37.18.6 0 .34-.1.6-.32.75-.2.17-.48.25-.81.25a2.26 2.26 0 01-1.18-.32l-.24.6c.14.09.32.16.55.23.23.06.53.1.89.1zM23.14 13.54V7.39h-.67v6.15h.67zM25.78 7.32c.44 0 .8.07 1.11.22.3.15.55.36.74.63.2.27.33.6.42.98a5.94 5.94 0 010 2.48c-.08.39-.21.73-.4 1.02a2.13 2.13 0 01-1.94.97 12.14 12.14 0 01-1.28-.07V7.39l.1-.02a3.33 3.33 0 01.57-.04 581.77 581.77 0 00.68-.01zm.04.6h-.2a2.27 2.27 0 00-.38.03l-.14.02v5l.13.02h.2a49.36 49.36 0 01.33.02c.33 0 .6-.07.83-.21.22-.14.4-.33.52-.57.13-.23.22-.5.27-.82a5.89 5.89 0 00.01-1.91c-.05-.3-.13-.57-.25-.8a1.53 1.53 0 00-.5-.56 1.44 1.44 0 00-.82-.21zM31.96 13.54v-.6H29.8v-2.26h1.95v-.6H29.8V8h2.12v-.61h-2.79v6.15h2.83zM36.88 13.64c.25 0 .49-.02.71-.08.23-.05.42-.14.57-.26l-.16-.54a1.78 1.78 0 01-.96.28c-.5 0-.9-.22-1.2-.65a3.39 3.39 0 01-.44-1.93c0-.47.04-.87.12-1.2.09-.33.2-.6.34-.8a1.33 1.33 0 011.08-.58c.22.01.4.03.56.06.17.04.3.09.42.15l.17-.6a2.74 2.74 0 00-1.2-.2c-.29 0-.56.05-.82.16-.27.11-.5.3-.7.55-.21.25-.37.58-.5.98-.12.4-.18.9-.18 1.48 0 .57.05 1.06.16 1.46.1.4.26.73.45.99.2.25.43.44.7.56.27.11.56.17.88.17zM39.79 13.54V7.39h-.67v6.15h.67zM42.84 13.54V8h1.54v-.61h-3.76v.6h1.54v5.55h.68zM46.89 13.54v-2.45l1.65-3.7h-.73l-1.1 2.66-.1.55h-.03l-.11-.53-1.13-2.68h-.8l1.68 3.7v2.45h.67zM26.71 17.98c.27 0 .48-.07.62-.21a.75.75 0 00.22-.57.78.78 0 00-.08-.38c-.06-.1-.13-.2-.21-.28a2.12 2.12 0 00-.28-.22l-.27-.2a1.16 1.16 0 01-.21-.22.41.41 0 01-.08-.25c0-.11.03-.2.1-.28.08-.07.2-.1.34-.1.13 0 .24 0 .33.03.1.02.17.05.22.08l.1-.27a.98.98 0 00-.26-.1 1.72 1.72 0 00-.38-.04.87.87 0 00-.56.17c-.14.11-.21.29-.21.52 0 .14.03.27.08.37.06.1.13.2.21.27l.28.22c.1.06.19.13.27.2.08.06.16.14.21.22.06.08.09.17.09.28 0 .16-.05.28-.15.36a.61.61 0 01-.39.11 1.07 1.07 0 01-.56-.15l-.1.29c.06.04.15.07.25.1.11.03.25.05.42.05zM28.81 17.93V15.3h.73v-.29h-1.77v.3h.72v2.6h.32zM30.73 17.96c.26 0 .45-.07.6-.23.13-.16.2-.41.2-.76v-1.95h-.3v1.85c0 .29-.04.49-.11.62-.07.12-.2.19-.39.19a.66.66 0 01-.25-.04.38.38 0 01-.17-.14.63.63 0 01-.1-.25l-.02-.38v-1.85h-.32v2.02c0 .31.07.54.2.7.14.15.36.22.66.22zM32.71 15c.21 0 .38.03.53.1a.9.9 0 01.35.3c.09.12.16.27.2.45a2.8 2.8 0 010 1.18c-.04.18-.1.34-.2.48a1 1 0 01-.91.45 5.83 5.83 0 01-.6-.03v-2.9l.07-.02h.08l.16-.01h.32zm.02.28h-.09a1.1 1.1 0 00-.18.01h-.07v2.37h.06a12.97 12.97 0 00.26.02c.15 0 .28-.03.38-.1.1-.07.2-.16.25-.27.06-.11.1-.24.13-.39a2.78 2.78 0 000-.9 1.2 1.2 0 00-.11-.38.73.73 0 00-.24-.26.68.68 0 00-.39-.1zM34.68 17.93v-2.9h-.32v2.9h.32zM36.17 14.97a.9.9 0 01.45.11c.13.07.23.17.3.3.09.13.14.29.18.47.04.19.05.4.05.63 0 .49-.08.86-.24 1.12a.82.82 0 01-.74.38.9.9 0 01-.45-.1.84.84 0 01-.3-.3 1.41 1.41 0 01-.17-.48c-.04-.19-.06-.4-.06-.62 0-.5.08-.87.25-1.12.16-.26.4-.38.73-.38zm0 .3c-.2 0-.37.1-.48.29a2.87 2.87 0 00-.13 1.38c.03.15.07.28.12.39.05.1.11.2.2.26.08.07.18.1.3.1.2 0 .36-.1.47-.3.11-.2.17-.5.17-.91 0-.16-.01-.32-.04-.46a1.54 1.54 0 00-.1-.4.72.72 0 00-.2-.26.46.46 0 00-.3-.1zM38.15 17.98c.27 0 .48-.07.63-.21a.75.75 0 00.22-.57.78.78 0 00-.09-.38c-.06-.1-.13-.2-.21-.28a2.12 2.12 0 00-.27-.22l-.28-.2a1.16 1.16 0 01-.2-.22.42.42 0 01-.1-.25c0-.11.04-.2.12-.28.07-.07.18-.1.34-.1.12 0 .23 0 .32.03.1.02.17.05.22.08l.1-.27a.98.98 0 00-.26-.1 1.72 1.72 0 00-.38-.04.87.87 0 00-.56.17c-.14.11-.21.29-.21.52 0 .14.03.27.08.37.06.1.13.2.22.27.08.08.17.15.27.22.1.06.19.13.27.2.09.06.16.14.21.22.06.08.09.17.09.28 0 .16-.05.28-.15.36a.61.61 0 01-.39.11 1.07 1.07 0 01-.55-.15l-.11.29c.06.04.15.07.26.1.1.03.24.05.41.05z" fill="#696969"/></svg>
