<svg width="155" height="48" xmlns="http://www.w3.org/2000/svg"><g fill-rule="evenodd"><path d="M41.14 7.186c-.505-.437-.988-.902-1.517-1.307C27.703-3.24 10.687.308 3.53 13.465.841 18.406.243 23.697 1.491 29.191c.131.578.39.924.998 1.145 1.095.398 1.482 1.382 1.041 2.312-.45.95-1.62 1.33-2.547.826-.908-.494-1.116-1.594-.582-2.592.201-.376.351-.901.258-1.295C-2.715 15.327 7.306 2.424 20.64.35c8.26-1.286 15.46.978 21.556 6.704.275.258.414.66.616.996-.397.134-.793.381-1.19.383-6.931.025-13.862.002-20.793.038-1.091.006-2.196.174-3.27.391-3.215.65-5.035 2.697-5.538 5.887-.426 2.699-.512 5.424.125 8.1.765 3.211 2.735 5.055 6.004 5.409 2.353.254 4.742.198 7.115.246 1.586.033 3.173-.016 4.758.013 2.15.04 3.292 1.232 3.298 3.38.001.38.006.759-.001 1.138-.033 1.692-1.007 2.729-2.697 2.744-3.69.032-7.38.015-11.069.018-1.414 0-2.828.015-4.241-.006-.938-.013-1.766-.009-2.456.893-.62.809-1.75.66-2.463-.092-.64-.675-.65-1.654-.024-2.337.658-.718 1.857-.878 2.489-.119.66.794 1.412.8 2.281.797 5.034-.015 10.069-.005 15.103-.01 1.653 0 2.215-.573 2.232-2.24.003-.276.004-.552 0-.828-.025-1.615-.866-2.475-2.504-2.486-3.207-.02-6.415.031-9.62-.038-1.158-.025-2.335-.21-3.46-.495-3.632-.921-5.507-3.49-5.847-7.046a31.274 31.274 0 01.16-7.306c.544-3.844 3.019-6.085 6.87-6.652a22.651 22.651 0 013.187-.225c6.138-.023 12.276-.013 18.414-.024.456 0 .912-.082 1.368-.127l.096-.27"/><path d="M11.321 43.026c.268.194.524.406.805.578 12.35 7.56 28.599 2.652 34.55-10.48 2.26-4.989 2.535-10.166 1.075-15.439-.17-.611-.397-1.071-1.123-1.303-1.063-.339-1.434-1.425-.97-2.35.456-.905 1.595-1.27 2.467-.789.965.532 1.16 1.564.606 2.58-.214.394-.34.98-.22 1.392 4.228 14.363-5.663 28.143-19.597 30.37-6.976 1.113-13.328-.414-19.067-4.508-.303-.216-.489-.596-.729-.9.39-.141.781-.404 1.172-.406 7.655-.025 15.31-.01 22.966-.033a11.79 11.79 0 002.656-.304c3.404-.805 5.343-3.201 5.454-6.733a75.745 75.745 0 000-5.363c-.177-4.465-2.915-7.133-7.386-7.225-3.48-.07-6.96-.107-10.441-.131-1.337-.01-2.658-.161-3.254-1.52-.704-1.603-.75-3.308.175-4.866.631-1.063 1.755-1.222 2.907-1.22 4 .009 8-.002 12 .004.93 0 1.776.048 2.464-.884.592-.803 1.768-.656 2.47.078.67.701.652 1.729-.043 2.413-.718.707-1.867.802-2.477-.001-.607-.798-1.324-.845-2.17-.842-3.69.015-7.38.007-11.07.007-.171 0-.344-.002-.516.001-2.929.064-4.234 2.096-3.06 4.808.493 1.136 1.546 1.28 2.61 1.285 3.241.019 6.483-.027 9.723.039 1.124.022 2.27.192 3.357.478 2.891.76 4.697 2.66 5.349 5.575.647 2.891.66 5.832.104 8.722-.799 4.141-3.729 6.48-8.098 6.522-7.069.066-14.138.04-21.207.06-.463.001-.927.054-1.39.083l-.092.302m116.327-25.75c0-.378.021-.757-.004-1.133-.142-2.158-1.76-3.944-3.758-4.157-2.269-.243-4.087 1.004-4.687 3.283-.403 1.527-.384 3.064.205 4.552 1.145 2.894 4.937 3.58 7.04 1.276.986-1.081 1.263-2.405 1.204-3.821m1.465-.065c.004 3.544-1.797 6.009-4.65 6.336-5.616.644-7.314-3.575-6.868-7.298.393-3.29 1.858-4.833 4.656-5.383 3.612-.711 6.714 1.737 6.86 5.416.013.309.002.619.002.929m-21.715-2.561c0 .617-.077 1.249.033 1.846.054.296.44.74.696.753 1.055.058 2.132.07 3.176-.075 1.455-.202 2.056-.967 2.073-2.346.018-1.449-.584-2.246-2.005-2.544-.496-.104-1.022-.1-1.534-.094-2.84.029-2.4-.367-2.439 2.46m4.892 3.667l2.798 4.927c-.93.228-1.598.188-2.053-.778-.527-1.12-1.212-2.164-1.78-3.266-.303-.587-.68-.835-1.37-.834-2.492.006-2.492-.021-2.492 2.43 0 .345.063.704-.014 1.03-.127.539.475 1.507-.661 1.494-1.048-.012-.601-.935-.609-1.444-.045-3.103-.023-6.207-.023-9.31 0-.207.015-.414.002-.62-.04-.62.244-.865.86-.855 1.448.025 2.897-.009 4.344.026 1.789.042 3.011.979 3.444 2.577.444 1.64-.228 3.27-1.716 4.168-.201.122-.4.25-.73.455m-10.458 19.377c.14-.298.291-.592.42-.895.972-2.28 1.951-4.557 2.9-6.846.254-.614.626-1.102 1.287-.82.285.122.504.731.51 1.123a244.8 244.8 0 01-.002 8.064c-.005.335-.354.664-.544.996-.163-.323-.46-.643-.468-.97-.046-1.86-.02-3.722-.025-5.583 0-.364-.03-.728-.292-1.17-.17.297-.37.58-.506.893-.858 1.99-1.681 3.998-2.57 5.975-.158.35-.566.802-.869.81-.29.008-.714-.446-.87-.792-.837-1.85-1.603-3.732-2.403-5.598-.186-.434-.408-.853-.856-1.27-.029.34-.08.68-.082 1.02-.008 1.93.02 3.86-.03 5.79-.008.302-.35.596-.538.895-.161-.29-.458-.58-.462-.873a320.09 320.09 0 010-8.374c.005-.328.232-.838.486-.94.525-.214.952.036 1.198.636.94 2.292 1.922 4.568 2.894 6.848.157.368.341.725.513 1.088l.309-.007M64.436 13.869c-.916.266-1.377.21-1.788-.494-.932-1.602-3.733-1.915-5.1-.65-.968.897-.833 2.297.328 2.94.504.279 1.074.448 1.63.622.819.258 1.663.438 2.475.716 1.75.6 2.601 1.664 2.55 3.102-.057 1.633-1 2.936-2.781 3.263-1.28.235-2.705.253-3.947-.076-.88-.234-1.598-1.175-2.31-1.88-.163-.16-.007-.643.003-.979.396.106.993.081 1.157.336 1.132 1.752 2.756 1.885 4.548 1.507 1.033-.218 1.827-1.073 1.883-1.949.07-1.118-.626-1.73-1.555-2.053-1.23-.427-2.511-.707-3.75-1.115-1.05-.346-1.894-.933-2.173-2.127-.286-1.225.016-2.24.919-3.088 1.77-1.664 5.344-1.552 6.953.26.388.437.6 1.03.958 1.665m89.747-2.679c-1.447 1.529-2.813 3.016-4.233 4.45-.508.515-.576.86-.085 1.455 1.51 1.83 2.95 3.718 4.415 5.586.121.155.224.325.383.557-1.04.28-1.74.064-2.356-.792-1.225-1.699-2.55-3.326-3.907-5.08-.914.763-1.871 1.34-1.72 2.728.086.782.008 1.582.019 2.374.006.494-.049.883-.7.89-.607.007-.764-.29-.762-.83.01-3.547-.01-7.094.035-10.64.003-.264.39-.675.673-.753.573-.16.761.24.757.785-.015 1.677-.006 3.355-.006 5.328.503-.439.817-.67 1.078-.95 1.365-1.457 2.76-2.89 4.054-4.408.653-.767 1.357-.921 2.355-.7m-85.397 3.74c0 .654-.001 1.309 0 1.963.002.572.215.894.862.863.825-.04 1.655.02 2.48-.021 1.44-.073 2.341-.829 2.565-2.088.356-2.003-.632-3.4-2.661-3.427-3.722-.049-3.2-.572-3.246 2.71zm1.872-3.815c.722 0 1.445-.028 2.166.005 1.972.091 3.43 1.689 3.46 3.76.03 2.142-1.378 3.794-3.396 3.918-.994.061-1.994.043-2.992.032-.641-.007-.94.23-.91.914.042.927-.003 1.858.015 2.786.01.542-.18.945-.756.787-.281-.078-.67-.483-.674-.745-.044-3.542-.022-7.086-.038-10.629-.002-.622.238-.873.854-.852.756.026 1.514.006 2.27.006v.018zm71.679 3.242c-.832.273-1.312.214-1.706-.49-.826-1.478-2.173-2.04-3.827-1.89-1.561.142-2.61 1.03-3.201 2.422-.776 1.824-.747 3.69-.022 5.528.614 1.56 1.815 2.439 3.465 2.516 1.517.072 2.806-.45 3.692-1.83.236-.366.854-.487 1.48-.818-.278 2.119-1.896 3.536-3.922 3.763-3.876.435-6.335-1.673-6.547-5.605-.122-2.272.142-4.407 1.987-6.033 2.137-1.884 6.104-1.51 7.774.778.348.476.538 1.068.827 1.659m-26.704 16.962l-.286.097v1.08c0 2.033.017 4.065-.025 6.096-.005.244-.334.482-.512.723-.196-.23-.558-.458-.56-.69-.04-2.928-.04-5.855-.012-8.782.003-.245.326-.712.406-.692.395.097.887.225 1.112.52 1.146 1.505 2.217 3.067 3.321 4.604.69.958 1.391 1.907 2.087 2.86l.297-.082c.026-.35.074-.699.075-1.048.008-1.998-.019-3.996.03-5.992.006-.308.338-.608.52-.91.173.311.493.621.498.936.039 2.789.036 5.58.003 8.368-.004.307-.276.864-.426.864-.349.002-.827-.169-1.029-.438-1.586-2.122-3.118-4.285-4.67-6.432-.266-.368-.553-.721-.83-1.082m-32.734.672c-.357-.2-.844-.313-1.049-.617-.901-1.336-2.15-1.8-3.665-1.543-1.61.273-2.588 1.335-2.829 2.894-.163 1.06-.182 2.21.047 3.25.499 2.26 2.993 3.423 5.032 2.321.704-.38 1.252-1.226 1.632-1.98.324-.641.007-1.2-.886-1.144-.48.031-.968.032-1.443-.03-.179-.024-.329-.263-.492-.403.16-.143.317-.403.483-.41 1.031-.039 2.07-.071 3.095.02.211.019.534.567.536.874.014 1.658-.581 3.055-2.124 3.842-1.756.897-3.555.868-5.2-.237-2.873-1.93-2.718-7.503.212-9.337 1.825-1.142 4.73-.81 6.088.747.36.413.571.955.85 1.438l-.287.315zm51.149-.016c-.352-.194-.81-.304-1.037-.594-1.052-1.34-2.368-1.89-3.861-1.513-1.504.38-2.503 1.597-2.732 3.265-.203 1.475-.12 2.894.765 4.15.907 1.285 2.23 1.55 3.674 1.303 1.335-.228 2.15-1.125 2.42-2.366.16-.732-.052-1.052-.795-1.042-.516.006-1.039.035-1.548-.031-.206-.027-.382-.28-.572-.43.202-.138.4-.385.607-.395.929-.043 1.866-.074 2.788.014.265.026.684.45.704.718.243 3.15-2.178 4.822-4.889 4.584-2.276-.2-3.682-1.492-4.195-3.537-.664-2.65.056-5.2 1.826-6.463 2.475-1.767 6.292-.677 6.845 2.337m-42.43 3.471l-1.739-4.78h-.379l-1.7 4.78h3.818zm2.51 3.873c-.815.354-1.111-.007-1.35-.603-.94-2.334-.95-2.354-3.334-2.323-2.24.029-1.795-.438-2.694 1.949-.239.634-.346 1.418-1.428 1.009.045-.227.06-.459.138-.666 1.095-2.897 2.18-5.799 3.324-8.677.145-.365.61-.838.925-.837.317 0 .78.473.925.839 1.123 2.811 2.186 5.647 3.261 8.478.095.25.147.517.234.83zm3.683-21.666c0-1.413-.038-2.828.014-4.239.035-.956-.261-1.424-1.29-1.33a9.855 9.855 0 01-2.063-.016c-.28-.034-.526-.357-.788-.549.245-.174.489-.496.736-.5 2.688-.037 5.376-.04 8.064.002.257.004.509.369.763.566-.247.17-.484.462-.743.483-.788.066-1.585.052-2.376.021-.758-.03-1.027.29-1.02 1.044.027 2.999.012 5.997.008 8.995 0 .273.047.6-.083.803-.112.176-.52.35-.665.275-.24-.126-.52-.45-.528-.697-.047-1.618-.024-3.239-.024-4.858h-.005zm-18.777-.473c0-1.724.01-3.447-.006-5.17-.005-.56.094-.939.783-.917.658.02.682.43.681.913-.004 2.964.056 5.93-.032 8.892-.033 1.117.395 1.359 1.366 1.323a46.744 46.744 0 013.928.015c.318.015.853.31.889.539.11.696-.503.576-.927.578-1.896.01-3.793-.024-5.688.018-.775.017-1.026-.26-1.008-1.021.042-1.722.013-3.447.014-5.17m11.808.163v5.066c-.001.452.059.934-.633.942-.67.007-.672-.443-.672-.913 0-3.447-.001-6.893.001-10.34 0-.485-.056-1.016.695-.993.697.021.605.526.607.965.005 1.758.002 3.515.002 5.273m20.269 16.868c0 1.414.028 2.828-.022 4.24-.01.294-.31.577-.475.864-.203-.29-.577-.577-.582-.87a268.243 268.243 0 010-8.48c.005-.29.384-.575.589-.862.163.29.458.574.468.868.05 1.412.022 2.826.022 4.24"/></g></svg>
