<svg width="65" height="25" fill="none" xmlns="http://www.w3.org/2000/svg"><path fill-rule="evenodd" clip-rule="evenodd" d="M37.25 18.95h-1.08s-.32-.75-.45-1.11c-.57-1.51-1.12-3.02-1.68-4.54l-.11-.34c.48 0 1-.03 1.44 0 .07 0 .1.18.14.28l1.06 3.25.17.48.17-.44 1.1-3.3c.06-.2.06-.28.11-.28l1.4.02s.21.69.33 1.03l.96 2.94c.05-.1.1-.16.11-.22l1.1-3.5c.06-.2.06-.27.21-.27h1.44l-.27.77c-.6 1.63-1.38 3.5-2.02 5.23h-1.13l-.38-.97-.96-2.74c-.02-.08-.06-.15-.13-.3-.47 1.36-1.08 2.73-1.53 4zm-9.21-1.29l1.04-.95c.41.47.94.86 1.6.94.37.04.77 0 1.13-.1.37-.1.58-.4.6-.8.03-.39-.17-.66-.5-.81-.46-.2-.93-.35-1.4-.52-.33-.13-.68-.24-1.01-.39-1.8-.81-1.5-3.09-.34-3.93a3.39 3.39 0 014.46.6l-.9.99a2.2 2.2 0 00-2.4-.67.85.85 0 00-.61.75c-.05.4.1.71.43.9.28.17.6.3.9.41.44.16.9.26 1.33.43.84.31 1.44.83 1.5 1.81.06 1.1-.37 1.93-1.36 2.43a3.76 3.76 0 01-4.47-1.09zm19.07-4.69h1.3v.8l.15-.14c.63-.75 1.45-.94 2.36-.74.88.19 1.48.86 1.52 1.81.05 1.38.01 2.75.01 4.18-.41 0-.82.01-1.22-.01-.05 0-.14-.19-.14-.29l-.01-3v-.29c-.03-.62-.28-1.02-.77-1.18-.53-.18-1.18-.01-1.49.47-.2.3-.33.69-.35 1.04-.04.97 0 2.9 0 2.9v.33H47.1v-5.88zm10.91 5.46c-.7.44-1.44.65-2.25.44-.86-.23-1.4-.91-1.41-1.82a76.31 76.31 0 01-.02-2.85h-1.1c-.13 0-.54-1.23-.54-1.23h1.64v-2.39h1.36v2.37h1.33c.08 0 .08.05.14.25l.34 1h-1.75v2.44c0 .82.56 1.24 1.35 1 .17-.04.34-.12.54-.2l.37.99zm2.85-4.23V16.6c0 .93.68 1.38 1.55 1.01l.35-.17c.11.3.23.68.32.98.02.05-.06.09-.12.13-.71.4-1.46.57-2.26.28a1.7 1.7 0 01-1.2-1.56c-.06-.87-.03-1.74-.04-2.61 0-.14 0-.28-.02-.44h-1.29c-.14-.4-.2-.88-.33-1.24h1.62c.03 0 .03-.08.03-.32v-1.84c-.01-.2-.03-.3.02-.3l1.37.02v2.15.29h1.45c.1.02.02.02.28 1.23h-1.73zm-16.34 4.65h1.35v-5.88h-1.35v5.88zm-.26-7.7c0-.54.4-.93.94-.94.54 0 .94.38.95.92a.9.9 0 01-.95.91c-.54 0-.93-.38-.94-.9zm19.28 1.9a.57.57 0 100 1.14.57.57 0 000-1.13zm0 .11a.47.47 0 110 .93.47.47 0 010-.93zm-.09.76v-.24h.08l.17.25h.1l-.16-.23-.04-.02c.02 0 .04-.02.05-.03a.16.16 0 00.08-.08v-.06l-.01-.07a.14.14 0 00-.05-.05.2.2 0 00-.06-.03h-.24v.56h.08zm.07-.3h-.07v-.2h.08c.04 0 .07.01.1.03l.02.07a.1.1 0 010 .05l-.04.03a.13.13 0 01-.04.02h-.05z" fill="#797979"/><path fill-rule="evenodd" clip-rule="evenodd" d="M0 16.48l2.29-3.96c.1-.18.2-.26.42-.26h3.68c.2 0 .31.06.42.22l1.99 2.9c.09.13.18.26.32.35l-.88-1.51c-1.1-1.92-2.2-3.84-3.32-5.75-.11-.2-.13-.33-.01-.53C6.4 5.38 7.88 2.81 9.36.24c.1-.18.2-.24.4-.24h8.91c.2 0 .31.05.41.23l4.5 7.83c.05.1.05.3-.01.4-.68 1.21-1.37 2.41-2.07 3.61-.06.1-.2.18-.31.19h-3.81c-.23.01-.35-.07-.47-.25l-1.98-2.9a.74.74 0 00-.23-.24c.04.1.08.19.13.27l4.06 7.01c.1.17.1.28 0 .46-1.52 2.61-3.02 5.23-4.53 7.85-.1.2-.23.26-.45.26H5.07c-.24 0-.36-.07-.48-.27-1.52-2.66-3.06-5.32-4.59-7.97z" fill="#696969"/></svg>
