<svg width="80" height="25" fill="none" xmlns="http://www.w3.org/2000/svg"><path fill-rule="evenodd" clip-rule="evenodd" d="M79.77 15.57c-.02-.08-.56-2.23-1.67-3.24.54-.52 1.65-1.53 1.28-3.83a.29.29 0 00-.3-.24l-1.47.16a.28.28 0 00-.2.11.29.29 0 00-.05.22c0 .02.3 1.69-.83 2.69l.03-2.84a.29.29 0 00-.1-.21.29.29 0 00-.22-.07l-1.46.16a.28.28 0 00-.25.29l.17 7.1a.28.28 0 00.3.28H75l1.24-.14a.28.28 0 00.25-.26l.1-2.22c.4.4 1.05 1.44 1.15 2.3.02.16.16.27.32.25l1.46-.16a.28.28 0 00.24-.35zM71.36 8.4c-.41.02-1.75.26-1.87 2.24l-.04.72a12.7 12.7 0 00.04 3.16c.1.5.52 1.67 2.19 1.67l.32-.01c.69-.06 1.2-.28 1.53-.67.45-.54.4-1.24.36-1.6v-.08a.28.28 0 00-.3-.26l-1.05.04a.28.28 0 00-.27.33c.03.14.05.6-.14.81-.04.06-.13.13-.33.14h-.01a.46.46 0 01-.36-.14c-.15-.16-.32-.56-.27-1.52l.03-.77c.03-.72.06-1.54.13-2.05v-.02c.05-.39.13-.55.45-.57.24 0 .4.04.49.14.1.14.1.36.08.44-.02.08 0 .16.06.23.05.06.13.1.21.1l1.27.02c.15 0 .28-.12.29-.27 0-.03.02-.8-.56-1.4-.5-.52-1.26-.75-2.25-.68zM68.49 8.2l-1.35.17a.28.28 0 00-.25.28l-.01 7.01a.28.28 0 00.3.28l1.47-.1a.28.28 0 00.26-.29l-.1-7.08a.28.28 0 00-.1-.2.28.28 0 00-.22-.08zM64.95 12.6c.41-.54 1.45-1.8 1.34-3.99a.28.28 0 00-.3-.27l-1.18.08a.28.28 0 00-.26.3c.04.62-.37 1.95-.96 2.78l.08-2.7a.28.28 0 00-.28-.28l-1.52.02a.29.29 0 00-.2.09.29.29 0 00-.08.2l.15 7.16a.28.28 0 00.32.27l1.18-.15a.28.28 0 00.25-.28l.02-2.1a3.9 3.9 0 011.06 2.17c.02.15.14.26.29.25h1.26a.28.28 0 00.26-.3c0-.25-.43-2.45-1.43-3.25zM58.6 8.26c2.16 0 2.5 1.32 2.57 2.3.1 1.39-.35 2.07-.84 2.44l.7 2.66a.28.28 0 01-.26.33l-.99.08h-.02a.28.28 0 01-.28-.23l-.56-2.39-.5.03v2.23c0 .08-.04.16-.1.2a.27.27 0 01-.21.08l-1-.07a.28.28 0 01-.25-.28l-.1-6.92c0-.14.1-.26.23-.28.6-.12 1.15-.18 1.61-.18zm.09 1.6c-.1 0-.19 0-.28.02v2.04c.28-.02.72-.1.98-.38.16-.17.22-.4.2-.7-.06-.82-.53-.98-.9-.98zM56.03 14.71l-1.66.13-.08-1.54 1.07-.06c.14-.01.25-.12.27-.26l.1-.95a.28.28 0 00-.3-.31l-1.16.06V10.1h1.72a.28.28 0 00.28-.35l-.1-1a.28.28 0 00-.29-.26l-3.15.08a.28.28 0 00-.27.28l.1 7.07c0 .16.12.28.28.28h3.18c.16 0 .28-.12.29-.27l.02-.92a.29.29 0 00-.09-.22.3.3 0 00-.21-.08zM48.25 8.26c2.25 0 3.44.76 3.64 2.34.1.8.17 2.5-.24 3.74-.49 1.49-2.6 1.65-3.5 1.65-.25 0-.4-.02-.41-.02a.28.28 0 01-.27-.29l.23-7.14c0-.16.13-.28.28-.28h.27zm1.14 1.65l-.2 4.48c.42-.14.8-.21.95-1.42.14-1.18.15-2.27-.2-2.72-.23-.31-.4-.3-.55-.34zM46.56 8.4l-1.26.06a.29.29 0 00-.2.1.29.29 0 00-.07.2l.2 3.5-1.3-3.6a.28.28 0 00-.3-.2l-1.26.15a.28.28 0 00-.25.28l.2 6.88c0 .15.12.27.27.28l1.27.1a.28.28 0 00.3-.3l-.2-3.01 1.1 3.13c.03.1.13.17.24.18h1.37c.06 0 .13-.03.18-.08a.28.28 0 00.09-.2l-.08-7.19a.29.29 0 00-.1-.2.28.28 0 00-.2-.08zM41.22 8.1L40 8.2a.28.28 0 00-.26.28v5.26c-.02.36.03.96-.36.98-.27.01-.37-.38-.37-.95-.01-.63.04-4.95.04-5 0-.15-.1-.27-.25-.28l-1.38-.15a.28.28 0 00-.31.28l.05 5.64c.02.71.56 1.98 2.1 1.94 1.72-.05 2.03-1.07 2.13-2.27.05-.5.13-5.03.13-5.54a.28.28 0 00-.3-.29zM36.26 8.73l-1.33-.07a.28.28 0 00-.29.27l-.02 2.94-.58.13-.15-3.34a.28.28 0 00-.28-.27l-1.31.03a.28.28 0 00-.29.29l.24 7.43c0 .15.13.27.28.28l1.32-.04c.08 0 .15-.03.2-.08a.28.28 0 00.08-.2L34 13.6l.52.04.09 2.22c0 .08.02.15.08.21.05.06.12.09.2.09l1.37.1h.02c.15-.01.26-.13.27-.28V9.02a.28.28 0 00-.28-.3zM31.12 8.36l-4.42.14a.28.28 0 00-.27.3l.08 1.2c.01.16.14.27.29.27l1.2-.01.27 5.64c0 .08.04.15.1.2.05.05.12.08.2.07l1.36-.09a.28.28 0 00.26-.29l-.16-5.56 1.19-.02c.08 0 .15-.03.2-.09a.28.28 0 00.08-.21l-.09-1.28a.28.28 0 00-.29-.27zM9.34 0l4.94 2.7 2.79 3 2.14-.74 3.15 6.62-.75 5.27 1.54-.53-2.22 5.49-7.7 2.81-4.45-.16-5.45-1.87-2.31-3.97L0 12.46l1.5.7.09-3.84L3.7 5.61 7.5 1.9 8.26 4l1.08-4zm9.02 9.4l-6.95.2-6.72.03.16 4.72 4.56-.2.31 4.89v2.79l3.8.04.24-2.91.15-4.92 4.37-.12.2-3.9-.12-.62z" fill="#696969"/></svg>
