<svg width="79" height="25" fill="none" xmlns="http://www.w3.org/2000/svg"><path d="M30.55 13.88c0 .74.58 1.32 1.3 1.32.16 0 .32-.03.7-.17l.55 1.35c-.53.2-.88.28-1.25.28a2.77 2.77 0 01-2.77-2.78V4.91h1.48v2.25h2.54v1.46h-2.55v5.26zM34.07 13.88v-4.5a2.77 2.77 0 115.55 0v4.5a2.77 2.77 0 11-5.55 0zm2.78-5.8c-.7 0-1.3.59-1.3 1.3v4.5c0 .72.6 1.32 1.3 1.32.72 0 1.3-.58 1.3-1.32v-4.5a1.3 1.3 0 00-1.3-1.3zM47.97 9.1c0-.55-.46-1.03-1.02-1.03-.55 0-1.02.48-1.02 1.02v7.38h-1.46V9.09c0-.54-.45-1.02-1.02-1.02-.54 0-1.01.48-1.01 1.02v7.38h-1.46V9.09a2.47 2.47 0 014.23-1.75 2.48 2.48 0 014.23 1.76v7.37h-1.47V9.09zM57.29 9.39a1.3 1.3 0 10-2.6 0v7.08h-1.47V3.09h1.47v3.86a2.77 2.77 0 014.07 2.44v7.08H57.3V9.39zM60.07 13.88v-4.5a2.77 2.77 0 115.55 0v4.5a2.77 2.77 0 11-5.55 0zm2.78-5.8c-.7 0-1.3.59-1.3 1.3v4.5c0 .72.6 1.32 1.3 1.32.72 0 1.3-.58 1.3-1.32v-4.5a1.3 1.3 0 00-1.3-1.3zM69.7 8.07c-.7 0-1.3.6-1.3 1.32v7.08h-1.46V9.39a2.75 2.75 0 012.76-2.77c.97 0 1.88.5 2.48 1.52l-1.25.74c-.35-.56-.76-.8-1.23-.8zM76.6 9.39c0-.72-.59-1.32-1.29-1.32-.72 0-1.3.58-1.3 1.32v7.08h-1.47V9.39a2.77 2.77 0 115.53 0v7.08H76.6V9.39zM41.36 23.46V20.9c0-.6.48-1.08 1.08-1.08.43 0 .82.26 1.02.72l-.47.2c-.12-.27-.33-.4-.55-.4a.56.56 0 00-.57.56v2.56c0 .3.26.57.57.57.3 0 .57-.26.57-.57v-.56h-.82v-.51h1.33v1.07c0 .6-.48 1.08-1.08 1.08-.6 0-1.08-.48-1.08-1.08zM47.46 23.03h-1.13v1.45h-.51V20.9c0-.6.48-1.08 1.08-1.08.6 0 1.08.48 1.08 1.08v3.57h-.52v-1.45zm-.56-2.68c-.3 0-.57.25-.57.56v1.61h1.13v-1.6a.56.56 0 00-.56-.57zM52.6 21.44l-.72 2.06h-.29l-.7-2.06v3.04h-.52v-4.6h.52l.84 2.46.86-2.46h.51v4.6h-.5v-3.04zM56.87 19.88h-1v4.6h1v-4.6zM59.63 21.39v3.09h-.52v-4.6h.5l1.15 3.1v-3.1h.5v4.6h-.5l-1.13-3.1zM63.64 23.46V20.9c0-.6.48-1.08 1.08-1.08.43 0 .82.26 1.02.72l-.48.2c-.11-.27-.32-.4-.54-.4a.56.56 0 00-.57.56v2.56c0 .3.26.57.57.57.3 0 .56-.26.56-.57v-.56h-.82v-.51h1.34v1.07a1.08 1.08 0 11-2.16 0z" fill="#696969"/><path fill-rule="evenodd" clip-rule="evenodd" d="M17.67 6.83A7.66 7.66 0 016.8 17.63l-.03-.02-.15-.14c-.06-.05-.12-.1-.18-.13h-.02a2.26 2.26 0 00-.18-.12h-.01a2.29 2.29 0 00-2.11 0l-.07.03a2.27 2.27 0 00-.5 3.6A12.23 12.23 0 0020.91 3.61a2.28 2.28 0 01-3.24 3.22z" fill="url(#paint0_linear)"/><path fill-rule="evenodd" clip-rule="evenodd" d="M3.61 3.55a12.23 12.23 0 00-.06 17.3 2.28 2.28 0 013.24-3.22 7.66 7.66 0 0110.88-10.8 2.28 2.28 0 003.24-3.22 12.2 12.2 0 00-17.3-.06z" fill="url(#paint1_linear)"/><defs><linearGradient id="paint0_linear" x1="24.47" y1="4.3" x2="3.58" y2="24.49" gradientUnits="userSpaceOnUse"><stop stop-color="#696969" stop-opacity=".5"/><stop offset="1" stop-color="#696969"/></linearGradient><linearGradient id="paint1_linear" x1="21.58" y1=".69" x2=".69" y2="20.88" gradientUnits="userSpaceOnUse"><stop stop-color="#696969"/><stop offset="1" stop-color="#696969" stop-opacity=".5"/></linearGradient></defs></svg>
