<svg width="146" height="48" xmlns="http://www.w3.org/2000/svg"><defs><linearGradient x1="0%" y1="50%" x2="127.687%" y2="50%" id="a"><stop stop-color="#1BCEDF" offset="0%"/><stop stop-color="#057FBC" offset="100%"/></linearGradient><linearGradient x1="0%" y1="50%" x2="127.687%" y2="50%" id="b"><stop stop-color="#1BCEDF" offset="0%"/><stop stop-color="#057FBC" offset="100%"/></linearGradient></defs><g fill="none"><path d="M47.381 29.817v-9.559h-2.818v-2.2h7.846v2.2h-2.566v9.56zm6.524 0v-11.75h5.114c2.131 0 3.357 1.278 3.357 2.652v2.496c0 .922-.574 1.81-1.626 2.28l1.896 4.322h-2.583l-1.757-3.992h-1.914v3.992h-2.487zm2.487-9.541v3.357h2.366c.635 0 1.157-.322 1.157-.974v-1.41c0-.669-.54-.973-1.192-.973h-2.33zm8.011 9.541v-11.75h2.479v11.75zm4.497 0v-11.75h5.062c2.13 0 3.357 1.278 3.357 2.652v2.496c0 1.357-1.209 2.653-3.322 2.653h-2.618v3.958h-2.48v-.009zm2.479-9.541v3.383h2.33c.618 0 1.14-.34 1.14-1.009v-1.409c0-.67-.522-.974-1.174-.974h-2.296v.009zm14.76 9.541h-7.045v-11.75h2.478v9.558h4.558v2.192zm8.915 0h-7.428v-11.75h7.263v2.2h-4.775v2.514h4.192v2.2h-4.192v2.653h4.949v2.183zm14.273 0H101.9v-11.75h7.263v2.2h-4.775v2.514h4.192v2.2h-4.192v2.653h4.949v2.183zm1.975-11.733h5.349c2.113 0 3.322 1.287 3.322 2.67v6.402c0 1.374-1.209 2.67-3.322 2.67h-5.35V18.084zm2.487 2.192v7.34h2.566c.635 0 1.157-.339 1.157-1.008v-5.332c0-.67-.522-1.01-1.157-1.01h-2.566v.01zm14.012 1.809v-.905c0-.67-.522-1.009-1.157-1.009h-1.426c-.618 0-1.14.34-1.14 1.01v5.531c0 .67.522 1.009 1.14 1.009h1.426c.635 0 1.157-.34 1.157-1.009v-1.157h-1.93v-2.21h4.392v3.906c0 1.374-1.21 2.67-3.323 2.67h-1.879c-2.183 0-3.47-1.287-3.47-2.67v-6.61c0-1.374 1.287-2.67 3.47-2.67h1.88c2.113 0 3.322 1.287 3.322 2.67v1.444H127.8zm11.742 7.732h-7.428v-11.75h7.263v2.2h-4.775v2.514h4.192v2.2h-4.192v2.653h4.949v2.183z" fill="#363636"/><path d="M22.041 21.642l13.46-3.516v5.524l-13.46 3.715v-5.723zm0 16.27l13.46-3.715V28.67l-13.46 3.515v5.729zm0-26.76v5.723l13.46-3.715V7.636l-13.46 3.516z" fill="url(#a)" transform="translate(.238 .238)"/><path d="M5.876 13.186V7.662l13.359 3.49V0C14.022 3.374.352 3.38.352 3.38 6.38 15.85.047 24.742.047 24.742c6.338 14.1 19.188 22.656 19.188 22.656V16.875l-13.36-3.689z" fill="url(#b)" transform="translate(.238 .238)"/><path d="M143.997 18.162a1.95 1.95 0 00-1.949 1.948c0 1.07.87 1.949 1.949 1.949a1.95 1.95 0 001.948-1.949c0-1.078-.87-1.948-1.948-1.948zm0 3.74c-.992 0-1.8-.809-1.8-1.8 0-.992.808-1.8 1.8-1.8.991 0 1.8.808 1.8 1.8 0 1-.809 1.8-1.8 1.8zm-1.54-2.453h1.122v.261h-.4v1.157h-.322V19.71h-.4v-.26zm2.931 0v1.41h-.313v-.844c0-.087 0-.192.009-.305h-.009c-.017.087-.035.148-.043.192l-.331.956h-.26l-.34-.948a1.26 1.26 0 01-.044-.2h-.008c.008.14.008.261.008.366v.782h-.287V19.45h.47l.287.835a.85.85 0 01.052.2h.009c.017-.078.035-.148.052-.2l.287-.835h.461z" fill="#363636"/><path d="M47.773 37.358v.244c0 .374.33.608.748.608h.591c.426 0 .757-.2.757-.582v-.226c0-.635-2.766-.783-2.766-2.253v-.487c0-.574.513-1.114 1.348-1.114h.67c.887 0 1.444.548 1.444 1.157v.583h-.853v-.4c0-.365-.313-.583-.695-.583h-.435c-.348 0-.635.209-.635.54v.234c0 .783 2.757.93 2.757 2.192v.54c0 .643-.574 1.156-1.496 1.156h-.748c-.94 0-1.54-.565-1.54-1.183v-.417h.853v-.009zm15.482 1.557v-4.566h-1.366v-.757h3.47v.757H64.1v4.566zm15.839.052h-.914c-.878 0-1.452-.565-1.452-1.183v-4.192h.86v4.01c0 .374.288.608.644.608h.766c.357 0 .644-.234.644-.608v-4.01h.852v4.192c.009.618-.53 1.183-1.4 1.183zm13.142-5.375h2.383c.861 0 1.4.565 1.4 1.183v2.948c0 .627-.539 1.183-1.4 1.183h-2.383v-5.314zm.852.757v3.818h1.435c.366 0 .653-.235.653-.609v-2.6c0-.375-.287-.61-.653-.61h-1.435zm14.622 4.566v-5.332h.852v5.332zm13.977.052c-.887 0-1.453-.565-1.453-1.183V34.74c0-.626.566-1.183 1.453-1.183h.939c.861 0 1.4.565 1.4 1.183v3.044c0 .627-.539 1.183-1.4 1.183h-.94zm.835-.757c.365 0 .652-.234.652-.608v-2.688c0-.374-.287-.609-.652-.609h-.792c-.348 0-.643.235-.643.609v2.688c0 .374.295.608.643.608h.792zm13.864-.852v.244c0 .374.33.608.748.608h.591c.427 0 .757-.2.757-.582v-.226c0-.635-2.766-.783-2.766-2.253v-.487c0-.574.513-1.114 1.348-1.114h.67c.887 0 1.444.548 1.444 1.157v.583h-.844v-.4c0-.365-.313-.583-.696-.583h-.443c-.348 0-.635.209-.635.54v.234c0 .783 2.757.93 2.757 2.192v.54c0 .643-.574 1.156-1.496 1.156h-.748c-.94 0-1.54-.565-1.54-1.183v-.417h.853v-.009z" fill="#8C9192"/></g></svg>
