<svg width="217" height="25" fill="none" xmlns="http://www.w3.org/2000/svg"><path d="M22.25 24.04L.75 2.59A1.29 1.29 0 011.67.38h21.5c.7 0 1.29.58 1.29 1.29v21.45c0 1.13-1.38 1.71-2.21.92zM27.09 23.12V1.67c0-.71.58-1.3 1.29-1.3h21.5c1.16 0 1.75 1.38.91 2.22L29.3 24.04c-.83.8-2.2.2-2.2-.92zM53.42 23.12V1.67c0-.71.59-1.3 1.3-1.3H76.2c1.17 0 1.75 1.38.92 2.22l-21.5 21.45c-.83.8-2.2.2-2.2-.92zM107.01.33v14.82l-5.18-10.48h-2.96l-5.26 10.6V.34h-4.67v24.09h4.63l6.72-13.11 6.76 13.1h4.6V.34H107zM124.62 7.26l2.71 8.47h-5.46l2.75-8.47zM122.28.33l-8.38 24.04h5.21l1.46-4.55h8.06l1.46 4.55h5.22L126.9.33h-4.63zM136.27.33v4.18h9.8l-9.8 16.7v3.2h16.27v-4.13H142.5l9.72-16.73V.33h-15.94zM168.65 13.94v-3.13c0-4.13-1.12-6.3-4.38-6.3h-3.67v15.77h3.67c3.26 0 4.38-2.17 4.38-6.34zm-12.94 10.48V.38h8.56c5.47 0 9.27 2.8 9.27 10.47v3.13c0 7.64-3.8 10.48-9.27 10.48h-8.56v-.04zM185.06 7.26l2.7 8.47h-5.46l2.76-8.47zM182.72.33l-8.39 24.04h5.22l1.46-4.55h8.05l1.46 4.55h5.22L187.39.33h-4.67zM211.56.33v15.11L202.12.34h-4.04v24.08h4.63V9.52l9.39 14.9h4.09V.33h-4.63z" fill="#696969"/></svg>
