<svg width="215" height="48" xmlns="http://www.w3.org/2000/svg"><g fill="none" fill-rule="evenodd"><path d="M161.097 19.514V31.96h17.762c.509 3.893 1.104 5.383 2.952 6.243 3.646 1.7 7.35 1.418 10.767-.55.858-.493 1.379-2.015 1.55-3.14.196-1.28-.753-2.21-1.998-2.648-1.484-.521-2.959-1.09-4.479-1.482-4.1-1.057-8.259-1.9-12.324-3.07-5.203-1.5-10.788-2.384-14.23-7.799m-18.066-6.75c-.62 1.641-1.266 3.274-1.858 4.927a7340.124 7340.124 0 00-9.908 27.8c-.315.89-.808 1.115-1.688 1.109-5.332-.035-10.666-.055-15.998.01-1.072.013-1.375-.469-1.667-1.33-3.462-10.195-6.953-20.38-10.44-30.566-.152-.444-.336-.876-.824-1.266v33.034h-16.25v-36.26l-.386-.06c-.67 2.811-1.343 5.622-2.007 8.436-2.076 8.786-4.17 17.568-6.196 26.366-.279 1.21-.716 1.67-2.03 1.656a949.725 949.725 0 00-20.732.001c-1.343.015-1.891-.4-2.252-1.665-2.279-8.002-4.634-15.983-6.967-23.97-.147-.504-.316-1.001-.583-1.84-.269.702-.44 1.073-.554 1.46-2.383 8.084-4.784 16.162-7.111 24.262-.375 1.305-.932 1.77-2.35 1.753-7.018-.086-14.038-.05-21.058-.02-.925.003-1.473-.13-1.719-1.195C7.1 30.884 3.701 16.372.317 1.856c-.034-.149-.004-.313-.004-.609.408-.05.815-.145 1.222-.146 5.224-.01 10.448.024 15.671-.034 1.161-.013 1.569.37 1.801 1.503 1.711 8.365 3.5 16.714 5.271 25.066.087.411.228.811.46 1.62.307-.912.508-1.454.673-2.006 2.445-8.183 4.92-16.356 7.293-24.56.384-1.328 1-1.642 2.289-1.628 5.93.067 11.863.072 17.793-.002 1.316-.016 1.872.344 2.245 1.65 2.428 8.525 4.957 17.02 7.458 25.524.057.197.164.38.457 1.043l5.987-28.07h2.785c13.332.001 26.664.017 39.996-.022 1.137-.003 1.602.38 1.934 1.438 2.976 9.473 6.007 18.93 9.135 28.747.84-2.712 1.595-5.126 2.335-7.545 2.21-7.212 4.395-14.431 6.66-21.626.137-.438.872-.98 1.332-.982 8.815-.051 17.63-.018 26.445-.037 1.043-.002 1.45.314 1.406 1.409-.079 1.987-.022 3.98-.022 5.805 1.806-1.54 3.378-3.433 5.392-4.462 2.61-1.333 5.512-2.261 8.393-2.86 6.87-1.43 13.856-1.2 20.795-.628 3.713.306 7.422 1.057 10.71 3.038 4.28 2.58 6.088 5.843 6.096 11.019h-18.443c-.058-2.505-1.018-4.551-3.375-5.486-2.765-1.096-5.644-1.13-8.44.003-1.48.6-2.33 1.69-2.252 3.414.075 1.666 1.17 2.44 2.511 2.834 3.325.976 6.704 1.766 10.03 2.74 4.928 1.441 9.893 2.802 14.723 4.529 3.699 1.322 6.067 4.129 6.76 8.106.832 4.771-.36 8.852-4.352 11.854-3.775 2.838-8.204 3.971-12.77 4.546-8.353 1.052-16.72 1.142-25.022-.457-4.074-.784-7.88-2.224-10.587-6.288v6.102h-17.717V12.835l-.36-.072" fill="#006DB6"/><path d="M143.527 19.062c4.326.865 8.398 1.673 12.467 2.497.681.138 1.343.37 2.024.507 2.756.555 2.892.576 2.898 3.06v6.778h17.83c.102.789.182 1.419.262 2.049.327 2.593 1.743 4.347 4.24 5.034 2.865.788 5.723.51 8.473-.611 1.587-.648 2.599-1.813 2.621-3.592.023-1.802-1.129-2.818-2.697-3.258-4.337-1.216-8.723-2.265-13.054-3.502-3.912-1.117-7.782-2.38-11.658-3.619-.638-.204-1.208-.618-1.68-1.276 3.408.675 6.815 1.35 10.223 2.023 3.707.732 7.415 1.46 11.12 2.196 5.094 1.01 10.188 2.02 15.28 3.04 3.6.722 7.188 1.5 10.798 2.166 1.015.188 1.376.58 1.297 1.605-.3 3.873-2.208 6.741-5.384 8.846-3.295 2.183-7.028 3.167-10.857 3.752-8.554 1.306-17.125 1.353-25.651-.228-4.277-.793-8.298-2.207-11.085-6.069v5.762h-17.467v-27.16zM34.787 1.238c6.523.064 13.047.031 19.665.031l8.235 27.952.424.034 5.297-25.117c3.57.674 6.994 1.314 10.413 1.967C84.133 7.119 89.448 8.12 94.753 9.17c5.034.995 10.053 2.062 15.085 3.064a65.5 65.5 0 004.808.765c1.57.192 2.583.692 3.073 2.48 1.335 4.868 2.943 9.661 4.449 14.482.139.446.319.88.651 1.788l4.874-16.031 13.226 2.645c-1.078 3.042-2.106 6-3.175 8.945-2.168 5.972-4.383 11.927-6.516 17.912-.334.938-.788 1.234-1.754 1.226a873.327 873.327 0 00-15.67 0c-1.049.01-1.484-.33-1.82-1.332-3.45-10.245-6.961-20.469-10.458-30.698-.188-.551-.405-1.093-.951-1.596v33.506H84.597V9.209l-.435-.094c-.185.682-.39 1.36-.552 2.047-2.664 11.26-5.35 22.514-7.946 33.789-.29 1.255-.815 1.501-1.966 1.494-6.91-.043-13.82-.048-20.73.013-1.19.01-1.68-.363-2.006-1.502-2.361-8.25-4.792-16.48-7.206-24.717-.104-.358-.247-.705-.55-1.557-.32.935-.515 1.44-.667 1.957l-3.557 12.034a2060.138 2060.138 0 00-3.516 12.045c-.371 1.29-.908 1.77-2.33 1.75-6.8-.091-13.601-.042-20.402-.043H10.85L.327 1.34h18.26l5.949 27.908.358.027c.185-.54.39-1.073.553-1.619 2.491-8.327 4.996-16.65 7.44-24.991.312-1.068.752-1.439 1.9-1.428z" fill="#000"/></g></svg>
