<svg width="100" height="25" fill="none" xmlns="http://www.w3.org/2000/svg"><g clip-path="url(#clip0)" fill-rule="evenodd" clip-rule="evenodd" fill="#696969"><path d="M69.64 12.45a2.69 2.69 0 001.84-2.68v-.03c0-.82-.26-1.5-.74-1.98-.56-.57-1.4-.88-2.5-.88h-3.63v8.67h1.88V8.6h1.6c.91 0 1.48.42 1.48 1.24v.03c0 .73-.53 1.22-1.45 1.22h-.93v1.69h.5l1.84 2.77h2.2l-2.1-3.1zM31.82 15.55h1.89v-2.8L37 6.88h-2.15l-2.08 3.86-2.05-3.86h-2.2l3.29 5.91v2.76zM42.25 11.04v1.49h.9v.91c-.48.35-1.1.52-1.78.52-1.52 0-2.6-1.16-2.6-2.74v-.03c0-1.47 1.09-2.7 2.46-2.7 1 0 1.58.32 2.24.88l1.2-1.45a4.68 4.68 0 00-3.38-1.19c-2.6 0-4.5 2.02-4.5 4.49v.02a4.31 4.31 0 004.52 4.46c1.56 0 2.78-.62 3.66-1.38v-3.28h-2.72zM51.68 11.04v1.49h.88v.91c-.47.35-1.09.52-1.77.52-1.52 0-2.6-1.16-2.6-2.74v-.03c0-1.47 1.1-2.7 2.46-2.7 1 0 1.58.32 2.25.88l1.18-1.45a4.68 4.68 0 00-3.37-1.19c-2.6 0-4.5 2.02-4.5 4.49v.02a4.31 4.31 0 004.52 4.46c1.56 0 2.78-.62 3.66-1.38v-3.28h-2.71zM58.84 6.88c2.7 0 4.55 1.87 4.55 4.31v.03c0 2.43-1.86 4.33-4.55 4.33h-2.95V6.88h2.95zm0 1.72h-1.07v5.23h1.07a2.46 2.46 0 002.58-2.59v-.02c0-1.54-1.04-2.62-2.58-2.62zM81.41 15.58l-3.67-8.73H76l-3.68 8.73h1.92l2.6-6.44 1.13 2.8h-1.52l-.67 1.67h2.87l.79 1.97h1.97zM81.8 14.23a5.42 5.42 0 003.64 1.39c1.85 0 3.14-.97 3.14-2.7v-.02c0-1.5-.98-2.14-2.72-2.6-1.48-.38-1.85-.57-1.85-1.14v-.02c0-.42.38-.76 1.1-.76a4 4 0 012.24.86l.98-1.44a4.93 4.93 0 00-3.19-1.1c-1.75 0-3 1.04-3 2.61v.03c0 1.72 1.11 2.2 2.84 2.65 1.44.37 1.73.62 1.73 1.1v.02c0 .51-.47.82-1.24.82-.98 0-1.79-.4-2.56-1.05l-1.11 1.35zM90.01 15.55h1.89V6.88H90v8.67zM93.47 6.88h1.89v6.94h4v1.73h-5.9V6.88zM13.48 24.04v-4.06l4.1-5.34c-.88-.38-1.74-.84-2.54-1.37l-2.98 3.89-2.99-3.9c-.8.54-1.66 1-2.54 1.38l4.1 5.34v4.06c.95.11 1.9.1 2.85 0z"/><path d="M24.11 12.8c-.06.95-.23 1.9-.52 2.82a17.05 17.05 0 01-11.53-5.48A17.05 17.05 0 01.52 15.62C.24 14.71.06 13.76 0 12.8c1.53-.06 3-.35 4.36-.85-1.21-1.01-2.62-1.8-4.15-2.28.18-.93.48-1.84.89-2.71 2.28.73 4.34 2 6.01 3.63a14.32 14.32 0 002.77-2.3c-2.8-.49-5.3-1.9-7.14-3.93.61-.75 1.3-1.41 2.06-1.97a9.77 9.77 0 004.02 2.69c-.56-1.36-.95-2.8-1.14-4.3C8.58.44 9.5.2 10.47.07c.2 1.86.74 3.61 1.59 5.19.84-1.58 1.39-3.33 1.58-5.2a12 12 0 012.8.72c-.2 1.5-.6 2.94-1.15 4.3a9.77 9.77 0 004.02-2.7c.78.6 1.47 1.25 2.07 1.98a12.58 12.58 0 01-7.15 3.93c.82.88 1.75 1.65 2.77 2.3A15.34 15.34 0 0123 6.96c.4.87.7 1.78.89 2.7-1.54.5-2.94 1.28-4.15 2.29 1.37.5 2.83.8 4.36.85z"/></g><defs><clipPath id="clip0"><path fill="#fff" d="M0 0h100v25H0z"/></clipPath></defs></svg>
