<svg xmlns="http://www.w3.org/2000/svg" viewBox="0 0 36 36"><path fill="#a8bec3" fill-rule="evenodd" d="M18 0A18 18 0 110 18 18 18 0 0118 0zm0 2A16 16 0 112 18 16 16 0 0118 2z"/><path fill="#558395" fill-rule="evenodd" d="M13 13.29h-.211l-4.123 1.47v1.61l2.359-.73v7.61H13v-9.96zm7.75.62a3.887 3.887 0 00-4.6.01 2.579 2.579 0 00-.848 2.03 2.315 2.315 0 00.359 1.28 2.6 2.6 0 001 .9 2.838 2.838 0 00-1.142.95 2.511 2.511 0 00-.424 1.45 2.606 2.606 0 00.91 2.09 4.307 4.307 0 004.915 0 2.6 2.6 0 00.9-2.09 2.472 2.472 0 00-.424-1.44 2.845 2.845 0 00-1.148-.96 2.623 2.623 0 001-.9 2.3 2.3 0 00.362-1.28 2.581 2.581 0 00-.857-2.04zm-1.285 7.51a1.536 1.536 0 01-2.034-.01 1.624 1.624 0 01.007-2.07 1.5 1.5 0 012.017 0 1.443 1.443 0 01.376 1.04 1.415 1.415 0 01-.363 1.04zM19.321 17a1.068 1.068 0 01-.864.36 1.082 1.082 0 01-.869-.36 1.428 1.428 0 01-.307-.96 1.356 1.356 0 01.307-.94 1.094 1.094 0 01.862-.34 1.074 1.074 0 01.868.35 1.364 1.364 0 01.308.93 1.437 1.437 0 01-.302.96zM26.564 16.37h-1.152v1.97h-1.866v1.09h1.866v2.11h1.152v-2.11h1.855v-1.09h-1.855v-1.97z"/></svg>
