<svg xmlns="http://www.w3.org/2000/svg" viewBox="0 0 29.438 32.72"><path fill="#a8bec3" fill-rule="evenodd" d="M4.608 30.35a2.3 2.3 0 01-2.311 2.38 2.2 2.2 0 01-1.713-.78 2.343 2.343 0 01-.586-1.6 2.309 2.309 0 01.707-1.67 2.216 2.216 0 011.643-.66 2.073 2.073 0 011.986 1.24h-.808a1.5 1.5 0 00-1.229-.58 1.531 1.531 0 00-1.121.47 1.771 1.771 0 00-.038 2.42 1.609 1.609 0 001.159.51 1.67 1.67 0 001.56-1.09H1.806v-.64h2.8zm.705 2.29h-.694l1.77-4.53h.637l1.77 4.53h-.719l-.5-1.32H5.82zm1.395-3.67l-.65 1.72h1.287zm2.335 3.67v-4.53h.975l1.311 3.51 1.312-3.51h.959v4.53h-.618l.045-3.93-1.471 3.93h-.465l-1.465-3.93.045 3.93H9.04zm7.443.09a2.244 2.244 0 01-1.682-.72 2.352 2.352 0 01-.643-1.68 2.242 2.242 0 01.688-1.64 2.282 2.282 0 011.649-.67 2.325 2.325 0 012.255 1.81h-1.2a1.184 1.184 0 00-2.255.51 1.238 1.238 0 001.185 1.27 1.2 1.2 0 001.044-.65h1.2a2.272 2.272 0 01-2.241 1.77zm3.367-.09h-1.21l1.738-4.53h.9l1.739 4.53H21.8l-.223-.65h-1.5zm.98-3.04l-.452 1.45h.9zm2.278 3.04v-4.53h1.5a1.864 1.864 0 011.147.25 1.46 1.46 0 01.611 1.27 1.416 1.416 0 01-1.026 1.46l1.108 1.55h-1.369l-.866-1.46v1.46h-1.108zm1.325-2.44c.548 0 .815-.14.815-.55 0-.37-.236-.52-.726-.52h-.306v1.07h.217zm2.52 2.44v-4.53h2.458v1h-1.35v.73h1.35v1.01h-1.35v.79h1.35v1h-2.458zm1.656-16.97a1.084 1.084 0 00-.4-.13.354.354 0 00-.1-.01c-.018 0-.036-.01-.054-.01h-9.041a1.135 1.135 0 100 2.27h3.439a.205.205 0 01.206.21.219.219 0 01-.083.16 15.024 15.024 0 01-6.966 1.61 16.725 16.725 0 01-1.892-.1v2.57q.8.06 1.631.06a19.222 19.222 0 009.573-2.37.189.189 0 01.1-.03.225.225 0 01.223.23.181.181 0 01-.011.06l-.525 1.43a1.447 1.447 0 002.715 1l1.9-5.16a1.445 1.445 0 00-.715-1.79zm-13-9.73a14.829 14.829 0 017.016 1.64s1.2.86 1.774.03c.656-.95-.654-1.55-.654-1.55a19.979 19.979 0 00-8.4-1.75q-.828 0-1.631.06v1.67c.617-.06 1.249-.1 1.895-.1zM2.012 0a2 2 0 00-2 2v21.84a2 2 0 002 2h11.7v-3.6c-7.042-.51-12.511-4.32-12.511-8.93S6.67 4.88 13.712 4.37V0h-11.7zm2.737 12.86c0 3.41 3.872 6.24 8.967 6.81V6.04c-5.091.58-8.963 3.41-8.963 6.82z"/></svg>
