<svg xmlns="http://www.w3.org/2000/svg" xmlns:xlink="http://www.w3.org/1999/xlink" viewBox="0 0 128 265"><defs><path id="a" d="M.055.02h107.786v244.376H.055z"/></defs><g fill="none" fill-rule="evenodd"><path fill="#1A3A47" d="M27.936 157.83c-1.145 0-3.013.793-3.936 2.105 9.039-1.535 13.072 14.334 12.975 28.098 3.11-15.448-1.128-30.202-9.039-30.202"/><path fill="#1A3A47" d="M56.939 194.992c-.115-.974 3.058-3.781 6.766-2.171-4.167-4.156-9.977-1.91-10.59 2.246-.443 3.016 1.227 5.046 2.176 5.932-1.796.16-4.667-.066-5.476-.292-.871-.243-3.027-2.606-3.798-3.474 1.344-3.787 2.255-8.22 2.586-13.019l10.642-.509c-1.938 1.597-5.247 4.098-7.62 4.698 1.644.637 11.812-.15 11.889-.636l-.69-1.397c-.082-1.58-.291-5.42-.579-9.587l1.23-.36c1.213-.89 1.31-4.816.925-6.982l20.065-13.376a330.28 330.28 0 012.158 34.603 314.425 314.425 0 01-.756 25.302L71.58 201.556l14.06 17.367a292.668 292.668 0 01-.375 4.235c-5.115-4.939-28.225-27.3-28.326-28.166m24.609-48.404L59.634 160.8c-.632-1.198-1.402-2.403-2.23-3.563.041-.131.08-.263.116-.398l.905-3.465c.666-2.553.107-4.897-1.25-5.236l.578-2.289a1.776 1.776 0 00-.624-1.84l13.006-49.823c5.11 13.176 9.22 28.875 12.06 45.798-.511 1.883-.636 4.598-.647 6.603M34.17 48.278c-6.17.109-17.623 6.887-20.82 19.395L8.855 45.457c-.233-.79-2.441-1.76-3.02-1.597l-4.54 1.287c-.33.093-.904.774-1.296 1.489l3.42-.969c.578-.164 2.786.807 3.019 1.597 0 0 4.893 24.16 5.454 24.11C18.11 62.238 25.706 55.798 33.148 55.2c10.435-.84 19.994 6.947 28.054 20.35-.01.037-.024.073-.034.11l-.843 3.06c-.414 1.503.831 5.747 2.152 8.527L48.24 141.784c-.469.084-.89.344-1.167.727-.208-1.974-1.032-3.496-2.055-3.748.218-.296.348-.658.348-1.05v-1.348c0-.725-.44-1.348-1.07-1.632V73.155a1.795 1.795 0 001.07-1.632v-1.347c0-.268-.061-.521-.169-.75h.383c1.557 0 2.819-1.891 2.819-4.224l.03-1.85c3.353 2.037 6.332 4.515 8.726 6.973-7.238-9.334-14.734-14.993-23.294-14.376-8.308.599-18.502 8.885-24.466 23.012 7.327-12.562 15.192-19.112 22.6-20.123-.597.774-.977 1.917-.977 3.195v3.169c0 2.333 1.262 4.225 2.818 4.225h.383a1.757 1.757 0 00-.169.749v1.347c0 .725.44 1.348 1.07 1.632v61.578a1.794 1.794 0 00-1.07 1.632v1.348c0 .392.13.754.349 1.05-.927.228-1.688 1.497-1.979 3.2-.257.045-.525.104-.796.172-.122-1.68-.104-4.376 1.193-4.909-.383-2.134.484-4.255 1.221-4.572-3.974-12.12-11.867-39.526-11.696-40.765.866-1.148 2.217-3.819 2.217-4.792 0-.973-1.988-3.594-1.988-3.594s3.517-7.487 7.11-12.354c-2.981.449-10.703 13.777-10.703 13.777s-5.123.374-7.493-3.744c-.23.899 1.53 4.867 1.53 5.84 0 .974-.918 6.514-3.327 7.263 1.032.786 2.332.824 2.982.674-.497-1.722 1.083-4.542 3.938-4.642 2.585-.09 12.931 43.633 14.855 51.86-.72.195-1.46.475-2.125.852-.688-.075-9.328-26.281-9.328-26.281s7.416 29.164 7.34 29.763c-.382.561-1.53 1.834-1.568 5.353 1.109-2.134 4.244-4.38 4.244-4.38l.771 3.38c-.527.19-.998.443-1.32.775 9.481-1.547 13.75 14.4 14.069 28.201.316 13.677-2.082 24.628-8.123 29.87 3.352-.749 6.368-3.687 8.68-8.069.85 2.394 2.733 7.815 2.654 8.55-.102.949-1.497 5.579-3.408 6.327.993.394 3.408.063 3.408.063l11.926 36.67s-7.95-39.216-7.644-39.665c1.427-1.048 5.3-1.148 6.218.649.765-.65 1.708-4.155 1.822-4.904-4.32 2.47-10.054 1.123-11.468.523 1.92-4.764 6.884-6.527 8.48-8.176l26.499 24.687s-.612 6.663-.306 7.787c.178.655.876 1.435 1.427 1.973a278.44 278.44 0 01-3.823 20.889L82.59 265c5.43-21.798 8.41-46.943 8.41-74.52 0-78.537-25.448-142.76-56.829-142.203"/><g transform="translate(20)"><mask id="b" fill="#fff"><use xlink:href="#a"/></mask><path fill="#1A3A47" d="M100.061 118.915c-1.945.64-8.264 5.676-14.115 10.569a.588.588 0 00-.248-.15 2.829 2.829 0 00-.764-.033c-4.86-24.06-12.38-44.641-21.765-59.883l.958-5.026c.157-.606-1.042-3.5-2.004-4.97.043-1.3-.031-3.045-.585-4.3l10.634-29.418c.28-.952-1.415-3.577-2.18-3.977-.763-.4-4.3-1.41-5.45-1.467-1.149-.058-3.374.978-3.655 1.93l-7.552 29.805c-.812-.097-1.699.689-2.194 1.892-7.346-7.32-15.414-11.795-23.95-12.834l-.454-1.71c0-.827-.709-1.498-1.583-1.498h-.658c.033-.231.053-.47.053-.718v-.85c0-1.262-.459-2.344-1.113-2.813l1.829-30.38c0-.99-1.832-2.59-2.965-2.838-1.133-.25-4.388-.349-5.725 0-1.337.348-2.964 1.848-2.964 2.838l1.829 30.38c-.655.469-1.114 1.551-1.114 2.812v.85c0 .248.02.488.053.719h-.215c-.874 0-1.582.67-1.582 1.498l-1.09 4.113c-4.315 1.921-8.342 4.9-11.437 8.96 4.97-4.28 10.187-6.615 15.517-6.635 33.591-.127 60.823 63.52 60.823 141.878 0 9.017-.375 17.883-1.084 26.496-1.535 18.633 6.398 4.236 7.94-20.893 3.314 12.782 1.723 34.665-.26 51.134 2.605-3.602 8.224-31.607 8.081-52.927-.106-15.858-1.24-31.084-3.262-45.355.924-.544 1.876-1.144 2.028-1.39.213-.346-.238-4.02-.534-6.24 8.166-3.919 17.749-9.094 18.407-12.08.978-4.441-3.743-8.774-7.65-7.489" mask="url(#b)"/></g><path fill="#193947" d="M35.991 182.348c-.1-4.623-1.043-8.796-2.496-11.852.076.459.123.937.133 1.437.205 9.49-3.221 17.27-7.651 17.375-2.313.056-4.44-1.995-5.977-5.315.494 8.893 4.108 15.831 8.34 15.73 4.43-.106 7.855-7.885 7.651-17.375"/></g></svg>
