<svg id="Слой_1" xmlns="http://www.w3.org/2000/svg" viewBox="0 0 245 49"><style>.st0{fill:#fff}</style><path id="c_мммм" class="st0" d="M89.6 39.1L86 35.8c-.5.7-1.1 1.2-1.8 1.5-.8.4-1.7.6-2.7.6-.8 0-1.7-.2-2.4-.5s-1.4-.8-1.9-1.3c-.5-.6-1-1.3-1.2-2-.3-.8-.5-1.7-.4-2.6 0-.9.1-1.8.4-2.6.3-.8.7-1.4 1.3-2 .5-.6 1.2-1 1.9-1.4.8-.3 1.6-.5 2.5-.5.8 0 1.6.2 2.4.5.8.3 1.4.8 1.9 1.5l3.5-3.5c-1-1.1-2.2-1.8-3.5-2.3-2.9-1-6-1.1-8.9 0-1.4.5-2.6 1.2-3.6 2.2-1 1-1.9 2.2-2.4 3.5-1.2 2.9-1.2 6.2 0 9.1.5 1.3 1.4 2.5 2.4 3.5s2.3 1.8 3.6 2.3c1.4.5 3 .8 4.5.8 1.6 0 3.3-.3 4.8-.9 1.1-.6 2.3-1.5 3.2-2.6z"/><path id="lumbus" class="st0" d="M135.3 42.3v-4.4h-8.2V21.2H122v21.1h13.3zm19.6-8V21.2h-5.1v12.7c0 .6-.1 1.1-.2 1.6s-.4 1-.7 1.4c-.3.4-.8.7-1.2 1-1.2.5-2.5.5-3.7 0-.5-.2-.9-.5-1.2-1-.3-.4-.5-.9-.7-1.4-.2-.5-.2-1.1-.2-1.6V21.2h-5.1v13.1c0 1.2.2 2.4.6 3.5.4 1 1 1.9 1.8 2.7.8.8 1.8 1.4 2.8 1.7 2.4.8 5.1.8 7.5 0 1.1-.4 2.1-1 2.9-1.7.8-.7 1.4-1.7 1.8-2.7.5-1.1.7-2.3.7-3.5zm28.4 8V21.2h-7.4l-4.6 13.5h-.1l-4.8-13.5H159v21.1h4.8l-.1-14.9h.1l5.4 14.9h3.6l5.5-14.9h.1l-.1 14.9h5zm20.5-8c-.2-.5-.5-1-.9-1.5-.4-.4-.9-.8-1.4-1-.5-.3-1.1-.5-1.7-.5v-.1c1-.3 1.9-.9 2.5-1.7.7-.8 1-1.8 1-2.9 0-.9-.2-1.8-.7-2.6-.4-.7-1-1.2-1.7-1.7-.7-.4-1.5-.7-2.3-.9-.8-.2-1.7-.3-2.5-.3h-8.4v21.1h8.4c1 0 2-.1 3-.3.9-.2 1.8-.5 2.6-1s1.4-1.1 1.8-1.9c.5-.9.7-1.9.7-2.9-.1-.6-.2-1.2-.4-1.8zm-6.3-5.3c-.7.4-1.4.6-2.2.6h-2.8v-4.3h2.5c.8-.1 1.7.1 2.4.5.5.3.9.9.8 1.6.1.6-.2 1.2-.7 1.6zm1.2 8c-.2.3-.5.6-.9.8-.4.2-.8.3-1.2.4-.4.1-.8.1-1.2.1h-2.9v-4.8h2.8c.9 0 1.8.1 2.6.5.7.3 1.1 1.1 1 1.8.1.3 0 .8-.2 1.2zm26.7-2.6V21.2h-5.1v12.7c0 .6-.1 1.1-.2 1.6s-.4 1-.7 1.4c-.3.4-.8.7-1.2 1-1.2.5-2.5.5-3.7 0-.5-.2-.9-.5-1.2-1-.3-.4-.5-.9-.7-1.4-.2-.5-.2-1.1-.2-1.6V21.2h-5.1v13.1c0 1.2.2 2.4.6 3.5.4 1 1 1.9 1.8 2.7.8.8 1.8 1.4 2.8 1.7 2.4.8 5.1.8 7.5 0 1.1-.4 2.1-1 2.9-1.7.8-.7 1.4-1.7 1.8-2.7.5-1.1.7-2.3.7-3.4zM244 23.3c-.9-.9-2.1-1.5-3.3-1.9-1.2-.4-2.4-.6-3.7-.7-1 0-2 .1-3 .4-.9.2-1.8.6-2.6 1.2-.8.5-1.4 1.2-1.9 2.1-.5.9-.7 2-.7 3 0 .8.1 1.7.5 2.4.3.6.7 1.2 1.2 1.7s1.1.9 1.7 1.1c.6.3 1.3.6 2 .8.7.2 1.3.4 1.9.6.5.2.9.4 1.4.6.3.2.6.5.9.8.2.3.3.7.3 1 0 .4-.1.7-.2 1.1-.2.3-.4.5-.6.7-.3.2-.6.3-.9.4-.4.1-.7.1-1.1.1-.9 0-1.7-.2-2.5-.6-.8-.4-1.5-.9-2-1.6l-3.4 3.4c1 1 2.2 1.8 3.5 2.2 1.4.5 2.9.8 4.4.8 1 0 2-.1 3-.4.9-.3 1.8-.7 2.6-1.3.8-.6 1.4-1.3 1.8-2.2.5-1 .7-2.1.7-3.1 0-.9-.2-1.8-.6-2.6-.4-.7-.9-1.3-1.6-1.8-.6-.5-1.4-.9-2.1-1.1-.8-.3-1.5-.5-2.2-.8-.5-.2-.9-.3-1.3-.5-.4-.1-.7-.3-1-.5-.3-.2-.5-.4-.7-.6-.2-.3-.2-.6-.2-.9 0-.4.1-.7.3-1 .2-.3.4-.5.7-.7.3-.2.6-.3.9-.3.3-.1.7-.1 1-.1.7 0 1.4.2 2 .5.7.3 1.3.8 1.7 1.3l3.1-3.5z"/><path id="casino" class="st0" d="M136.2 13.6c-.2.3-.4.5-.7.8-.2.2-.5.4-.8.5-.3.1-.5.2-.8.3-.3.1-.6.1-.8.1-.6 0-1.3-.1-1.8-.4-.5-.2-1-.6-1.4-1-.4-.4-.7-.9-.9-1.5-.4-1.1-.4-2.4 0-3.5.2-.5.5-1 .9-1.5.4-.4.9-.8 1.4-1 .6-.3 1.2-.4 1.8-.4.3 0 .6 0 .8.1.3.1.5.2.8.3.2.1.5.3.7.4.2.1.3.3.5.5l1-.7c-.4-.6-1-1-1.7-1.3-.6-.3-1.3-.4-2-.4-.8 0-1.5.1-2.2.4-.7.3-1.3.7-1.8 1.2s-.9 1.1-1.2 1.8c-.3.7-.4 1.5-.4 2.2 0 .8.1 1.5.4 2.2.3.7.7 1.3 1.2 1.8s1.1.9 1.8 1.2c.7.3 1.5.4 2.2.4.4 0 .8 0 1.3-.1.4-.1.8-.2 1.1-.4l.9-.6c.3-.2.5-.5.7-.8l-1-.6zm6.4-7.1l2.3 5.6h-4.6l2.3-5.6zm-2.7 6.6h5.5l1.2 2.8h1.3l-4.7-10.6h-1.1l-4.7 10.6h1.3l1.2-2.8zm15.4-6.8c-.4-.4-.8-.8-1.4-1-.9-.3-2-.4-2.9-.1-.4.1-.8.3-1.1.6-.3.3-.6.6-.8.9-.2.4-.3.9-.3 1.3s.1.8.2 1.2c.1.3.4.6.6.8.3.2.6.4.9.5.3.1.7.3 1 .4s.7.2 1 .3c.3.1.6.2.9.4.2.2.5.4.6.6.2.3.2.6.2.9 0 .3-.1.6-.2.8-.1.2-.3.4-.5.6-.2.2-.5.3-.7.4-.3.1-.5.1-.8.1-.5 0-1-.1-1.5-.4-.4-.2-.7-.5-1-.9l-1 .7c.4.5.9 1 1.5 1.2.6.2 1.2.4 1.9.4.4 0 .9-.1 1.3-.2s.8-.3 1.1-.6c.3-.3.6-.6.8-1 .2-.4.3-.8.3-1.3s-.1-1.1-.4-1.5c-.3-.4-.6-.7-1-.9-.4-.2-.9-.4-1.3-.5-.5-.1-.9-.3-1.3-.5s-.7-.4-1-.7c-.3-.3-.4-.7-.4-1.1 0-.3.1-.6.2-.9.1-.2.3-.4.5-.6.2-.2.5-.3.7-.3.3.1.6.1.9.1.8 0 1.6.4 2.1 1l.9-.7zm3.5-1h-1.1v10.6h1.1V5.3zm4.2 0h-1.4v10.6h1.1V6.8l6.4 9.1h1.4V5.3h-1.1v9l-6.4-9zm19.4 7c-.2.5-.5 1-.9 1.5-.4.4-.9.8-1.4 1-1.2.5-2.5.5-3.7 0-.5-.2-1-.6-1.4-1-.4-.4-.7-.9-.9-1.5-.4-1.1-.4-2.4 0-3.5.2-.5.5-1 .9-1.5.4-.4.9-.8 1.4-1 1.2-.5 2.5-.5 3.7 0 .5.2 1 .6 1.4 1 .4.4.7.9.9 1.5.4 1.2.4 2.4 0 3.5zm1.1-3.9c-.3-.7-.7-1.3-1.2-1.8s-1.1-.9-1.8-1.2c-1.4-.6-3-.6-4.4 0-.7.3-1.3.7-1.8 1.2s-.9 1.1-1.2 1.8c-.3.7-.4 1.5-.4 2.2 0 .8.1 1.5.4 2.2.3.7.7 1.3 1.2 1.8s1.1.9 1.8 1.2c1.4.6 3 .6 4.4 0 1.3-.5 2.4-1.6 2.9-2.9.3-.7.4-1.5.4-2.2.1-.9 0-1.6-.3-2.3z"/><path d="M104.5 30l-1.3-1.3 7.5-2.8-2.9 7.2-1.3-1.3c.2-.5 0-1.1-.4-1.5-.5-.3-1.1-.4-1.6-.3zm-.8 2.6c-.4-.4-.6-1-.4-1.5l-1.3-1.3-2.9 7.2 7.5-2.8-1.3-1.3c-.6.3-1.2.1-1.6-.3zm14.3-1.1c0 6.9-5.9 12.5-13.1 12.5s-13.1-5.6-13.1-12.5S97.6 19 104.9 19 118 24.6 118 31.5zm-13.9-10.9c0 .5.3.8.8.9.5 0 .8-.3.9-.8 0-.5-.3-.8-.8-.9-.6 0-.9.4-.9.8zm-9.9 10.9c0-.5-.3-.8-.8-.9-.5 0-.8.3-.9.8 0 .5.3.8.8.9.6 0 .9-.3.9-.8zm11.5 10.9c0-.5-.3-.8-.8-.9-.5 0-.8.3-.9.8 0 .5.3.8.8.9.5 0 .9-.3.9-.8zm9-10.9c-.3-5.4-4.9-9.6-10.3-9.3-5.1.2-9.1 4.3-9.3 9.3.3 5.4 4.9 9.6 10.3 9.3 5-.2 9.1-4.2 9.3-9.3zm2.5 0c0-.5-.3-.8-.8-.9-.5 0-.8.3-.9.8 0 .5.3.8.8.9.5 0 .8-.3.9-.8z" fill="#ff4800"/><path id="head_copy" class="st0" d="M12.5 45.7c-.2-1-.3-1.9-.5-2.9-1.2-.1-2.1.8-3.3 1.2L1 38.4c.2-.2.4-.4.6-.5C4.2 35.8 7 34 10 32.6c3.3-1.6 6.8-2.8 10.4-3.7.1 0 .3-.1.5-.1-.4-1.7-1.5-3.2-1.5-5.1-1.9-1.3-3.1-3.2-4.4-5-1-1.4-2.3-2.6-3.9-3.5-.8-.4-1.5-.9-2.1-1.6-.9-1-1.2-2.4-.8-3.7.3-1.4 1.5-2.4 2.8-2.5 5.2-.3 9.6-2.6 13.6-5.7.2-.2.4-.3.6-.4C26.7.1 28.7-.1 30.4.8c.8.4 1.5.9 2.3 1.3l1.5.9c2.2-.8 4.6-.9 6.9-.3.6-.5 1.3-1 1.9-1.5 1.8-1.6 4.5-1.6 6.3 0 1.2.9 2.3 1.8 3.2 2.8.8.9 1.9 1.5 3 1.9 1.4.5 2.9.9 4.3 1.4 1.2.4 2.2 1.3 2.5 2.6.4 1.6-.2 3.2-1.6 4.2-.9.6-1.9 1.2-2.8 1.8-3 2.1-5.5 4.6-7.6 7.6-.1.2-.3.4-.5.6l-.2 4.6c5.8 2.6 11.3 5.7 16.4 9.4-2.1 2.3-4.3 4.4-6.6 6.3l-1.9-1.2-.4 2.7c-.9-.1-1.8-.3-2.7-.4-.8-.1-1.5-.1-2.3-.1-3.5.4-6.9 1.2-10.2 2.6-3.2 1.3-6.7 1.4-9.9.3-2.8-.9-5.6-1.7-8.5-2.2-2.2-.3-4.3-.6-6.5-.7-1.2 0-2.5.1-3.7.3-.1-.1-.4 0-.8 0zm30-1.3l1.2-.3c3.4-1.2 7-1.8 10.7-1.8.1 0 .3-.1.4-.2l-1.1-2.3c1.9-.5 3.9-.3 5.7.7l2.4-2.2c-.5-.1-.9-.2-1.4-.2-1.4 0-2.8-.1-4.2 0-1.2.1-2.4.4-3.6.6-.4 0-.7.2-1 .5.3.5.9.8.8 1.5-.1 0-.2.1-.2.1-3.2.3-6.2 1.4-8.9 3.1-.5.2-.6.3-.8.5l-.3.1.1.1.2-.2zm4.3-21.5c.5-.6 1.1-1.1 1.5-1.7 1.7-2.3 3.6-4.4 5.8-6.1 1.5-1.2 3-2.2 4.6-3.3.4-.2.7-.6.8-1-.1-.4-.5-.7-1-.7-1.5-.5-2.9-1-4.4-1.5-1.1-.3-2.1-.9-2.9-1.7-.5-.5-1-1-1.6-1.5-.7-.6-1.3-1.2-2-1.7-.7-.7-1.9-.7-2.7 0-.3.2-.5.5-.8.7-.8.7-1.7 1.4-2.7 1.8-2.3-1.1-5-1-7.2.2-.1-.1-.3-.1-.4-.2-1.3-.8-2.6-1.5-3.9-2.3-1-.7-2.3-.7-3.2.1-1.3 1.1-2.7 2-4.2 2.9-2.9 1.9-6.2 3-9.7 3.4-.5.1-1.1.2-1.6.2-.2.3-.1.8.2 1.1.3.3.7.5 1 .8 2 1 3.6 2.5 4.9 4.4.5.6.9 1.3 1.4 1.9 1 1.4 2 2.6 3.7 2.9-.2 1.3 0 2.6.5 3.9.3.8.7 1.7.9 2.5.2.9.9 1.7 1.8 2.1.2.1.4.2.5.3.2 1.5.6 2.9 1.3 4.1 1.7 3.2 3.8 6.1 6.4 8.6l1.5 1.2c1.1.8 2.7.6 3.6-.5.5-.5.9-1.1 1.3-1.7 1.8-2.7 3.3-5.6 4.5-8.6 1-2 1.7-4.1 2-6.3.3-1.4.3-2.9.1-4.3zm-15 20.7c-.2-.3-.2-.4-.3-.4-2.9-3-5.1-6.6-6.7-10.4-.2-.8-.9-1.2-1.7-1.2-.5 0-.9.1-1.3.2-2.8 1-5.6 1.9-8.4 2.9-1.6.6-3.2 1.3-4.7 2.2 2.3-.2 4.6-.2 6.8 0 3.9.5 5.7 1 6.5 1.7-.6.3-1.2.8-1.5 1.4 4 .2 7.6 1.8 11.3 3.6zM59.5 37v-.3c-1-.6-1.9-1.2-2.9-1.7-2.3-1.1-4.6-2.1-6.9-3.2-1.4-.7-2-.4-2.6 1.1-1.5 3.6-3.2 7.1-5.4 10.3 0 .1 0 .1.1.2 2.5-1.8 5.5-3 8.5-3.5-.3-.6-.7-1.1-1.3-1.5 3.3-1.5 7-2 10.5-1.4zM15 42.2c5.4 0 10.7.8 15.9 2.3-.8-.5-1.6-.9-2.5-1.2-.8-.3-1.7-.7-2.6-.9-.8-.3-1.7-.5-2.5-.7-.9-.2-1.8-.4-2.7-.5-.9-.1-1.8-.2-2.8-.4l1.3-1.5c-2.2-1.1-11-1.7-13-.8l2.8 2c3-1 5.8-1.2 7.3-.6-.5.6-1 1.4-1.2 2.3zm27.5 2.2l-.2.2-.1-.1.3-.1zM33 31.5l1.2-.5c0 .7-.1 1.3-.1 1.9-.5.3-.9.6-1.4.9-.4.4-.8.8-1.1 1.3-.6.1-1.3-.3-1.4-1v-.2c-.1-.5-.2-1.1-.2-1.6-.1-1.5-.7-2.9-1.9-3.9-.7-.6-1.1-1.5-1.1-2.5v-2.1c0-.7.3-1.3.9-1.6.9-.6 1.8-1.1 2.9-1.3.9.3 1.9.7 3 1.2.7.3 1.3.6 2 .9.5.2 1 .3 1.5.4 1.1.2 2.3-.1 3.2-.8.8-.6 1.7-1 2.7-1.2.6.3 1.4.6 2.2.9.7.4 1.1 1.1.9 1.9-.1.8-.3 1.5-.3 2.3-.1.7-.3 1.3-.8 1.7-.8.7-1.3 1.7-1.5 2.7-.1.5-.1 1.1-.1 1.6 0 .7-.3 1.3-.9 1.6-.9-.4-1.4-1.3-1.4-2.3 0-.4-.2-.7-.4-1-.4-.5-.8-.9-1.3-1.5-.1 1 .8 1.6.9 2.5-.5 1.4-2 2.1-3.4 1.8-.6-.2-1.2-.5-1.7-.8-.6-.3-.8-1-.5-1.5.1-.1.1-.2.2-.3.5-.7.8-1.4 1-2.2v-.5c-.3 1.1-1 1.9-2.1 2.3-.5.2-.8.5-1 .9l-.1.2.1-.2zm-4-7.3c.8 0 1.6-.2 2.3.3v.3c-.1.7.3 1.5 1 1.8.7.4 1.5.3 2.1-.2.2-.1.4-.2.6-.4v1.8l1.5-1.3.9-.3c.5-1 .4-1.3-.2-1.7l-.1 1c-.5.3-1.2.3-1.7-.2-.9-.5-1.8-1.1-2.7-1.6-.6-.3-1.2-.5-1.8-.6-.9-.1-1.7.3-1.9 1.1zm11 2c.5.6 1.3.8 2.1.5 1-.3 1.1-1.2 1.3-2.1l1.5-.1c.1-.3 0-.6-.2-.7-.1 0-.2-.1-.3-.1-.5 0-1 0-1.6.1-1 .2-1.8.6-2.6 1.2-.2.3-.6.5-.9.5-.5-.2-.4-.9-1.1-.8l.3 1.6 1.5-.1zm-1.8.7c-.5 1.7-.4 4.6.1 5.4.1 0 .1-.1.2-.1-.1-1.7-.2-3.4-.3-5.3zm-7.8-1c-.1.7-.1.7.1.9.7.6 1.7.8 2.6.6-1.1-.1-2.1-.7-2.7-1.5zm13.2 0c-.6.9-1.6 1.4-2.7 1.4.9.3 2 .1 2.7-.6.2-.2.3-.5.1-.7 0 0 0-.1-.1-.1zm3.1-19.7c-1.7.7-2.8 1.6-3.3 3.4-.7 3.1-1.6 6.1-2.4 9.2-.2.6-.4 1.2-.6 1.7-.2.7-.9 1.2-1.7 1.2h-1.8c-1.1 0-2-.9-2-2-.3-2-.4-3.9-.7-5.9-.1-1.1-.3-2.2-.5-3.3-.1-.8-.6-1.6-1.3-2.1-1-.7-2.1-1.3-3.2-2-.7-.4-1.5-.3-2.1.1-.6.4-1.1.8-1.7 1.2-2 1.5-4.2 2.7-6.6 3.7-1.3.5-2.8.8-4.2.8-.4.1-.8-.1-1.1-.4.1-.2.2-.3.4-.4.2-.1.5-.2.8-.3 2.5-.4 5-1.4 7.1-2.8 1.6-1 3.1-2.1 4.7-3.1.3-.2.5-.4.8-.5.5-.4 1.2-.4 1.7-.1 1.5.9 3.1 1.8 4.6 2.7.8.5 1.3 1.3 1.3 2.2.1.9.2 1.7.4 2.6 0 1.1.9 1.9 1.9 1.9.6 0 1.3.1 1.9.1.6.1 1.2-.3 1.4-.9.5-1.2.9-2.5 1.2-3.8.1-1.7 1.2-3.2 2.7-4 .1 0 .1-.1.2-.1 1.2-.9 1.9-1.1 3.1.2 1.5 1.7 3.3 2.9 5.4 3.7 1.1.4 2.1.7 3.2 1.1.3.1.7.3 1 .5 0 .5-.3.7-.6.7-.8-.1-1.6-.2-2.4-.4-2.3-.6-4.5-1.7-6.2-3.4-.3-.5-.8-1-1.4-1.5zm-6 9.2c-1.7.4-3.4.3-5-.3.1 1.3.2 2.5.3 3.7.2 1.9.5 2 2.2 1.9.6 0 1.1-.3 1.3-.9.4-1.4.8-2.8 1.2-4.4zm-7.3 5c-.4-.3-.7-.5-1-.8-.3-.3-.8-.5-1.2-.5-2.2-.2-4.4 0-6.5.4-.5.1-.9.1-1.4.2-.2 0-.3-.1-.5-.2 1-1 2.3-1.1 3.2-2-.1-1.2-.6-2.3-.8-3.4.3-.4.5-.2.7.1l1.2 1.8c.3.5.6.9.8 1.3.8.4 1.8.3 2.5-.2-.2-1-.3-2-.5-3.1-.3-1-.4-2-.3-3 .3 0 .6.2.6.5 1 2.7 2.1 5.4 3.1 8.1.1.3.1.6.1.8zm8.5-.1c0-.2.1-.5.2-.7 1.5-3.4 2.6-5.5 3.2-6.2-.2 1.4-.5 2.8-.8 4.2.8.9 1.5.9 2.1-.1.9-1.5 1.7-2.9 2.5-4.4.1-.4.4-.7.7-.8.2.3.2.7 0 1-.5 1.3-.9 2.6-1.4 3.9-.1.3-.2.6-.3 1l.6.7c-.1.2-.2.3-.3.5-1.1 1.4-1.3 1.2-2.5.7-.4-.2-.8-.4-1.2-.5-.3-.1-.6-.2-.8-.2-.3.2-.6.3-.9.5s-.6.4-.9.5l-.2-.1zm-1.2 14.3c.2.2.3.5.5.7.4.6.4 1.4-.1 2-.4.5-.8 1.1-1.3 1.5-.2.2-.5.3-.8.4-.5-.5-.6-1.3-.2-1.8l1.1-.8c-1.6.2-3.2 0-4.8-.5 0 .2 0 .4.1.6.3.2.7.5 1 .7 0 .1.1.3.2.4.1.3 0 .7-.3 1-.3.2-.7.2-1-.1l-1.2-.9c-.5-.4-.9-1-1-1.6.3-.8.8-1.5 1.6-1.9 1 .4 1.9.6 3 .8 1.1 0 2.2-.2 3.2-.5zm-16.6-8.9c-.4-.6-.6-1-.9-1.4-.2-.5-.3-1.1-.1-1.6.2-.7.9-1.1 1.6-.9.2 0 .4.1.5.3.5.5.8 1.2.7 1.9-.1.1-.2.2-.3.2l-.3-.6c-.2-.6-.5-.9-1-.8-.3.2-.4.4-.3 1.4l.3.3c.5.3.7.8.6 1.4v.8c0 .5.2 1.1.6 1.4l1.1 1.1c-.2.1-.5.1-.7 0-1-.4-1.6-1.3-1.7-2.4 0-.4 0-.7-.1-1.1zm4.9-1.6zm4 7.4l-.1.2.1-.2z"/></svg>
