<svg xmlns="http://www.w3.org/2000/svg" viewBox="0 0 146 30"><path fill="#FFF" d="M112.236 7.003c1.811-.05 3.608.461 5.006 1.604.493.46 1 .95 1.34 1.51.21.341.414.689.631 1.022-.724.383-1.5.617-2.246.95-.529.22-1 .483-1.572.597-.268-.54-.53-1.05-1-1.462-1.152-1.106-3.137-1.142-4.405-.206-.63.42-1.073 1.093-1.391 1.753a5.817 5.817 0 00-.153 4.235c.297.795.732 1.518 1.45 2.029.63.532 1.434.738 2.246.752.775-.021 1.608-.163 2.224-.667.572-.397.862-1.114 1.007-1.76-.029-.226-.29-.127-.456-.155-.906.007-1.819 0-2.732.007-.109-.469-.065-.93-.065-1.405.007-.575-.03-1.135.043-1.71 2.609.007 5.224.007 7.825 0 .051 1.022-.072 2.03-.231 3.044-.32 1.752-1.34 3.277-2.746 4.384-1.254.915-2.79 1.376-4.34 1.44-.573.085-1.138-.007-1.71-.043-1.478-.134-2.884-.695-4.072-1.56-.334-.263-.616-.575-.913-.866-.63-.624-1.073-1.44-1.413-2.249-.565-1.397-.638-2.844-.507-4.32.18-1.76.949-3.455 2.21-4.724 1.564-1.526 3.76-2.256 5.97-2.2zM56.828 8c1.85.007 3.699 0 5.548.007.544.05 1.08.007 1.624.028-.02 1.088-.007 2.176 0 3.265-.961.007-1.929 0-2.89.007-.477-.007-.954-.007-1.418.063.006.806-.007 1.611.006 2.417 1.213.028 2.433.007 3.66.007.152.007.304-.029.417.092.026 1.066 0 2.133.006 3.207-1.12.028-2.24 0-3.353.021a2.933 2.933 0 01-.703-.07c-.086.869-.027 1.773-.027 2.642a433.823 433.823 0 014.289 0c0 1.088-.007 2.19.006 3.279-.576.05-1.146.02-1.723.028-2.061 0-4.122-.007-6.19.007-.04-.184-.08-.36-.08-.558V8.078c.285-.043.557-.078.829-.078zm29.187.078c.346-.113.759-.07 1.127-.07h7.718c.713-.007 1.42.05 2.14.063a77.482 77.482 0 000 3.236c-1.149.043-2.29-.007-3.439.028V21.51c0 .509.045.996-.067 1.491-1.157-.021-2.328-.007-3.484-.007-.21 0-.406-.028-.608-.07.03-3.851 0-7.695.022-11.552-1.126-.134-2.282-.007-3.416-.07.015-1.075-.03-2.149.007-3.223zm14.58-.074c.47-.007.924 0 1.378.063.043.614.022 1.22.022 1.834v11.702c0 .466.028.931-.065 1.397-1.248-.028-2.51 0-3.757-.021-.202 0-.159-.205-.166-.339-.007-4.853.007-9.699-.007-14.559.865-.127 1.716-.063 2.596-.077zm23.126.002h5.07c.412 0 .81.042 1.209.07v3.23c-.857.029-1.714.008-2.578.008-.611.007-1.203-.05-1.814.063.02.806.007 1.62.007 2.425 1.375.021 2.737-.028 4.113.021-.007 1.089.006 2.192-.007 3.28-.897.021-1.794 0-2.691.007-.485.007-.944-.042-1.422.064.02.806.02 1.626 0 2.446.478.106.937.05 1.422.063.983.007 1.973-.007 2.957.007.006 1.068 0 2.15.006 3.217-.172.042-.339.092-.525.092-1.98-.007-3.966 0-5.946-.007-.519 0-1.017.042-1.522-.064.007-4.962.02-9.918 0-14.88.571-.07 1.15-.042 1.721-.042zM51.02 17.94c-.252-.304-.511-.601-.763-.905v-.198c.926-.156 1.764-.622 2.342-1.336.607-.778.978-1.725.934-2.701.051-1.138-.163-2.29-.994-3.174-.83-.905-1.979-1.33-3.187-1.527-1.83-.149-3.631-.085-5.47-.092-.585.007-1.178-.022-1.749.007-.237.36-.052.947-.066 1.357V21.2c-.023.594-.134 1.152-.008 1.746.652.085 1.282.042 1.935.05.578 0 1.163.006 1.741 0 .186 0 .37-.008.356-.24.03-1.818-.022-3.635.03-5.452.393.382.622.849.934 1.294 1 1.435 1.927 2.934 2.927 4.362.393.05.793.021 1.186.021h3.158c.23 0 .444-.042.674-.085-1.327-1.647-2.676-3.287-3.98-4.955zm-3.086-5.314c-.083.47-.429.825-.789 1.045-.692.378-1.39.325-2.145.325.007-1.332-.007-2.665.007-3.997.803.045 1.84.023 2.477.62.54.463.589 1.333.45 2.007zm96.133 7.923c-.682-.903-1.415-1.765-2.119-2.64-.274-.36-.652-.642-.718-1.087.992-.177 1.91-.734 2.481-1.532.97-1.39 1.067-3.283.37-4.808-.23-.536-.718-.995-1.162-1.376-.808-.615-1.867-.946-2.882-1.024-1.4-.134-2.83-.064-4.237-.07-.91 0-1.866-.022-2.785.07-.03.36-.007.727-.007 1.087 0 4.455.007 8.91 0 13.371.007.155.007.29.067.438 1.325.042 2.651-.007 3.977.021.045-1.355.008-2.725.022-4.08.008-.551-.074-1.06.09-1.596 1.207 1.772 2.362 3.565 3.577 5.316.14.176.207.381.489.353 1.585-.007 3.185 0 4.77-.007-.607-.84-1.289-1.63-1.933-2.436zm-3.932-6.875c-.618.323-1.374.354-2.04.308a.318.318 0 01-.09-.263c-.007-.663.007-1.34.007-2.003.007-.595-.062-1.137.069-1.717.467 0 .92.023 1.374.135.467.098.9.28 1.209.686.598.88.385 2.32-.53 2.854zm-60.608-.754c-.241-.536-.498-1.086-.853-1.573-.446-.536-.854-1.058-1.42-1.48-1.352-1.108-3.104-1.75-4.902-1.813-1.367-.085-2.742-.029-4.101-.05-.778.021-1.496-.063-2.251.085.023 4.507 0 9.007.008 13.514.007.48-.046.93.075 1.396 1.571-.042 3.15 0 4.72-.021 1.262.007 2.493.007 3.702-.402.732-.261 1.427-.536 2.062-.966.694-.487 1.367-1.002 1.865-1.68 1.601-1.967 1.994-4.682 1.095-7.01zM.011 1.085C.176.152 1.031-.198 1.864.108c2.01 1.065 3.433 1.605 5.802 1.882 1.329.153 1.81.036 2.442-.234-1.206 1.97-4.567 1.138-6.047.598.36.518 2.14 1.393 2.14 1.393s-1.342.044-1.924-.24a4.246 4.246 0 001.163 1.8c-.194 1.299-.74 2.91.18 4.383.61.978 1.163 1.627 2.097 2.298 1.062.758 2.657.999 3.942.81-.574-.533-.682-.854-1.257-.905-1.881-.153-2.6-1.101-3.317-2.246-.568-.912-1.15-2.1-.97-3.384.33.715.431 1.036 1.17 1.597 1.157.875 2.471-.233 4.05 1.371.748.831.935 2.013 2.055 2.53.244-.029.115-.758.007-.926-.158-.568.855-.736.302-1.093-.668-.438-1.4-1-1.867-2.064.639.073 1.192-.285 1.141-.773-.998.248-1.881.226-2.8-.044 1.02-.087 1.917-.38 2.39-.839.08-.087.044-.284-.064-.27-1.22.125-3.023.176-4.409-.546 2.391-.16 3.907-.022 4.883-1.094.165-.183.481-.627.517-.897-1.17.328-2.305.277-3.447-.051.453-.343 2.018-1.517 5.968-1.517v.007c3.878 0 5.5 1.174 5.953 1.517-1.142.328-2.29.38-3.461.051.036.27.352.715.517.897.976 1.08 2.492.94 4.883 1.094-1.386.722-3.196.678-4.41.547-.107-.015-.143.182-.064.27.467.46 1.372.75 2.391.838a5.205 5.205 0 01-2.8.044c-.05.496.503.846 1.142.773-.467 1.065-1.2 1.626-1.867 2.064-.546.357.46.525.301 1.094-.115.167-.244.897.007.926 1.128-.51 1.307-1.692 2.054-2.53 1.587-1.605 2.901-.497 4.05-1.372.74-.561.84-.882 1.17-1.597.18 1.291-.394 2.48-.969 3.384-.718 1.138-1.436 2.086-3.317 2.246-.575.044-.683.372-1.257.904 1.285.19 2.88-.05 3.942-.81.934-.67 1.494-1.32 2.097-2.296.92-1.48.38-3.085.18-4.383.416-.38.876-.934 1.17-1.801-.588.284-1.924.24-1.924.24s1.774-.882 2.14-1.393c-1.487.54-4.84 1.371-6.047-.598.632.27 1.113.387 2.442.234 2.37-.277 3.792-.817 5.802-1.882.833-.306 1.695.037 1.853.978.079 1.597-.251 3.092-1.329 4.295-.301.073-.574.67-.581.948.28.095.617-.058.998-.474-.029 1.954-1.903 2.05-1.903 2.05-.345-.73-.496-1.138-1.293-1.518l.009.057c.04.274.217 1.47.236 2.044.079 2.26-2.04 3.938-2.04 3.938.345.16 1.02.007 1.336-.372-.137.773-.223 1.152-1.085 1.502-.359.146-.933.19-1.22.19.323.853.983 1.159 1.86.882.136.678-.058 1.342-.604 1.59-.567.255-1.436-.205-2.04-.562-.509-.306-1.608-.912-2.039-.357.697.663 2.428 1.363 3.074 1.881-.165 1.065.697 1.29.869 2.283.136.641-.058 1.305-.453 1.874-1.192 1.706-.445 3.726-.445 3.726.345-1.458 1.099-2.83 1.896-4.018.539-.948.302-1.852-.309-2.69 1.178-.956 1.781-2.145 2.255-3.53.115-.336.481-1.087.589-1.583-.029 1.714-.258 3.515-1.135 5.192 0 0 .64 0 1.12-.568-.057 2.807-.969 5.163-2.656 7.533 0 0 1.946-.7 2.829-2.917 1.415-3.559 1.192-7.592 1.192-7.592s1.537 3.45.194 7.796c-.417 1.342-.811 2.494-1.35 3.296-.144.212-.905.737-1.372 1.233-.165-.474-.301-.875-.301-.875s-.61.386-1.02.904c-.456.579-.996 1.351-1.117 1.525l-.025.035c-.38-.992-.452-1.728-1.106-1.735-.675-.008-.675 1.867-.811 2.413-.704-.495-2.456-1.093-3.454-.722-.66.243-1.034.731-1.637 1.064l-.274.132-.23.037c-.861-.044-1.586-.093-2.273-.124l-.34-.015v-.006l-.343.013c-.598.027-1.17.065-1.845.103l-.42.022-.236-.037c-.783-.32-1.163-.911-1.917-1.196-.999-.379-2.75.226-3.455.722-.136-.547-.136-2.42-.811-2.414-.653.008-.725.744-1.106 1.736 0 0-.617-.904-1.142-1.56-.41-.518-1.02-.905-1.02-.905s-.129.401-.301.875c-.467-.496-1.228-1.02-1.372-1.232-.538-.802-.933-1.954-1.35-3.296-1.343-4.34.194-7.796.194-7.796-.01.183-.181 3.93 1.096 7.343l.096.249c.883 2.216 2.83 2.917 2.83 2.917-1.688-2.37-2.6-4.726-2.657-7.534.48.57 1.12.57 1.12.57-.876-1.678-1.113-3.487-1.135-5.193.108.496.474 1.247.589 1.582.474 1.386 1.084 2.575 2.255 3.53-.618.839-.855 1.743-.309 2.69.797 1.19 1.551 2.568 1.896 4.019 0 0 .74-2.013-.445-3.727-.395-.568-.59-1.232-.453-1.874.173-.999 1.034-1.218.87-2.282.646-.518 2.376-1.218 3.073-1.882-.424-.554-1.53.059-2.04.358-.603.357-1.472.816-2.04.561-.545-.255-.739-.919-.602-1.59.876.277 1.536-.029 1.86-.882-.288 0-.855-.044-1.221-.19-.862-.35-.948-.729-1.085-1.502.323.38.991.533 1.336.372 0 0-2.118-1.684-2.04-3.938.022-.649.245-2.1.245-2.1-.797.38-.948.788-1.293 1.517 0 0-1.874-.095-1.903-2.05.38.416.718.57.998.475-.007-.277-.28-.875-.581-.948C.262 4.177-.068 2.682.01 1.085zM16.01 23.743l-.38.006c-1.005.03-1.944.18-2.793.505-1.587.634-2.916 1.793-3.189 3.587.812 0 1.408-1.341 2.011-1.13.438.16-.05 1.094.323 1.393.668.503 1.307.831 2.19.817.56-.008 1.473-.066 1.853-.65l-.022.029v1.555h.022v-1.541l.045.073c.348.476 1.229.528 1.765.548.883.015 1.508-.313 2.183-.816.373-.307-.115-1.24.323-1.393.596-.212 1.2 1.13 2.01 1.13-.28-1.794-1.593-2.96-3.18-3.588-.85-.33-1.835-.482-2.8-.507l-.36-.003-.001-.015zm.015 4.529v.042l-.015-.024.015-.018zm-.021.007l.006.011-.007.01v-.021zm-4.08-14.498c-.466-.138-.94.234-1.098.671-.345.525-.065 1.313-.208 1.904-.072.211-.761.255-.575.525.668.678 1.042 1.24 1.781 2.02-1.055.408-2.34-.635-2.83-1.16.302 1.7 1.61 2.028 2.823 2.487-.503.394-2.068.314-2.951-.386.194.875 1.307 1.247 2.19 1.232.546-.015 1.055.073.862.416-.848.547-2.04.313-2.916.218.1.533.488 1.138 1.2 1.218 1.428.139 2.843-.19 4.07-.62.856-.299 1.437-1.166 1.437-1.166a28.798 28.798 0 000-1.576c-.136-.67-.976-.765-1.508-.977-1.012-.561-2.01-1.32-2.334-2.501-.15-.831.022-1.575.058-2.305zm8.13-.007c.036.73.208 1.48.057 2.305-.323 1.181-1.321 1.94-2.334 2.501-.531.211-1.371.306-1.508.977a38.295 38.295 0 000 1.575s.582.868 1.437 1.167c1.228.438 2.65.766 4.071.62.718-.073 1.106-.678 1.2-1.218-.877.102-2.069.328-2.916-.219-.194-.342.316-.423.862-.415.883.007 1.996-.358 2.19-1.233-.883.7-2.449.788-2.951.387 1.213-.46 2.52-.788 2.822-2.487-.489.532-1.774 1.568-2.83 1.16.74-.78 1.113-1.342 1.781-2.02.187-.27-.502-.307-.574-.525-.151-.591.136-1.379-.208-1.904-.151-.437-.625-.81-1.1-.67zm52.306-2.736c1.093.048 2.18.568 2.85 1.44.464.567.642 1.223.744 1.926.11.56 0 1.101-.082 1.676-.191.96-.793 1.844-1.667 2.33-.991.595-2.077.595-3.198.589-.007-2.636 0-5.278-.007-7.913l.048-.068a7.738 7.738 0 011.312.02zm-59.308 3.888c-.61.022-.208 1.357.323 1.67.59.35 1.559.482 2.636.394v.015c1.005.087 2.04-.044 2.628-.394.532-.314.926-1.64.316-1.67-.294 0-.28.678-.625.992-.373.338-1.372.337-2.145.324l-.174-.003-.001-.015-.187.003c-.76.013-1.621.015-2.043-.252l-.096-.072c-.345-.313-.337-.991-.632-.991zM10.13 9.457c-.603-.336-1.852-.182-1.852-.182s.366 1.115.984 1.524c.545.364 1.062.277 1.285-.11.244-.415.093-.948-.417-1.232zm11.72 0c-.51.284-.653.817-.417 1.232.223.387.74.474 1.286.11.618-.409.984-1.524.984-1.524s-1.25-.16-1.853.182z"/></svg>
