<?xml version="1.0" standalone="no"?>
<!DOCTYPE svg PUBLIC "-//W3C//DTD SVG 20010904//EN"
 "http://www.w3.org/TR/2001/REC-SVG-20010904/DTD/svg10.dtd">
<svg version="1.0" xmlns="http://www.w3.org/2000/svg"
 width="87.000000pt" height="41.000000pt" viewBox="0 0 87.000000 41.000000"
 preserveAspectRatio="xMidYMid meet">
<metadata>
Created by potrace 1.15, written by Peter Selinger 2001-2017
</metadata>
<g transform="translate(0.000000,41.000000) scale(0.100000,-0.100000)"
fill="#000000" stroke="none">
<path d="M223 395 c-41 -18 -53 -42 -53 -109 0 -44 5 -61 24 -83 21 -24 31
-28 79 -28 65 0 91 19 109 77 16 54 -3 113 -45 138 -37 23 -70 25 -114 5z"/>
<path d="M473 396 c-91 -41 -78 -200 19 -221 16 -4 50 -4 74 0 l44 6 0 60 0
59 -50 0 c-47 0 -50 -2 -50 -25 0 -18 5 -25 20 -25 11 0 20 -7 20 -15 0 -19
-20 -19 -48 1 -29 20 -30 76 -2 104 23 23 36 24 70 5 14 -8 28 -14 33 -15 10
0 9 58 -2 64 -23 15 -98 15 -128 2z"/>
<path d="M705 397 c-37 -17 -55 -54 -55 -113 0 -56 12 -79 50 -99 99 -51 194
34 161 144 -6 21 -20 46 -30 55 -26 23 -89 30 -126 13z"/>
<path d="M0 290 l0 -110 75 0 c73 0 75 1 75 25 0 23 -4 25 -45 25 l-45 0 0 85
0 85 -30 0 -30 0 0 -110z"/>
</g>
</svg>
