<?xml version="1.0" encoding="utf-8"?>
<!-- Generator: Adobe Illustrator 23.0.3, SVG Export Plug-In . SVG Version: 6.00 Build 0)  -->
<svg version="1.1" id="Слой_1" xmlns="http://www.w3.org/2000/svg" xmlns:xlink="http://www.w3.org/1999/xlink" x="0px" y="0px"
	 viewBox="35 180 800 650" style="enable-background:new 0 0 1200 1200;" xml:space="preserve" width="100%">
<style type="text/css">
	.st0{fill-rule:evenodd;clip-rule:evenodd;fill:#9A68BC;stroke:#9A68BC;stroke-width:0.5669;stroke-miterlimit:10;}
	.st1{fill:none;stroke:#9A68BC;stroke-width:8.5039;stroke-miterlimit:10;}
</style>
<g>
	<path class="st0" d="M433.01,187.07c177.22,0,320.91,143.69,320.91,320.94c0,177.22-143.69,320.91-320.91,320.91
		c-177.25,0-320.94-143.69-320.94-320.91C112.08,330.76,255.76,187.07,433.01,187.07L433.01,187.07z M433.01,200.82
		c169.65,0,307.16,137.54,307.16,307.19S602.67,815.18,433.01,815.18S125.82,677.67,125.82,508.01S263.36,200.82,433.01,200.82
		L433.01,200.82z"/>
	<path class="st1" d="M535.35,331.9H329.81c-27.81,0-50.57,22.76-50.57,50.57v251.06c0,27.84,22.76,50.57,50.57,50.57h205.54
		c27.81,0,50.57-22.73,50.57-50.57V382.47C585.92,354.66,563.15,331.9,535.35,331.9L535.35,331.9z"/>
	<path class="st1" d="M296.07,382.47h81.52c9.27,0,16.87,7.6,16.87,16.87v187.06c0,9.27-7.6,16.87-16.87,16.87h-81.52
		c-9.27,0-16.84-7.6-16.84-16.87V399.33C279.24,390.06,286.8,382.47,296.07,382.47L296.07,382.47z"/>
	<path class="st1" d="M551.45,628.68H539.8c-6.66,0-12.1-7.6-12.1-16.87V399.3c0-9.27,5.44-16.84,12.1-16.84h11.65
		c6.66,0,12.1,7.57,12.1,16.84v212.51C563.55,621.09,558.11,628.68,551.45,628.68L551.45,628.68z"/>
	<path class="st1" d="M427.97,382.69h60.24c9.27,0,16.87,7.6,16.87,16.87v186.58c0,9.27-7.6,16.87-16.87,16.87h-60.24
		c-9.27,0-16.87-7.6-16.87-16.87V399.56C411.1,390.29,418.7,382.69,427.97,382.69L427.97,382.69z"/>
	<path class="st1" d="M482.22,399.59h-47.79c-3.97,0-7.2,3.23-7.2,7.17v21.8c0,3.94,3.23,7.17,7.2,7.17h47.79
		c3.94,0,7.2-3.23,7.2-7.17v-21.8C489.42,402.82,486.16,399.59,482.22,399.59L482.22,399.59z"/>
	<path class="st1" d="M484.61,462.89h-53.38c-3,0-5.44,3.06-5.44,6.75v90c0,3.71,2.44,6.75,5.44,6.75h53.38
		c2.98,0,5.41-3.03,5.41-6.75v-90C490.02,465.95,487.58,462.89,484.61,462.89L484.61,462.89z"/>
	<path class="st1" d="M341.34,624.66c-9.69,0-17.55,7.85-17.55,17.55c0,9.69,7.85,17.55,17.55,17.55s17.55-7.85,17.55-17.55
		C358.89,632.51,351.04,624.66,341.34,624.66L341.34,624.66z"/>
	<rect x="416.29" y="625.91" class="st1" width="82.66" height="29.17"/>
</g>
</svg>
