<?xml version="1.0" encoding="UTF-8"?>
<!DOCTYPE svg PUBLIC "-//W3C//DTD SVG 1.1//EN" "http://www.w3.org/Graphics/SVG/1.1/DTD/svg11.dtd">
<!-- Creator: CorelDRAW 2018 (64-Bit) -->
<?xml-stylesheet href="каністра.css" type="text/css"?>
<svg xmlns="http://www.w3.org/2000/svg" xml:space="preserve" width="226.43mm" height="226.43mm" version="1.1" style="shape-rendering:geometricPrecision; text-rendering:geometricPrecision; image-rendering:optimizeQuality; fill-rule:evenodd; clip-rule:evenodd"
viewBox="0 0 22643 22643"
 xmlns:xlink="http://www.w3.org/1999/xlink">
 <style type="text/css">
  .fil0{fill:none;stroke:#9A68BC;stroke-width:300;stroke-miterlimit:10;}
  .fil1{fill:none;stroke:#9A68BC;stroke-width:300;stroke-miterlimit:10;}
  .fil2{fill:#9A68BC;}
</style>
 <g id="Слой_x0020_1">
  <metadata id="CorelCorpID_0Corel-Layer"/>
  <g id="_2336871179776">
   <g>
    <path class="fil0 str0" d="M12574.08 5505.74l-4600.05 0c-937.74,0 -1704.98,767.24 -1704.98,1704.98l0 8335.14c0,937.75 767.23,1704.98 1704.98,1704.98l6694.93 0c937.75,0 1704.98,-767.23 1704.98,-1704.98l0 -6274.59c0,-937.75 -2862.14,-3765.53 -3799.86,-3765.53zm-5184.47 1096.62c849.96,-317.65 3448.25,-273.99 3800.25,17.92 575.01,476.82 -2893.61,2390.65 -3746.06,2047.4 -377.46,-151.98 -419.73,-1928.72 -54.19,-2065.32z"/>
    <path class="fil1" d="M12179.02 12519.59c18.92,-587.43 -920.17,-1973.89 -943.71,-1974.65 0,0 -983.62,1324.52 -1002.55,1911.95 -18.92,587.46 401.43,1077.7 938.87,1095.02 537.44,17.31 988.46,-444.86 1007.39,-1032.32z"/>
    <rect class="fil0 str1" transform="matrix(0.685397 0.691307 -0.691307 0.685397 15071.1 5311.29)" width="1803.89" height="1303.13" rx="200" ry="200"/>
    <path class="fil0 str0" d="M9440.64 16292.23l-947.87 0c-666.67,0 -1212.12,-545.46 -1212.12,-1212.14l0 -492.83"/>
    <path class="fil0 str0" d="M14924.97 9722.61l0 -1020c0,-429.28 -1310.23,-1723.78 -1739.49,-1723.78l-859.87 0"/>
   </g>
   <path class="fil2 str2" d="M11321.5 0c6252.7,0 11321.5,5068.8 11321.5,11321.5 0,6252.7 -5068.8,11321.5 -11321.5,11321.5 -6252.7,0 -11321.5,-5068.8 -11321.5,-11321.5 0,-6252.7 5068.8,-11321.5 11321.5,-11321.5zm0 484.64c5985.04,0 10836.86,4851.82 10836.86,10836.86 0,5985.04 -4851.82,10836.86 -10836.86,10836.86 -5985.04,0 -10836.86,-4851.82 -10836.86,-10836.86 0,-5985.04 4851.82,-10836.86 10836.86,-10836.86z"/>
  </g>
 </g>
</svg>
