<?xml version="1.0" encoding="UTF-8"?>
<!DOCTYPE svg PUBLIC "-//W3C//DTD SVG 1.1//EN" "http://www.w3.org/Graphics/SVG/1.1/DTD/svg11.dtd">
<!-- Creator: CorelDRAW 2018 (64-Bit) -->
<?xml-stylesheet href="пляшки.css" type="text/css"?>
<svg xmlns="http://www.w3.org/2000/svg" xml:space="preserve" width="201.81mm" height="201.81mm" version="1.1" style="shape-rendering:geometricPrecision; text-rendering:geometricPrecision; image-rendering:optimizeQuality; fill-rule:evenodd; clip-rule:evenodd"
viewBox="0 0 20181 20181"
 xmlns:xlink="http://www.w3.org/1999/xlink">
 <style type="text/css">
  .fil0{fill:#9A68BC;}
  .fil1{fill:none;stroke:#9A68BC;stroke-width:300;stroke-miterlimit:10;}
  .fil2{fill:#9A68BC;stroke:#9A68BC;stroke-width:200;stroke-miterlimit:10;}
  .fil3{fill:none;stroke:#9A68BC;stroke-width:300;stroke-miterlimit:10;}
</style>
 <g id="Слой_x0020_1">
  <metadata id="CorelCorpID_0Corel-Layer"/>
  <g id="_2336862794288">
   <path class="fil0 str0" d="M10090.5 0c5572.83,0 10090.5,4517.67 10090.5,10090.5 0,5572.83 -4517.67,10090.5 -10090.5,10090.5 -5572.83,0 -10090.5,-4517.67 -10090.5,-10090.5 0,-5572.83 4517.67,-10090.5 10090.5,-10090.5zm0 431.95c5334.28,0 9658.55,4324.27 9658.55,9658.55 0,5334.28 -4324.27,9658.55 -9658.55,9658.55 -5334.28,0 -9658.55,-4324.27 -9658.55,-9658.55 0,-5334.28 4324.27,-9658.55 9658.55,-9658.55z"/>
   <g>
    <path class="fil1 str1" d="M12175.98 6751.2c-108,-1085.58 -1069.34,-1739.57 -2797.21,-1898.49l0 -1673.69 -1515.7 0 0 1673.69c-1727.9,158.92 -2688.84,812.91 -2796.79,1898.49"/>
    <path class="fil1 str2" d="M12186.2 10498.12l0 -2714.28m-7130.15 0l0 2824.28"/>
    <path class="fil1 str1" d="M12145.72 14535.31c26.88,-104.88 40.48,-216.94 40.48,-335.71l0 -2596.07m-7130.15 0l0 2596.07c0,121.3 14.23,233.02 40.83,335.71"/>
    <path class="fil2 str3" d="M9621.88 3192.95c0,73.56 -62.78,134.11 -139.05,134.11l-1723.41 0c-76.51,0 -139.01,-60.55 -139.01,-134.11l0 -107.45c0,-74.16 62.5,-134.55 139.01,-134.55l1723.41 0c76.27,0 139.05,60.39 139.05,134.55l0 107.45z"/>
    <path class="fil3 str4" d="M12304.03 15311.95c0,138.5 -119.83,251.95 -266,251.95 -2277.86,0 -4555.68,0 -6833.53,0 -146.46,0 -266.12,-113.45 -266.12,-251.95 0,-207.28 0,-414.56 0,-621.84 0,-138.45 119.66,-251.94 266.12,-251.94 2277.85,0 4555.67,0 6833.53,0 146.17,0 266,113.49 266,251.94 0,207.28 0,414.56 0,621.84z"/>
    <path class="fil3 str3" d="M12304.03 11381.5c0,138.62 -119.83,252.07 -266,252.07 -2277.86,0 -4555.68,0 -6833.53,0 -146.46,0 -266.12,-113.45 -266.12,-252.07 0,-207.24 0,-414.48 0,-621.72 0,-138.61 119.66,-252.06 266.12,-252.06 2277.85,0 4555.67,0 6833.53,0 146.17,0 266,113.45 266,252.06 0,207.24 0,414.48 0,621.72z"/>
    <path class="fil2 str3" d="M9383.27 3732.47l-1524.29 0c-86.62,0 -154.62,90.32 -154.62,205.44l0 186.51c0,115.6 68,205.88 154.62,205.88l1524.29 0c86.62,0 154.33,-90.28 154.33,-205.88l0 -186.51c0,-115.12 -67.71,-205.44 -154.33,-205.44z"/>
    <rect class="fil0" x="10850.41" y="8185.73" width="257.9" height="1767.7" rx="243.69" ry="228.8"/>
    <rect class="fil0" x="10910.97" y="12436.16" width="257.9" height="1369.24" rx="243.69" ry="177.23"/>
    <g>
     <path class="fil1 str5" d="M14759.25 10202.97c-112.98,-147.93 -719.06,-108.57 -775.41,-4.21l20.96 98.39 -6.15 140.93 -0.53 12.16c-0.21,4.64 -0.63,9.3 -1.24,13.94 -8.58,65.07 -55.14,127.81 -74.66,144.36l-3.35 -0.01 -392.34 238.54c-135.04,82.11 -282.99,125.93 -282.63,296.2l2.01 935.38 181.56 209.86 -182.34 191.37 -9.8 2680.35c-0.62,170.3 132.97,309.46 287.14,309.6l1664.36 1.46c154.18,0.14 283.73,-150.29 284.34,-320.62l9.62 -2671.24 -120.01 -185.31 116.36 -217.31 -1.76 -905.23c-0.33,-170.33 -150.42,-239.1 -284.49,-323.05l-382.03 -239.22 -2.6 0c-17.96,-17.07 -76.41,-86.92 -69.71,-156.26l21.64 -223.98 1.06 -26.1z"/>
     <path class="fil0 str6" d="M14871.38 10318.36l-1026.03 -0.9 -1.54 -367.66c-0.38,-89.41 73.33,-162.53 162.74,-162.46l707.31 0.63c89.42,0.07 160.79,71.52 160.15,160.95l-2.63 369.44z"/>
     <rect class="fil0" transform="matrix(0.173425 0.000152274 -0.000246127 0.280314 13918.8 12622.2)" width="1058.34" height="7725.83" rx="1000" ry="1000"/>
     <rect class="fil0" transform="matrix(0.173425 0.000152274 -0.000110747 0.126129 13923.4 11158.7)" width="1058.34" height="7725.83" rx="1000" ry="1000"/>
    </g>
    <path class="fil3 str7" d="M12304.03 7568.62c0,138.61 -119.83,252.07 -266,252.07 -2277.86,0 -4555.68,0 -6833.53,0 -146.46,0 -266.12,-113.46 -266.12,-252.07 0,-207.24 0,-414.48 0,-621.72 0,-138.61 119.66,-252.07 266.12,-252.07 2277.85,0 4555.67,0 6833.53,0 146.17,0 266,113.46 266,252.07 0,207.24 0,414.48 0,621.72z"/>
   </g>
  </g>
 </g>
</svg>
