<?xml version="1.0" encoding="utf-8"?>
<!-- Generator: Adobe Illustrator 23.0.3, SVG Export Plug-In . SVG Version: 6.00 Build 0)  -->
<svg version="1.1" id="Слой_1" xmlns="http://www.w3.org/2000/svg" xmlns:xlink="http://www.w3.org/1999/xlink" x="0px" y="0px"
	 viewBox="180 300 500 400" style="enable-background:new 0 0 400 400;" xml:space="preserve">
<style type="text/css">
	.st0{fill-rule:evenodd;clip-rule:evenodd;fill:#8ACFE2;}
	.st1{fill-rule:evenodd;clip-rule:evenodd;fill:#FEFEFE;}
	.st2{fill-rule:evenodd;clip-rule:evenodd;fill:#85AADA;}
	.st3{fill:#7690C9;}
	.st4{fill:#FFFFFF;}
</style>
<g>
	<path class="st0" d="M255.04,390.01c4.73,0,8.59-3.86,8.59-8.59c0-4.73-3.86-8.56-8.59-8.56c-4.73,0-8.56,3.83-8.56,8.56
		C246.48,386.16,250.31,390.01,255.04,390.01L255.04,390.01z M581.93,351.12c6.15,0,11.17-4.99,11.17-11.17
		c0-6.18-5.02-11.2-11.17-11.2c-6.18,0-11.2,5.02-11.2,11.2C570.74,346.13,575.75,351.12,581.93,351.12L581.93,351.12z
		 M279.79,685.24c-39.94,0-72.6-32.66-72.6-72.6l0,0c0-39.91,32.66-72.6,72.6-72.6l0,0c16.89,0,30.7-13.8,30.7-30.7l0,0
		c0-16.87-13.83-30.67-30.7-30.67h-3.66c-17.55,0-31.92-14.37-31.92-31.92l0,0c0-17.55,14.37-31.92,31.92-31.92h11.2
		c6.83,0,12.44-5.58,12.44-12.42l0,0c0-6.83-5.61-12.42-12.44-12.42h-8.22c-4.71,0-8.59-3.88-8.59-8.59l0,0
		c0-4.71,3.88-8.56,8.59-8.56h55.36c7.4,0,13.46-6.07,13.46-13.49l0,0c0-7.4-6.07-13.46-13.46-13.46h-16.55
		c-4.73,0-8.59-3.86-8.59-8.56l0,0c0-4.73,3.86-8.59,8.59-8.59H553.3c6.15,0,11.17,5.05,11.17,11.2l0,0
		c0,6.15-5.02,11.17-11.17,11.17h-16.98c-9.67,0-17.57,7.94-17.57,17.6l0,0c0,9.67,7.91,17.57,17.57,17.57H609
		c6.15,0,11.17,5.02,11.17,11.2l0,0c0,6.15-5.02,11.17-11.17,11.17h-10.74c-8.93,0-16.21,7.31-16.21,16.21l0,0
		c0,8.93,7.29,16.21,16.21,16.21h14.63c22.9,0,41.64,18.74,41.64,41.64l0,0c0,22.9-18.74,41.64-41.64,41.64h-4.79
		c-22.03,0-40.03,18.03-40.03,40.05l0,0c0,22.03,18,40.05,40.03,40.05h10.35c22.2,0,40.37,18.17,40.37,40.37l0,0
		c0,22.22-18.17,40.39-40.37,40.39C503.53,685.24,394.7,685.24,279.79,685.24L279.79,685.24z"/>
	<path class="st1" d="M316.24,384.8c0-0.4-0.34-0.71-0.74-0.71c-0.43,0-0.74,0.31-0.74,0.71v1.76h-1.73c-0.43,0-0.74,0.31-0.74,0.71
		c0,0.43,0.31,0.74,0.74,0.74h1.73v1.76c0,0.4,0.31,0.74,0.74,0.74c0.4,0,0.74-0.34,0.74-0.74V388h1.73c0.4,0,0.74-0.31,0.74-0.74
		c0-0.4-0.34-0.71-0.74-0.71h-1.73V384.8z"/>
	<path class="st1" d="M490.74,342.19c0-0.43-0.31-0.74-0.74-0.74c-0.4,0-0.74,0.31-0.74,0.74v1.73h-1.73c-0.4,0-0.74,0.31-0.74,0.74
		c0,0.4,0.34,0.74,0.74,0.74h1.73v1.73c0,0.4,0.34,0.74,0.74,0.74c0.43,0,0.74-0.34,0.74-0.74v-1.73h1.73
		c0.43,0,0.74-0.34,0.74-0.74c0-0.43-0.31-0.74-0.74-0.74h-1.73V342.19z"/>
	<path class="st1" d="M392.52,356.76c0-0.43-0.31-0.74-0.74-0.74c-0.4,0-0.74,0.31-0.74,0.74v1.73h-1.73c-0.4,0-0.74,0.31-0.74,0.74
		c0,0.4,0.34,0.74,0.74,0.74h1.73v1.73c0,0.4,0.34,0.74,0.74,0.74c0.43,0,0.74-0.34,0.74-0.74v-1.73h1.76c0.4,0,0.74-0.34,0.74-0.74
		c0-0.43-0.34-0.74-0.74-0.74h-1.76V356.76z"/>
	<path class="st2" d="M421.66,376.58c0-0.43-0.31-0.74-0.74-0.74c-0.4,0-0.74,0.31-0.74,0.74v1.73h-1.73c-0.4,0-0.74,0.31-0.74,0.74
		c0,0.4,0.34,0.74,0.74,0.74h1.73v1.73c0,0.4,0.34,0.74,0.74,0.74c0.43,0,0.74-0.34,0.74-0.74v-1.73h1.73
		c0.43,0,0.74-0.34,0.74-0.74c0-0.43-0.31-0.74-0.74-0.74h-1.73V376.58z"/>
	<path class="st2" d="M493.97,451.04c0-0.43-0.31-0.74-0.74-0.74c-0.4,0-0.74,0.31-0.74,0.74v1.73h-1.73c-0.4,0-0.74,0.34-0.74,0.74
		s0.34,0.74,0.74,0.74h1.73v1.73c0,0.4,0.34,0.74,0.74,0.74c0.43,0,0.74-0.34,0.74-0.74v-1.73h1.73c0.43,0,0.74-0.34,0.74-0.74
		s-0.31-0.74-0.74-0.74h-1.73V451.04z"/>
	<path class="st3" d="M596.08,602.61H207.9c-0.45,3.29-0.71,6.63-0.71,10.03l0,0c0,39.94,32.66,72.6,72.6,72.6l0,0
		c114.92,0,223.74,0,338.66,0c22.2,0,40.37-18.17,40.37-40.39l0,0c0-22.2-18.17-40.37-40.37-40.37H608.1
		C603.93,604.48,599.88,603.83,596.08,602.61L596.08,602.61z"/>
	<polygon class="st4" points="611.73,649.13 651.81,649.13 648.8,638.53 608.72,638.53 	"/>
	<polygon class="st4" points="511.72,649.13 551.8,649.13 548.8,638.53 508.71,638.53 	"/>
	<polygon class="st4" points="411.71,649.13 451.79,649.13 448.79,638.53 408.74,638.53 	"/>
	<polygon class="st4" points="311.73,649.13 351.79,649.13 348.78,638.53 308.73,638.53 	"/>
	<polygon class="st4" points="211.73,649.13 251.78,649.13 248.81,638.53 208.72,638.53 	"/>
	<path class="st1" d="M311.73,439.96c0.88,0,1.7,0.14,2.47,0.43c0.34-0.37,0.82-0.62,1.39-0.62c0.26,0,0.48,0.06,0.71,0.14
		c0.14-1.62,1.47-2.89,3.15-2.89c0.71,0,1.36,0.26,1.9,0.65c0.34-0.45,0.88-0.77,1.5-0.77c0.11,0,0.2,0,0.31,0.03
		c-0.23-0.48-0.34-1.02-0.34-1.59c0-2.24,1.81-4.05,4.05-4.05c0.43,0,0.82,0.06,1.19,0.17c0.28-0.62,0.94-1.05,1.67-1.05h0.06
		c-0.03-0.14-0.03-0.28-0.03-0.45c0-4,3.26-7.26,7.29-7.26c4.03,0,7.26,3.26,7.26,7.26c0,0.06,0,0.11,0,0.17
		c0.37-0.09,0.74-0.14,1.11-0.14c0.77,0,1.47,0.2,2.1,0.54c1.05-1.45,2.75-2.41,4.68-2.41c3.23,0,5.84,2.61,5.84,5.84
		c0,0.62-0.11,1.25-0.28,1.81c0.06,0,0.11,0,0.17,0c1.59,0,2.86,1.28,2.86,2.86c0,0.2,0,0.37-0.06,0.54c0.03,0,0.06,0,0.09,0
		c0.88,0,1.62,0.71,1.64,1.62c0.26-0.06,0.51-0.09,0.77-0.09c1.02,0,2.01,0.37,2.69,1.02c1.87,1.76-0.17,2.21-2.13,2.21h-2.55h-2.01
		h-41.13h-3.23h-5.27c-2.04,0-4.96,0.34-2.92-1.79C307.94,440.78,309.75,439.96,311.73,439.96L311.73,439.96z"/>
	<path class="st1" d="M514.61,397.95c-0.99,0-1.96,0.17-2.83,0.51c-0.4-0.45-0.96-0.71-1.59-0.71c-0.31,0-0.6,0.06-0.85,0.17
		c-0.14-1.87-1.7-3.34-3.6-3.34c-0.82,0-1.59,0.28-2.18,0.74c-0.4-0.54-1.02-0.88-1.73-0.88c-0.14,0-0.26,0-0.37,0.03
		c0.26-0.57,0.4-1.19,0.4-1.84c0-2.55-2.1-4.65-4.68-4.65c-0.48,0-0.94,0.09-1.39,0.2c-0.31-0.71-1.05-1.22-1.9-1.22h-0.06
		c0-0.17,0-0.34,0-0.51c0-4.62-3.74-8.36-8.36-8.36c-4.65,0-8.39,3.74-8.39,8.36c0,0.09,0,0.14,0,0.2c-0.4-0.09-0.82-0.14-1.28-0.14
		c-0.85,0-1.67,0.2-2.38,0.6c-1.22-1.67-3.2-2.75-5.41-2.75c-3.71,0-6.72,3-6.72,6.69c0,0.74,0.11,1.45,0.34,2.1
		c-0.09,0-0.14,0-0.23,0c-1.81,0-3.29,1.47-3.29,3.29c0,0.23,0.03,0.43,0.06,0.65c-0.03,0-0.06,0-0.09,0c-1.02,0-1.87,0.79-1.9,1.84
		c-0.28-0.06-0.57-0.09-0.88-0.09c-1.19,0-2.3,0.4-3.12,1.16c-2.13,2.04,0.2,2.55,2.47,2.55h2.95h2.32h47.37h3.71h6.07
		c2.35,0,5.73,0.4,3.4-2.07C519,398.91,516.91,397.95,514.61,397.95L514.61,397.95z"/>
</g>
</svg>
