<?xml version="1.0" encoding="utf-8"?>
<!-- Generator: Adobe Illustrator 23.0.3, SVG Export Plug-In . SVG Version: 6.00 Build 0)  -->
<svg version="1.1" id="Слой_1" xmlns="http://www.w3.org/2000/svg" xmlns:xlink="http://www.w3.org/1999/xlink" x="0px" y="0px"
	 viewBox="235 400 400 200" width="100%" style="enable-background:new 235 400 400 200;" xml:space="preserve">
<style type="text/css">
	.st0{fill:#D09FDC;}
	.st1{fill:#9A68BC;}
	.st2{fill:#76508F;}
	.st3{fill:#FEFEFE;}
	.st4{fill:#B480C2;}
	.st5{fill-rule:evenodd;clip-rule:evenodd;fill:#FEFEFE;}
</style>
<g>
	<path class="st0" d="M527.18,466.9h40.11c6.01,0,13.66,4.11,16.98,9.13l26.59,40.14c3.32,5.02,6.04,14.06,6.04,20.07v20.72
		c0,6.01-4.93,10.94-10.94,10.94h-54.96c-3.32-10.01-12.7-17.23-23.81-17.38V466.9z"/>
	<path class="st1" d="M502.83,567.9H371.98c-3.34-10.09-12.87-17.38-24.07-17.38c-11.23,0-20.75,7.29-24.09,17.38h-19.28v-56.78
		c0.03-3.12,0,0.03,0-3.4c0-4.85,0.77-11.42-1.62-15.65c-5.84-10.29-17.91-6.21-28.4-7.14c-3,0-5.41-2.41-5.41-5.41l0,0
		c0-2.52,1.7-4.62,4.03-5.24h28.35c2.98,0,5.41-2.35,5.41-5.24l0,0c0-2.89-2.44-4.39-5.41-4.39c-13.12,0-25.48,0.31-36.96,0.31
		c-3,0-5.41-2.44-5.41-5.41l0,0c0-3,2.41-5.41,5.41-5.41c8.73,0,17.26,0.2,26.96,0.2c2.98,0,5.41-1.79,5.41-4.68l0,0
		c0-2.89-2.44-4.68-5.41-4.68c-12.9,0-24.24-0.03-36.96-0.03c-2.98,0-5.41-2.44-5.41-5.41l0,0c0-2.98,2.44-5.41,5.41-5.41h62.56
		c0.43,0,0.85,0.06,1.28,0.17h208.83v116.25c-0.09,0-0.17,0-0.28,0C515.7,550.53,506.18,557.81,502.83,567.9L502.83,567.9z"/>
	<path class="st2" d="M616.25,530.37c0.43,2.1,0.65,4.11,0.65,5.87v12.61c-0.09,0-0.17,0.03-0.28,0.03c-5.1,0-9.24-4.17-9.24-9.27
		C607.37,534.62,611.31,530.57,616.25,530.37L616.25,530.37z"/>
	<path class="st3" d="M591.33,514.92c3.06,0,4.17-2.3,2.44-5.1l-15.85-25.71c-1.73-2.81-5.64-5.07-8.7-5.07h-29.68
		c-3.06,0-5.56,2.78-5.56,6.15v23.56c0,3.4,2.49,6.18,5.56,6.18H591.33z"/>
	<path class="st2" d="M612.14,579.92h-60.18c0.2-1.3,0.31-2.66,0.31-4.03c0-2.78-0.45-5.47-1.28-7.99h61.14V579.92z M501.87,579.92
		H372.95c0.23-1.3,0.31-2.66,0.31-4.03c0-2.78-0.45-5.47-1.28-7.99h130.85c-0.82,2.52-1.28,5.22-1.28,7.99
		C501.56,577.26,501.64,578.62,501.87,579.92L501.87,579.92z M322.86,579.92h-18.31V567.9h19.28c-0.82,2.52-1.28,5.22-1.28,7.99
		C322.55,577.26,322.66,578.62,322.86,579.92L322.86,579.92z"/>
	<path class="st4" d="M544.25,521.39c0,0.68,0.54,1.22,1.22,1.22h11.85c0.68,0,1.22-0.54,1.22-1.22l0,0c0-0.65-0.54-1.22-1.22-1.22
		h-11.85C544.78,520.17,544.25,520.73,544.25,521.39L544.25,521.39z"/>
	<path class="st5" d="M488.77,534.31c-0.51-0.09-5.64,8.93-5.64,12.02c0,3.12,2.52,5.64,5.64,5.64c3.09,0,5.61-2.52,5.61-5.64
		C494.38,543.24,489.25,534.4,488.77,534.31L488.77,534.31z"/>
	<path class="st3" d="M346.87,504.46v22.82h-3.26v-48.9h3.26v22.82h4l8.82-22.82h3.49l-9.47,24.46l9.47,24.43h-3.49l-8.82-22.82
		H346.87z M384.03,514.24h-9.13l-2.24,13.04h-3.32l8.39-48.9h3.46l8.36,48.9h-3.29L384.03,514.24z M375.44,510.98h8.02l-4-23.47
		L375.44,510.98z M399.03,488.28v39h-3.26v-48.9h3.43l12.87,39v-39h3.26v48.9h-3.43L399.03,488.28z M441.38,488.16v3.26h-3.23v-3.26
		c0-1.81-0.65-3.34-1.93-4.59c-1.28-1.28-2.81-1.93-4.59-1.93c-1.81,0-3.34,0.65-4.62,1.93c-1.28,1.25-1.9,2.78-1.9,4.59v29.34
		c0,1.81,0.62,3.34,1.9,4.62c1.28,1.28,2.81,1.9,4.62,1.9c1.79,0,3.32-0.62,4.59-1.9c1.28-1.28,1.93-2.81,1.93-4.62v-13.04h-6.52
		v-3.26h9.75v16.3c0,2.69-0.94,4.99-2.86,6.92c-1.9,1.9-4.2,2.86-6.89,2.86c-2.69,0-5.02-0.96-6.92-2.86
		c-1.93-1.93-2.86-4.22-2.86-6.92v-29.34c0-2.69,0.94-4.99,2.86-6.92c1.9-1.9,4.22-2.86,6.92-2.86c2.69,0,4.99,0.96,6.89,2.86
		C440.44,483.17,441.38,485.47,441.38,488.16L441.38,488.16z M464.2,478.38v3.26h-13.04v19.56h9.78v3.26h-9.78v19.56h13.04v3.26
		h-16.3v-48.9H464.2z M473.98,488.28v39h-3.26v-48.9h3.43l12.87,39v-39h3.26v48.9h-3.43L473.98,488.28z"/>
	<path class="st3" d="M343.72,455.59h1.11v5.27c0.62-0.57,1.33-0.85,2.21-0.85c0.91,0,1.7,0.34,2.32,0.96
		c0.65,0.65,0.99,1.45,0.99,2.35v5.53c0,0.94-0.34,1.7-0.99,2.35c-0.62,0.65-1.42,0.99-2.32,0.99c-0.88,0-1.59-0.28-2.21-0.88v0.88
		h-1.11V455.59z M344.83,463.33v5.53c0,0.62,0.2,1.13,0.62,1.59c0.45,0.43,0.96,0.62,1.59,0.62c0.6,0,1.13-0.2,1.56-0.62
		c0.43-0.45,0.65-0.96,0.65-1.59v-5.53c0-0.6-0.23-1.13-0.65-1.56c-0.43-0.43-0.96-0.65-1.56-0.65c-0.62,0-1.13,0.23-1.59,0.65
		C345.03,462.2,344.83,462.74,344.83,463.33L344.83,463.33z M358.1,460.87v-0.85h1.11v12.19h-1.11v-0.88
		c-0.62,0.6-1.36,0.88-2.21,0.88c-0.91,0-1.7-0.34-2.35-0.99c-0.65-0.65-0.96-1.42-0.96-2.35v-5.53c0-0.91,0.31-1.7,0.96-2.35
		c0.65-0.62,1.45-0.96,2.35-0.96C356.73,460.02,357.47,460.3,358.1,460.87L358.1,460.87z M358.1,463.33c0-0.6-0.2-1.13-0.65-1.56
		c-0.43-0.43-0.94-0.65-1.56-0.65s-1.13,0.23-1.56,0.65s-0.65,0.96-0.65,1.56v5.53c0,0.62,0.23,1.13,0.65,1.59
		c0.43,0.43,0.94,0.62,1.56,0.62s1.13-0.2,1.56-0.62c0.45-0.45,0.65-0.96,0.65-1.59V463.33z M362.52,468.86
		c0,0.62,0.23,1.13,0.65,1.59c0.43,0.43,0.96,0.62,1.56,0.62c0.62,0,1.13-0.2,1.59-0.62c0.43-0.45,0.65-0.96,0.65-1.59h1.11
		c0,0.94-0.34,1.7-0.99,2.35c-0.65,0.65-1.42,0.99-2.35,0.99c-0.91,0-1.67-0.34-2.32-0.99s-0.99-1.42-0.99-2.35v-5.53
		c0-0.91,0.34-1.7,0.99-2.35c0.65-0.62,1.42-0.96,2.32-0.96c0.94,0,1.7,0.34,2.35,0.96c0.65,0.65,0.99,1.45,0.99,2.35h-1.11
		c0-0.6-0.23-1.13-0.65-1.56c-0.45-0.43-0.96-0.65-1.59-0.65c-0.6,0-1.13,0.23-1.56,0.65s-0.65,0.96-0.65,1.56V468.86z
		 M371.39,466.65v5.56h-1.11v-16.61h1.11v9.95h2.21l2.13-5.53h1.19l-2.35,6.09l2.35,6.09h-1.19l-2.13-5.56H371.39z M383.55,455.59
		h1.11v4.42h3.32v1.11h-3.32v7.74c0,0.62,0.23,1.13,0.65,1.59c0.43,0.43,0.96,0.62,1.56,0.62h1.11v1.13h-1.11
		c-0.91,0-1.7-0.34-2.32-0.99c-0.65-0.65-0.99-1.42-0.99-2.35V455.59z M391.29,468.86c0,0.62,0.23,1.13,0.65,1.59
		c0.45,0.43,0.96,0.62,1.59,0.62c0.6,0,1.13-0.2,1.56-0.62c0.43-0.45,0.65-0.96,0.65-1.59v-5.53c0-0.6-0.23-1.13-0.65-1.56
		s-0.96-0.65-1.56-0.65c-0.62,0-1.13,0.23-1.59,0.65c-0.43,0.43-0.65,0.96-0.65,1.56V468.86z M396.84,468.86
		c0,0.94-0.34,1.7-0.99,2.35s-1.42,0.99-2.32,0.99c-0.94,0-1.7-0.34-2.35-0.99c-0.65-0.65-0.99-1.42-0.99-2.35v-5.53
		c0-0.91,0.34-1.7,0.99-2.35c0.65-0.62,1.42-0.96,2.35-0.96c0.91,0,1.67,0.34,2.32,0.96c0.65,0.65,0.99,1.45,0.99,2.35V468.86z
		 M404.58,468.86c0,0.62,0.23,1.13,0.65,1.59c0.43,0.43,0.94,0.62,1.56,0.62s1.13-0.2,1.56-0.62c0.45-0.45,0.65-0.96,0.65-1.59
		v-5.53c0-0.6-0.2-1.13-0.65-1.56c-0.43-0.43-0.94-0.65-1.56-0.65s-1.13,0.23-1.56,0.65c-0.43,0.43-0.65,0.96-0.65,1.56V468.86z
		 M410.11,468.86c0,0.94-0.31,1.7-0.96,2.35s-1.45,0.99-2.35,0.99c-0.91,0-1.7-0.34-2.35-0.99c-0.65-0.65-0.96-1.42-0.96-2.35v-5.53
		c0-0.91,0.31-1.7,0.96-2.35c0.65-0.62,1.45-0.96,2.35-0.96c0.91,0,1.7,0.34,2.35,0.96c0.65,0.65,0.96,1.45,0.96,2.35V468.86z
		 M413.43,463.33v8.87h-1.11v-12.19h1.11v0.85c0.62-0.57,1.36-0.85,2.21-0.85h1.11v1.11h-1.11c-0.6,0-1.13,0.23-1.56,0.65
		S413.43,462.74,413.43,463.33L413.43,463.33z M420.09,460.02v12.19h-1.11v-12.19H420.09z M418.98,457.8v-1.11h1.11v1.11H418.98z
		 M427.83,468.86v-5.53c0-0.6-0.23-1.13-0.65-1.56s-0.96-0.65-1.56-0.65c-0.62,0-1.13,0.23-1.59,0.65
		c-0.43,0.43-0.62,0.96-0.62,1.56v5.53c0,0.62,0.2,1.13,0.62,1.59c0.45,0.43,0.96,0.62,1.59,0.62c0.6,0,1.13-0.2,1.56-0.62
		C427.6,469.99,427.83,469.48,427.83,468.86L427.83,468.86z M428.93,473.31c0,0.91-0.34,1.67-0.96,2.32
		c-0.65,0.65-1.45,0.99-2.35,0.99c-0.91,0-1.7-0.34-2.35-0.99c-0.65-0.65-0.96-1.42-0.96-2.32h1.11c0,0.6,0.2,1.13,0.62,1.56
		c0.45,0.43,0.96,0.65,1.59,0.65c0.6,0,1.13-0.23,1.56-0.65c0.43-0.43,0.65-0.96,0.65-1.56v-1.98c-0.62,0.6-1.36,0.88-2.21,0.88
		c-0.91,0-1.7-0.34-2.35-0.99c-0.65-0.65-0.96-1.42-0.96-2.35v-5.53c0-0.91,0.31-1.7,0.96-2.35c0.65-0.62,1.45-0.96,2.35-0.96
		c0.85,0,1.59,0.28,2.21,0.85v-0.85h1.11V473.31z M432.25,460.02v12.19h-1.11v-12.19H432.25z M431.14,457.8v-1.11h1.11v1.11H431.14z
		 M435.57,463.33v8.87h-1.11v-12.19h1.11v0.85c0.62-0.57,1.36-0.85,2.21-0.85c0.91,0,1.7,0.34,2.35,0.96
		c0.65,0.65,0.96,1.45,0.96,2.35v8.87h-1.11v-8.87c0-0.6-0.2-1.13-0.65-1.56c-0.43-0.43-0.94-0.65-1.56-0.65
		c-0.6,0-1.13,0.23-1.56,0.65S435.57,462.74,435.57,463.33L435.57,463.33z"/>
</g>
</svg>
