<?xml version="1.0" encoding="utf-8"?>
<!-- Generator: Adobe Illustrator 23.0.3, SVG Export Plug-In . SVG Version: 6.00 Build 0)  -->
<svg version="1.1" id="Слой_1" xmlns="http://www.w3.org/2000/svg" xmlns:xlink="http://www.w3.org/1999/xlink" x="0px" y="0px"
	 viewBox="432 480 1.7 54" width="200px" height="200px" xml:space="preserve">
<style type="text/css">
	.st0{fill:#001A31;}
	.st1{fill:#FFFFFF;}
</style>
<g>
	<path class="st0" d="M457.01,507c0,13.27-10.74,24.01-24.01,24.01s-24.01-10.74-24.01-24.01c0-13.27,10.74-24.01,24.01-24.01
		S457.01,493.73,457.01,507L457.01,507z"/>
	<path class="st0" d="M457.01,507h-1.02c0,6.35-2.55,12.1-6.72,16.27c-4.17,4.17-9.92,6.72-16.27,6.72s-12.1-2.55-16.27-6.72
		s-6.72-9.92-6.72-16.27c0-6.35,2.55-12.1,6.72-16.27s9.92-6.72,16.27-6.72s12.1,2.55,16.27,6.72c4.17,4.17,6.72,9.92,6.72,16.27
		H458c0-13.8-11.2-25-25-25c-13.8,0-25,11.2-25,25s11.2,25,25,25c13.8,0,25-11.2,25-25H457.01z"/>
	<path class="st1" d="M433,490.84c5.1,0,9.64,2.35,12.59,6.01c0.37,0.45,0.99,0.51,1.42,0.17c0.43-0.37,0.51-0.99,0.14-1.42
		c-3.32-4.14-8.42-6.77-14.14-6.77c-0.54,0-0.99,0.45-0.99,0.99C432.01,490.39,432.46,490.84,433,490.84L433,490.84z"/>
	<path class="st1" d="M449.19,507c0,2.61-0.62,5.05-1.73,7.23c-0.23,0.51-0.03,1.11,0.45,1.33c0.51,0.26,1.11,0.06,1.36-0.43
		c1.22-2.47,1.9-5.22,1.9-8.14c0-0.54-0.45-0.99-0.99-0.99C449.61,506.01,449.19,506.46,449.19,507L449.19,507z"/>
	<path class="st1" d="M447.49,499.77c1.08,2.18,1.7,4.62,1.7,7.23c0,0.57,0.43,0.99,0.99,0.99c0.54,0,0.99-0.43,0.99-0.99
		c0-2.92-0.68-5.67-1.9-8.14c-0.26-0.48-0.85-0.68-1.36-0.43C447.43,498.67,447.23,499.29,447.49,499.77L447.49,499.77z"/>
	<path class="st1" d="M445.59,496.85c0.74,0.91,1.36,1.87,1.9,2.92c0.23,0.48,0.82,0.71,1.33,0.45c0.48-0.26,0.68-0.85,0.45-1.36
		c-0.6-1.16-1.3-2.24-2.13-3.26c-0.34-0.43-0.96-0.51-1.39-0.14C445.33,495.8,445.25,496.43,445.59,496.85L445.59,496.85z"/>
	<path class="st0" d="M442.1,507c0,5.02-4.08,9.1-9.1,9.1c-5.02,0-9.1-4.08-9.1-9.1c0-5.02,4.08-9.1,9.1-9.1
		C438.02,497.9,442.1,501.98,442.1,507L442.1,507z"/>
	<path class="st1" d="M442.1,507h-1.02c0,2.24-0.91,4.25-2.35,5.73c-1.47,1.45-3.49,2.35-5.73,2.35c-2.24,0-4.25-0.91-5.73-2.35
		c-1.45-1.47-2.35-3.49-2.35-5.73c0-2.24,0.91-4.25,2.35-5.73c1.47-1.45,3.49-2.35,5.73-2.35c2.24,0,4.25,0.91,5.73,2.35
		c1.45,1.47,2.35,3.49,2.35,5.73h2.01c0-5.58-4.51-10.09-10.09-10.09c-5.56,0-10.09,4.51-10.09,10.09c0,5.58,4.54,10.09,10.09,10.09
		c5.58,0,10.09-4.51,10.09-10.09H442.1z"/>
	<path class="st0" d="M437.51,507c0,2.49-2.01,4.51-4.51,4.51c-2.49,0-4.51-2.01-4.51-4.51c0-2.49,2.01-4.51,4.51-4.51
		C435.5,502.49,437.51,504.5,437.51,507L437.51,507z"/>
	<path class="st1" d="M437.51,507h-1.02c0,0.96-0.37,1.84-1.02,2.47c-0.62,0.65-1.5,1.02-2.47,1.02c-1.93,0-3.49-1.56-3.49-3.49
		c0-1.93,1.56-3.49,3.49-3.49c0.96,0,1.84,0.37,2.47,1.02c0.65,0.62,1.02,1.5,1.02,2.47h2.01c0-3.03-2.47-5.5-5.5-5.5
		c-3.03,0-5.5,2.47-5.5,5.5c0,3.03,2.47,5.5,5.5,5.5c3.03,0,5.5-2.47,5.5-5.5H437.51z"/>
</g>
</svg>
