<?xml version="1.0" encoding="UTF-8"?>
<svg width="512px" height="512px" viewBox="0 0 512 512" version="1.1" xmlns="http://www.w3.org/2000/svg" xmlns:xlink="http://www.w3.org/1999/xlink">
    <!-- Generator: Sketch 53.2 (72643) - https://sketchapp.com -->
    <title>Flag_of_India</title>
    <desc>Created with Sketch.</desc>
    <g id="Page-1" stroke="none" stroke-width="1" fill="none" fill-rule="evenodd">
        <g id="Flag_of_India" fill-rule="nonzero">
            <rect id="Rectangle" fill="#FF9933" x="0" y="0" width="512" height="512"></rect>
            <rect id="Rectangle" fill="#FFFFFF" x="0" y="171" width="512" height="341"></rect>
            <rect id="Rectangle" fill="#128807" x="0" y="341" width="512" height="171"></rect>
            <g id="Group" transform="translate(133.000000, 106.000000)">
                <ellipse id="Oval" fill="#000088" cx="123.087483" cy="149.636968" rx="68.0967892" ry="68.1848384"></ellipse>
                <ellipse id="Oval" fill="#FFFFFF" cx="123.087483" cy="149.636968" rx="59.5846906" ry="59.6617336"></ellipse>
                <ellipse id="Oval" fill="#000088" cx="123.087483" cy="149.636968" rx="11.9169381" ry="11.9323467"></ellipse>
                <g id="d" transform="translate(11.862727, 98.744790)" fill="#000088">
                    <g id="c" transform="translate(57.756166, 43.313802)">
                        <g id="b" transform="translate(34.805026, 10.227726)">
                            <g id="a" transform="translate(16.141461, 1.643008)">
                                <ellipse id="Oval" transform="translate(61.597039, 3.495060) rotate(7.500000) translate(-61.597039, -3.495060) " cx="61.5970386" cy="3.49506011" rx="2.9793002" ry="2.98302109"></ellipse>
                                <path d="M2.5221033,55.3693748 L4.56500698,19.5723346 C4.56500698,19.5723346 2.5221033,2.52612504 2.5221033,2.52612504 C2.5221033,2.52612504 0.479199628,19.5723346 0.479199628,19.5723346 L2.5221033,55.3693748 Z" id="Path"></path>
                            </g>
                            <g id="a-link" transform="translate(39.272905, 36.311722) rotate(15.000000) translate(-39.272905, -36.311722) translate(6.772905, 8.311722)">
                                <g id="a" transform="translate(-0.000000, 0.000000)">
                                    <ellipse id="Oval" transform="translate(61.597039, 3.495060) rotate(7.500000) translate(-61.597039, -3.495060) " cx="61.5970386" cy="3.49506011" rx="2.9793002" ry="2.98302109"></ellipse>
                                    <path d="M2.5221033,55.3693748 L4.56500698,19.5723346 C4.56500698,19.5723346 2.5221033,2.52612504 2.5221033,2.52612504 C2.5221033,2.52612504 0.479199628,19.5723346 0.479199628,19.5723346 L2.5221033,55.3693748 Z" id="Path"></path>
                                </g>
                            </g>
                        </g>
                        <g id="b-link" transform="translate(53.512979, 52.232275) rotate(30.000000) translate(-53.512979, -52.232275) translate(12.512979, 16.232275)">
                            <g id="b" transform="translate(-0.000000, 0.000000)">
                                <g id="a" transform="translate(16.141461, 1.643008)">
                                    <ellipse id="Oval" transform="translate(61.597039, 3.495060) rotate(7.500000) translate(-61.597039, -3.495060) " cx="61.5970386" cy="3.49506011" rx="2.9793002" ry="2.98302109"></ellipse>
                                    <path d="M2.5221033,55.3693748 L4.56500698,19.5723346 C4.56500698,19.5723346 2.5221033,2.52612504 2.5221033,2.52612504 C2.5221033,2.52612504 0.479199628,19.5723346 0.479199628,19.5723346 L2.5221033,55.3693748 Z" id="Path"></path>
                                </g>
                                <g id="a-link" transform="translate(39.272905, 36.311722) rotate(15.000000) translate(-39.272905, -36.311722) translate(6.772905, 8.311722)">
                                    <g id="a" transform="translate(0.000000, -0.000000)">
                                        <ellipse id="Oval" transform="translate(61.597039, 3.495060) rotate(7.500000) translate(-61.597039, -3.495060) " cx="61.5970386" cy="3.49506011" rx="2.9793002" ry="2.98302109"></ellipse>
                                        <path d="M2.5221033,55.3693748 L4.56500698,19.5723346 C4.56500698,19.5723346 2.5221033,2.52612504 2.5221033,2.52612504 C2.5221033,2.52612504 0.479199628,19.5723346 0.479199628,19.5723346 L2.5221033,55.3693748 Z" id="Path"></path>
                                    </g>
                                </g>
                            </g>
                        </g>
                    </g>
                    <g id="c-link" transform="translate(75.160480, 78.112557) rotate(60.000000) translate(-75.160480, -78.112557) translate(16.160480, 25.612557)">
                        <g id="c" transform="translate(0.019568, 0.036963)">
                            <g id="b" transform="translate(34.805026, 10.227726)">
                                <g id="a" transform="translate(16.141461, 1.643008)">
                                    <ellipse id="Oval" transform="translate(61.597039, 3.495060) rotate(7.500000) translate(-61.597039, -3.495060) " cx="61.5970386" cy="3.49506011" rx="2.9793002" ry="2.98302109"></ellipse>
                                    <path d="M2.5221033,55.3693748 L4.56500698,19.5723346 C4.56500698,19.5723346 2.5221033,2.52612504 2.5221033,2.52612504 C2.5221033,2.52612504 0.479199628,19.5723346 0.479199628,19.5723346 L2.5221033,55.3693748 Z" id="Path"></path>
                                </g>
                                <g id="a-link" transform="translate(39.272905, 36.311722) rotate(15.000000) translate(-39.272905, -36.311722) translate(6.772905, 8.311722)">
                                    <g id="a" transform="translate(0.000000, 0.000000)">
                                        <ellipse id="Oval" transform="translate(61.597039, 3.495060) rotate(7.500000) translate(-61.597039, -3.495060) " cx="61.5970386" cy="3.49506011" rx="2.9793002" ry="2.98302109"></ellipse>
                                        <path d="M2.5221033,55.3693748 L4.56500698,19.5723346 C4.56500698,19.5723346 2.5221033,2.52612504 2.5221033,2.52612504 C2.5221033,2.52612504 0.479199628,19.5723346 0.479199628,19.5723346 L2.5221033,55.3693748 Z" id="Path"></path>
                                    </g>
                                </g>
                            </g>
                            <g id="b-link" transform="translate(53.512979, 52.232275) rotate(30.000000) translate(-53.512979, -52.232275) translate(12.512979, 16.232275)">
                                <g id="b" transform="translate(-0.000000, 0.000000)">
                                    <g id="a" transform="translate(16.141461, 1.643008)">
                                        <ellipse id="Oval" transform="translate(61.597039, 3.495060) rotate(7.500000) translate(-61.597039, -3.495060) " cx="61.5970386" cy="3.49506011" rx="2.9793002" ry="2.98302109"></ellipse>
                                        <path d="M2.5221033,55.3693748 L4.56500698,19.5723346 C4.56500698,19.5723346 2.5221033,2.52612504 2.5221033,2.52612504 C2.5221033,2.52612504 0.479199628,19.5723346 0.479199628,19.5723346 L2.5221033,55.3693748 Z" id="Path"></path>
                                    </g>
                                    <g id="a-link" transform="translate(39.272905, 36.311722) rotate(15.000000) translate(-39.272905, -36.311722) translate(6.772905, 8.311722)">
                                        <g id="a" transform="translate(0.000000, -0.000000)">
                                            <ellipse id="Oval" transform="translate(61.597039, 3.495060) rotate(7.500000) translate(-61.597039, -3.495060) " cx="61.5970386" cy="3.49506011" rx="2.9793002" ry="2.98302109"></ellipse>
                                            <path d="M2.5221033,55.3693748 L4.56500698,19.5723346 C4.56500698,19.5723346 2.5221033,2.52612504 2.5221033,2.52612504 C2.5221033,2.52612504 0.479199628,19.5723346 0.479199628,19.5723346 L2.5221033,55.3693748 Z" id="Path"></path>
                                        </g>
                                    </g>
                                </g>
                            </g>
                        </g>
                    </g>
                </g>
                <g id="d-link" transform="translate(111.503025, 115.507751) rotate(120.000000) translate(-111.503025, -115.507751) translate(24.003025, 37.507751)" fill="#000088">
                    <g id="d" transform="translate(0.000000, 0.000000)">
                        <g id="c" transform="translate(57.756166, 43.313802)">
                            <g id="b" transform="translate(34.805026, 10.227726)">
                                <g id="a" transform="translate(16.141461, 1.643008)">
                                    <ellipse id="Oval" transform="translate(61.597039, 3.495060) rotate(7.500000) translate(-61.597039, -3.495060) " cx="61.5970386" cy="3.49506011" rx="2.9793002" ry="2.98302109"></ellipse>
                                    <path d="M2.5221033,55.3693748 L4.56500698,19.5723346 C4.56500698,19.5723346 2.5221033,2.52612504 2.5221033,2.52612504 C2.5221033,2.52612504 0.479199628,19.5723346 0.479199628,19.5723346 L2.5221033,55.3693748 Z" id="Path"></path>
                                </g>
                                <g id="a-link" transform="translate(39.272905, 36.311722) rotate(15.000000) translate(-39.272905, -36.311722) translate(6.772905, 8.311722)">
                                    <g id="a" transform="translate(-0.000000, 0.000000)">
                                        <ellipse id="Oval" transform="translate(61.597039, 3.495060) rotate(7.500000) translate(-61.597039, -3.495060) " cx="61.5970386" cy="3.49506011" rx="2.9793002" ry="2.98302109"></ellipse>
                                        <path d="M2.5221033,55.3693748 L4.56500698,19.5723346 C4.56500698,19.5723346 2.5221033,2.52612504 2.5221033,2.52612504 C2.5221033,2.52612504 0.479199628,19.5723346 0.479199628,19.5723346 L2.5221033,55.3693748 Z" id="Path"></path>
                                    </g>
                                </g>
                            </g>
                            <g id="b-link" transform="translate(53.512979, 52.232275) rotate(30.000000) translate(-53.512979, -52.232275) translate(12.512979, 16.232275)">
                                <g id="b" transform="translate(0.000000, -0.000000)">
                                    <g id="a" transform="translate(16.141461, 1.643008)">
                                        <ellipse id="Oval" transform="translate(61.597039, 3.495060) rotate(7.500000) translate(-61.597039, -3.495060) " cx="61.5970386" cy="3.49506011" rx="2.9793002" ry="2.98302109"></ellipse>
                                        <path d="M2.5221033,55.3693748 L4.56500698,19.5723346 C4.56500698,19.5723346 2.5221033,2.52612504 2.5221033,2.52612504 C2.5221033,2.52612504 0.479199628,19.5723346 0.479199628,19.5723346 L2.5221033,55.3693748 Z" id="Path"></path>
                                    </g>
                                    <g id="a-link" transform="translate(39.272905, 36.311722) rotate(15.000000) translate(-39.272905, -36.311722) translate(6.772905, 8.311722)">
                                        <g id="a" transform="translate(0.000000, 0.000000)">
                                            <ellipse id="Oval" transform="translate(61.597039, 3.495060) rotate(7.500000) translate(-61.597039, -3.495060) " cx="61.5970386" cy="3.49506011" rx="2.9793002" ry="2.98302109"></ellipse>
                                            <path d="M2.5221033,55.3693748 L4.56500698,19.5723346 C4.56500698,19.5723346 2.5221033,2.52612504 2.5221033,2.52612504 C2.5221033,2.52612504 0.479199628,19.5723346 0.479199628,19.5723346 L2.5221033,55.3693748 Z" id="Path"></path>
                                        </g>
                                    </g>
                                </g>
                            </g>
                        </g>
                        <g id="c-link" transform="translate(75.160480, 78.112557) rotate(60.000000) translate(-75.160480, -78.112557) translate(16.160480, 25.612557)">
                            <g id="c" transform="translate(0.019568, 0.036963)">
                                <g id="b" transform="translate(34.805026, 10.227726)">
                                    <g id="a" transform="translate(16.141461, 1.643008)">
                                        <ellipse id="Oval" transform="translate(61.597039, 3.495060) rotate(7.500000) translate(-61.597039, -3.495060) " cx="61.5970386" cy="3.49506011" rx="2.9793002" ry="2.98302109"></ellipse>
                                        <path d="M2.5221033,55.3693748 L4.56500698,19.5723346 C4.56500698,19.5723346 2.5221033,2.52612504 2.5221033,2.52612504 C2.5221033,2.52612504 0.479199628,19.5723346 0.479199628,19.5723346 L2.5221033,55.3693748 Z" id="Path"></path>
                                    </g>
                                    <g id="a-link" transform="translate(39.272905, 36.311722) rotate(15.000000) translate(-39.272905, -36.311722) translate(6.772905, 8.311722)">
                                        <g id="a" transform="translate(-0.000000, -0.000000)">
                                            <ellipse id="Oval" transform="translate(61.597039, 3.495060) rotate(7.500000) translate(-61.597039, -3.495060) " cx="61.5970386" cy="3.49506011" rx="2.9793002" ry="2.98302109"></ellipse>
                                            <path d="M2.5221033,55.3693748 L4.56500698,19.5723346 C4.56500698,19.5723346 2.5221033,2.52612504 2.5221033,2.52612504 C2.5221033,2.52612504 0.479199628,19.5723346 0.479199628,19.5723346 L2.5221033,55.3693748 Z" id="Path"></path>
                                        </g>
                                    </g>
                                </g>
                                <g id="b-link" transform="translate(53.512979, 52.232275) rotate(30.000000) translate(-53.512979, -52.232275) translate(12.512979, 16.232275)">
                                    <g id="b" transform="translate(0.000000, 0.000000)">
                                        <g id="a" transform="translate(16.141461, 1.643008)">
                                            <ellipse id="Oval" transform="translate(61.597039, 3.495060) rotate(7.500000) translate(-61.597039, -3.495060) " cx="61.5970386" cy="3.49506011" rx="2.9793002" ry="2.98302109"></ellipse>
                                            <path d="M2.5221033,55.3693748 L4.56500698,19.5723346 C4.56500698,19.5723346 2.5221033,2.52612504 2.5221033,2.52612504 C2.5221033,2.52612504 0.479199628,19.5723346 0.479199628,19.5723346 L2.5221033,55.3693748 Z" id="Path"></path>
                                        </g>
                                        <g id="a-link" transform="translate(39.272905, 36.311722) rotate(15.000000) translate(-39.272905, -36.311722) translate(6.772905, 8.311722)">
                                            <g id="a" transform="translate(0.000000, -0.000000)">
                                                <ellipse id="Oval" transform="translate(61.597039, 3.495060) rotate(7.500000) translate(-61.597039, -3.495060) " cx="61.5970386" cy="3.49506011" rx="2.9793002" ry="2.98302109"></ellipse>
                                                <path d="M2.5221033,55.3693748 L4.56500698,19.5723346 C4.56500698,19.5723346 2.5221033,2.52612504 2.5221033,2.52612504 C2.5221033,2.52612504 0.479199628,19.5723346 0.479199628,19.5723346 L2.5221033,55.3693748 Z" id="Path"></path>
                                            </g>
                                        </g>
                                    </g>
                                </g>
                            </g>
                        </g>
                    </g>
                </g>
                <g id="d-link" transform="translate(158.396696, 156.658362) rotate(-120.000000) translate(-158.396696, -156.658362) translate(70.896696, 78.658362)" fill="#000088">
                    <g id="d" transform="translate(-0.000000, -0.000000)">
                        <g id="c" transform="translate(57.756166, 43.313802)">
                            <g id="b" transform="translate(34.805026, 10.227726)">
                                <g id="a" transform="translate(16.141461, 1.643008)">
                                    <ellipse id="Oval" transform="translate(61.597039, 3.495060) rotate(7.500000) translate(-61.597039, -3.495060) " cx="61.5970386" cy="3.49506011" rx="2.9793002" ry="2.98302109"></ellipse>
                                    <path d="M2.5221033,55.3693748 L4.56500698,19.5723346 C4.56500698,19.5723346 2.5221033,2.52612504 2.5221033,2.52612504 C2.5221033,2.52612504 0.479199628,19.5723346 0.479199628,19.5723346 L2.5221033,55.3693748 Z" id="Path"></path>
                                </g>
                                <g id="a-link" transform="translate(39.272905, 36.311722) rotate(15.000000) translate(-39.272905, -36.311722) translate(6.772905, 8.311722)">
                                    <g id="a" transform="translate(-0.000000, 0.000000)">
                                        <ellipse id="Oval" transform="translate(61.597039, 3.495060) rotate(7.500000) translate(-61.597039, -3.495060) " cx="61.5970386" cy="3.49506011" rx="2.9793002" ry="2.98302109"></ellipse>
                                        <path d="M2.5221033,55.3693748 L4.56500698,19.5723346 C4.56500698,19.5723346 2.5221033,2.52612504 2.5221033,2.52612504 C2.5221033,2.52612504 0.479199628,19.5723346 0.479199628,19.5723346 L2.5221033,55.3693748 Z" id="Path"></path>
                                    </g>
                                </g>
                            </g>
                            <g id="b-link" transform="translate(53.512979, 52.232275) rotate(30.000000) translate(-53.512979, -52.232275) translate(12.512979, 16.232275)">
                                <g id="b" transform="translate(0.000000, 0.000000)">
                                    <g id="a" transform="translate(16.141461, 1.643008)">
                                        <ellipse id="Oval" transform="translate(61.597039, 3.495060) rotate(7.500000) translate(-61.597039, -3.495060) " cx="61.5970386" cy="3.49506011" rx="2.9793002" ry="2.98302109"></ellipse>
                                        <path d="M2.5221033,55.3693748 L4.56500698,19.5723346 C4.56500698,19.5723346 2.5221033,2.52612504 2.5221033,2.52612504 C2.5221033,2.52612504 0.479199628,19.5723346 0.479199628,19.5723346 L2.5221033,55.3693748 Z" id="Path"></path>
                                    </g>
                                    <g id="a-link" transform="translate(39.272905, 36.311722) rotate(15.000000) translate(-39.272905, -36.311722) translate(6.772905, 8.311722)">
                                        <g id="a" transform="translate(-0.000000, 0.000000)">
                                            <ellipse id="Oval" transform="translate(61.597039, 3.495060) rotate(7.500000) translate(-61.597039, -3.495060) " cx="61.5970386" cy="3.49506011" rx="2.9793002" ry="2.98302109"></ellipse>
                                            <path d="M2.5221033,55.3693748 L4.56500698,19.5723346 C4.56500698,19.5723346 2.5221033,2.52612504 2.5221033,2.52612504 C2.5221033,2.52612504 0.479199628,19.5723346 0.479199628,19.5723346 L2.5221033,55.3693748 Z" id="Path"></path>
                                        </g>
                                    </g>
                                </g>
                            </g>
                        </g>
                        <g id="c-link" transform="translate(75.160480, 78.112557) rotate(60.000000) translate(-75.160480, -78.112557) translate(16.160480, 25.612557)">
                            <g id="c" transform="translate(0.019568, 0.036963)">
                                <g id="b" transform="translate(34.805026, 10.227726)">
                                    <g id="a" transform="translate(16.141461, 1.643008)">
                                        <ellipse id="Oval" transform="translate(61.597039, 3.495060) rotate(7.500000) translate(-61.597039, -3.495060) " cx="61.5970386" cy="3.49506011" rx="2.9793002" ry="2.98302109"></ellipse>
                                        <path d="M2.5221033,55.3693748 L4.56500698,19.5723346 C4.56500698,19.5723346 2.5221033,2.52612504 2.5221033,2.52612504 C2.5221033,2.52612504 0.479199628,19.5723346 0.479199628,19.5723346 L2.5221033,55.3693748 Z" id="Path"></path>
                                    </g>
                                    <g id="a-link" transform="translate(39.272905, 36.311722) rotate(15.000000) translate(-39.272905, -36.311722) translate(6.772905, 8.311722)">
                                        <g id="a" transform="translate(-0.000000, 0.000000)">
                                            <ellipse id="Oval" transform="translate(61.597039, 3.495060) rotate(7.500000) translate(-61.597039, -3.495060) " cx="61.5970386" cy="3.49506011" rx="2.9793002" ry="2.98302109"></ellipse>
                                            <path d="M2.5221033,55.3693748 L4.56500698,19.5723346 C4.56500698,19.5723346 2.5221033,2.52612504 2.5221033,2.52612504 C2.5221033,2.52612504 0.479199628,19.5723346 0.479199628,19.5723346 L2.5221033,55.3693748 Z" id="Path"></path>
                                        </g>
                                    </g>
                                </g>
                                <g id="b-link" transform="translate(53.512979, 52.232275) rotate(30.000000) translate(-53.512979, -52.232275) translate(12.512979, 16.232275)">
                                    <g id="b" transform="translate(0.000000, 0.000000)">
                                        <g id="a" transform="translate(16.141461, 1.643008)">
                                            <ellipse id="Oval" transform="translate(61.597039, 3.495060) rotate(7.500000) translate(-61.597039, -3.495060) " cx="61.5970386" cy="3.49506011" rx="2.9793002" ry="2.98302109"></ellipse>
                                            <path d="M2.5221033,55.3693748 L4.56500698,19.5723346 C4.56500698,19.5723346 2.5221033,2.52612504 2.5221033,2.52612504 C2.5221033,2.52612504 0.479199628,19.5723346 0.479199628,19.5723346 L2.5221033,55.3693748 Z" id="Path"></path>
                                        </g>
                                        <g id="a-link" transform="translate(39.272905, 36.311722) rotate(15.000000) translate(-39.272905, -36.311722) translate(6.772905, 8.311722)">
                                            <g id="a" transform="translate(-0.000000, 0.000000)">
                                                <ellipse id="Oval" transform="translate(61.597039, 3.495060) rotate(7.500000) translate(-61.597039, -3.495060) " cx="61.5970386" cy="3.49506011" rx="2.9793002" ry="2.98302109"></ellipse>
                                                <path d="M2.5221033,55.3693748 L4.56500698,19.5723346 C4.56500698,19.5723346 2.5221033,2.52612504 2.5221033,2.52612504 C2.5221033,2.52612504 0.479199628,19.5723346 0.479199628,19.5723346 L2.5221033,55.3693748 Z" id="Path"></path>
                                            </g>
                                        </g>
                                    </g>
                                </g>
                            </g>
                        </g>
                    </g>
                </g>
            </g>
        </g>
    </g>
</svg>