<svg id="svg" version="1.1" width="400" height="275" viewBox="0 0 400 275" xmlns="http://www.w3.org/2000/svg" xmlns:xlink="http://www.w3.org/1999/xlink" ><g id="svgg"><path id="path0" d="M0.000 61.761 L 0.000 83.631 200.000 83.631 L 400.000 83.631 400.000 61.761 L 400.000 39.890 200.000 39.890 L 0.000 39.890 0.000 61.761 M0.000 214.168 L 0.000 236.039 200.000 236.039 L 400.000 236.039 400.000 214.168 L 400.000 192.297 200.000 192.297 L 0.000 192.297 0.000 214.168 " stroke="none" fill="#f4f4f4" fill-rule="evenodd"></path><path id="path1" d="M0.000 18.707 L 0.000 37.414 200.000 37.414 L 400.000 37.414 400.000 18.707 L 400.000 0.000 200.000 0.000 L 0.000 0.000 0.000 18.707 M0.000 256.671 L 0.000 275.103 200.000 275.103 L 400.000 275.103 400.000 256.671 L 400.000 238.239 200.000 238.239 L 0.000 238.239 0.000 256.671 " stroke="none" fill="#fc4c54" fill-rule="evenodd"></path><path id="path2" d="M0.000 137.827 L 0.000 184.319 200.000 184.319 L 400.000 184.319 400.000 137.827 L 400.000 91.334 200.000 91.334 L 0.000 91.334 0.000 137.827 " stroke="none" fill="#44449c" fill-rule="evenodd"></path><path id="path3" d="M0.000 89.409 L 0.000 91.334 200.000 91.334 L 400.000 91.334 400.000 89.409 L 400.000 87.483 200.000 87.483 L 0.000 87.483 0.000 89.409 M0.000 186.382 L 0.000 188.446 200.000 188.446 L 400.000 188.446 400.000 186.382 L 400.000 184.319 200.000 184.319 L 0.000 184.319 0.000 186.382 " stroke="none" fill="#6ca0a4" fill-rule="evenodd"></path><path id="path4" d="M0.000 38.652 L 0.000 39.890 200.000 39.890 L 400.000 39.890 400.000 38.652 L 400.000 37.414 200.000 37.414 L 0.000 37.414 0.000 38.652 M0.000 85.557 L 0.000 87.483 200.000 87.483 L 400.000 87.483 400.000 85.557 L 400.000 83.631 200.000 83.631 L 0.000 83.631 0.000 85.557 M0.000 190.371 L 0.000 192.297 200.000 192.297 L 400.000 192.297 400.000 190.371 L 400.000 188.446 200.000 188.446 L 0.000 188.446 0.000 190.371 M0.000 237.139 L 0.000 238.239 200.000 238.239 L 400.000 238.239 400.000 237.139 L 400.000 236.039 200.000 236.039 L 0.000 236.039 0.000 237.139 " stroke="none" fill="#ccc8f8" fill-rule="evenodd"></path></g></svg>